<svg width="162" height="300" viewBox="0 0 162 300" fill="none" xmlns="http://www.w3.org/2000/svg">
<path style="mix-blend-mode:lighten" opacity="0.5" d="M82.5154 182.401C103.145 182.401 119.868 141.569 119.868 91.2006C119.868 40.8319 103.145 0 82.5154 0C61.8859 0 45.1624 40.8319 45.1624 91.2006C45.1624 141.569 61.8859 182.401 82.5154 182.401Z" fill="url(#paint0_radial_109_805)"/>
<path style="mix-blend-mode:lighten" opacity="0.5" d="M80.8649 300C125.525 300 161.73 279.097 161.73 253.312C161.73 227.528 125.525 206.625 80.8649 206.625C36.2045 206.625 0 227.528 0 253.312C0 279.097 36.2045 300 80.8649 300Z" fill="url(#paint1_radial_109_805)"/>
<path d="M122.479 196.621C122.479 227.908 103.848 253.27 80.8649 253.27C57.8822 253.27 39.251 227.908 39.251 196.621C39.251 165.334 57.8822 155.959 80.8649 155.959C103.848 155.959 122.479 165.334 122.479 196.621Z" fill="url(#paint2_radial_109_805)"/>
<g style="mix-blend-mode:lighten">
<path style="mix-blend-mode:lighten" d="M122.479 196.621C122.479 227.908 103.848 253.27 80.8649 253.27C57.8822 253.27 39.251 227.908 39.251 196.621C39.251 165.334 57.8822 155.959 80.8649 155.959C103.848 155.959 122.479 165.334 122.479 196.621Z" fill="url(#paint3_linear_109_805)"/>
</g>
<path d="M80.8649 189.177C96.5501 189.177 109.266 181.836 109.266 172.78C109.266 163.724 96.5501 156.383 80.8649 156.383C65.1796 156.383 52.4642 163.724 52.4642 172.78C52.4642 181.836 65.1796 189.177 80.8649 189.177Z" fill="#161616"/>
<path style="mix-blend-mode:lighten" opacity="0.5" d="M80.8649 189.177C96.5501 189.177 109.266 181.836 109.266 172.78C109.266 163.724 96.5501 156.383 80.8649 156.383C65.1796 156.383 52.4642 163.724 52.4642 172.78C52.4642 181.836 65.1796 189.177 80.8649 189.177Z" fill="url(#paint4_radial_109_805)"/>
<path d="M60.7822 165.553C71.8732 159.15 89.8556 159.15 100.947 165.554C105.528 168.198 108.212 171.523 109.008 174.964C110.141 170.073 107.457 164.944 100.947 161.186C89.8556 154.782 71.8731 154.782 60.7822 161.185C54.2723 164.944 51.5892 170.072 52.7213 174.963C53.518 171.522 56.2013 168.198 60.7822 165.553Z" fill="url(#paint5_linear_109_805)"/>
<path opacity="0.4" d="M78.1542 98.3334C78.5018 98.0071 78.7449 97.5851 78.8526 97.1207C78.9604 96.6563 78.928 96.1704 78.7596 95.7244C78.5912 95.2784 78.2943 94.8924 77.9065 94.6151C77.5187 94.3379 77.0574 94.1818 76.5809 94.1667C76.1044 94.1516 75.6342 94.2782 75.2296 94.5304C74.825 94.7825 74.5043 95.149 74.3081 95.5835C74.1118 96.0179 74.0487 96.5008 74.1269 96.9711C74.205 97.4413 74.4209 97.8779 74.7472 98.2255C75.1847 98.6916 75.7894 98.9648 76.4283 98.985C77.0673 99.0053 77.6881 98.7709 78.1542 98.3334Z" fill="#CCBA96"/>
<path d="M106.036 96.2517C106.383 95.9254 106.626 95.5034 106.734 95.0391C106.842 94.5747 106.809 94.0888 106.641 93.6428C106.473 93.1969 106.176 92.8108 105.788 92.5336C105.4 92.2563 104.939 92.1003 104.462 92.0852C103.986 92.0701 103.516 92.1966 103.111 92.4488C102.707 92.701 102.386 93.0674 102.19 93.5019C101.993 93.9363 101.93 94.4191 102.008 94.8894C102.087 95.3597 102.302 95.7962 102.629 96.1438C102.845 96.3746 103.105 96.5604 103.394 96.6908C103.682 96.8211 103.993 96.8934 104.31 96.9034C104.626 96.9134 104.941 96.861 105.238 96.7492C105.534 96.6374 105.805 96.4683 106.036 96.2517Z" fill="url(#paint6_linear_109_805)"/>
<path opacity="0.4" d="M99.1548 58.8868C99.5288 58.5359 99.7903 58.0819 99.9062 57.5823C100.022 57.0827 99.9874 56.5599 99.8062 56.0801C99.6251 55.6003 99.3057 55.185 98.8885 54.8866C98.4713 54.5883 97.9751 54.4204 97.4624 54.4041C96.9498 54.3879 96.4439 54.524 96.0086 54.7952C95.5734 55.0665 95.2283 55.4608 95.0171 55.9281C94.8059 56.3955 94.738 56.915 94.8221 57.4209C94.9061 57.9269 95.1383 58.3965 95.4893 58.7705C95.9599 59.272 96.6105 59.566 97.2979 59.5878C97.9853 59.6096 98.6533 59.3575 99.1548 58.8868Z" fill="#CCBA96"/>
<path opacity="0.4" d="M96.2461 66.26C96.4694 66.0505 96.6256 65.7794 96.6948 65.481C96.7641 65.1827 96.7433 64.8705 96.6351 64.584C96.5269 64.2975 96.3362 64.0495 96.0871 63.8714C95.838 63.6932 95.5416 63.593 95.2355 63.5833C94.9294 63.5736 94.6273 63.6549 94.3674 63.8169C94.1075 63.9789 93.9015 64.2143 93.7754 64.4934C93.6493 64.7725 93.6088 65.0827 93.659 65.3848C93.7092 65.6869 93.8479 65.9674 94.0575 66.1907C94.1966 66.339 94.3636 66.4584 94.5489 66.5421C94.7342 66.6258 94.9342 66.6722 95.1374 66.6787C95.3407 66.6851 95.5432 66.6515 95.7334 66.5796C95.9237 66.5078 96.0979 66.3992 96.2461 66.26Z" fill="#CCBA96"/>
<path opacity="0.8" d="M93.0418 62.4348C93.1854 62.2999 93.2859 62.1254 93.3304 61.9335C93.3749 61.7415 93.3615 61.5406 93.2919 61.3563C93.2223 61.1719 93.0996 61.0123 92.9392 60.8977C92.7789 60.7831 92.5882 60.7186 92.3913 60.7124C92.1943 60.7062 91.9999 60.7585 91.8327 60.8628C91.6654 60.967 91.5328 61.1185 91.4517 61.2981C91.3706 61.4777 91.3445 61.6773 91.3768 61.8717C91.4091 62.0661 91.4984 62.2466 91.6332 62.3902C91.8141 62.5829 92.0641 62.6959 92.3283 62.7042C92.5924 62.7126 92.8491 62.6157 93.0418 62.4348Z" fill="#CCBA96"/>
<path opacity="0.8" d="M99.6865 84.5095C99.8302 84.3746 99.9307 84.2002 99.9752 84.0082C100.02 83.8162 100.006 83.6154 99.9367 83.431C99.8671 83.2466 99.7443 83.0871 99.584 82.9725C99.4237 82.8578 99.233 82.7933 99.036 82.7871C98.8391 82.7809 98.6447 82.8332 98.4774 82.9375C98.3102 83.0417 98.1776 83.1932 98.0965 83.3728C98.0154 83.5524 97.9893 83.752 98.0216 83.9464C98.0539 84.1408 98.1431 84.3213 98.278 84.465C98.3676 84.5604 98.4751 84.6372 98.5943 84.6911C98.7136 84.745 98.8423 84.7748 98.973 84.779C99.1038 84.7831 99.2342 84.7614 99.3566 84.7152C99.479 84.669 99.5911 84.5991 99.6865 84.5095Z" fill="#CCBA96"/>
<path opacity="0.4" d="M85.6343 55.9987C85.6779 55.9577 85.7083 55.9048 85.7218 55.8466C85.7353 55.7884 85.7312 55.7274 85.7101 55.6715C85.689 55.6156 85.6518 55.5672 85.6031 55.5324C85.5545 55.4977 85.4967 55.4781 85.4369 55.4762C85.3772 55.4743 85.3182 55.4902 85.2675 55.5218C85.2167 55.5535 85.1765 55.5994 85.1519 55.6539C85.1273 55.7084 85.1194 55.7689 85.1292 55.8279C85.139 55.8869 85.1661 55.9416 85.207 55.9852C85.2341 56.0141 85.2667 56.0375 85.3029 56.0538C85.3391 56.0702 85.3782 56.0792 85.4178 56.0805C85.4575 56.0818 85.4971 56.0752 85.5342 56.0611C85.5713 56.0471 85.6053 56.0259 85.6343 55.9987Z" fill="#CCBA96"/>
<path opacity="0.8" d="M87.4506 68.5114C87.4942 68.4705 87.5247 68.4176 87.5382 68.3593C87.5517 68.3011 87.5477 68.2402 87.5265 68.1842C87.5054 68.1283 87.4682 68.0799 87.4196 68.0451C87.3709 68.0104 87.3131 67.9908 87.2533 67.9889C87.1936 67.987 87.1346 68.0029 87.0839 68.0345C87.0331 68.0662 86.9929 68.1121 86.9683 68.1666C86.9437 68.2211 86.9358 68.2817 86.9456 68.3406C86.9554 68.3996 86.9825 68.4543 87.0235 68.4979C87.0783 68.5564 87.1541 68.5906 87.2342 68.5931C87.3144 68.5956 87.3922 68.5663 87.4506 68.5114Z" fill="#CCBA96"/>
<path opacity="0.8" d="M91.3504 92.3336C91.3939 92.2927 91.4244 92.2398 91.4379 92.1815C91.4514 92.1233 91.4473 92.0624 91.4262 92.0065C91.4051 91.9505 91.3679 91.9021 91.3192 91.8674C91.2706 91.8326 91.2128 91.8131 91.153 91.8112C91.0933 91.8093 91.0343 91.8252 90.9836 91.8568C90.9328 91.8884 90.8926 91.9344 90.868 91.9888C90.8434 92.0433 90.8355 92.1039 90.8453 92.1628C90.8551 92.2218 90.8822 92.2765 90.9231 92.3201C90.978 92.3786 91.0538 92.4128 91.1339 92.4153C91.2141 92.4179 91.2919 92.3885 91.3504 92.3336Z" fill="#CCBA96"/>
<path opacity="0.8" d="M88.5879 88.5403C88.6315 88.4994 88.662 88.4465 88.6755 88.3882C88.689 88.33 88.685 88.2691 88.6639 88.2131C88.6428 88.1572 88.6055 88.1088 88.5569 88.074C88.5083 88.0392 88.4505 88.0196 88.3907 88.0177C88.3309 88.0158 88.272 88.0317 88.2212 88.0633C88.1705 88.0949 88.1303 88.1409 88.1056 88.1954C88.081 88.2498 88.0731 88.3104 88.0829 88.3694C88.0927 88.4283 88.1198 88.4831 88.1607 88.5267C88.2156 88.5851 88.2914 88.6193 88.3715 88.6219C88.4516 88.6244 88.5294 88.5951 88.5879 88.5403Z" fill="#CCBA96"/>
<path opacity="0.4" d="M78.2867 70.2098C78.8173 69.7118 79.1883 69.0676 79.3528 68.3587C79.5173 67.6499 79.4679 66.9081 79.2108 66.2273C78.9538 65.5465 78.5006 64.9573 77.9087 64.534C77.3167 64.1108 76.6125 63.8725 75.8852 63.8495C75.1578 63.8265 74.44 64.0196 73.8224 64.4045C73.2049 64.7895 72.7153 65.3489 72.4157 66.012C72.116 66.6752 72.0198 67.4123 72.1391 68.1302C72.2584 68.848 72.5878 69.5144 73.0859 70.045C73.4165 70.3973 73.8134 70.6811 74.2537 70.88C74.694 71.079 75.1692 71.1892 75.6521 71.2045C76.1351 71.2198 76.6163 71.1399 77.0684 70.9692C77.5204 70.7985 77.9344 70.5405 78.2867 70.2098Z" fill="#CCBA96"/>
<path d="M58.475 77.3665C58.7389 77.1188 58.9235 76.7984 59.0053 76.4458C59.0871 76.0933 59.0625 75.7243 58.9346 75.3857C58.8068 75.0471 58.5814 74.754 58.287 74.5435C57.9925 74.333 57.6423 74.2145 57.2805 74.2031C56.9188 74.1916 56.5617 74.2877 56.2546 74.4791C55.9474 74.6706 55.7039 74.9488 55.5549 75.2786C55.4059 75.6085 55.358 75.9751 55.4173 76.3322C55.4766 76.6892 55.6405 77.0206 55.8882 77.2846C56.0527 77.4598 56.25 77.6009 56.469 77.6999C56.6881 77.7988 56.9244 77.8537 57.1646 77.8613C57.4048 77.8689 57.6442 77.8291 57.869 77.7442C58.0939 77.6593 58.2998 77.531 58.475 77.3665Z" fill="url(#paint7_linear_109_805)"/>
<path opacity="0.4" d="M91.576 77.3241C91.8399 77.0764 92.0244 76.756 92.1062 76.4034C92.188 76.0508 92.1635 75.6819 92.0356 75.3433C91.9077 75.0047 91.6824 74.7116 91.3879 74.501C91.0935 74.2905 90.7432 74.172 90.3815 74.1606C90.0197 74.1491 89.6626 74.2452 89.3555 74.4367C89.0483 74.6281 88.8048 74.9064 88.6558 75.2362C88.5067 75.5661 88.4589 75.9327 88.5182 76.2898C88.5775 76.6468 88.7414 76.9783 88.9891 77.2422C89.3213 77.5961 89.7805 77.8035 90.2656 77.8189C90.7507 77.8342 91.2221 77.6563 91.576 77.3241Z" fill="#CCBA96"/>
<path opacity="0.4" d="M78.2838 47.1229C78.5477 46.8752 78.7322 46.5548 78.814 46.2022C78.8959 45.8497 78.8713 45.4807 78.7434 45.1421C78.6156 44.8035 78.3902 44.5104 78.0957 44.2999C77.8013 44.0894 77.4511 43.9709 77.0893 43.9594C76.7275 43.948 76.3705 44.044 76.0633 44.2355C75.7561 44.4269 75.5126 44.7052 75.3636 45.035C75.2146 45.3649 75.1667 45.7315 75.226 46.0886C75.2854 46.4456 75.4492 46.7771 75.6969 47.041C76.0291 47.3949 76.4883 47.6023 76.9734 47.6177C77.4585 47.633 77.9299 47.4551 78.2838 47.1229Z" fill="#CCBA96"/>
<path opacity="0.4" d="M55.1597 60.2742C55.4236 60.0265 55.6082 59.7061 55.69 59.3535C55.7718 59.0009 55.7472 58.632 55.6193 58.2934C55.4915 57.9548 55.2661 57.6617 54.9716 57.4512C54.6772 57.2407 54.327 57.1222 53.9652 57.1108C53.6034 57.0993 53.2464 57.1954 52.9392 57.3869C52.6321 57.5783 52.3886 57.8566 52.2396 58.1864C52.0905 58.5162 52.0427 58.8828 52.102 59.2399C52.1613 59.5969 52.3252 59.9284 52.5729 60.1923C52.7374 60.3675 52.9347 60.5087 53.1538 60.6076C53.3728 60.7066 53.6091 60.7614 53.8494 60.769C54.0896 60.7766 54.3289 60.7368 54.5538 60.6519C54.7786 60.567 54.9845 60.4387 55.1597 60.2742Z" fill="#CCBA96"/>
<path opacity="0.4" d="M117.974 65.9779C118.238 65.7302 118.423 65.4098 118.505 65.0572C118.586 64.7046 118.562 64.3357 118.434 63.997C118.306 63.6584 118.081 63.3653 117.786 63.1548C117.492 62.9443 117.142 62.8258 116.78 62.8144C116.418 62.8029 116.061 62.899 115.754 63.0905C115.447 63.282 115.203 63.5603 115.054 63.8901C114.905 64.22 114.857 64.5866 114.917 64.9437C114.976 65.3007 115.14 65.6322 115.388 65.8961C115.552 66.0713 115.75 66.2124 115.969 66.3113C116.188 66.4103 116.424 66.4651 116.664 66.4727C116.904 66.4803 117.144 66.4405 117.368 66.3556C117.593 66.2707 117.799 66.1424 117.974 65.9779Z" fill="#CCBA96"/>
<path opacity="0.4" d="M104.745 33.9374C105.009 33.6897 105.194 33.3693 105.275 33.0167C105.357 32.6641 105.333 32.2952 105.205 31.9566C105.077 31.618 104.852 31.3249 104.557 31.1143C104.263 30.9038 103.912 30.7853 103.551 30.7739C103.189 30.7624 102.832 30.8585 102.525 31.05C102.218 31.2414 101.974 31.5197 101.825 31.8495C101.676 32.1794 101.628 32.546 101.688 32.9031C101.747 33.2601 101.911 33.5916 102.159 33.8555C102.491 34.2093 102.95 34.4168 103.435 34.4321C103.92 34.4475 104.391 34.2695 104.745 33.9374Z" fill="#CCBA96"/>
<path d="M128.847 37.3668C128.974 37.2474 129.063 37.093 129.103 36.923C129.142 36.753 129.13 36.5752 129.069 36.4119C129.007 36.2487 128.899 36.1074 128.757 36.0059C128.615 35.9044 128.446 35.8473 128.271 35.8418C128.097 35.8362 127.925 35.8825 127.777 35.9748C127.629 36.0671 127.511 36.2012 127.44 36.3602C127.368 36.5192 127.345 36.696 127.373 36.8681C127.402 37.0402 127.481 37.2 127.6 37.3272C127.76 37.4978 127.982 37.5978 128.215 37.6052C128.449 37.6127 128.677 37.5269 128.847 37.3668Z" fill="url(#paint8_linear_109_805)"/>
<path opacity="0.4" d="M83.6206 92.1633C83.7752 92.0182 83.8834 91.8304 83.9313 91.6238C83.9792 91.4172 83.9648 91.201 83.8899 91.0026C83.815 90.8042 83.6829 90.6325 83.5104 90.5091C83.3378 90.3857 83.1326 90.3163 82.9206 90.3096C82.7086 90.3029 82.4994 90.3592 82.3194 90.4714C82.1394 90.5836 81.9968 90.7467 81.9094 90.9399C81.8221 91.1332 81.7941 91.3481 81.8288 91.5573C81.8636 91.7665 81.9597 91.9607 82.1048 92.1154C82.2995 92.3227 82.5685 92.4442 82.8528 92.4532C83.137 92.4622 83.4132 92.3579 83.6206 92.1633Z" fill="#CCBA96"/>
<path d="M81.544 61.7771C81.6986 61.6319 81.8068 61.4442 81.8547 61.2376C81.9027 61.031 81.8883 60.8149 81.8134 60.6164C81.7385 60.418 81.6064 60.2463 81.4339 60.1229C81.2614 59.9996 81.0562 59.9301 80.8442 59.9234C80.6322 59.9167 80.423 59.973 80.243 60.0851C80.063 60.1973 79.9203 60.3603 79.833 60.5536C79.7457 60.7469 79.7176 60.9617 79.7524 61.1709C79.7872 61.3801 79.8832 61.5743 80.0283 61.729C80.2229 61.9363 80.492 62.0579 80.7762 62.0669C81.0604 62.0759 81.3366 61.9717 81.544 61.7771Z" fill="url(#paint9_linear_109_805)"/>
<path d="M67.8049 61.3656C67.9093 61.2676 67.9823 61.1408 68.0147 61.0012C68.0471 60.8617 68.0374 60.7157 67.9868 60.5817C67.9362 60.4477 67.847 60.3317 67.7305 60.2484C67.614 60.1651 67.4753 60.1182 67.3322 60.1136C67.189 60.1091 67.0477 60.1471 66.9262 60.2229C66.8046 60.2987 66.7082 60.4088 66.6492 60.5393C66.5903 60.6698 66.5713 60.8149 66.5948 60.9562C66.6183 61.0975 66.6831 61.2287 66.7812 61.3331C66.9126 61.4732 67.0943 61.5552 67.2863 61.5613C67.4783 61.5674 67.6648 61.497 67.8049 61.3656Z" fill="url(#paint10_linear_109_805)"/>
<path d="M65.7464 61.3112C65.8979 61.1689 66.0039 60.9848 66.0509 60.7823C66.0979 60.5798 66.0837 60.3679 66.0103 60.1734C65.9368 59.9789 65.8073 59.8106 65.6382 59.6897C65.4691 59.5688 65.2679 59.5007 65.0601 59.4942C64.8523 59.4876 64.6473 59.5428 64.4708 59.6528C64.2944 59.7628 64.1546 59.9226 64.069 60.112C63.9834 60.3015 63.9559 60.5121 63.99 60.7172C64.0241 60.9222 64.1182 61.1126 64.2605 61.2642C64.355 61.3649 64.4683 61.4459 64.5942 61.5028C64.72 61.5596 64.8557 61.5911 64.9937 61.5955C65.1317 61.5998 65.2692 61.577 65.3983 61.5282C65.5275 61.4794 65.6457 61.4057 65.7464 61.3112Z" fill="url(#paint11_linear_109_805)"/>
<path d="M65.3809 63.8153C65.4649 63.7365 65.5235 63.6347 65.5496 63.5225C65.5756 63.4104 65.5678 63.2931 65.5272 63.1855C65.4865 63.0778 65.4149 62.9846 65.3212 62.9176C65.2276 62.8507 65.1163 62.813 65.0012 62.8094C64.8862 62.8057 64.7727 62.8363 64.675 62.8971C64.5773 62.958 64.4999 63.0465 64.4525 63.1514C64.4051 63.2563 64.3899 63.3728 64.4088 63.4864C64.4277 63.5999 64.4798 63.7053 64.5585 63.7892C64.6642 63.9017 64.8101 63.9676 64.9643 63.9725C65.1185 63.9774 65.2684 63.9208 65.3809 63.8153Z" fill="url(#paint12_linear_109_805)"/>
<path opacity="0.4" d="M75.4744 81.1135C75.5834 81.0112 75.6597 80.8788 75.6935 80.7331C75.7273 80.5875 75.7171 80.4351 75.6643 80.2952C75.6115 80.1553 75.5183 80.0342 75.3967 79.9472C75.275 79.8602 75.1303 79.8113 74.9809 79.8065C74.8314 79.8018 74.6839 79.8415 74.557 79.9206C74.4301 79.9997 74.3295 80.1146 74.2679 80.2509C74.2063 80.3872 74.1866 80.5387 74.2111 80.6862C74.2356 80.8337 74.3033 80.9706 74.4056 81.0797C74.5429 81.2259 74.7326 81.3116 74.933 81.3179C75.1334 81.3243 75.3282 81.2508 75.4744 81.1135Z" fill="#CCBA96"/>
<path opacity="0.4" d="M97.5011 84.2C97.6101 84.0976 97.6863 83.9652 97.7201 83.8196C97.7539 83.6739 97.7438 83.5215 97.691 83.3816C97.6381 83.2417 97.545 83.1206 97.4234 83.0336C97.3017 82.9466 97.157 82.8977 97.0075 82.893C96.8581 82.8882 96.7106 82.9279 96.5837 83.007C96.4567 83.0861 96.3562 83.2011 96.2946 83.3374C96.233 83.4736 96.2132 83.6251 96.2377 83.7726C96.2623 83.9201 96.33 84.0571 96.4323 84.1661C96.5696 84.3123 96.7593 84.398 96.9597 84.4043C97.1601 84.4107 97.3548 84.3372 97.5011 84.2Z" fill="#CCBA96"/>
<path d="M80.1642 82.286C80.4327 82.034 80.6204 81.7081 80.7036 81.3495C80.7868 80.9909 80.7618 80.6157 80.6318 80.2713C80.5017 79.9268 80.2725 79.6287 79.973 79.4146C79.6736 79.2005 79.3173 79.08 78.9493 79.0683C78.5814 79.0567 78.2182 79.1544 77.9058 79.3491C77.5934 79.5439 77.3457 79.8269 77.1941 80.1624C77.0426 80.4979 76.9939 80.8708 77.0542 81.2339C77.1146 81.5971 77.2813 81.9342 77.5333 82.2026C77.8711 82.5626 78.3381 82.7736 78.8315 82.7892C79.3249 82.8048 79.8043 82.6238 80.1642 82.286Z" fill="url(#paint13_linear_109_805)"/>
<path d="M82.5154 176.085C105.955 176.085 124.957 157.083 124.957 133.643C124.957 110.203 105.955 91.2007 82.5154 91.2007C59.0753 91.2007 40.0734 110.203 40.0734 133.643C40.0734 157.083 59.0753 176.085 82.5154 176.085Z" fill="url(#paint14_linear_109_805)"/>
<path d="M77.3672 227.164C86.2686 227.164 93.4846 219.948 93.4846 211.046C93.4846 202.145 86.2686 194.929 77.3672 194.929C68.4658 194.929 61.2497 202.145 61.2497 211.046C61.2497 219.948 68.4658 227.164 77.3672 227.164Z" fill="url(#paint15_radial_109_805)"/>
<g style="mix-blend-mode:lighten">
<path style="mix-blend-mode:lighten" d="M77.3672 227.164C86.2686 227.164 93.4846 219.948 93.4846 211.046C93.4846 202.145 86.2686 194.929 77.3672 194.929C68.4657 194.929 61.2497 202.145 61.2497 211.046C61.2497 219.948 68.4657 227.164 77.3672 227.164Z" fill="url(#paint16_linear_109_805)"/>
</g>
<path d="M85.1424 224.515C82.9942 225.746 80.586 226.453 78.1133 226.579C75.6407 226.705 73.1732 226.246 70.9112 225.239C66.8658 223.17 66.6787 219.492 70.4931 217.023C72.6413 215.792 75.0495 215.085 77.5221 214.959C79.9948 214.834 82.4622 215.293 84.7243 216.299C88.7696 218.368 88.9567 222.047 85.1424 224.515Z" fill="#161616"/>
<path style="mix-blend-mode:lighten" opacity="0.5" d="M85.1439 224.514C82.9956 225.745 80.5875 226.452 78.1148 226.578C75.6421 226.704 73.1747 226.245 70.9126 225.238C66.8673 223.169 66.6802 219.491 70.4947 217.022C72.6429 215.791 75.0511 215.084 77.5237 214.958C79.9964 214.833 82.4638 215.292 84.7258 216.298C88.7712 218.367 88.9582 222.046 85.1439 224.514Z" fill="url(#paint17_radial_109_805)"/>
<path d="M87.3542 218.58C86.8323 219.718 85.9741 220.668 84.8951 221.303C82.7469 222.534 80.3387 223.241 77.8661 223.367C75.3934 223.492 72.926 223.033 70.664 222.027C69.5911 221.528 68.6803 220.737 68.0356 219.745C67.2275 221.733 68.1953 223.848 70.9127 225.238C73.1747 226.245 75.6421 226.704 78.1148 226.578C80.5874 226.452 82.9956 225.745 85.1438 224.514C87.7862 222.804 88.5049 220.514 87.3542 218.58Z" fill="#CCBA96"/>
<path d="M93.5556 244.847C96.236 250.114 97.2259 264.389 91.9585 267.07C86.6912 269.75 77.1612 259.821 74.4807 254.553C73.8401 253.301 73.4529 251.934 73.3412 250.531C73.2294 249.128 73.3954 247.718 73.8296 246.379C74.2638 245.041 74.9577 243.801 75.8715 242.731C76.7854 241.661 77.9013 240.782 79.1553 240.144C80.4094 239.506 81.7769 239.121 83.1798 239.012C84.5826 238.903 85.9932 239.072 87.3308 239.509C88.6683 239.945 89.9066 240.642 90.9748 241.558C92.0429 242.474 92.9199 243.591 93.5556 244.847Z" fill="url(#paint18_radial_109_805)"/>
<g style="mix-blend-mode:lighten">
<path style="mix-blend-mode:lighten" d="M93.5556 244.847C96.236 250.114 97.2259 264.389 91.9585 267.07C86.6912 269.75 77.1612 259.821 74.4807 254.553C73.8401 253.301 73.4529 251.934 73.3412 250.531C73.2294 249.128 73.3954 247.718 73.8296 246.379C74.2638 245.041 74.9577 243.801 75.8715 242.731C76.7854 241.661 77.9013 240.782 79.1553 240.144C80.4094 239.506 81.7769 239.121 83.1798 239.012C84.5826 238.903 85.9932 239.072 87.3308 239.509C88.6683 239.945 89.9066 240.642 90.9748 241.558C92.0429 242.474 92.9199 243.591 93.5556 244.847Z" fill="url(#paint19_linear_109_805)"/>
</g>
<path d="M76.5135 242.79C77.6489 241.626 79.0429 240.745 80.5824 240.22C82.1218 239.695 83.7633 239.541 85.3737 239.769C88.3022 240.347 89.0832 242.637 87.1183 244.884C85.9829 246.049 84.5889 246.929 83.0494 247.454C81.51 247.979 79.8684 248.134 78.258 247.906C75.3297 247.327 74.5487 245.037 76.5135 242.79Z" fill="#161616"/>
<path style="mix-blend-mode:lighten" opacity="0.5" d="M76.5135 242.79C77.6489 241.626 79.0429 240.745 80.5824 240.22C82.1218 239.695 83.7633 239.541 85.3737 239.769C88.3022 240.347 89.0832 242.637 87.1183 244.884C85.9829 246.049 84.5889 246.929 83.0494 247.454C81.51 247.979 79.8684 248.134 78.258 247.906C75.3297 247.327 74.5487 245.037 76.5135 242.79Z" fill="url(#paint20_radial_109_805)"/>
<path d="M76.1863 246.938C76.3111 246.125 76.682 245.37 77.2493 244.774C78.3847 243.61 79.7787 242.729 81.3181 242.204C82.8576 241.679 84.4991 241.525 86.1095 241.753C86.8772 241.875 87.5951 242.21 88.1812 242.721C88.3336 241.32 87.3408 240.157 85.3737 239.769C83.7634 239.541 82.1218 239.695 80.5824 240.22C79.043 240.745 77.649 241.626 76.5135 242.79C75.1524 244.347 75.1109 245.923 76.1863 246.938Z" fill="url(#paint21_linear_109_805)"/>
<path opacity="0.6" d="M81.7206 233.807C81.5975 233.919 81.5105 234.065 81.4706 234.227C81.4307 234.389 81.4397 234.559 81.4964 234.715C81.553 234.872 81.6549 235.008 81.7891 235.107C81.9232 235.206 82.0837 235.263 82.2501 235.27C82.4165 235.278 82.5815 235.236 82.7241 235.15C82.8666 235.063 82.9805 234.937 83.0511 234.786C83.1218 234.635 83.1462 234.467 83.1211 234.302C83.0961 234.137 83.0228 233.984 82.9104 233.861C82.7598 233.696 82.5499 233.597 82.3267 233.587C82.1036 233.577 81.8856 233.656 81.7206 233.807Z" fill="#CCBA96"/>
<path style="mix-blend-mode:lighten" opacity="0.5" d="M71.9111 235.056C71.6001 235.34 71.3802 235.71 71.2794 236.119C71.1785 236.528 71.2012 236.958 71.3445 237.354C71.4878 237.75 71.7453 238.094 72.0845 238.344C72.4237 238.594 72.8293 238.737 73.25 238.756C73.6708 238.776 74.0877 238.669 74.4482 238.452C74.8087 238.234 75.0965 237.914 75.2752 237.533C75.4539 237.151 75.5155 236.725 75.4522 236.309C75.389 235.893 75.2036 235.504 74.9197 235.193C74.7311 234.987 74.5038 234.819 74.2505 234.701C73.9973 234.582 73.7232 234.514 73.4438 234.502C73.1644 234.489 72.8853 234.531 72.6223 234.627C72.3593 234.722 72.1177 234.868 71.9111 235.056Z" fill="url(#paint22_radial_109_805)"/>
<path opacity="0.6" d="M77.4047 223.169C77.2305 223.328 77.1074 223.535 77.0509 223.764C76.9945 223.993 77.0071 224.234 77.0874 224.455C77.1676 224.677 77.3118 224.87 77.5017 225.01C77.6916 225.15 77.9186 225.23 78.1542 225.241C78.3897 225.251 78.6232 225.192 78.825 225.07C79.0268 224.948 79.1879 224.769 79.288 224.555C79.388 224.342 79.4225 224.104 79.3871 223.87C79.3516 223.637 79.2479 223.42 79.0889 223.246C78.9833 223.13 78.856 223.036 78.7143 222.97C78.5725 222.904 78.4191 222.866 78.2627 222.859C78.1063 222.852 77.95 222.875 77.8028 222.929C77.6556 222.982 77.5203 223.064 77.4047 223.169Z" fill="#CCBA96"/>
<path d="M74.6134 227.147C74.4942 227.256 74.4099 227.397 74.3713 227.554C74.3327 227.711 74.3413 227.875 74.3963 228.027C74.4512 228.179 74.5498 228.311 74.6798 228.407C74.8097 228.502 74.9651 228.557 75.1263 228.564C75.2875 228.572 75.4473 228.531 75.5854 228.448C75.7235 228.364 75.8338 228.242 75.9022 228.096C75.9707 227.95 75.9943 227.786 75.97 227.627C75.9458 227.467 75.8748 227.319 75.766 227.199C75.6201 227.04 75.4167 226.944 75.2005 226.934C74.9844 226.925 74.7732 227.001 74.6134 227.147Z" fill="url(#paint23_linear_109_805)"/>
<path d="M74.0006 225.199C73.9191 225.274 73.8615 225.371 73.835 225.478C73.8086 225.585 73.8145 225.698 73.8521 225.802C73.8897 225.905 73.9572 225.996 74.0462 226.061C74.1351 226.127 74.2414 226.164 74.3517 226.169C74.462 226.174 74.5714 226.147 74.6659 226.089C74.7604 226.032 74.8358 225.948 74.8827 225.848C74.9296 225.749 74.9457 225.637 74.9291 225.528C74.9125 225.419 74.8639 225.317 74.7895 225.235C74.7401 225.181 74.6804 225.137 74.614 225.106C74.5476 225.075 74.4758 225.057 74.4025 225.054C74.3292 225.05 74.2561 225.062 74.1871 225.087C74.1181 225.112 74.0548 225.15 74.0006 225.199Z" fill="url(#paint24_linear_109_805)"/>
<path opacity="0.6" d="M79.8876 241.294C79.715 241.452 79.593 241.657 79.537 241.884C79.481 242.111 79.4936 242.349 79.5731 242.569C79.6526 242.789 79.7955 242.98 79.9837 243.118C80.1718 243.257 80.3969 243.336 80.6303 243.347C80.8637 243.358 81.0951 243.299 81.2951 243.178C81.4951 243.057 81.6548 242.88 81.7539 242.668C81.8531 242.457 81.8873 242.22 81.8522 241.989C81.8171 241.758 81.7143 241.543 81.5567 241.37C81.3455 241.139 81.0509 241.001 80.7379 240.987C80.4249 240.972 80.119 241.083 79.8876 241.294Z" fill="#CCBA96"/>
<path style="mix-blend-mode:lighten" opacity="0.5" d="M82.2041 238.536C81.9461 238.771 81.7637 239.078 81.68 239.417C81.5963 239.757 81.6151 240.113 81.734 240.442C81.8529 240.77 82.0665 241.056 82.348 241.263C82.6294 241.471 82.9659 241.59 83.315 241.606C83.6641 241.621 84.01 241.533 84.3091 241.353C84.6082 241.172 84.847 240.907 84.9952 240.59C85.1435 240.274 85.1946 239.921 85.1421 239.575C85.0896 239.23 84.9358 238.907 84.7002 238.649C84.5438 238.478 84.3551 238.339 84.145 238.241C83.9349 238.142 83.7075 238.086 83.4757 238.076C83.2439 238.065 83.0123 238.1 82.7942 238.179C82.576 238.258 82.3755 238.379 82.2041 238.536Z" fill="url(#paint25_radial_109_805)"/>
<path d="M126.625 113.644C122.506 113.605 119.509 113.599 118.54 113.544C118.322 113.509 118.097 113.537 117.894 113.624C117.69 113.71 117.515 113.853 117.388 114.035C117.182 114.412 117.038 114.821 116.963 115.244C116.831 115.763 116.761 116.165 116.71 116.464C116.586 117.206 116.444 117.94 116.328 118.685C116.169 119.707 115.989 120.855 115.759 122.305C115.356 125.079 115.105 127.873 115.007 130.675C114.895 132.806 114.745 135.778 114.875 139.673C115.007 143.245 115.384 146.804 116.003 150.324C116.351 152.612 116.86 155.483 117.742 155.618C117.772 155.623 117.804 155.624 117.835 155.622C117.835 155.622 123.654 155.624 125.633 155.484C125.864 141.542 126.394 127.586 126.625 113.644Z" fill="url(#paint26_linear_109_805)"/>
<path d="M128.886 134.607C129.154 123.042 128.139 113.638 126.618 113.603C125.096 113.567 123.645 122.914 123.377 134.479C123.108 146.045 124.124 155.449 125.645 155.484C127.167 155.519 128.617 146.172 128.886 134.607Z" fill="url(#paint27_linear_109_805)"/>
<path d="M128.689 134.603C128.939 123.863 127.995 115.131 126.583 115.098C125.17 115.065 123.823 123.745 123.574 134.484C123.324 145.224 124.267 153.956 125.68 153.989C127.093 154.022 128.44 145.342 128.689 134.603Z" fill="url(#paint28_radial_109_805)"/>
<path d="M128.395 134.596C128.615 125.093 127.781 117.365 126.531 117.336C125.281 117.307 124.089 124.988 123.868 134.491C123.647 143.995 124.482 151.723 125.732 151.752C126.982 151.781 128.174 144.1 128.395 134.596Z" fill="#36322C"/>
<path d="M128.395 134.596C128.615 125.093 127.781 117.365 126.531 117.336C125.281 117.307 124.089 124.988 123.868 134.491C123.647 143.995 124.482 151.723 125.732 151.752C126.982 151.781 128.174 144.1 128.395 134.596Z" fill="#36322C"/>
<path d="M127.069 134.565C127.16 130.63 126.814 127.43 126.297 127.418C125.779 127.406 125.286 130.586 125.194 134.522C125.103 138.457 125.448 141.657 125.966 141.669C126.484 141.681 126.977 138.5 127.069 134.565Z" fill="#857861"/>
<path d="M126.91 134.562C126.986 131.292 126.699 128.634 126.269 128.624C125.839 128.614 125.429 131.256 125.353 134.526C125.277 137.795 125.564 140.454 125.994 140.464C126.424 140.474 126.834 137.831 126.91 134.562Z" fill="url(#paint29_radial_109_805)"/>
<defs>
<radialGradient id="paint0_radial_109_805" cx="0" cy="0" r="1" gradientUnits="userSpaceOnUse" gradientTransform="translate(82.487 91.2008) scale(44.3958 108.398)">
<stop stop-color="#CCBA96"/>
<stop offset="0.06554" stop-color="#AD9E80"/>
<stop offset="0.16316" stop-color="#857A64"/>
<stop offset="0.26739" stop-color="#625B4C"/>
<stop offset="0.37754" stop-color="#474238"/>
<stop offset="0.49578" stop-color="#312E29"/>
<stop offset="0.62597" stop-color="#22211E"/>
<stop offset="0.77735" stop-color="#191818"/>
<stop offset="1" stop-color="#161616"/>
</radialGradient>
<radialGradient id="paint1_radial_109_805" cx="0" cy="0" r="1" gradientUnits="userSpaceOnUse" gradientTransform="translate(80.8649 253.312) rotate(30.0007) scale(66.0254 57.1805)">
<stop stop-color="#CCBA96"/>
<stop offset="0.14516" stop-color="#A4967A"/>
<stop offset="0.35394" stop-color="#726957"/>
<stop offset="0.55077" stop-color="#4A453B"/>
<stop offset="0.72998" stop-color="#2E2B27"/>
<stop offset="0.88555" stop-color="#1C1C1A"/>
<stop offset="1" stop-color="#161616"/>
</radialGradient>
<radialGradient id="paint2_radial_109_805" cx="0" cy="0" r="1" gradientUnits="userSpaceOnUse" gradientTransform="translate(105.418 188.132) scale(71.5157 97.3518)">
<stop stop-color="#CCB078"/>
<stop offset="1" stop-color="#7A5623"/>
</radialGradient>
<linearGradient id="paint3_linear_109_805" x1="80.8649" y1="253.27" x2="80.8649" y2="155.959" gradientUnits="userSpaceOnUse">
<stop stop-color="#CCBA96"/>
<stop offset="0.03104" stop-color="#C8B58F"/>
<stop offset="0.21135" stop-color="#B1996E"/>
<stop offset="0.39654" stop-color="#A08454"/>
<stop offset="0.58635" stop-color="#947442"/>
<stop offset="0.78358" stop-color="#8C6B37"/>
<stop offset="1" stop-color="#8A6833"/>
</linearGradient>
<radialGradient id="paint4_radial_109_805" cx="0" cy="0" r="1" gradientUnits="userSpaceOnUse" gradientTransform="translate(79.762 188.535) scale(55.3547)">
<stop stop-color="#CCBA96"/>
<stop offset="0.01294" stop-color="#C7B592"/>
<stop offset="0.13887" stop-color="#988B72"/>
<stop offset="0.26915" stop-color="#706755"/>
<stop offset="0.4021" stop-color="#4F4A3E"/>
<stop offset="0.53847" stop-color="#36332D"/>
<stop offset="0.6796" stop-color="#242320"/>
<stop offset="0.82862" stop-color="#191918"/>
<stop offset="0.99861" stop-color="#161616"/>
</radialGradient>
<linearGradient id="paint5_linear_109_805" x1="52.4694" y1="165.674" x2="109.26" y2="165.674" gradientUnits="userSpaceOnUse">
<stop stop-color="#7A6342"/>
<stop offset="0.01089" stop-color="#7D6645"/>
<stop offset="0.16114" stop-color="#9F8A68"/>
<stop offset="0.30146" stop-color="#B8A581"/>
<stop offset="0.42691" stop-color="#C7B491"/>
<stop offset="0.52494" stop-color="#CCBA96"/>
<stop offset="0.61161" stop-color="#C6B390"/>
<stop offset="0.73313" stop-color="#B5A17E"/>
<stop offset="0.87455" stop-color="#998361"/>
<stop offset="1" stop-color="#7A6342"/>
</linearGradient>
<linearGradient id="paint6_linear_109_805" x1="351.317" y1="323.135" x2="363.104" y2="323.135" gradientUnits="userSpaceOnUse">
<stop stop-color="#7A6342"/>
<stop offset="0.01089" stop-color="#7D6645"/>
<stop offset="0.16114" stop-color="#9F8A68"/>
<stop offset="0.30146" stop-color="#B8A581"/>
<stop offset="0.42691" stop-color="#C7B491"/>
<stop offset="0.52494" stop-color="#CCBA96"/>
<stop offset="0.61161" stop-color="#C6B390"/>
<stop offset="0.73313" stop-color="#B5A17E"/>
<stop offset="0.87455" stop-color="#998361"/>
<stop offset="1" stop-color="#7A6342"/>
</linearGradient>
<linearGradient id="paint7_linear_109_805" x1="158.227" y1="215.354" x2="165.022" y2="215.354" gradientUnits="userSpaceOnUse">
<stop stop-color="#7A6342"/>
<stop offset="0.01089" stop-color="#7D6645"/>
<stop offset="0.16114" stop-color="#9F8A68"/>
<stop offset="0.30146" stop-color="#B8A581"/>
<stop offset="0.42691" stop-color="#C7B491"/>
<stop offset="0.52494" stop-color="#CCBA96"/>
<stop offset="0.61161" stop-color="#C6B390"/>
<stop offset="0.73313" stop-color="#B5A17E"/>
<stop offset="0.87455" stop-color="#998361"/>
<stop offset="1" stop-color="#7A6342"/>
</linearGradient>
<linearGradient id="paint8_linear_109_805" x1="241.342" y1="68.7066" x2="242.921" y2="68.7066" gradientUnits="userSpaceOnUse">
<stop stop-color="#7A6342"/>
<stop offset="0.01089" stop-color="#7D6645"/>
<stop offset="0.16114" stop-color="#9F8A68"/>
<stop offset="0.30146" stop-color="#B8A581"/>
<stop offset="0.42691" stop-color="#C7B491"/>
<stop offset="0.52494" stop-color="#CCBA96"/>
<stop offset="0.61161" stop-color="#C6B390"/>
<stop offset="0.73313" stop-color="#B5A17E"/>
<stop offset="0.87455" stop-color="#998361"/>
<stop offset="1" stop-color="#7A6342"/>
</linearGradient>
<linearGradient id="paint9_linear_109_805" x1="166.477" y1="126.273" x2="168.81" y2="126.273" gradientUnits="userSpaceOnUse">
<stop stop-color="#7A6342"/>
<stop offset="0.01089" stop-color="#7D6645"/>
<stop offset="0.16114" stop-color="#9F8A68"/>
<stop offset="0.30146" stop-color="#B8A581"/>
<stop offset="0.42691" stop-color="#C7B491"/>
<stop offset="0.52494" stop-color="#CCBA96"/>
<stop offset="0.61161" stop-color="#C6B390"/>
<stop offset="0.73313" stop-color="#B5A17E"/>
<stop offset="0.87455" stop-color="#998361"/>
<stop offset="1" stop-color="#7A6342"/>
</linearGradient>
<linearGradient id="paint10_linear_109_805" x1="115.505" y1="104.808" x2="116.569" y2="104.808" gradientUnits="userSpaceOnUse">
<stop stop-color="#7A6342"/>
<stop offset="0.01089" stop-color="#7D6645"/>
<stop offset="0.16114" stop-color="#9F8A68"/>
<stop offset="0.30146" stop-color="#B8A581"/>
<stop offset="0.42691" stop-color="#C7B491"/>
<stop offset="0.52494" stop-color="#CCBA96"/>
<stop offset="0.61161" stop-color="#C6B390"/>
<stop offset="0.73313" stop-color="#B5A17E"/>
<stop offset="0.87455" stop-color="#998361"/>
<stop offset="1" stop-color="#7A6342"/>
</linearGradient>
<linearGradient id="paint11_linear_109_805" x1="132.196" y1="124.056" x2="134.438" y2="124.056" gradientUnits="userSpaceOnUse">
<stop stop-color="#7A6342"/>
<stop offset="0.01089" stop-color="#7D6645"/>
<stop offset="0.16114" stop-color="#9F8A68"/>
<stop offset="0.30146" stop-color="#B8A581"/>
<stop offset="0.42691" stop-color="#C7B491"/>
<stop offset="0.52494" stop-color="#CCBA96"/>
<stop offset="0.61161" stop-color="#C6B390"/>
<stop offset="0.73313" stop-color="#B5A17E"/>
<stop offset="0.87455" stop-color="#998361"/>
<stop offset="1" stop-color="#7A6342"/>
</linearGradient>
<linearGradient id="paint12_linear_109_805" x1="102.415" y1="100.226" x2="103.102" y2="100.226" gradientUnits="userSpaceOnUse">
<stop stop-color="#7A6342"/>
<stop offset="0.01089" stop-color="#7D6645"/>
<stop offset="0.16114" stop-color="#9F8A68"/>
<stop offset="0.30146" stop-color="#B8A581"/>
<stop offset="0.42691" stop-color="#C7B491"/>
<stop offset="0.52494" stop-color="#CCBA96"/>
<stop offset="0.61161" stop-color="#C6B390"/>
<stop offset="0.73313" stop-color="#B5A17E"/>
<stop offset="0.87455" stop-color="#998361"/>
<stop offset="1" stop-color="#7A6342"/>
</linearGradient>
<linearGradient id="paint13_linear_109_805" x1="222.48" y1="231.882" x2="229.51" y2="231.882" gradientUnits="userSpaceOnUse">
<stop stop-color="#7A6342"/>
<stop offset="0.01089" stop-color="#7D6645"/>
<stop offset="0.16114" stop-color="#9F8A68"/>
<stop offset="0.30146" stop-color="#B8A581"/>
<stop offset="0.42691" stop-color="#C7B491"/>
<stop offset="0.52494" stop-color="#CCBA96"/>
<stop offset="0.61161" stop-color="#C6B390"/>
<stop offset="0.73313" stop-color="#B5A17E"/>
<stop offset="0.87455" stop-color="#998361"/>
<stop offset="1" stop-color="#7A6342"/>
</linearGradient>
<linearGradient id="paint14_linear_109_805" x1="76.6079" y1="175.677" x2="88.4229" y2="91.6085" gradientUnits="userSpaceOnUse">
<stop stop-color="#7A5623"/>
<stop offset="0.05828" stop-color="#7B5929"/>
<stop offset="0.44262" stop-color="#826E4B"/>
<stop offset="0.74682" stop-color="#C5BCAC"/>
<stop offset="1" stop-color="white"/>
</linearGradient>
<radialGradient id="paint15_radial_109_805" cx="0" cy="0" r="1" gradientUnits="userSpaceOnUse" gradientTransform="translate(-15994.4 13780.1) rotate(113.286) scale(549.775)">
<stop stop-color="#CCB078"/>
<stop offset="1" stop-color="#7A5623"/>
</radialGradient>
<linearGradient id="paint16_linear_109_805" x1="70.8729" y1="196.28" x2="83.9392" y2="225.747" gradientUnits="userSpaceOnUse">
<stop stop-color="#CCB078"/>
<stop offset="0.177" stop-color="#B0915B"/>
<stop offset="0.36933" stop-color="#987742"/>
<stop offset="0.56767" stop-color="#876531"/>
<stop offset="0.77384" stop-color="#7D5A26"/>
<stop offset="1" stop-color="#7A5623"/>
</linearGradient>
<radialGradient id="paint17_radial_109_805" cx="0" cy="0" r="1" gradientUnits="userSpaceOnUse" gradientTransform="translate(78.3079 216.86) rotate(57.0881) scale(30.0304)">
<stop offset="0.00122" stop-color="#CCBA96"/>
<stop offset="0.01416" stop-color="#C7B592"/>
<stop offset="0.14011" stop-color="#988B72"/>
<stop offset="0.27041" stop-color="#706755"/>
<stop offset="0.40339" stop-color="#4F4A3E"/>
<stop offset="0.53978" stop-color="#36332D"/>
<stop offset="0.68093" stop-color="#242320"/>
<stop offset="0.82998" stop-color="#191918"/>
<stop offset="1" stop-color="#161616"/>
</radialGradient>
<radialGradient id="paint18_radial_109_805" cx="0" cy="0" r="1" gradientUnits="userSpaceOnUse" gradientTransform="translate(85.1556 241.21) rotate(-26.9697) scale(30.3994)">
<stop stop-color="#CCBA96"/>
<stop offset="1" stop-color="#7A5623"/>
</radialGradient>
<linearGradient id="paint19_linear_109_805" x1="81.3502" y1="265.318" x2="88.5659" y2="239.871" gradientUnits="userSpaceOnUse">
<stop stop-color="#CCBA96"/>
<stop offset="0.09577" stop-color="#BCA67F"/>
<stop offset="0.26404" stop-color="#A48A5E"/>
<stop offset="0.43689" stop-color="#927344"/>
<stop offset="0.61402" stop-color="#846332"/>
<stop offset="0.7981" stop-color="#7D5927"/>
<stop offset="1" stop-color="#7A5623"/>
</linearGradient>
<radialGradient id="paint20_radial_109_805" cx="0" cy="0" r="1" gradientUnits="userSpaceOnUse" gradientTransform="translate(82.1904 246.37) rotate(-138.833) scale(19.7284)">
<stop stop-color="#CCBA96"/>
<stop offset="0.01296" stop-color="#C7B592"/>
<stop offset="0.13906" stop-color="#988B72"/>
<stop offset="0.26952" stop-color="#706755"/>
<stop offset="0.40266" stop-color="#4F4A3E"/>
<stop offset="0.53922" stop-color="#36332D"/>
<stop offset="0.68055" stop-color="#242320"/>
<stop offset="0.82977" stop-color="#191918"/>
<stop offset="1" stop-color="#161616"/>
</radialGradient>
<linearGradient id="paint21_linear_109_805" x1="75.431" y1="243.286" x2="88.1964" y2="243.286" gradientUnits="userSpaceOnUse">
<stop stop-color="#7A5623"/>
<stop offset="0.02141" stop-color="#7F5C29"/>
<stop offset="0.16858" stop-color="#A1804B"/>
<stop offset="0.30603" stop-color="#B89B64"/>
<stop offset="0.42891" stop-color="#C7AA73"/>
<stop offset="0.52494" stop-color="#CCB078"/>
<stop offset="0.6097" stop-color="#C6A972"/>
<stop offset="0.72857" stop-color="#B59761"/>
<stop offset="0.8669" stop-color="#9A7944"/>
<stop offset="1" stop-color="#7A5623"/>
</linearGradient>
<radialGradient id="paint22_radial_109_805" cx="0" cy="0" r="1" gradientUnits="userSpaceOnUse" gradientTransform="translate(73.3469 236.629) scale(2.12951)">
<stop offset="0.00122" stop-color="#CCB078"/>
<stop offset="0.01416" stop-color="#C7AC75"/>
<stop offset="0.14011" stop-color="#98845C"/>
<stop offset="0.27041" stop-color="#706247"/>
<stop offset="0.40339" stop-color="#4F4735"/>
<stop offset="0.53978" stop-color="#363127"/>
<stop offset="0.68093" stop-color="#24221E"/>
<stop offset="0.82998" stop-color="#191918"/>
<stop offset="1" stop-color="#161616"/>
</radialGradient>
<linearGradient id="paint23_linear_109_805" x1="135.882" y1="415.431" x2="137.233" y2="415.431" gradientUnits="userSpaceOnUse">
<stop stop-color="#7A5623"/>
<stop offset="0.02141" stop-color="#7F5C29"/>
<stop offset="0.16858" stop-color="#A1804B"/>
<stop offset="0.30603" stop-color="#B89B64"/>
<stop offset="0.42891" stop-color="#C7AA73"/>
<stop offset="0.52494" stop-color="#CCB078"/>
<stop offset="0.6097" stop-color="#C6A972"/>
<stop offset="0.72857" stop-color="#B59761"/>
<stop offset="0.8669" stop-color="#9A7944"/>
<stop offset="1" stop-color="#7A5623"/>
</linearGradient>
<linearGradient id="paint24_linear_109_805" x1="115.63" y1="352.842" x2="116.262" y2="352.842" gradientUnits="userSpaceOnUse">
<stop stop-color="#7A5623"/>
<stop offset="0.02141" stop-color="#7F5C29"/>
<stop offset="0.16858" stop-color="#A1804B"/>
<stop offset="0.30603" stop-color="#B89B64"/>
<stop offset="0.42891" stop-color="#C7AA73"/>
<stop offset="0.52494" stop-color="#CCB078"/>
<stop offset="0.6097" stop-color="#C6A972"/>
<stop offset="0.72857" stop-color="#B59761"/>
<stop offset="0.8669" stop-color="#9A7944"/>
<stop offset="1" stop-color="#7A5623"/>
</linearGradient>
<radialGradient id="paint25_radial_109_805" cx="0" cy="0" r="1" gradientUnits="userSpaceOnUse" gradientTransform="translate(231.101 667.953) scale(3.16676)">
<stop offset="0.00122" stop-color="#CCB078"/>
<stop offset="0.01416" stop-color="#C7AC75"/>
<stop offset="0.14011" stop-color="#98845C"/>
<stop offset="0.27041" stop-color="#706247"/>
<stop offset="0.40339" stop-color="#4F4735"/>
<stop offset="0.53978" stop-color="#363127"/>
<stop offset="0.68093" stop-color="#24221E"/>
<stop offset="0.82998" stop-color="#191918"/>
<stop offset="1" stop-color="#161616"/>
</radialGradient>
<linearGradient id="paint26_linear_109_805" x1="120.725" y1="155.623" x2="120.725" y2="113.537" gradientUnits="userSpaceOnUse">
<stop stop-color="#7C5B2B"/>
<stop offset="0.1993" stop-color="#806942"/>
<stop offset="0.31254" stop-color="#938060"/>
<stop offset="0.69234" stop-color="#CFC9C1"/>
<stop offset="0.76229" stop-color="#CAC3B9"/>
<stop offset="0.87253" stop-color="#BCB2A2"/>
<stop offset="1" stop-color="#A79980"/>
</linearGradient>
<linearGradient id="paint27_linear_109_805" x1="123.334" y1="134.543" x2="128.929" y2="134.543" gradientUnits="userSpaceOnUse">
<stop stop-color="#7A6342"/>
<stop offset="0.1993" stop-color="#82755F"/>
<stop offset="0.50122" stop-color="#CDC8C0"/>
<stop offset="0.69234" stop-color="white"/>
<stop offset="0.89595" stop-color="#82755F"/>
<stop offset="1" stop-color="#7A6342"/>
</linearGradient>
<radialGradient id="paint28_radial_109_805" cx="0" cy="0" r="1" gradientUnits="userSpaceOnUse" gradientTransform="translate(126.131 134.544) rotate(3.31397) scale(29.1783 13.7722)">
<stop stop-color="#CCBA96"/>
<stop offset="0.1903" stop-color="#C7B592"/>
<stop offset="0.41817" stop-color="#B8A887"/>
<stop offset="0.66426" stop-color="#A09176"/>
<stop offset="0.90168" stop-color="#82755F"/>
<stop offset="0.92868" stop-color="#7E6C50"/>
<stop offset="0.96196" stop-color="#7B6545"/>
<stop offset="1" stop-color="#7A6342"/>
</radialGradient>
<radialGradient id="paint29_radial_109_805" cx="0" cy="0" r="1" gradientUnits="userSpaceOnUse" gradientTransform="translate(126.131 134.543) rotate(-90.0001) scale(4.27608 0.822681)">
<stop stop-color="#C7B592"/>
<stop offset="0.23416" stop-color="#BDAB8A"/>
<stop offset="0.63802" stop-color="#A09176"/>
<stop offset="1" stop-color="#82755F"/>
</radialGradient>
</defs>
</svg>
