<svg width="162" height="300" viewBox="0 0 162 300" fill="none" xmlns="http://www.w3.org/2000/svg">
<path style="mix-blend-mode:lighten" opacity="0.5" d="M79.2144 182.401C58.5849 182.401 41.8613 141.569 41.8613 91.2006C41.8613 40.8319 58.5849 0 79.2144 0C99.8439 0 116.567 40.8319 116.567 91.2006C116.567 141.569 99.8439 182.401 79.2144 182.401Z" fill="url(#paint0_radial_109_868)"/>
<path style="mix-blend-mode:lighten" opacity="0.5" d="M80.8649 300C36.2044 300 -1.52588e-05 279.097 -1.52588e-05 253.312C-1.52588e-05 227.528 36.2044 206.625 80.8649 206.625C125.525 206.625 161.73 227.528 161.73 253.312C161.73 279.097 125.525 300 80.8649 300Z" fill="url(#paint1_radial_109_868)"/>
<path d="M39.251 196.621C39.251 227.908 57.8822 253.27 80.8649 253.27C103.848 253.27 122.479 227.908 122.479 196.621C122.479 165.334 103.848 155.959 80.8649 155.959C57.8822 155.959 39.251 165.334 39.251 196.621Z" fill="url(#paint2_radial_109_868)"/>
<g style="mix-blend-mode:lighten">
<path style="mix-blend-mode:lighten" d="M39.251 196.621C39.251 227.908 57.8822 253.27 80.8649 253.27C103.848 253.27 122.479 227.908 122.479 196.621C122.479 165.334 103.848 155.959 80.8649 155.959C57.8822 155.959 39.251 165.334 39.251 196.621Z" fill="url(#paint3_linear_109_868)"/>
</g>
<path d="M80.8649 189.177C65.1796 189.177 52.4642 181.836 52.4642 172.78C52.4642 163.724 65.1796 156.383 80.8649 156.383C96.5501 156.383 109.266 163.724 109.266 172.78C109.266 181.836 96.5501 189.177 80.8649 189.177Z" fill="#161616"/>
<path style="mix-blend-mode:lighten" opacity="0.5" d="M80.8649 189.177C65.1796 189.177 52.4642 181.836 52.4642 172.78C52.4642 163.724 65.1796 156.383 80.8649 156.383C96.5501 156.383 109.266 163.724 109.266 172.78C109.266 181.836 96.5501 189.177 80.8649 189.177Z" fill="url(#paint4_radial_109_868)"/>
<path d="M100.948 165.553C89.8566 159.15 71.8742 159.15 60.7829 165.554C56.2015 168.198 53.5181 171.523 52.7214 174.964C51.5891 170.073 54.2726 164.944 60.7829 161.186C71.8742 154.782 89.8567 154.782 100.948 161.185C107.458 164.944 110.141 170.072 109.009 174.963C108.212 171.522 105.529 168.198 100.948 165.553Z" fill="url(#paint5_linear_109_868)"/>
<path opacity="0.4" d="M83.5755 98.3334C83.2279 98.0071 82.9849 97.5851 82.8771 97.1207C82.7694 96.6563 82.8018 96.1704 82.9702 95.7244C83.1386 95.2784 83.4354 94.8924 83.8232 94.6151C84.211 94.3379 84.6723 94.1818 85.1488 94.1667C85.6253 94.1516 86.0956 94.2782 86.5001 94.5304C86.9047 94.7825 87.2254 95.149 87.4217 95.5835C87.618 96.0179 87.681 96.5008 87.6029 96.9711C87.5247 97.4413 87.3089 97.8779 86.9826 98.2255C86.5451 98.6916 85.9404 98.9648 85.3014 98.985C84.6625 99.0053 84.0417 98.7709 83.5755 98.3334Z" fill="#CCBA96"/>
<path d="M55.6942 96.2517C55.3466 95.9254 55.1036 95.5034 54.9959 95.0391C54.8881 94.5747 54.9205 94.0888 55.0889 93.6428C55.2573 93.1969 55.5541 92.8108 55.9419 92.5336C56.3297 92.2563 56.791 92.1003 57.2675 92.0852C57.7439 92.0701 58.2142 92.1966 58.6187 92.4488C59.0233 92.701 59.344 93.0674 59.5402 93.5019C59.7365 93.9363 59.7996 94.4191 59.7214 94.8894C59.6433 95.3597 59.4274 95.7962 59.1012 96.1438C58.8846 96.3746 58.6246 96.5604 58.3362 96.6908C58.0477 96.8211 57.7364 96.8934 57.4201 96.9034C57.1037 96.9134 56.7884 96.861 56.4923 96.7492C56.1962 96.6374 55.925 96.4683 55.6942 96.2517Z" fill="url(#paint6_linear_109_868)"/>
<path opacity="0.4" d="M62.575 58.8868C62.2011 58.5359 61.9396 58.0819 61.8236 57.5823C61.7077 57.0827 61.7425 56.5599 61.9236 56.0801C62.1047 55.6003 62.4241 55.185 62.8413 54.8866C63.2585 54.5883 63.7548 54.4204 64.2674 54.4041C64.78 54.3879 65.2859 54.524 65.7212 54.7952C66.1565 55.0665 66.5015 55.4608 66.7127 55.9281C66.9239 56.3955 66.9918 56.915 66.9078 57.4209C66.8237 57.9269 66.5915 58.3965 66.2406 58.7705C65.7699 59.272 65.1193 59.566 64.4319 59.5878C63.7445 59.6096 63.0766 59.3575 62.575 58.8868Z" fill="#CCBA96"/>
<path opacity="0.4" d="M65.4837 66.26C65.2604 66.0505 65.1042 65.7794 65.035 65.481C64.9658 65.1827 64.9865 64.8705 65.0947 64.584C65.2029 64.2975 65.3936 64.0495 65.6427 63.8714C65.8919 63.6932 66.1882 63.593 66.4943 63.5833C66.8004 63.5736 67.1025 63.6549 67.3624 63.8169C67.6223 63.9789 67.8283 64.2143 67.9544 64.4934C68.0805 64.7725 68.1211 65.0827 68.0708 65.3848C68.0206 65.6869 67.882 65.9674 67.6724 66.1907C67.5332 66.339 67.3662 66.4584 67.1809 66.5421C66.9956 66.6258 66.7956 66.6722 66.5924 66.6787C66.3892 66.6851 66.1866 66.6515 65.9964 66.5796C65.8062 66.5078 65.632 66.3992 65.4837 66.26Z" fill="#CCBA96"/>
<path opacity="0.8" d="M68.688 62.4348C68.5444 62.2999 68.4439 62.1254 68.3994 61.9335C68.3549 61.7415 68.3683 61.5406 68.4379 61.3563C68.5075 61.1719 68.6302 61.0123 68.7906 60.8977C68.9509 60.7831 69.1416 60.7186 69.3385 60.7124C69.5355 60.7062 69.7299 60.7585 69.8971 60.8628C70.0644 60.967 70.197 61.1185 70.2781 61.2981C70.3592 61.4777 70.3853 61.6773 70.353 61.8717C70.3207 62.0661 70.2314 62.2466 70.0966 62.3902C69.9157 62.5829 69.6657 62.6959 69.4015 62.7042C69.1374 62.7126 68.8807 62.6157 68.688 62.4348Z" fill="#CCBA96"/>
<path opacity="0.8" d="M62.0433 84.5095C61.8996 84.3746 61.7991 84.2002 61.7546 84.0082C61.7101 83.8162 61.7235 83.6154 61.7931 83.431C61.8627 83.2466 61.9855 83.0871 62.1458 82.9725C62.3061 82.8578 62.4968 82.7933 62.6938 82.7871C62.8907 82.7809 63.0851 82.8332 63.2524 82.9375C63.4196 83.0417 63.5522 83.1932 63.6333 83.3728C63.7144 83.5524 63.7405 83.752 63.7082 83.9464C63.6759 84.1408 63.5867 84.3213 63.4518 84.465C63.3622 84.5604 63.2547 84.6372 63.1355 84.6911C63.0162 84.745 62.8875 84.7748 62.7567 84.779C62.626 84.7831 62.4956 84.7614 62.3732 84.7152C62.2508 84.669 62.1387 84.5991 62.0433 84.5095Z" fill="#CCBA96"/>
<path opacity="0.4" d="M76.0955 55.9987C76.0519 55.9577 76.0215 55.9048 76.008 55.8466C75.9945 55.7884 75.9986 55.7274 76.0197 55.6715C76.0408 55.6156 76.078 55.5672 76.1267 55.5324C76.1753 55.4977 76.2331 55.4781 76.2929 55.4762C76.3526 55.4743 76.4116 55.4902 76.4623 55.5218C76.5131 55.5535 76.5533 55.5994 76.5779 55.6539C76.6025 55.7084 76.6104 55.7689 76.6006 55.8279C76.5908 55.8869 76.5637 55.9416 76.5228 55.9852C76.4956 56.0141 76.4631 56.0375 76.4269 56.0538C76.3907 56.0702 76.3516 56.0792 76.312 56.0805C76.2723 56.0818 76.2327 56.0752 76.1956 56.0611C76.1585 56.0471 76.1245 56.0259 76.0955 55.9987Z" fill="#CCBA96"/>
<path opacity="0.8" d="M74.2792 68.5114C74.2356 68.4705 74.2051 68.4176 74.1916 68.3593C74.1781 68.3011 74.1821 68.2402 74.2033 68.1842C74.2244 68.1283 74.2616 68.0799 74.3102 68.0451C74.3589 68.0104 74.4167 67.9908 74.4765 67.9889C74.5362 67.987 74.5952 68.0029 74.6459 68.0345C74.6967 68.0662 74.7369 68.1121 74.7615 68.1666C74.7861 68.2211 74.794 68.2817 74.7842 68.3406C74.7744 68.3996 74.7473 68.4543 74.7063 68.4979C74.6515 68.5564 74.5757 68.5906 74.4956 68.5931C74.4154 68.5956 74.3376 68.5663 74.2792 68.5114Z" fill="#CCBA96"/>
<path opacity="0.8" d="M70.3794 92.3336C70.3358 92.2927 70.3054 92.2398 70.2919 92.1815C70.2784 92.1233 70.2824 92.0624 70.3036 92.0065C70.3247 91.9505 70.3619 91.9021 70.4105 91.8674C70.4592 91.8326 70.517 91.8131 70.5768 91.8112C70.6365 91.8093 70.6955 91.8252 70.7462 91.8568C70.7969 91.8884 70.8371 91.9344 70.8617 91.9888C70.8864 92.0433 70.8943 92.1039 70.8845 92.1628C70.8747 92.2218 70.8476 92.2765 70.8067 92.3201C70.7518 92.3786 70.676 92.4128 70.5958 92.4153C70.5157 92.4179 70.4379 92.3885 70.3794 92.3336Z" fill="#CCBA96"/>
<path opacity="0.8" d="M73.1419 88.5403C73.0983 88.4994 73.0678 88.4465 73.0543 88.3882C73.0408 88.33 73.0448 88.2691 73.0659 88.2131C73.087 88.1572 73.1242 88.1088 73.1728 88.074C73.2215 88.0392 73.2793 88.0196 73.3391 88.0177C73.3988 88.0158 73.4578 88.0317 73.5085 88.0633C73.5593 88.0949 73.5995 88.1409 73.6241 88.1954C73.6487 88.2498 73.6567 88.3104 73.6469 88.3694C73.6371 88.4283 73.61 88.4831 73.5691 88.5267C73.5142 88.5851 73.4384 88.6193 73.3583 88.6219C73.2782 88.6244 73.2004 88.5951 73.1419 88.5403Z" fill="#CCBA96"/>
<path opacity="0.4" d="M83.4431 70.2098C82.9125 69.7118 82.5415 69.0676 82.377 68.3587C82.2125 67.6499 82.2619 66.9081 82.519 66.2273C82.776 65.5465 83.2292 64.9573 83.8211 64.534C84.4131 64.1108 85.1173 63.8725 85.8446 63.8495C86.572 63.8265 87.2898 64.0196 87.9074 64.4045C88.5249 64.7895 89.0145 65.3489 89.3141 66.012C89.6138 66.6752 89.71 67.4123 89.5907 68.1302C89.4714 68.848 89.142 69.5144 88.6439 70.045C88.3133 70.3973 87.9164 70.6811 87.4761 70.88C87.0358 71.079 86.5606 71.1892 86.0776 71.2045C85.5947 71.2198 85.1135 71.1399 84.6614 70.9692C84.2094 70.7985 83.7954 70.5405 83.4431 70.2098Z" fill="#CCBA96"/>
<path d="M103.255 77.3665C102.991 77.1188 102.806 76.7984 102.725 76.4458C102.643 76.0933 102.667 75.7243 102.795 75.3857C102.923 75.0471 103.148 74.754 103.443 74.5435C103.737 74.333 104.088 74.2145 104.449 74.2031C104.811 74.1916 105.168 74.2877 105.475 74.4791C105.782 74.6706 106.026 74.9488 106.175 75.2786C106.324 75.6085 106.372 75.9751 106.313 76.3322C106.253 76.6892 106.089 77.0206 105.842 77.2846C105.677 77.4598 105.48 77.6009 105.261 77.6999C105.042 77.7988 104.805 77.8537 104.565 77.8613C104.325 77.8689 104.086 77.8291 103.861 77.7442C103.636 77.6593 103.43 77.531 103.255 77.3665Z" fill="url(#paint7_linear_109_868)"/>
<path opacity="0.4" d="M70.1538 77.3241C69.8899 77.0764 69.7054 76.756 69.6235 76.4034C69.5417 76.0508 69.5663 75.6819 69.6942 75.3433C69.822 75.0047 70.0474 74.7116 70.3419 74.501C70.6363 74.2905 70.9865 74.172 71.3483 74.1606C71.7101 74.1491 72.0671 74.2452 72.3743 74.4367C72.6815 74.6281 72.925 74.9064 73.074 75.2362C73.223 75.5661 73.2709 75.9327 73.2116 76.2898C73.1522 76.6468 72.9883 76.9783 72.7406 77.2422C72.4085 77.5961 71.9493 77.8035 71.4642 77.8189C70.9791 77.8342 70.5077 77.6563 70.1538 77.3241Z" fill="#CCBA96"/>
<path opacity="0.4" d="M83.446 47.1229C83.1821 46.8752 82.9976 46.5548 82.9158 46.2022C82.834 45.8497 82.8585 45.4807 82.9864 45.1421C83.1142 44.8035 83.3396 44.5104 83.6341 44.2999C83.9285 44.0894 84.2788 43.9709 84.6405 43.9594C85.0023 43.948 85.3594 44.044 85.6665 44.2355C85.9737 44.4269 86.2172 44.7052 86.3662 45.035C86.5153 45.3649 86.5631 45.7315 86.5038 46.0886C86.4445 46.4456 86.2806 46.7771 86.0329 47.041C85.7007 47.3949 85.2415 47.6023 84.7564 47.6177C84.2713 47.633 83.8 47.4551 83.446 47.1229Z" fill="#CCBA96"/>
<path opacity="0.4" d="M106.57 60.2742C106.306 60.0265 106.122 59.7061 106.04 59.3535C105.958 59.0009 105.983 58.632 106.111 58.2934C106.238 57.9548 106.464 57.6617 106.758 57.4512C107.053 57.2407 107.403 57.1222 107.765 57.1108C108.126 57.0993 108.483 57.1954 108.791 57.3869C109.098 57.5783 109.341 57.8566 109.49 58.1864C109.639 58.5162 109.687 58.8828 109.628 59.2399C109.568 59.5969 109.405 59.9284 109.157 60.1923C108.992 60.3675 108.795 60.5087 108.576 60.6076C108.357 60.7066 108.121 60.7614 107.88 60.769C107.64 60.7766 107.401 60.7368 107.176 60.6519C106.951 60.567 106.745 60.4387 106.57 60.2742Z" fill="#CCBA96"/>
<path opacity="0.4" d="M43.7554 65.9779C43.4915 65.7302 43.3069 65.4098 43.2251 65.0572C43.1433 64.7046 43.1679 64.3357 43.2957 63.997C43.4236 63.6584 43.649 63.3653 43.9435 63.1548C44.2379 62.9443 44.5882 62.8258 44.9499 62.8144C45.3117 62.8029 45.6688 62.899 45.9759 63.0905C46.2831 63.282 46.5266 63.5603 46.6756 63.8901C46.8246 64.22 46.8724 64.5866 46.813 64.9437C46.7537 65.3007 46.5898 65.6322 46.342 65.8961C46.1776 66.0713 45.9802 66.2124 45.7612 66.3113C45.5422 66.4103 45.3058 66.4651 45.0657 66.4727C44.8255 66.4803 44.5861 66.4405 44.3613 66.3556C44.1365 66.2707 43.9306 66.1424 43.7554 65.9779Z" fill="#CCBA96"/>
<path opacity="0.4" d="M56.9846 33.9374C56.7207 33.6897 56.5362 33.3693 56.4543 33.0167C56.3725 32.6641 56.3971 32.2952 56.5249 31.9566C56.6528 31.618 56.8782 31.3249 57.1726 31.1143C57.467 30.9038 57.8173 30.7853 58.179 30.7739C58.5408 30.7624 58.8979 30.8585 59.205 31.05C59.5122 31.2414 59.7557 31.5197 59.9047 31.8495C60.0537 32.1794 60.1016 32.546 60.0422 32.9031C59.9829 33.2601 59.819 33.5916 59.5713 33.8555C59.2391 34.2093 58.78 34.4168 58.2949 34.4321C57.8098 34.4475 57.3385 34.2695 56.9846 33.9374Z" fill="#CCBA96"/>
<path d="M32.8827 37.3668C32.7554 37.2474 32.6665 37.093 32.627 36.923C32.5875 36.753 32.5994 36.5752 32.661 36.4119C32.7226 36.2487 32.8313 36.1074 32.9732 36.0059C33.1151 35.9044 33.284 35.8473 33.4584 35.8418C33.6328 35.8362 33.8049 35.8825 33.953 35.9748C34.101 36.0671 34.2184 36.2012 34.2903 36.3602C34.3621 36.5192 34.3852 36.696 34.3566 36.8681C34.328 37.0402 34.249 37.2 34.1296 37.3272C33.9695 37.4978 33.7482 37.5978 33.5143 37.6052C33.2805 37.6127 33.0533 37.5269 32.8827 37.3668Z" fill="url(#paint8_linear_109_868)"/>
<path opacity="0.4" d="M78.1092 92.1633C77.9546 92.0182 77.8464 91.8304 77.7985 91.6238C77.7506 91.4172 77.765 91.201 77.8399 91.0026C77.9148 90.8042 78.0469 90.6325 78.2194 90.5091C78.392 90.3857 78.5972 90.3163 78.8092 90.3096C79.0212 90.3029 79.2304 90.3592 79.4104 90.4714C79.5904 90.5836 79.733 90.7467 79.8204 90.9399C79.9077 91.1332 79.9357 91.3481 79.9009 91.5573C79.8662 91.7665 79.7701 91.9607 79.625 92.1154C79.4303 92.3227 79.1613 92.4442 78.877 92.4532C78.5928 92.4622 78.3166 92.3579 78.1092 92.1633Z" fill="#CCBA96"/>
<path d="M80.1859 61.7771C80.0312 61.6319 79.9231 61.4442 79.8751 61.2376C79.8271 61.031 79.8415 60.8149 79.9164 60.6164C79.9913 60.418 80.1234 60.2463 80.2959 60.1229C80.4684 59.9996 80.6737 59.9301 80.8856 59.9234C81.0976 59.9167 81.3068 59.973 81.4868 60.0851C81.6668 60.1973 81.8095 60.3603 81.8968 60.5536C81.9841 60.7469 82.0122 60.9617 81.9774 61.1709C81.9427 61.3801 81.8467 61.5743 81.7015 61.729C81.5069 61.9363 81.2379 62.0579 80.9536 62.0669C80.6694 62.0759 80.3932 61.9717 80.1859 61.7771Z" fill="url(#paint9_linear_109_868)"/>
<path d="M93.9249 61.3656C93.8205 61.2676 93.7474 61.1408 93.7151 61.0012C93.6827 60.8617 93.6924 60.7157 93.743 60.5817C93.7936 60.4477 93.8828 60.3317 93.9993 60.2484C94.1158 60.1651 94.2544 60.1182 94.3976 60.1136C94.5408 60.1091 94.6821 60.1471 94.8036 60.2229C94.9252 60.2987 95.0215 60.4088 95.0805 60.5393C95.1395 60.6698 95.1585 60.8149 95.135 60.9562C95.1115 61.0975 95.0466 61.2287 94.9486 61.3331C94.8171 61.4732 94.6354 61.5552 94.4435 61.5613C94.2515 61.5674 94.065 61.497 93.9249 61.3656Z" fill="url(#paint10_linear_109_868)"/>
<path d="M95.9834 61.3112C95.8319 61.1689 95.7259 60.9848 95.6789 60.7823C95.6319 60.5798 95.6461 60.3679 95.7195 60.1734C95.793 59.9789 95.9225 59.8106 96.0916 59.6897C96.2607 59.5688 96.4619 59.5007 96.6697 59.4942C96.8775 59.4876 97.0825 59.5428 97.259 59.6528C97.4354 59.7628 97.5752 59.9226 97.6608 60.112C97.7464 60.3015 97.7739 60.5121 97.7398 60.7172C97.7057 60.9222 97.6116 61.1126 97.4693 61.2642C97.3748 61.3649 97.2614 61.4459 97.1356 61.5028C97.0098 61.5596 96.8741 61.5911 96.7361 61.5955C96.5981 61.5998 96.4606 61.577 96.3315 61.5282C96.2023 61.4794 96.0841 61.4057 95.9834 61.3112Z" fill="url(#paint11_linear_109_868)"/>
<path d="M96.3488 63.8153C96.2649 63.7365 96.2062 63.6347 96.1802 63.5225C96.1542 63.4104 96.162 63.2931 96.2026 63.1855C96.2432 63.0778 96.3149 62.9846 96.4085 62.9176C96.5021 62.8507 96.6135 62.813 96.7285 62.8094C96.8436 62.8057 96.9571 62.8363 97.0548 62.8971C97.1524 62.958 97.2299 63.0465 97.2772 63.1514C97.3246 63.2563 97.3399 63.3728 97.321 63.4864C97.3021 63.5999 97.25 63.7053 97.1712 63.7892C97.0656 63.9017 96.9196 63.9676 96.7654 63.9725C96.6112 63.9774 96.4614 63.9208 96.3488 63.8153Z" fill="url(#paint12_linear_109_868)"/>
<path opacity="0.4" d="M86.2554 81.1135C86.1464 81.0112 86.0702 80.8788 86.0364 80.7331C86.0026 80.5875 86.0127 80.4351 86.0655 80.2952C86.1184 80.1553 86.2115 80.0342 86.3332 79.9472C86.4548 79.8602 86.5995 79.8113 86.749 79.8065C86.8984 79.8018 87.0459 79.8415 87.1728 79.9206C87.2998 79.9997 87.4004 80.1146 87.4619 80.2509C87.5235 80.3872 87.5433 80.5387 87.5188 80.6862C87.4942 80.8337 87.4265 80.9706 87.3242 81.0797C87.187 81.2259 86.9973 81.3116 86.7968 81.3179C86.5964 81.3243 86.4017 81.2508 86.2554 81.1135Z" fill="#CCBA96"/>
<path opacity="0.4" d="M64.2288 84.2C64.1197 84.0976 64.0435 83.9652 64.0097 83.8196C63.9759 83.6739 63.9861 83.5215 64.0389 83.3816C64.0917 83.2417 64.1848 83.1206 64.3065 83.0336C64.4281 82.9466 64.5728 82.8977 64.7223 82.893C64.8718 82.8882 65.0193 82.9279 65.1462 83.007C65.2731 83.0861 65.3737 83.2011 65.4352 83.3374C65.4968 83.4736 65.5166 83.6251 65.4921 83.7726C65.4676 83.9201 65.3999 84.0571 65.2975 84.1661C65.1603 84.3123 64.9706 84.398 64.7702 84.4043C64.5697 84.4107 64.375 84.3372 64.2288 84.2Z" fill="#CCBA96"/>
<path d="M81.5656 82.286C81.2971 82.034 81.1094 81.7081 81.0262 81.3495C80.943 80.9909 80.968 80.6157 81.098 80.2713C81.228 79.9268 81.4573 79.6287 81.7568 79.4146C82.0562 79.2005 82.4125 79.08 82.7805 79.0683C83.1484 79.0567 83.5116 79.1544 83.824 79.3491C84.1364 79.5439 84.3841 79.8269 84.5357 80.1624C84.6872 80.4979 84.7359 80.8708 84.6756 81.2339C84.6152 81.5971 84.4485 81.9342 84.1965 82.2026C83.8587 82.5626 83.3917 82.7736 82.8983 82.7892C82.4049 82.8048 81.9255 82.6238 81.5656 82.286Z" fill="url(#paint13_linear_109_868)"/>
<path d="M79.2144 176.085C55.7743 176.085 36.7724 157.083 36.7724 133.643C36.7724 110.203 55.7743 91.2007 79.2144 91.2007C102.654 91.2007 121.656 110.203 121.656 133.643C121.656 157.083 102.654 176.085 79.2144 176.085Z" fill="url(#paint14_linear_109_868)"/>
<path d="M84.3626 227.164C75.4612 227.164 68.2452 219.948 68.2452 211.046C68.2452 202.145 75.4612 194.929 84.3626 194.929C93.264 194.929 100.48 202.145 100.48 211.046C100.48 219.948 93.264 227.164 84.3626 227.164Z" fill="url(#paint15_radial_109_868)"/>
<g style="mix-blend-mode:lighten">
<path style="mix-blend-mode:lighten" d="M84.3626 227.164C75.4612 227.164 68.2452 219.948 68.2452 211.046C68.2452 202.145 75.4612 194.929 84.3626 194.929C93.264 194.929 100.48 202.145 100.48 211.046C100.48 219.948 93.264 227.164 84.3626 227.164Z" fill="url(#paint16_linear_109_868)"/>
</g>
<path d="M76.5874 224.515C78.7357 225.746 81.1438 226.453 83.6165 226.579C86.0892 226.705 88.5566 226.246 90.8187 225.239C94.864 223.17 95.0512 219.492 91.2367 217.023C89.0885 215.792 86.6803 215.085 84.2077 214.959C81.7351 214.834 79.2676 215.293 77.0056 216.299C72.9602 218.368 72.7731 222.047 76.5874 224.515Z" fill="#161616"/>
<path style="mix-blend-mode:lighten" opacity="0.5" d="M76.5859 224.514C78.7341 225.745 81.1423 226.452 83.615 226.578C86.0877 226.704 88.5551 226.245 90.8172 225.238C94.8625 223.169 95.0496 219.491 91.2351 217.022C89.0869 215.791 86.6787 215.084 84.2061 214.958C81.7334 214.833 79.266 215.292 77.004 216.298C72.9586 218.367 72.7716 222.046 76.5859 224.514Z" fill="url(#paint17_radial_109_868)"/>
<path d="M74.3756 218.58C74.8975 219.718 75.7558 220.668 76.8347 221.303C78.9829 222.534 81.3911 223.241 83.8637 223.367C86.3364 223.492 88.8038 223.033 91.0659 222.027C92.1387 221.528 93.0495 220.737 93.6942 219.745C94.5023 221.733 93.5345 223.848 90.8172 225.238C88.5551 226.245 86.0877 226.704 83.615 226.578C81.1424 226.452 78.7342 225.745 76.586 224.514C73.9437 222.804 73.2249 220.514 74.3756 218.58Z" fill="#CCBA96"/>
<path d="M68.1742 244.847C65.4938 250.114 64.5039 264.389 69.7713 267.07C75.0386 269.75 84.5686 259.821 87.2491 254.553C87.8897 253.301 88.2769 251.934 88.3886 250.531C88.5004 249.128 88.3344 247.718 87.9002 246.379C87.466 245.041 86.7721 243.801 85.8583 242.731C84.9444 241.661 83.8285 240.782 82.5745 240.144C81.3204 239.506 79.9529 239.121 78.55 239.012C77.1472 238.903 75.7366 239.072 74.399 239.509C73.0615 239.945 71.8232 240.642 70.755 241.558C69.6869 242.474 68.8099 243.591 68.1742 244.847Z" fill="url(#paint18_radial_109_868)"/>
<g style="mix-blend-mode:lighten">
<path style="mix-blend-mode:lighten" d="M68.1742 244.847C65.4938 250.114 64.5039 264.389 69.7713 267.07C75.0386 269.75 84.5686 259.821 87.2491 254.553C87.8897 253.301 88.2769 251.934 88.3886 250.531C88.5004 249.128 88.3344 247.718 87.9002 246.379C87.466 245.041 86.7721 243.801 85.8583 242.731C84.9444 241.661 83.8285 240.782 82.5745 240.144C81.3204 239.506 79.9529 239.121 78.55 239.012C77.1472 238.903 75.7366 239.072 74.399 239.509C73.0615 239.945 71.8232 240.642 70.755 241.558C69.6869 242.474 68.8099 243.591 68.1742 244.847Z" fill="url(#paint19_linear_109_868)"/>
</g>
<path d="M85.2163 242.79C84.0809 241.626 82.6869 240.745 81.1475 240.22C79.608 239.695 77.9665 239.541 76.3561 239.769C73.4277 240.347 72.6466 242.637 74.6115 244.884C75.7469 246.049 77.1409 246.929 78.6804 247.454C80.2199 247.979 81.8614 248.134 83.4718 247.906C86.4002 247.327 87.1811 245.037 85.2163 242.79Z" fill="#161616"/>
<path style="mix-blend-mode:lighten" opacity="0.5" d="M85.2163 242.79C84.0809 241.626 82.6869 240.745 81.1475 240.22C79.608 239.695 77.9665 239.541 76.3561 239.769C73.4277 240.347 72.6466 242.637 74.6115 244.884C75.7469 246.049 77.1409 246.929 78.6804 247.454C80.2199 247.979 81.8614 248.134 83.4718 247.906C86.4002 247.327 87.1811 245.037 85.2163 242.79Z" fill="url(#paint20_radial_109_868)"/>
<path d="M85.5435 246.938C85.4187 246.125 85.0478 245.37 84.4805 244.774C83.3451 243.61 81.9511 242.729 80.4117 242.204C78.8722 241.679 77.2307 241.525 75.6203 241.753C74.8526 241.875 74.1347 242.21 73.5486 242.721C73.3962 241.32 74.389 240.157 76.3561 239.769C77.9664 239.541 79.608 239.695 81.1474 240.22C82.6868 240.745 84.0808 241.626 85.2163 242.79C86.5774 244.347 86.6189 245.923 85.5435 246.938Z" fill="url(#paint21_linear_109_868)"/>
<path opacity="0.6" d="M80.0092 233.807C80.1323 233.919 80.2193 234.065 80.2592 234.227C80.2991 234.389 80.2901 234.559 80.2334 234.715C80.1768 234.872 80.0749 235.008 79.9407 235.107C79.8066 235.206 79.6461 235.263 79.4797 235.27C79.3133 235.278 79.1483 235.236 79.0057 235.15C78.8632 235.063 78.7493 234.937 78.6786 234.786C78.608 234.635 78.5836 234.467 78.6087 234.302C78.6337 234.137 78.707 233.984 78.8194 233.861C78.97 233.696 79.1799 233.597 79.4031 233.587C79.6262 233.577 79.8442 233.656 80.0092 233.807Z" fill="#CCBA96"/>
<path style="mix-blend-mode:lighten" opacity="0.5" d="M89.8186 235.056C90.1297 235.34 90.3496 235.71 90.4504 236.119C90.5513 236.528 90.5286 236.958 90.3853 237.354C90.242 237.75 89.9845 238.094 89.6453 238.344C89.3061 238.594 88.9005 238.737 88.4798 238.756C88.059 238.776 87.642 238.669 87.2816 238.452C86.9211 238.234 86.6333 237.914 86.4546 237.533C86.2759 237.151 86.2143 236.725 86.2775 236.309C86.3408 235.893 86.5262 235.504 86.8101 235.193C86.9987 234.987 87.226 234.819 87.4793 234.701C87.7325 234.582 88.0066 234.514 88.286 234.502C88.5654 234.489 88.8445 234.531 89.1075 234.627C89.3705 234.722 89.6121 234.868 89.8186 235.056Z" fill="url(#paint22_radial_109_868)"/>
<path opacity="0.6" d="M84.3251 223.169C84.4993 223.328 84.6224 223.535 84.6789 223.764C84.7353 223.993 84.7227 224.234 84.6424 224.455C84.5622 224.677 84.418 224.87 84.2281 225.01C84.0382 225.15 83.8112 225.23 83.5756 225.241C83.3401 225.251 83.1066 225.192 82.9048 225.07C82.703 224.948 82.5419 224.769 82.4418 224.555C82.3418 224.342 82.3073 224.104 82.3427 223.87C82.3782 223.637 82.4819 223.42 82.6409 223.246C82.7465 223.13 82.8738 223.036 83.0155 222.97C83.1573 222.904 83.3107 222.866 83.4671 222.859C83.6235 222.852 83.7798 222.875 83.927 222.929C84.0742 222.982 84.2095 223.064 84.3251 223.169Z" fill="#CCBA96"/>
<path d="M87.1164 227.147C87.2356 227.256 87.3198 227.397 87.3585 227.554C87.3971 227.711 87.3884 227.875 87.3335 228.027C87.2786 228.179 87.1799 228.311 87.05 228.407C86.92 228.502 86.7646 228.557 86.6034 228.564C86.4422 228.572 86.2825 228.531 86.1444 228.448C86.0063 228.364 85.896 228.242 85.8275 228.096C85.7591 227.95 85.7355 227.786 85.7597 227.627C85.784 227.467 85.855 227.319 85.9638 227.199C86.1097 227.04 86.3131 226.944 86.5292 226.934C86.7454 226.925 86.9566 227.001 87.1164 227.147Z" fill="url(#paint23_linear_109_868)"/>
<path d="M87.7292 225.199C87.8107 225.274 87.8683 225.371 87.8948 225.478C87.9212 225.585 87.9153 225.698 87.8777 225.802C87.8401 225.905 87.7726 225.996 87.6836 226.061C87.5947 226.127 87.4884 226.164 87.3781 226.169C87.2678 226.174 87.1584 226.147 87.0639 226.089C86.9694 226.032 86.894 225.948 86.8471 225.848C86.8002 225.749 86.7841 225.637 86.8007 225.528C86.8173 225.419 86.8659 225.317 86.9403 225.235C86.9897 225.181 87.0494 225.137 87.1158 225.106C87.1822 225.075 87.254 225.057 87.3273 225.054C87.4005 225.05 87.4737 225.062 87.5427 225.087C87.6117 225.112 87.675 225.15 87.7292 225.199Z" fill="url(#paint24_linear_109_868)"/>
<path opacity="0.6" d="M81.8422 241.294C82.0148 241.452 82.1368 241.657 82.1928 241.884C82.2487 242.111 82.2362 242.349 82.1567 242.569C82.0772 242.789 81.9343 242.98 81.7461 243.118C81.558 243.257 81.3329 243.336 81.0995 243.347C80.866 243.358 80.6347 243.299 80.4347 243.178C80.2347 243.057 80.075 242.88 79.9759 242.668C79.8767 242.457 79.8425 242.22 79.8776 241.989C79.9127 241.758 80.0155 241.543 80.1731 241.37C80.3843 241.139 80.6789 241.001 80.9919 240.987C81.3049 240.972 81.6108 241.083 81.8422 241.294Z" fill="#CCBA96"/>
<path style="mix-blend-mode:lighten" opacity="0.5" d="M79.5257 238.536C79.7837 238.771 79.9661 239.078 80.0498 239.417C80.1335 239.757 80.1147 240.113 79.9958 240.442C79.8769 240.77 79.6633 241.056 79.3818 241.263C79.1004 241.471 78.7639 241.59 78.4148 241.606C78.0657 241.621 77.7198 241.533 77.4207 241.353C77.1216 241.172 76.8828 240.907 76.7346 240.59C76.5863 240.274 76.5352 239.921 76.5877 239.575C76.6402 239.23 76.794 238.907 77.0296 238.649C77.186 238.478 77.3747 238.339 77.5848 238.241C77.7949 238.142 78.0223 238.086 78.2541 238.076C78.4859 238.065 78.7175 238.1 78.9356 238.179C79.1538 238.258 79.3543 238.379 79.5257 238.536Z" fill="url(#paint25_radial_109_868)"/>
<path d="M35.105 113.644C39.2234 113.605 42.2212 113.599 43.1895 113.544C43.4083 113.509 43.6325 113.537 43.8363 113.624C44.0401 113.71 44.2153 113.853 44.3417 114.035C44.5479 114.412 44.6913 114.821 44.7663 115.244C44.8993 115.763 44.9691 116.165 45.0194 116.464C45.1441 117.206 45.286 117.94 45.4019 118.685C45.5608 119.707 45.7413 120.855 45.971 122.305C46.374 125.079 46.6249 127.873 46.7226 130.675C46.8349 132.806 46.9848 135.778 46.8551 139.673C46.7229 143.245 46.346 146.804 45.7271 150.324C45.3792 152.612 44.87 155.483 43.9881 155.618C43.9574 155.623 43.9262 155.624 43.8952 155.622C43.8952 155.622 38.0753 155.624 36.0971 155.484C35.8662 141.542 35.3358 127.586 35.105 113.644Z" fill="url(#paint26_linear_109_868)"/>
<path d="M32.8439 134.607C32.5755 123.042 33.591 113.638 35.1123 113.603C36.6335 113.567 38.0844 122.914 38.3528 134.479C38.6213 146.045 37.6058 155.449 36.0845 155.484C34.5633 155.519 33.1124 146.172 32.8439 134.607Z" fill="url(#paint27_linear_109_868)"/>
<path d="M33.0406 134.603C32.7913 123.863 33.7343 115.131 35.147 115.098C36.5596 115.065 37.9069 123.745 38.1562 134.484C38.4055 145.224 37.4624 153.956 36.0498 153.989C34.6372 154.022 33.2899 145.342 33.0406 134.603Z" fill="url(#paint28_radial_109_868)"/>
<path d="M33.3349 134.596C33.1143 125.093 33.9488 117.365 35.1989 117.336C36.449 117.307 37.6413 124.988 37.8619 134.491C38.0825 143.995 37.248 151.723 35.9979 151.752C34.7478 151.781 33.5556 144.1 33.3349 134.596Z" fill="#36322C"/>
<path d="M33.3349 134.596C33.1143 125.093 33.9488 117.365 35.1989 117.336C36.449 117.307 37.6413 124.988 37.8619 134.491C38.0825 143.995 37.248 151.723 35.9979 151.752C34.7478 151.781 33.5556 144.1 33.3349 134.596Z" fill="#36322C"/>
<path d="M34.6612 134.565C34.5698 130.63 34.9154 127.43 35.433 127.418C35.9506 127.406 36.4443 130.586 36.5356 134.522C36.627 138.457 36.2814 141.657 35.7638 141.669C35.2462 141.681 34.7525 138.5 34.6612 134.565Z" fill="#857861"/>
<path d="M34.8197 134.562C34.7438 131.292 35.0309 128.634 35.4609 128.624C35.891 128.614 36.3012 131.256 36.3771 134.526C36.453 137.795 36.1659 140.454 35.7358 140.464C35.3057 140.474 34.8956 137.831 34.8197 134.562Z" fill="url(#paint29_radial_109_868)"/>
<defs>
<radialGradient id="paint0_radial_109_868" cx="0" cy="0" r="1" gradientUnits="userSpaceOnUse" gradientTransform="translate(79.2429 91.2008) rotate(180) scale(44.3958 108.398)">
<stop stop-color="#CCBA96"/>
<stop offset="0.06554" stop-color="#AD9E80"/>
<stop offset="0.16316" stop-color="#857A64"/>
<stop offset="0.26739" stop-color="#625B4C"/>
<stop offset="0.37754" stop-color="#474238"/>
<stop offset="0.49578" stop-color="#312E29"/>
<stop offset="0.62597" stop-color="#22211E"/>
<stop offset="0.77735" stop-color="#191818"/>
<stop offset="1" stop-color="#161616"/>
</radialGradient>
<radialGradient id="paint1_radial_109_868" cx="0" cy="0" r="1" gradientUnits="userSpaceOnUse" gradientTransform="translate(80.8649 253.312) rotate(149.999) scale(66.0254 57.1805)">
<stop stop-color="#CCBA96"/>
<stop offset="0.14516" stop-color="#A4967A"/>
<stop offset="0.35394" stop-color="#726957"/>
<stop offset="0.55077" stop-color="#4A453B"/>
<stop offset="0.72998" stop-color="#2E2B27"/>
<stop offset="0.88555" stop-color="#1C1C1A"/>
<stop offset="1" stop-color="#161616"/>
</radialGradient>
<radialGradient id="paint2_radial_109_868" cx="0" cy="0" r="1" gradientUnits="userSpaceOnUse" gradientTransform="translate(56.3117 188.132) rotate(180) scale(71.5157 97.3518)">
<stop stop-color="#CCB078"/>
<stop offset="1" stop-color="#7A5623"/>
</radialGradient>
<linearGradient id="paint3_linear_109_868" x1="80.8649" y1="253.27" x2="80.8649" y2="155.959" gradientUnits="userSpaceOnUse">
<stop stop-color="#CCBA96"/>
<stop offset="0.03104" stop-color="#C8B58F"/>
<stop offset="0.21135" stop-color="#B1996E"/>
<stop offset="0.39654" stop-color="#A08454"/>
<stop offset="0.58635" stop-color="#947442"/>
<stop offset="0.78358" stop-color="#8C6B37"/>
<stop offset="1" stop-color="#8A6833"/>
</linearGradient>
<radialGradient id="paint4_radial_109_868" cx="0" cy="0" r="1" gradientUnits="userSpaceOnUse" gradientTransform="translate(81.9678 188.535) rotate(180) scale(55.3547)">
<stop stop-color="#CCBA96"/>
<stop offset="0.01294" stop-color="#C7B592"/>
<stop offset="0.13887" stop-color="#988B72"/>
<stop offset="0.26915" stop-color="#706755"/>
<stop offset="0.4021" stop-color="#4F4A3E"/>
<stop offset="0.53847" stop-color="#36332D"/>
<stop offset="0.6796" stop-color="#242320"/>
<stop offset="0.82862" stop-color="#191918"/>
<stop offset="0.99861" stop-color="#161616"/>
</radialGradient>
<linearGradient id="paint5_linear_109_868" x1="109.26" y1="165.674" x2="52.4694" y2="165.674" gradientUnits="userSpaceOnUse">
<stop stop-color="#7A6342"/>
<stop offset="0.01089" stop-color="#7D6645"/>
<stop offset="0.16114" stop-color="#9F8A68"/>
<stop offset="0.30146" stop-color="#B8A581"/>
<stop offset="0.42691" stop-color="#C7B491"/>
<stop offset="0.52494" stop-color="#CCBA96"/>
<stop offset="0.61161" stop-color="#C6B390"/>
<stop offset="0.73313" stop-color="#B5A17E"/>
<stop offset="0.87455" stop-color="#998361"/>
<stop offset="1" stop-color="#7A6342"/>
</linearGradient>
<linearGradient id="paint6_linear_109_868" x1="-189.587" y1="323.135" x2="-201.374" y2="323.135" gradientUnits="userSpaceOnUse">
<stop stop-color="#7A6342"/>
<stop offset="0.01089" stop-color="#7D6645"/>
<stop offset="0.16114" stop-color="#9F8A68"/>
<stop offset="0.30146" stop-color="#B8A581"/>
<stop offset="0.42691" stop-color="#C7B491"/>
<stop offset="0.52494" stop-color="#CCBA96"/>
<stop offset="0.61161" stop-color="#C6B390"/>
<stop offset="0.73313" stop-color="#B5A17E"/>
<stop offset="0.87455" stop-color="#998361"/>
<stop offset="1" stop-color="#7A6342"/>
</linearGradient>
<linearGradient id="paint7_linear_109_868" x1="3.50237" y1="215.354" x2="-3.29259" y2="215.354" gradientUnits="userSpaceOnUse">
<stop stop-color="#7A6342"/>
<stop offset="0.01089" stop-color="#7D6645"/>
<stop offset="0.16114" stop-color="#9F8A68"/>
<stop offset="0.30146" stop-color="#B8A581"/>
<stop offset="0.42691" stop-color="#C7B491"/>
<stop offset="0.52494" stop-color="#CCBA96"/>
<stop offset="0.61161" stop-color="#C6B390"/>
<stop offset="0.73313" stop-color="#B5A17E"/>
<stop offset="0.87455" stop-color="#998361"/>
<stop offset="1" stop-color="#7A6342"/>
</linearGradient>
<linearGradient id="paint8_linear_109_868" x1="-79.6122" y1="68.7066" x2="-81.1911" y2="68.7066" gradientUnits="userSpaceOnUse">
<stop stop-color="#7A6342"/>
<stop offset="0.01089" stop-color="#7D6645"/>
<stop offset="0.16114" stop-color="#9F8A68"/>
<stop offset="0.30146" stop-color="#B8A581"/>
<stop offset="0.42691" stop-color="#C7B491"/>
<stop offset="0.52494" stop-color="#CCBA96"/>
<stop offset="0.61161" stop-color="#C6B390"/>
<stop offset="0.73313" stop-color="#B5A17E"/>
<stop offset="0.87455" stop-color="#998361"/>
<stop offset="1" stop-color="#7A6342"/>
</linearGradient>
<linearGradient id="paint9_linear_109_868" x1="-4.74687" y1="126.273" x2="-7.0799" y2="126.273" gradientUnits="userSpaceOnUse">
<stop stop-color="#7A6342"/>
<stop offset="0.01089" stop-color="#7D6645"/>
<stop offset="0.16114" stop-color="#9F8A68"/>
<stop offset="0.30146" stop-color="#B8A581"/>
<stop offset="0.42691" stop-color="#C7B491"/>
<stop offset="0.52494" stop-color="#CCBA96"/>
<stop offset="0.61161" stop-color="#C6B390"/>
<stop offset="0.73313" stop-color="#B5A17E"/>
<stop offset="0.87455" stop-color="#998361"/>
<stop offset="1" stop-color="#7A6342"/>
</linearGradient>
<linearGradient id="paint10_linear_109_868" x1="46.2246" y1="104.808" x2="45.1604" y2="104.808" gradientUnits="userSpaceOnUse">
<stop stop-color="#7A6342"/>
<stop offset="0.01089" stop-color="#7D6645"/>
<stop offset="0.16114" stop-color="#9F8A68"/>
<stop offset="0.30146" stop-color="#B8A581"/>
<stop offset="0.42691" stop-color="#C7B491"/>
<stop offset="0.52494" stop-color="#CCBA96"/>
<stop offset="0.61161" stop-color="#C6B390"/>
<stop offset="0.73313" stop-color="#B5A17E"/>
<stop offset="0.87455" stop-color="#998361"/>
<stop offset="1" stop-color="#7A6342"/>
</linearGradient>
<linearGradient id="paint11_linear_109_868" x1="29.534" y1="124.056" x2="27.2922" y2="124.056" gradientUnits="userSpaceOnUse">
<stop stop-color="#7A6342"/>
<stop offset="0.01089" stop-color="#7D6645"/>
<stop offset="0.16114" stop-color="#9F8A68"/>
<stop offset="0.30146" stop-color="#B8A581"/>
<stop offset="0.42691" stop-color="#C7B491"/>
<stop offset="0.52494" stop-color="#CCBA96"/>
<stop offset="0.61161" stop-color="#C6B390"/>
<stop offset="0.73313" stop-color="#B5A17E"/>
<stop offset="0.87455" stop-color="#998361"/>
<stop offset="1" stop-color="#7A6342"/>
</linearGradient>
<linearGradient id="paint12_linear_109_868" x1="59.3144" y1="100.226" x2="58.6275" y2="100.226" gradientUnits="userSpaceOnUse">
<stop stop-color="#7A6342"/>
<stop offset="0.01089" stop-color="#7D6645"/>
<stop offset="0.16114" stop-color="#9F8A68"/>
<stop offset="0.30146" stop-color="#B8A581"/>
<stop offset="0.42691" stop-color="#C7B491"/>
<stop offset="0.52494" stop-color="#CCBA96"/>
<stop offset="0.61161" stop-color="#C6B390"/>
<stop offset="0.73313" stop-color="#B5A17E"/>
<stop offset="0.87455" stop-color="#998361"/>
<stop offset="1" stop-color="#7A6342"/>
</linearGradient>
<linearGradient id="paint13_linear_109_868" x1="-60.7504" y1="231.882" x2="-67.7798" y2="231.882" gradientUnits="userSpaceOnUse">
<stop stop-color="#7A6342"/>
<stop offset="0.01089" stop-color="#7D6645"/>
<stop offset="0.16114" stop-color="#9F8A68"/>
<stop offset="0.30146" stop-color="#B8A581"/>
<stop offset="0.42691" stop-color="#C7B491"/>
<stop offset="0.52494" stop-color="#CCBA96"/>
<stop offset="0.61161" stop-color="#C6B390"/>
<stop offset="0.73313" stop-color="#B5A17E"/>
<stop offset="0.87455" stop-color="#998361"/>
<stop offset="1" stop-color="#7A6342"/>
</linearGradient>
<linearGradient id="paint14_linear_109_868" x1="85.1219" y1="175.677" x2="73.3069" y2="91.6085" gradientUnits="userSpaceOnUse">
<stop stop-color="#7A5623"/>
<stop offset="0.05828" stop-color="#7B5929"/>
<stop offset="0.44262" stop-color="#826E4B"/>
<stop offset="0.74682" stop-color="#C5BCAC"/>
<stop offset="1" stop-color="white"/>
</linearGradient>
<radialGradient id="paint15_radial_109_868" cx="0" cy="0" r="1" gradientUnits="userSpaceOnUse" gradientTransform="translate(16156.2 13780.1) rotate(66.7144) scale(549.775)">
<stop stop-color="#CCB078"/>
<stop offset="1" stop-color="#7A5623"/>
</radialGradient>
<linearGradient id="paint16_linear_109_868" x1="90.8569" y1="196.28" x2="77.7905" y2="225.747" gradientUnits="userSpaceOnUse">
<stop stop-color="#CCB078"/>
<stop offset="0.177" stop-color="#B0915B"/>
<stop offset="0.36933" stop-color="#987742"/>
<stop offset="0.56767" stop-color="#876531"/>
<stop offset="0.77384" stop-color="#7D5A26"/>
<stop offset="1" stop-color="#7A5623"/>
</linearGradient>
<radialGradient id="paint17_radial_109_868" cx="0" cy="0" r="1" gradientUnits="userSpaceOnUse" gradientTransform="translate(83.4219 216.86) rotate(122.912) scale(30.0304)">
<stop offset="0.00122" stop-color="#CCBA96"/>
<stop offset="0.01416" stop-color="#C7B592"/>
<stop offset="0.14011" stop-color="#988B72"/>
<stop offset="0.27041" stop-color="#706755"/>
<stop offset="0.40339" stop-color="#4F4A3E"/>
<stop offset="0.53978" stop-color="#36332D"/>
<stop offset="0.68093" stop-color="#242320"/>
<stop offset="0.82998" stop-color="#191918"/>
<stop offset="1" stop-color="#161616"/>
</radialGradient>
<radialGradient id="paint18_radial_109_868" cx="0" cy="0" r="1" gradientUnits="userSpaceOnUse" gradientTransform="translate(76.5742 241.21) rotate(-153.03) scale(30.3994)">
<stop stop-color="#CCBA96"/>
<stop offset="1" stop-color="#7A5623"/>
</radialGradient>
<linearGradient id="paint19_linear_109_868" x1="80.3796" y1="265.318" x2="73.1639" y2="239.871" gradientUnits="userSpaceOnUse">
<stop stop-color="#CCBA96"/>
<stop offset="0.09577" stop-color="#BCA67F"/>
<stop offset="0.26404" stop-color="#A48A5E"/>
<stop offset="0.43689" stop-color="#927344"/>
<stop offset="0.61402" stop-color="#846332"/>
<stop offset="0.7981" stop-color="#7D5927"/>
<stop offset="1" stop-color="#7A5623"/>
</linearGradient>
<radialGradient id="paint20_radial_109_868" cx="0" cy="0" r="1" gradientUnits="userSpaceOnUse" gradientTransform="translate(79.5394 246.37) rotate(-41.1673) scale(19.7284)">
<stop stop-color="#CCBA96"/>
<stop offset="0.01296" stop-color="#C7B592"/>
<stop offset="0.13906" stop-color="#988B72"/>
<stop offset="0.26952" stop-color="#706755"/>
<stop offset="0.40266" stop-color="#4F4A3E"/>
<stop offset="0.53922" stop-color="#36332D"/>
<stop offset="0.68055" stop-color="#242320"/>
<stop offset="0.82977" stop-color="#191918"/>
<stop offset="1" stop-color="#161616"/>
</radialGradient>
<linearGradient id="paint21_linear_109_868" x1="86.2988" y1="243.286" x2="73.5334" y2="243.286" gradientUnits="userSpaceOnUse">
<stop stop-color="#7A5623"/>
<stop offset="0.02141" stop-color="#7F5C29"/>
<stop offset="0.16858" stop-color="#A1804B"/>
<stop offset="0.30603" stop-color="#B89B64"/>
<stop offset="0.42891" stop-color="#C7AA73"/>
<stop offset="0.52494" stop-color="#CCB078"/>
<stop offset="0.6097" stop-color="#C6A972"/>
<stop offset="0.72857" stop-color="#B59761"/>
<stop offset="0.8669" stop-color="#9A7944"/>
<stop offset="1" stop-color="#7A5623"/>
</linearGradient>
<radialGradient id="paint22_radial_109_868" cx="0" cy="0" r="1" gradientUnits="userSpaceOnUse" gradientTransform="translate(88.3829 236.629) rotate(180) scale(2.12951)">
<stop offset="0.00122" stop-color="#CCB078"/>
<stop offset="0.01416" stop-color="#C7AC75"/>
<stop offset="0.14011" stop-color="#98845C"/>
<stop offset="0.27041" stop-color="#706247"/>
<stop offset="0.40339" stop-color="#4F4735"/>
<stop offset="0.53978" stop-color="#363127"/>
<stop offset="0.68093" stop-color="#24221E"/>
<stop offset="0.82998" stop-color="#191918"/>
<stop offset="1" stop-color="#161616"/>
</radialGradient>
<linearGradient id="paint23_linear_109_868" x1="25.8477" y1="415.431" x2="24.4971" y2="415.431" gradientUnits="userSpaceOnUse">
<stop stop-color="#7A5623"/>
<stop offset="0.02141" stop-color="#7F5C29"/>
<stop offset="0.16858" stop-color="#A1804B"/>
<stop offset="0.30603" stop-color="#B89B64"/>
<stop offset="0.42891" stop-color="#C7AA73"/>
<stop offset="0.52494" stop-color="#CCB078"/>
<stop offset="0.6097" stop-color="#C6A972"/>
<stop offset="0.72857" stop-color="#B59761"/>
<stop offset="0.8669" stop-color="#9A7944"/>
<stop offset="1" stop-color="#7A5623"/>
</linearGradient>
<linearGradient id="paint24_linear_109_868" x1="46.1001" y1="352.842" x2="45.4675" y2="352.842" gradientUnits="userSpaceOnUse">
<stop stop-color="#7A5623"/>
<stop offset="0.02141" stop-color="#7F5C29"/>
<stop offset="0.16858" stop-color="#A1804B"/>
<stop offset="0.30603" stop-color="#B89B64"/>
<stop offset="0.42891" stop-color="#C7AA73"/>
<stop offset="0.52494" stop-color="#CCB078"/>
<stop offset="0.6097" stop-color="#C6A972"/>
<stop offset="0.72857" stop-color="#B59761"/>
<stop offset="0.8669" stop-color="#9A7944"/>
<stop offset="1" stop-color="#7A5623"/>
</linearGradient>
<radialGradient id="paint25_radial_109_868" cx="0" cy="0" r="1" gradientUnits="userSpaceOnUse" gradientTransform="translate(-69.3715 667.953) rotate(180) scale(3.16676)">
<stop offset="0.00122" stop-color="#CCB078"/>
<stop offset="0.01416" stop-color="#C7AC75"/>
<stop offset="0.14011" stop-color="#98845C"/>
<stop offset="0.27041" stop-color="#706247"/>
<stop offset="0.40339" stop-color="#4F4735"/>
<stop offset="0.53978" stop-color="#363127"/>
<stop offset="0.68093" stop-color="#24221E"/>
<stop offset="0.82998" stop-color="#191918"/>
<stop offset="1" stop-color="#161616"/>
</radialGradient>
<linearGradient id="paint26_linear_109_868" x1="41.0051" y1="155.623" x2="41.0051" y2="113.537" gradientUnits="userSpaceOnUse">
<stop stop-color="#7C5B2B"/>
<stop offset="0.1993" stop-color="#806942"/>
<stop offset="0.31254" stop-color="#938060"/>
<stop offset="0.69234" stop-color="#CFC9C1"/>
<stop offset="0.76229" stop-color="#CAC3B9"/>
<stop offset="0.87253" stop-color="#BCB2A2"/>
<stop offset="1" stop-color="#A79980"/>
</linearGradient>
<linearGradient id="paint27_linear_109_868" x1="38.3959" y1="134.543" x2="32.8009" y2="134.543" gradientUnits="userSpaceOnUse">
<stop stop-color="#7A6342"/>
<stop offset="0.1993" stop-color="#82755F"/>
<stop offset="0.50122" stop-color="#CDC8C0"/>
<stop offset="0.69234" stop-color="white"/>
<stop offset="0.89595" stop-color="#82755F"/>
<stop offset="1" stop-color="#7A6342"/>
</linearGradient>
<radialGradient id="paint28_radial_109_868" cx="0" cy="0" r="1" gradientUnits="userSpaceOnUse" gradientTransform="translate(35.5988 134.544) rotate(176.686) scale(29.1783 13.7722)">
<stop stop-color="#CCBA96"/>
<stop offset="0.1903" stop-color="#C7B592"/>
<stop offset="0.41817" stop-color="#B8A887"/>
<stop offset="0.66426" stop-color="#A09176"/>
<stop offset="0.90168" stop-color="#82755F"/>
<stop offset="0.92868" stop-color="#7E6C50"/>
<stop offset="0.96196" stop-color="#7B6545"/>
<stop offset="1" stop-color="#7A6342"/>
</radialGradient>
<radialGradient id="paint29_radial_109_868" cx="0" cy="0" r="1" gradientUnits="userSpaceOnUse" gradientTransform="translate(35.5986 134.543) rotate(-89.9999) scale(4.27608 0.822681)">
<stop stop-color="#C7B592"/>
<stop offset="0.23416" stop-color="#BDAB8A"/>
<stop offset="0.63802" stop-color="#A09176"/>
<stop offset="1" stop-color="#82755F"/>
</radialGradient>
</defs>
</svg>
