<svg width="162" height="300" viewBox="0 0 162 300" fill="none" xmlns="http://www.w3.org/2000/svg">
<path style="mix-blend-mode:lighten" opacity="0.5" d="M82.5154 182.401C103.145 182.401 119.868 141.569 119.868 91.2006C119.868 40.8319 103.145 0 82.5154 0C61.8859 0 45.1624 40.8319 45.1624 91.2006C45.1624 141.569 61.8859 182.401 82.5154 182.401Z" fill="url(#paint0_radial_217_423)"/>
<path style="mix-blend-mode:lighten" opacity="0.5" d="M80.8649 300C125.525 300 161.73 279.097 161.73 253.313C161.73 227.528 125.525 206.625 80.8649 206.625C36.2045 206.625 0 227.528 0 253.313C0 279.097 36.2045 300 80.8649 300Z" fill="url(#paint1_radial_217_423)"/>
<path d="M40.4336 223.864C43.1139 229.132 44.1038 243.407 38.8364 246.087C33.5691 248.768 24.0391 238.838 21.3587 233.571C20.7181 232.318 20.3308 230.951 20.2191 229.549C20.1074 228.146 20.2734 226.735 20.7075 225.397C21.1417 224.058 21.8356 222.819 22.7495 221.749C23.6633 220.679 24.7792 219.8 26.0332 219.162C27.2873 218.523 28.6549 218.139 30.0577 218.03C31.4606 217.921 32.8711 218.09 34.2087 218.526C35.5463 218.963 36.7845 219.659 37.8527 220.575C38.9208 221.491 39.7979 222.609 40.4336 223.864Z" fill="url(#paint2_radial_217_423)"/>
<g style="mix-blend-mode:lighten">
<path style="mix-blend-mode:lighten" d="M40.4336 223.864C43.1139 229.132 44.1038 243.407 38.8364 246.087C33.5691 248.768 24.0391 238.838 21.3587 233.571C20.7181 232.318 20.3308 230.951 20.2191 229.549C20.1074 228.146 20.2734 226.735 20.7075 225.397C21.1417 224.058 21.8356 222.819 22.7495 221.749C23.6633 220.679 24.7792 219.8 26.0332 219.162C27.2873 218.523 28.6549 218.139 30.0577 218.03C31.4606 217.921 32.8711 218.09 34.2087 218.526C35.5463 218.963 36.7845 219.659 37.8527 220.575C38.9208 221.491 39.7979 222.609 40.4336 223.864Z" fill="url(#paint3_linear_217_423)"/>
</g>
<path d="M23.3914 221.808C24.5268 220.643 25.9208 219.763 27.4602 219.238C28.9997 218.713 30.6412 218.558 32.2516 218.786C35.18 219.365 35.9611 221.655 33.9962 223.902C32.8608 225.066 31.4668 225.947 29.9273 226.472C28.3879 226.997 26.7463 227.151 25.1359 226.923C22.2076 226.345 21.4265 224.055 23.3914 221.808Z" fill="#161616"/>
<path style="mix-blend-mode:lighten" opacity="0.5" d="M23.3914 221.808C24.5268 220.643 25.9208 219.763 27.4602 219.238C28.9997 218.713 30.6412 218.558 32.2516 218.786C35.18 219.365 35.9611 221.655 33.9962 223.902C32.8608 225.066 31.4668 225.947 29.9273 226.472C28.3879 226.997 26.7463 227.151 25.1359 226.923C22.2076 226.345 21.4265 224.055 23.3914 221.808Z" fill="url(#paint4_radial_217_423)"/>
<path d="M23.0642 225.955C23.1889 225.142 23.5599 224.387 24.1271 223.792C25.2625 222.627 26.6565 221.747 28.196 221.222C29.7354 220.697 31.377 220.542 32.9873 220.77C33.7551 220.892 34.473 221.228 35.059 221.739C35.2114 220.337 34.2187 219.175 32.2516 218.786C30.6412 218.558 28.9997 218.713 27.4603 219.238C25.9208 219.763 24.5268 220.643 23.3914 221.808C22.0303 223.364 21.9887 224.94 23.0642 225.955Z" fill="url(#paint5_linear_217_423)"/>
<path opacity="0.6" d="M28.5984 212.824C28.4754 212.936 28.3884 213.083 28.3485 213.244C28.3086 213.406 28.3175 213.576 28.3742 213.733C28.4309 213.889 28.5328 214.026 28.6669 214.124C28.8011 214.223 28.9615 214.28 29.128 214.287C29.2944 214.295 29.4593 214.253 29.6019 214.167C29.7445 214.081 29.8583 213.954 29.929 213.803C29.9997 213.653 30.024 213.484 29.999 213.319C29.9739 213.155 29.9006 213.001 29.7883 212.878C29.6377 212.713 29.4277 212.615 29.2046 212.605C28.9814 212.594 28.7634 212.673 28.5984 212.824Z" fill="#CCBA96"/>
<path style="mix-blend-mode:lighten" opacity="0.5" d="M18.789 214.074C18.478 214.358 18.2582 214.728 18.1573 215.137C18.0564 215.546 18.0791 215.975 18.2224 216.371C18.3657 216.767 18.6233 217.112 18.9624 217.362C19.3016 217.611 19.7072 217.755 20.128 217.774C20.5487 217.793 20.9657 217.687 21.3261 217.469C21.6866 217.251 21.9744 216.932 22.1531 216.55C22.3318 216.169 22.3934 215.743 22.3301 215.327C22.2669 214.91 22.0815 214.522 21.7976 214.211C21.609 214.004 21.3817 213.837 21.1284 213.718C20.8752 213.6 20.6011 213.532 20.3217 213.519C20.0423 213.507 19.7632 213.549 19.5002 213.644C19.2372 213.739 18.9956 213.885 18.789 214.074Z" fill="url(#paint6_radial_217_423)"/>
<path opacity="0.6" d="M24.2826 202.186C24.1085 202.345 23.9854 202.553 23.9289 202.781C23.8724 203.01 23.8851 203.251 23.9653 203.473C24.0455 203.694 24.1897 203.887 24.3796 204.027C24.5695 204.167 24.7966 204.247 25.0321 204.258C25.2677 204.269 25.5011 204.209 25.703 204.087C25.9048 203.965 26.0659 203.786 26.1659 203.573C26.266 203.359 26.3004 203.121 26.265 202.888C26.2296 202.655 26.1258 202.437 25.9668 202.263C25.8612 202.148 25.734 202.054 25.5922 201.987C25.4504 201.921 25.297 201.883 25.1406 201.876C24.9842 201.869 24.8279 201.893 24.6807 201.946C24.5335 201.999 24.3982 202.081 24.2826 202.186Z" fill="#CCBA96"/>
<path d="M21.4913 206.164C21.3721 206.273 21.2878 206.415 21.2492 206.572C21.2106 206.728 21.2192 206.893 21.2742 207.045C21.3291 207.196 21.4277 207.328 21.5577 207.424C21.6877 207.52 21.8431 207.575 22.0043 207.582C22.1655 207.589 22.3252 207.549 22.4633 207.465C22.6014 207.382 22.7117 207.259 22.7802 207.113C22.8486 206.967 22.8722 206.804 22.848 206.644C22.8237 206.485 22.7527 206.336 22.6439 206.217C22.498 206.057 22.2946 205.962 22.0784 205.952C21.8623 205.942 21.6511 206.019 21.4913 206.164Z" fill="url(#paint7_linear_217_423)"/>
<path d="M20.8785 204.217C20.797 204.291 20.7393 204.388 20.7129 204.495C20.6865 204.603 20.6924 204.715 20.73 204.819C20.7676 204.923 20.8351 205.013 20.924 205.079C21.013 205.144 21.1193 205.182 21.2296 205.187C21.3399 205.192 21.4492 205.164 21.5437 205.107C21.6382 205.05 21.7137 204.966 21.7606 204.866C21.8074 204.766 21.8236 204.654 21.807 204.545C21.7904 204.436 21.7418 204.334 21.6674 204.253C21.6179 204.198 21.5583 204.155 21.4919 204.123C21.4255 204.092 21.3536 204.075 21.2804 204.071C21.2071 204.068 21.1339 204.079 21.065 204.104C20.996 204.129 20.9326 204.167 20.8785 204.217Z" fill="url(#paint8_linear_217_423)"/>
<path opacity="0.6" d="M26.7655 220.312C26.5929 220.469 26.4709 220.674 26.4149 220.901C26.3589 221.128 26.3715 221.366 26.451 221.586C26.5305 221.806 26.6734 221.997 26.8615 222.136C27.0497 222.274 27.2748 222.354 27.5082 222.364C27.7416 222.375 27.973 222.316 28.173 222.195C28.373 222.075 28.5327 221.897 28.6319 221.686C28.731 221.474 28.7652 221.238 28.7301 221.007C28.695 220.776 28.5922 220.56 28.4346 220.388C28.2234 220.156 27.9288 220.018 27.6158 220.004C27.3028 219.99 26.9969 220.1 26.7655 220.312Z" fill="#CCBA96"/>
<path style="mix-blend-mode:lighten" opacity="0.5" d="M29.0819 217.553C28.8239 217.789 28.6415 218.096 28.5578 218.435C28.4741 218.774 28.4929 219.131 28.6118 219.459C28.7307 219.788 28.9444 220.074 29.2258 220.281C29.5072 220.488 29.8437 220.607 30.1928 220.623C30.5419 220.639 30.8878 220.551 31.1869 220.37C31.486 220.19 31.7248 219.924 31.873 219.608C32.0213 219.292 32.0724 218.938 32.0199 218.593C31.9674 218.247 31.8136 217.925 31.578 217.667C31.4216 217.496 31.2329 217.357 31.0228 217.258C30.8127 217.16 30.5853 217.104 30.3535 217.093C30.1217 217.083 29.8901 217.118 29.672 217.197C29.4538 217.276 29.2533 217.397 29.0819 217.553Z" fill="url(#paint9_radial_217_423)"/>
<path d="M122.479 196.621C122.479 227.908 103.848 253.271 80.8648 253.271C57.8822 253.271 39.251 227.908 39.251 196.621C39.251 165.334 57.8821 155.959 80.8648 155.959C103.848 155.959 122.479 165.334 122.479 196.621Z" fill="url(#paint10_radial_217_423)"/>
<g style="mix-blend-mode:lighten">
<path style="mix-blend-mode:lighten" d="M122.479 196.621C122.479 227.908 103.848 253.271 80.8648 253.271C57.8822 253.271 39.251 227.908 39.251 196.621C39.251 165.334 57.8821 155.959 80.8648 155.959C103.848 155.959 122.479 165.334 122.479 196.621Z" fill="url(#paint11_linear_217_423)"/>
</g>
<path d="M80.8649 189.177C96.5502 189.177 109.266 181.836 109.266 172.78C109.266 163.724 96.5502 156.383 80.8649 156.383C65.1797 156.383 52.4642 163.724 52.4642 172.78C52.4642 181.836 65.1797 189.177 80.8649 189.177Z" fill="#161616"/>
<path style="mix-blend-mode:lighten" opacity="0.5" d="M80.8649 189.177C96.5502 189.177 109.266 181.836 109.266 172.78C109.266 163.724 96.5502 156.383 80.8649 156.383C65.1797 156.383 52.4642 163.724 52.4642 172.78C52.4642 181.836 65.1797 189.177 80.8649 189.177Z" fill="url(#paint12_radial_217_423)"/>
<path d="M60.7822 165.553C71.8732 159.15 89.8556 159.15 100.947 165.554C105.528 168.198 108.212 171.523 109.008 174.964C110.141 170.073 107.457 164.944 100.947 161.186C89.8556 154.782 71.8731 154.782 60.7822 161.185C54.2723 164.944 51.5891 170.072 52.7213 174.963C53.518 171.522 56.2013 168.198 60.7822 165.553Z" fill="url(#paint13_linear_217_423)"/>
<path opacity="0.4" d="M78.1542 98.3334C78.5018 98.0071 78.7449 97.5851 78.8526 97.1207C78.9604 96.6564 78.928 96.1704 78.7596 95.7244C78.5912 95.2784 78.2943 94.8924 77.9065 94.6151C77.5187 94.3379 77.0574 94.1818 76.5809 94.1667C76.1044 94.1516 75.6342 94.2782 75.2296 94.5304C74.825 94.7825 74.5043 95.149 74.308 95.5835C74.1117 96.0179 74.0487 96.5008 74.1269 96.9711C74.205 97.4414 74.4209 97.8779 74.7471 98.2255C75.1846 98.6916 75.7894 98.9648 76.4283 98.9851C77.0673 99.0053 77.6881 98.7709 78.1542 98.3334Z" fill="#CCBA96"/>
<path d="M106.036 96.2518C106.383 95.9255 106.626 95.5036 106.734 95.0392C106.842 94.5748 106.809 94.0889 106.641 93.643C106.473 93.197 106.176 92.811 105.788 92.5337C105.4 92.2565 104.939 92.1004 104.462 92.0853C103.986 92.0702 103.516 92.1968 103.111 92.4489C102.707 92.7011 102.386 93.0676 102.19 93.502C101.993 93.9364 101.93 94.4193 102.008 94.8895C102.087 95.3598 102.302 95.7963 102.629 96.1439C102.845 96.3747 103.105 96.5606 103.394 96.6909C103.682 96.8212 103.993 96.8935 104.31 96.9035C104.626 96.9135 104.941 96.8611 105.238 96.7493C105.534 96.6375 105.805 96.4684 106.036 96.2518Z" fill="url(#paint14_linear_217_423)"/>
<path opacity="0.4" d="M99.1548 58.8871C99.5287 58.5361 99.7902 58.0821 99.9062 57.5825C100.022 57.0829 99.9873 56.5602 99.8062 56.0803C99.625 55.6005 99.3057 55.1852 98.8885 54.8869C98.4713 54.5886 97.975 54.4206 97.4624 54.4044C96.9498 54.3881 96.4439 54.5242 96.0086 54.7955C95.5733 55.0668 95.2283 55.461 95.0171 55.9284C94.8059 56.3957 94.738 56.9152 94.822 57.4212C94.9061 57.9271 95.1383 58.3968 95.4892 58.7708C95.9599 59.2723 96.6105 59.5662 97.2979 59.588C97.9853 59.6099 98.6532 59.3577 99.1548 58.8871Z" fill="#CCBA96"/>
<path opacity="0.4" d="M96.2462 66.2602C96.4695 66.0506 96.6256 65.7795 96.6949 65.4812C96.7641 65.1828 96.7433 64.8707 96.6351 64.5841C96.527 64.2976 96.3363 64.0496 96.0871 63.8715C95.838 63.6934 95.5417 63.5931 95.2356 63.5834C94.9294 63.5737 94.6273 63.655 94.3674 63.817C94.1075 63.979 93.9015 64.2144 93.7754 64.4935C93.6493 64.7726 93.6088 65.0828 93.659 65.385C93.7092 65.6871 93.8479 65.9675 94.0575 66.1908C94.1966 66.3391 94.3636 66.4585 94.5489 66.5422C94.7342 66.626 94.9342 66.6724 95.1375 66.6788C95.3407 66.6852 95.5432 66.6516 95.7335 66.5798C95.9237 66.5079 96.0979 66.3993 96.2462 66.2602Z" fill="#CCBA96"/>
<path opacity="0.8" d="M93.0418 62.4347C93.1855 62.2998 93.286 62.1253 93.3305 61.9334C93.375 61.7414 93.3616 61.5405 93.292 61.3562C93.2224 61.1718 93.0996 61.0122 92.9393 60.8976C92.779 60.783 92.5883 60.7185 92.3913 60.7123C92.1943 60.7061 91.9999 60.7584 91.8327 60.8626C91.6655 60.9669 91.5329 61.1184 91.4518 61.298C91.3706 61.4776 91.3446 61.6772 91.3769 61.8716C91.4092 62.066 91.4984 62.2464 91.6333 62.3901C91.8142 62.5828 92.0642 62.6958 92.3283 62.7041C92.5925 62.7125 92.8491 62.6155 93.0418 62.4347Z" fill="#CCBA96"/>
<path opacity="0.8" d="M99.6866 84.5094C99.8303 84.3745 99.9307 84.2 99.9752 84.0081C100.02 83.8161 100.006 83.6152 99.9368 83.4309C99.8671 83.2465 99.7444 83.0869 99.5841 82.9723C99.4238 82.8577 99.2331 82.7932 99.0361 82.787C98.8391 82.7808 98.6447 82.8331 98.4775 82.9373C98.3103 83.0416 98.1777 83.1931 98.0965 83.3727C98.0154 83.5523 97.9894 83.7519 98.0217 83.9463C98.054 84.1407 98.1432 84.3212 98.2781 84.4649C98.3676 84.5603 98.4751 84.6371 98.5944 84.691C98.7136 84.7448 98.8423 84.7747 98.9731 84.7788C99.1039 84.783 99.2342 84.7613 99.3566 84.7151C99.4791 84.6688 99.5912 84.599 99.6866 84.5094Z" fill="#CCBA96"/>
<path opacity="0.4" d="M85.6343 55.9985C85.6778 55.9576 85.7083 55.9047 85.7218 55.8465C85.7353 55.7882 85.7312 55.7273 85.7101 55.6714C85.689 55.6155 85.6518 55.5671 85.6031 55.5323C85.5545 55.4975 85.4967 55.478 85.4369 55.4761C85.3772 55.4742 85.3182 55.4901 85.2675 55.5217C85.2167 55.5533 85.1765 55.5993 85.1519 55.6538C85.1273 55.7082 85.1194 55.7688 85.1292 55.8278C85.139 55.8867 85.1661 55.9415 85.207 55.9851C85.2341 56.014 85.2667 56.0373 85.3029 56.0537C85.3391 56.0701 85.3781 56.0791 85.4178 56.0804C85.4575 56.0816 85.4971 56.075 85.5342 56.061C85.5713 56.047 85.6053 56.0257 85.6343 55.9985Z" fill="#CCBA96"/>
<path opacity="0.8" d="M87.4506 68.5117C87.4942 68.4708 87.5247 68.4178 87.5382 68.3596C87.5517 68.3014 87.5477 68.2404 87.5266 68.1845C87.5054 68.1286 87.4682 68.0802 87.4196 68.0454C87.3709 68.0106 87.3131 67.9911 87.2533 67.9892C87.1936 67.9873 87.1346 68.0032 87.0839 68.0348C87.0331 68.0664 86.9929 68.1124 86.9683 68.1669C86.9437 68.2214 86.9358 68.2819 86.9456 68.3409C86.9554 68.3999 86.9825 68.4546 87.0235 68.4982C87.0783 68.5566 87.1541 68.5908 87.2342 68.5934C87.3144 68.5959 87.3922 68.5665 87.4506 68.5117Z" fill="#CCBA96"/>
<path opacity="0.8" d="M91.3503 92.3337C91.3939 92.2928 91.4244 92.2399 91.4379 92.1817C91.4514 92.1234 91.4473 92.0625 91.4262 92.0066C91.4051 91.9507 91.3678 91.9023 91.3192 91.8675C91.2706 91.8327 91.2127 91.8132 91.153 91.8113C91.0932 91.8094 91.0343 91.8253 90.9835 91.8569C90.9328 91.8885 90.8926 91.9345 90.868 91.989C90.8434 92.0434 90.8355 92.104 90.8453 92.163C90.8551 92.2219 90.8821 92.2767 90.923 92.3202C90.9779 92.3787 91.0538 92.4129 91.1339 92.4155C91.214 92.418 91.2919 92.3886 91.3503 92.3337Z" fill="#CCBA96"/>
<path opacity="0.8" d="M88.5879 88.5404C88.6315 88.4995 88.662 88.4466 88.6755 88.3884C88.689 88.3301 88.685 88.2692 88.6639 88.2133C88.6428 88.1573 88.6056 88.1089 88.5569 88.0741C88.5083 88.0393 88.4505 88.0198 88.3907 88.0179C88.331 88.016 88.272 88.0318 88.2213 88.0634C88.1705 88.095 88.1303 88.141 88.1057 88.1955C88.0811 88.25 88.0731 88.3105 88.0829 88.3695C88.0927 88.4285 88.1198 88.4832 88.1607 88.5268C88.2156 88.5852 88.2914 88.6195 88.3715 88.622C88.4516 88.6246 88.5294 88.5952 88.5879 88.5404Z" fill="#CCBA96"/>
<path opacity="0.4" d="M78.2868 70.2098C78.8174 69.7118 79.1884 69.0676 79.3529 68.3587C79.5174 67.6499 79.468 66.9081 79.2109 66.2273C78.9538 65.5465 78.5007 64.9572 77.9087 64.534C77.3168 64.1107 76.6126 63.8725 75.8852 63.8495C75.1579 63.8265 74.4401 64.0196 73.8225 64.4045C73.2049 64.7895 72.7154 65.3489 72.4157 66.012C72.1161 66.6752 72.0198 67.4123 72.1391 68.1302C72.2584 68.848 72.5879 69.5144 73.0859 70.045C73.4166 70.3973 73.8134 70.6811 74.2537 70.88C74.6941 71.079 75.1693 71.1892 75.6522 71.2045C76.1352 71.2198 76.6164 71.1399 77.0684 70.9692C77.5205 70.7985 77.9345 70.5405 78.2868 70.2098Z" fill="#CCBA96"/>
<path d="M58.4751 77.3667C58.739 77.119 58.9235 76.7986 59.0053 76.4461C59.0871 76.0935 59.0625 75.7246 58.9347 75.386C58.8068 75.0474 58.5814 74.7543 58.287 74.5438C57.9926 74.3332 57.6423 74.2148 57.2806 74.2033C56.9188 74.1918 56.5618 74.2879 56.2546 74.4794C55.9474 74.6708 55.704 74.9491 55.5549 75.2789C55.4059 75.6087 55.358 75.9753 55.4173 76.3324C55.4767 76.6894 55.6405 77.0209 55.8882 77.2848C56.0527 77.46 56.2501 77.6012 56.4691 77.7001C56.6881 77.7991 56.9244 77.8539 57.1647 77.8615C57.4049 77.8691 57.6442 77.8294 57.8691 77.7445C58.0939 77.6596 58.2998 77.5312 58.4751 77.3667Z" fill="url(#paint15_linear_217_423)"/>
<path opacity="0.4" d="M91.5759 77.3243C91.8399 77.0766 92.0244 76.7562 92.1062 76.4036C92.188 76.0511 92.1634 75.6821 92.0356 75.3435C91.9077 75.0049 91.6823 74.7118 91.3879 74.5013C91.0935 74.2908 90.7432 74.1723 90.3814 74.1608C90.0197 74.1494 89.6626 74.2454 89.3554 74.4369C89.0483 74.6284 88.8048 74.9066 88.6557 75.2365C88.5067 75.5663 88.4588 75.9329 88.5182 76.29C88.5775 76.6471 88.7414 76.9785 88.9891 77.2424C89.3213 77.5963 89.7804 77.8038 90.2655 77.8191C90.7507 77.8345 91.222 77.6565 91.5759 77.3243Z" fill="#CCBA96"/>
<path opacity="0.4" d="M78.2838 47.123C78.5477 46.8752 78.7323 46.5548 78.8141 46.2022C78.8959 45.8497 78.8713 45.4807 78.7435 45.1421C78.6156 44.8035 78.3902 44.5104 78.0958 44.2999C77.8013 44.0894 77.4511 43.9709 77.0893 43.9594C76.7276 43.948 76.3705 44.044 76.0633 44.2355C75.7562 44.4269 75.5127 44.7052 75.3636 45.035C75.2146 45.3649 75.1667 45.7315 75.2261 46.0886C75.2854 46.4456 75.4493 46.7771 75.697 47.041C76.0292 47.3949 76.4883 47.6023 76.9734 47.6177C77.4585 47.633 77.9299 47.4551 78.2838 47.123Z" fill="#CCBA96"/>
<path opacity="0.4" d="M55.1598 60.2742C55.4237 60.0265 55.6082 59.7061 55.69 59.3535C55.7718 59.0009 55.7472 58.632 55.6193 58.2934C55.4915 57.9548 55.2661 57.6617 54.9717 57.4512C54.6772 57.2407 54.327 57.1222 53.9652 57.1108C53.6035 57.0993 53.2464 57.1954 52.9393 57.3869C52.6321 57.5783 52.3886 57.8566 52.2396 58.1864C52.0906 58.5162 52.0427 58.8828 52.102 59.2399C52.1614 59.5969 52.3252 59.9284 52.5729 60.1923C52.7374 60.3675 52.9348 60.5087 53.1538 60.6076C53.3728 60.7066 53.6092 60.7614 53.8494 60.769C54.0896 60.7766 54.329 60.7369 54.5538 60.6519C54.7786 60.567 54.9845 60.4387 55.1598 60.2742Z" fill="#CCBA96"/>
<path opacity="0.4" d="M117.974 65.9776C118.238 65.7299 118.423 65.4095 118.505 65.0569C118.586 64.7043 118.562 64.3354 118.434 63.9968C118.306 63.6582 118.081 63.3651 117.786 63.1546C117.492 62.9441 117.142 62.8256 116.78 62.8141C116.418 62.8027 116.061 62.8988 115.754 63.0903C115.447 63.2818 115.203 63.56 115.054 63.8899C114.905 64.2197 114.857 64.5864 114.917 64.9434C114.976 65.3005 115.14 65.6319 115.388 65.8958C115.552 66.071 115.75 66.2121 115.969 66.3111C116.188 66.41 116.424 66.4649 116.664 66.4725C116.904 66.4801 117.144 66.4403 117.368 66.3554C117.593 66.2705 117.799 66.1421 117.974 65.9776Z" fill="#CCBA96"/>
<path opacity="0.4" d="M104.745 33.9373C105.009 33.6896 105.194 33.3692 105.276 33.0166C105.357 32.664 105.333 32.2951 105.205 31.9565C105.077 31.6178 104.852 31.3247 104.557 31.1142C104.263 30.9037 103.913 30.7852 103.551 30.7737C103.189 30.7623 102.832 30.8584 102.525 31.0498C102.218 31.2413 101.974 31.5195 101.825 31.8494C101.676 32.1793 101.628 32.5459 101.688 32.903C101.747 33.26 101.911 33.5914 102.159 33.8553C102.491 34.2092 102.95 34.4166 103.435 34.432C103.92 34.4474 104.391 34.2694 104.745 33.9373Z" fill="#CCBA96"/>
<path d="M128.847 37.3669C128.974 37.2475 129.063 37.0931 129.103 36.9231C129.142 36.7532 129.13 36.5753 129.069 36.4121C129.007 36.2488 128.899 36.1075 128.757 36.006C128.615 35.9045 128.446 35.8474 128.272 35.8419C128.097 35.8363 127.925 35.8826 127.777 35.9749C127.629 36.0672 127.511 36.2014 127.44 36.3604C127.368 36.5194 127.345 36.6961 127.373 36.8682C127.402 37.0404 127.481 37.2001 127.6 37.3274C127.76 37.4979 127.982 37.5979 128.216 37.6054C128.449 37.6128 128.677 37.527 128.847 37.3669Z" fill="url(#paint16_linear_217_423)"/>
<path opacity="0.4" d="M83.6206 92.1636C83.7752 92.0184 83.8834 91.8307 83.9313 91.6241C83.9792 91.4175 83.9648 91.2013 83.8899 91.0029C83.815 90.8044 83.6829 90.6327 83.5104 90.5093C83.3378 90.386 83.1326 90.3166 82.9206 90.3099C82.7086 90.3032 82.4994 90.3595 82.3194 90.4717C82.1394 90.5839 81.9968 90.7469 81.9094 90.9402C81.8221 91.1335 81.7941 91.3483 81.8288 91.5575C81.8636 91.7668 81.9597 91.961 82.1048 92.1156C82.2995 92.3229 82.5685 92.4445 82.8528 92.4535C83.137 92.4625 83.4132 92.3582 83.6206 92.1636Z" fill="#CCBA96"/>
<path d="M81.544 61.7771C81.6987 61.6319 81.8068 61.4442 81.8548 61.2376C81.9027 61.031 81.8883 60.8149 81.8134 60.6164C81.7385 60.418 81.6065 60.2463 81.4339 60.1229C81.2614 59.9996 81.0562 59.9301 80.8442 59.9234C80.6322 59.9167 80.423 59.973 80.243 60.0851C80.0631 60.1973 79.9204 60.3603 79.833 60.5536C79.7457 60.7469 79.7177 60.9617 79.7524 61.1709C79.7872 61.3801 79.8832 61.5744 80.0283 61.729C80.223 61.9363 80.492 62.0579 80.7762 62.0669C81.0605 62.0759 81.3366 61.9717 81.544 61.7771Z" fill="url(#paint17_linear_217_423)"/>
<path d="M67.8048 61.3658C67.9093 61.2678 67.9823 61.141 68.0147 61.0015C68.0471 60.862 68.0373 60.716 67.9868 60.5819C67.9362 60.4479 67.847 60.3319 67.7304 60.2486C67.6139 60.1653 67.4753 60.1184 67.3321 60.1139C67.189 60.1094 67.0477 60.1474 66.9261 60.2231C66.8046 60.2989 66.7082 60.409 66.6492 60.5395C66.5902 60.6701 66.5713 60.8152 66.5948 60.9565C66.6182 61.0978 66.6831 61.2289 66.7811 61.3334C66.9126 61.4734 67.0943 61.5555 67.2863 61.5616C67.4782 61.5676 67.6647 61.4972 67.8048 61.3658Z" fill="url(#paint18_linear_217_423)"/>
<path d="M65.7464 61.3112C65.898 61.1689 66.004 60.9848 66.0509 60.7823C66.0979 60.5798 66.0838 60.3679 66.0103 60.1734C65.9369 59.9789 65.8074 59.8106 65.6383 59.6897C65.4692 59.5688 65.268 59.5007 65.0602 59.4942C64.8524 59.4876 64.6473 59.5428 64.4709 59.6528C64.2945 59.7628 64.1546 59.9226 64.069 60.112C63.9835 60.3015 63.956 60.5121 63.9901 60.7172C64.0242 60.9222 64.1183 61.1126 64.2606 61.2642C64.355 61.3649 64.4684 61.4459 64.5942 61.5028C64.72 61.5596 64.8558 61.5911 64.9938 61.5955C65.1318 61.5998 65.2692 61.577 65.3984 61.5282C65.5275 61.4794 65.6458 61.4057 65.7464 61.3112Z" fill="url(#paint19_linear_217_423)"/>
<path d="M65.3809 63.8154C65.4648 63.7366 65.5235 63.6348 65.5495 63.5227C65.5756 63.4106 65.5678 63.2933 65.5271 63.1856C65.4865 63.0779 65.4148 62.9847 65.3212 62.9178C65.2276 62.8508 65.1162 62.8131 65.0012 62.8095C64.8862 62.8058 64.7726 62.8364 64.675 62.8973C64.5773 62.9581 64.4999 63.0466 64.4525 63.1515C64.4051 63.2564 64.3899 63.373 64.4088 63.4865C64.4276 63.6 64.4797 63.7054 64.5585 63.7893C64.6641 63.9018 64.8101 63.9677 64.9643 63.9726C65.1185 63.9775 65.2684 63.9209 65.3809 63.8154Z" fill="url(#paint20_linear_217_423)"/>
<path opacity="0.4" d="M75.4744 81.1134C75.5834 81.0111 75.6596 80.8787 75.6934 80.733C75.7272 80.5874 75.7171 80.4349 75.6643 80.295C75.6114 80.1551 75.5183 80.034 75.3967 79.9471C75.275 79.8601 75.1303 79.8111 74.9808 79.8064C74.8314 79.8017 74.6839 79.8414 74.557 79.9205C74.43 79.9996 74.3294 80.1145 74.2679 80.2508C74.2063 80.3871 74.1865 80.5386 74.211 80.6861C74.2356 80.8336 74.3033 80.9705 74.4056 81.0796C74.5428 81.2258 74.7325 81.3115 74.933 81.3178C75.1334 81.3242 75.3281 81.2506 75.4744 81.1134Z" fill="#CCBA96"/>
<path opacity="0.4" d="M97.5011 84.1998C97.6101 84.0975 97.6864 83.9651 97.7202 83.8195C97.754 83.6738 97.7438 83.5214 97.691 83.3815C97.6382 83.2416 97.545 83.1205 97.4234 83.0335C97.3017 82.9465 97.157 82.8976 97.0076 82.8928C96.8581 82.8881 96.7106 82.9278 96.5837 83.0069C96.4568 83.086 96.3562 83.201 96.2946 83.3372C96.233 83.4735 96.2133 83.625 96.2378 83.7725C96.2623 83.92 96.33 84.057 96.4323 84.166C96.5696 84.3122 96.7593 84.3978 96.9597 84.4042C97.1601 84.4105 97.3548 84.337 97.5011 84.1998Z" fill="#CCBA96"/>
<path d="M80.1642 82.2857C80.4327 82.0338 80.6204 81.7079 80.7036 81.3493C80.7868 80.9907 80.7618 80.6154 80.6318 80.271C80.5018 79.9266 80.2725 79.6285 79.973 79.4144C79.6736 79.2002 79.3173 79.0797 78.9493 79.0681C78.5814 79.0564 78.2182 79.1541 77.9058 79.3489C77.5934 79.5436 77.3457 79.8266 77.1941 80.1621C77.0426 80.4976 76.9939 80.8705 77.0542 81.2337C77.1146 81.5969 77.2813 81.934 77.5333 82.2024C77.8711 82.5623 78.3381 82.7733 78.8315 82.7889C79.3249 82.8046 79.8043 82.6236 80.1642 82.2857Z" fill="url(#paint21_linear_217_423)"/>
<path d="M68.475 112.197C68.2498 116.353 67.0477 120.398 64.9664 124.003C62.8851 127.608 59.9832 130.671 56.4962 132.944C49.8805 136.764 44.5175 133.667 44.5175 126.029C44.7427 121.872 45.9447 117.827 48.026 114.222C50.1073 110.618 53.0092 107.554 56.4962 105.281C63.1119 101.462 68.475 104.558 68.475 112.197Z" fill="#969AFF"/>
<path d="M82.5155 176.085C105.956 176.085 124.957 157.083 124.957 133.643C124.957 110.202 105.956 91.2006 82.5155 91.2006C59.0754 91.2006 40.0735 110.202 40.0735 133.643C40.0735 157.083 59.0754 176.085 82.5155 176.085Z" fill="url(#paint22_radial_217_423)"/>
<path d="M82.5155 176.085C105.956 176.085 124.957 157.083 124.957 133.643C124.957 110.202 105.956 91.2006 82.5155 91.2006C59.0754 91.2006 40.0735 110.202 40.0735 133.643C40.0735 157.083 59.0754 176.085 82.5155 176.085Z" fill="url(#paint23_linear_217_423)"/>
<path d="M127.831 208.869C136.732 208.869 143.948 201.653 143.948 192.751C143.948 183.85 136.732 176.634 127.831 176.634C118.93 176.634 111.714 183.85 111.714 192.751C111.714 201.653 118.93 208.869 127.831 208.869Z" fill="url(#paint24_radial_217_423)"/>
<g style="mix-blend-mode:lighten">
<g style="mix-blend-mode:lighten">
<path d="M127.831 208.869C136.732 208.869 143.948 201.653 143.948 192.751C143.948 183.85 136.732 176.634 127.831 176.634C118.93 176.634 111.714 183.85 111.714 192.751C111.714 201.653 118.93 208.869 127.831 208.869Z" fill="url(#paint25_radial_217_423)"/>
</g>
</g>
<path d="M141.76 199.535C140.601 201.723 138.943 203.607 136.919 205.034C134.896 206.461 132.565 207.39 130.115 207.748C125.59 208.159 123.467 205.149 125.373 201.025C126.532 198.837 128.19 196.953 130.214 195.526C132.237 194.099 134.568 193.169 137.018 192.812C141.543 192.4 143.666 195.41 141.76 199.535Z" fill="#161616"/>
<path style="mix-blend-mode:lighten" opacity="0.5" d="M141.761 199.533C140.602 201.721 138.943 203.605 136.92 205.032C134.897 206.459 132.566 207.389 130.116 207.746C125.591 208.158 123.468 205.148 125.374 201.023C126.533 198.835 128.191 196.951 130.214 195.524C132.238 194.097 134.569 193.168 137.019 192.81C141.544 192.399 143.667 195.409 141.761 199.533Z" fill="url(#paint26_radial_217_423)"/>
<path d="M140.46 193.336C140.626 194.576 140.408 195.838 139.835 196.951C138.676 199.139 137.018 201.023 134.995 202.45C132.971 203.877 130.64 204.807 128.19 205.164C127.017 205.315 125.824 205.133 124.749 204.638C125.128 206.751 127.076 208.022 130.116 207.746C132.566 207.389 134.897 206.459 136.92 205.032C138.943 203.605 140.602 201.721 141.761 199.533C143.081 196.676 142.466 194.356 140.46 193.336Z" fill="url(#paint27_linear_217_423)"/>
<path d="M36.3456 208.869C45.247 208.869 52.463 201.653 52.463 192.751C52.463 183.85 45.247 176.634 36.3456 176.634C27.4442 176.634 20.2281 183.85 20.2281 192.751C20.2281 201.653 27.4442 208.869 36.3456 208.869Z" fill="url(#paint28_radial_217_423)"/>
<g style="mix-blend-mode:lighten">
<g style="mix-blend-mode:lighten">
<path d="M36.3456 208.869C45.247 208.869 52.463 201.653 52.463 192.751C52.463 183.85 45.247 176.634 36.3456 176.634C27.4442 176.634 20.2281 183.85 20.2281 192.751C20.2281 201.653 27.4442 208.869 36.3456 208.869Z" fill="url(#paint29_radial_217_423)"/>
</g>
</g>
<path d="M32.7945 207.832C30.4052 207.183 28.2024 205.98 26.365 204.32C24.5277 202.661 23.1074 200.592 22.2197 198.28C20.8222 193.957 23.291 191.223 27.734 192.175C30.1233 192.824 32.3261 194.027 34.1634 195.686C36.0008 197.346 37.421 199.415 38.3087 201.726C39.7063 206.05 37.2373 208.783 32.7945 207.832Z" fill="#161616"/>
<path style="mix-blend-mode:lighten" opacity="0.5" d="M32.7962 207.832C30.4069 207.183 28.2041 205.98 26.3667 204.321C24.5294 202.661 23.1092 200.592 22.2214 198.281C20.8239 193.957 23.2928 191.224 27.7357 192.175C30.125 192.824 32.3278 194.027 34.1651 195.686C36.0025 197.346 37.4227 199.415 38.3104 201.726C39.7079 206.05 37.239 208.783 32.7962 207.832Z" fill="url(#paint30_radial_217_423)"/>
<path d="M38.5554 205.199C37.3818 205.634 36.1028 205.699 34.8911 205.385C32.5017 204.737 30.299 203.534 28.4617 201.874C26.6243 200.215 25.2041 198.145 24.3164 195.834C23.9107 194.723 23.8258 193.519 24.0715 192.362C22.0944 193.196 21.2828 195.376 22.2214 198.281C23.1092 200.592 24.5294 202.661 26.3667 204.321C28.2041 205.98 30.4068 207.183 32.7961 207.832C35.8738 208.491 38.0015 207.38 38.5554 205.199Z" fill="url(#paint31_linear_217_423)"/>
<path d="M140.359 232.044C138.655 237.703 129.503 248.704 123.844 247C118.185 245.296 118.161 231.533 119.865 225.874C120.688 223.162 122.553 220.887 125.052 219.549C127.55 218.211 130.477 217.918 133.19 218.735C135.904 219.552 138.183 221.412 139.527 223.907C140.871 226.402 141.17 229.329 140.359 232.044Z" fill="url(#paint32_radial_217_423)"/>
<g style="mix-blend-mode:lighten">
<path style="mix-blend-mode:lighten" d="M140.359 232.044C138.655 237.703 129.503 248.704 123.844 247C118.185 245.296 118.161 231.533 119.865 225.874C120.688 223.162 122.553 220.887 125.052 219.549C127.55 218.211 130.477 217.918 133.19 218.735C135.904 219.552 138.183 221.412 139.527 223.907C140.871 226.402 141.17 229.329 140.359 232.044Z" fill="url(#paint33_linear_217_423)"/>
</g>
<path d="M129.465 218.779C131.091 218.722 132.707 219.049 134.182 219.734C135.657 220.418 136.95 221.441 137.956 222.72C139.673 225.162 138.654 227.357 135.681 227.622C134.056 227.679 132.44 227.352 130.964 226.667C129.489 225.982 128.196 224.959 127.19 223.681C125.473 221.239 126.492 219.044 129.465 218.779Z" fill="#161616"/>
<path style="mix-blend-mode:lighten" opacity="0.5" d="M129.465 218.779C131.091 218.722 132.707 219.049 134.182 219.734C135.657 220.418 136.95 221.441 137.956 222.72C139.673 225.162 138.654 227.357 135.681 227.622C134.056 227.679 132.44 227.352 130.964 226.667C129.489 225.982 128.196 224.959 127.19 223.681C125.473 221.239 126.492 219.044 129.465 218.779Z" fill="url(#paint34_radial_217_423)"/>
<path d="M126.362 221.549C127.014 221.048 127.804 220.759 128.626 220.721C130.251 220.664 131.867 220.991 133.342 221.676C134.818 222.361 136.111 223.384 137.117 224.662C137.587 225.281 137.874 226.019 137.944 226.793C139.023 225.886 139.109 224.36 137.956 222.72C136.95 221.441 135.657 220.418 134.182 219.734C132.707 219.049 131.091 218.722 129.465 218.779C127.406 218.962 126.286 220.073 126.362 221.549Z" fill="url(#paint35_linear_217_423)"/>
<path opacity="0.6" d="M137.867 211.983C137.988 211.869 138.073 211.722 138.111 211.56C138.149 211.397 138.137 211.227 138.078 211.072C138.02 210.916 137.916 210.781 137.78 210.684C137.645 210.587 137.484 210.533 137.317 210.527C137.151 210.522 136.986 210.566 136.845 210.654C136.704 210.743 136.592 210.871 136.523 211.022C136.454 211.174 136.432 211.343 136.46 211.507C136.487 211.672 136.562 211.824 136.676 211.946C136.752 212.026 136.843 212.091 136.944 212.137C137.045 212.182 137.153 212.208 137.264 212.211C137.374 212.215 137.485 212.196 137.588 212.157C137.692 212.118 137.786 212.059 137.867 211.983Z" fill="#CCBA96"/>
<path style="mix-blend-mode:lighten" opacity="0.5" d="M147.658 210.598C147.965 210.31 148.18 209.937 148.275 209.527C148.371 209.116 148.342 208.687 148.193 208.293C148.044 207.899 147.782 207.558 147.439 207.313C147.097 207.068 146.689 206.93 146.268 206.917C145.847 206.904 145.432 207.015 145.074 207.238C144.717 207.461 144.434 207.785 144.26 208.168C144.087 208.552 144.031 208.979 144.1 209.394C144.169 209.81 144.36 210.196 144.648 210.503C145.035 210.914 145.569 211.156 146.134 211.174C146.698 211.192 147.246 210.984 147.658 210.598Z" fill="url(#paint36_radial_217_423)"/>
<path opacity="0.6" d="M142.329 222.56C142.501 222.399 142.622 222.19 142.675 221.96C142.728 221.731 142.712 221.49 142.629 221.27C142.546 221.049 142.399 220.858 142.207 220.721C142.015 220.584 141.787 220.507 141.551 220.499C141.316 220.492 141.083 220.555 140.883 220.679C140.683 220.804 140.524 220.985 140.427 221.2C140.33 221.415 140.299 221.654 140.338 221.886C140.376 222.119 140.483 222.335 140.644 222.507C140.861 222.737 141.16 222.872 141.476 222.882C141.792 222.892 142.099 222.776 142.329 222.56Z" fill="#CCBA96"/>
<path d="M144.507 218.765C144.958 218.765 145.323 218.4 145.323 217.949C145.323 217.498 144.958 217.133 144.507 217.133C144.056 217.133 143.691 217.498 143.691 217.949C143.691 218.4 144.056 218.765 144.507 218.765Z" fill="url(#paint37_linear_217_423)"/>
<path d="M145.705 220.483C145.786 220.407 145.842 220.31 145.867 220.202C145.892 220.095 145.884 219.982 145.845 219.879C145.806 219.775 145.738 219.686 145.648 219.622C145.558 219.557 145.451 219.521 145.341 219.518C145.23 219.514 145.121 219.544 145.028 219.602C144.934 219.661 144.86 219.745 144.814 219.846C144.769 219.947 144.754 220.059 144.772 220.168C144.79 220.276 144.84 220.378 144.916 220.458C144.966 220.512 145.026 220.555 145.093 220.585C145.16 220.615 145.232 220.632 145.305 220.634C145.379 220.636 145.452 220.624 145.52 220.598C145.589 220.572 145.652 220.533 145.705 220.483Z" fill="url(#paint38_linear_217_423)"/>
<path opacity="0.6" d="M139.596 204.471C139.767 204.311 139.886 204.104 139.939 203.877C139.991 203.649 139.976 203.411 139.893 203.192C139.81 202.974 139.665 202.785 139.475 202.649C139.285 202.513 139.059 202.436 138.825 202.429C138.592 202.421 138.361 202.483 138.163 202.607C137.964 202.731 137.807 202.91 137.711 203.123C137.615 203.336 137.584 203.573 137.622 203.803C137.66 204.034 137.766 204.248 137.926 204.418C138.141 204.647 138.437 204.781 138.75 204.791C139.063 204.8 139.368 204.686 139.596 204.471Z" fill="#CCBA96"/>
<path style="mix-blend-mode:lighten" opacity="0.5" d="M137.318 207.261C137.573 207.022 137.751 206.712 137.83 206.372C137.909 206.032 137.885 205.675 137.762 205.348C137.638 205.022 137.421 204.739 137.137 204.535C136.852 204.332 136.514 204.218 136.165 204.207C135.816 204.196 135.471 204.288 135.174 204.473C134.878 204.658 134.643 204.927 134.499 205.245C134.355 205.564 134.309 205.918 134.366 206.262C134.423 206.607 134.582 206.927 134.821 207.182C134.98 207.351 135.17 207.487 135.382 207.583C135.593 207.678 135.821 207.731 136.053 207.739C136.285 207.746 136.516 207.708 136.733 207.626C136.95 207.544 137.149 207.42 137.318 207.261Z" fill="url(#paint39_radial_217_423)"/>
<path style="mix-blend-mode:lighten" opacity="0.5" d="M82.5154 159.613C94.1845 159.613 103.644 150.547 103.644 139.363C103.644 128.179 94.1845 119.113 82.5154 119.113C70.8464 119.113 61.3867 128.179 61.3867 139.363C61.3867 150.547 70.8464 159.613 82.5154 159.613Z" fill="url(#paint40_radial_217_423)"/>
<path d="M82.5154 159.613C93.3297 159.613 102.096 150.846 102.096 140.032C102.096 129.218 93.3297 120.451 82.5154 120.451C71.7011 120.451 62.9343 129.218 62.9343 140.032C62.9343 150.846 71.7011 159.613 82.5154 159.613Z" fill="url(#paint41_linear_217_423)"/>
<path d="M82.3689 158.616C92.1754 158.616 100.125 150.666 100.125 140.859C100.125 131.053 92.1754 123.103 82.3689 123.103C72.5623 123.103 64.6125 131.053 64.6125 140.859C64.6125 150.666 72.5623 158.616 82.3689 158.616Z" fill="#161616"/>
<path style="mix-blend-mode:lighten" opacity="0.5" d="M82.3689 158.616C92.1754 158.616 100.125 150.666 100.125 140.859C100.125 131.053 92.1754 123.103 82.3689 123.103C72.5623 123.103 64.6125 131.053 64.6125 140.859C64.6125 150.666 72.5623 158.616 82.3689 158.616Z" fill="url(#paint42_radial_217_423)"/>
<path d="M82.3688 149.059C86.8972 149.059 90.5682 145.388 90.5682 140.859C90.5682 136.331 86.8972 132.66 82.3688 132.66C77.8404 132.66 74.1694 136.331 74.1694 140.859C74.1694 145.388 77.8404 149.059 82.3688 149.059Z" fill="url(#paint43_radial_217_423)"/>
<path d="M82.3688 147.99C86.3069 147.99 89.4993 144.797 89.4993 140.859C89.4993 136.921 86.3069 133.729 82.3688 133.729C78.4308 133.729 75.2384 136.921 75.2384 140.859C75.2384 144.797 78.4308 147.99 82.3688 147.99Z" fill="url(#paint44_radial_217_423)"/>
<defs>
<radialGradient id="paint0_radial_217_423" cx="0" cy="0" r="1" gradientUnits="userSpaceOnUse" gradientTransform="translate(82.4928 91.2008) scale(44.3958 108.398)">
<stop stop-color="#CCB078"/>
<stop offset="0.06554" stop-color="#AD9567"/>
<stop offset="0.16316" stop-color="#857452"/>
<stop offset="0.26739" stop-color="#62573F"/>
<stop offset="0.37754" stop-color="#473F30"/>
<stop offset="0.49578" stop-color="#312D25"/>
<stop offset="0.62597" stop-color="#22201C"/>
<stop offset="0.77735" stop-color="#191817"/>
<stop offset="1" stop-color="#161616"/>
</radialGradient>
<radialGradient id="paint1_radial_217_423" cx="0" cy="0" r="1" gradientUnits="userSpaceOnUse" gradientTransform="translate(80.8649 253.313) rotate(30.0007) scale(66.0254 57.1805)">
<stop stop-color="#CCB078"/>
<stop offset="0.14516" stop-color="#A48F63"/>
<stop offset="0.35394" stop-color="#726448"/>
<stop offset="0.55077" stop-color="#4A4232"/>
<stop offset="0.72998" stop-color="#2E2A23"/>
<stop offset="0.88555" stop-color="#1C1B19"/>
<stop offset="1" stop-color="#161616"/>
</radialGradient>
<radialGradient id="paint2_radial_217_423" cx="0" cy="0" r="1" gradientUnits="userSpaceOnUse" gradientTransform="translate(32.0359 220.227) rotate(-26.9697) scale(30.3994)">
<stop stop-color="#CCBA96"/>
<stop offset="1" stop-color="#7A5623"/>
</radialGradient>
<linearGradient id="paint3_linear_217_423" x1="28.2305" y1="244.335" x2="35.4462" y2="218.888" gradientUnits="userSpaceOnUse">
<stop stop-color="#CCBA96"/>
<stop offset="0.09577" stop-color="#BCA67F"/>
<stop offset="0.26404" stop-color="#A48A5E"/>
<stop offset="0.43689" stop-color="#927344"/>
<stop offset="0.61402" stop-color="#846332"/>
<stop offset="0.7981" stop-color="#7D5927"/>
<stop offset="1" stop-color="#7A5623"/>
</linearGradient>
<radialGradient id="paint4_radial_217_423" cx="0" cy="0" r="1" gradientUnits="userSpaceOnUse" gradientTransform="translate(29.077 225.391) rotate(-138.833) scale(19.7283)">
<stop stop-color="#CCBA96"/>
<stop offset="0.01296" stop-color="#C7B592"/>
<stop offset="0.13906" stop-color="#988B72"/>
<stop offset="0.26952" stop-color="#706755"/>
<stop offset="0.40266" stop-color="#4F4A3E"/>
<stop offset="0.53922" stop-color="#36332D"/>
<stop offset="0.68055" stop-color="#242320"/>
<stop offset="0.82977" stop-color="#191918"/>
<stop offset="1" stop-color="#161616"/>
</radialGradient>
<linearGradient id="paint5_linear_217_423" x1="22.3088" y1="222.304" x2="35.0743" y2="222.304" gradientUnits="userSpaceOnUse">
<stop stop-color="#7A5623"/>
<stop offset="0.02141" stop-color="#7F5C29"/>
<stop offset="0.16858" stop-color="#A1804B"/>
<stop offset="0.30603" stop-color="#B89B64"/>
<stop offset="0.42891" stop-color="#C7AA73"/>
<stop offset="0.52494" stop-color="#CCB078"/>
<stop offset="0.6097" stop-color="#C6A972"/>
<stop offset="0.72857" stop-color="#B59761"/>
<stop offset="0.8669" stop-color="#9A7944"/>
<stop offset="1" stop-color="#7A5623"/>
</linearGradient>
<radialGradient id="paint6_radial_217_423" cx="0" cy="0" r="1" gradientUnits="userSpaceOnUse" gradientTransform="translate(20.2248 215.647) scale(2.12951)">
<stop offset="0.00122" stop-color="#CCB078"/>
<stop offset="0.01416" stop-color="#C7AC75"/>
<stop offset="0.14011" stop-color="#98845C"/>
<stop offset="0.27041" stop-color="#706247"/>
<stop offset="0.40339" stop-color="#4F4735"/>
<stop offset="0.53978" stop-color="#363127"/>
<stop offset="0.68093" stop-color="#24221E"/>
<stop offset="0.82998" stop-color="#191918"/>
<stop offset="1" stop-color="#161616"/>
</radialGradient>
<linearGradient id="paint7_linear_217_423" x1="38.7934" y1="377.086" x2="40.144" y2="377.086" gradientUnits="userSpaceOnUse">
<stop stop-color="#7A5623"/>
<stop offset="0.02141" stop-color="#7F5C29"/>
<stop offset="0.16858" stop-color="#A1804B"/>
<stop offset="0.30603" stop-color="#B89B64"/>
<stop offset="0.42891" stop-color="#C7AA73"/>
<stop offset="0.52494" stop-color="#CCB078"/>
<stop offset="0.6097" stop-color="#C6A972"/>
<stop offset="0.72857" stop-color="#B59761"/>
<stop offset="0.8669" stop-color="#9A7944"/>
<stop offset="1" stop-color="#7A5623"/>
</linearGradient>
<linearGradient id="paint8_linear_217_423" x1="32.4192" y1="319.976" x2="33.0517" y2="319.976" gradientUnits="userSpaceOnUse">
<stop stop-color="#7A5623"/>
<stop offset="0.02141" stop-color="#7F5C29"/>
<stop offset="0.16858" stop-color="#A1804B"/>
<stop offset="0.30603" stop-color="#B89B64"/>
<stop offset="0.42891" stop-color="#C7AA73"/>
<stop offset="0.52494" stop-color="#CCB078"/>
<stop offset="0.6097" stop-color="#C6A972"/>
<stop offset="0.72857" stop-color="#B59761"/>
<stop offset="0.8669" stop-color="#9A7944"/>
<stop offset="1" stop-color="#7A5623"/>
</linearGradient>
<radialGradient id="paint9_radial_217_423" cx="0" cy="0" r="1" gradientUnits="userSpaceOnUse" gradientTransform="translate(82.7662 609.363) scale(3.16676)">
<stop offset="0.00122" stop-color="#CCB078"/>
<stop offset="0.01416" stop-color="#C7AC75"/>
<stop offset="0.14011" stop-color="#98845C"/>
<stop offset="0.27041" stop-color="#706247"/>
<stop offset="0.40339" stop-color="#4F4735"/>
<stop offset="0.53978" stop-color="#363127"/>
<stop offset="0.68093" stop-color="#24221E"/>
<stop offset="0.82998" stop-color="#191918"/>
<stop offset="1" stop-color="#161616"/>
</radialGradient>
<radialGradient id="paint10_radial_217_423" cx="0" cy="0" r="1" gradientUnits="userSpaceOnUse" gradientTransform="translate(105.418 188.132) scale(71.5157 97.3518)">
<stop stop-color="#CCB078"/>
<stop offset="1" stop-color="#7A5623"/>
</radialGradient>
<linearGradient id="paint11_linear_217_423" x1="80.8648" y1="253.27" x2="80.8648" y2="155.959" gradientUnits="userSpaceOnUse">
<stop stop-color="#CCB078"/>
<stop offset="0.177" stop-color="#B0915B"/>
<stop offset="0.36933" stop-color="#987742"/>
<stop offset="0.56767" stop-color="#876531"/>
<stop offset="0.77384" stop-color="#7D5A26"/>
<stop offset="1" stop-color="#7A5623"/>
</linearGradient>
<radialGradient id="paint12_radial_217_423" cx="0" cy="0" r="1" gradientUnits="userSpaceOnUse" gradientTransform="translate(79.762 188.535) scale(55.3547)">
<stop stop-color="#CCBA96"/>
<stop offset="0.01294" stop-color="#C7B592"/>
<stop offset="0.13887" stop-color="#988B72"/>
<stop offset="0.26915" stop-color="#706755"/>
<stop offset="0.4021" stop-color="#4F4A3E"/>
<stop offset="0.53847" stop-color="#36332D"/>
<stop offset="0.6796" stop-color="#242320"/>
<stop offset="0.82862" stop-color="#191918"/>
<stop offset="0.99861" stop-color="#161616"/>
</radialGradient>
<linearGradient id="paint13_linear_217_423" x1="1563.89" y1="1717.86" x2="3199.81" y2="1717.86" gradientUnits="userSpaceOnUse">
<stop stop-color="#7A5623"/>
<stop offset="0.02141" stop-color="#7F5C29"/>
<stop offset="0.16858" stop-color="#A1804B"/>
<stop offset="0.30603" stop-color="#B89B64"/>
<stop offset="0.42891" stop-color="#C7AA73"/>
<stop offset="0.52494" stop-color="#CCB078"/>
<stop offset="0.6097" stop-color="#C6A972"/>
<stop offset="0.72857" stop-color="#B59761"/>
<stop offset="0.8669" stop-color="#9A7944"/>
<stop offset="1" stop-color="#7A5623"/>
</linearGradient>
<linearGradient id="paint14_linear_217_423" x1="351.317" y1="323.135" x2="363.104" y2="323.135" gradientUnits="userSpaceOnUse">
<stop stop-color="#7A5623"/>
<stop offset="0.02141" stop-color="#7F5C29"/>
<stop offset="0.16858" stop-color="#A1804B"/>
<stop offset="0.30603" stop-color="#B89B64"/>
<stop offset="0.42891" stop-color="#C7AA73"/>
<stop offset="0.52494" stop-color="#CCB078"/>
<stop offset="0.6097" stop-color="#C6A972"/>
<stop offset="0.72857" stop-color="#B59761"/>
<stop offset="0.8669" stop-color="#9A7944"/>
<stop offset="1" stop-color="#7A5623"/>
</linearGradient>
<linearGradient id="paint15_linear_217_423" x1="158.227" y1="215.354" x2="165.022" y2="215.354" gradientUnits="userSpaceOnUse">
<stop stop-color="#7A5623"/>
<stop offset="0.02141" stop-color="#7F5C29"/>
<stop offset="0.16858" stop-color="#A1804B"/>
<stop offset="0.30603" stop-color="#B89B64"/>
<stop offset="0.42891" stop-color="#C7AA73"/>
<stop offset="0.52494" stop-color="#CCB078"/>
<stop offset="0.6097" stop-color="#C6A972"/>
<stop offset="0.72857" stop-color="#B59761"/>
<stop offset="0.8669" stop-color="#9A7944"/>
<stop offset="1" stop-color="#7A5623"/>
</linearGradient>
<linearGradient id="paint16_linear_217_423" x1="241.342" y1="68.7067" x2="242.921" y2="68.7067" gradientUnits="userSpaceOnUse">
<stop stop-color="#7A5623"/>
<stop offset="0.02141" stop-color="#7F5C29"/>
<stop offset="0.16858" stop-color="#A1804B"/>
<stop offset="0.30603" stop-color="#B89B64"/>
<stop offset="0.42891" stop-color="#C7AA73"/>
<stop offset="0.52494" stop-color="#CCB078"/>
<stop offset="0.6097" stop-color="#C6A972"/>
<stop offset="0.72857" stop-color="#B59761"/>
<stop offset="0.8669" stop-color="#9A7944"/>
<stop offset="1" stop-color="#7A5623"/>
</linearGradient>
<linearGradient id="paint17_linear_217_423" x1="166.477" y1="126.273" x2="168.81" y2="126.273" gradientUnits="userSpaceOnUse">
<stop stop-color="#7A5623"/>
<stop offset="0.02141" stop-color="#7F5C29"/>
<stop offset="0.16858" stop-color="#A1804B"/>
<stop offset="0.30603" stop-color="#B89B64"/>
<stop offset="0.42891" stop-color="#C7AA73"/>
<stop offset="0.52494" stop-color="#CCB078"/>
<stop offset="0.6097" stop-color="#C6A972"/>
<stop offset="0.72857" stop-color="#B59761"/>
<stop offset="0.8669" stop-color="#9A7944"/>
<stop offset="1" stop-color="#7A5623"/>
</linearGradient>
<linearGradient id="paint18_linear_217_423" x1="115.505" y1="104.809" x2="116.569" y2="104.809" gradientUnits="userSpaceOnUse">
<stop stop-color="#7A5623"/>
<stop offset="0.02141" stop-color="#7F5C29"/>
<stop offset="0.16858" stop-color="#A1804B"/>
<stop offset="0.30603" stop-color="#B89B64"/>
<stop offset="0.42891" stop-color="#C7AA73"/>
<stop offset="0.52494" stop-color="#CCB078"/>
<stop offset="0.6097" stop-color="#C6A972"/>
<stop offset="0.72857" stop-color="#B59761"/>
<stop offset="0.8669" stop-color="#9A7944"/>
<stop offset="1" stop-color="#7A5623"/>
</linearGradient>
<linearGradient id="paint19_linear_217_423" x1="132.196" y1="124.056" x2="134.438" y2="124.056" gradientUnits="userSpaceOnUse">
<stop stop-color="#7A5623"/>
<stop offset="0.02141" stop-color="#7F5C29"/>
<stop offset="0.16858" stop-color="#A1804B"/>
<stop offset="0.30603" stop-color="#B89B64"/>
<stop offset="0.42891" stop-color="#C7AA73"/>
<stop offset="0.52494" stop-color="#CCB078"/>
<stop offset="0.6097" stop-color="#C6A972"/>
<stop offset="0.72857" stop-color="#B59761"/>
<stop offset="0.8669" stop-color="#9A7944"/>
<stop offset="1" stop-color="#7A5623"/>
</linearGradient>
<linearGradient id="paint20_linear_217_423" x1="102.415" y1="100.226" x2="103.102" y2="100.226" gradientUnits="userSpaceOnUse">
<stop stop-color="#7A5623"/>
<stop offset="0.02141" stop-color="#7F5C29"/>
<stop offset="0.16858" stop-color="#A1804B"/>
<stop offset="0.30603" stop-color="#B89B64"/>
<stop offset="0.42891" stop-color="#C7AA73"/>
<stop offset="0.52494" stop-color="#CCB078"/>
<stop offset="0.6097" stop-color="#C6A972"/>
<stop offset="0.72857" stop-color="#B59761"/>
<stop offset="0.8669" stop-color="#9A7944"/>
<stop offset="1" stop-color="#7A5623"/>
</linearGradient>
<linearGradient id="paint21_linear_217_423" x1="222.48" y1="231.881" x2="229.51" y2="231.881" gradientUnits="userSpaceOnUse">
<stop stop-color="#7A5623"/>
<stop offset="0.02141" stop-color="#7F5C29"/>
<stop offset="0.16858" stop-color="#A1804B"/>
<stop offset="0.30603" stop-color="#B89B64"/>
<stop offset="0.42891" stop-color="#C7AA73"/>
<stop offset="0.52494" stop-color="#CCB078"/>
<stop offset="0.6097" stop-color="#C6A972"/>
<stop offset="0.72857" stop-color="#B59761"/>
<stop offset="0.8669" stop-color="#9A7944"/>
<stop offset="1" stop-color="#7A5623"/>
</linearGradient>
<radialGradient id="paint22_radial_217_423" cx="0" cy="0" r="1" gradientUnits="userSpaceOnUse" gradientTransform="translate(109.002 127.355) scale(71.7349)">
<stop stop-color="#A2A0F6"/>
<stop offset="1" stop-color="#0D0091"/>
</radialGradient>
<linearGradient id="paint23_linear_217_423" x1="76.608" y1="175.677" x2="88.423" y2="91.6084" gradientUnits="userSpaceOnUse">
<stop stop-color="#7A5623"/>
<stop offset="0.05828" stop-color="#7B5929"/>
<stop offset="0.44262" stop-color="#826E4B"/>
<stop offset="0.74682" stop-color="#C5BCAC"/>
<stop offset="1" stop-color="white"/>
</linearGradient>
<radialGradient id="paint24_radial_217_423" cx="0" cy="0" r="1" gradientUnits="userSpaceOnUse" gradientTransform="translate(128.741 179.151) rotate(-21.8012) scale(41.9277 35.769)">
<stop stop-color="#CCBA96"/>
<stop offset="1" stop-color="#7A5623"/>
</radialGradient>
<radialGradient id="paint25_radial_217_423" cx="0" cy="0" r="1" gradientUnits="userSpaceOnUse" gradientTransform="translate(128.741 179.151) rotate(-21.8012) scale(41.9277 35.769)">
<stop stop-color="#CCBA96"/>
<stop offset="1" stop-color="#7A5623"/>
</radialGradient>
<radialGradient id="paint26_radial_217_423" cx="0" cy="0" r="1" gradientUnits="userSpaceOnUse" gradientTransform="translate(131.898 196.708) rotate(24.8049) scale(30.0303)">
<stop stop-color="#CCB078"/>
<stop offset="0.01296" stop-color="#C7AC75"/>
<stop offset="0.13906" stop-color="#98845C"/>
<stop offset="0.26952" stop-color="#706247"/>
<stop offset="0.40266" stop-color="#4F4735"/>
<stop offset="0.53922" stop-color="#363127"/>
<stop offset="0.68055" stop-color="#24221E"/>
<stop offset="0.82977" stop-color="#191918"/>
<stop offset="1" stop-color="#161616"/>
</radialGradient>
<linearGradient id="paint27_linear_217_423" x1="124.749" y1="200.529" x2="142.459" y2="200.529" gradientUnits="userSpaceOnUse">
<stop stop-color="#7A5623"/>
<stop offset="0.02141" stop-color="#7F5C29"/>
<stop offset="0.16858" stop-color="#A1804B"/>
<stop offset="0.30603" stop-color="#B89B64"/>
<stop offset="0.42891" stop-color="#C7AA73"/>
<stop offset="0.52494" stop-color="#CCB078"/>
<stop offset="0.6097" stop-color="#C6A972"/>
<stop offset="0.72857" stop-color="#B59761"/>
<stop offset="0.8669" stop-color="#9A7944"/>
<stop offset="1" stop-color="#7A5623"/>
</linearGradient>
<radialGradient id="paint28_radial_217_423" cx="0" cy="0" r="1" gradientUnits="userSpaceOnUse" gradientTransform="translate(37.2556 179.151) rotate(-21.8012) scale(41.9277 35.769)">
<stop stop-color="#CCBA96"/>
<stop offset="1" stop-color="#7A5623"/>
</radialGradient>
<radialGradient id="paint29_radial_217_423" cx="0" cy="0" r="1" gradientUnits="userSpaceOnUse" gradientTransform="translate(37.2556 179.151) rotate(-21.8012) scale(41.9277 35.769)">
<stop stop-color="#CCBA96"/>
<stop offset="1" stop-color="#7A5623"/>
</radialGradient>
<radialGradient id="paint30_radial_217_423" cx="0" cy="0" r="1" gradientUnits="userSpaceOnUse" gradientTransform="translate(30.772 204.88) rotate(-128.162) scale(31.7489 31.1268)">
<stop stop-color="#CCBA96"/>
<stop offset="0.01296" stop-color="#C7B592"/>
<stop offset="0.13906" stop-color="#988B72"/>
<stop offset="0.26952" stop-color="#706755"/>
<stop offset="0.40266" stop-color="#4F4A3E"/>
<stop offset="0.53922" stop-color="#36332D"/>
<stop offset="0.68055" stop-color="#242320"/>
<stop offset="0.82977" stop-color="#191918"/>
<stop offset="1" stop-color="#161616"/>
</radialGradient>
<linearGradient id="paint31_linear_217_423" x1="21.8318" y1="200.158" x2="38.5554" y2="200.158" gradientUnits="userSpaceOnUse">
<stop stop-color="#7A5623"/>
<stop offset="0.02141" stop-color="#7F5C29"/>
<stop offset="0.16858" stop-color="#A1804B"/>
<stop offset="0.30603" stop-color="#B89B64"/>
<stop offset="0.42891" stop-color="#C7AA73"/>
<stop offset="0.52494" stop-color="#CCB078"/>
<stop offset="0.6097" stop-color="#C6A972"/>
<stop offset="0.72857" stop-color="#B59761"/>
<stop offset="0.8669" stop-color="#9A7944"/>
<stop offset="1" stop-color="#7A5623"/>
</linearGradient>
<radialGradient id="paint32_radial_217_423" cx="0" cy="0" r="1" gradientUnits="userSpaceOnUse" gradientTransform="translate(130.462 220.537) rotate(-27.7939) scale(29.9355 30.5503)">
<stop stop-color="#CCBA96"/>
<stop offset="1" stop-color="#7A5623"/>
</radialGradient>
<linearGradient id="paint33_linear_217_423" x1="126.742" y1="244.946" x2="134.269" y2="219.321" gradientUnits="userSpaceOnUse">
<stop stop-color="#CCBA96"/>
<stop offset="0.09577" stop-color="#BCA67F"/>
<stop offset="0.26404" stop-color="#A48A5E"/>
<stop offset="0.43689" stop-color="#927344"/>
<stop offset="0.61402" stop-color="#846332"/>
<stop offset="0.7981" stop-color="#7D5927"/>
<stop offset="1" stop-color="#7A5623"/>
</linearGradient>
<radialGradient id="paint34_radial_217_423" cx="0" cy="0" r="1" gradientUnits="userSpaceOnUse" gradientTransform="translate(132.946 225.893) rotate(-136.361) scale(19.9782 20.1356)">
<stop stop-color="#CCBA96"/>
<stop offset="0.01296" stop-color="#C7B592"/>
<stop offset="0.13906" stop-color="#988B72"/>
<stop offset="0.26952" stop-color="#706755"/>
<stop offset="0.40266" stop-color="#4F4A3E"/>
<stop offset="0.53922" stop-color="#36332D"/>
<stop offset="0.68055" stop-color="#242320"/>
<stop offset="0.82977" stop-color="#191918"/>
<stop offset="1" stop-color="#161616"/>
</radialGradient>
<linearGradient id="paint35_linear_217_423" x1="126.358" y1="222.766" x2="138.788" y2="222.766" gradientUnits="userSpaceOnUse">
<stop stop-color="#7A5623"/>
<stop offset="0.02141" stop-color="#7F5C29"/>
<stop offset="0.16858" stop-color="#A1804B"/>
<stop offset="0.30603" stop-color="#B89B64"/>
<stop offset="0.42891" stop-color="#C7AA73"/>
<stop offset="0.52494" stop-color="#CCB078"/>
<stop offset="0.6097" stop-color="#C6A972"/>
<stop offset="0.72857" stop-color="#B59761"/>
<stop offset="0.8669" stop-color="#9A7944"/>
<stop offset="1" stop-color="#7A5623"/>
</linearGradient>
<radialGradient id="paint36_radial_217_423" cx="0" cy="0" r="1" gradientUnits="userSpaceOnUse" gradientTransform="translate(459.906 658.508) scale(4.60034)">
<stop stop-color="#CCB078"/>
<stop offset="0.01296" stop-color="#C7AC75"/>
<stop offset="0.13906" stop-color="#98845C"/>
<stop offset="0.26952" stop-color="#706247"/>
<stop offset="0.40266" stop-color="#4F4735"/>
<stop offset="0.53922" stop-color="#363127"/>
<stop offset="0.68055" stop-color="#24221E"/>
<stop offset="0.82977" stop-color="#191918"/>
<stop offset="1" stop-color="#161616"/>
</radialGradient>
<linearGradient id="paint37_linear_217_423" x1="262.619" y1="397.521" x2="263.969" y2="397.521" gradientUnits="userSpaceOnUse">
<stop stop-color="#7A5623"/>
<stop offset="0.02141" stop-color="#7F5C29"/>
<stop offset="0.16858" stop-color="#A1804B"/>
<stop offset="0.30603" stop-color="#B89B64"/>
<stop offset="0.42891" stop-color="#C7AA73"/>
<stop offset="0.52494" stop-color="#CCB078"/>
<stop offset="0.6097" stop-color="#C6A972"/>
<stop offset="0.72857" stop-color="#B59761"/>
<stop offset="0.8669" stop-color="#9A7944"/>
<stop offset="1" stop-color="#7A5623"/>
</linearGradient>
<linearGradient id="paint38_linear_217_423" x1="226.766" y1="344.179" x2="227.399" y2="344.179" gradientUnits="userSpaceOnUse">
<stop stop-color="#7A5623"/>
<stop offset="0.02141" stop-color="#7F5C29"/>
<stop offset="0.16858" stop-color="#A1804B"/>
<stop offset="0.30603" stop-color="#B89B64"/>
<stop offset="0.42891" stop-color="#C7AA73"/>
<stop offset="0.52494" stop-color="#CCB078"/>
<stop offset="0.6097" stop-color="#C6A972"/>
<stop offset="0.72857" stop-color="#B59761"/>
<stop offset="0.8669" stop-color="#9A7944"/>
<stop offset="1" stop-color="#7A5623"/>
</linearGradient>
<radialGradient id="paint39_radial_217_423" cx="0" cy="0" r="1" gradientUnits="userSpaceOnUse" gradientTransform="translate(378.299 573.39) scale(3.16687)">
<stop stop-color="#CCB078"/>
<stop offset="0.01296" stop-color="#C7AC75"/>
<stop offset="0.13906" stop-color="#98845C"/>
<stop offset="0.26952" stop-color="#706247"/>
<stop offset="0.40266" stop-color="#4F4735"/>
<stop offset="0.53922" stop-color="#363127"/>
<stop offset="0.68055" stop-color="#24221E"/>
<stop offset="0.82977" stop-color="#191918"/>
<stop offset="1" stop-color="#161616"/>
</radialGradient>
<radialGradient id="paint40_radial_217_423" cx="0" cy="0" r="1" gradientUnits="userSpaceOnUse" gradientTransform="translate(82.5154 139.363) scale(21.1287 20.2503)">
<stop stop-color="#CCBA96"/>
<stop offset="0.0975" stop-color="#A7997C"/>
<stop offset="0.23068" stop-color="#7B715D"/>
<stop offset="0.36556" stop-color="#575043"/>
<stop offset="0.50014" stop-color="#3A372F"/>
<stop offset="0.63444" stop-color="#262421"/>
<stop offset="0.76836" stop-color="#1A1A19"/>
<stop offset="0.90168" stop-color="#161616"/>
<stop offset="0.90776" stop-color="#161616"/>
<stop offset="1" stop-color="#161616"/>
</radialGradient>
<linearGradient id="paint41_linear_217_423" x1="62.9343" y1="140.032" x2="102.096" y2="140.032" gradientUnits="userSpaceOnUse">
<stop stop-color="#CCBA96"/>
<stop offset="0.11006" stop-color="#BCA985"/>
<stop offset="0.3181" stop-color="#A28F6C"/>
<stop offset="0.5326" stop-color="#907D59"/>
<stop offset="0.75547" stop-color="#86724F"/>
<stop offset="1" stop-color="#826E4B"/>
</linearGradient>
<radialGradient id="paint42_radial_217_423" cx="0" cy="0" r="1" gradientUnits="userSpaceOnUse" gradientTransform="translate(82.3689 140.859) scale(17.7563)">
<stop stop-color="#CCBA96"/>
<stop offset="0.18739" stop-color="#C7B591"/>
<stop offset="0.41178" stop-color="#B9A683"/>
<stop offset="0.65515" stop-color="#A18E6B"/>
<stop offset="0.90168" stop-color="#826E4B"/>
<stop offset="0.91094" stop-color="#806943"/>
<stop offset="0.93819" stop-color="#7D5F31"/>
<stop offset="0.96705" stop-color="#7B5826"/>
<stop offset="1" stop-color="#7A5623"/>
</radialGradient>
<radialGradient id="paint43_radial_217_423" cx="0" cy="0" r="1" gradientUnits="userSpaceOnUse" gradientTransform="translate(82.3688 140.859) scale(8.19939)">
<stop stop-color="#C7AB74"/>
<stop offset="0.23416" stop-color="#BDA26E"/>
<stop offset="0.63802" stop-color="#A0895D"/>
<stop offset="1" stop-color="#826E4B"/>
</radialGradient>
<radialGradient id="paint44_radial_217_423" cx="0" cy="0" r="1" gradientUnits="userSpaceOnUse" gradientTransform="translate(82.3688 140.859) scale(7.13044)">
<stop stop-color="#826E4B"/>
<stop offset="0.48455" stop-color="#84704C"/>
<stop offset="0.65908" stop-color="#8B7650"/>
<stop offset="0.78346" stop-color="#968057"/>
<stop offset="0.88402" stop-color="#A78F61"/>
<stop offset="0.9692" stop-color="#BDA26E"/>
<stop offset="1" stop-color="#C7AB74"/>
</radialGradient>
</defs>
</svg>
