<svg width="18" height="14" viewBox="0 0 18 14" fill="none" xmlns="http://www.w3.org/2000/svg">
<path d="M17.3333 6.99973V6.99973C17.3308 7.105 17.3111 7.20915 17.275 7.30807C17.2557 7.34327 17.2334 7.37673 17.2083 7.40807C17.1865 7.45424 17.1615 7.49879 17.1333 7.5414L12.1333 13.3747C11.9398 13.601 11.6403 13.7068 11.3476 13.6524C11.0548 13.5979 10.8134 13.3914 10.7142 13.1107C10.615 12.83 10.6731 12.5177 10.8667 12.2914L14.6917 7.83307H1.49999C1.03975 7.83307 0.666656 7.45997 0.666656 6.99973C0.666656 6.5395 1.03975 6.1664 1.49999 6.1664H14.6917L10.8667 1.70807C10.6731 1.4818 10.615 1.16948 10.7142 0.888752C10.8134 0.608026 11.0548 0.401544 11.3476 0.347086C11.6403 0.292627 11.9398 0.398467 12.1333 0.624735L17.1333 6.45807C17.1615 6.50068 17.1865 6.54523 17.2083 6.5914C17.2334 6.62274 17.2557 6.6562 17.275 6.6914C17.3111 6.79032 17.3308 6.89447 17.3333 6.99973Z" fill="#CCBA96"/>
</svg>
