<svg width="16" height="15" viewBox="0 0 16 15" fill="none" xmlns="http://www.w3.org/2000/svg">
<path d="M9.47372 11.8421V13.4211L11.0527 14.2105V15H4.73687L4.73372 14.2137L6.31582 13.4211V11.8421H0.78319C0.679521 11.8415 0.576993 11.8204 0.481483 11.7801C0.385973 11.7398 0.299359 11.681 0.226604 11.6072C0.15385 11.5333 0.0963861 11.4458 0.0575064 11.3497C0.0186266 11.2536 -0.000904589 11.1508 3.21678e-05 11.0471V0.795C3.21678e-05 0.356053 0.359243 0 0.78319 0H15.0063C15.439 0 15.7895 0.354474 15.7895 0.795V11.0471C15.7895 11.4861 15.4303 11.8421 15.0063 11.8421H9.47372ZM1.57898 1.57895V8.68421H14.2106V1.57895H1.57898Z" fill="#CCBA96"/>
</svg>
