<svg width="16" height="15" viewBox="0 0 16 15" fill="none" xmlns="http://www.w3.org/2000/svg">
<path d="M8.0835 0C10.1212 0 10.3755 0.00749996 11.175 0.045C11.9737 0.0825 12.5175 0.20775 12.996 0.39375C13.491 0.58425 13.908 0.84225 14.325 1.2585C14.7064 1.63342 15.0015 2.08694 15.1897 2.5875C15.375 3.06525 15.501 3.60975 15.5385 4.4085C15.5737 5.208 15.5835 5.46225 15.5835 7.5C15.5835 9.53775 15.576 9.792 15.5385 10.5915C15.501 11.3903 15.375 11.934 15.1897 12.4125C15.002 12.9133 14.7068 13.367 14.325 13.7415C13.95 14.1227 13.4965 14.4178 12.996 14.6063C12.5182 14.7915 11.9737 14.9175 11.175 14.955C10.3755 14.9903 10.1212 15 8.0835 15C6.04575 15 5.7915 14.9925 4.992 14.955C4.19325 14.9175 3.6495 14.7915 3.171 14.6063C2.67024 14.4184 2.21664 14.1232 1.842 13.7415C1.46055 13.3666 1.16544 12.9131 0.977246 12.4125C0.791246 11.9347 0.665996 11.3903 0.628496 10.5915C0.593246 9.792 0.583496 9.53775 0.583496 7.5C0.583496 5.46225 0.590996 5.208 0.628496 4.4085C0.665996 3.609 0.791246 3.066 0.977246 2.5875C1.16492 2.08663 1.4601 1.63299 1.842 1.2585C2.21675 0.876923 2.67032 0.581797 3.171 0.39375C3.6495 0.20775 4.1925 0.0825 4.992 0.045C5.7915 0.00974996 6.04575 0 8.0835 0ZM8.0835 3.75C7.08893 3.75 6.13511 4.14509 5.43185 4.84835C4.72858 5.55161 4.3335 6.50544 4.3335 7.5C4.3335 8.49456 4.72858 9.44839 5.43185 10.1517C6.13511 10.8549 7.08893 11.25 8.0835 11.25C9.07806 11.25 10.0319 10.8549 10.7351 10.1517C11.4384 9.44839 11.8335 8.49456 11.8335 7.5C11.8335 6.50544 11.4384 5.55161 10.7351 4.84835C10.0319 4.14509 9.07806 3.75 8.0835 3.75ZM12.9585 3.5625C12.9585 3.31386 12.8597 3.0754 12.6839 2.89959C12.5081 2.72377 12.2696 2.625 12.021 2.625C11.7724 2.625 11.5339 2.72377 11.3581 2.89959C11.1823 3.0754 11.0835 3.31386 11.0835 3.5625C11.0835 3.81114 11.1823 4.0496 11.3581 4.22541C11.5339 4.40123 11.7724 4.5 12.021 4.5C12.2696 4.5 12.5081 4.40123 12.6839 4.22541C12.8597 4.0496 12.9585 3.81114 12.9585 3.5625ZM8.0835 5.25C8.68023 5.25 9.25253 5.48705 9.67449 5.90901C10.0964 6.33097 10.3335 6.90326 10.3335 7.5C10.3335 8.09674 10.0964 8.66903 9.67449 9.09099C9.25253 9.51295 8.68023 9.75 8.0835 9.75C7.48676 9.75 6.91446 9.51295 6.49251 9.09099C6.07055 8.66903 5.8335 8.09674 5.8335 7.5C5.8335 6.90326 6.07055 6.33097 6.49251 5.90901C6.91446 5.48705 7.48676 5.25 8.0835 5.25Z" fill="#B99C63"/>
</svg>
