<svg width="11" height="15" viewBox="0 0 11 15" fill="none" xmlns="http://www.w3.org/2000/svg">
<g filter="url(#filter0_i_112_4562)">
<path fill-rule="evenodd" clip-rule="evenodd" d="M0.75 0H9.75C9.94891 0 10.1397 0.0790176 10.2803 0.21967C10.421 0.360322 10.5 0.551088 10.5 0.75V14.25C10.5 14.4489 10.421 14.6397 10.2803 14.7803C10.1397 14.921 9.94891 15 9.75 15H0.75C0.551088 15 0.360322 14.921 0.21967 14.7803C0.0790178 14.6397 0 14.4489 0 14.25V0.75C0 0.551088 0.0790178 0.360322 0.21967 0.21967C0.360322 0.0790176 0.551088 0 0.75 0ZM9 1.5V9V10.5V12H1.5V10.5V9V1.5H9ZM6 13.5C6 13.9142 5.66421 14.25 5.25 14.25C4.83579 14.25 4.5 13.9142 4.5 13.5C4.5 13.0858 4.83579 12.75 5.25 12.75C5.66421 12.75 6 13.0858 6 13.5Z" fill="#3E3E3E"/>
</g>
<defs>
<filter id="filter0_i_112_4562" x="0" y="0" width="10.5" height="15" filterUnits="userSpaceOnUse" color-interpolation-filters="sRGB">
<feFlood flood-opacity="0" result="BackgroundImageFix"/>
<feBlend mode="normal" in="SourceGraphic" in2="BackgroundImageFix" result="shape"/>
<feColorMatrix in="SourceAlpha" type="matrix" values="0 0 0 0 0 0 0 0 0 0 0 0 0 0 0 0 0 0 127 0" result="hardAlpha"/>
<feOffset/>
<feGaussianBlur stdDeviation="2"/>
<feComposite in2="hardAlpha" operator="arithmetic" k2="-1" k3="1"/>
<feColorMatrix type="matrix" values="0 0 0 0 0 0 0 0 0 0 0 0 0 0 0 0 0 0 0.5 0"/>
<feBlend mode="normal" in2="shape" result="effect1_innerShadow_112_4562"/>
</filter>
</defs>
</svg>
