<svg width="16" height="18" viewBox="0 0 16 18" fill="none" xmlns="http://www.w3.org/2000/svg">
<path d="M2.84211 4.73684C2.84211 2.12076 4.96286 0 7.57895 0C10.195 0 12.3158 2.12076 12.3158 4.73684C12.3158 7.35293 10.195 9.47368 7.57895 9.47368C4.96286 9.47368 2.84211 7.35293 2.84211 4.73684ZM7.57895 7.57895C9.1486 7.57895 10.4211 6.30649 10.4211 4.73684C10.4211 3.16719 9.1486 1.89474 7.57895 1.89474C6.0093 1.89474 4.73684 3.16719 4.73684 4.73684C4.73684 6.30649 6.0093 7.57895 7.57895 7.57895Z" fill="#CCBA96"/>
<path d="M2.21982 12.6409C0.798494 14.0622 0 15.9899 0 18H1.89474C1.89474 16.4925 2.49361 15.0467 3.5596 13.9807C4.6256 12.9147 6.0714 12.3158 7.57895 12.3158C9.08649 12.3158 10.5323 12.9147 11.5983 13.9807C12.6643 15.0467 13.2632 16.4925 13.2632 18H15.1579C15.1579 15.9899 14.3594 14.0622 12.9381 12.6409C11.5167 11.2195 9.58901 10.4211 7.57895 10.4211C5.56889 10.4211 3.64115 11.2195 2.21982 12.6409Z" fill="#CCBA96"/>
</svg>
