<svg width="21" height="20" viewBox="0 0 21 20" fill="none" xmlns="http://www.w3.org/2000/svg">
<path d="M8.28294 11.7183C6.98812 10.5007 6.13138 8.88981 5.84567 7.13554C5.83226 7.0312 5.84305 6.92517 5.87719 6.82567C5.91134 6.72617 5.96792 6.63586 6.04257 6.56174L7.58741 5.01758C7.69777 4.9073 7.76747 4.76286 7.78513 4.60784C7.80279 4.45283 7.76737 4.29641 7.68465 4.16413L5.22498 0.34476C5.13405 0.199194 4.99209 0.092769 4.82687 0.0462836C4.66165 -0.00020176 4.48503 0.0165935 4.33153 0.0933871L0.382867 1.95306C0.257272 2.01491 0.153612 2.11371 0.0858087 2.23619C0.0180056 2.35867 -0.0106927 2.49897 0.00356855 2.63824C0.210467 4.60378 1.06737 9.43555 5.8157 14.1842C10.564 18.9329 15.3951 19.7895 17.3617 19.9964C17.501 20.0106 17.6413 19.9819 17.7637 19.9141C17.8862 19.8463 17.985 19.7426 18.0469 19.617L19.9065 15.6684C19.9831 15.5152 19.9998 15.339 19.9536 15.1741C19.9074 15.0092 19.8015 14.8674 19.6565 14.7763L15.8372 12.3173C15.705 12.2345 15.5486 12.199 15.3936 12.2165C15.2386 12.2341 15.0941 12.3036 14.9837 12.4139L13.4396 13.9587C13.3654 14.0334 13.2751 14.09 13.1756 14.1241C13.0761 14.1582 12.9701 14.169 12.8658 14.1556C11.1115 13.8699 9.50055 13.0132 8.28294 11.7183Z" fill="#CCBA96"/>
<path d="M15.8634 10.6897C15.6805 10.6897 15.5051 10.617 15.3758 10.4877C15.2465 10.3584 15.1738 10.183 15.1738 10C15.1722 8.62869 14.6268 7.31395 13.6571 6.34426C12.6874 5.37457 11.3727 4.82911 10.0013 4.82757C9.8184 4.82757 9.64298 4.7549 9.51364 4.62557C9.38431 4.49623 9.31165 4.32081 9.31165 4.1379C9.31165 3.95499 9.38431 3.77958 9.51364 3.65024C9.64298 3.5209 9.8184 3.44824 10.0013 3.44824C11.7384 3.45016 13.4037 4.14105 14.632 5.36933C15.8603 6.59762 16.5512 8.26298 16.5531 10C16.5531 10.0906 16.5353 10.1803 16.5006 10.264C16.4659 10.3476 16.4151 10.4237 16.3511 10.4877C16.2871 10.5517 16.211 10.6025 16.1274 10.6372C16.0437 10.6719 15.954 10.6897 15.8634 10.6897Z" fill="#CCBA96"/>
<path d="M19.3118 10.6898C19.1289 10.6898 18.9534 10.6171 18.8241 10.4878C18.6948 10.3584 18.6221 10.183 18.6221 10.0001C18.6196 7.71452 17.7105 5.52327 16.0943 3.90711C14.4782 2.29095 12.2869 1.38187 10.0013 1.37932C9.8184 1.37932 9.64298 1.30666 9.51364 1.17733C9.38431 1.04799 9.31165 0.872571 9.31165 0.689662C9.31165 0.506752 9.38431 0.331334 9.51364 0.201997C9.64298 0.0726606 9.8184 2.72557e-09 10.0013 0C12.6526 0.00292025 15.1945 1.05744 17.0692 2.93219C18.944 4.80694 19.9985 7.34881 20.0014 10.0001C20.0014 10.183 19.9288 10.3584 19.7994 10.4878C19.6701 10.6171 19.4947 10.6898 19.3118 10.6898V10.6898Z" fill="#CCBA96"/>
</svg>
