<svg width="16" height="26" viewBox="0 0 16 26" fill="none" xmlns="http://www.w3.org/2000/svg">
<path d="M8 25.6C3.6 25.6 0 22 0 17.6V8C0 3.6 3.6 0 8 0C12.4 0 16 3.6 16 8V17.6C16 22 12.4 25.6 8 25.6ZM8 1.6C4.48 1.6 1.6 4.48 1.6 8V17.6C1.6 21.12 4.48 24 8 24C11.52 24 14.4 21.12 14.4 17.6V8C14.4 4.44 11.52 1.6 8 1.6Z" fill="white"/>
<path d="M8.1999 10.88C7.7599 10.88 7.3999 10.52 7.3999 10.08V6.08003C7.3999 5.64003 7.7599 5.28003 8.1999 5.28003C8.6399 5.28003 8.9999 5.64003 8.9999 6.08003V10.08C8.9999 10.52 8.6399 10.88 8.1999 10.88Z" fill="white"/>
</svg>
