<svg width="20" height="18" viewBox="0 0 20 18" fill="none" xmlns="http://www.w3.org/2000/svg">
<path d="M0.353256 8.35108L4.96166 10.0711L6.74539 15.8076C6.77169 15.8924 6.81844 15.9695 6.88153 16.0321C6.94461 16.0947 7.0221 16.1408 7.10719 16.1665C7.19228 16.1921 7.28235 16.1964 7.3695 16.179C7.45665 16.1617 7.53821 16.1232 7.60699 16.067L10.1758 13.9728C10.3068 13.8661 10.4695 13.8056 10.6385 13.8009C10.8074 13.7962 10.9732 13.8475 11.11 13.9467L15.7432 17.3106C15.8166 17.3639 15.9021 17.398 15.992 17.4098C16.082 17.4215 16.1734 17.4106 16.258 17.3779C16.3427 17.3453 16.4177 17.292 16.4765 17.2228C16.5352 17.1537 16.5756 17.0709 16.5941 16.9822L19.9882 0.656062C20.008 0.560482 20.0017 0.461326 19.97 0.369019C19.9383 0.276712 19.8822 0.194664 19.8078 0.131501C19.7334 0.0683392 19.6433 0.0263961 19.5471 0.0100823C19.4508 -0.00623151 19.352 0.00368659 19.2609 0.0387938L0.347856 7.33487C0.244994 7.37456 0.156635 7.4446 0.0945076 7.53568C0.03238 7.62676 -0.00057819 7.73458 7.67732e-06 7.84484C0.000593545 7.95509 0.0346958 8.06256 0.0977878 8.15297C0.16088 8.24339 0.249978 8.31248 0.353256 8.35108ZM6.45793 9.15548L15.4645 3.60833C15.4976 3.58784 15.5372 3.58041 15.5755 3.58749C15.6139 3.59457 15.6482 3.61566 15.6718 3.64666C15.6954 3.67765 15.7067 3.71632 15.7034 3.75515C15.7001 3.79399 15.6824 3.8302 15.6539 3.85673L8.22087 10.7661C7.95982 11.0089 7.79106 11.3347 7.74333 11.688L7.49013 13.5644C7.48305 13.6174 7.45791 13.6664 7.41895 13.7031C7.37999 13.7398 7.32959 13.7619 7.27623 13.7658C7.22286 13.7696 7.1698 13.755 7.12596 13.7243C7.08212 13.6936 7.05019 13.6488 7.03553 13.5973L6.06173 10.1757C6.00763 9.98568 6.01706 9.78321 6.08857 9.59907C6.16009 9.41492 6.28978 9.25916 6.45793 9.15548Z" fill="#CCBA96"/>
</svg>
