<svg width="19" height="20" viewBox="0 0 19 20" fill="none" xmlns="http://www.w3.org/2000/svg">
<path d="M18.13 11.5783C18.7261 6.56023 17.8436 3.39218 16.2517 1.95928L16.2525 1.95845C13.6831 -0.48856 5.00574 -0.850748 1.93178 2.06835C0.551345 3.49626 0.0651085 5.59191 0.0118205 8.18629C-0.0414675 10.7815 -0.104744 15.6431 4.42542 16.9619H4.4296L4.42544 18.976C4.42544 18.976 4.39464 19.7919 4.91584 19.9559C5.51198 20.1491 5.78174 19.7703 7.63594 17.5555C9.5643 17.7393 11.5099 17.5914 13.3884 17.1184C14.0145 16.9086 17.5572 16.4398 18.13 11.5783L18.13 11.5783ZM7.94149 16.1384C7.94149 16.1384 5.97906 18.5855 5.36876 19.2207C5.16894 19.4272 4.94996 19.4081 4.9533 18.9984C4.9533 18.7295 4.96828 15.6547 4.96828 15.6547C1.1275 14.554 1.35397 10.4143 1.3956 8.24873C1.43723 6.08233 1.83355 4.30804 3.00252 3.11326C5.69932 0.58466 13.3068 1.15 15.2451 2.97172C17.6146 5.07237 16.7712 11.0071 16.7762 11.2095C16.2891 15.2675 13.4183 15.5248 12.8905 15.7005C11.2746 16.109 9.60395 16.2569 7.9415 16.1384H7.94149Z" fill="#CCBA96"/>
<path d="M9.02717 3.58887C8.96239 3.59188 8.90127 3.61973 8.8565 3.66663C8.81172 3.71353 8.78674 3.77588 8.78674 3.84073C8.78674 3.90557 8.81172 3.96792 8.8565 4.01482C8.90127 4.06173 8.96239 4.08958 9.02717 4.09259C11.5141 4.11174 13.5623 5.84521 13.5848 9.0249C13.584 9.05756 13.5898 9.09004 13.6018 9.12042C13.6139 9.15079 13.6319 9.17844 13.6548 9.20172C13.6777 9.225 13.7051 9.24343 13.7353 9.25592C13.7654 9.2684 13.7978 9.2747 13.8305 9.27442C13.8632 9.27414 13.8954 9.26729 13.9254 9.25429C13.9554 9.24129 13.9824 9.22239 14.0049 9.19873C14.0275 9.17506 14.045 9.14711 14.0565 9.11653C14.068 9.08596 14.0732 9.05338 14.0719 9.02074H14.071C14.0444 5.59459 11.808 3.60802 9.02717 3.58887Z" fill="#CCBA96"/>
<path d="M12.2985 8.49761C12.2968 8.53011 12.3017 8.56261 12.3129 8.59319C12.324 8.62377 12.3411 8.65181 12.3633 8.67566C12.3854 8.6995 12.4121 8.71867 12.4418 8.73204C12.4715 8.7454 12.5035 8.75269 12.536 8.75347C12.5686 8.75424 12.6009 8.7485 12.6312 8.73657C12.6615 8.72464 12.689 8.70677 12.7123 8.68401C12.7356 8.66125 12.754 8.63406 12.7666 8.60405C12.7792 8.57404 12.7856 8.54181 12.7855 8.50927C12.8263 6.6201 11.6615 5.06397 9.47264 4.89995C9.40771 4.89865 9.34476 4.92239 9.29687 4.96626C9.24898 5.01012 9.21981 5.07074 9.21542 5.13554C9.21103 5.20033 9.23175 5.26433 9.27329 5.31426C9.31483 5.36418 9.37399 5.3962 9.4385 5.40367C11.3368 5.54771 12.3368 6.84324 12.2985 8.49761H12.2985Z" fill="#CCBA96"/>
<path d="M11.774 10.6466C11.6177 10.545 11.4298 10.5036 11.2453 10.5301C11.0607 10.5566 10.8921 10.6492 10.7707 10.7907L10.4085 11.2594C10.342 11.3316 10.2598 11.3877 10.1684 11.4235C10.0769 11.4593 9.97855 11.4738 9.88067 11.4659C7.37122 10.8023 6.70014 8.17632 6.70014 8.17632C6.69224 8.07634 6.70592 7.97583 6.74026 7.88159C6.77459 7.78736 6.82877 7.7016 6.89914 7.63013L7.35205 7.25546C7.49036 7.12433 7.57958 6.94979 7.60488 6.76089C7.63018 6.57199 7.59002 6.38012 7.4911 6.21721C7.13893 5.57973 6.7233 4.97944 6.25053 4.42546C6.14748 4.29083 5.99724 4.20026 5.83008 4.17198C5.66291 4.14371 5.49124 4.17984 5.34966 4.27309H5.34218C4.62198 4.69439 3.83351 5.48286 4.08578 6.29465C4.51623 7.15056 5.3072 9.87898 7.82831 11.9405C8.99173 12.8705 10.2925 13.6143 11.6841 14.1452L11.6916 14.1569C12.4759 14.4183 13.2385 13.599 13.6457 12.8572V12.8514C13.7361 12.7062 13.7714 12.5333 13.7451 12.3643C13.7188 12.1953 13.6327 12.0414 13.5025 11.9305C12.9751 11.4405 12.3955 11.0099 11.774 10.6466L11.774 10.6466Z" fill="#CCBA96"/>
<path d="M9.81561 6.75814C10.6157 6.80476 11.0037 7.22273 11.0454 8.08114C11.0459 8.11384 11.0529 8.14611 11.0661 8.17603C11.0794 8.20595 11.0984 8.23291 11.1223 8.2553C11.1461 8.27769 11.1742 8.29506 11.2049 8.30637C11.2356 8.31768 11.2683 8.3227 11.3009 8.32114C11.3336 8.31957 11.3656 8.31146 11.3951 8.29727C11.4246 8.28308 11.4509 8.26311 11.4725 8.23854C11.4941 8.21398 11.5105 8.18532 11.5208 8.15427C11.5311 8.12323 11.5351 8.09043 11.5324 8.05783C11.4791 6.93715 10.8947 6.3127 9.84226 6.25441C9.7771 6.25363 9.71416 6.27807 9.66661 6.32263C9.61906 6.36719 9.59059 6.42841 9.58714 6.49349C9.5837 6.55856 9.60556 6.62244 9.64814 6.67177C9.69073 6.7211 9.75074 6.75204 9.81562 6.75814H9.81561Z" fill="#CCBA96"/>
</svg>
