<svg width="14" height="15" viewBox="0 0 14 15" fill="none" xmlns="http://www.w3.org/2000/svg">
<path d="M12.4593 1.8475C12.1221 1.53925 10.6676 0.626548 7.63087 0.612099C7.63087 0.612099 4.03545 0.376097 2.28952 1.95586C1.31902 2.91673 0.991506 4.34237 0.955383 6.08349C0.91926 7.8246 0.73383 11.1503 3.91745 12.0341C3.91745 12.0341 3.90541 14.5025 3.903 14.7192C3.903 14.8709 3.92708 14.9745 4.01378 14.9962C4.07639 15.0106 4.17031 14.9793 4.24978 14.8998C4.7579 14.3893 6.38824 12.4218 6.38824 12.4218C8.57487 12.5639 10.316 12.1328 10.5014 12.0726C10.9421 11.9306 13.3286 11.7259 13.7332 8.46277C14.1498 5.10095 13.5791 2.80595 12.4593 1.8475ZM11.1324 9.78005C11.1324 9.78246 11.1324 9.78486 11.1324 9.78486C10.9662 10.0714 10.7567 10.3315 10.5086 10.5531C10.5062 10.5555 10.5062 10.5555 10.5038 10.5579C10.2895 10.7385 10.0776 10.8396 9.87048 10.8637C9.83917 10.8685 9.80787 10.871 9.77897 10.8685C9.68746 10.8685 9.59594 10.8565 9.50925 10.8276L9.50203 10.818C9.18174 10.7289 8.64953 10.5025 7.76091 10.0136C7.24797 9.73429 6.7591 9.4116 6.29914 9.04796C6.06796 8.86735 5.84881 8.67229 5.64171 8.46518L5.62003 8.44351L5.59836 8.42183L5.57669 8.40016C5.56946 8.39294 5.56224 8.38571 5.55501 8.37849C5.34791 8.17138 5.15285 7.94983 4.97223 7.72105C4.6086 7.26109 4.2859 6.77223 4.00655 6.25929C3.51769 5.37067 3.29132 4.83846 3.20222 4.51817L3.19259 4.51095C3.16369 4.42425 3.15165 4.33274 3.15165 4.24123C3.14924 4.20992 3.15165 4.17862 3.15646 4.14972C3.18295 3.94261 3.2841 3.73069 3.4623 3.51637C3.46471 3.51396 3.46471 3.51396 3.46712 3.51155C3.68867 3.26351 3.94635 3.054 4.23533 2.88783C4.23774 2.88783 4.24014 2.88542 4.24014 2.88542C4.52913 2.73612 4.80366 2.78669 4.98909 3.00583C4.9915 3.00824 5.37681 3.47061 5.54297 3.69698C5.71395 3.9378 5.87289 4.18584 6.01738 4.44111C6.20763 4.78307 6.08963 5.13226 5.90179 5.27675L5.52611 5.57536C5.33587 5.72949 5.35995 6.01365 5.35995 6.01365C5.35995 6.01365 5.91865 8.12563 8.00414 8.65784C8.00414 8.65784 8.29071 8.68192 8.44243 8.49167L8.74104 8.11359C8.88553 7.92575 9.23472 7.80775 9.57668 7.99799C9.83195 8.14489 10.08 8.30142 10.3208 8.47241C10.5472 8.63857 11.012 9.02629 11.012 9.02629C11.2335 9.21653 11.2841 9.49107 11.1324 9.78005ZM9.40811 4.56874C8.98668 4.10878 8.4063 3.85592 7.6405 3.80053C7.52972 3.79331 7.44544 3.69457 7.45266 3.5838C7.45989 3.47302 7.55862 3.38873 7.6694 3.39596C8.53394 3.45857 9.22027 3.762 9.70913 4.29421C10.198 4.82883 10.4388 5.50312 10.422 6.29541C10.4195 6.40619 10.328 6.49288 10.2197 6.49288C10.2173 6.49288 10.2173 6.49288 10.2148 6.49288C10.1017 6.49047 10.015 6.39655 10.0174 6.28578C10.0294 5.59222 9.82954 5.02871 9.40811 4.56874ZM9.3768 5.92937C9.38162 6.04014 9.29492 6.13647 9.18415 6.14128C9.18174 6.14128 9.17692 6.14128 9.17451 6.14128C9.06614 6.14128 8.97704 6.057 8.97223 5.94863C8.93851 5.25989 8.61341 4.92034 7.95116 4.88662C7.84038 4.88181 7.75368 4.78548 7.7585 4.67229C7.76332 4.56152 7.85964 4.47482 7.97283 4.47964C8.847 4.5278 9.33345 5.02871 9.3768 5.92937ZM11.2841 6.9095C11.1709 6.9095 11.0794 6.82039 11.0794 6.70721C11.0698 5.48144 10.7037 4.50854 9.98607 3.81016C9.26843 3.11179 8.36296 2.75297 7.29372 2.74575C7.18054 2.74575 7.09143 2.65424 7.09143 2.54105C7.09143 2.43028 7.18295 2.33877 7.29372 2.33877C7.29372 2.33877 7.29372 2.33877 7.29613 2.33877C8.47373 2.34599 9.47554 2.74334 10.2702 3.51877C11.0673 4.29421 11.4743 5.36585 11.4864 6.7048C11.4864 6.81798 11.3973 6.9095 11.2841 6.9095Z" fill="#B99C63"/>
</svg>
