<svg width="81" height="14" viewBox="0 0 81 14" fill="none" xmlns="http://www.w3.org/2000/svg">
<path d="M72.9027 3.11306C73.4678 1.70435 73.7503 1 74.2362 1C74.722 1 75.0045 1.70436 75.5696 3.11307L75.5959 3.17866C75.9152 3.97451 76.0748 4.37244 76.4001 4.61431C76.7254 4.85617 77.1524 4.89441 78.0065 4.9709L78.1609 4.98473C79.5587 5.10992 80.2576 5.17251 80.4072 5.61716C80.5567 6.06182 80.0377 6.53403 78.9996 7.47845L78.6532 7.79365C78.1277 8.27174 77.8649 8.51078 77.7425 8.82408C77.7196 8.88252 77.7006 8.9424 77.6856 9.00332C77.6051 9.32993 77.6821 9.67671 77.8359 10.3703L77.8838 10.5861C78.1666 11.8608 78.308 12.4981 78.0611 12.773C77.9689 12.8757 77.849 12.9496 77.7158 12.986C77.3593 13.0833 76.8533 12.6709 75.8411 11.8461C75.1765 11.3046 74.8442 11.0338 74.4627 10.9729C74.3126 10.9489 74.1597 10.9489 74.0096 10.9729C73.6281 11.0338 73.2958 11.3046 72.6312 11.8461C71.619 12.6709 71.113 13.0833 70.7565 12.986C70.6233 12.9496 70.5034 12.8757 70.4112 12.773C70.1643 12.4981 70.3057 11.8608 70.5885 10.5861L70.6364 10.3703C70.7903 9.67671 70.8672 9.32993 70.7867 9.00332C70.7717 8.9424 70.7527 8.88252 70.7299 8.82408C70.6074 8.51078 70.3446 8.27174 69.8192 7.79365L69.4727 7.47845C68.4346 6.53403 67.9156 6.06182 68.0652 5.61716C68.2147 5.17251 68.9136 5.10992 70.3114 4.98473L70.4658 4.9709C71.3199 4.89441 71.7469 4.85617 72.0722 4.61431C72.3975 4.37244 72.5572 3.97451 72.8764 3.17866L72.9027 3.11306Z" stroke="#B99C63"/>
<path d="M5.84534 3.06507C6.36863 1.76051 6.63027 1.10823 7.05536 1.01783C7.16713 0.994057 7.28265 0.994057 7.39443 1.01783C7.81951 1.10823 8.08116 1.76051 8.60445 3.06507C8.90204 3.80695 9.05083 4.17789 9.32924 4.43019C9.40734 4.50096 9.49211 4.56398 9.58237 4.61838C9.90416 4.81234 10.3059 4.84831 11.1093 4.92026C12.4693 5.04207 13.1494 5.10297 13.357 5.4907C13.4 5.571 13.4293 5.65795 13.4435 5.74792C13.5124 6.18234 13.0125 6.63716 12.0126 7.5468L11.735 7.7994C11.2675 8.22467 11.0338 8.43731 10.8986 8.70268C10.8175 8.86186 10.7632 9.03329 10.7377 9.21012C10.6952 9.50489 10.7636 9.81336 10.9005 10.4303L10.9494 10.6507C11.1949 11.7571 11.3176 12.3103 11.1644 12.5822C11.0268 12.8265 10.7733 12.9829 10.4933 12.9962C10.1815 13.0111 9.74224 12.6532 8.86369 11.9373C8.28486 11.4656 7.99545 11.2298 7.67417 11.1377C7.38057 11.0535 7.06922 11.0535 6.77561 11.1377C6.45433 11.2298 6.16492 11.4656 5.5861 11.9373C4.70755 12.6532 4.26827 13.0111 3.95652 12.9962C3.67648 12.9829 3.42298 12.8265 3.28536 12.5822C3.13214 12.3103 3.25488 11.7571 3.50035 10.6507L3.54926 10.4303C3.68614 9.81336 3.75458 9.50489 3.71211 9.21012C3.68663 9.03329 3.63226 8.86186 3.55117 8.70268C3.41598 8.43731 3.18226 8.22467 2.71482 7.7994L2.43717 7.5468C1.43734 6.63716 0.937419 6.18234 1.00627 5.74792C1.02052 5.65795 1.04977 5.571 1.09277 5.4907C1.30044 5.10297 1.98046 5.04207 3.3405 4.92026C4.14392 4.84831 4.54563 4.81234 4.86742 4.61838C4.95768 4.56398 5.04245 4.50096 5.12054 4.43019C5.39896 4.17789 5.54775 3.80695 5.84534 3.06507Z" fill="white" stroke="#B99C63"/>
<path d="M22.6053 3.06507C23.1286 1.76051 23.3902 1.10823 23.8153 1.01783C23.9271 0.994057 24.0426 0.994057 24.1544 1.01783C24.5795 1.10823 24.8411 1.76051 25.3644 3.06507C25.662 3.80695 25.8108 4.17789 26.0892 4.43019C26.1673 4.50096 26.2521 4.56398 26.3423 4.61838C26.6641 4.81234 27.0658 4.84831 27.8692 4.92026C29.2293 5.04207 29.9093 5.10297 30.117 5.4907C30.16 5.571 30.1892 5.65795 30.2035 5.74792C30.2723 6.18234 29.7724 6.63716 28.7726 7.5468L28.4949 7.7994C28.0275 8.22467 27.7938 8.43731 27.6586 8.70268C27.5775 8.86186 27.5231 9.03329 27.4976 9.21012C27.4552 9.50489 27.5236 9.81336 27.6605 10.4303L27.7094 10.6507C27.9549 11.7571 28.0776 12.3103 27.9244 12.5822C27.7868 12.8265 27.5333 12.9829 27.2532 12.9962C26.9415 13.0111 26.5022 12.6532 25.6236 11.9373C25.0448 11.4656 24.7554 11.2298 24.4341 11.1377C24.1405 11.0535 23.8292 11.0535 23.5356 11.1377C23.2143 11.2298 22.9249 11.4656 22.346 11.9373C21.4675 12.6532 21.0282 13.0111 20.7165 12.9962C20.4364 12.9829 20.1829 12.8265 20.0453 12.5822C19.8921 12.3103 20.0148 11.7571 20.2603 10.6507L20.3092 10.4303C20.4461 9.81336 20.5145 9.50489 20.4721 9.21012C20.4466 9.03329 20.3922 8.86186 20.3111 8.70268C20.1759 8.43731 19.9422 8.22467 19.4748 7.7994L19.1971 7.5468C18.1973 6.63716 17.6974 6.18234 17.7662 5.74792C17.7805 5.65795 17.8097 5.571 17.8527 5.4907C18.0604 5.10297 18.7404 5.04207 20.1004 4.92026C20.9039 4.84831 21.3056 4.81234 21.6274 4.61838C21.7176 4.56398 21.8024 4.50096 21.8805 4.43019C22.1589 4.17789 22.3077 3.80695 22.6053 3.06507Z" fill="white" stroke="#B99C63"/>
<path d="M39.3652 3.06507C39.8885 1.76051 40.1502 1.10823 40.5753 1.01783C40.687 0.994057 40.8026 0.994057 40.9143 1.01783C41.3394 1.10823 41.6011 1.76051 42.1243 3.06507C42.4219 3.80695 42.5707 4.17789 42.8491 4.43019C42.9272 4.50096 43.012 4.56398 43.1023 4.61838C43.4241 4.81234 43.8258 4.84831 44.6292 4.92026C45.9892 5.04207 46.6692 5.10297 46.8769 5.4907C46.9199 5.571 46.9492 5.65795 46.9634 5.74792C47.0323 6.18234 46.5323 6.63716 45.5325 7.5468L45.2549 7.7994C44.7874 8.22467 44.5537 8.43731 44.4185 8.70268C44.3374 8.86186 44.2831 9.03329 44.2576 9.21012C44.2151 9.50489 44.2835 9.81336 44.4204 10.4303L44.4693 10.6507C44.7148 11.7571 44.8375 12.3103 44.6843 12.5822C44.5467 12.8265 44.2932 12.9829 44.0132 12.9962C43.7014 13.0111 43.2621 12.6532 42.3836 11.9373C41.8048 11.4656 41.5154 11.2298 41.1941 11.1377C40.9005 11.0535 40.5891 11.0535 40.2955 11.1377C39.9742 11.2298 39.6848 11.4656 39.106 11.9373C38.2274 12.6532 37.7882 13.0111 37.4764 12.9962C37.1964 12.9829 36.9429 12.8265 36.8053 12.5822C36.652 12.3103 36.7748 11.7571 37.0203 10.6507L37.0692 10.4303C37.206 9.81336 37.2745 9.50489 37.232 9.21012C37.2065 9.03329 37.1522 8.86186 37.0711 8.70268C36.9359 8.43731 36.7022 8.22467 36.2347 7.7994L35.9571 7.5468C34.9572 6.63716 34.4573 6.18234 34.5262 5.74792C34.5404 5.65795 34.5697 5.571 34.6127 5.4907C34.8203 5.10297 35.5004 5.04207 36.8604 4.92026C37.6638 4.84831 38.0655 4.81234 38.3873 4.61838C38.4776 4.56398 38.5623 4.50096 38.6404 4.43019C38.9189 4.17789 39.0676 3.80695 39.3652 3.06507Z" fill="white" stroke="#B99C63"/>
<path d="M56.1252 3.06507C56.6485 1.76051 56.9101 1.10823 57.3352 1.01783C57.447 0.994057 57.5625 0.994057 57.6743 1.01783C58.0994 1.10823 58.361 1.76051 58.8843 3.06507C59.1819 3.80695 59.3307 4.17789 59.6091 4.43019C59.6872 4.50096 59.772 4.56398 59.8622 4.61838C60.184 4.81234 60.5857 4.84831 61.3891 4.92026C62.7492 5.04207 63.4292 5.10297 63.6369 5.4907C63.6799 5.571 63.7091 5.65795 63.7234 5.74792C63.7922 6.18234 63.2923 6.63716 62.2925 7.5468L62.0148 7.7994C61.5474 8.22467 61.3137 8.43731 61.1785 8.70268C61.0974 8.86186 61.043 9.03329 61.0175 9.21012C60.975 9.50489 61.0435 9.81336 61.1804 10.4303L61.2293 10.6507C61.4748 11.7571 61.5975 12.3103 61.4443 12.5822C61.3067 12.8265 61.0531 12.9829 60.7731 12.9962C60.4614 13.0111 60.0221 12.6532 59.1435 11.9373C58.5647 11.4656 58.2753 11.2298 57.954 11.1377C57.6604 11.0535 57.3491 11.0535 57.0555 11.1377C56.7342 11.2298 56.4448 11.4656 55.8659 11.9373C54.9874 12.6532 54.5481 13.0111 54.2364 12.9962C53.9563 12.9829 53.7028 12.8265 53.5652 12.5822C53.412 12.3103 53.5347 11.7571 53.7802 10.6507L53.8291 10.4303C53.966 9.81336 54.0344 9.50489 53.992 9.21012C53.9665 9.03329 53.9121 8.86186 53.831 8.70268C53.6958 8.43731 53.4621 8.22467 52.9947 7.7994L52.717 7.5468C51.7172 6.63716 51.2173 6.18234 51.2861 5.74792C51.3004 5.65795 51.3296 5.571 51.3726 5.4907C51.5803 5.10297 52.2603 5.04207 53.6203 4.92026C54.4238 4.84831 54.8255 4.81234 55.1473 4.61838C55.2375 4.56398 55.3223 4.50096 55.4004 4.43019C55.6788 4.17789 55.8276 3.80695 56.1252 3.06507Z" fill="white" stroke="#B99C63"/>
</svg>
