<svg width="579" height="60" viewBox="0 0 579 60" fill="none" xmlns="http://www.w3.org/2000/svg">
<path d="M209.303 26.9912H190.191L190.207 27.0067H209.319L209.303 26.9912Z" fill="white"/>
<path d="M27.5056 47.3648C29.444 47.3649 31.3587 46.9394 33.1146 46.1185C34.969 45.2467 36.6237 44.0021 37.9757 42.4623L47.1993 50.7951C44.6911 53.638 41.6214 55.9306 38.1834 57.5286C34.8349 59.0423 31.2028 59.8265 27.5281 59.8292C23.8533 59.8319 20.22 59.053 16.8694 57.5442C13.4347 55.9806 10.3746 53.6998 7.8949 50.855C5.36528 48.0613 3.37852 44.8206 2.03639 41.2989C0.671969 37.7171 -0.0182406 33.9138 0.000583839 30.0809C-0.0229849 26.2205 0.667212 22.3889 2.03639 18.7793C3.37882 15.2579 5.36555 12.0175 7.8949 9.2238C10.3753 6.37964 13.4352 4.09873 16.8694 2.53404C20.3329 0.973633 24.0974 0.194524 27.8957 0.251986C31.6941 0.309447 35.4333 1.20207 38.8481 2.86653C42.4466 4.63288 45.6105 7.17242 48.1135 10.3036L38.5574 18.1979C35.5659 14.5418 31.882 12.7136 27.5056 12.7134C25.4717 12.697 23.4633 13.1662 21.6471 14.082C19.837 15.0005 18.2161 16.2519 16.8694 17.7706C15.4453 19.3834 14.3449 21.2552 13.6284 23.2839C12.8459 25.4496 12.4521 27.7365 12.4653 30.0391C12.4498 32.329 12.8437 34.6032 13.6283 36.7545C14.3575 38.777 15.4566 40.6464 16.8694 42.267C18.2072 43.8062 19.8294 45.0728 21.6471 45.9974C23.4634 46.9128 25.4718 47.3816 27.5056 47.3648Z" fill="white"/>
<path d="M80.853 59.8292C77.1704 59.8478 73.5274 59.0682 70.1749 57.5442C66.7404 55.9602 63.6707 53.6828 61.159 50.855C58.6329 48.0664 56.659 44.8237 55.3423 41.2989C54.0051 37.7108 53.3294 33.91 53.348 30.0809C53.3247 26.2242 54.0004 22.3952 55.3423 18.7793C56.6593 15.2549 58.6331 12.0124 61.159 9.2238C63.6714 6.39662 66.7409 4.11909 70.1749 2.53404C73.5332 1.02775 77.1722 0.249023 80.8528 0.249023C84.5335 0.249023 88.1725 1.02775 91.5308 2.53404C94.9647 4.11933 98.0341 6.39683 100.547 9.2238C105.631 14.9767 108.412 22.4037 108.358 30.0809C108.392 37.7295 105.612 45.1236 100.547 50.855C98.0348 53.6826 94.9652 55.96 91.5308 57.5442C88.1783 59.0679 84.5355 59.8475 80.853 59.8292ZM80.8945 12.7134C78.8527 12.7004 76.8366 13.1694 75.0101 14.082C73.1951 14.987 71.576 16.2404 70.2451 17.7706C68.8444 19.3986 67.7496 21.2664 67.0134 23.2839C66.2068 25.4442 65.7999 27.7332 65.8126 30.0391C65.7975 32.3323 66.2046 34.6086 67.0134 36.7545C67.7622 38.7658 68.8558 40.6313 70.2451 42.2671C71.567 43.8177 73.1875 45.0863 75.0101 45.9974C76.8367 46.9097 78.8528 47.3782 80.8945 47.3648C82.9084 47.3717 84.8956 46.9032 86.6944 45.9974C88.5248 45.0799 90.1578 43.8126 91.5008 42.2671C92.9099 40.6454 94.0057 38.7761 94.7325 36.7545C95.5152 34.6027 95.9083 32.3288 95.8934 30.0391C95.906 27.7367 95.513 25.45 94.7325 23.2839C94.0183 21.2561 92.9212 19.3845 91.5008 17.7707C90.1488 16.2456 88.5173 14.9935 86.6944 14.0821C84.8957 13.1759 82.9085 12.707 80.8945 12.7134H80.8945Z" fill="white"/>
<path d="M157.55 10.1376C159.367 12.9529 160.728 16.0379 161.581 19.2783C162.506 22.7474 162.967 26.3239 162.951 29.9143C162.967 33.5048 162.506 37.0816 161.581 40.5508C160.728 43.7914 159.368 46.8765 157.55 49.6915C155.632 52.6657 153.078 55.1774 150.072 57.0456C147.3 58.7594 144.106 59.6659 140.848 59.6632V59.7461H112.263V0.0830155H140.848C144.106 0.07996 147.301 0.986482 150.072 2.70053C153.092 4.58499 155.649 7.12722 157.55 10.1376ZM145.585 43.459C146.749 41.5513 147.617 39.4782 148.16 37.3102C149.379 32.4551 149.379 27.374 148.16 22.519C147.617 20.3509 146.749 18.2776 145.585 16.3695C144.94 15.3034 144.126 14.3492 143.175 13.5442C142.534 12.9581 141.714 12.6067 140.848 12.5474H124.727V47.2818H140.848C141.721 47.2176 142.544 46.8502 143.175 46.2431C144.106 45.4346 144.918 44.4971 145.585 43.459Z" fill="white"/>
<path d="M175.581 0V12.4644H193.946H216.797V0H175.581Z" fill="white"/>
<path d="M175.581 12.4639L190.191 26.9901H209.303L193.946 12.4639H175.581Z" fill="url(#paint0_linear_113_33)"/>
<path d="M184.39 47.3643H171.925V53.0145V53.4303V53.8456V59.8287H178.157H184.39H216.797V47.3643H184.39Z" fill="white"/>
<path d="M184.39 39.4961H171.925V47.3653H184.39V39.4961Z" fill="url(#paint1_linear_113_33)"/>
<path d="M184.39 39.4707H209.319V27.0068H190.207H184.39H171.925V32.8235V33.2393V33.6546V39.4961H184.39V39.4707Z" fill="white"/>
<path d="M260.422 26.0098L247.127 12.7139H229.344L243.963 27.2496H256.366C257.821 27.2517 259.243 26.8149 260.446 25.9962V25.9891C260.438 25.9952 260.43 26.0045 260.422 26.0098Z" fill="url(#paint2_linear_113_33)"/>
<path d="M274.424 12.2982C273.434 9.97054 272.026 7.84412 270.269 6.02458C268.518 4.22107 266.429 2.78101 264.12 1.78702C261.747 0.758256 259.186 0.234589 256.6 0.249326H229.344V12.7137H256.6C257.521 12.6977 258.434 12.8784 259.28 13.2438C260.125 13.6093 260.883 14.151 261.503 14.8328C261.543 14.8759 261.577 14.9219 261.617 14.9656C262.912 16.3143 263.634 18.1118 263.633 19.9816V19.9816C263.633 20.936 263.445 21.8811 263.08 22.7629C262.715 23.6447 262.18 24.4459 261.505 25.1208C260.83 25.7957 260.029 26.331 259.147 26.6962C258.265 27.0615 257.32 27.2495 256.366 27.2495H243.963L243.969 27.256H225.771V39.6734H256.6V39.6374C259.186 39.6527 261.747 39.129 264.12 38.0997C266.429 37.1066 268.519 35.6664 270.269 33.8621C272.026 32.043 273.435 29.9165 274.424 27.5885C275.456 25.1725 275.979 22.57 275.961 19.9431C275.979 17.3163 275.455 14.7141 274.424 12.2982Z" fill="white"/>
<path d="M256.267 39.7208H256.6V39.6738H238.519L258.677 59.9128L276.46 59.8299L256.267 39.7208Z" fill="url(#paint3_linear_113_33)"/>
<path d="M225.771 39.6738V39.7208V59.8299H238.235V39.7208L238.235 39.6738H225.771Z" fill="url(#paint4_linear_113_33)"/>
<path d="M348.889 12.4644H332.768V59.7461H320.304V12.4644H304.1V0H348.889V12.4644Z" fill="white"/>
<path d="M440.044 59.9132C436.362 59.9318 432.719 59.1521 429.366 57.6275C425.932 56.0438 422.862 53.7663 420.35 50.9384C417.824 48.1499 415.85 44.9071 414.534 41.3822C411.875 34.1114 411.875 26.1341 414.534 18.8633C415.851 15.3387 417.824 12.096 420.35 9.30715C422.863 6.47997 425.932 4.20262 429.366 2.61803C432.725 1.11174 436.364 0.333008 440.044 0.333008C443.725 0.333008 447.364 1.11174 450.722 2.61803C454.156 4.20286 457.226 6.48018 459.738 9.30715C464.801 15.0594 467.594 22.4597 467.594 30.1228C467.594 37.7858 464.801 45.1862 459.738 50.9384C457.226 53.7661 454.157 56.0436 450.722 57.6275C447.37 59.1518 443.727 59.9315 440.044 59.9132ZM440.086 12.7974C438.044 12.7841 436.028 13.253 434.201 14.166C432.386 15.071 430.767 16.3244 429.436 17.8546C428.036 19.4824 426.941 21.35 426.205 23.3672C425.398 25.5277 424.991 27.8169 425.004 30.1231C424.989 32.416 425.396 34.6922 426.205 36.8378C426.954 38.8492 428.047 40.7149 429.436 42.351C430.758 43.9016 432.379 45.1703 434.201 46.0814C436.028 46.9935 438.044 47.4617 440.086 47.4481C442.1 47.4552 444.087 46.987 445.886 46.0814C447.716 45.1639 449.349 43.8965 450.692 42.351C452.101 40.729 453.197 38.8596 453.924 36.8378C454.707 34.6863 455.1 32.4125 455.085 30.1231C455.097 27.8204 454.704 25.5335 453.924 23.3672C453.209 21.3397 452.112 19.4683 450.692 17.8546C449.34 16.3295 447.709 15.0775 445.886 14.166C444.087 13.2596 442.1 12.7906 440.086 12.7974H440.086Z" fill="white"/>
<path d="M496.798 59.9132C493.116 59.9318 489.473 59.1521 486.12 57.6275C482.686 56.0438 479.616 53.7663 477.104 50.9384C474.578 48.1499 472.604 44.9071 471.288 41.3822C468.629 34.1114 468.629 26.1341 471.288 18.8633C472.605 15.3387 474.579 12.096 477.104 9.30715C479.617 6.47997 482.686 4.20262 486.12 2.61803C489.479 1.11174 493.118 0.333008 496.798 0.333008C500.479 0.333008 504.118 1.11174 507.476 2.61803C510.91 4.20286 513.98 6.48018 516.492 9.30715C521.555 15.0594 524.348 22.4597 524.348 30.1228C524.348 37.7858 521.555 45.1862 516.492 50.9384C513.98 53.7661 510.911 56.0436 507.476 57.6275C504.124 59.1518 500.481 59.9315 496.798 59.9132ZM496.84 12.7974C494.798 12.7841 492.782 13.253 490.955 14.166C489.141 15.071 487.521 16.3244 486.19 17.8546C484.79 19.4824 483.695 21.35 482.959 23.3672C482.152 25.5277 481.745 27.8169 481.758 30.1231C481.743 32.416 482.15 34.6922 482.959 36.8378C483.708 38.8492 484.801 40.7149 486.19 42.351C487.512 43.9016 489.133 45.1703 490.955 46.0814C492.782 46.9935 494.798 47.4617 496.84 47.4481C498.854 47.4552 500.841 46.987 502.64 46.0814C504.47 45.1639 506.103 43.8965 507.446 42.351C508.855 40.729 509.951 38.8596 510.678 36.8378C511.461 34.6863 511.854 32.4125 511.839 30.1231C511.851 27.8204 511.458 25.5335 510.678 23.3672C509.963 21.3397 508.866 19.4683 507.446 17.8546C506.094 16.3295 504.463 15.0775 502.64 14.166C500.841 13.2596 498.854 12.7906 496.84 12.7974H496.84Z" fill="white"/>
<path d="M392.593 26.0977L379.298 12.8018H361.515L376.134 27.3375H388.537C389.992 27.3396 391.414 26.9028 392.617 26.0841V26.077C392.609 26.0831 392.601 26.0924 392.593 26.0977Z" fill="url(#paint5_linear_113_33)"/>
<path d="M406.595 12.3861C405.605 10.0584 404.197 7.93202 402.44 6.11248C400.689 4.30897 398.6 2.8689 396.291 1.87491C393.918 0.846147 391.357 0.32248 388.771 0.337217H361.515V12.8016H388.771C389.692 12.7855 390.606 12.9663 391.451 13.3317C392.297 13.6972 393.054 14.2389 393.674 14.9207C393.714 14.9638 393.748 15.0098 393.788 15.0535C395.083 16.4022 395.806 18.1997 395.805 20.0694V20.0695C395.805 21.0239 395.617 21.969 395.251 22.8508C394.886 23.7325 394.351 24.5338 393.676 25.2086C393.001 25.8835 392.2 26.4189 391.318 26.7841C390.436 27.1493 389.491 27.3373 388.537 27.3373H376.134L376.14 27.3438H357.942V39.7612H388.771V39.7252C391.357 39.7406 393.918 39.2169 396.291 38.1876C398.6 37.1945 400.69 35.7543 402.44 33.95C404.198 32.1309 405.606 30.0044 406.595 27.6763C407.61 25.2553 408.132 22.6564 408.132 20.0312C408.132 17.4061 407.61 14.8072 406.595 12.3861V12.3861Z" fill="white"/>
<path d="M388.439 39.8087H388.771V39.7617H370.69L390.848 60.0007L408.631 59.9178L388.439 39.8087Z" fill="url(#paint6_linear_113_33)"/>
<path d="M357.942 39.7617V39.8087V59.9178H370.406V39.8087L370.406 39.7617H357.942Z" fill="url(#paint7_linear_113_33)"/>
<path d="M563.108 25.9297L549.813 12.6338H532.031L546.649 27.1695H559.052C560.507 27.1716 561.929 26.7348 563.132 25.9161V25.909C563.124 25.9151 563.116 25.9244 563.108 25.9297Z" fill="url(#paint8_linear_113_33)"/>
<path d="M577.11 12.2172C576.121 9.88945 574.712 7.76304 572.955 5.94351C571.205 4.13999 569.115 2.69993 566.806 1.70594C564.434 0.677189 561.872 0.153529 559.286 0.168272H532.031V12.6326H559.286C560.207 12.6166 561.121 12.7973 561.966 13.1628C562.812 13.5282 563.57 14.0699 564.189 14.7517C564.23 14.7949 564.264 14.8408 564.303 14.8845C565.598 16.2332 566.321 18.0308 566.32 19.9005V19.9005C566.32 20.855 566.132 21.8 565.767 22.6818C565.401 23.5636 564.866 24.3648 564.191 25.0397C563.516 25.7146 562.715 26.2499 561.833 26.6152C560.952 26.9804 560.006 27.1684 559.052 27.1684H546.649L546.656 27.1749H528.457V39.5923H559.286V39.5563C561.872 39.5717 564.434 39.048 566.806 38.0186C569.116 37.0255 571.205 35.5854 572.955 33.7811C574.713 31.962 576.121 29.8354 577.11 27.5074C578.125 25.0863 578.648 22.4874 578.648 19.8623C578.648 17.2371 578.125 14.6382 577.11 12.2172Z" fill="white"/>
<path d="M528.457 39.5928V39.6398V59.7494H540.922V39.6398L540.921 39.5928H528.457Z" fill="url(#paint9_linear_113_33)"/>
<defs>
<linearGradient id="paint0_linear_113_33" x1="192.442" y1="29.9518" x2="192.442" y2="10.729" gradientUnits="userSpaceOnUse">
<stop stop-color="white"/>
<stop offset="0.09217" stop-color="#F4F4F4"/>
<stop offset="0.25328" stop-color="#D7D7D7"/>
<stop offset="0.46417" stop-color="#A8A8A8"/>
<stop offset="0.71387" stop-color="#686868"/>
<stop offset="0.96342" stop-color="#212121"/>
</linearGradient>
<linearGradient id="paint1_linear_113_33" x1="178.157" y1="51.0028" x2="178.157" y2="38.5385" gradientUnits="userSpaceOnUse">
<stop stop-color="white"/>
<stop offset="0.10403" stop-color="#FAFAFA"/>
<stop offset="0.23355" stop-color="#EAEAEA"/>
<stop offset="0.3766" stop-color="#D1D1D1"/>
<stop offset="0.52943" stop-color="#AEAEAE"/>
<stop offset="0.69013" stop-color="#808080"/>
<stop offset="0.85476" stop-color="#494949"/>
<stop offset="0.96342" stop-color="#212121"/>
</linearGradient>
<linearGradient id="paint2_linear_113_33" x1="244.895" y1="30.2229" x2="244.895" y2="11.0102" gradientUnits="userSpaceOnUse">
<stop stop-color="white"/>
<stop offset="0.16002" stop-color="#E0E0E0"/>
<stop offset="0.51147" stop-color="#909090"/>
<stop offset="0.96342" stop-color="#212121"/>
</linearGradient>
<linearGradient id="paint3_linear_113_33" x1="257.489" y1="67.6975" x2="257.489" y2="37.2615" gradientUnits="userSpaceOnUse">
<stop stop-color="white"/>
<stop offset="0.14921" stop-color="#FCFCFC"/>
<stop offset="0.28072" stop-color="#F1F1F1"/>
<stop offset="0.40554" stop-color="#DFDFDF"/>
<stop offset="0.5263" stop-color="#C5C5C5"/>
<stop offset="0.64417" stop-color="#A4A4A4"/>
<stop offset="0.75982" stop-color="#7C7C7C"/>
<stop offset="0.87152" stop-color="#4D4D4D"/>
<stop offset="0.96342" stop-color="#212121"/>
</linearGradient>
<linearGradient id="paint4_linear_113_33" x1="232.003" y1="67.5827" x2="232.003" y2="37.2714" gradientUnits="userSpaceOnUse">
<stop stop-color="white"/>
<stop offset="0.14921" stop-color="#FCFCFC"/>
<stop offset="0.28072" stop-color="#F1F1F1"/>
<stop offset="0.40554" stop-color="#DFDFDF"/>
<stop offset="0.5263" stop-color="#C5C5C5"/>
<stop offset="0.64417" stop-color="#A4A4A4"/>
<stop offset="0.75982" stop-color="#7C7C7C"/>
<stop offset="0.87152" stop-color="#4D4D4D"/>
<stop offset="0.96342" stop-color="#212121"/>
</linearGradient>
<linearGradient id="paint5_linear_113_33" x1="377.066" y1="32.9285" x2="377.066" y2="11.0692" gradientUnits="userSpaceOnUse">
<stop stop-color="white"/>
<stop offset="0.14921" stop-color="#FCFCFC"/>
<stop offset="0.28072" stop-color="#F1F1F1"/>
<stop offset="0.40554" stop-color="#DFDFDF"/>
<stop offset="0.5263" stop-color="#C5C5C5"/>
<stop offset="0.64417" stop-color="#A4A4A4"/>
<stop offset="0.75982" stop-color="#7C7C7C"/>
<stop offset="0.87152" stop-color="#4D4D4D"/>
<stop offset="0.96342" stop-color="#212121"/>
</linearGradient>
<linearGradient id="paint6_linear_113_33" x1="389.66" y1="67.7854" x2="389.66" y2="37.3494" gradientUnits="userSpaceOnUse">
<stop stop-color="white"/>
<stop offset="0.14921" stop-color="#FCFCFC"/>
<stop offset="0.28072" stop-color="#F1F1F1"/>
<stop offset="0.40554" stop-color="#DFDFDF"/>
<stop offset="0.5263" stop-color="#C5C5C5"/>
<stop offset="0.64417" stop-color="#A4A4A4"/>
<stop offset="0.75982" stop-color="#7C7C7C"/>
<stop offset="0.87152" stop-color="#4D4D4D"/>
<stop offset="0.96342" stop-color="#212121"/>
</linearGradient>
<linearGradient id="paint7_linear_113_33" x1="364.174" y1="67.6706" x2="364.174" y2="37.3593" gradientUnits="userSpaceOnUse">
<stop stop-color="white"/>
<stop offset="0.14921" stop-color="#FCFCFC"/>
<stop offset="0.28072" stop-color="#F1F1F1"/>
<stop offset="0.40554" stop-color="#DFDFDF"/>
<stop offset="0.5263" stop-color="#C5C5C5"/>
<stop offset="0.64417" stop-color="#A4A4A4"/>
<stop offset="0.75982" stop-color="#7C7C7C"/>
<stop offset="0.87152" stop-color="#4D4D4D"/>
<stop offset="0.96342" stop-color="#212121"/>
</linearGradient>
<linearGradient id="paint8_linear_113_33" x1="547.581" y1="32.7606" x2="547.581" y2="10.9012" gradientUnits="userSpaceOnUse">
<stop stop-color="white"/>
<stop offset="0.14921" stop-color="#FCFCFC"/>
<stop offset="0.28072" stop-color="#F1F1F1"/>
<stop offset="0.40554" stop-color="#DFDFDF"/>
<stop offset="0.5263" stop-color="#C5C5C5"/>
<stop offset="0.64417" stop-color="#A4A4A4"/>
<stop offset="0.75982" stop-color="#7C7C7C"/>
<stop offset="0.87152" stop-color="#4D4D4D"/>
<stop offset="0.96342" stop-color="#212121"/>
</linearGradient>
<linearGradient id="paint9_linear_113_33" x1="534.689" y1="67.5024" x2="534.689" y2="37.1903" gradientUnits="userSpaceOnUse">
<stop stop-color="white"/>
<stop offset="0.14921" stop-color="#FCFCFC"/>
<stop offset="0.28072" stop-color="#F1F1F1"/>
<stop offset="0.40554" stop-color="#DFDFDF"/>
<stop offset="0.5263" stop-color="#C5C5C5"/>
<stop offset="0.64417" stop-color="#A4A4A4"/>
<stop offset="0.75982" stop-color="#7C7C7C"/>
<stop offset="0.87152" stop-color="#4D4D4D"/>
<stop offset="0.96342" stop-color="#212121"/>
</linearGradient>
</defs>
</svg>
