<svg width="119" height="100" viewBox="0 0 119 100" fill="none" xmlns="http://www.w3.org/2000/svg">
<g clip-path="url(#clip0_23_214)">
<path d="M107.737 15.313H11.7086C8.90538 15.3216 6.22026 16.4429 4.24334 18.4304C2.26641 20.4178 1.15944 23.1089 1.16569 25.9121V83.6235C1.15835 86.4274 2.26484 89.1195 4.24189 91.1078C6.21894 93.0961 8.90469 94.2179 11.7086 94.2265H107.737C109.126 94.2225 110.5 93.9451 111.781 93.4101C113.062 92.8751 114.225 92.0929 115.204 91.1083C116.183 90.1237 116.958 88.9559 117.486 87.6717C118.013 86.3874 118.283 85.0119 118.278 83.6235V25.9121C118.286 23.1089 117.179 20.4175 115.203 18.4299C113.226 16.4422 110.541 15.3211 107.737 15.313Z" fill="white"/>
<path d="M107.737 15.313H11.7086C8.90538 15.3216 6.22026 16.4429 4.24334 18.4304C2.26641 20.4178 1.15944 23.1089 1.16569 25.9121V83.6235C1.15835 86.4274 2.26484 89.1195 4.24189 91.1078C6.21894 93.0961 8.90469 94.2179 11.7086 94.2265H107.737C109.126 94.2225 110.5 93.9451 111.781 93.4101C113.062 92.8751 114.225 92.0929 115.204 91.1083C116.183 90.1237 116.958 88.956 117.486 87.6717C118.013 86.3874 118.283 85.0119 118.278 83.6235V25.9121C118.286 23.1089 117.179 20.4175 115.203 18.4299C113.226 16.4422 110.541 15.3211 107.737 15.313V15.313Z" stroke="black" stroke-linecap="round" stroke-linejoin="round"/>
<path d="M28.0858 77.4835H15.5856" stroke="black" stroke-linecap="round" stroke-linejoin="round"/>
<path d="M53.1177 77.4835H40.6194" stroke="black" stroke-linecap="round" stroke-linejoin="round"/>
<path d="M78.1479 77.4835H65.6497" stroke="black" stroke-linecap="round" stroke-linejoin="round"/>
<path d="M103.182 77.4835H90.6816" stroke="black" stroke-linecap="round" stroke-linejoin="round"/>
<path d="M70.6407 68.0631H15.5856" stroke="black" stroke-linecap="round" stroke-linejoin="round"/>
<path d="M42.3016 31.8521H22.0709C21.3238 31.852 20.5839 31.9991 19.8936 32.285C19.2033 32.5709 18.5761 32.99 18.0477 33.5183C17.5194 34.0466 17.1003 34.6738 16.8143 35.3641C16.5284 36.0544 16.3813 36.7942 16.3813 37.5414V57.7721C16.3816 58.7645 16.6418 59.7395 17.136 60.6001C17.6302 61.4607 18.3412 62.1768 19.1983 62.6771L19.8865 54.2607C19.9946 52.3044 21.1322 51.1082 23.1757 50.8128L28.1434 50.1451L28.8621 48.9801C28.8984 48.8864 28.9559 48.8023 29.0302 48.7346C29.1044 48.6669 29.1934 48.6173 29.29 48.5897L29.3326 47.5413C29.2417 47.4471 29.1468 47.3481 29.0428 47.2388C28.9067 47.0958 28.7569 46.9383 28.5899 46.7645C28.3677 46.5507 28.1938 46.2919 28.08 46.0054C27.9662 45.7188 27.9152 45.4112 27.9303 45.1033C27.6308 45.0535 27.3546 44.9108 27.1407 44.6955C26.9268 44.4801 26.786 44.203 26.7383 43.9033C26.6674 43.473 26.6199 43.2562 26.5736 43.0466C26.5304 42.8502 26.4895 42.6635 26.4352 42.3344C26.3769 42.0244 26.4144 41.7039 26.5429 41.4158C26.6714 41.1276 26.8847 40.8855 27.1543 40.7217L26.7548 38.2378C26.641 37.7112 26.6464 37.1658 26.7704 36.6415C26.8945 36.1172 27.1342 35.6273 27.4719 35.2076C28.2371 34.3295 29.5351 33.8603 31.1366 33.8892L36.3743 33.8881C36.5881 33.8763 36.802 33.9085 37.0029 33.9826C37.2038 34.0567 37.3874 34.1712 37.5423 34.319C37.7102 34.5123 37.8367 34.738 37.9142 34.9821C37.9916 35.2261 38.0183 35.4835 37.9926 35.7382L37.6385 40.7536C37.8947 40.921 38.0954 41.1606 38.2152 41.4422C38.335 41.7238 38.3685 42.0346 38.3114 42.3353C38.2574 42.6618 38.2165 42.8482 38.1736 43.0435C38.1276 43.2534 38.0799 43.4704 38.0089 43.9032C37.9611 44.2089 37.8208 44.4925 37.6069 44.716C37.393 44.9394 37.1158 45.0921 36.8126 45.1533C36.7886 46.1294 36.2991 46.6258 35.4282 47.5084C35.3895 47.5478 35.3468 47.5912 35.3061 47.6326L35.3453 48.5893C35.4414 48.6163 35.5298 48.6653 35.6035 48.7325C35.6772 48.7997 35.7342 48.8832 35.7699 48.9763L35.7785 48.9932L36.5027 50.1648L41.5069 50.8119C43.5183 51.1207 44.5917 52.2452 44.7987 54.2512L45.4751 62.4943C46.2499 61.9742 46.8847 61.2713 47.3235 60.4478C47.7623 59.6242 47.9915 58.7052 47.991 57.7721V37.5414C47.991 36.7942 47.8439 36.0544 47.5579 35.3641C47.272 34.6739 46.853 34.0467 46.3247 33.5184C45.7964 32.99 45.1692 32.571 44.4789 32.2851C43.7886 31.9992 43.0488 31.852 42.3016 31.8521Z" fill="#91836A"/>
<path d="M41.3839 51.6814L36.3267 51.0276L34.1724 54.6687C34.1202 54.7859 34.0371 54.8865 33.9318 54.9599C33.8266 55.0332 33.7034 55.0763 33.5754 55.0847L33.5628 55.0844C33.4766 55.0812 33.392 55.0594 33.3149 55.0205C33.2378 54.9816 33.17 54.9266 33.1161 54.8591L32.8383 55.7272L33.4131 63.4614H39.6112V60.2519C39.6078 60.1244 39.6541 60.0006 39.7401 59.9064C39.8262 59.8123 39.9454 59.7553 40.0727 59.7472C40.2219 59.7466 40.3661 59.8011 40.4776 59.9002C40.5892 59.9994 40.6602 60.1362 40.6771 60.2845L41.1462 63.4614H42.3016C43.1052 63.4611 43.8996 63.2897 44.6318 62.9585L43.924 54.3325C43.7604 52.7465 42.9767 51.9262 41.3839 51.6814Z" fill="white"/>
<path d="M32.3169 51.5773C32.7751 51.0459 33.1548 50.6018 33.4631 50.2407C33.9339 49.6896 34.2523 49.3172 34.4858 49.0641L34.4588 48.4081C33.9969 48.6724 33.4675 48.7952 32.9364 48.7613C32.8455 48.7613 32.7546 48.7602 32.6642 48.7588C32.581 48.7576 32.4964 48.7565 32.4103 48.7562C32.4 48.7571 32.3897 48.7573 32.3792 48.7573L32.1164 48.7579C31.1114 48.759 30.7052 48.7353 30.1794 48.3372L30.1498 49.0646C30.3796 49.3132 30.69 49.6768 31.1454 50.2104C31.4583 50.5771 31.8461 51.0312 32.3169 51.5773Z" fill="white"/>
<path d="M31.5798 54.7792C31.5262 54.8674 31.452 54.9413 31.3635 54.9945C31.2751 55.0477 31.175 55.0785 31.0719 55.0844L31.059 55.0847C30.9308 55.0762 30.8073 55.0329 30.7019 54.9593C30.5966 54.8857 30.5133 54.7847 30.4612 54.6672L28.2971 51.0105L23.2972 51.6825C21.6783 51.9167 20.848 52.7796 20.7628 54.3207L20.0463 63.0839C20.6924 63.3324 21.3786 63.4603 22.0709 63.4614H23.5524L24.0503 60.2675C24.0673 60.1243 24.1361 59.9923 24.2438 59.8964C24.3515 59.8006 24.4905 59.7475 24.6347 59.7471C24.7613 59.7558 24.8796 59.8133 24.9647 59.9074C25.0498 60.0015 25.0951 60.125 25.0911 60.2518C25.0911 61.4065 25.0899 62.468 25.0882 63.4614H31.1075L31.8749 55.7214C31.8749 55.7214 31.9728 55.6665 31.5798 54.7792Z" fill="white"/>
<path d="M24.4843 60.3354L23.997 63.4614H24.6489C24.6506 62.468 24.6518 61.4066 24.6518 60.2518C24.6517 60.1207 24.4996 60.203 24.4843 60.3354Z" fill="#161616"/>
<path d="M23.2385 51.2473L28.0655 50.5985C28.0416 50.5363 28.0322 50.4693 28.0382 50.4029C28.0442 50.3364 28.0654 50.2723 28.1001 50.2153L28.1434 50.1451L23.1757 50.8129C21.1322 51.1082 19.9945 52.3045 19.8864 54.2608L19.1982 62.6772C19.3355 62.7578 19.4764 62.8318 19.6207 62.9009L20.3243 54.2965C20.4334 52.3221 21.6661 51.4748 23.2385 51.2473Z" fill="#161616"/>
<path d="M34.8841 48.0632L34.9088 48.6646C34.9638 48.6224 35.0273 48.5926 35.0948 48.5771C35.1624 48.5617 35.2325 48.5609 35.3004 48.5749C35.3156 48.5789 35.3306 48.5837 35.3453 48.5893L35.3061 47.6326C35.1812 47.7594 35.0503 47.8929 34.9072 48.0419C34.8996 48.0499 34.8917 48.0554 34.8841 48.0632Z" fill="#161616"/>
<path d="M29.7263 48.6673L29.7548 47.9661C29.6282 47.8442 29.4892 47.7036 29.3325 47.5413L29.29 48.5897C29.3051 48.5839 29.3205 48.579 29.3361 48.5749C29.404 48.5625 29.4737 48.5643 29.5409 48.5802C29.608 48.5961 29.6711 48.6258 29.7263 48.6673Z" fill="#161616"/>
<path d="M41.5069 50.812L36.5027 50.1649L36.5339 50.2153C36.5701 50.2749 36.5916 50.3424 36.5963 50.412C36.6011 50.4816 36.5891 50.5513 36.5614 50.6153L41.4505 51.2474C42.9301 51.4748 44.1471 52.2143 44.3618 54.2965L45.0554 62.7493C45.1989 62.6698 45.3395 62.5857 45.4751 62.4944L44.7986 54.2514C44.5917 52.2453 43.5183 51.1208 41.5069 50.812Z" fill="#161616"/>
<path d="M40.0503 60.2518V63.4614H40.7024L40.2408 60.3354C40.2255 60.203 40.0503 60.1207 40.0503 60.2518Z" fill="#161616"/>
<path d="M40.0727 59.7472C39.9454 59.7552 39.8262 59.8123 39.7401 59.9064C39.6541 60.0005 39.6079 60.1244 39.6112 60.2518V63.4614H40.0503V60.2518C40.0503 60.1207 40.2254 60.203 40.2407 60.3353L40.7023 63.4614H41.1462L40.6771 60.2844C40.6602 60.1362 40.5892 59.9994 40.4776 59.9002C40.3661 59.8011 40.2219 59.7466 40.0727 59.7472ZM39.8062 60.3994L39.8088 60.416L39.8062 60.3994Z" fill="#161616"/>
<path d="M24.6347 59.7472C24.4905 59.7475 24.3515 59.8006 24.2438 59.8965C24.1361 59.9924 24.0673 60.1244 24.0503 60.2676L23.5524 63.4614H23.997L24.4842 60.3354C24.4996 60.203 24.6517 60.1207 24.6517 60.2518C24.6517 61.4066 24.6505 62.468 24.6488 63.4614H25.0881C25.0899 62.468 25.091 61.4066 25.091 60.2519C25.0951 60.125 25.0498 60.0016 24.9647 59.9075C24.8796 59.8133 24.7613 59.7559 24.6347 59.7472ZM24.9175 60.4063L24.9206 60.3854L24.9175 60.4063Z" fill="#161616"/>
<path d="M23.2972 51.6826L28.2971 51.0106L28.0955 50.6699C28.0834 50.6471 28.0733 50.6232 28.0655 50.5985L23.2385 51.2473C21.6661 51.4748 20.4334 52.3221 20.3243 54.2965L19.6207 62.9009C19.7597 62.9674 19.9016 63.0285 20.0463 63.0839L20.7628 54.3208C20.848 52.7797 21.6783 51.9168 23.2972 51.6826Z" fill="#161616"/>
<path d="M34.4858 49.0641C34.6127 48.9168 34.7545 48.7829 34.9088 48.6646L34.8841 48.0632C34.7563 48.1944 34.6136 48.3101 34.4589 48.408L34.4858 49.0641Z" fill="#161616"/>
<path d="M41.4505 51.2473L36.5613 50.6152C36.555 50.634 36.5473 50.6522 36.5384 50.6699L36.3267 51.0276L41.3839 51.6814C42.9767 51.9262 43.7604 52.7465 43.924 54.3325L44.6318 62.9586C44.7759 62.8937 44.918 62.8254 45.0554 62.7493L44.3618 54.2965C44.1471 52.2142 42.9301 51.4747 41.4505 51.2473Z" fill="#161616"/>
<path d="M30.1498 49.0646L30.1794 48.3372C30.0307 48.2219 29.8889 48.098 29.7548 47.9662L29.7263 48.6674C29.8811 48.7845 30.023 48.9176 30.1498 49.0646Z" fill="#161616"/>
<path d="M33.1161 54.8592C33.0576 54.7903 33.007 54.715 32.9655 54.6348L32.3169 53.2876L31.676 54.6193C31.6473 54.6746 31.6151 54.728 31.5797 54.7793C31.9728 55.6666 31.8749 55.7216 31.8749 55.7216L31.1075 63.4615H33.4132L32.8383 55.7273L33.1161 54.8592Z" fill="#CCBA96"/>
<path d="M31.8042 52.3276C31.2595 51.6971 30.8252 51.1882 30.4772 50.7805C30.284 50.5541 30.1135 50.3545 29.9609 50.1772C29.8013 50.481 29.5379 50.7173 29.2186 50.8429L31.0388 53.9188L31.8042 52.3276Z" fill="white"/>
<path d="M29.6424 49.8118C29.5867 49.749 29.5332 49.689 29.4882 49.64L28.9867 50.4512L28.9913 50.459C29.1443 50.4121 29.2835 50.3287 29.3969 50.216C29.5104 50.1032 29.5946 49.9644 29.6424 49.8118Z" fill="white"/>
<path d="M29.9609 50.1773C29.8414 50.0386 29.7345 49.9158 29.6424 49.8118C29.5946 49.9644 29.5104 50.1032 29.397 50.2159C29.2835 50.3287 29.1443 50.4121 28.9913 50.459L29.2186 50.843C29.5379 50.7174 29.8013 50.4811 29.9609 50.1773Z" fill="white"/>
<path d="M29.2402 49.2065L29.2672 49.1524L29.29 48.5897C29.1934 48.6173 29.1044 48.6669 29.0302 48.7346C28.9559 48.8023 28.8984 48.8863 28.8621 48.9801L28.1434 50.1451L28.7066 50.0693L29.2402 49.2065Z" fill="#161616"/>
<path d="M31.2803 54.4288C31.1335 54.7064 31.003 54.723 30.84 54.4451L28.7699 50.947L28.2971 51.0106L30.4612 54.6673C30.5133 54.7848 30.5966 54.8858 30.7019 54.9594C30.8073 55.0329 30.9308 55.0763 31.0591 55.0847L31.0719 55.0844C31.175 55.0786 31.2751 55.0477 31.3635 54.9946C31.452 54.9414 31.5262 54.8675 31.5798 54.7792C31.5167 54.6369 31.4407 54.4728 31.3499 54.2842L31.2803 54.4288Z" fill="#161616"/>
<path d="M31.8377 53.2705L32.0963 52.8291L32.0734 52.7814L31.8377 53.2705Z" fill="#161616"/>
<path d="M32.3169 51.5773C31.8461 51.0312 31.4583 50.5771 31.1454 50.2104C30.69 49.6768 30.3796 49.3132 30.1498 49.0646L30.1287 49.5851C30.1269 49.6189 30.119 49.6508 30.1149 49.684C30.5024 50.1288 31.1011 50.8401 32.0267 51.9133C32.1276 51.7967 32.2231 51.6861 32.3169 51.5773Z" fill="#161616"/>
<path d="M28.0655 50.5985L28.5269 50.5364L28.4736 50.4462L28.7066 50.0693L28.1434 50.1451L28.1001 50.2152C28.0653 50.2722 28.0442 50.3364 28.0382 50.4028C28.0322 50.4693 28.0416 50.5362 28.0655 50.5985Z" fill="#161616"/>
<path d="M29.7034 49.2309L29.7263 48.6674C29.6711 48.6259 29.608 48.5963 29.5409 48.5803C29.4737 48.5644 29.404 48.5626 29.3361 48.575C29.3205 48.5791 29.3051 48.584 29.29 48.5898L29.2672 49.1525C29.353 48.9807 29.4043 48.9271 29.7034 49.2309Z" fill="#161616"/>
<path d="M30.115 49.684C30.119 49.6508 30.127 49.6188 30.1287 49.5851L30.1498 49.0646C30.0231 48.9176 29.8811 48.7845 29.7263 48.6674L29.7034 49.2308C29.8069 49.336 29.9393 49.4823 30.115 49.684Z" fill="#161616"/>
<path d="M28.527 50.5365L28.0656 50.5985C28.0734 50.6232 28.0834 50.6471 28.0955 50.6699L28.2971 51.0106L28.7699 50.9471L28.527 50.5365Z" fill="#161616"/>
<path d="M31.8376 53.2707L31.3499 54.2842C31.4407 54.4728 31.5167 54.6369 31.5798 54.7793C31.6151 54.728 31.6473 54.6746 31.6761 54.6193L32.3169 53.2876L32.0962 52.8291L31.8376 53.2707Z" fill="#161616"/>
<path d="M29.2512 49.5454L29.2672 49.1525L29.2402 49.2066L28.7066 50.0694L28.7977 50.0571C28.9202 50.0361 29.0319 49.9739 29.1143 49.8809C29.1967 49.7878 29.245 49.6695 29.2512 49.5454Z" fill="#161616"/>
<path d="M31.9131 52.4489C31.8759 52.3718 31.8621 52.2854 31.8735 52.2005C31.8848 52.1156 31.9207 52.0359 31.9769 51.9711L32.0267 51.9134C31.1011 50.8402 30.5024 50.1289 30.1149 49.6841C30.0942 49.8566 30.042 50.0238 29.9608 50.1773C30.1135 50.3546 30.284 50.5542 30.4772 50.7806C30.8252 51.1883 31.2595 51.6972 31.8042 52.3277L31.0388 53.9188L29.2185 50.843C29.1236 50.8815 29.0248 50.9094 28.9238 50.9264L28.7699 50.9471L30.84 54.4452C31.003 54.723 31.1335 54.7064 31.2802 54.4289L31.3499 54.2843C31.3337 54.2508 31.3194 54.2202 31.3022 54.1851L31.8376 53.2707L32.0732 52.7813L31.9131 52.4489Z" fill="#161616"/>
<path d="M28.9913 50.4589L28.9867 50.4511L29.4882 49.64C29.5333 49.6889 29.5868 49.7489 29.6424 49.8117C29.6685 49.7326 29.6844 49.6505 29.6897 49.5673L29.7034 49.2309C29.4043 48.927 29.353 48.9807 29.2672 49.1525L29.2512 49.5454C29.245 49.6695 29.1967 49.7878 29.1143 49.8809C29.0319 49.9739 28.9202 50.0361 28.7977 50.0571L28.7066 50.0694L28.4736 50.4463L28.5269 50.5365L28.8564 50.4922C28.9021 50.4843 28.9472 50.4732 28.9913 50.4589Z" fill="#161616"/>
<path d="M28.9238 50.9263C29.0248 50.9093 29.1236 50.8814 29.2185 50.8429L28.9913 50.4589C28.9472 50.4731 28.9021 50.4843 28.8564 50.4921L28.5269 50.5364L28.7699 50.947L28.9238 50.9263Z" fill="#161616"/>
<path d="M29.6424 49.8117C29.7346 49.9157 29.8414 50.0385 29.9609 50.1772C30.042 50.0237 30.0943 49.8565 30.115 49.684C29.9393 49.4823 29.8069 49.336 29.7034 49.2308L29.6897 49.5673C29.6844 49.6505 29.6685 49.7326 29.6424 49.8117Z" fill="#161616"/>
<path d="M31.3499 54.2843L31.8376 53.2708L31.3022 54.1852C31.3194 54.2203 31.3337 54.2508 31.3499 54.2843Z" fill="#161616"/>
<path d="M32.8295 52.3276L33.5955 53.919L35.408 50.8556C35.094 50.717 34.8376 50.4742 34.6821 50.1682C34.5208 50.3553 34.338 50.5691 34.131 50.8113C33.7873 51.2137 33.3607 51.7126 32.8295 52.3276Z" fill="white"/>
<path d="M35.6326 50.476L35.6472 50.4514L35.1465 49.6414C35.1041 49.6874 35.0528 49.745 35.001 49.8032C35.0488 49.9557 35.1304 50.0955 35.2398 50.212C35.3491 50.3285 35.4834 50.4187 35.6326 50.476Z" fill="white"/>
<path d="M35.408 50.8556L35.6327 50.476C35.4835 50.4187 35.3492 50.3285 35.2398 50.212C35.1304 50.0955 35.0488 49.9557 35.0011 49.8032C34.9085 49.9073 34.8028 50.0284 34.6822 50.1682C34.8376 50.4742 35.0941 50.717 35.408 50.8556Z" fill="white"/>
<path d="M35.394 49.2065L35.9417 50.0923L36.5027 50.1648L35.7785 48.9932L35.7699 48.9763C35.7342 48.8832 35.6772 48.7997 35.6035 48.7325C35.5297 48.6654 35.4414 48.6163 35.3453 48.5894L35.3685 49.1552C35.3768 49.1718 35.3847 49.188 35.394 49.2065Z" fill="#161616"/>
<path d="M33.7944 54.4451C33.6314 54.723 33.5009 54.7064 33.3536 54.4288L33.2937 54.3045L33.1161 54.8591C33.17 54.9266 33.2379 54.9816 33.3149 55.0205C33.392 55.0594 33.4766 55.0812 33.5629 55.0844L33.5754 55.0847C33.7034 55.0764 33.8267 55.0332 33.9319 54.9599C34.0371 54.8866 34.1203 54.7859 34.1724 54.6687L36.3268 51.0276L35.8529 50.9663L33.7944 54.4451Z" fill="#161616"/>
<path d="M32.5461 52.8108L32.7262 53.1256L32.5606 52.7814L32.5461 52.8108Z" fill="#161616"/>
<path d="M32.3169 51.5773C32.4107 51.6861 32.506 51.7965 32.6069 51.9132C33.5357 50.8366 34.1357 50.125 34.5234 49.6808C34.5119 49.6132 34.505 49.5449 34.5027 49.4764L34.4858 49.0641C34.2523 49.3172 33.9339 49.6896 33.4631 50.2407C33.1548 50.6018 32.7751 51.0459 32.3169 51.5773Z" fill="#161616"/>
<path d="M36.1606 50.4462L36.0962 50.5551L36.5614 50.6152C36.5891 50.5512 36.6011 50.4815 36.5964 50.4119C36.5916 50.3423 36.5701 50.2748 36.5339 50.2152L36.5027 50.1648L35.9417 50.0923L36.1606 50.4462Z" fill="#161616"/>
<path d="M34.9088 48.6646L34.9321 49.2315C35.2355 48.9232 35.283 48.982 35.3685 49.1552L35.3453 48.5893C35.3306 48.5837 35.3156 48.5789 35.3004 48.5749C35.2325 48.5609 35.1624 48.5617 35.0948 48.5771C35.0273 48.5926 34.9638 48.6224 34.9088 48.6646Z" fill="#161616"/>
<path d="M35.8529 50.9663L36.3268 51.0276L36.5384 50.6698C36.5473 50.6522 36.555 50.6339 36.5614 50.6152L36.0962 50.5551L35.8529 50.9663Z" fill="#161616"/>
<path d="M34.4858 49.064L34.5027 49.4764C34.505 49.5449 34.5119 49.6132 34.5235 49.6807C34.6975 49.4813 34.8293 49.3359 34.9321 49.2314L34.9088 48.6646C34.7545 48.7829 34.6127 48.9167 34.4858 49.064Z" fill="#161616"/>
<path d="M32.7261 53.1254L32.5463 52.8109L32.317 53.2875L32.9656 54.6347C33.0071 54.715 33.0576 54.7903 33.1162 54.8591L33.2937 54.3044L32.7261 53.1254Z" fill="#161616"/>
<path d="M32.0267 51.9132C32.1225 52.0243 32.2137 52.1302 32.3167 52.2493C32.4199 52.1302 32.511 52.0243 32.6068 51.9132C32.5059 51.7965 32.4107 51.6861 32.3169 51.5773C32.2231 51.686 32.1276 51.7966 32.0267 51.9132Z" fill="#161616"/>
<path d="M32.3165 52.2754L32.0734 52.7814L32.0963 52.8291L32.3292 52.4311L32.5461 52.8108L32.5606 52.7814L32.3165 52.2754Z" fill="#161616"/>
<path d="M32.3292 52.4312L32.0963 52.8291L32.317 53.2874L32.5462 52.8109L32.3292 52.4312Z" fill="#161616"/>
<path d="M32.3168 52.2494C32.2137 52.1303 32.1225 52.0244 32.0268 51.9133L31.9769 51.9711C31.9208 52.0358 31.8848 52.1156 31.8735 52.2005C31.8622 52.2854 31.8759 52.3717 31.9131 52.4489L32.0732 52.7813L32.3168 52.2752L32.3088 52.2586L32.3168 52.2494Z" fill="#161616"/>
<path d="M35.8376 50.0788L35.9417 50.0923L35.394 49.2065C35.3847 49.188 35.3768 49.1718 35.3685 49.1552L35.3807 49.4527C35.378 49.5926 35.4212 49.7296 35.5037 49.8427C35.5862 49.9558 35.7035 50.0387 35.8376 50.0788Z" fill="#161616"/>
<path d="M35.408 50.8557L33.5955 53.9191L32.8295 52.3276C33.3607 51.7126 33.7873 51.2137 34.131 50.8114C34.338 50.5691 34.5208 50.3553 34.6822 50.1683C34.6027 50.0157 34.549 49.8509 34.5234 49.6808C34.1357 50.125 33.5357 50.8367 32.6069 51.9132L32.6568 51.9711C32.7129 52.0358 32.7489 52.1155 32.7602 52.2004C32.7715 52.2853 32.7577 52.3717 32.7205 52.4489L32.5605 52.7815L32.7261 53.1254L33.3318 54.1851L33.2937 54.3045L33.3535 54.4288C33.5009 54.7064 33.6314 54.723 33.7944 54.4451L35.8529 50.9663L35.7138 50.9483C35.6084 50.9304 35.5056 50.8992 35.408 50.8557Z" fill="#161616"/>
<path d="M35.001 49.8033C35.0528 49.7451 35.1041 49.6875 35.1465 49.6414L35.6472 50.4515L35.6326 50.4761C35.6773 50.4924 35.7233 50.5048 35.7701 50.513L36.0962 50.5552L36.1606 50.4463L35.9417 50.0924L35.8376 50.0789C35.7035 50.0388 35.5862 49.9559 35.5037 49.8428C35.4212 49.7297 35.378 49.5927 35.3807 49.4528L35.3685 49.1552C35.283 48.9821 35.2355 48.9233 34.9321 49.2316L34.9419 49.4707C34.9443 49.584 34.9642 49.6962 35.001 49.8033Z" fill="#161616"/>
<path d="M35.6327 50.4761L35.408 50.8557C35.5057 50.8993 35.6084 50.9304 35.7138 50.9484L35.8529 50.9664L36.0962 50.5552L35.7701 50.513C35.7233 50.5048 35.6773 50.4924 35.6327 50.4761Z" fill="#161616"/>
<path d="M34.5234 49.6807C34.549 49.8509 34.6027 50.0156 34.6822 50.1682C34.8028 50.0284 34.9085 49.9073 35.0011 49.8032C34.9643 49.6961 34.9443 49.5839 34.9419 49.4706L34.9321 49.2314C34.8293 49.3359 34.6975 49.4813 34.5234 49.6807Z" fill="#161616"/>
<path d="M32.7262 53.1255L33.2939 54.3044L33.3318 54.1851L32.7262 53.1255Z" fill="#161616"/>
<path d="M32.3247 52.2585L32.3168 52.2751L32.5605 52.7814L32.7206 52.4488C32.7577 52.3716 32.7715 52.2853 32.7602 52.2004C32.7489 52.1155 32.7129 52.0357 32.6568 51.971L32.6069 51.9132C32.511 52.0243 32.4199 52.1302 32.3168 52.2493L32.3247 52.2585Z" fill="#161616"/>
<path d="M32.3168 52.2493L32.3088 52.2585L32.3168 52.2751L32.3247 52.2585L32.3168 52.2493Z" fill="#161616"/>
<path d="M29.8067 46.2504H34.8278C34.9051 46.2511 34.9809 46.2723 35.0473 46.312C35.1137 46.3517 35.1683 46.4084 35.2055 46.4762C35.757 45.894 35.9351 45.6028 35.9351 45.077V44.7902C35.9352 44.6826 35.9748 44.5787 36.0463 44.4983C36.1179 44.4179 36.2165 44.3665 36.3234 44.354C37.0588 44.2682 37.1194 43.8999 37.142 43.7612C37.2169 43.3052 37.2669 43.0765 37.3155 42.8552C37.3559 42.6725 37.3942 42.4975 37.4451 42.1913C37.4632 42.1034 37.4637 42.0127 37.4465 41.9246C37.4293 41.8365 37.3948 41.7527 37.345 41.678C37.2254 41.9096 37.0516 42.1087 36.8384 42.2585C36.6251 42.4082 36.3788 42.5042 36.1204 42.5381C36.0046 42.5266 35.8972 42.4723 35.8192 42.3859C35.7412 42.2994 35.6982 42.187 35.6987 42.0706V38.3613C35.7008 38.2983 35.6897 38.2354 35.6661 38.1769C35.6425 38.1183 35.607 38.0654 35.5617 38.0214C35.5389 38.0027 35.5122 37.9895 35.4835 37.9826C35.4548 37.9757 35.425 37.9754 35.3962 37.9816L32.6179 39.1239C32.5244 39.1673 32.4214 39.1864 32.3186 39.1793C32.2158 39.1722 32.1164 39.1392 32.0298 39.0833C31.9217 38.9862 31.8398 38.8636 31.7915 38.7267C31.7432 38.5898 31.73 38.4429 31.7533 38.2995C31.7545 38.2079 31.7506 38.1162 31.7415 38.025H30.2316C29.8863 38.0584 29.5676 38.2253 29.3437 38.4902C29.1197 38.7552 29.0081 39.0972 29.0327 39.4432V42.1025C29.0329 42.222 28.9869 42.3369 28.9044 42.4232C28.8219 42.5096 28.7092 42.5607 28.5899 42.566C28.5819 42.5666 28.5736 42.5669 28.5653 42.5669C28.3164 42.5185 28.0818 42.4139 27.8795 42.2612C27.6771 42.1084 27.5123 41.9114 27.3976 41.6853C27.3005 41.8348 27.2659 42.0165 27.3015 42.1912C27.3524 42.4991 27.391 42.6741 27.4316 42.858C27.4802 43.0787 27.5302 43.3071 27.6052 43.7612C27.6263 43.8907 27.6826 44.2341 28.3817 44.285C28.4894 44.2929 28.5903 44.3401 28.6654 44.4177C28.7404 44.4952 28.7842 44.5977 28.7886 44.7056C28.8297 45.7469 28.929 45.8498 29.2232 46.156C29.3147 46.2513 29.3897 46.3303 29.4716 46.4162C29.5115 46.3652 29.5623 46.3239 29.6203 46.2952C29.6783 46.2665 29.742 46.2512 29.8067 46.2504Z" fill="white"/>
<path d="M32.1138 47.8796L32.3465 47.879C32.3571 47.8782 32.3683 47.8779 32.3791 47.8779C32.4803 47.8779 32.5793 47.8793 32.6768 47.8808C33.3696 47.8899 33.8279 47.8973 34.2739 47.4333C34.3222 47.383 34.3666 47.3377 34.4129 47.29L34.4063 47.1288H30.2284L30.2256 47.1993C30.9085 47.8804 31.0939 47.8784 32.1138 47.8796Z" fill="white"/>
<path d="M32.3065 46.6895H34.8277L34.8347 46.8592C34.9755 46.7163 35.0962 46.5916 35.2055 46.4761C35.1683 46.4083 35.1137 46.3516 35.0473 46.3119C34.9809 46.2723 34.9051 46.251 34.8278 46.2504H29.8068C29.742 46.2511 29.6783 46.2664 29.6203 46.2951C29.5623 46.3238 29.5115 46.3652 29.4717 46.4162C29.54 46.4879 29.6167 46.5678 29.679 46.6332C29.7232 46.6797 29.7627 46.721 29.8037 46.7641L29.8068 46.6895H32.3065Z" fill="white"/>
<path d="M34.4063 47.1288L34.413 47.29C34.5508 47.1479 34.6828 47.0133 34.8029 46.8918L34.8347 46.8593L34.8277 46.6896H29.8067L29.8037 46.7642C29.9643 46.9326 30.1041 47.078 30.2256 47.1992L30.2285 47.1288H34.4063Z" fill="white"/>
<path d="M28.9065 46.4601C28.5335 46.0722 28.3951 45.869 28.3498 44.723C28.0792 44.7409 27.8112 44.6608 27.5948 44.4972C27.3785 44.3336 27.2283 44.0976 27.1717 43.8324C27.0339 42.995 26.98 42.9378 26.8683 42.2628C26.8308 42.0704 26.8449 41.8715 26.9093 41.6864C26.9737 41.5013 27.0859 41.3365 27.2347 41.2089C27.2334 41.2001 27.2297 41.1923 27.2286 41.1836L27.1543 40.7217C26.8847 40.8855 26.6714 41.1276 26.5429 41.4157C26.4144 41.7039 26.3769 42.0243 26.4352 42.3344C26.4895 42.6635 26.5304 42.8502 26.5736 43.0466C26.6199 43.2562 26.6674 43.4729 26.7383 43.9032C26.786 44.203 26.9268 44.4801 27.1407 44.6955C27.3547 44.9108 27.6308 45.0535 27.9303 45.1032C27.9152 45.4112 27.9663 45.7188 28.08 46.0053C28.1938 46.2919 28.3677 46.5507 28.5899 46.7645C28.7569 46.9383 28.9067 47.0958 29.0428 47.2388C29.1468 47.348 29.2418 47.4471 29.3326 47.5413L29.3573 46.932C29.2205 46.7884 29.0747 46.6351 28.9065 46.4601Z" fill="#161616"/>
<path d="M37.6127 41.0398C37.5941 41.1089 37.5718 41.1769 37.546 41.2437C37.6835 41.3713 37.7862 41.5318 37.8443 41.7102C37.9024 41.8885 37.9141 42.0788 37.8782 42.2629C37.7665 42.9379 37.7126 42.995 37.5754 43.8324C37.516 44.1059 37.364 44.3504 37.1452 44.5249C36.9264 44.6994 36.6541 44.793 36.3743 44.7901V45.0769C36.3743 45.8655 36.0219 46.2769 35.2814 47.0312L35.3061 47.6326C35.3468 47.5913 35.3895 47.5478 35.4282 47.5085C36.2991 46.6258 36.7886 46.1295 36.8126 45.1533C37.1158 45.0921 37.393 44.9395 37.6069 44.716C37.8208 44.4925 37.9611 44.2089 38.0089 43.9033C38.0799 43.4705 38.1276 43.2534 38.1736 43.0436C38.2165 42.8483 38.2574 42.6619 38.3114 42.3353C38.3685 42.0347 38.335 41.7239 38.2152 41.4423C38.0954 41.1607 37.8947 40.921 37.6385 40.7537L37.6232 40.9701C37.6216 40.9936 37.618 41.0169 37.6127 41.0398Z" fill="#161616"/>
<path d="M32.3792 48.7573C32.3897 48.7573 32.4 48.757 32.4103 48.7562C32.4964 48.7564 32.581 48.7576 32.6642 48.7587C32.7546 48.7602 32.8455 48.7613 32.9364 48.7613C33.4675 48.7952 33.9969 48.6723 34.4589 48.408L34.4369 47.874C33.8252 48.3952 33.1616 48.3171 32.3793 48.3171V48.318C31.1161 48.318 30.8333 48.3625 30.2017 47.7874L30.1794 48.3371C30.7052 48.7353 31.1114 48.7589 32.1164 48.7579L32.3792 48.7573Z" fill="#161616"/>
<path d="M29.7548 47.9662L29.7789 47.3724C29.6552 47.245 29.5134 47.0961 29.3573 46.9321L29.3325 47.5413C29.4891 47.7037 29.6282 47.8443 29.7548 47.9662Z" fill="#161616"/>
<path d="M34.8594 47.4617L34.8841 48.0632C34.8918 48.0554 34.8996 48.0499 34.9073 48.0419C35.0503 47.8929 35.1812 47.7594 35.3061 47.6326L35.2814 47.0311C35.153 47.1619 35.0118 47.3062 34.8594 47.4617Z" fill="#161616"/>
<path d="M30.2018 47.7874C30.0776 47.6743 29.9403 47.5385 29.779 47.3723L29.7548 47.9661C29.889 48.098 30.0308 48.2218 30.1794 48.3371L30.2018 47.7874Z" fill="#161616"/>
<path d="M34.437 47.8741L34.4589 48.4081C34.6136 48.3101 34.7563 48.1944 34.8841 48.0633L34.8594 47.4618C34.7715 47.5517 34.6865 47.6377 34.5904 47.7378C34.5417 47.7859 34.4904 47.8314 34.437 47.8741Z" fill="#161616"/>
<path d="M29.4717 46.4162C29.3897 46.3303 29.3147 46.2512 29.2232 46.156C28.929 45.8498 28.8298 45.7469 28.7886 44.7055C28.7843 44.5977 28.7404 44.4952 28.6654 44.4177C28.5904 44.3401 28.4894 44.2928 28.3818 44.285C27.6827 44.2341 27.6264 43.8907 27.6052 43.7611C27.5303 43.3071 27.4802 43.0786 27.4316 42.8579C27.3911 42.6741 27.3524 42.4991 27.3015 42.1912C27.266 42.0165 27.3005 41.8348 27.3977 41.6853C27.3159 41.5372 27.2607 41.376 27.2347 41.2089C27.086 41.3365 26.9737 41.5013 26.9093 41.6864C26.845 41.8715 26.8308 42.0704 26.8683 42.2628C26.98 42.9379 27.0339 42.995 27.1717 43.8324C27.2283 44.0976 27.3785 44.3336 27.5948 44.4972C27.8112 44.6608 28.0792 44.7409 28.3498 44.723C28.3951 45.869 28.5336 46.0722 28.9065 46.4601C29.0747 46.6351 29.2206 46.7884 29.3573 46.932L29.3679 46.6718C29.3735 46.5775 29.41 46.4877 29.4717 46.4162Z" fill="#161616"/>
<path d="M37.4451 42.1912C37.3942 42.4974 37.3559 42.6724 37.3155 42.8551C37.2669 43.0764 37.2169 43.3052 37.142 43.7612C37.1194 43.8999 37.0588 44.2681 36.3234 44.3539C36.2165 44.3665 36.1179 44.4178 36.0463 44.4982C35.9747 44.5787 35.9352 44.6826 35.9351 44.7902V45.077C35.9351 45.6028 35.757 45.8939 35.2055 46.4762C35.2414 46.5354 35.2623 46.6024 35.2666 46.6716L35.2814 47.0312C36.0219 46.2768 36.3743 45.8654 36.3743 45.0769V44.7901C36.6541 44.793 36.9264 44.6994 37.1452 44.5249C37.364 44.3504 37.5159 44.1059 37.5754 43.8324C37.7126 42.995 37.7665 42.9379 37.8781 42.2629C37.9141 42.0788 37.9024 41.8885 37.8443 41.7102C37.7861 41.5318 37.6835 41.3713 37.546 41.2437C37.4951 41.3953 37.4276 41.541 37.3449 41.678C37.3948 41.7527 37.4293 41.8365 37.4464 41.9246C37.4636 42.0127 37.4632 42.1033 37.4451 42.1912Z" fill="#161616"/>
<path d="M32.3793 48.3181V48.3172C33.1616 48.3172 33.8252 48.3953 34.4369 47.8741L34.4129 47.29C34.3666 47.3377 34.3223 47.383 34.2739 47.4333C33.8279 47.8973 33.3696 47.8899 32.6768 47.8808C32.5793 47.8793 32.4804 47.8779 32.3792 47.8779C32.3683 47.8779 32.3571 47.8782 32.3466 47.879L32.1138 47.8796C31.094 47.8784 30.9085 47.8804 30.2256 47.1992L30.2017 47.7874C30.8333 48.3625 31.1161 48.3181 32.3793 48.3181Z" fill="#161616"/>
<path d="M35.2055 46.4762C35.0962 46.5916 34.9755 46.7163 34.8347 46.8593L34.8595 47.4618C35.0118 47.3063 35.1531 47.162 35.2814 47.0312L35.2667 46.6716C35.2624 46.6025 35.2414 46.5354 35.2055 46.4762Z" fill="#161616"/>
<path d="M29.6789 46.6333C29.6167 46.5679 29.54 46.4879 29.4717 46.4163C29.41 46.4878 29.3735 46.5776 29.3679 46.6719L29.3573 46.9321C29.5134 47.0961 29.6552 47.245 29.779 47.3724L29.8037 46.7642C29.7627 46.7211 29.7232 46.6798 29.6789 46.6333Z" fill="#161616"/>
<path d="M34.8029 46.8918C34.6828 47.0133 34.5508 47.1479 34.413 47.29L34.4369 47.8741C34.4904 47.8314 34.5417 47.7859 34.5904 47.7378C34.6865 47.6377 34.7714 47.5517 34.8594 47.4618L34.8347 46.8593L34.8029 46.8918Z" fill="#161616"/>
<path d="M30.2018 47.7875L30.2256 47.1993C30.1041 47.078 29.9643 46.9326 29.8037 46.7642L29.779 47.3724C29.9403 47.5386 30.0776 47.6744 30.2018 47.7875Z" fill="#161616"/>
<path d="M28.3488 37.032L32.3054 37.0157C32.3194 37.0138 32.3336 37.0131 32.3477 37.0138L36.3763 37.0312C36.4924 37.0317 36.6036 37.0782 36.6855 37.1605C36.7675 37.2428 36.8135 37.3542 36.8135 37.4704V39.9686L37.1154 35.6991C37.1483 35.428 37.0769 35.1546 36.9156 34.9343C36.8409 34.872 36.7546 34.8251 36.6617 34.7963C36.5688 34.7675 36.4711 34.7573 36.3743 34.7664L31.1288 34.7675C29.7821 34.7472 28.726 35.1055 28.1344 35.7846C27.8808 36.1074 27.703 36.4832 27.6144 36.884C27.5258 37.2849 27.5286 37.7006 27.6226 38.1002L27.9061 39.8643C27.9092 39.1557 27.9114 38.3637 27.9114 37.4712C27.9114 37.355 27.9575 37.2436 28.0394 37.1613C28.1214 37.079 28.2327 37.0325 28.3488 37.032Z" fill="white"/>
<path d="M33.2939 37.8962L32.6076 37.8933C32.6209 37.9847 32.6285 38.0768 32.6302 38.1691L33.2939 37.8962Z" fill="white"/>
<path d="M35.1051 37.1516C35.1294 37.1416 35.1546 37.1339 35.1803 37.1284C35.2644 37.1102 35.3502 37.1009 35.4362 37.1007C35.6829 37.099 35.9225 37.183 36.1141 37.3383C36.1598 37.3787 36.2023 37.4226 36.241 37.4697L36.3743 37.4703V37.6504C36.5057 37.8643 36.5758 38.1103 36.577 38.3613V40.9112L36.7331 40.9164C36.738 40.9004 36.7453 40.8868 36.7497 40.8703L36.8134 39.9687V37.4704C36.8134 37.3543 36.7674 37.2429 36.6855 37.1606C36.6036 37.0783 36.4924 37.0318 36.3763 37.0312L32.3477 37.0138C32.3335 37.0131 32.3194 37.0138 32.3053 37.0158L28.3488 37.0321C28.2326 37.0326 28.1214 37.079 28.0394 37.1613C27.9574 37.2436 27.9114 37.3551 27.9113 37.4712C27.9113 38.3637 27.9091 39.1557 27.9061 39.8643L28.0809 40.9522L28.1544 40.9584V39.4492C28.1522 39.1162 28.2187 38.7864 28.3495 38.4801C28.3501 38.1584 28.3504 37.8227 28.3504 37.4713L29.1701 37.4679C29.4835 37.2613 29.85 37.1498 30.2253 37.1467H31.9314C31.983 37.1468 32.0342 37.1559 32.0826 37.1736C32.2303 37.2258 32.3574 37.3239 32.4452 37.4535L34.351 37.4617L35.1051 37.1516Z" fill="white"/>
<path d="M36.241 37.4697C36.291 37.5257 36.3356 37.5862 36.3743 37.6504V37.4703L36.241 37.4697Z" fill="white"/>
<path d="M36.577 41.2526C36.6449 41.1486 36.6975 41.0354 36.7331 40.9165L36.577 40.9113V41.2526Z" fill="white"/>
<path d="M28.3495 38.4802C28.5175 38.0693 28.8029 37.7172 29.1701 37.4679L28.3505 37.4713C28.3505 37.8228 28.3501 38.1585 28.3495 38.4802Z" fill="white"/>
<path d="M34.351 37.4617L32.4453 37.4535C32.5317 37.5861 32.5872 37.7364 32.6076 37.8934L33.2939 37.8963L34.351 37.4617Z" fill="white"/>
<path d="M28.0981 41.0587C28.1066 41.1229 28.1257 41.1853 28.1544 41.2434V40.9584L28.0809 40.9521L28.0981 41.0587Z" fill="white"/>
<path d="M27.1886 38.168C26.7707 35.4969 28.6429 34.2849 31.1287 34.3283L36.3743 34.3274C37.362 34.3274 37.5668 35.0231 37.5534 35.7301L37.2134 40.5412C37.3638 40.5929 37.5068 40.6643 37.6384 40.7536L37.9926 35.7383C38.0183 35.4835 37.9916 35.2262 37.9141 34.9821C37.8367 34.738 37.7101 34.5124 37.5423 34.319C37.3873 34.1712 37.2038 34.0568 37.0029 33.9826C36.802 33.9085 36.5881 33.8764 36.3743 33.8881L31.1365 33.8892C29.5351 33.8604 28.237 34.3296 27.4719 35.2076C27.1341 35.6273 26.8945 36.1173 26.7704 36.6415C26.6463 37.1658 26.641 37.7112 26.7548 38.2378L27.1543 40.7217C27.2834 40.6401 27.4224 40.5752 27.5679 40.5286L27.1886 38.168Z" fill="#161616"/>
<path d="M28.5653 42.5668C28.5736 42.5668 28.5818 42.5665 28.5899 42.566C28.7092 42.5607 28.8219 42.5095 28.9044 42.4232C28.9869 42.3368 29.0329 42.2219 29.0327 42.1025V39.4432C29.0081 39.0971 29.1197 38.7551 29.3437 38.4902C29.5676 38.2252 29.8863 38.0583 30.2316 38.025H31.7415C31.7506 38.1162 31.7545 38.2078 31.7533 38.2995C31.73 38.4428 31.7432 38.5897 31.7915 38.7266C31.8398 38.8636 31.9217 38.9862 32.0297 39.0832C32.1164 39.1391 32.2157 39.1722 32.3186 39.1793C32.4214 39.1864 32.5244 39.1673 32.6179 39.1238L35.3962 37.9816C35.425 37.9753 35.4548 37.9757 35.4835 37.9825C35.5121 37.9894 35.5389 38.0027 35.5617 38.0213C35.6069 38.0653 35.6425 38.1183 35.6661 38.1768C35.6897 38.2354 35.7008 38.2982 35.6987 38.3613V42.0705C35.6982 42.1869 35.7412 42.2993 35.8192 42.3857C35.8971 42.4722 36.0046 42.5265 36.1204 42.5379C36.3788 42.504 36.6251 42.4081 36.8383 42.2584C37.0516 42.1086 37.2254 41.9094 37.345 41.6779C37.2565 41.5542 37.1361 41.4567 36.9967 41.3958C36.6763 41.9481 36.1379 42.1939 36.1379 42.0704V41.2657C36.0766 41.2273 36.0258 41.1741 35.9904 41.111C35.955 41.0479 35.936 40.9769 35.9351 40.9045V37.9075L34.4373 37.9011L32.451 38.7176C32.0745 38.8625 32.2482 38.2858 32.1626 37.8945L29.3144 37.9064C29.0877 38.0834 28.9072 38.3127 28.7884 38.5748C28.7867 39.4837 28.783 40.2817 28.7788 40.9766C28.7784 41.0371 28.7655 41.097 28.7409 41.1523C28.7163 41.2076 28.6806 41.2573 28.6359 41.2982C28.6223 41.3073 28.6081 41.3156 28.5935 41.3231V42.1027C28.5935 42.2198 27.9729 41.9204 27.7432 41.3988C27.604 41.461 27.4845 41.56 27.3976 41.6853C27.5123 41.9114 27.6771 42.1083 27.8794 42.2611C28.0818 42.4139 28.3164 42.5185 28.5653 42.5668Z" fill="#161616"/>
<path d="M37.1853 40.9392C37.181 40.9573 37.1728 40.9721 37.168 40.9898C37.3076 41.0521 37.4355 41.138 37.546 41.2436C37.5718 41.1769 37.5941 41.1088 37.6127 41.0397C37.618 41.0168 37.6216 40.9935 37.6232 40.97L37.6385 40.7536C37.5068 40.6643 37.3639 40.5928 37.2134 40.5411L37.1853 40.9392Z" fill="#161616"/>
<path d="M27.2347 41.2089C27.354 41.1056 27.4908 41.0242 27.6385 40.9685L27.5679 40.5287C27.4224 40.5752 27.2834 40.6401 27.1543 40.7218L27.2286 41.1837C27.2297 41.1924 27.2334 41.2002 27.2347 41.2089Z" fill="#161616"/>
<path d="M27.7432 41.3989C27.7039 41.3131 27.6773 41.222 27.6642 41.1285L27.6385 40.9685C27.4908 41.0242 27.354 41.1056 27.2347 41.209C27.2607 41.3761 27.3158 41.5373 27.3976 41.6854C27.4845 41.5602 27.604 41.4611 27.7432 41.3989Z" fill="#161616"/>
<path d="M31.9314 37.5858H30.2317C29.8991 37.5899 29.5771 37.7025 29.3145 37.9065L32.1626 37.8946C32.1549 37.8273 32.1294 37.7632 32.0888 37.7089C32.0481 37.6547 31.9938 37.6122 31.9314 37.5858Z" fill="#161616"/>
<path d="M28.7788 40.9766C28.783 40.2818 28.7867 39.4838 28.7884 38.5748C28.6588 38.848 28.5922 39.1468 28.5935 39.4491V41.3231C28.6081 41.3157 28.6223 41.3074 28.6359 41.2983C28.6806 41.2574 28.7163 41.2077 28.7409 41.1524C28.7655 41.097 28.7784 41.0372 28.7788 40.9766Z" fill="#161616"/>
<path d="M37.345 41.6779C37.4277 41.5409 37.4951 41.3953 37.546 41.2436C37.4355 41.138 37.3076 41.0521 37.168 40.9899C37.129 41.1321 37.0714 41.2687 36.9967 41.3959C37.1361 41.4567 37.2565 41.5542 37.345 41.6779Z" fill="#161616"/>
<path d="M35.9352 40.9045C35.936 40.9769 35.955 41.0479 35.9905 41.111C36.0259 41.1741 36.0766 41.2273 36.1379 41.2657V38.3612C36.1498 38.2473 36.135 38.1321 36.0947 38.0248C36.0544 37.9176 35.9897 37.8212 35.9057 37.7432C35.8217 37.6653 35.7208 37.608 35.6108 37.5758C35.5008 37.5437 35.3849 37.5375 35.2721 37.5579L34.4373 37.9011L35.9352 37.9075V40.9045Z" fill="#161616"/>
<path d="M27.7967 40.4871L27.9031 40.4963C27.9041 40.2939 27.9051 40.0824 27.9061 39.8643L27.6226 38.1002C27.5286 37.7006 27.5258 37.2849 27.6144 36.884C27.703 36.4832 27.8807 36.1074 28.1344 35.7846C28.7259 35.1055 29.7821 34.7472 31.1288 34.7675L36.3743 34.7664C36.4711 34.7573 36.5688 34.7675 36.6617 34.7963C36.7546 34.8251 36.8408 34.872 36.9156 34.9343C37.0768 35.1546 37.1483 35.428 37.1154 35.6991L36.8135 39.9686V40.4797L37.0019 40.486C37.0367 40.487 37.0713 40.4923 37.1048 40.5017C37.1414 40.5118 37.1771 40.5285 37.2134 40.5412L37.5534 35.73C37.5668 35.0231 37.362 34.3273 36.3743 34.3273L31.1288 34.3283C28.643 34.2849 26.7707 35.4969 27.1886 38.1679L27.5679 40.5286C27.5928 40.5205 27.6171 40.5086 27.642 40.5017C27.6924 40.4881 27.7447 40.4832 27.7967 40.4871Z" fill="#161616"/>
<path d="M36.9967 41.3958C36.9646 41.3813 36.9355 41.3694 36.9133 41.3617L36.3597 41.3434C36.28 41.3388 36.2032 41.3119 36.1379 41.2657V42.0704C36.1379 42.1939 36.6763 41.9481 36.9967 41.3958Z" fill="#161616"/>
<path d="M32.4511 38.7176L34.4373 37.9011L33.2939 37.8962L32.6302 38.1691C32.6285 38.0768 32.6209 37.9847 32.6076 37.8933L32.3826 37.8923C32.3712 37.8932 32.3595 37.8938 32.3475 37.8938L32.1627 37.8945C32.2483 38.2859 32.0745 38.8625 32.4511 38.7176Z" fill="#161616"/>
<path d="M29.3145 37.9065L28.7895 37.9087C28.7893 38.1396 28.7889 38.3576 28.7885 38.5748C28.9072 38.3128 29.0877 38.0835 29.3145 37.9065Z" fill="#161616"/>
<path d="M28.5935 42.1027V41.3231C28.5099 41.3858 28.4069 41.4172 28.3025 41.4117L27.811 41.37C27.7915 41.3774 27.768 41.3874 27.7432 41.3988C27.9729 41.9205 28.5935 42.2198 28.5935 42.1027Z" fill="#161616"/>
<path d="M35.4362 37.1006C35.3502 37.1008 35.2644 37.1101 35.1803 37.1284C35.1546 37.1338 35.1294 37.1415 35.1051 37.1515L34.351 37.4616L36.241 37.4697C36.2023 37.4225 36.1599 37.3786 36.1141 37.3382C35.9225 37.1829 35.6829 37.0989 35.4362 37.1006Z" fill="#161616"/>
<path d="M36.3743 37.6504V40.9045L36.5771 40.9112V38.3613C36.5759 38.1102 36.5057 37.8643 36.3743 37.6504Z" fill="#161616"/>
<path d="M32.0827 37.1736C32.0342 37.1559 31.983 37.1468 31.9314 37.1467H30.2253C29.85 37.1498 29.4835 37.2613 29.1701 37.4678L32.3458 37.4547V37.4531L32.4453 37.4535C32.3574 37.3239 32.2303 37.2258 32.0827 37.1736Z" fill="#161616"/>
<path d="M28.1544 40.9584L28.3396 40.9741C28.3439 40.2545 28.3478 39.4302 28.3495 38.4801C28.2187 38.7863 28.1523 39.1162 28.1544 39.4492V40.9584Z" fill="#161616"/>
<path d="M28.0809 40.9521L27.9061 39.8643C27.9052 40.0823 27.9041 40.2938 27.9031 40.4962L27.7967 40.4871C27.7447 40.4832 27.6924 40.4881 27.642 40.5017C27.6171 40.5086 27.5928 40.5205 27.5679 40.5286L27.6385 40.9684C27.6789 40.9528 27.7193 40.9361 27.7596 40.9249L28.0809 40.9521Z" fill="#161616"/>
<path d="M37.0019 40.4859L36.8134 40.4797V39.9686L36.7497 40.8702C36.7453 40.8867 36.738 40.9004 36.7331 40.9164L36.9874 40.9249C37.0491 40.9422 37.1094 40.9639 37.168 40.9899C37.1728 40.9722 37.181 40.9573 37.1852 40.9392L37.2134 40.5412C37.1771 40.5285 37.1413 40.5118 37.1048 40.5017C37.0712 40.4923 37.0367 40.487 37.0019 40.4859Z" fill="#161616"/>
<path d="M27.7432 41.3988C27.768 41.3874 27.7915 41.3774 27.811 41.37L28.3025 41.4117C28.4069 41.4172 28.5099 41.3858 28.5935 41.3231V39.4491C28.5922 39.1467 28.6588 38.8479 28.7884 38.5748C28.7888 38.3575 28.7892 38.1395 28.7894 37.9086L29.3144 37.9064C29.577 37.7024 29.8991 37.5898 30.2316 37.5857H31.9314C31.9938 37.6121 32.0481 37.6546 32.0888 37.7088C32.1294 37.7631 32.1549 37.8272 32.1626 37.8945L32.3474 37.8938C32.3594 37.8938 32.3711 37.8932 32.3826 37.8923L32.6076 37.8933C32.5871 37.7364 32.5317 37.586 32.4452 37.4534L32.3458 37.453V37.4546L29.1701 37.4678C28.8029 37.7171 28.5174 38.0692 28.3495 38.48C28.3478 39.4302 28.3439 40.2545 28.3396 40.974L28.1544 40.9583V41.2433C28.1257 41.1852 28.1066 41.1228 28.098 41.0586L28.0809 40.9521L27.7596 40.9248C27.7193 40.936 27.6789 40.9528 27.6385 40.9684L27.6642 41.1284C27.6773 41.2219 27.7039 41.313 27.7432 41.3988Z" fill="#161616"/>
<path d="M36.7331 40.9165C36.6975 41.0354 36.6449 41.1486 36.577 41.2526V40.9113L36.3743 40.9045V37.6504C36.3356 37.5862 36.291 37.5257 36.241 37.4697L34.351 37.4617L33.2939 37.8963L34.4373 37.9012L35.2721 37.558C35.3849 37.5376 35.5008 37.5438 35.6108 37.5759C35.7208 37.6081 35.8217 37.6654 35.9057 37.7434C35.9897 37.8213 36.0544 37.9177 36.0947 38.0249C36.135 38.1322 36.1498 38.2474 36.1379 38.3613V41.2658C36.2032 41.312 36.28 41.3389 36.3597 41.3435L36.9133 41.3618C36.9355 41.3695 36.9646 41.3814 36.9967 41.3959C37.0714 41.2687 37.129 41.1322 37.168 40.9899C37.1095 40.9639 37.0491 40.9422 36.9875 40.9249L36.7331 40.9165Z" fill="#161616"/>
<path d="M118.278 11.5863C118.279 10.1567 117.997 8.74107 117.45 7.42023C116.903 6.09939 116.102 4.89927 115.091 3.88843C114.08 2.87759 112.88 2.07585 111.559 1.52901C110.238 0.98217 108.822 0.700949 107.392 0.701417H12.0545C10.6248 0.700892 9.20891 0.982052 7.88783 1.52884C6.56675 2.07562 5.36634 2.87731 4.35516 3.88813C3.34398 4.89894 2.54185 6.09906 1.99459 7.41994C1.44732 8.74082 1.16565 10.1566 1.16565 11.5863V25.6452H118.278V11.5863Z" fill="#CCBA96" stroke="black" stroke-linecap="round" stroke-linejoin="round"/>
<path d="M77.9336 14.7969C77.9351 15.746 77.6551 16.6742 77.1289 17.464C76.6027 18.2539 75.8541 18.8699 74.9777 19.2341C74.1013 19.5984 73.1366 19.6945 72.2056 19.5103C71.2746 19.326 70.4191 18.8698 69.7475 18.1992C69.0759 17.5287 68.6182 16.674 68.4325 15.7433C68.2468 14.8125 68.3413 13.8476 68.7042 12.9707C69.067 12.0937 69.6819 11.3441 70.4709 10.8167C71.2599 10.2892 72.1876 10.0077 73.1367 10.0077C74.4076 10.0074 75.6267 10.5117 76.5262 11.4097C77.4256 12.3077 77.9318 13.5259 77.9336 14.7969Z" fill="#161616"/>
<path d="M73.1367 19.7391C72.1602 19.7383 71.2059 19.448 70.3943 18.9049C69.5828 18.3618 68.9504 17.5904 68.5772 16.688C68.2039 15.7857 68.1065 14.7929 68.2973 13.8353C68.4881 12.8776 68.9585 11.998 69.6491 11.3075C70.3396 10.6171 71.2194 10.1469 72.1771 9.95632C73.1348 9.76573 74.1275 9.86331 75.0298 10.2367C75.932 10.6102 76.7034 11.2427 77.2463 12.0543C77.7892 12.866 78.0793 13.8204 78.08 14.7969C78.0783 16.1073 77.557 17.3636 76.6303 18.2902C75.7035 19.2167 74.4471 19.7378 73.1367 19.7391ZM73.1367 10.1541C72.2178 10.155 71.3198 10.4283 70.5563 10.9395C69.7927 11.4507 69.1979 12.1768 68.847 13.026C68.4961 13.8753 68.4049 14.8095 68.585 15.7106C68.765 16.6116 69.2082 17.4391 69.8585 18.0883C70.5088 18.7375 71.3369 19.1793 72.2383 19.3578C73.1397 19.5364 74.0737 19.4436 74.9224 19.0913C75.771 18.739 76.4962 18.143 77.0061 17.3786C77.516 16.6142 77.7878 15.7158 77.7872 14.7969C77.7848 13.5649 77.2938 12.3843 76.422 11.5139C75.5501 10.6435 74.3686 10.1545 73.1367 10.1541Z" fill="#161616"/>
<path d="M107.82 14.7969C107.821 15.7454 107.541 16.673 107.015 17.4622C106.489 18.2515 105.74 18.867 104.864 19.2308C103.988 19.5947 103.024 19.6906 102.094 19.5064C101.163 19.3222 100.308 18.8661 99.6371 18.196C98.9658 17.5258 98.5084 16.6716 98.3227 15.7414C98.137 14.8113 98.2314 13.8469 98.5938 12.9704C98.9563 12.0938 99.5706 11.3445 100.359 10.8171C101.147 10.2898 102.074 10.0081 103.023 10.0077C104.294 10.007 105.513 10.511 106.413 11.4091C107.313 12.3072 107.819 13.5258 107.82 14.7969Z" fill="#161616"/>
<path d="M103.023 19.7391C102.047 19.7383 101.092 19.448 100.281 18.9049C99.4691 18.3618 98.8368 17.5904 98.4635 16.688C98.0903 15.7857 97.9929 14.7929 98.1837 13.8353C98.3745 12.8776 98.8449 11.998 99.5354 11.3075C100.226 10.6171 101.106 10.1469 102.063 9.95632C103.021 9.76573 104.014 9.86331 104.916 10.2367C105.818 10.6102 106.59 11.2427 107.133 12.0543C107.676 12.866 107.966 13.8204 107.966 14.7969C107.965 16.1075 107.444 17.3641 106.517 18.2907C105.59 19.2174 104.334 19.7383 103.023 19.7391ZM103.023 10.1541C102.104 10.155 101.206 10.4283 100.443 10.9395C99.6791 11.4507 99.0843 12.1768 98.7334 13.026C98.3825 13.8753 98.2913 14.8095 98.4713 15.7106C98.6514 16.6116 99.0945 17.4391 99.7448 18.0883C100.395 18.7375 101.223 19.1793 102.125 19.3578C103.026 19.5364 103.96 19.4436 104.809 19.0913C105.657 18.739 106.383 18.143 106.892 17.3786C107.402 16.6142 107.674 15.7158 107.674 14.7969C107.672 13.5648 107.181 12.3839 106.309 11.5134C105.437 10.6429 104.255 10.154 103.023 10.1541Z" fill="#161616"/>
<path d="M92.8782 14.7969C92.8798 15.7462 92.5998 16.6746 92.0735 17.4647C91.5472 18.2548 90.7984 18.8709 89.9218 19.2352C89.0452 19.5995 88.0802 19.6955 87.149 19.5112C86.2178 19.3268 85.3622 18.8703 84.6905 18.1994C84.0189 17.5286 83.5614 16.6735 83.3759 15.7425C83.1904 14.8115 83.2853 13.8464 83.6485 12.9694C84.0117 12.0923 84.627 11.3428 85.4164 10.8156C86.2059 10.2884 87.134 10.0072 88.0833 10.0077C89.354 10.0077 90.5727 10.5121 91.4718 11.4101C92.3709 12.3081 92.8767 13.5262 92.8782 14.7969Z" fill="#161616"/>
<path d="M88.0832 19.7391C87.1066 19.7386 86.1521 19.4486 85.3403 18.9057C84.5286 18.3629 83.8959 17.5915 83.5224 16.6892C83.1489 15.7869 83.0513 14.7941 83.2419 13.8363C83.4325 12.8785 83.9027 11.9987 84.5932 11.3082C85.2837 10.6176 86.1634 10.1472 87.1212 9.95645C88.079 9.76571 89.0718 9.86319 89.9741 10.2366C90.8765 10.6099 91.648 11.2425 92.1909 12.0542C92.7339 12.8659 93.0241 13.8203 93.0247 14.7969C93.0228 16.1069 92.5015 17.3628 91.5753 18.2892C90.649 19.2156 89.3932 19.737 88.0832 19.7391ZM88.0832 10.1541C87.1642 10.1546 86.2661 10.4277 85.5023 10.9386C84.7385 11.4496 84.1434 12.1756 83.7923 13.0249C83.4411 13.8741 83.3497 14.8083 83.5295 15.7095C83.7094 16.6107 84.1524 17.4383 84.8026 18.0877C85.4529 18.737 86.281 19.179 87.1824 19.3577C88.0839 19.5364 89.018 19.4437 89.8668 19.0915C90.7155 18.7392 91.4408 18.1432 91.9508 17.3788C92.4608 16.6143 92.7326 15.7158 92.732 14.7969C92.7292 13.5654 92.2383 12.3852 91.3669 11.5149C90.4955 10.6447 89.3147 10.1553 88.0832 10.1541Z" fill="#161616"/>
</g>
<defs>
<clipPath id="clip0_23_214">
<rect width="118.516" height="100" fill="white" transform="translate(0.464233)"/>
</clipPath>
</defs>
</svg>
