<svg width="60" height="100" viewBox="0 0 60 100" fill="none" xmlns="http://www.w3.org/2000/svg">
<g clip-path="url(#clip0_23_45)">
<path d="M6.33523 48.242C8.6 45.1583 14.6226 35.3411 14.6226 35.3411C15.5079 34.4644 17.6585 33.0731 19.368 34.4707C21.1086 35.8948 19.3112 40.1779 19.3112 40.1779C20.4176 38.912 23.9322 34.2866 26.271 36.7765C27.9574 38.5718 26.4293 40.6523 26.4293 40.6523C26.8357 40.3187 27.3506 40.1464 27.8759 40.1682C28.4012 40.1901 28.9 40.4045 29.2773 40.7707C31.0546 42.3462 29.0392 45.0412 29.0392 45.0412L27.9173 46.8457C27.9173 46.8457 29.0816 45.9449 30.4493 47.3994C31.6887 48.719 29.9891 51.0929 29.9891 51.0929L23.3499 61.4939C23.3665 64.9933 23.3499 66.2904 23.3499 69.1256C23.3499 76.0854 19.6278 76.9951 19.6278 76.9951V88.4234L3.68984 88.4629V57.1433C3.68984 57.1433 3.36466 52.2852 6.33523 48.242Z" fill="white"/>
<path d="M3.31761 88.8361V57.1552C3.21677 53.8975 4.16987 50.6943 6.03522 48.0217C8.26505 44.9857 14.2453 35.2446 14.3054 35.1466L14.3606 35.0767C16.6227 32.8371 18.7207 33.4607 19.6034 34.1827C20.7678 35.1352 20.5766 37.0996 20.2231 38.5523C21.4019 37.2481 23.0366 35.7224 24.6384 35.6807C24.9979 35.6734 25.3546 35.7449 25.6835 35.8902C26.0125 36.0355 26.3056 36.2511 26.5423 36.5218C26.9595 36.9551 27.2464 37.497 27.3704 38.0856C27.4943 38.6743 27.4503 39.2859 27.2433 39.8507C27.6468 39.7597 28.0666 39.7707 28.4648 39.8827C28.863 39.9947 29.227 40.2041 29.524 40.492C30.37 41.2421 30.5963 42.3207 30.1788 43.6115C29.9832 44.1953 29.7031 44.7473 29.3476 45.25L28.7585 46.1976C29.1347 46.2034 29.5051 46.2912 29.8439 46.4547C30.1827 46.6183 30.4818 46.8537 30.7204 47.1446C32.153 48.6697 30.3683 51.2026 30.2917 51.3096L23.7226 61.6019C23.7328 63.8272 23.7294 65.1669 23.726 66.5837C23.7241 67.3503 23.7222 68.1462 23.7222 69.1257C23.7222 75.2475 20.9207 76.887 20.0001 77.2602V88.7947L3.31761 88.8361ZM14.9153 35.5759C14.4912 36.266 8.80955 45.5018 6.63521 48.4623V48.4624C3.78431 52.3428 4.05814 57.0714 4.06129 57.1187L4.062 88.0897L19.2557 88.0522V76.7029L19.5395 76.6336C19.6776 76.598 22.9777 75.6696 22.9777 69.1257C22.9777 68.1455 22.9797 67.3491 22.9816 66.5819C22.9853 65.1433 22.9884 63.7844 22.9777 61.4957L22.9772 61.3862L29.6752 50.8927C29.7014 50.8552 31.1926 48.7346 30.1778 47.6543C29.0902 46.4976 28.2361 47.0731 28.142 47.1424L27.6014 46.6492L28.7408 44.8187C28.7588 44.7944 30.5287 42.3775 29.0304 41.0492C28.7226 40.7393 28.3101 40.5556 27.8739 40.5343C27.4376 40.513 27.0091 40.6555 26.6726 40.934L26.1293 40.4321C26.1834 40.3577 27.4488 38.5739 25.9997 37.0313C25.8343 36.8379 25.6283 36.6832 25.3964 36.5784C25.1644 36.4735 24.9122 36.4211 24.6577 36.4248C22.9385 36.4695 20.8964 38.8838 19.915 40.044C19.7919 40.1894 19.6834 40.3176 19.5915 40.423L18.9678 40.0341C19.4372 38.9134 20.3815 35.7811 19.1321 34.7589C17.3865 33.3306 15.2114 35.294 14.9153 35.5759Z" fill="#161616"/>
<path d="M21.1581 90.7769C21.2259 90.7769 21.2931 90.7635 21.3558 90.7375C21.4184 90.7115 21.4753 90.6734 21.5232 90.6253C21.5711 90.5772 21.6091 90.5202 21.6349 90.4575C21.6607 90.3947 21.6739 90.3275 21.6737 90.2596L21.6484 82.1251C21.6482 82.0572 21.6346 81.9901 21.6085 81.9275C21.5823 81.8649 21.5441 81.808 21.496 81.7602C21.4478 81.7124 21.3908 81.6745 21.328 81.6488C21.2652 81.623 21.198 81.6099 21.1302 81.6101L1.97011 81.6649C1.83295 81.6655 1.70165 81.7206 1.60507 81.818C1.50849 81.9153 1.45452 82.0471 1.45503 82.1843L1.47965 90.3186C1.47994 90.3864 1.49358 90.4534 1.51979 90.5159C1.54601 90.5785 1.58428 90.6352 1.63243 90.6829C1.68058 90.7307 1.73766 90.7684 1.80041 90.7941C1.86316 90.8197 1.93036 90.8328 1.99815 90.8325L21.1581 90.7769Z" fill="white"/>
<path d="M1.99623 91.2045C1.76136 91.2043 1.53611 91.1112 1.3696 90.9456C1.20309 90.7799 1.10884 90.5552 1.1074 90.3203L1.08293 82.1854C1.08249 82.0686 1.10507 81.9528 1.14936 81.8448C1.19366 81.7367 1.25882 81.6384 1.34111 81.5555C1.4234 81.4726 1.52121 81.4067 1.62896 81.3616C1.73671 81.3165 1.85229 81.2931 1.96909 81.2927L21.1291 81.2379H21.1313C21.3667 81.2377 21.5926 81.3309 21.7593 81.4971C21.9261 81.6633 22.02 81.8889 22.0206 82.1243L22.0458 90.2583C22.046 90.4939 21.9527 90.7199 21.7865 90.8869C21.6203 91.0539 21.3947 91.1481 21.1591 91.149L1.99914 91.2046L1.99623 91.2045ZM21.1315 81.9823H21.131L1.971 82.0371C1.93277 82.0374 1.8962 82.0528 1.86928 82.0799C1.84236 82.1071 1.82727 82.1438 1.82731 82.182L1.85181 90.3174C1.85219 90.3555 1.86761 90.3919 1.89471 90.4186C1.92182 90.4453 1.9584 90.4603 1.99647 90.4601H1.99697L21.1572 90.4046C21.1762 90.4048 21.1951 90.4012 21.2126 90.394C21.2302 90.3868 21.2462 90.3762 21.2596 90.3627C21.2731 90.3493 21.2837 90.3333 21.2908 90.3157C21.298 90.2981 21.3016 90.2792 21.3014 90.2602L21.2762 82.1263C21.2761 82.088 21.2608 82.0513 21.2336 82.0244C21.2065 81.9974 21.1698 81.9823 21.1315 81.9823L21.1315 81.9823Z" fill="#161616"/>
<g opacity="0.12">
<path opacity="0.12" d="M30.4493 47.3994C29.0816 45.9449 27.9173 46.8457 27.9173 46.8457L29.0392 45.0413C29.0392 45.0413 31.0546 42.3462 29.2773 40.7707C28.9 40.4046 28.4012 40.1901 27.8759 40.1683C27.3506 40.1464 26.8357 40.3187 26.4293 40.6523C26.4293 40.6523 27.9574 38.5718 26.271 36.7765C24.8556 35.2699 23.0105 36.3692 21.5283 37.7525C22.0944 39.2486 21.065 40.6523 21.065 40.6523C21.4713 40.3187 21.9862 40.1464 22.5115 40.1683C23.0368 40.1901 23.5357 40.4046 23.9129 40.7707C25.6903 42.3462 23.6748 45.0413 23.6748 45.0413L22.553 46.8457C22.553 46.8457 23.7173 45.9449 25.0849 47.3994C26.3244 48.719 24.6247 51.0929 24.6247 51.0929L17.9855 61.494C18.0022 64.9934 17.9855 66.2905 17.9855 69.1256C17.9855 76.0854 14.2635 76.9951 14.2635 76.9951V81.6142L15.7658 81.6101C15.8336 81.6098 15.9009 81.623 15.9636 81.6487C16.0264 81.6745 16.0835 81.7123 16.1316 81.7602C16.1797 81.808 16.2179 81.8648 16.2441 81.9274C16.2702 81.99 16.2838 82.0572 16.284 82.125L16.3093 90.2596C16.3095 90.3274 16.2963 90.3946 16.2705 90.4574C16.2447 90.5202 16.2068 90.5772 16.1589 90.6253C16.111 90.6733 16.054 90.7114 15.9914 90.7375C15.9287 90.7635 15.8615 90.7769 15.7937 90.7769L1.8775 90.8172C1.91699 90.8269 1.95746 90.832 1.99812 90.8324L21.158 90.7769C21.2259 90.7769 21.2931 90.7635 21.3557 90.7375C21.4184 90.7114 21.4753 90.6733 21.5232 90.6253C21.5711 90.5772 21.6091 90.5202 21.6349 90.4574C21.6607 90.3946 21.6739 90.3274 21.6737 90.2596L21.6484 82.125C21.6482 82.0572 21.6346 81.99 21.6085 81.9274C21.5823 81.8648 21.5441 81.808 21.496 81.7602C21.4478 81.7123 21.3908 81.6745 21.328 81.6487C21.2652 81.6229 21.198 81.6098 21.1302 81.6101L19.6278 81.6142V76.9951C19.6278 76.9951 23.3499 76.0854 23.3499 69.1256C23.3499 66.2904 23.3665 64.9934 23.3499 61.494L29.9891 51.0929C29.9891 51.0929 31.6887 48.719 30.4493 47.3994Z" fill="#030A0F"/>
</g>
<path d="M24.0711 99.5568L24.0233 88.9813C24.0232 88.9136 24.0097 88.8465 23.9836 88.784C23.9575 88.7215 23.9194 88.6647 23.8713 88.617C23.8233 88.5692 23.7663 88.5314 23.7036 88.5057C23.6409 88.48 23.5738 88.4669 23.506 88.4672L0.887428 88.5324C0.750602 88.5331 0.619627 88.588 0.523098 88.685C0.426569 88.7819 0.372324 88.9132 0.372208 89.05L0.419363 99.6265L24.0711 99.5568Z" fill="#CCBA96"/>
<path d="M0.04895 100L0 89.0518C0.000112946 88.8164 0.0932773 88.5906 0.259184 88.4236C0.425091 88.2566 0.650286 88.1619 0.88568 88.1603L23.505 88.0948H23.5079C23.743 88.0949 23.9685 88.1881 24.1349 88.3542C24.3013 88.5202 24.395 88.7455 24.3956 88.9805L24.445 99.9278L0.04895 100ZM23.5077 88.8393H23.5072L0.88833 88.9047C0.850031 88.9051 0.813439 88.9206 0.786492 88.9478C0.759545 88.975 0.744417 89.0118 0.74439 89.0501L0.78995 99.2532L23.6972 99.1858L23.6511 88.983C23.6512 88.9641 23.6476 88.9454 23.6404 88.9279C23.6332 88.9105 23.6226 88.8946 23.6093 88.8813C23.596 88.8679 23.5801 88.8573 23.5627 88.8501C23.5453 88.8429 23.5266 88.8392 23.5077 88.8393H23.5077Z" fill="#161616"/>
<path d="M20.0779 0.372192H52.1016C54.0198 0.372192 55.8594 1.13418 57.2157 2.49053C58.5721 3.84687 59.3341 5.68647 59.3341 7.60464V62.187C59.3341 64.1054 58.572 65.9452 57.2155 67.3017C55.859 68.6581 54.0192 69.4202 52.1008 69.4202H20.0779C18.1598 69.4202 16.3204 68.6583 14.9641 67.302C13.6079 65.9458 12.8459 64.1063 12.8459 62.1883V7.60413C12.8459 6.65441 13.033 5.714 13.3964 4.83658C13.7599 3.95916 14.2926 3.16192 14.9641 2.49037C15.6357 1.81883 16.4329 1.28613 17.3103 0.922689C18.1877 0.559251 19.1281 0.372192 20.0779 0.372192Z" fill="white"/>
<path d="M52.1022 69.7925H20.0784C18.0621 69.7901 16.1291 68.9881 14.7034 67.5623C13.2777 66.1365 12.4758 64.2033 12.4737 62.187V7.60363C12.4761 5.58758 13.2781 3.6548 14.7038 2.22934C16.1294 0.80387 18.0623 0.00212643 20.0784 0L52.1022 0C54.1181 0.00223641 56.0509 0.804038 57.4764 2.2295C58.902 3.65496 59.7039 5.58768 59.7062 7.60363V62.1871C59.7041 64.2033 58.9024 66.1363 57.4768 67.5621C56.0513 68.9879 54.1184 69.79 52.1022 69.7925ZM20.0784 0.744405C18.2597 0.746296 16.516 1.46954 15.2299 2.75545C13.9438 4.04136 13.2202 5.78493 13.2181 7.60363V62.1871C13.22 64.006 13.9434 65.7499 15.2295 67.0361C16.5156 68.3224 18.2594 69.046 20.0784 69.0481H52.1022C53.921 69.0459 55.6647 68.3222 56.9507 67.036C58.2367 65.7497 58.9599 64.0059 58.9618 62.1871V7.60363C58.9597 5.78503 58.2363 4.04153 56.9503 2.75561C55.6643 1.4697 53.9208 0.746406 52.1022 0.744405H20.0784Z" fill="#161616"/>
<path d="M20.0779 0.372192H52.1009C54.0192 0.372192 55.859 1.13426 57.2155 2.49075C58.572 3.84724 59.3341 5.68704 59.3341 7.60541V62.1878C59.3341 64.1059 58.5721 65.9455 57.2157 67.3019C55.8594 68.6582 54.0198 69.4202 52.1016 69.4202H20.0784C18.1602 69.4202 16.3206 68.6582 14.9643 67.3019C13.6079 65.9455 12.8459 64.1059 12.8459 62.1878V7.60413C12.8459 5.6861 13.6079 3.84663 14.9641 2.49038C16.3204 1.13413 18.1598 0.372192 20.0779 0.372192Z" fill="#161616"/>
<path d="M52.1022 69.7925H20.0784C18.0621 69.7901 16.1291 68.9881 14.7034 67.5623C13.2777 66.1365 12.4758 64.2033 12.4737 62.187V7.60363C12.4761 5.58758 13.2781 3.6548 14.7038 2.22934C16.1294 0.80387 18.0623 0.00212643 20.0784 0L52.1022 0C54.1181 0.00223641 56.0509 0.804038 57.4764 2.2295C58.902 3.65496 59.7039 5.58768 59.7062 7.60363V62.1871C59.7041 64.2033 58.9024 66.1363 57.4768 67.5621C56.0513 68.9879 54.1184 69.79 52.1022 69.7925ZM20.0784 0.744405C18.2597 0.746296 16.516 1.46954 15.2299 2.75545C13.9438 4.04136 13.2202 5.78493 13.2181 7.60363V62.1871C13.22 64.006 13.9434 65.7499 15.2295 67.0361C16.5156 68.3224 18.2594 69.046 20.0784 69.0481H52.1022C53.921 69.0459 55.6647 68.3222 56.9507 67.036C58.2367 65.7497 58.9599 64.0059 58.9618 62.1871V7.60363C58.9597 5.78503 58.2363 4.04153 56.9503 2.75561C55.6643 1.4697 53.9208 0.746406 52.1022 0.744405H20.0784Z" fill="#161616"/>
<path d="M55.2616 58.7854H16.7753V59.5298H55.2616V58.7854Z" fill="#161616"/>
<path d="M55.2616 6.34302H16.7753V7.08742H55.2616V6.34302Z" fill="#161616"/>
<path d="M36.0177 61.8125C35.5974 61.8127 35.1865 61.9376 34.8371 62.1713C34.4877 62.405 34.2155 62.7371 34.0548 63.1255C33.8942 63.514 33.8523 63.9413 33.9345 64.3536C34.0167 64.7658 34.2193 65.1444 34.5166 65.4415C34.814 65.7386 35.1928 65.9409 35.6051 66.0227C36.0174 66.1046 36.4447 66.0623 36.833 65.9013C37.2213 65.7403 37.5531 65.4678 37.7865 65.1182C38.0199 64.7686 38.1445 64.3576 38.1443 63.9373C38.1444 63.6581 38.0894 63.3816 37.9826 63.1237C37.8757 62.8657 37.719 62.6314 37.5215 62.434C37.324 62.2367 37.0895 62.0802 36.8315 61.9736C36.5734 61.8669 36.2969 61.8122 36.0177 61.8125Z" fill="#161616"/>
<path d="M36.0177 66.4355C35.5238 66.4353 35.041 66.2886 34.6305 66.0141C34.2199 65.7395 33.8999 65.3494 33.7111 64.893C33.5222 64.4366 33.4728 63.9345 33.5693 63.4501C33.6657 62.9657 33.9036 62.5208 34.2529 62.1716C34.6022 61.8223 35.0472 61.5845 35.5316 61.4882C36.016 61.3918 36.5181 61.4413 36.9745 61.6302C37.4308 61.8192 37.8209 62.1392 38.0953 62.5499C38.3698 62.9605 38.5164 63.4433 38.5165 63.9372C38.516 64.5997 38.2525 65.2349 37.784 65.7033C37.3155 66.1718 36.6802 66.4351 36.0177 66.4355ZM36.0177 62.1846C35.671 62.1848 35.3321 62.2879 35.0439 62.4807C34.7557 62.6735 34.5312 62.9474 34.3987 63.2679C34.2662 63.5883 34.2317 63.9408 34.2995 64.2808C34.3673 64.6209 34.5345 64.9332 34.7798 65.1782C35.0251 65.4233 35.3375 65.5901 35.6776 65.6576C36.0178 65.725 36.3702 65.6902 36.6905 65.5573C37.0108 65.4245 37.2845 65.1997 37.477 64.9113C37.6696 64.6229 37.7722 64.2839 37.7721 63.9372C37.7716 63.4722 37.5866 63.0264 37.2576 62.6978C36.9286 62.3692 36.4827 62.1846 36.0177 62.1846Z" fill="white"/>
<path d="M55.2228 6.89697H16.7707V58.751H55.2228V6.89697Z" fill="#CCBA96"/>
<path d="M7.58279 59.7799L19.1776 48.9257C19.1776 48.9257 21.3244 46.4449 23.5185 48.5676C25.383 50.3715 24.2337 52.8843 23.0457 54.2437L15.9892 62.9558V68.9276C15.9892 68.9276 16.3449 72.7759 14.8028 74.4561C14.0148 75.3682 13.0077 76.065 11.8764 76.4809" fill="white"/>
<path d="M11.991 76.835L11.7617 76.1269C12.8302 75.7272 13.7815 75.0662 14.5288 74.2043C15.9427 72.6635 15.6221 68.9987 15.6187 68.9619L15.617 68.9276V62.824L22.7563 54.0094C23.3969 53.297 23.8461 52.4335 24.0616 51.5C24.1764 51.0246 24.1626 50.5272 24.0217 50.0589C23.8807 49.5906 23.6177 49.1682 23.2596 48.8351C23.0399 48.5959 22.7725 48.4054 22.4748 48.2759C22.177 48.1463 21.8554 48.0805 21.5306 48.0828C20.7326 48.1873 19.998 48.5727 19.4585 49.1699L19.4321 49.1975L7.83713 60.0516L7.32825 59.5081L18.9107 48.666C19.5793 47.9214 20.4988 47.4491 21.4935 47.3394C21.9203 47.3305 22.3441 47.4114 22.7375 47.5769C23.1309 47.7424 23.4852 47.9888 23.7772 48.3001C25.6326 50.0953 24.8875 52.7018 23.326 54.4887L16.3615 63.0877V68.9111C16.3898 69.2388 16.6733 72.9685 15.0772 74.7079C14.246 75.6677 13.1838 76.3998 11.991 76.835Z" fill="#161616"/>
<path d="M23.3064 30.5503L24.7906 42.5196C24.8484 42.9829 25.0734 43.4091 25.4233 43.7182C25.7732 44.0273 26.224 44.1981 26.6908 44.1983H45.3022C45.769 44.1981 46.2197 44.0274 46.5696 43.7183C46.9195 43.4092 47.1444 42.9829 47.2021 42.5196L48.6866 30.5503H23.3064Z" fill="white"/>
<path d="M45.3022 44.5706H26.6908C26.1333 44.57 25.5951 44.366 25.1772 43.9968C24.7594 43.6277 24.4906 43.1187 24.4212 42.5655L22.937 30.5961C22.9305 30.5438 22.9352 30.4906 22.9508 30.4403C22.9664 30.3899 22.9925 30.3434 23.0274 30.3038C23.0624 30.2643 23.1053 30.2327 23.1534 30.211C23.2015 30.1893 23.2536 30.1781 23.3063 30.1781H48.6864C48.7392 30.1781 48.7913 30.1893 48.8394 30.211C48.8875 30.2327 48.9304 30.2643 48.9653 30.3038C49.0003 30.3434 49.0264 30.3899 49.042 30.4403C49.0575 30.4906 49.0622 30.5438 49.0557 30.5961L47.5713 42.5655C47.5022 43.1187 47.2335 43.6277 46.8157 43.9969C46.3979 44.3661 45.8597 44.5701 45.3022 44.5706ZM23.7275 30.9225L25.1599 42.4739C25.2067 42.847 25.3881 43.1903 25.6699 43.4392C25.9518 43.6882 26.3148 43.8258 26.6909 43.8262H45.3022C45.6782 43.8259 46.0412 43.6884 46.323 43.4394C46.6048 43.1905 46.786 42.8473 46.8327 42.4742L48.2653 30.9225H23.7275Z" fill="#161616"/>
<path d="M49.4759 28.068C49.4759 27.9791 49.4584 27.8911 49.4244 27.8089C49.3904 27.7268 49.3406 27.6522 49.2777 27.5893C49.2148 27.5264 49.1402 27.4766 49.0581 27.4426C48.9759 27.4086 48.8879 27.3911 48.799 27.3911H23.1943C23.1054 27.3911 23.0174 27.4086 22.9353 27.4426C22.8532 27.4766 22.7786 27.5265 22.7157 27.5894C22.6529 27.6522 22.603 27.7268 22.569 27.809C22.535 27.8911 22.5176 27.9791 22.5176 28.068V31.5085H49.4759V28.068Z" fill="white"/>
<path d="M49.4759 31.8807H22.5176C22.4189 31.8807 22.3242 31.8415 22.2544 31.7717C22.1846 31.7019 22.1454 31.6072 22.1454 31.5085V28.068C22.1457 27.7899 22.2563 27.5232 22.4529 27.3266C22.6496 27.1299 22.9162 27.0192 23.1944 27.0189H48.7991C49.0773 27.0192 49.3439 27.1299 49.5406 27.3266C49.7372 27.5232 49.8478 27.7899 49.8481 28.068V31.5085C49.8481 31.6072 49.8089 31.7019 49.7391 31.7717C49.6693 31.8415 49.5746 31.8807 49.4759 31.8807ZM22.8898 31.1363H49.1037V28.068C49.1037 27.9873 49.0715 27.9098 49.0144 27.8527C48.9573 27.7956 48.8799 27.7634 48.7991 27.7633H23.1944C23.1136 27.7634 23.0362 27.7956 22.9791 27.8527C22.922 27.9098 22.8899 27.9873 22.8898 28.068V31.1363Z" fill="#161616"/>
<path d="M46.1557 21.6735L39.1425 28.7014C39.0718 28.7721 39.0158 28.8561 38.9776 28.9485C38.9394 29.0409 38.9197 29.1399 38.9198 29.2399C38.9199 29.3399 38.9396 29.4388 38.9779 29.5312C39.0162 29.6235 39.0724 29.7074 39.1431 29.7781C39.2138 29.8488 39.2978 29.9048 39.3902 29.943C39.4826 29.9812 39.5816 30.0009 39.6816 30.0008C39.7815 30.0007 39.8805 29.981 39.9729 29.9427C40.0652 29.9044 40.1491 29.8482 40.2198 29.7775L47.233 22.749C47.3038 22.6783 47.3599 22.5943 47.3982 22.5019C47.4365 22.4095 47.4562 22.3104 47.4561 22.2104C47.4561 22.1104 47.4364 22.0113 47.398 21.9189C47.3597 21.8265 47.3035 21.7426 47.2327 21.6719C47.1619 21.6013 47.0779 21.5452 46.9854 21.5071C46.893 21.4689 46.7939 21.4493 46.6939 21.4495C46.5938 21.4496 46.4948 21.4695 46.4025 21.5079C46.3101 21.5464 46.2263 21.6026 46.1557 21.6735H46.1557Z" fill="#CCBA96"/>
<path d="M46.1557 21.6735C46.2263 21.6026 46.3101 21.5464 46.4025 21.5079C46.4948 21.4695 46.5938 21.4496 46.6939 21.4495C46.7939 21.4493 46.893 21.4689 46.9854 21.5071C47.0779 21.5452 47.1619 21.6013 47.2327 21.6719C47.3035 21.7426 47.3597 21.8265 47.398 21.9189C47.4363 22.0113 47.4561 22.1104 47.4561 22.2104C47.4561 22.3104 47.4364 22.4095 47.3982 22.5019C47.3599 22.5943 47.3037 22.6783 47.233 22.749L40.2198 29.7775C40.1491 29.8482 40.0652 29.9044 39.9729 29.9427C39.8805 29.981 39.7816 30.0007 39.6816 30.0008C39.5816 30.0009 39.4826 29.9812 39.3902 29.943C39.2978 29.9048 39.2138 29.8488 39.1431 29.7781C39.0724 29.7074 39.0162 29.6235 38.9779 29.5312C38.9396 29.4389 38.9199 29.3399 38.9198 29.2399C38.9197 29.1399 38.9394 29.0409 38.9776 28.9485C39.0158 28.8561 39.0718 28.7721 39.1425 28.7014L46.1557 21.6735Z" fill="#161616"/>
<path d="M25.8373 21.6735C25.7667 21.6026 25.6828 21.5463 25.5905 21.5078C25.4981 21.4693 25.3991 21.4494 25.299 21.4492C25.1989 21.449 25.0998 21.4686 25.0073 21.5068C24.9148 21.5449 24.8308 21.6009 24.7599 21.6716C24.6891 21.7423 24.6329 21.8262 24.5945 21.9186C24.5562 22.0111 24.5364 22.1101 24.5364 22.2102C24.5363 22.3103 24.556 22.4093 24.5943 22.5018C24.6326 22.5942 24.6887 22.6782 24.7595 22.749L31.7723 29.7775C31.843 29.8483 31.9269 29.9045 32.0193 29.9428C32.1116 29.9812 32.2107 30.001 32.3107 30.0011C32.4107 30.0012 32.5098 29.9816 32.6022 29.9434C32.6947 29.9052 32.7787 29.8492 32.8495 29.7785C32.9203 29.7079 32.9764 29.624 33.0148 29.5316C33.0532 29.4392 33.073 29.3402 33.0731 29.2402C33.0732 29.1402 33.0536 29.0411 33.0154 28.9487C32.9772 28.8562 32.9212 28.7722 32.8505 28.7014L25.8373 21.6735Z" fill="#161616"/>
<path d="M35.9969 42.4794C35.8982 42.4794 35.8035 42.4402 35.7337 42.3704C35.6639 42.3006 35.6247 42.2059 35.6247 42.1072V33.2061C35.6247 33.1074 35.6639 33.0127 35.7337 32.9429C35.8035 32.8731 35.8982 32.8339 35.9969 32.8339C36.0956 32.8339 36.1903 32.8731 36.2601 32.9429C36.3299 33.0127 36.3691 33.1074 36.3691 33.2061V42.1072C36.3691 42.2059 36.3299 42.3006 36.2601 42.3704C36.1903 42.4402 36.0956 42.4794 35.9969 42.4794Z" fill="#161616"/>
<path d="M32.5133 42.4794C32.4196 42.4793 32.3293 42.4438 32.2606 42.3801C32.1919 42.3163 32.1497 42.229 32.1425 42.1356L31.4626 33.2344C31.4554 33.1361 31.4874 33.039 31.5517 32.9643C31.616 32.8896 31.7073 32.8434 31.8056 32.8359C31.9038 32.8284 32.0011 32.8602 32.076 32.9243C32.1508 32.9883 32.1973 33.0795 32.2051 33.1777L32.885 42.0789C32.8925 42.1773 32.8606 42.2747 32.7963 42.3496C32.732 42.4245 32.6406 42.4708 32.5421 42.4783C32.5324 42.4791 32.523 42.4794 32.5133 42.4794Z" fill="#161616"/>
<path d="M29.0297 42.4795C28.9408 42.4794 28.8549 42.4474 28.7875 42.3895C28.7201 42.3315 28.6757 42.2513 28.6623 42.1635L27.3036 33.2623C27.2961 33.214 27.2982 33.1646 27.3098 33.1171C27.3214 33.0695 27.3423 33.0247 27.3712 32.9853C27.4002 32.9458 27.4366 32.9124 27.4785 32.887C27.5203 32.8617 27.5668 32.8448 27.6151 32.8374C27.6635 32.83 27.7129 32.8322 27.7604 32.8439C27.8079 32.8557 27.8527 32.8766 27.8921 32.9056C27.9315 32.9347 27.9648 32.9712 27.99 33.0131C28.0153 33.055 28.0321 33.1015 28.0393 33.1499L29.398 42.051C29.4129 42.1486 29.3885 42.2481 29.33 42.3277C29.2716 42.4072 29.184 42.4603 29.0864 42.4752C29.0676 42.4781 29.0487 42.4795 29.0297 42.4795Z" fill="#161616"/>
<path d="M39.4802 42.4794C39.4705 42.4794 39.4611 42.479 39.4514 42.4783C39.353 42.4708 39.2615 42.4245 39.1972 42.3496C39.1329 42.2747 39.101 42.1773 39.1085 42.0788L39.7882 33.1777C39.7919 33.129 39.8052 33.0814 39.8273 33.0378C39.8494 32.9942 39.8799 32.9553 39.917 32.9235C39.9541 32.8917 39.9971 32.8674 40.0436 32.8522C40.09 32.837 40.139 32.8311 40.1878 32.8348C40.2365 32.8385 40.2841 32.8518 40.3277 32.8739C40.3713 32.896 40.4102 32.9265 40.442 32.9636C40.4738 33.0007 40.4981 33.0437 40.5133 33.0902C40.5285 33.1366 40.5344 33.1857 40.5307 33.2344L39.851 42.1355C39.8438 42.229 39.8017 42.3163 39.7329 42.3801C39.6642 42.4438 39.574 42.4793 39.4802 42.4794Z" fill="#161616"/>
<path d="M42.9636 42.4795C42.9446 42.4795 42.9256 42.4781 42.9069 42.4752C42.8093 42.4603 42.7217 42.4072 42.6632 42.3277C42.6048 42.2481 42.5803 42.1486 42.5952 42.051L43.9542 33.1499C43.9615 33.1015 43.9782 33.055 44.0035 33.0131C44.0288 32.9712 44.062 32.9347 44.1014 32.9056C44.1409 32.8766 44.1856 32.8557 44.2331 32.8439C44.2806 32.8322 44.33 32.83 44.3784 32.8374C44.4268 32.8448 44.4732 32.8617 44.5151 32.887C44.5569 32.9124 44.5933 32.9458 44.6223 32.9853C44.6512 33.0247 44.6721 33.0695 44.6837 33.1171C44.6953 33.1646 44.6974 33.214 44.6899 33.2623L43.3309 42.1635C43.3175 42.2513 43.2731 42.3315 43.2057 42.3895C43.1384 42.4474 43.0525 42.4794 42.9636 42.4795Z" fill="#161616"/>
</g>
<defs>
<clipPath id="clip0_23_45">
<rect width="59.7062" height="100" fill="white"/>
</clipPath>
</defs>
</svg>
