<svg width="120" height="100" viewBox="0 0 120 100" fill="none" xmlns="http://www.w3.org/2000/svg">
<g clip-path="url(#clip0_23_2)">
<path d="M73.9418 84.0991V75.5778H46.3973V84.0991C46.3963 86.3249 45.582 88.4736 44.1075 90.1409C42.6331 91.8083 40.6001 92.8793 38.3911 93.1525V93.2261H81.948V93.1525C79.7393 92.8789 77.7066 91.8077 76.2322 90.1405C74.7578 88.4732 73.9432 86.3248 73.9418 84.0991Z" fill="#CCBA96"/>
<path d="M81.9479 93.6705H38.391C38.2731 93.6704 38.1601 93.6236 38.0767 93.5403C37.9934 93.4569 37.9466 93.3439 37.9465 93.226V93.1525C37.9465 93.0441 37.9861 92.9393 38.058 92.8581C38.1298 92.7768 38.2289 92.7247 38.3366 92.7115C40.4374 92.4503 42.3706 91.4311 43.773 89.8453C45.1754 88.2595 45.9506 86.2162 45.9529 84.0992V75.5778C45.9529 75.4599 45.9998 75.3469 46.0831 75.2635C46.1665 75.1802 46.2795 75.1333 46.3974 75.1333H73.9418C74.0597 75.1333 74.1727 75.1802 74.2561 75.2635C74.3394 75.3469 74.3862 75.4599 74.3863 75.5778V84.0992C74.3887 86.2161 75.1639 88.2593 76.5662 89.8451C77.9686 91.4308 79.9016 92.4501 82.0023 92.7115C82.11 92.7247 82.2091 92.7768 82.2809 92.8581C82.3528 92.9393 82.3924 93.044 82.3924 93.1525V93.226C82.3923 93.3439 82.3455 93.4569 82.2621 93.5403C82.1788 93.6236 82.0658 93.6704 81.9479 93.6705ZM41.2913 92.7815H79.0479C77.3918 92.0133 75.9896 90.7881 75.0062 89.2499C74.0229 87.7118 73.4994 85.9248 73.4973 84.0992V76.0222H46.8418V84.0992C46.8398 85.9248 46.3163 87.7118 45.333 89.25C44.3497 90.7881 42.9474 92.0134 41.2913 92.7815V92.7815Z" fill="#161616"/>
<path d="M5.37731 11.7642H114.963C116.148 11.7642 117.285 12.235 118.123 13.073C118.961 13.911 119.432 15.0477 119.432 16.2328V76.6927C119.432 77.8779 118.961 79.0145 118.123 79.8526C117.285 80.6906 116.148 81.1614 114.963 81.1614H5.37677C4.19173 81.1614 3.05523 80.6907 2.21727 79.8527C1.37932 79.0148 0.908569 77.8783 0.908569 76.6932V16.2329C0.908569 15.0477 1.37938 13.9111 2.21743 13.073C3.05548 12.235 4.19213 11.7642 5.37731 11.7642Z" fill="#161616"/>
<path d="M114.963 81.6058H5.37732C4.07475 81.6043 2.82596 81.0862 1.9049 80.1651C0.983838 79.244 0.46573 77.9953 0.464233 76.6927L0.464233 16.2328C0.465706 14.9302 0.983807 13.6814 1.90487 12.7603C2.82594 11.8393 4.07474 11.3212 5.37732 11.3197H114.963C116.266 11.3212 117.515 11.8393 118.436 12.7604C119.357 13.6814 119.875 14.9302 119.876 16.2328V76.6927C119.875 77.9952 119.357 79.244 118.436 80.1651C117.515 81.0861 116.266 81.6043 114.963 81.6058ZM5.37732 12.2086C4.31042 12.2098 3.28756 12.6342 2.53315 13.3886C1.77873 14.143 1.35437 15.1659 1.35315 16.2328V76.6927C1.35439 77.7596 1.77877 78.7824 2.53318 79.5368C3.28759 80.2912 4.31043 80.7156 5.37732 80.7168H114.963C116.03 80.7156 117.053 80.2912 117.807 79.5368C118.562 78.7824 118.986 77.7595 118.987 76.6927V16.2328C118.986 15.1659 118.562 14.1431 117.807 13.3886C117.053 12.6342 116.03 12.2099 114.963 12.2086H5.37732Z" fill="#161616"/>
<path d="M119.432 65.3771C119.432 65.9638 119.316 66.5448 119.091 67.0868C118.867 67.6289 118.538 68.1214 118.123 68.5362C117.708 68.951 117.215 69.2801 116.673 69.5045C116.131 69.7289 115.55 69.8444 114.963 69.8442H5.37725C4.19234 69.8443 3.05593 69.3737 2.21793 68.5359C1.37993 67.6982 0.908949 66.562 0.908569 65.3771V4.91044C0.909527 3.7258 1.38072 2.59 2.21863 1.75257C3.05654 0.91515 4.19262 0.44461 5.37725 0.444336H114.963C116.148 0.444352 117.284 0.914821 118.122 1.75231C118.96 2.5898 119.431 3.72575 119.432 4.91042V65.3771Z" fill="#CCBA96"/>
<path d="M114.963 70.2888H5.37732C4.07493 70.2876 2.82622 69.7697 1.90516 68.8489C0.984089 67.9281 0.465885 66.6796 0.464233 65.3772L0.464233 4.9105C0.46605 3.60826 0.984343 2.35992 1.90541 1.43934C2.82647 0.518765 4.07509 0.00112953 5.37732 0L114.963 0C116.266 0.00114025 117.514 0.518788 118.435 1.43937C119.356 2.35996 119.874 3.60829 119.876 4.9105V65.3772C119.875 66.6795 119.356 67.9281 118.435 68.8489C117.514 69.7697 116.266 70.2875 114.963 70.2888ZM5.37732 0.88892C4.31076 0.889793 3.2881 1.31369 2.53368 2.06762C1.77927 2.82155 1.35471 3.84394 1.35315 4.9105V65.3772C1.35455 66.4439 1.77902 67.4665 2.53344 68.2206C3.28785 68.9748 4.31061 69.3989 5.37732 69.3999H114.963C116.03 69.3989 117.053 68.9748 117.807 68.2206C118.561 67.4665 118.986 66.4438 118.987 65.3772V4.9105C118.986 3.84397 118.561 2.82159 117.807 2.06766C117.052 1.31373 116.03 0.88982 114.963 0.888935L5.37732 0.88892Z" fill="#161616"/>
<path d="M113.933 5.50928H6.40857V64.4825H113.933V5.50928Z" fill="white"/>
<path d="M113.933 64.9269H6.40863C6.29076 64.9269 6.17773 64.88 6.09439 64.7967C6.01104 64.7133 5.9642 64.6003 5.96417 64.4824V5.50916C5.96418 5.39128 6.01101 5.27824 6.09436 5.19489C6.17771 5.11154 6.29076 5.06471 6.40863 5.0647H113.933C114.051 5.06471 114.164 5.11154 114.247 5.19489C114.331 5.27824 114.378 5.39128 114.378 5.50916V64.4824C114.378 64.6003 114.331 64.7133 114.247 64.7967C114.164 64.88 114.051 64.9269 113.933 64.9269ZM6.85309 64.038H113.489V5.95362H6.85309V64.038Z" fill="#161616"/>
<path d="M89.7854 96.9234C89.7851 97.6212 89.5079 98.2903 89.0147 98.7839C88.5214 99.2774 87.8525 99.555 87.1547 99.5557H33.186C32.4877 99.5552 31.8182 99.2778 31.3241 98.7843C30.8301 98.2909 30.5519 97.6217 30.5506 96.9234V95.8588C30.5514 95.1604 30.8294 94.4908 31.3235 93.9971C31.8176 93.5035 32.4875 93.2262 33.186 93.2261H87.1547C87.5003 93.2262 87.8425 93.2944 88.1617 93.4268C88.481 93.5592 88.771 93.7531 89.0153 93.9976C89.2596 94.2421 89.4533 94.5323 89.5854 94.8516C89.7176 95.171 89.7855 95.5132 89.7854 95.8588V96.9234Z" fill="#161616"/>
<path d="M87.1547 100H33.1859C32.3699 99.9995 31.5873 99.6753 31.01 99.0986C30.4326 98.5218 30.1076 97.7396 30.1063 96.9235V95.859C30.1075 95.0428 30.4324 94.2604 31.0098 93.6835C31.5871 93.1066 32.3697 92.7822 33.1859 92.7816H87.1547C87.9703 92.7828 88.7521 93.1075 89.3286 93.6844C89.9051 94.2614 90.2292 95.0434 90.2298 95.859V96.9235C90.229 97.739 89.9048 98.5209 89.3284 99.0976C88.7519 99.6744 87.9702 99.9989 87.1547 100ZM33.1859 93.6706C32.6054 93.6709 32.0487 93.9015 31.638 94.3118C31.2273 94.722 30.9961 95.2785 30.9952 95.859V96.9235C30.9962 97.504 31.2275 98.0603 31.6382 98.4704C32.0489 98.8805 32.6055 99.1109 33.1859 99.1111H87.1547C87.7345 99.1103 88.2903 98.8795 88.7001 98.4694C89.11 98.0593 89.3404 97.5033 89.3408 96.9235V95.859C89.3405 95.2791 89.1101 94.723 88.7003 94.3127C88.2905 93.9025 87.7346 93.6715 87.1547 93.6705L33.1859 93.6706Z" fill="#161616"/>
<path d="M36.6051 18.1606C31.998 18.1574 27.5702 19.9455 24.2574 23.1471C24.0718 23.3387 23.9286 23.5673 23.8373 23.818C23.746 24.0686 23.7087 24.3358 23.7276 24.6019C23.7465 24.868 23.8214 25.1271 23.9473 25.3623C24.0732 25.5976 24.2473 25.8036 24.4582 25.967C24.892 26.3059 25.4332 26.4774 25.9831 26.4501C26.5329 26.4228 27.0545 26.1986 27.4527 25.8185C29.7469 23.7504 32.6738 22.52 35.7565 22.3277C38.8393 22.1354 41.8964 22.9926 44.4298 24.7596C46.9632 26.5265 48.8238 29.0993 49.7084 32.0587C50.5929 35.018 50.4495 38.1898 49.3013 41.0572C48.1531 43.9246 46.0679 46.3189 43.3853 47.8499C40.7027 49.3809 37.5807 49.9586 34.5279 49.4887C31.475 49.0189 28.6712 47.5292 26.5731 45.2624C24.475 42.9956 23.2061 40.0852 22.9733 37.0052H25.4511L21.0075 30.653L16.5634 37.0052H18.8254C19.0274 40.4779 20.2419 43.8153 22.319 46.6056C24.396 49.3959 27.2447 51.5169 30.5134 52.7068C33.7821 53.8967 37.3276 54.1033 40.7124 53.3012C44.0972 52.4991 47.1729 50.7234 49.5601 48.1933C51.9472 45.6632 53.5412 42.4894 54.1453 39.0637C54.7493 35.6381 54.337 32.1105 52.9592 28.9165C51.5815 25.7225 49.2985 23.0019 46.3922 21.0905C43.486 19.1791 40.0836 18.1605 36.6051 18.1606H36.6051Z" fill="white"/>
<path d="M36.6051 54.2275C32.0202 54.2246 27.604 52.4977 24.2334 49.3895C20.8629 46.2814 18.7844 42.0193 18.4108 37.4496H16.5635C16.4822 37.4496 16.4025 37.4273 16.333 37.3851C16.2635 37.343 16.2069 37.2825 16.1693 37.2104C16.1318 37.1383 16.1147 37.0573 16.12 36.9762C16.1252 36.895 16.1526 36.8169 16.1992 36.7503L20.6433 30.3982C20.6864 30.3426 20.7416 30.2977 20.8047 30.2668C20.8679 30.2359 20.9373 30.2198 21.0076 30.2198C21.0779 30.2198 21.1472 30.2359 21.2104 30.2668C21.2735 30.2977 21.3288 30.3426 21.3719 30.3982L25.8156 36.7505C25.8622 36.8172 25.8896 36.8953 25.8948 36.9764C25.9001 37.0575 25.883 37.1385 25.8454 37.2106C25.8079 37.2826 25.7513 37.343 25.6818 37.3852C25.6123 37.4273 25.5326 37.4496 25.4513 37.4496H23.4614C23.7914 40.4018 25.1047 43.1573 27.1901 45.2729C29.2754 47.3884 32.0117 48.7412 34.9588 49.1137C37.906 49.4861 40.8928 48.8566 43.4389 47.3263C45.985 45.796 47.9425 43.4539 48.9966 40.6766C50.0507 37.8993 50.1401 34.8482 49.2505 32.014C48.3609 29.1797 46.5439 26.727 44.0918 25.0502C41.6397 23.3734 38.6949 22.57 35.731 22.7692C32.7671 22.9684 29.9563 24.1586 27.7506 26.1484C27.2717 26.5975 26.648 26.8605 25.9921 26.89C25.3363 26.9194 24.6915 26.7133 24.1744 26.3089C23.9068 26.0886 23.6886 25.8145 23.5339 25.5044C23.3793 25.1942 23.2917 24.855 23.2768 24.5088C23.2626 24.1968 23.3152 23.8854 23.4311 23.5954C23.547 23.3055 23.7234 23.0436 23.9487 22.8273C26.1005 20.7554 28.7279 19.2433 31.6003 18.4238C34.4728 17.6042 37.5025 17.5021 40.4236 18.1265C43.3447 18.7509 46.0679 20.0827 48.3543 22.005C50.6407 23.9273 52.4203 26.3814 53.537 29.1519C54.6537 31.9225 55.0734 34.9247 54.7592 37.8952C54.445 40.8658 53.4065 43.7138 51.7349 46.1894C50.0633 48.665 47.8096 50.6924 45.1717 52.0939C42.5338 53.4954 39.5922 54.228 36.6051 54.2275L36.6051 54.2275ZM17.4169 36.5607H18.8255C18.9389 36.5607 19.0481 36.6041 19.1306 36.682C19.2131 36.7599 19.2626 36.8664 19.2691 36.9797C19.4952 40.9384 21.0679 44.7008 23.7263 47.6428C26.3846 50.5847 29.9689 52.5295 33.8844 53.1544C37.8 53.7793 41.8115 53.0468 45.2536 51.0784C48.6956 49.11 51.3613 46.0241 52.8084 42.3324C54.2554 38.6408 54.397 34.5654 53.2095 30.7823C52.022 26.9992 49.5768 23.7357 46.2797 21.5333C42.9825 19.3309 39.0314 18.3218 35.0819 18.6736C31.1325 19.0254 27.4219 20.7168 24.5659 23.4672C24.431 23.5971 24.3255 23.7543 24.2564 23.9283C24.1873 24.1022 24.1562 24.289 24.1651 24.4759C24.1752 24.6973 24.2319 24.9141 24.3314 25.1121C24.4308 25.3101 24.5709 25.485 24.7424 25.6253C25.0949 25.8937 25.5316 26.0274 25.974 26.0023C26.4164 25.9772 26.8352 25.795 27.1551 25.4884C29.5239 23.3531 32.5459 22.0827 35.7289 21.8841C38.9118 21.6856 42.0683 22.5706 44.6841 24.395C47.2999 26.2194 49.2209 28.8757 50.1342 31.9313C51.0476 34.9869 50.8994 38.2618 49.7139 41.2224C48.5284 44.1831 46.3754 46.6551 43.6055 48.2359C40.8357 49.8167 37.6122 50.4131 34.4602 49.9279C31.3081 49.4428 28.4132 47.9047 26.2469 45.5641C24.0806 43.2236 22.7706 40.2186 22.5302 37.0385C22.5256 36.9775 22.5337 36.9162 22.5539 36.8584C22.5741 36.8007 22.606 36.7477 22.6476 36.7029C22.6892 36.658 22.7397 36.6223 22.7957 36.5978C22.8518 36.5734 22.9123 36.5607 22.9735 36.5607H24.598L21.0076 31.4283L17.4169 36.5607Z" fill="#161616"/>
<path d="M36.6051 18.1606C31.998 18.1574 27.5702 19.9455 24.2574 23.1471C24.0718 23.3387 23.9286 23.5673 23.8373 23.818C23.746 24.0686 23.7087 24.3358 23.7276 24.6019C23.7465 24.868 23.8214 25.1271 23.9473 25.3623C24.0732 25.5976 24.2473 25.8036 24.4582 25.967C24.892 26.3059 25.4332 26.4774 25.9831 26.4501C26.5329 26.4228 27.0545 26.1986 27.4527 25.8185C29.7469 23.7504 32.6738 22.52 35.7565 22.3277C38.8393 22.1354 41.8964 22.9926 44.4298 24.7596C46.9632 26.5265 48.8238 29.0993 49.7084 32.0587C50.5929 35.018 50.4495 38.1898 49.3013 41.0572C48.1531 43.9246 46.0679 46.3189 43.3853 47.8499C40.7027 49.3809 37.5807 49.9586 34.5279 49.4887C31.475 49.0189 28.6712 47.5292 26.5731 45.2624C24.475 42.9956 23.2061 40.0852 22.9733 37.0052H25.4511L21.0075 30.653L16.5634 37.0052H18.8254C19.0274 40.4779 20.2419 43.8153 22.319 46.6056C24.396 49.3959 27.2447 51.5169 30.5134 52.7068C33.7821 53.8967 37.3276 54.1033 40.7124 53.3012C44.0972 52.4991 47.1729 50.7234 49.5601 48.1933C51.9472 45.6632 53.5412 42.4894 54.1453 39.0637C54.7493 35.6381 54.337 32.1105 52.9592 28.9165C51.5815 25.7225 49.2985 23.0019 46.3922 21.0905C43.486 19.1791 40.0836 18.1605 36.6051 18.1606H36.6051Z" fill="white"/>
<path d="M36.6051 54.2275C32.0202 54.2246 27.604 52.4977 24.2334 49.3895C20.8629 46.2814 18.7844 42.0193 18.4108 37.4496H16.5635C16.4822 37.4496 16.4025 37.4273 16.333 37.3851C16.2635 37.343 16.2069 37.2825 16.1693 37.2104C16.1318 37.1383 16.1147 37.0573 16.12 36.9762C16.1252 36.895 16.1526 36.8169 16.1992 36.7503L20.6433 30.3982C20.6864 30.3426 20.7416 30.2977 20.8047 30.2668C20.8679 30.2359 20.9373 30.2198 21.0076 30.2198C21.0779 30.2198 21.1472 30.2359 21.2104 30.2668C21.2735 30.2977 21.3288 30.3426 21.3719 30.3982L25.8156 36.7505C25.8622 36.8172 25.8896 36.8953 25.8948 36.9764C25.9001 37.0575 25.883 37.1385 25.8454 37.2106C25.8079 37.2826 25.7513 37.343 25.6818 37.3852C25.6123 37.4273 25.5326 37.4496 25.4513 37.4496H23.4614C23.7914 40.4018 25.1047 43.1573 27.1901 45.2729C29.2754 47.3884 32.0117 48.7412 34.9588 49.1137C37.906 49.4861 40.8928 48.8566 43.4389 47.3263C45.985 45.796 47.9425 43.4539 48.9966 40.6766C50.0507 37.8993 50.1401 34.8482 49.2505 32.014C48.3609 29.1797 46.5439 26.727 44.0918 25.0502C41.6397 23.3734 38.6949 22.57 35.731 22.7692C32.7671 22.9684 29.9563 24.1586 27.7506 26.1484C27.2717 26.5975 26.648 26.8605 25.9921 26.89C25.3363 26.9194 24.6915 26.7133 24.1744 26.3089C23.9068 26.0886 23.6886 25.8145 23.5339 25.5044C23.3793 25.1942 23.2917 24.855 23.2768 24.5088C23.2626 24.1968 23.3152 23.8854 23.4311 23.5954C23.547 23.3055 23.7234 23.0436 23.9487 22.8273C26.1005 20.7554 28.7279 19.2433 31.6003 18.4238C34.4728 17.6042 37.5025 17.5021 40.4236 18.1265C43.3447 18.7509 46.0679 20.0827 48.3543 22.005C50.6407 23.9273 52.4203 26.3814 53.537 29.1519C54.6537 31.9225 55.0734 34.9247 54.7592 37.8952C54.445 40.8658 53.4065 43.7138 51.7349 46.1894C50.0633 48.665 47.8096 50.6924 45.1717 52.0939C42.5338 53.4954 39.5922 54.228 36.6051 54.2275L36.6051 54.2275ZM17.4169 36.5607H18.8255C18.9389 36.5607 19.0481 36.6041 19.1306 36.682C19.2131 36.7599 19.2626 36.8664 19.2691 36.9797C19.4952 40.9384 21.0679 44.7008 23.7263 47.6428C26.3846 50.5847 29.9689 52.5295 33.8844 53.1544C37.8 53.7793 41.8115 53.0468 45.2536 51.0784C48.6956 49.11 51.3613 46.0241 52.8084 42.3324C54.2554 38.6408 54.397 34.5654 53.2095 30.7823C52.022 26.9992 49.5768 23.7357 46.2797 21.5333C42.9825 19.3309 39.0314 18.3218 35.0819 18.6736C31.1325 19.0254 27.4219 20.7168 24.5659 23.4672C24.431 23.5971 24.3255 23.7543 24.2564 23.9283C24.1873 24.1022 24.1562 24.289 24.1651 24.4759C24.1752 24.6973 24.2319 24.9141 24.3314 25.1121C24.4308 25.3101 24.5709 25.485 24.7424 25.6253C25.0949 25.8937 25.5316 26.0274 25.974 26.0023C26.4164 25.9772 26.8352 25.795 27.1551 25.4884C29.5239 23.3531 32.5459 22.0827 35.7289 21.8841C38.9118 21.6856 42.0683 22.5706 44.6841 24.395C47.2999 26.2194 49.2209 28.8757 50.1342 31.9313C51.0476 34.9869 50.8994 38.2618 49.7139 41.2224C48.5284 44.1831 46.3754 46.6551 43.6055 48.2359C40.8357 49.8167 37.6122 50.4131 34.4602 49.9279C31.3081 49.4428 28.4132 47.9047 26.2469 45.5641C24.0806 43.2236 22.7706 40.2186 22.5302 37.0385C22.5256 36.9775 22.5337 36.9162 22.5539 36.8584C22.5741 36.8007 22.606 36.7477 22.6476 36.7029C22.6892 36.658 22.7397 36.6223 22.7957 36.5978C22.8518 36.5734 22.9123 36.5607 22.9735 36.5607H24.598L21.0076 31.4283L17.4169 36.5607Z" fill="#161616"/>
<path d="M36.4848 41.281H29.6651V40.3301L33.2681 36.3269C33.6882 35.876 34.0585 35.3811 34.3726 34.8509C34.5703 34.4904 34.6748 34.0861 34.6764 33.6749C34.6951 33.1816 34.5176 32.701 34.1829 32.3381C34.0131 32.163 33.808 32.0259 33.5813 31.9358C33.3545 31.8458 33.1112 31.805 32.8675 31.8159C32.5871 31.799 32.3062 31.8401 32.0424 31.9367C31.7785 32.0333 31.5375 32.1833 31.3343 32.3773C31.1441 32.5883 30.9978 32.8351 30.9039 33.1033C30.81 33.3714 30.7704 33.6555 30.7873 33.9391H29.4648C29.4474 33.5086 29.5209 33.0793 29.6803 32.6791C29.8398 32.2788 30.0818 31.9167 30.3905 31.6161C30.7248 31.3127 31.1156 31.0781 31.5407 30.926C31.9657 30.7739 32.4166 30.7071 32.8675 30.7296C33.7012 30.6837 34.5213 30.9558 35.1623 31.4907C35.4424 31.7465 35.663 32.0605 35.8087 32.4107C35.9545 32.7608 36.0218 33.1386 36.006 33.5175C36.006 34.5421 35.3531 35.7621 34.0473 37.1777L31.2594 40.2017H36.4848V41.281Z" fill="#161616"/>
<path d="M43.469 37.7852H44.9131V38.8644H43.469V41.2809H42.1394V38.8644H37.3995V38.0856L42.0607 30.8726H43.469V37.7852ZM38.9008 37.7852H42.1394V32.681L41.982 32.9671L38.9008 37.7852Z" fill="#161616"/>
<path d="M80.5451 23.7982V14.7792C80.5451 11.9919 83.8731 9.73218 86.6604 9.73218H98.6152C99.9537 9.73221 101.237 10.264 102.184 11.2104C103.13 12.1569 103.662 13.4406 103.662 14.7792V23.9168" fill="white"/>
<path d="M103.662 24.3612C103.544 24.3612 103.431 24.3144 103.348 24.231C103.265 24.1477 103.218 24.0346 103.218 23.9167V14.7791C103.216 13.5588 102.731 12.389 101.868 11.5261C101.005 10.6633 99.8354 10.178 98.6152 10.1766H86.6604C83.5191 10.1766 80.9895 12.6944 80.9895 14.7791V23.7983C80.9891 23.9159 80.9421 24.0285 80.8588 24.1116C80.7755 24.1946 80.6627 24.2412 80.5451 24.2412C80.4274 24.2412 80.3146 24.1946 80.2313 24.1116C80.148 24.0285 80.101 23.9159 80.1006 23.7983V14.7791C80.1006 13.3413 80.8767 11.949 82.2856 10.8588C83.5387 9.88139 85.0718 9.33082 86.6605 9.28772H98.6152C100.071 9.28934 101.467 9.86841 102.496 10.8979C103.526 11.9274 104.105 13.3232 104.107 14.7791V23.9167C104.107 24.0346 104.06 24.1477 103.977 24.231C103.893 24.3144 103.78 24.3612 103.662 24.3612Z" fill="#161616"/>
<path d="M77.6907 56.7185C77.704 56.6017 77.7604 56.4942 77.8489 56.4169C77.9373 56.3395 78.0515 56.298 78.1689 56.3005C78.2835 56.3029 78.3926 56.3501 78.4729 56.4319C78.5532 56.5137 78.5984 56.6237 78.5987 56.7383V64.3013H89.3641C96.5181 54.0689 104.535 42.4479 104.137 42.3155L98.2378 40.7795C97.8104 40.6807 97.429 40.4398 97.1562 40.0963C96.8833 39.7527 96.735 39.3268 96.7355 38.888L96.5276 34.7336H87.4126L87.2001 39.0636C87.1789 39.4746 87.017 39.8657 86.7415 40.1714C86.466 40.477 86.0938 40.6786 85.6873 40.7423L76.3237 42.1931C75.063 42.4096 73.8957 42.9976 72.9713 43.8817C72.0468 44.7657 71.4074 45.9057 71.1348 47.1555L69.4075 64.3013H76.34L77.6907 56.7185Z" fill="white"/>
<path d="M89.364 64.7458H78.5988C78.481 64.7458 78.3679 64.6989 78.2846 64.6156C78.2012 64.5322 78.1544 64.4192 78.1544 64.3013V56.7383C78.1434 56.745 78.1355 56.7558 78.1324 56.7684C78.1315 56.7777 78.1301 56.7869 78.1283 56.7961L76.7776 64.3792C76.7593 64.4819 76.7055 64.575 76.6255 64.642C76.5455 64.709 76.4444 64.7458 76.3401 64.7458H69.4075C69.3454 64.7458 69.284 64.7327 69.2272 64.7075C69.1704 64.6823 69.1196 64.6455 69.0779 64.5994C69.0363 64.5533 69.0047 64.499 68.9854 64.44C68.966 64.381 68.9592 64.3186 68.9654 64.2568L70.6926 47.1109C70.694 47.0965 70.6961 47.0822 70.6989 47.0681C70.9942 45.7337 71.6785 44.5169 72.6653 43.5714C73.6521 42.6259 74.8971 41.9942 76.2428 41.7562L85.6193 40.303C85.9246 40.2545 86.2039 40.1028 86.4108 39.8732C86.6177 39.6436 86.7397 39.35 86.7562 39.0414L86.9686 34.7117C86.9742 34.5977 87.0234 34.4903 87.106 34.4116C87.1887 34.3329 87.2984 34.289 87.4125 34.2891H96.5277C96.6418 34.2891 96.7514 34.333 96.834 34.4116C96.9166 34.4902 96.9659 34.5975 96.9716 34.7114L97.1794 38.8658C97.1761 39.2019 97.2852 39.5294 97.4893 39.7965C97.6933 40.0636 97.9807 40.2549 98.3059 40.3401C98.3206 40.3424 98.3354 40.3456 98.3499 40.3493L104.249 41.8856C104.323 41.9066 104.391 41.9451 104.447 41.9979C104.503 42.0507 104.545 42.1162 104.571 42.1888C104.691 42.5508 104.827 42.9611 89.7283 64.556C89.6873 64.6146 89.6328 64.6624 89.5694 64.6955C89.506 64.7285 89.4355 64.7458 89.364 64.7458ZM79.0433 63.8569H89.1325C100.143 48.1054 102.914 43.7699 103.548 42.6205L98.1462 41.2148C97.6188 41.097 97.1474 40.8026 96.8101 40.3805C96.4728 39.9583 96.2897 39.4336 96.2911 38.8933L96.105 35.1778H87.8359L87.644 39.0854C87.6166 39.5981 87.4142 40.0859 87.0705 40.4674C86.7269 40.8489 86.2627 41.101 85.7556 41.1815L76.3919 42.6324C75.2263 42.8382 74.1474 43.3836 73.2905 44.2C72.4336 45.0165 71.8368 46.0677 71.5749 47.222L69.8992 63.8569H75.9677L77.2513 56.652C77.2793 56.4316 77.387 56.2289 77.554 56.0823C77.721 55.9357 77.9359 55.8552 78.1581 55.856H78.1784C78.4088 55.8622 78.6278 55.9577 78.7891 56.1223C78.9505 56.2869 79.0416 56.5078 79.0433 56.7383L79.0433 63.8569Z" fill="#161616"/>
<path d="M92.0266 17.9659V17.9684L84.7731 17.999V31.8094C84.7736 32.7442 85.1353 33.6427 85.7826 34.3171L88.0128 36.6401C88.3323 36.972 88.7153 37.2361 89.1391 37.4167C89.5629 37.5973 90.0188 37.6907 90.4794 37.6913H92.0867V37.6889H93.6329C94.0938 37.6884 94.5499 37.595 94.974 37.4144C95.3981 37.2338 95.7815 36.9696 96.1012 36.6376L98.3303 34.3157C98.9773 33.6406 99.3389 32.742 99.3399 31.8069V17.9976L92.0266 17.9659Z" fill="white"/>
<path d="M92.0869 38.1357H90.4795C89.9591 38.1345 89.4442 38.0287 88.9655 37.8247C88.4867 37.6206 88.0539 37.3225 87.6926 36.9479L85.462 34.625C84.7331 33.8691 84.3268 32.8594 84.3288 31.8094V17.9989C84.3288 17.8814 84.3754 17.7686 84.4584 17.6853C84.5414 17.602 84.654 17.5549 84.7715 17.5545L91.9787 17.5241C91.9953 17.5224 92.012 17.5215 92.0287 17.5215L99.3418 17.553C99.4593 17.5536 99.5719 17.6006 99.6548 17.6839C99.7377 17.7672 99.7842 17.88 99.7843 17.9975V31.8069C99.786 32.8571 99.3798 33.867 98.6511 34.6234L96.4219 36.9455C96.0602 37.3201 95.627 37.6183 95.1479 37.8223C94.6688 38.0263 94.1537 38.1321 93.633 38.1334H92.1323C92.1173 38.1348 92.1022 38.1357 92.0869 38.1357ZM85.2178 18.4415V31.8094C85.2162 32.6298 85.5337 33.4187 86.1032 34.0092L88.3336 36.3321C88.6118 36.6205 88.9451 36.8501 89.3137 37.0073C89.6824 37.1644 90.0788 37.2458 90.4795 37.2468H92.0415C92.0566 37.2453 92.0716 37.2444 92.087 37.2444H93.633C94.0341 37.2435 94.4308 37.162 94.7998 37.0049C95.1688 36.8477 95.5024 36.618 95.781 36.3295L98.0099 34.0078C98.5756 33.4143 98.8924 32.6267 98.8954 31.8069V18.4401L92.0719 18.4106C92.0575 18.4121 92.043 18.4128 92.0285 18.4129L85.2178 18.4415Z" fill="#161616"/>
<path d="M84.7672 26.407V21.5899C84.745 19.9189 85.9016 18.2326 87.7412 18.2059H91.2737C92.2106 18.5494 91.288 20.6206 92.2179 20.2632L97.7858 18.1575C98.7856 17.9415 99.3577 18.8099 99.3577 19.6139V26.3485C99.3577 26.6282 100.794 25.8833 101.168 24.2958L101.124 14.8393C101.149 13.5561 100.776 12.2913 98.9838 12.2913L95.2983 12.2934H89.8173C85.3042 12.2144 81.9059 14.415 82.664 19.2645L83.1714 24.6394C83.3275 25.8833 84.7672 26.6546 84.7672 26.407Z" fill="#E8F2FC"/>
<path d="M84.7136 26.8973C84.1821 26.8973 82.895 26.0059 82.7303 24.6948L82.2217 19.3063C81.8898 17.1892 82.3004 15.4357 83.4454 14.1211C84.7643 12.607 87.032 11.8008 89.8252 11.8489L98.9836 11.8469C99.3246 11.8265 99.6662 11.876 99.9875 11.9923C100.309 12.1087 100.603 12.2894 100.852 12.5234C101.123 12.842 101.326 13.2123 101.449 13.6119C101.572 14.0115 101.613 14.4319 101.569 14.8477L101.612 24.2938C101.612 24.3288 101.608 24.3638 101.6 24.3978C101.235 25.9469 99.9301 26.9073 99.3644 26.8468C99.2407 26.8348 99.1259 26.7771 99.0424 26.6849C98.959 26.5928 98.913 26.4729 98.9132 26.3486V19.6139C98.917 19.4469 98.8851 19.2811 98.8196 19.1275C98.754 18.9738 98.6564 18.836 98.5333 18.7231C98.4463 18.6548 98.3451 18.6071 98.237 18.5833C98.129 18.5596 98.0171 18.5605 97.9094 18.586L92.3751 20.6789C92.2609 20.7336 92.1346 20.7583 92.0082 20.7507C91.8818 20.7431 91.7594 20.7034 91.6526 20.6355C91.3088 20.4007 91.3065 19.9638 91.3039 19.5011C91.3024 19.1891 91.3001 18.7723 91.165 18.6503H87.7412C86.1361 18.6738 85.1925 20.1604 85.2116 21.584V26.407C85.2114 26.5335 85.1623 26.655 85.0747 26.7462C84.987 26.8374 84.8675 26.8912 84.7411 26.8965C84.7322 26.897 84.7229 26.8973 84.7136 26.8973ZM89.5917 12.7358C87.1614 12.7358 85.2252 13.4314 84.1158 14.7049C83.1511 15.8123 82.8105 17.3233 83.1033 19.1958L83.6138 24.5976C83.7011 25.0552 83.9534 25.4649 84.3227 25.7488V21.59C84.2911 21.1136 84.3547 20.6357 84.5097 20.1842C84.6648 19.7327 84.9083 19.3165 85.2259 18.9601C85.5436 18.6037 85.929 18.3142 86.3598 18.1083C86.7906 17.9025 87.258 17.7846 87.7349 17.7614H91.2738C91.326 17.7615 91.3778 17.7707 91.4269 17.7886C92.1853 18.0668 92.1899 18.9271 92.1928 19.4964C92.1934 19.5853 92.194 19.6988 92.1989 19.7954L97.6288 17.7419C97.6494 17.734 97.6706 17.7277 97.6922 17.7231C97.9334 17.6631 98.1852 17.6597 98.428 17.7132C98.6707 17.7666 98.8978 17.8756 99.0915 18.0314C99.3178 18.2277 99.4987 18.471 99.6214 18.7443C99.7441 19.0176 99.8058 19.3143 99.8022 19.6139V25.708C100.253 25.3267 100.575 24.8149 100.723 24.2431L100.68 14.8413C100.754 14.2374 100.588 13.6286 100.217 13.1459C100.05 12.9974 99.8548 12.8844 99.6428 12.8138C99.4307 12.7433 99.2065 12.7167 98.9839 12.7358L89.8174 12.7378C89.7416 12.7365 89.6664 12.7358 89.5917 12.7358Z" fill="#161616"/>
<path d="M100.446 41.1084L98.2379 40.7794C97.8773 40.7146 97.5486 40.5314 97.3038 40.2588L92.0078 43.9485L86.4365 40.4344C86.2138 40.5933 85.9574 40.6987 85.6874 40.7422L83.3685 41.1021L87.6692 51.5473L97.0423 51.4968L100.446 41.1084Z" fill="white"/>
<path d="M87.6692 51.9919C87.5812 51.9919 87.4951 51.9657 87.4219 51.9167C87.3488 51.8677 87.2918 51.7981 87.2583 51.7167L82.9578 41.2716C82.9322 41.2094 82.921 41.1423 82.9251 41.0752C82.9292 41.0081 82.9485 40.9428 82.9815 40.8842C83.0145 40.8256 83.0603 40.7753 83.1155 40.737C83.1708 40.6987 83.234 40.6734 83.3004 40.663L85.6191 40.3031C85.8218 40.27 86.0141 40.1904 86.181 40.0707C86.2527 40.0203 86.3378 39.9922 86.4254 39.9901C86.5131 39.9879 86.5994 40.0117 86.6735 40.0586L91.9958 43.4152L97.0498 39.8942C97.1371 39.8331 97.2435 39.8055 97.3495 39.8164C97.4555 39.8274 97.5541 39.8761 97.6271 39.9538C97.8048 40.1535 98.0434 40.2893 98.3059 40.3401L100.511 40.6688C100.575 40.6783 100.637 40.7017 100.691 40.7373C100.745 40.7728 100.79 40.8198 100.824 40.8748C100.858 40.9298 100.88 40.9916 100.887 41.0558C100.895 41.1201 100.889 41.1852 100.868 41.2467L97.4647 51.6351C97.4356 51.7237 97.3794 51.8009 97.304 51.8559C97.2286 51.9108 97.1378 51.9407 97.0445 51.9412L87.6715 51.9919H87.6692ZM83.9946 41.455L87.9661 51.1012L96.7196 51.0541L99.8597 41.4704L98.1725 41.2189C97.843 41.1656 97.5323 41.03 97.2691 40.8248L92.262 44.313C92.1903 44.363 92.1055 44.3907 92.0181 44.3927C91.9308 44.3947 91.8448 44.3709 91.7709 44.3243L86.4319 40.957C86.2206 41.0685 85.9923 41.1443 85.7562 41.1813L83.9946 41.455Z" fill="#161616"/>
<path d="M87.2672 38.4376C86.8822 37.9935 86.7039 37.8752 86.4371 38.4076L85.0447 40.6593L89.3406 47.9194C89.6379 48.4233 89.874 48.3924 90.1411 47.8892L92.0371 43.9484L87.2672 38.4376Z" fill="white"/>
<path d="M89.7399 48.727C89.3009 48.727 89.0431 48.2903 88.9578 48.1457L84.6622 40.8858C84.6208 40.816 84.5994 40.7363 84.6002 40.6552C84.6011 40.574 84.6241 40.4947 84.6668 40.4258L86.0491 38.1901C86.1015 38.0475 86.1886 37.9202 86.3026 37.8198C86.4166 37.7193 86.5538 37.6489 86.7019 37.6149C87.0983 37.5657 87.3787 37.8872 87.6032 38.1465V38.1467L92.3731 43.6577C92.4299 43.7231 92.4663 43.8038 92.4777 43.8898C92.4892 43.9757 92.4753 44.0631 92.4376 44.1412L90.5417 48.082C90.4439 48.2669 90.2055 48.7166 89.7552 48.7267L89.7399 48.727ZM85.5641 40.6648L89.7231 47.6934L89.7329 47.7099C89.7381 47.7006 89.7434 47.6911 89.7486 47.681L91.5102 44.0188L86.9313 38.7287C86.8923 38.6832 86.8587 38.6459 86.8303 38.6152C86.8254 38.6242 86.8205 38.6329 86.815 38.6416L85.5641 40.6648Z" fill="#161616"/>
<path d="M96.7787 38.4376C97.1637 37.9935 97.3406 37.8752 97.6081 38.4076L98.9998 40.6593L94.7036 47.9194C94.4077 48.4233 94.1709 48.3924 93.9041 47.8892L92.0078 43.9484L96.7787 38.4376Z" fill="white"/>
<path d="M94.3051 48.7269L94.2906 48.7266C93.8398 48.7168 93.6011 48.2668 93.5114 48.0973L91.6074 44.1411C91.5697 44.063 91.5558 43.9756 91.5673 43.8897C91.5787 43.8038 91.6151 43.7231 91.6719 43.6576L96.4426 38.1467L96.4429 38.1461C96.6677 37.8874 96.9499 37.5674 97.3431 37.6148C97.4912 37.649 97.6284 37.7194 97.7424 37.8199C97.8564 37.9203 97.9436 38.0475 97.9962 38.1901L99.3779 40.426C99.4205 40.4949 99.4434 40.5742 99.4442 40.6553C99.445 40.7363 99.4236 40.816 99.3823 40.8858L95.0861 48.1459C95.0016 48.2894 94.7446 48.7269 94.3051 48.7269ZM92.5348 44.0187L94.3045 47.6965L94.3115 47.7092L94.3204 47.6945L98.4803 40.6644L97.23 38.6412C97.2248 38.6328 97.2198 38.6241 97.2152 38.6154C97.1869 38.6461 97.1536 38.6834 97.1145 38.7286L92.5348 44.0187Z" fill="#161616"/>
<path d="M80.8278 23.426H84.4309C84.5116 23.426 84.589 23.4581 84.6461 23.5152C84.7031 23.5722 84.7352 23.6496 84.7352 23.7303V30.0146C84.7352 30.0545 84.7273 30.0941 84.712 30.131C84.6967 30.1679 84.6743 30.2015 84.6461 30.2297C84.6178 30.258 84.5843 30.2804 84.5474 30.2957C84.5104 30.311 84.4709 30.3189 84.4309 30.3189H80.8282C80.7474 30.3189 80.6699 30.2868 80.6128 30.2296C80.5557 30.1725 80.5236 30.095 80.5236 30.0142V23.7303C80.5236 23.6496 80.5556 23.5722 80.6127 23.5152C80.6697 23.4581 80.7471 23.426 80.8278 23.426Z" fill="white"/>
<path d="M84.4306 30.7633H80.8278C80.6293 30.763 80.439 30.684 80.2987 30.5437C80.1584 30.4033 80.0794 30.213 80.0792 30.0145V23.7303C80.0794 23.5318 80.1584 23.3415 80.2987 23.2012C80.439 23.0608 80.6293 22.9818 80.8278 22.9816H84.4307C84.6292 22.9817 84.8196 23.0606 84.9601 23.201C85.1006 23.3414 85.1796 23.5317 85.1798 23.7303V30.0145C85.1796 30.2131 85.1005 30.4035 84.9601 30.5438C84.8196 30.6842 84.6292 30.7631 84.4306 30.7633ZM80.9681 29.8743H84.2909V23.8705H80.9681V29.8743Z" fill="#161616"/>
<path d="M101.926 33.9908H94.6261C94.5082 33.9908 94.3952 33.944 94.3118 33.8606C94.2285 33.7773 94.1816 33.6642 94.1816 33.5464C94.1816 33.4285 94.2285 33.3154 94.3118 33.2321C94.3952 33.1487 94.5082 33.1019 94.6261 33.1019H101.482V28.917C101.482 28.8586 101.493 28.8008 101.516 28.7469C101.538 28.693 101.571 28.644 101.612 28.6027C101.653 28.5614 101.702 28.5287 101.756 28.5064C101.81 28.484 101.868 28.4725 101.926 28.4725C101.985 28.4725 102.042 28.484 102.096 28.5064C102.15 28.5287 102.199 28.5614 102.24 28.6027C102.282 28.644 102.314 28.693 102.337 28.7469C102.359 28.8008 102.371 28.8586 102.371 28.917V33.5464C102.371 33.6642 102.324 33.7773 102.24 33.8606C102.157 33.944 102.044 33.9908 101.926 33.9908Z" fill="#161616"/>
<path d="M99.8783 23.426H103.379C103.46 23.426 103.538 23.4581 103.595 23.5151C103.652 23.5722 103.684 23.6496 103.684 23.7303V30.0146C103.684 30.0545 103.676 30.0941 103.661 30.131C103.645 30.1679 103.623 30.2015 103.595 30.2297C103.566 30.258 103.533 30.2804 103.496 30.2957C103.459 30.311 103.419 30.3189 103.379 30.3189H99.8783C99.8383 30.3189 99.7987 30.311 99.7618 30.2957C99.7249 30.2804 99.6914 30.258 99.6631 30.2297C99.6348 30.2015 99.6124 30.1679 99.5971 30.131C99.5818 30.0941 99.574 30.0545 99.574 30.0146V23.7303C99.574 23.6496 99.606 23.5722 99.6631 23.5151C99.7202 23.4581 99.7976 23.426 99.8783 23.426Z" fill="white"/>
<path d="M103.38 30.7633H99.8783C99.6797 30.7631 99.4894 30.6841 99.349 30.5438C99.2086 30.4034 99.1296 30.2131 99.1294 30.0145V23.7303C99.1296 23.5318 99.2086 23.3414 99.349 23.2011C99.4894 23.0607 99.6797 22.9818 99.8783 22.9816H103.38C103.578 22.9818 103.768 23.0608 103.909 23.2012C104.049 23.3415 104.128 23.5318 104.128 23.7303V30.0145C104.128 30.213 104.049 30.4033 103.909 30.5437C103.768 30.684 103.578 30.763 103.38 30.7633ZM100.018 29.8743H103.239V23.8705H100.018L100.018 29.8743Z" fill="#161616"/>
<path d="M95.3828 33.5242C95.3828 33.8724 95.2444 34.2064 94.9982 34.4526C94.7519 34.6989 94.4179 34.8373 94.0697 34.8373H91.5325C91.3598 34.8376 91.1888 34.8039 91.0292 34.7381C90.8696 34.6722 90.7245 34.5756 90.6023 34.4536C90.4801 34.3316 90.3831 34.1868 90.317 34.0273C90.2508 33.8678 90.2168 33.6968 90.2168 33.5242C90.2168 33.3515 90.2508 33.1806 90.317 33.0211C90.3831 32.8616 90.4801 32.7167 90.6023 32.5948C90.7245 32.4728 90.8696 32.3761 91.0292 32.3103C91.1888 32.2444 91.3598 32.2107 91.5325 32.2111H94.0697C94.4179 32.2111 94.7519 32.3495 94.9982 32.5957C95.2444 32.842 95.3828 33.1759 95.3828 33.5242Z" fill="white"/>
<path d="M94.0696 35.2817H91.5325C91.0663 35.2817 90.6193 35.0965 90.2897 34.7669C89.9601 34.4373 89.7749 33.9902 89.7749 33.5241C89.7749 33.0579 89.9601 32.6109 90.2897 32.2813C90.6193 31.9517 91.0663 31.7665 91.5325 31.7665H94.0696C94.5358 31.7665 94.9828 31.9517 95.3124 32.2813C95.642 32.6109 95.8272 33.0579 95.8272 33.5241C95.8272 33.9902 95.642 34.4373 95.3124 34.7669C94.9828 35.0965 94.5358 35.2817 94.0696 35.2817ZM91.5325 32.6554C91.3021 32.6554 91.0812 32.7469 90.9183 32.9098C90.7553 33.0727 90.6638 33.2937 90.6638 33.5241C90.6638 33.7545 90.7553 33.9754 90.9183 34.1383C91.0812 34.3012 91.3021 34.3927 91.5325 34.3927H94.0696C94.3 34.3927 94.521 34.3012 94.6839 34.1383C94.8468 33.9754 94.9383 33.7545 94.9383 33.5241C94.9383 33.2937 94.8468 33.0727 94.6839 32.9098C94.521 32.7469 94.3 32.6554 94.0696 32.6554H91.5325Z" fill="#161616"/>
<path d="M77.7561 58.6498C77.7839 58.4088 78.059 58.2585 78.059 58.4965V64.3012H106.029L106.036 55.0582C106.036 55.0014 106.05 54.9455 106.076 54.8952C106.102 54.8449 106.14 54.8016 106.187 54.7691C106.233 54.7367 106.287 54.7159 106.343 54.7087C106.4 54.7014 106.457 54.7078 106.51 54.7274L113.933 56.9072V45.7631L110.903 43.5023C108.173 41.3656 106.036 41.4181 106.036 41.4181L99.0336 40.6215L95.6054 44.0068L88.0382 44.7191L85.0788 40.6215L75.4916 41.7043C72.2053 42.138 70.205 44.2183 70.205 47.6854L68.8483 64.3012H76.8585L77.7561 58.6498Z" fill="#CCBA96"/>
<path d="M106.028 64.7458H78.0592C77.9413 64.7458 77.8283 64.6989 77.7449 64.6156C77.6616 64.5322 77.6147 64.4192 77.6147 64.3013V62.3742L77.2976 64.3711C77.281 64.4756 77.2276 64.5707 77.1472 64.6394C77.0667 64.7081 76.9644 64.7458 76.8586 64.7458H68.8484C68.787 64.7458 68.7263 64.733 68.6701 64.7083C68.6138 64.6837 68.5633 64.6476 68.5217 64.6025C68.4801 64.5573 68.4483 64.5041 68.4283 64.446C68.4083 64.3879 68.4005 64.3264 68.4054 64.2652L69.7605 47.6673C69.7675 44.0726 71.8344 41.7389 75.4335 41.2637L85.029 40.1801C85.1074 40.171 85.1866 40.1831 85.2587 40.215C85.3308 40.2469 85.3931 40.2975 85.4391 40.3615L88.2497 44.2526L95.4059 43.5792L98.7214 40.3054C98.7686 40.2586 98.8256 40.2231 98.8884 40.2014C98.9512 40.1797 99.018 40.1724 99.084 40.1801L106.06 40.9738C106.369 40.9752 108.51 41.0655 111.177 43.1521L114.199 45.4068C114.254 45.4482 114.299 45.5019 114.33 45.5637C114.361 45.6256 114.378 45.6938 114.378 45.763V56.9072C114.378 56.9763 114.362 57.0444 114.331 57.1062C114.3 57.168 114.255 57.2217 114.199 57.2631C114.144 57.3045 114.08 57.3324 114.012 57.3447C113.944 57.3569 113.874 57.3532 113.808 57.3337L106.48 55.182L106.473 64.3016C106.473 64.4194 106.426 64.5324 106.343 64.6157C106.259 64.699 106.146 64.7458 106.028 64.7458ZM78.5036 63.8569H105.584L105.591 55.0579C105.592 54.9296 105.623 54.8032 105.682 54.6895C105.741 54.5758 105.827 54.478 105.933 54.4046C106.038 54.3312 106.159 54.2843 106.287 54.2679C106.414 54.2515 106.543 54.266 106.664 54.3102L113.489 56.3135V45.9858L110.637 43.8584C108.118 41.8876 106.13 41.8627 106.047 41.8627H106.038C106.021 41.8628 106.003 41.8618 105.986 41.8598L99.1945 41.0872L95.9175 44.3232C95.8446 44.3952 95.749 44.4398 95.6469 44.4493L88.0798 45.1614C88.0027 45.1688 87.9251 45.1558 87.8546 45.1238C87.784 45.0918 87.7231 45.042 87.6779 44.9791L84.8705 41.0924L75.5414 42.146C72.3897 42.5621 70.6495 44.5298 70.6495 47.6855C70.6495 47.6977 70.6489 47.7095 70.648 47.7217L69.3308 63.8569H76.4792L77.3161 58.5876C77.3321 58.4128 77.4113 58.2499 77.5389 58.1293C77.6665 58.0088 77.8337 57.939 78.0091 57.933C78.149 57.9431 78.2794 58.0078 78.3719 58.1133C78.4645 58.2187 78.5118 58.3564 78.5036 58.4964L78.5036 63.8569Z" fill="#161616"/>
</g>
<defs>
<clipPath id="clip0_23_2">
<rect width="119.412" height="100" fill="white" transform="translate(0.464233)"/>
</clipPath>
</defs>
</svg>
