<svg width="106" height="100" viewBox="0 0 106 100" fill="none" xmlns="http://www.w3.org/2000/svg">
<g clip-path="url(#clip0_23_170)">
<path d="M98.7176 47.6995C96.3466 44.4722 90.0436 34.1977 90.0436 34.1977C89.1167 33.28 86.8659 31.8238 85.0767 33.2867C83.255 34.7773 85.1363 39.2601 85.1363 39.2601C83.9785 37.9351 80.3 33.0936 77.8528 35.6999C76.0869 37.5785 77.6864 39.7561 77.6864 39.7561C77.2611 39.4068 76.7221 39.2264 76.1723 39.2494C75.6225 39.2723 75.1004 39.4969 74.7058 39.8804C72.8452 41.5293 74.9551 44.3501 74.9551 44.3501L76.1298 46.2384C76.1298 46.2384 74.9111 45.2952 73.4792 46.818C72.182 48.1992 73.9608 50.683 73.9608 50.683L80.9099 61.5693C80.8918 65.2319 80.9099 66.5891 80.9099 69.5567C80.9099 76.841 84.8053 77.7927 84.8053 77.7927V89.7542L101.486 89.7953V57.0155C101.486 57.0155 101.827 51.931 98.7176 47.6995Z" fill="white"/>
<path d="M101.486 90.1816H101.485L84.8042 90.1406C84.7019 90.1403 84.6039 90.0995 84.5316 90.0271C84.4594 89.9546 84.4188 89.8565 84.4188 89.7542V78.068C83.4584 77.6793 80.5235 75.967 80.5235 69.5567C80.5235 68.5314 80.5212 67.6984 80.5192 66.8962C80.5154 65.413 80.5116 64.011 80.523 61.6812L73.6348 50.8909C73.5662 50.796 71.7001 48.1478 73.1974 46.5535C73.4487 46.25 73.7626 46.0043 74.1177 45.8334C74.4728 45.6625 74.8606 45.5703 75.2546 45.5631L74.6355 44.5681C73.8333 43.4873 72.7743 41.0759 74.4494 39.5912C74.7604 39.2893 75.1419 39.07 75.5593 38.953C75.9766 38.836 76.4165 38.825 76.8392 38.9212C76.6215 38.33 76.5748 37.6895 76.7042 37.073C76.8337 36.4565 77.1341 35.8889 77.5712 35.4352C77.8183 35.152 78.1245 34.9264 78.4683 34.7745C78.8121 34.6226 79.185 34.548 79.5608 34.556C81.2397 34.5995 82.9535 36.2025 84.1876 37.5693C83.8158 36.0486 83.6116 33.9861 84.8319 32.9876C85.7556 32.2329 87.9492 31.5805 90.3156 33.9231C90.3375 33.9449 90.3568 33.9693 90.3729 33.9957C90.4358 34.0982 96.6941 44.2925 99.029 47.4706C100.981 50.2672 101.978 53.6191 101.873 57.0279V89.7952C101.873 89.8459 101.863 89.8962 101.843 89.9431C101.824 89.9899 101.795 90.0325 101.759 90.0684C101.724 90.1043 101.681 90.1328 101.634 90.1522C101.587 90.1716 101.537 90.1816 101.486 90.1816ZM85.1916 89.3688L101.1 89.4078V57.0155C101.104 56.9404 101.391 51.9902 98.4062 47.9282C96.1293 44.8292 90.1815 35.1603 89.7398 34.4413C89.4309 34.1469 87.1507 32.0899 85.3212 33.5858C84.0101 34.6587 85.0002 37.9376 85.4925 39.1105C85.528 39.1951 85.5322 39.2896 85.5044 39.3771C85.4766 39.4645 85.4186 39.5393 85.3407 39.5878C85.2628 39.6364 85.1702 39.6557 85.0794 39.6422C84.9886 39.6287 84.9056 39.5833 84.8452 39.5142C84.7491 39.4043 84.6359 39.2703 84.5074 39.1185C83.48 37.9035 81.3418 35.3753 79.5409 35.3286C79.2739 35.3228 79.0089 35.3769 78.7655 35.4869C78.5222 35.597 78.3065 35.7601 78.1344 35.9644C76.615 37.5806 77.9412 39.4493 77.9983 39.528C78.0541 39.6047 78.0798 39.6991 78.0705 39.7935C78.0612 39.8878 78.0176 39.9754 77.9479 40.0397C77.8782 40.1039 77.7873 40.1403 77.6925 40.1419C77.5977 40.1435 77.5057 40.1102 77.4338 40.0484C77.0819 39.7543 76.6322 39.6035 76.1741 39.626C75.7161 39.6484 75.2832 39.8425 74.9618 40.1696C74.3193 40.739 74.1623 41.5561 74.4949 42.5982C74.6762 43.1399 74.9355 43.6522 75.2647 44.1191C75.2712 44.1277 75.2774 44.1367 75.283 44.146L76.4578 46.0342C76.5057 46.1111 76.525 46.2024 76.5123 46.2922C76.4997 46.3819 76.4559 46.4644 76.3887 46.5251C76.3214 46.5858 76.2349 46.621 76.1444 46.6244C76.0538 46.6278 75.965 46.5993 75.8933 46.5438C75.798 46.4734 74.9022 45.8689 73.7606 47.0827C72.697 48.2152 74.2589 50.4361 74.275 50.4583L81.2356 61.3613C81.2755 61.424 81.2966 61.4968 81.2962 61.5711C81.2844 63.9664 81.2882 65.3886 81.292 66.8942C81.294 67.697 81.2962 68.5306 81.2962 69.5567C81.2962 76.4578 84.8608 77.4085 84.897 77.4173C84.9811 77.4379 85.0557 77.4861 85.1092 77.5541C85.1626 77.6222 85.1916 77.7062 85.1916 77.7927L85.1916 89.3688Z" fill="#161616"/>
<path d="M83.2036 92.2165C83.1326 92.2167 83.0622 92.2028 82.9966 92.1756C82.931 92.1484 82.8714 92.1086 82.8213 92.0583C82.7711 92.008 82.7315 91.9482 82.7045 91.8825C82.6776 91.8168 82.6639 91.7464 82.6643 91.6754L82.6902 83.162C82.6907 83.0186 82.7481 82.8813 82.8498 82.7802C82.9514 82.679 83.0891 82.6224 83.2324 82.6227L103.286 82.6804C103.357 82.6807 103.427 82.695 103.493 82.7225C103.558 82.75 103.618 82.7901 103.668 82.8406C103.718 82.8911 103.757 82.951 103.784 83.0168C103.811 83.0826 103.825 83.153 103.825 83.2241L103.799 91.7375C103.798 91.8807 103.741 92.0177 103.639 92.1185C103.537 92.2193 103.4 92.2757 103.257 92.2754L83.2036 92.2165Z" fill="white"/>
<path d="M103.257 92.6619H103.257L83.2023 92.603C83.0806 92.603 82.96 92.5789 82.8476 92.5321C82.7352 92.4854 82.6331 92.4169 82.5472 92.3306C82.4613 92.2443 82.3933 92.1419 82.3471 92.0293C82.3009 91.9167 82.2773 91.796 82.2778 91.6742L82.3038 83.1609C82.305 82.9155 82.4033 82.6805 82.5771 82.5073C82.751 82.3341 82.9863 82.2367 83.2318 82.2363H83.233L103.287 82.2941C103.409 82.2945 103.529 82.3189 103.642 82.3661C103.754 82.4132 103.856 82.482 103.942 82.5687C104.028 82.6553 104.096 82.7581 104.142 82.871C104.188 82.9839 104.212 83.1049 104.211 83.2268L104.185 91.7386C104.184 91.9838 104.085 92.2184 103.911 92.3913C103.738 92.5642 103.503 92.6614 103.257 92.6619ZM83.2313 83.0091C83.1903 83.0092 83.1511 83.0255 83.1222 83.0544C83.0932 83.0833 83.0768 83.1224 83.0765 83.1633L83.0506 91.6766C83.0503 91.6968 83.054 91.7168 83.0616 91.7354C83.0691 91.7541 83.0804 91.771 83.0946 91.7852C83.109 91.7996 83.126 91.811 83.1448 91.8187C83.1636 91.8264 83.1837 91.8303 83.2041 91.8302H83.2048L103.258 91.8891C103.299 91.8889 103.338 91.8728 103.367 91.844C103.396 91.8153 103.412 91.7764 103.413 91.7356L103.438 83.2231C103.439 83.182 103.423 83.1424 103.394 83.1131C103.365 83.0839 103.326 83.0672 103.285 83.0668L83.2315 83.0091H83.2313Z" fill="#161616"/>
<g opacity="0.12">
<path opacity="0.12" d="M90.0603 39.26C89.1263 38.1914 86.553 34.8372 84.3081 34.9464C84.32 34.6326 84.3941 34.3244 84.526 34.0395C84.658 33.7546 84.8452 33.4987 85.0767 33.2867C86.6144 32.0294 88.4901 32.9279 89.5768 33.7882C88.5208 35.5911 90.0603 39.26 90.0603 39.26Z" fill="#030A0F"/>
<path opacity="0.12" d="M73.4792 46.8181C74.911 45.2952 76.1298 46.2384 76.1298 46.2384L74.955 44.3502C74.955 44.3502 72.8452 41.5294 74.7057 39.8804C75.1004 39.497 75.6225 39.2723 76.1723 39.2494C76.7221 39.2265 77.2611 39.4068 77.6863 39.7561C77.6863 39.7561 76.0869 37.5785 77.8528 35.6999C79.1844 34.2817 80.8796 35.0696 82.3359 36.295C81.3349 38.0095 82.6103 39.7561 82.6103 39.7561C82.1851 39.4068 81.6461 39.2265 81.0963 39.2494C80.5465 39.2723 80.0244 39.497 79.6297 39.8804C77.7692 41.5294 79.879 44.3502 79.879 44.3502L81.0538 46.2384C81.0538 46.2384 79.835 45.2952 78.4032 46.8181C77.106 48.1992 78.8848 50.6831 78.8848 50.6831L85.8339 61.5693C85.8158 65.232 85.8339 66.5891 85.8339 69.5567C85.8339 76.841 89.7292 77.7927 89.7292 77.7927V82.6272L88.1564 82.6228C88.013 82.6225 87.8754 82.6791 87.7737 82.7802C87.6721 82.8814 87.6147 83.0187 87.6142 83.1621L87.5883 91.6755C87.5879 91.7465 87.6016 91.8169 87.6285 91.8826C87.6555 91.9483 87.6951 92.0081 87.7453 92.0584C87.7954 92.1087 87.855 92.1485 87.9206 92.1757C87.9862 92.2029 88.0566 92.2168 88.1276 92.2166L103.376 92.2614C103.337 92.2704 103.297 92.2751 103.257 92.2755L83.2036 92.2166C83.1326 92.2168 83.0622 92.2029 82.9966 92.1757C82.931 92.1485 82.8714 92.1087 82.8213 92.0584C82.7711 92.0081 82.7315 91.9483 82.7045 91.8826C82.6776 91.8169 82.6639 91.7465 82.6643 91.6755L82.6902 83.1621C82.6907 83.0187 82.7481 82.8814 82.8498 82.7802C82.9514 82.6791 83.0891 82.6225 83.2324 82.6228L84.8052 82.6272V77.7927C84.8052 77.7927 80.9099 76.841 80.9099 69.5567C80.9099 66.5891 80.8918 65.232 80.9099 61.5693L73.9608 50.683C73.9608 50.683 72.182 48.1992 73.4792 46.8181Z" fill="#030A0F"/>
</g>
<path d="M80.1549 99.5393L80.2045 90.3379C80.2051 90.1948 80.2625 90.0578 80.364 89.9569C80.4655 89.8561 80.6029 89.7997 80.746 89.8001L104.419 89.8681C104.562 89.8689 104.699 89.9263 104.8 90.0278C104.901 90.1294 104.958 90.2668 104.958 90.41L104.908 99.6125L80.1549 99.5393Z" fill="#161616"/>
<path d="M105.293 100L79.7666 99.9245L79.8181 90.3358C79.8198 90.091 79.9181 89.8567 80.0916 89.684C80.2651 89.5113 80.4998 89.4142 80.7446 89.4137H80.7471L104.42 89.4817C104.665 89.4833 104.9 89.5817 105.073 89.7556C105.246 89.9294 105.344 90.1646 105.344 90.41L105.293 100ZM80.5434 99.154L104.524 99.2249L104.572 90.4078C104.571 90.3671 104.555 90.3282 104.526 90.2996C104.497 90.2709 104.458 90.2547 104.417 90.2545L80.7451 90.1865H80.7446C80.704 90.1866 80.665 90.2028 80.6362 90.2316C80.6074 90.2603 80.5912 90.2992 80.5909 90.3399L80.5434 99.154Z" fill="#161616"/>
<path d="M7.091 47.6995C9.462 44.4722 15.7651 34.1977 15.7651 34.1977C16.6921 33.28 18.9428 31.8238 20.7318 33.2867C22.5537 34.7773 20.6725 39.2601 20.6725 39.2601C21.8302 37.9351 25.5088 33.0936 27.9562 35.6999C29.7217 37.5785 28.1223 39.7561 28.1223 39.7561C28.5475 39.4068 29.0865 39.2265 29.6364 39.2494C30.1862 39.2723 30.7083 39.4969 31.103 39.8804C32.9634 41.5293 30.8539 44.3501 30.8539 44.3501L29.679 46.2384C29.679 46.2384 30.8977 45.2952 32.3298 46.818C33.6268 48.1992 31.8478 50.683 31.8478 50.683L24.8989 61.5693C24.9168 65.2319 24.8989 66.589 24.8989 69.5567C24.8989 76.8409 21.0037 77.7927 21.0037 77.7927V89.7542L4.32255 89.7952V57.0155C4.32255 57.0155 3.98207 51.931 7.091 47.6995Z" fill="white"/>
<path d="M4.32262 90.1816C4.27187 90.1816 4.22162 90.1716 4.17474 90.1522C4.12785 90.1328 4.08525 90.1043 4.04937 90.0684C4.01348 90.0325 3.98502 89.9899 3.96561 89.9431C3.9462 89.8962 3.93621 89.8459 3.93623 89.7952V57.0279C3.83057 53.6191 4.82776 50.2672 6.77958 47.4706C9.11402 44.2933 15.373 34.0982 15.4359 33.9957C15.452 33.9693 15.4713 33.9449 15.4933 33.9231C17.8594 31.5809 20.0533 32.2325 20.9764 32.9876C22.197 33.9861 21.9927 36.0488 21.6212 37.5694C22.8551 36.2027 24.5689 34.5997 26.2478 34.556C26.6237 34.5478 26.9968 34.6223 27.3407 34.7743C27.6846 34.9262 27.9909 35.1519 28.2379 35.4353C28.6747 35.8892 28.975 36.4568 29.1044 37.0732C29.2337 37.6897 29.187 38.3302 28.9694 38.9213C29.392 38.825 29.8319 38.8359 30.2492 38.9529C30.6665 39.0698 31.048 39.2892 31.3589 39.5911C32.2437 40.3751 32.4804 41.5029 32.0437 42.8525C31.839 43.4634 31.546 44.041 31.174 44.567L30.5542 45.5632C30.9484 45.5691 31.3366 45.6607 31.6918 45.8317C32.047 46.0027 32.3607 46.249 32.6112 46.5534C34.1085 48.1478 32.242 50.796 32.162 50.908L25.2856 61.6812C25.2969 64.011 25.2932 65.413 25.2894 66.8962C25.2874 67.6984 25.2851 68.5314 25.2851 69.5567C25.2851 75.967 22.3505 77.6793 21.39 78.068V89.7542C21.39 89.8565 21.3495 89.9546 21.2772 90.0271C21.205 90.0995 21.1069 90.1403 21.0046 90.1406L4.32362 90.1816H4.32262ZM16.0691 34.4413C15.6273 35.1604 9.67902 44.8292 7.40243 47.9282C4.41793 51.9902 4.70499 56.9405 4.70826 56.99L4.70901 89.4078L20.6172 89.3688V77.7926C20.6172 77.7061 20.6463 77.6221 20.6997 77.5541C20.7531 77.486 20.8278 77.4379 20.9118 77.4173C21.0567 77.38 24.5123 76.4086 24.5123 69.5566C24.5123 68.5305 24.5146 67.697 24.5166 66.8941C24.5204 65.3886 24.5242 63.9664 24.5123 61.5711C24.512 61.4968 24.533 61.424 24.573 61.3613L31.522 50.475C31.5494 50.4359 33.1115 48.2152 32.048 47.0825C30.8702 45.8298 29.9542 46.5143 29.9155 46.5438C29.8438 46.5993 29.755 46.6278 29.6644 46.6244C29.5739 46.6209 29.4874 46.5858 29.4201 46.5251C29.3529 46.4643 29.3091 46.3819 29.2965 46.2922C29.2838 46.2024 29.3031 46.1111 29.351 46.0342L30.5258 44.146C30.5314 44.1367 30.5376 44.1277 30.5441 44.1191C30.8733 43.6522 31.1325 43.1399 31.3136 42.5982C31.6462 41.5561 31.4892 40.739 30.8465 40.1695C30.5248 39.8423 30.0916 39.6483 29.6333 39.6261C29.1749 39.6039 28.725 39.7552 28.3732 40.0498C28.3011 40.111 28.2089 40.1437 28.1143 40.1416C28.0197 40.1394 27.9292 40.1027 27.8598 40.0383C27.7905 39.9739 27.7472 39.8863 27.7381 39.792C27.7291 39.6978 27.7549 39.6036 27.8107 39.5271C27.8673 39.4493 29.1932 37.5806 27.6746 35.9645C27.5026 35.7601 27.2869 35.5968 27.0434 35.4868C26.8 35.3767 26.535 35.3227 26.2679 35.3285C24.4667 35.3753 22.3288 37.9033 21.3014 39.1184C21.1728 39.2702 21.0596 39.4041 20.9636 39.5142C20.9032 39.5833 20.8201 39.6286 20.7294 39.6421C20.6386 39.6556 20.546 39.6363 20.4681 39.5878C20.3903 39.5392 20.3322 39.4646 20.3043 39.3771C20.2765 39.2897 20.2806 39.1952 20.3161 39.1106C20.8076 37.9371 21.7965 34.6569 20.4871 33.5857C18.6586 32.09 16.378 34.1467 16.0691 34.4413Z" fill="#161616"/>
<path d="M22.6053 92.2166C22.6763 92.2167 22.7467 92.2028 22.8123 92.1756C22.8779 92.1484 22.9375 92.1085 22.9876 92.0582C23.0377 92.0079 23.0774 91.9482 23.1044 91.8825C23.1313 91.8168 23.145 91.7464 23.1446 91.6754L23.1187 83.162C23.1181 83.0185 23.0607 82.8812 22.9589 82.7801C22.8572 82.679 22.7195 82.6224 22.5761 82.6227L2.52321 82.6804C2.4521 82.6807 2.38174 82.6949 2.31616 82.7224C2.25058 82.7499 2.19106 82.7901 2.14099 82.8405C2.09093 82.891 2.0513 82.9509 2.02439 83.0167C1.99747 83.0825 1.98378 83.153 1.98411 83.2241L2.00964 91.7375C2.01043 91.8807 2.06798 92.0177 2.16967 92.1186C2.27135 92.2194 2.40887 92.2758 2.55207 92.2754L22.6053 92.2166Z" fill="white"/>
<path d="M2.5524 92.6619C2.3071 92.6618 2.07177 92.5648 1.8977 92.3919C1.72364 92.2191 1.62495 91.9844 1.62315 91.7392L1.59772 83.2253C1.59727 83.1035 1.62082 82.9827 1.66703 82.87C1.71325 82.7572 1.78122 82.6547 1.86707 82.5682C1.95292 82.4817 2.05497 82.413 2.16738 82.366C2.27979 82.3189 2.40037 82.2945 2.52222 82.2941L22.5751 82.2363H22.5761C22.8216 82.2366 23.057 82.3339 23.231 82.507C23.405 82.6801 23.5035 82.915 23.5051 83.1604L23.531 91.6744C23.5315 91.7961 23.508 91.9168 23.4617 92.0294C23.4155 92.142 23.3475 92.2444 23.2616 92.3307C23.1757 92.4169 23.0736 92.4854 22.9612 92.5321C22.8488 92.5789 22.7283 92.603 22.6065 92.603L2.55341 92.6619H2.5524ZM22.5768 83.0091H22.5766L2.52422 83.0668C2.50388 83.067 2.48377 83.0711 2.46503 83.079C2.4463 83.087 2.42931 83.0985 2.41505 83.113C2.40082 83.1272 2.38955 83.1441 2.38191 83.1627C2.37427 83.1813 2.37041 83.2012 2.37055 83.2213L2.39595 91.7364C2.39653 91.7772 2.41322 91.8162 2.44238 91.8448C2.47155 91.8734 2.51082 91.8893 2.55167 91.8891H2.55192L22.604 91.8302H22.6048C22.6251 91.8303 22.6452 91.8264 22.664 91.8187C22.6828 91.811 22.6999 91.7996 22.7142 91.7852C22.7285 91.771 22.7397 91.7541 22.7473 91.7355C22.7548 91.7168 22.7586 91.6969 22.7582 91.6768L22.7323 83.1632C22.732 83.1222 22.7154 83.083 22.6863 83.0542C22.6572 83.0253 22.6178 83.0091 22.5768 83.0091Z" fill="#161616"/>
<g opacity="0.12">
<path opacity="0.12" d="M15.7485 39.26C16.6822 38.1914 19.2558 34.8372 21.5006 34.9464C21.4887 34.6326 21.4146 34.3243 21.2827 34.0394C21.1507 33.7545 20.9634 33.4987 20.7318 33.2867C19.1944 32.0294 17.3185 32.9279 16.2321 33.7882C17.2879 35.5911 15.7485 39.26 15.7485 39.26Z" fill="#030A0F"/>
<path opacity="0.12" d="M32.3297 46.818C30.8977 45.2952 29.6789 46.2384 29.6789 46.2384L30.8539 44.3502C30.8539 44.3502 32.9634 41.5294 31.103 39.8804C30.7082 39.497 30.1861 39.2723 29.6363 39.2494C29.0865 39.2265 28.5475 39.4068 28.1222 39.7561C28.1222 39.7561 29.7216 37.5785 27.9561 35.6999C26.6245 34.2817 24.9291 35.0696 23.4731 36.295C24.4738 38.0095 23.1982 39.7561 23.1982 39.7561C23.6235 39.4069 24.1625 39.2265 24.7123 39.2494C25.2621 39.2723 25.7843 39.497 26.179 39.8804C28.0394 41.5294 25.9299 44.3502 25.9299 44.3502L24.7549 46.2384C24.7549 46.2384 25.9737 45.2952 27.4057 46.818C28.7027 48.1992 26.9237 50.6831 26.9237 50.6831L19.9748 61.5693C19.9928 65.2319 19.9748 66.5891 19.9748 69.5567C19.9748 76.841 16.0797 77.7927 16.0797 77.7927V82.6272L17.6521 82.6228C17.7955 82.6225 17.9332 82.6791 18.0349 82.7802C18.1367 82.8813 18.1941 83.0186 18.1947 83.162L18.2206 91.6754C18.221 91.7465 18.2073 91.8168 18.1804 91.8825C18.1534 91.9482 18.1138 92.008 18.0636 92.0583C18.0135 92.1086 17.9539 92.1484 17.8883 92.1756C17.8227 92.2028 17.7524 92.2167 17.6813 92.2166L2.4324 92.2613C2.47166 92.2704 2.51178 92.2751 2.55206 92.2754L22.6053 92.2166C22.6763 92.2167 22.7467 92.2028 22.8123 92.1756C22.8779 92.1484 22.9375 92.1086 22.9876 92.0583C23.0377 92.008 23.0774 91.9482 23.1044 91.8825C23.1313 91.8168 23.145 91.7465 23.1446 91.6754L23.1187 83.162C23.1181 83.0186 23.0607 82.8813 22.9589 82.7802C22.8572 82.679 22.7195 82.6224 22.5761 82.6227L21.0037 82.6272V77.7927C21.0037 77.7927 24.8989 76.8409 24.8989 69.5567C24.8989 66.589 24.9168 65.2319 24.8989 61.5693L31.8478 50.683C31.8478 50.683 33.6268 48.1992 32.3297 46.818Z" fill="#030A0F"/>
</g>
<path d="M64.069 9.47302H64.0368V9.60435H64.069V9.47302Z" fill="#AA5F21"/>
<path d="M24.5616 0H83.4789C84.2045 0 84.923 0.142919 85.5934 0.420596C86.2638 0.698274 86.8729 1.10527 87.386 1.61835C87.899 2.13144 88.306 2.74055 88.5837 3.41092C88.8614 4.0813 89.0043 4.7998 89.0043 5.52541V50.2316C89.0043 51.697 88.4222 53.1024 87.3859 54.1387C86.3497 55.1749 84.9443 55.757 83.4789 55.757H24.5608C23.0954 55.757 21.69 55.1749 20.6538 54.1387C19.6175 53.1024 19.0354 51.697 19.0354 50.2316V5.52616C19.0354 4.06053 19.6176 2.65493 20.654 1.61857C21.6903 0.582219 23.0959 0 24.5616 0V0Z" fill="#CCBA96"/>
<path d="M86.713 49.0545C86.713 52.3205 85.6456 53.3886 82.3806 53.3886H25.6215C22.3555 53.3886 21.2881 52.3205 21.2881 49.0545V11.0182H86.713V49.0545Z" fill="white"/>
<path d="M26.3061 5.88669C26.3066 6.35536 26.168 6.81362 25.9079 7.20351C25.6479 7.5934 25.278 7.8974 24.8452 8.07706C24.4123 8.25672 23.9359 8.30397 23.4762 8.21283C23.0165 8.12168 22.5941 7.89624 22.2625 7.56502C21.931 7.23381 21.7051 6.81169 21.6134 6.35207C21.5218 5.89246 21.5686 5.41599 21.7478 4.98294C21.927 4.54989 22.2306 4.17972 22.6202 3.91925C23.0098 3.65878 23.4679 3.51972 23.9366 3.51965C24.5647 3.51938 25.1672 3.76859 25.6115 4.21249C26.0559 4.65638 26.3057 5.2586 26.3061 5.88669Z" fill="#F5F5F5"/>
<path d="M33.7409 5.88669C33.7414 6.3555 33.6028 6.81392 33.3427 7.20395C33.0826 7.59397 32.7126 7.89807 32.2796 8.07777C31.8466 8.25747 31.37 8.30468 30.9102 8.21345C30.4503 8.12221 30.0279 7.89662 29.6963 7.56521C29.3647 7.23381 29.1389 6.8115 29.0473 6.35171C28.9558 5.89191 29.0028 5.41531 29.1822 4.98221C29.3617 4.5491 29.6656 4.17896 30.0554 3.91862C30.4453 3.65827 30.9037 3.51943 31.3725 3.51965C32.0004 3.51963 32.6026 3.76896 33.0467 4.21283C33.4909 4.6567 33.7405 5.25878 33.7409 5.88669Z" fill="white"/>
<path d="M41.1738 5.88669C41.1739 6.35498 41.0351 6.81277 40.775 7.20218C40.5149 7.59159 40.1452 7.89512 39.7125 8.07438C39.2799 8.25364 38.8039 8.30059 38.3446 8.20928C37.8853 8.11797 37.4634 7.8925 37.1322 7.5614C36.8011 7.23029 36.5756 6.80842 36.4842 6.34914C36.3928 5.88985 36.4397 5.41379 36.6189 4.98115C36.7981 4.54852 37.1016 4.17874 37.491 3.9186C37.8804 3.65845 38.3381 3.51962 38.8064 3.51965C39.1173 3.51963 39.4251 3.58084 39.7123 3.69978C39.9995 3.81872 40.2605 3.99307 40.4803 4.21287C40.7002 4.43267 40.8745 4.69362 40.9935 4.98081C41.1125 5.26801 41.1737 5.57583 41.1738 5.88669Z" fill="#F5F5F5"/>
<path d="M86.5694 4.04553H48.2802V7.33606H86.5694V4.04553Z" fill="white"/>
<path d="M66.8321 17.1777H54.5967V21.2463H66.8321V17.1777Z" fill="#161616"/>
<path d="M82.5565 17.0413H70.3222V21.1121H82.5565V17.0413Z" fill="#161616"/>
<path d="M82.3595 25.625H54.7261V27.3081H82.3595V25.625Z" fill="#161616"/>
<path d="M82.3595 30.379H54.7261V32.0613H82.3595V30.379Z" fill="#161616"/>
<path d="M73.2803 35.6937H54.5967V37.3775H73.2803V35.6937Z" fill="#161616"/>
<path d="M79.2671 40.3905H54.6609V42.0729H79.2671V40.3905Z" fill="#161616"/>
<path d="M51.0441 46.4153H24.3327V47.8625H51.0441V46.4153Z" fill="#161616"/>
<path d="M25.6536 99.5393L25.6042 90.3379C25.6036 90.1948 25.5463 90.0578 25.4448 89.9569C25.3432 89.8561 25.2058 89.7997 25.0627 89.8001L1.38992 89.8681C1.24668 89.8688 1.10956 89.9263 1.00852 90.0278C0.907487 90.1293 0.850759 90.2667 0.850739 90.41L0.900319 99.6125L25.6536 99.5393Z" fill="#161616"/>
<path d="M0.516053 100L0.464233 90.4121C0.464317 90.1666 0.561453 89.931 0.734475 89.7567C0.907497 89.5824 1.14238 89.4836 1.38795 89.4817L25.0617 89.4137H25.064C25.3089 89.4141 25.5437 89.5113 25.7172 89.684C25.8908 89.8567 25.9891 90.091 25.9907 90.3359L26.042 99.9245L0.516053 100ZM25.064 90.1865H25.0637L1.39096 90.2545C1.35001 90.255 1.31089 90.2715 1.28207 90.3006C1.25325 90.3297 1.23706 90.369 1.23701 90.41L1.28481 99.2249L25.2652 99.154L25.2179 90.3399C25.2177 90.2992 25.2014 90.2602 25.1726 90.2315C25.1437 90.2028 25.1047 90.1866 25.064 90.1865Z" fill="#161616"/>
<path d="M8.39743 59.7756L20.5317 48.4148C20.5317 48.4148 22.7794 45.8189 25.0753 48.0408C27.027 49.9284 25.8243 52.5587 24.5809 53.9813L17.1949 63.0991V69.3495C17.1949 69.3495 17.568 73.3768 15.9539 75.1361C15.1291 76.0904 14.0751 76.8194 12.8911 77.2544" fill="white"/>
<path d="M12.8912 77.641C12.7991 77.6409 12.7101 77.608 12.6402 77.5482C12.5702 77.4884 12.5239 77.4056 12.5095 77.3147C12.4952 77.2238 12.5138 77.1307 12.5619 77.0523C12.61 76.9739 12.6846 76.9152 12.7722 76.8868C13.8908 76.4687 14.8869 75.7769 15.6693 74.8747C17.1477 73.2636 16.8139 69.4236 16.8101 69.385C16.8091 69.3733 16.8086 69.3613 16.8086 69.3495V63.0991C16.8087 63.0105 16.839 62.9247 16.8947 62.8558L24.2806 53.738C25.3294 52.5378 26.6075 50.0605 24.8066 48.3186C24.576 48.0685 24.2957 47.8692 23.9837 47.7334C23.6718 47.5976 23.3349 47.5283 22.9947 47.53C22.1585 47.6391 21.3886 48.0427 20.8232 48.6684C20.8147 48.6781 20.8051 48.688 20.7958 48.6969L8.66147 60.0577C8.58665 60.1278 8.48706 60.1653 8.38462 60.1619C8.28217 60.1585 8.18527 60.1146 8.11521 60.0398C8.04516 59.9649 8.0077 59.8653 8.01107 59.7629C8.01445 59.6605 8.05838 59.5635 8.1332 59.4935L20.2545 48.1451C20.954 47.3664 21.9158 46.8727 22.9562 46.7582C23.4025 46.7487 23.8457 46.8332 24.2571 47.0064C24.6685 47.1795 25.0388 47.4374 25.344 47.7632C27.2847 49.6403 26.5054 52.3665 24.8721 54.2356L17.5814 63.2359V69.3323C17.6111 69.6744 17.9087 73.5772 16.2386 75.3973C15.369 76.4013 14.2579 77.167 13.0101 77.6221C12.9717 77.6345 12.9315 77.6409 12.8912 77.641Z" fill="#161616"/>
<path d="M97.4111 59.7756L85.2772 48.4148C85.2772 48.4148 83.0294 45.8189 80.7335 48.0408C78.7819 49.9284 79.9844 52.5587 81.2277 53.9813L88.6137 63.0991V69.3495C88.6137 69.3495 88.2408 73.3768 89.855 75.1361C90.6797 76.0905 91.7337 76.8195 92.9177 77.2544" fill="white"/>
<path d="M92.9177 77.641C92.8773 77.641 92.8372 77.6347 92.7987 77.6222C91.5509 77.1673 90.4398 76.4016 89.5705 75.3975C87.9002 73.5773 88.1975 69.6744 88.2272 69.3324V63.236L80.9272 54.2246C79.3032 52.3666 78.5241 49.6405 80.4649 47.7632C80.7697 47.4371 81.1399 47.179 81.5514 47.0059C81.9628 46.8327 82.4061 46.7483 82.8524 46.7582C83.8929 46.8728 84.8548 47.3665 85.5544 48.1452L97.6751 59.4936C97.7123 59.5282 97.7422 59.5699 97.7633 59.6161C97.7843 59.6623 97.796 59.7123 97.7977 59.7631C97.7994 59.8138 97.7911 59.8644 97.7732 59.912C97.7554 59.9596 97.7283 60.0031 97.6936 60.0402C97.6588 60.0773 97.6172 60.1072 97.5709 60.1281C97.5246 60.1491 97.4746 60.1607 97.4239 60.1623C97.3731 60.1639 97.3225 60.1555 97.275 60.1376C97.2274 60.1196 97.1839 60.0925 97.1469 60.0577L85.0131 48.6969C85.0032 48.6877 84.9939 48.678 84.9851 48.6678C84.4197 48.0425 83.6499 47.6391 82.8139 47.53C82.4738 47.5285 82.137 47.5978 81.8251 47.7335C81.5131 47.8693 81.2329 48.0685 81.0022 48.3185C79.2011 50.0607 80.4792 52.5379 81.5187 53.727L88.9139 62.8559C88.9696 62.9248 89 63.0106 89 63.0992V69.3496C89 69.3614 88.9995 69.3734 88.9985 69.3851C88.9947 69.4237 88.6611 73.2636 90.1398 74.8749C90.922 75.7772 91.9181 76.469 93.0367 76.8869C93.1243 76.9153 93.1988 76.974 93.247 77.0524C93.2951 77.1308 93.3137 77.2239 93.2993 77.3148C93.285 77.4057 93.2387 77.4885 93.1687 77.5483C93.0988 77.6081 93.0098 77.641 92.9177 77.6411L92.9177 77.641Z" fill="#161616"/>
<path d="M50.4908 38.7245C50.4908 38.9203 50.4523 39.1142 50.3773 39.2951C50.3024 39.476 50.1926 39.6404 50.0541 39.7789C49.9156 39.9173 49.7513 40.0272 49.5703 40.1021C49.3894 40.177 49.1955 40.2156 48.9997 40.2156H25.3393C25.1434 40.2156 24.9495 40.1771 24.7686 40.1022C24.5876 40.0272 24.4232 39.9174 24.2847 39.779C24.1462 39.6405 24.0363 39.4761 23.9614 39.2952C23.8864 39.1142 23.8478 38.9203 23.8478 38.7245V22.4706H50.4908V38.7245Z" fill="white"/>
<path d="M48.9996 40.602H25.3392C24.8414 40.6015 24.3642 40.4035 24.0121 40.0515C23.6601 39.6995 23.4621 39.2223 23.4616 38.7245V22.0841H50.8773V38.7245C50.8767 39.2223 50.6787 39.6995 50.3267 40.0515C49.9747 40.4035 49.4974 40.6015 48.9996 40.602ZM24.2344 22.8569V38.7245C24.2347 39.0174 24.3512 39.2982 24.5583 39.5053C24.7655 39.7124 25.0463 39.8289 25.3392 39.8292H48.9996C49.2926 39.8289 49.5734 39.7124 49.7805 39.5053C49.9876 39.2982 50.1041 39.0174 50.1045 38.7245V22.8569H24.2344Z" fill="#161616"/>
<path d="M42.5681 22.8569H42.1085L42.1019 22.4716L41.7279 22.5369C41.54 21.4575 40.9773 20.4789 40.1387 19.7737C39.3002 19.0685 38.2396 18.6818 37.1439 18.6818C36.0483 18.6818 34.9877 19.0685 34.1492 19.7738C33.3107 20.479 32.7479 21.4576 32.5601 22.537L31.7989 22.404C32.018 21.1454 32.6743 20.0044 33.6521 19.1821C34.6299 18.3599 35.8665 17.909 37.1441 17.9091C38.4216 17.9091 39.6582 18.3599 40.636 19.1822C41.6138 20.0045 42.27 21.1455 42.4891 22.4041L42.5681 22.8569Z" fill="#161616"/>
<path d="M50.4908 22.4706H23.8478V22.6481C24.4495 25.7599 26.1155 28.5652 28.5599 30.5826C31.0043 32.6 34.0746 33.7037 37.244 33.7043C48.9494 33.7043 50.4908 22.4706 50.4908 22.4706Z" fill="#161616"/>
<path d="M37.2441 34.0907C33.9853 34.0887 30.8286 32.9533 28.3153 30.8789C25.8019 28.8045 24.0885 25.9204 23.4686 22.7211C23.4639 22.697 23.4615 22.6726 23.4616 22.6481V22.4705C23.4616 22.368 23.5023 22.2697 23.5748 22.1973C23.6472 22.1248 23.7455 22.0841 23.848 22.0841H50.4909C50.5461 22.0841 50.6006 22.0959 50.6509 22.1187C50.7011 22.1416 50.7459 22.1749 50.7821 22.2165C50.8184 22.2581 50.8454 22.307 50.8612 22.3599C50.877 22.4127 50.8813 22.4684 50.8737 22.5231C50.8579 22.6387 49.1486 34.0907 37.2441 34.0907ZM24.2847 22.8569C24.9256 25.8182 26.5608 28.471 28.9185 30.3741C31.2762 32.2773 34.2142 33.3161 37.2441 33.3179C41.9492 33.3179 45.5407 31.4947 47.9184 27.899C48.9202 26.3596 49.6344 24.6512 50.0262 22.8569H24.2847Z" fill="#161616"/>
<path d="M30.2097 30.8712H31.5948C31.7531 30.8712 31.9049 30.9341 32.0168 31.046C32.1287 31.1579 32.1916 31.3097 32.1916 31.468V34.0026C32.1916 34.0808 32.1762 34.1583 32.1462 34.2306C32.1163 34.3029 32.0724 34.3686 32.0171 34.4239C31.9617 34.4792 31.8961 34.5231 31.8238 34.5531C31.7515 34.583 31.674 34.5984 31.5958 34.5984H30.2103C30.052 34.5984 29.9003 34.5356 29.7883 34.4236C29.6764 34.3117 29.6136 34.1599 29.6136 34.0017V31.4674C29.6136 31.3891 29.629 31.3115 29.6589 31.2392C29.6889 31.1669 29.7328 31.1012 29.7882 31.0458C29.8435 30.9905 29.9092 30.9466 29.9816 30.9166C30.0539 30.8866 30.1314 30.8712 30.2097 30.8712Z" fill="#CCBA96"/>
<path d="M42.7367 30.8712H44.1218C44.2799 30.8712 44.4316 30.934 44.5434 31.0458C44.6551 31.1576 44.718 31.3093 44.718 31.4674V34.0026C44.718 34.1606 44.6552 34.3122 44.5434 34.4239C44.4317 34.5357 44.2801 34.5984 44.1221 34.5984H42.7355C42.6572 34.5984 42.5797 34.583 42.5074 34.5531C42.4351 34.5231 42.3695 34.4792 42.3141 34.4239C42.2588 34.3686 42.2149 34.3029 42.185 34.2306C42.155 34.1583 42.1396 34.0808 42.1396 34.0026V31.4683C42.1396 31.3099 42.2025 31.1581 42.3145 31.0461C42.4265 30.9341 42.5783 30.8712 42.7367 30.8712Z" fill="#CCBA96"/>
</g>
<defs>
<clipPath id="clip0_23_170">
<rect width="104.88" height="100" fill="white" transform="translate(0.464233)"/>
</clipPath>
</defs>
</svg>
