<svg width="725" height="76" viewBox="0 0 725 76" fill="none" xmlns="http://www.w3.org/2000/svg">
<path d="M262.231 33.8161H238.286L238.306 33.8355H262.251L262.231 33.8161Z" fill="white"/>
<path d="M34.4612 59.3421C36.8897 59.3421 39.2886 58.8091 41.4886 57.7805C43.8118 56.6883 45.8851 55.129 47.5789 53.1998L59.135 63.6399C55.9925 67.2016 52.1465 70.074 47.8391 72.076C43.6439 73.9725 39.0933 74.955 34.4893 74.9584C29.8853 74.9618 25.3333 73.9859 21.1352 72.0956C16.8321 70.1366 12.9982 67.279 9.89135 63.7149C6.72204 60.2147 4.23287 56.1545 2.55135 51.7422C0.841895 47.2546 -0.0228533 42.4896 0.00073148 37.6875C-0.0287972 32.8508 0.835935 28.0503 2.55135 23.528C4.23324 19.1161 6.72238 15.0562 9.89135 11.556C12.999 7.99265 16.8327 5.13495 21.1352 3.17459C25.4746 1.21958 30.1911 0.243456 34.95 0.315449C39.7089 0.387441 44.3936 1.50579 48.6719 3.59116C53.1804 5.80417 57.1444 8.9859 60.2804 12.9089L48.3077 22.7995C44.5597 18.2188 39.9442 15.9283 34.4612 15.9281C31.913 15.9076 29.3966 16.4954 27.1212 17.6428C24.8533 18.7936 22.8225 20.3614 21.1353 22.2642C19.3511 24.2848 17.9725 26.6299 17.0747 29.1716C16.0943 31.8849 15.601 34.7501 15.6174 37.6351C15.598 40.504 16.0915 43.3533 17.0747 46.0486C17.9882 48.5827 19.3652 50.9247 21.1352 52.9552C22.8114 54.8836 24.8439 56.4705 27.1212 57.6289C29.3967 58.7758 31.9131 59.3632 34.4612 59.3421Z" fill="white"/>
<path d="M101.299 74.9584C96.6851 74.9817 92.1209 74.005 87.9206 72.0956C83.6176 70.1111 79.7717 67.2577 76.6248 63.7149C73.4598 60.2211 70.9868 56.1583 69.3371 51.7422C67.6618 47.2468 66.8152 42.4849 66.8385 37.6875C66.8094 32.8554 67.6559 28.0581 69.3371 23.528C70.9872 19.1123 73.4602 15.0498 76.6248 11.556C79.7725 8.01393 83.6182 5.16046 87.9206 3.17459C92.1282 1.28738 96.6874 0.311737 101.299 0.311737C105.91 0.311737 110.469 1.28738 114.677 3.17459C118.979 5.16076 122.825 8.01419 125.973 11.556C132.342 18.7637 135.827 28.0689 135.759 37.6874C135.802 47.2703 132.318 56.5341 125.973 63.7149C122.826 67.2575 118.98 70.1108 114.677 72.0956C110.477 74.0047 105.913 74.9813 101.299 74.9584ZM101.351 15.9281C98.7928 15.9118 96.2669 16.4993 93.9785 17.6428C91.7046 18.7767 89.676 20.347 88.0085 22.2642C86.2537 24.3038 84.882 26.6439 83.9597 29.1716C82.9491 31.8782 82.4393 34.746 82.4552 37.6351C82.4363 40.5082 82.9462 43.3602 83.9597 46.0486C84.8977 48.5686 86.2679 50.9057 88.0085 52.9552C89.6647 54.8979 91.695 56.4874 93.9785 57.6289C96.267 58.7719 98.7929 59.3589 101.351 59.3421C103.874 59.3507 106.364 58.7637 108.617 57.6289C110.911 56.4794 112.957 54.8916 114.639 52.9552C116.405 50.9234 117.778 48.5815 118.688 46.0486C119.669 43.3528 120.161 40.5037 120.143 37.6351C120.159 34.7504 119.666 31.8855 118.688 29.1716C117.793 26.6311 116.419 24.2861 114.639 22.2642C112.945 20.3535 110.901 18.7848 108.617 17.6428C106.364 16.5075 103.874 15.92 101.351 15.9281H101.351Z" fill="white"/>
<path d="M197.391 12.701C199.668 16.2282 201.372 20.0934 202.441 24.1532C203.6 28.4995 204.178 32.9805 204.158 37.4788C204.178 41.9773 203.601 46.4586 202.441 50.8051C201.373 54.8651 199.668 58.7304 197.391 62.2573C194.988 65.9836 191.787 69.1304 188.021 71.4711C184.55 73.6182 180.547 74.754 176.465 74.7505V74.8545H140.652V0.103853H176.465C180.547 0.100025 184.55 1.23579 188.021 3.38328C191.806 5.74427 195.009 8.92939 197.391 12.701ZM182.4 54.4487C183.858 52.0586 184.946 49.4612 185.627 46.7449C187.154 40.6621 187.154 34.2962 185.627 28.2134C184.946 25.497 183.858 22.8994 182.4 20.5088C181.592 19.1731 180.572 17.9776 179.38 16.9691C178.578 16.2348 177.55 15.7945 176.465 15.7202H156.268V59.2381H176.465C177.559 59.1578 178.59 58.6975 179.38 57.9368C180.548 56.9239 181.565 55.7493 182.4 54.4487Z" fill="white"/>
<path d="M219.982 0V15.6164H242.991H271.62V0H219.982Z" fill="white"/>
<path d="M219.982 15.6164L238.286 33.8161H262.231L242.991 15.6164H219.982Z" fill="url(#paint0_linear_10_3)"/>
<path d="M231.018 59.3421H215.402V66.4212V66.9421V67.4624V74.9585H223.209H231.018H271.62V59.3421H231.018Z" fill="white"/>
<path d="M231.018 49.483H215.401V59.3421H231.018V49.483Z" fill="url(#paint1_linear_10_3)"/>
<path d="M231.018 49.4512H262.251V33.8355H238.306H231.018H215.402V41.1231V41.644V42.1643V49.4831H231.018V49.4512Z" fill="white"/>
<path d="M326.277 32.5862L309.62 15.9281H287.34L305.655 34.1396H321.195C323.018 34.1422 324.799 33.5949 326.306 32.5692V32.5603C326.297 32.568 326.286 32.5796 326.277 32.5862Z" fill="url(#paint2_linear_10_3)"/>
<path d="M343.819 15.4076C342.58 12.4912 340.815 9.82709 338.614 7.54743C336.42 5.28785 333.802 3.48362 330.91 2.23828C327.937 0.949362 324.728 0.293271 321.488 0.311735H287.34V15.9281H321.488C322.642 15.908 323.787 16.1344 324.846 16.5923C325.905 17.0501 326.855 17.7288 327.631 18.583C327.682 18.6371 327.724 18.6947 327.774 18.7495C329.396 20.4392 330.302 22.6913 330.301 25.0338V25.0339C330.301 26.2297 330.065 27.4137 329.607 28.5185C329.15 29.6233 328.479 30.6271 327.634 31.4726C326.788 32.3182 325.784 32.9889 324.679 33.4465C323.575 33.9041 322.391 34.1396 321.195 34.1396H305.655L305.663 34.1478H282.863V49.7052H321.488V49.6601C324.728 49.6794 327.937 49.0233 330.91 47.7336C333.803 46.4894 336.421 44.6851 338.614 42.4245C340.816 40.1454 342.58 37.4811 343.819 34.5644C345.112 31.5375 345.768 28.2769 345.746 24.9856C345.767 21.6946 345.112 18.4343 343.819 15.4076Z" fill="white"/>
<path d="M321.071 49.7643H321.488V49.7054H298.836L324.091 75.0624L346.37 74.9585L321.071 49.7643Z" fill="url(#paint3_linear_10_3)"/>
<path d="M282.863 49.7054V49.7643V74.9585H298.48V49.7643L298.479 49.7054H282.863Z" fill="url(#paint4_linear_10_3)"/>
<path d="M437.115 15.6163H416.918V74.8545H401.301V15.6163H381V0H437.115V15.6163Z" fill="white"/>
<path d="M551.322 75.0632C546.708 75.0866 542.144 74.1097 537.944 72.1996C533.64 70.2154 529.794 67.362 526.648 63.819C523.483 60.3253 521.01 56.2624 519.36 51.8463C516.029 42.7368 516.029 32.7422 519.36 23.6328C521.01 19.2169 523.483 15.1541 526.648 11.6601C529.795 8.11797 533.641 5.26473 537.944 3.27944C542.151 1.39223 546.71 0.41658 551.322 0.41658C555.933 0.41658 560.492 1.39223 564.7 3.27944C569.002 5.26504 572.848 8.11823 575.996 11.6601C582.339 18.8669 585.838 28.1387 585.838 37.7395C585.838 47.3404 582.339 56.6121 575.996 63.819C572.849 67.3617 569.003 70.2151 564.7 72.1996C560.5 74.1093 555.936 75.0863 551.322 75.0632ZM551.374 16.0329C548.816 16.0163 546.29 16.6038 544.001 17.7476C541.728 18.8815 539.699 20.4518 538.031 22.369C536.277 24.4085 534.905 26.7483 533.983 29.2756C532.972 31.9825 532.462 34.8506 532.478 37.7399C532.459 40.6127 532.969 43.4644 533.983 46.1526C534.921 48.6727 536.291 51.0101 538.031 53.06C539.688 55.0027 541.718 56.5922 544.001 57.7337C546.29 58.8765 548.816 59.4631 551.374 59.4461C553.897 59.455 556.387 58.8683 558.64 57.7337C560.934 56.5842 562.98 54.9964 564.662 53.06C566.428 51.0278 567.8 48.6857 568.711 46.1526C569.692 43.457 570.185 40.6083 570.166 37.7399C570.181 34.855 569.689 31.9898 568.711 29.2756C567.816 26.7354 566.442 24.3907 564.662 22.369C562.968 20.4583 560.924 18.8896 558.64 17.7476C556.387 16.612 553.897 16.0245 551.374 16.0329H551.374Z" fill="white"/>
<path d="M622.428 75.0632C617.814 75.0866 613.25 74.1097 609.049 72.1996C604.746 70.2154 600.9 67.362 597.754 63.819C594.588 60.3253 592.115 56.2624 590.466 51.8463C587.134 42.7368 587.134 32.7422 590.466 23.6328C592.116 19.2169 594.589 15.1541 597.754 11.6601C600.901 8.11797 604.747 5.26473 609.049 3.27944C613.257 1.39223 617.816 0.41658 622.428 0.41658C627.039 0.41658 631.598 1.39223 635.806 3.27944C640.108 5.26503 643.954 8.11823 647.102 11.6601C653.445 18.8669 656.944 28.1387 656.944 37.7395C656.944 47.3404 653.445 56.6121 647.102 63.819C643.955 67.3617 640.109 70.2151 635.806 72.1996C631.606 74.1093 627.042 75.0863 622.428 75.0632ZM622.48 16.0329C619.922 16.0163 617.396 16.6038 615.107 17.7476C612.833 18.8815 610.805 20.4518 609.137 22.369C607.383 24.4085 606.011 26.7483 605.088 29.2756C604.078 31.9825 603.568 34.8506 603.584 37.7399C603.565 40.6127 604.075 43.4644 605.088 46.1526C606.027 48.6727 607.397 51.0101 609.137 53.06C610.794 55.0027 612.824 56.5922 615.107 57.7337C617.396 58.8765 619.922 59.4631 622.48 59.4461C625.003 59.455 627.493 58.8683 629.746 57.7337C632.04 56.5842 634.085 54.9964 635.768 53.06C637.533 51.0278 638.906 48.6857 639.817 46.1526C640.798 43.457 641.29 40.6083 641.271 37.7399C641.287 34.855 640.795 31.9898 639.817 29.2756C638.922 26.7354 637.548 24.3907 635.768 22.369C634.074 20.4583 632.03 18.8896 629.746 17.7476C627.493 16.612 625.003 16.0245 622.48 16.0329H622.48Z" fill="white"/>
<path d="M491.871 32.6963L475.214 16.0382H452.935L471.25 34.2497H486.789C488.612 34.2524 490.394 33.705 491.901 32.6793V32.6704C491.891 32.6781 491.881 32.6897 491.871 32.6963Z" fill="url(#paint5_linear_10_3)"/>
<path d="M509.414 15.5177C508.174 12.6014 506.41 9.93723 504.208 7.65757C502.015 5.39799 499.397 3.59376 496.504 2.34842C493.531 1.0595 490.323 0.403409 487.082 0.421873H452.935V16.0382H487.082C488.236 16.0181 489.381 16.2445 490.44 16.7024C491.5 17.1602 492.449 17.839 493.225 18.6931C493.276 18.7472 493.319 18.8048 493.368 18.8596C494.991 20.5493 495.896 22.8014 495.895 25.1439V25.144C495.895 26.3398 495.659 27.5238 495.202 28.6286C494.744 29.7334 494.073 30.7372 493.228 31.5827C492.382 32.4283 491.378 33.099 490.274 33.5566C489.169 34.0142 487.985 34.2497 486.789 34.2497H471.25L471.258 34.2579H448.458V49.8153H487.082V49.7702C490.323 49.7895 493.532 49.1334 496.504 47.8437C499.397 46.5995 502.016 44.7952 504.208 42.5346C506.41 40.2555 508.175 37.5912 509.414 34.6745C510.685 31.6411 511.34 28.3851 511.34 25.0961C511.34 21.8071 510.685 18.551 509.414 15.5177V15.5177Z" fill="white"/>
<path d="M486.666 49.8745H487.083V49.8157H464.43L489.685 75.1727L511.964 75.0688L486.666 49.8745Z" fill="url(#paint6_linear_10_3)"/>
<path d="M448.458 49.8157V49.8745V75.0688H464.074V49.8745L464.073 49.8157H448.458Z" fill="url(#paint7_linear_10_3)"/>
<path d="M705.506 32.4857L688.849 15.8276H666.569L684.884 34.0391H700.424C702.247 34.0417 704.028 33.4944 705.536 32.4687V32.4598C705.526 32.4674 705.516 32.4791 705.506 32.4857Z" fill="url(#paint8_linear_10_3)"/>
<path d="M723.049 15.307C721.809 12.3907 720.044 9.72658 717.843 7.44692C715.65 5.18734 713.032 3.38311 710.139 2.13777C707.166 0.848867 703.958 0.192785 700.717 0.211256H666.569V15.8276H700.717C701.871 15.8075 703.016 16.0339 704.075 16.4918C705.135 16.9496 706.084 17.6283 706.86 18.4825C706.911 18.5366 706.954 18.5942 707.003 18.649C708.626 20.3387 709.531 22.5908 709.53 24.9333V24.9334C709.53 26.1292 709.294 27.3132 708.837 28.418C708.379 29.5228 707.708 30.5266 706.863 31.3721C706.017 32.2177 705.013 32.8884 703.909 33.346C702.804 33.8036 701.62 34.0391 700.424 34.0391H684.885L684.893 34.0473H662.093V49.6047H700.717V49.5597C703.958 49.5789 707.167 48.9228 710.139 47.6331C713.032 46.3889 715.651 44.5846 717.843 42.324C720.045 40.0449 721.81 37.3806 723.049 34.4638C724.32 31.4305 724.975 28.1744 724.975 24.8854C724.975 21.5964 724.32 18.3404 723.049 15.307Z" fill="white"/>
<path d="M662.093 49.6044V49.6633V74.8582H677.709V49.6633L677.708 49.6044H662.093Z" fill="url(#paint9_linear_10_3)"/>
<defs>
<linearGradient id="paint0_linear_10_3" x1="241.106" y1="37.5267" x2="241.106" y2="13.4429" gradientUnits="userSpaceOnUse">
<stop stop-color="white"/>
<stop offset="0.09217" stop-color="#F4F4F4"/>
<stop offset="0.25328" stop-color="#D7D7D7"/>
<stop offset="0.46417" stop-color="#A8A8A8"/>
<stop offset="0.71387" stop-color="#686868"/>
<stop offset="0.96342" stop-color="#212121"/>
</linearGradient>
<linearGradient id="paint1_linear_10_3" x1="223.209" y1="63.8995" x2="223.209" y2="48.2832" gradientUnits="userSpaceOnUse">
<stop stop-color="white"/>
<stop offset="0.10403" stop-color="#FAFAFA"/>
<stop offset="0.23355" stop-color="#EAEAEA"/>
<stop offset="0.3766" stop-color="#D1D1D1"/>
<stop offset="0.52943" stop-color="#AEAEAE"/>
<stop offset="0.69013" stop-color="#808080"/>
<stop offset="0.85476" stop-color="#494949"/>
<stop offset="0.96342" stop-color="#212121"/>
</linearGradient>
<linearGradient id="paint2_linear_10_3" x1="306.823" y1="37.8647" x2="306.823" y2="13.7936" gradientUnits="userSpaceOnUse">
<stop stop-color="white"/>
<stop offset="0.16002" stop-color="#E0E0E0"/>
<stop offset="0.51147" stop-color="#909090"/>
<stop offset="0.96342" stop-color="#212121"/>
</linearGradient>
<linearGradient id="paint3_linear_10_3" x1="322.603" y1="84.8157" x2="322.603" y2="46.6831" gradientUnits="userSpaceOnUse">
<stop stop-color="white"/>
<stop offset="0.14921" stop-color="#FCFCFC"/>
<stop offset="0.28072" stop-color="#F1F1F1"/>
<stop offset="0.40554" stop-color="#DFDFDF"/>
<stop offset="0.5263" stop-color="#C5C5C5"/>
<stop offset="0.64417" stop-color="#A4A4A4"/>
<stop offset="0.75982" stop-color="#7C7C7C"/>
<stop offset="0.87152" stop-color="#4D4D4D"/>
<stop offset="0.96342" stop-color="#212121"/>
</linearGradient>
<linearGradient id="paint4_linear_10_3" x1="290.671" y1="84.6718" x2="290.671" y2="46.6954" gradientUnits="userSpaceOnUse">
<stop stop-color="white"/>
<stop offset="0.14921" stop-color="#FCFCFC"/>
<stop offset="0.28072" stop-color="#F1F1F1"/>
<stop offset="0.40554" stop-color="#DFDFDF"/>
<stop offset="0.5263" stop-color="#C5C5C5"/>
<stop offset="0.64417" stop-color="#A4A4A4"/>
<stop offset="0.75982" stop-color="#7C7C7C"/>
<stop offset="0.87152" stop-color="#4D4D4D"/>
<stop offset="0.96342" stop-color="#212121"/>
</linearGradient>
<linearGradient id="paint5_linear_10_3" x1="472.418" y1="41.2546" x2="472.418" y2="13.8675" gradientUnits="userSpaceOnUse">
<stop stop-color="white"/>
<stop offset="0.14921" stop-color="#FCFCFC"/>
<stop offset="0.28072" stop-color="#F1F1F1"/>
<stop offset="0.40554" stop-color="#DFDFDF"/>
<stop offset="0.5263" stop-color="#C5C5C5"/>
<stop offset="0.64417" stop-color="#A4A4A4"/>
<stop offset="0.75982" stop-color="#7C7C7C"/>
<stop offset="0.87152" stop-color="#4D4D4D"/>
<stop offset="0.96342" stop-color="#212121"/>
</linearGradient>
<linearGradient id="paint6_linear_10_3" x1="488.197" y1="84.9259" x2="488.197" y2="46.7933" gradientUnits="userSpaceOnUse">
<stop stop-color="white"/>
<stop offset="0.14921" stop-color="#FCFCFC"/>
<stop offset="0.28072" stop-color="#F1F1F1"/>
<stop offset="0.40554" stop-color="#DFDFDF"/>
<stop offset="0.5263" stop-color="#C5C5C5"/>
<stop offset="0.64417" stop-color="#A4A4A4"/>
<stop offset="0.75982" stop-color="#7C7C7C"/>
<stop offset="0.87152" stop-color="#4D4D4D"/>
<stop offset="0.96342" stop-color="#212121"/>
</linearGradient>
<linearGradient id="paint7_linear_10_3" x1="456.266" y1="84.782" x2="456.266" y2="46.8057" gradientUnits="userSpaceOnUse">
<stop stop-color="white"/>
<stop offset="0.14921" stop-color="#FCFCFC"/>
<stop offset="0.28072" stop-color="#F1F1F1"/>
<stop offset="0.40554" stop-color="#DFDFDF"/>
<stop offset="0.5263" stop-color="#C5C5C5"/>
<stop offset="0.64417" stop-color="#A4A4A4"/>
<stop offset="0.75982" stop-color="#7C7C7C"/>
<stop offset="0.87152" stop-color="#4D4D4D"/>
<stop offset="0.96342" stop-color="#212121"/>
</linearGradient>
<linearGradient id="paint8_linear_10_3" x1="686.052" y1="41.044" x2="686.052" y2="13.6569" gradientUnits="userSpaceOnUse">
<stop stop-color="white"/>
<stop offset="0.14921" stop-color="#FCFCFC"/>
<stop offset="0.28072" stop-color="#F1F1F1"/>
<stop offset="0.40554" stop-color="#DFDFDF"/>
<stop offset="0.5263" stop-color="#C5C5C5"/>
<stop offset="0.64417" stop-color="#A4A4A4"/>
<stop offset="0.75982" stop-color="#7C7C7C"/>
<stop offset="0.87152" stop-color="#4D4D4D"/>
<stop offset="0.96342" stop-color="#212121"/>
</linearGradient>
<linearGradient id="paint9_linear_10_3" x1="669.901" y1="84.5718" x2="669.901" y2="46.5943" gradientUnits="userSpaceOnUse">
<stop stop-color="white"/>
<stop offset="0.14921" stop-color="#FCFCFC"/>
<stop offset="0.28072" stop-color="#F1F1F1"/>
<stop offset="0.40554" stop-color="#DFDFDF"/>
<stop offset="0.5263" stop-color="#C5C5C5"/>
<stop offset="0.64417" stop-color="#A4A4A4"/>
<stop offset="0.75982" stop-color="#7C7C7C"/>
<stop offset="0.87152" stop-color="#4D4D4D"/>
<stop offset="0.96342" stop-color="#212121"/>
</linearGradient>
</defs>
</svg>
