<svg width="70" height="75" viewBox="0 0 70 75" fill="none" xmlns="http://www.w3.org/2000/svg">
<path d="M35.299 74.9584C30.6851 74.9817 26.1209 74.005 21.9206 72.0956C17.6176 70.1111 13.7717 67.2577 10.6248 63.7149C7.45982 60.2211 4.98684 56.1583 3.33714 51.7422C1.66176 47.2468 0.815191 42.4849 0.838495 37.6875C0.809373 32.8554 1.65593 28.0581 3.33714 23.528C4.98722 19.1123 7.46016 15.0498 10.6248 11.556C13.7725 8.01393 17.6182 5.16046 21.9206 3.17459C26.1282 1.28738 30.6874 0.311737 35.2987 0.311737C39.9101 0.311737 44.4693 1.28738 48.6769 3.17459C52.9791 5.16076 56.8248 8.01419 59.9727 11.556C66.3423 18.7637 69.8271 28.0689 69.759 37.6874C69.8016 47.2703 66.3184 56.5341 59.9727 63.7149C56.8256 67.2575 52.9798 70.1108 48.6769 72.0956C44.4766 74.0047 39.9127 74.9813 35.299 74.9584ZM35.3509 15.9281C32.7928 15.9118 30.2669 16.4993 27.9785 17.6428C25.7046 18.7767 23.676 20.347 22.0085 22.2642C20.2537 24.3038 18.882 26.6439 17.9597 29.1716C16.9491 31.8782 16.4393 34.746 16.4552 37.6351C16.4363 40.5082 16.9462 43.3602 17.9597 46.0486C18.8977 48.5686 20.2679 50.9057 22.0085 52.9552C23.6647 54.8979 25.695 56.4874 27.9785 57.6289C30.267 58.7719 32.7929 59.3589 35.3509 59.3421C37.8741 59.3507 40.3638 58.7637 42.6175 57.6289C44.9108 56.4794 46.9567 54.8916 48.6394 52.9552C50.4048 50.9234 51.7777 48.5815 52.6882 46.0486C53.6689 43.3528 54.1615 40.5037 54.1427 37.6351C54.1585 34.7504 53.6662 31.8855 52.6882 29.1716C51.7934 26.6311 50.4189 24.2861 48.6394 22.2642C46.9455 20.3535 44.9014 18.7848 42.6175 17.6428C40.3639 16.5075 37.8743 15.92 35.3509 15.9281H35.3509Z" fill="white"/>
</svg>
