<svg width="63" height="75" viewBox="0 0 63 75" fill="none" xmlns="http://www.w3.org/2000/svg">
<path d="M43.5062 32.4857L26.8489 15.8276H4.56934L22.8844 34.0391H38.4239C40.247 34.0417 42.0284 33.4944 43.5355 32.4687V32.4598C43.526 32.4674 43.5156 32.4791 43.5062 32.4857Z" fill="url(#paint0_linear_10_28)"/>
<path d="M61.0488 15.307C59.8088 12.3907 58.0445 9.72658 55.8432 7.44692C53.6498 5.18734 51.0318 3.38311 48.1394 2.13777C45.1663 0.848867 41.9576 0.192785 38.7173 0.211256H4.56943V15.8276H38.7173C39.8712 15.8075 41.016 16.0339 42.0753 16.4918C43.1346 16.9496 44.084 17.6283 44.86 18.4825C44.9109 18.5366 44.9537 18.5942 45.0031 18.649C46.6255 20.3387 47.531 22.5908 47.5298 24.9333V24.9334C47.5298 26.1292 47.2943 27.3132 46.8367 28.418C46.3791 29.5228 45.7083 30.5266 44.8628 31.3721C44.0172 32.2177 43.0134 32.8884 41.9086 33.346C40.8039 33.8036 39.6198 34.0391 38.424 34.0391H22.8845L22.8927 34.0473H0.0926514V49.6047H38.7173V49.5597C41.9577 49.5789 45.1666 48.9228 48.1393 47.6331C51.0324 46.3889 53.6506 44.5846 55.8432 42.324C58.0451 40.0449 59.8096 37.3806 61.0488 34.4638C62.3201 31.4305 62.9749 28.1744 62.9749 24.8854C62.9749 21.5964 62.3201 18.3404 61.0488 15.307Z" fill="white"/>
<path d="M0.0925293 49.6044V49.6633V74.8582H15.7089V49.6633L15.7082 49.6044H0.0925293Z" fill="url(#paint1_linear_10_28)"/>
<defs>
<linearGradient id="paint0_linear_10_28" x1="24.0524" y1="41.044" x2="24.0524" y2="13.6569" gradientUnits="userSpaceOnUse">
<stop stop-color="white"/>
<stop offset="0.14921" stop-color="#FCFCFC"/>
<stop offset="0.28072" stop-color="#F1F1F1"/>
<stop offset="0.40554" stop-color="#DFDFDF"/>
<stop offset="0.5263" stop-color="#C5C5C5"/>
<stop offset="0.64417" stop-color="#A4A4A4"/>
<stop offset="0.75982" stop-color="#7C7C7C"/>
<stop offset="0.87152" stop-color="#4D4D4D"/>
<stop offset="0.96342" stop-color="#212121"/>
</linearGradient>
<linearGradient id="paint1_linear_10_28" x1="7.90071" y1="84.5718" x2="7.90071" y2="46.5943" gradientUnits="userSpaceOnUse">
<stop stop-color="white"/>
<stop offset="0.14921" stop-color="#FCFCFC"/>
<stop offset="0.28072" stop-color="#F1F1F1"/>
<stop offset="0.40554" stop-color="#DFDFDF"/>
<stop offset="0.5263" stop-color="#C5C5C5"/>
<stop offset="0.64417" stop-color="#A4A4A4"/>
<stop offset="0.75982" stop-color="#7C7C7C"/>
<stop offset="0.87152" stop-color="#4D4D4D"/>
<stop offset="0.96342" stop-color="#212121"/>
</linearGradient>
</defs>
</svg>
