<svg width="131" height="254" viewBox="0 0 131 254" fill="none" xmlns="http://www.w3.org/2000/svg">
<path opacity="0.6" d="M10.5985 212.824C10.4755 212.936 10.3885 213.083 10.3486 213.244C10.3087 213.406 10.3177 213.576 10.3743 213.733C10.431 213.889 10.5329 214.026 10.6671 214.124C10.8012 214.223 10.9617 214.28 11.1281 214.287C11.2945 214.295 11.4594 214.253 11.602 214.167C11.7446 214.081 11.8584 213.954 11.9291 213.803C11.9998 213.653 12.0241 213.484 11.9991 213.319C11.9741 213.155 11.9007 213.001 11.7884 212.878C11.6378 212.713 11.4278 212.615 11.2047 212.605C10.9816 212.594 10.7635 212.673 10.5985 212.824Z" fill="#CCBA96"/>
<path style="mix-blend-mode:lighten" opacity="0.5" d="M0.789048 214.074C0.478009 214.358 0.25816 214.728 0.1573 215.137C0.0564409 215.546 0.0791017 215.975 0.222417 216.371C0.365732 216.767 0.623263 217.112 0.962447 217.362C1.30163 217.611 1.70724 217.755 2.12797 217.774C2.5487 217.793 2.96566 217.687 3.32613 217.469C3.6866 217.251 3.97439 216.932 4.1531 216.55C4.33181 216.169 4.39342 215.743 4.33014 215.327C4.26685 214.91 4.08152 214.522 3.79757 214.211C3.60904 214.004 3.38166 213.837 3.12842 213.718C2.87519 213.6 2.60106 213.532 2.32168 213.519C2.04231 213.507 1.76317 213.549 1.5002 213.644C1.23722 213.739 0.995575 213.885 0.789048 214.074Z" fill="url(#paint0_radial_217_423)"/>
<path opacity="0.6" d="M6.28261 202.186C6.10845 202.345 5.98535 202.553 5.92887 202.781C5.87239 203.01 5.88507 203.251 5.9653 203.473C6.04553 203.694 6.18971 203.887 6.3796 204.027C6.5695 204.167 6.79659 204.247 7.03214 204.258C7.26769 204.269 7.50114 204.209 7.70295 204.087C7.90476 203.965 8.06588 203.786 8.16593 203.573C8.26597 203.359 8.30045 203.121 8.265 202.888C8.22956 202.655 8.12578 202.437 7.96679 202.263C7.86124 202.148 7.73395 202.054 7.59219 201.987C7.45043 201.921 7.29697 201.883 7.14058 201.876C6.98418 201.869 6.82792 201.893 6.68071 201.946C6.5335 201.999 6.39822 202.081 6.28261 202.186Z" fill="#CCBA96"/>
<path d="M3.49125 206.164C3.37208 206.273 3.28785 206.415 3.2492 206.572C3.21056 206.728 3.21924 206.893 3.27416 207.045C3.32907 207.196 3.42775 207.328 3.5577 207.424C3.68766 207.52 3.84307 207.575 4.00427 207.582C4.16547 207.589 4.32523 207.549 4.46334 207.465C4.60145 207.382 4.7117 207.259 4.78017 207.113C4.84863 206.967 4.87223 206.804 4.84797 206.644C4.82372 206.485 4.7527 206.336 4.6439 206.217C4.498 206.057 4.29459 205.962 4.07844 205.952C3.86228 205.942 3.65106 206.019 3.49125 206.164Z" fill="url(#paint1_linear_217_423)"/>
<path d="M2.87862 204.217C2.79708 204.291 2.73944 204.388 2.71301 204.495C2.68658 204.603 2.69253 204.715 2.73011 204.819C2.76769 204.923 2.83522 205.013 2.92415 205.079C3.01308 205.144 3.11942 205.182 3.22972 205.187C3.34003 205.192 3.44935 205.164 3.54386 205.107C3.63837 205.05 3.71382 204.966 3.76068 204.866C3.80753 204.766 3.82369 204.654 3.8071 204.545C3.79052 204.436 3.74193 204.334 3.66749 204.253C3.61806 204.198 3.55844 204.155 3.49204 204.123C3.42563 204.092 3.35375 204.075 3.28049 204.071C3.20723 204.068 3.13403 204.079 3.06508 204.104C2.99612 204.129 2.93276 204.167 2.87862 204.217Z" fill="url(#paint2_linear_217_423)"/>
<path opacity="0.6" d="M8.76546 220.312C8.59287 220.469 8.47087 220.674 8.41489 220.901C8.35892 221.128 8.37147 221.366 8.45097 221.586C8.53048 221.806 8.67335 221.997 8.86154 222.136C9.04972 222.274 9.27476 222.354 9.5082 222.364C9.74164 222.375 9.97299 222.316 10.173 222.195C10.373 222.075 10.5327 221.897 10.6319 221.686C10.731 221.474 10.7652 221.238 10.7301 221.007C10.695 220.776 10.5922 220.56 10.4346 220.388C10.2234 220.156 9.92882 220.018 9.6158 220.004C9.30277 219.99 8.9969 220.1 8.76546 220.312Z" fill="#CCBA96"/>
<path style="mix-blend-mode:lighten" opacity="0.5" d="M11.0819 217.553C10.8239 217.789 10.6415 218.096 10.5578 218.435C10.4741 218.774 10.4929 219.131 10.6118 219.459C10.7307 219.788 10.9444 220.074 11.2258 220.281C11.5072 220.488 11.8437 220.607 12.1928 220.623C12.5419 220.639 12.8878 220.551 13.1869 220.37C13.486 220.19 13.7248 219.924 13.873 219.608C14.0213 219.292 14.0724 218.938 14.0199 218.593C13.9674 218.247 13.8136 217.925 13.578 217.667C13.4216 217.496 13.2329 217.357 13.0228 217.258C12.8127 217.16 12.5853 217.104 12.3535 217.093C12.1217 217.083 11.8901 217.118 11.672 217.197C11.4538 217.276 11.2533 217.397 11.0819 217.553Z" fill="url(#paint3_radial_217_423)"/>
<path style="mix-blend-mode:lighten" opacity="0.5" d="M64.5154 182.401C85.1449 182.401 101.868 141.569 101.868 91.2006C101.868 40.8319 85.1449 0 64.5154 0C43.8859 0 27.1624 40.8319 27.1624 91.2006C27.1624 141.569 43.8859 182.401 64.5154 182.401Z" fill="url(#paint4_radial_217_423)"/>
<path opacity="0.4" d="M60.1542 98.3334C60.5018 98.0071 60.7449 97.5851 60.8526 97.1207C60.9604 96.6564 60.928 96.1704 60.7596 95.7244C60.5912 95.2784 60.2943 94.8924 59.9065 94.6151C59.5187 94.3379 59.0574 94.1818 58.5809 94.1667C58.1044 94.1516 57.6342 94.2782 57.2296 94.5304C56.825 94.7825 56.5043 95.149 56.308 95.5835C56.1117 96.0179 56.0487 96.5008 56.1269 96.9711C56.205 97.4414 56.4209 97.8779 56.7471 98.2255C57.1846 98.6916 57.7894 98.9648 58.4283 98.9851C59.0673 99.0053 59.6881 98.7709 60.1542 98.3334Z" fill="#CCBA96"/>
<path d="M88.0356 96.2518C88.3832 95.9255 88.6262 95.5036 88.734 95.0392C88.8417 94.5748 88.8094 94.0889 88.641 93.643C88.4726 93.197 88.1757 92.811 87.7879 92.5337C87.4002 92.2565 86.9389 92.1004 86.4624 92.0853C85.9859 92.0702 85.5157 92.1968 85.1111 92.4489C84.7066 92.7011 84.3859 93.0676 84.1896 93.502C83.9933 93.9364 83.9303 94.4193 84.0084 94.8895C84.0866 95.3598 84.3024 95.7963 84.6287 96.1439C84.8453 96.3747 85.1052 96.5606 85.3937 96.6909C85.6821 96.8212 85.9934 96.8935 86.3098 96.9035C86.6262 96.9135 86.9414 96.8611 87.2375 96.7493C87.5337 96.6375 87.8048 96.4684 88.0356 96.2518Z" fill="url(#paint5_linear_217_423)"/>
<path opacity="0.4" d="M81.1548 58.8871C81.5287 58.5361 81.7902 58.0821 81.9062 57.5825C82.0221 57.0829 81.9873 56.5602 81.8062 56.0803C81.625 55.6005 81.3057 55.1852 80.8885 54.8869C80.4713 54.5886 79.975 54.4206 79.4624 54.4044C78.9498 54.3881 78.4439 54.5242 78.0086 54.7955C77.5733 55.0668 77.2283 55.461 77.0171 55.9284C76.8059 56.3957 76.738 56.9152 76.822 57.4212C76.9061 57.9271 77.1383 58.3968 77.4892 58.7708C77.9599 59.2723 78.6105 59.5662 79.2979 59.588C79.9853 59.6099 80.6532 59.3577 81.1548 58.8871Z" fill="#CCBA96"/>
<path opacity="0.4" d="M78.2462 66.2602C78.4695 66.0506 78.6256 65.7795 78.6949 65.4812C78.7641 65.1828 78.7433 64.8707 78.6351 64.5841C78.527 64.2976 78.3363 64.0496 78.0871 63.8715C77.838 63.6934 77.5417 63.5931 77.2356 63.5834C76.9294 63.5737 76.6273 63.655 76.3674 63.817C76.1075 63.979 75.9015 64.2144 75.7754 64.4935C75.6493 64.7726 75.6088 65.0828 75.659 65.385C75.7092 65.6871 75.8479 65.9675 76.0575 66.1908C76.1966 66.3391 76.3636 66.4585 76.5489 66.5422C76.7342 66.626 76.9342 66.6724 77.1375 66.6788C77.3407 66.6852 77.5432 66.6516 77.7335 66.5798C77.9237 66.5079 78.0979 66.3993 78.2462 66.2602Z" fill="#CCBA96"/>
<path opacity="0.8" d="M75.0418 62.4347C75.1855 62.2998 75.286 62.1253 75.3305 61.9334C75.375 61.7414 75.3616 61.5405 75.292 61.3562C75.2224 61.1718 75.0996 61.0122 74.9393 60.8976C74.779 60.783 74.5883 60.7185 74.3913 60.7123C74.1943 60.7061 73.9999 60.7584 73.8327 60.8626C73.6655 60.9669 73.5329 61.1184 73.4518 61.298C73.3706 61.4776 73.3446 61.6772 73.3769 61.8716C73.4092 62.066 73.4984 62.2464 73.6333 62.3901C73.8142 62.5828 74.0642 62.6958 74.3283 62.7041C74.5925 62.7125 74.8491 62.6155 75.0418 62.4347Z" fill="#CCBA96"/>
<path opacity="0.8" d="M81.6866 84.5094C81.8303 84.3745 81.9307 84.2 81.9752 84.0081C82.0198 83.8161 82.0064 83.6152 81.9368 83.4309C81.8671 83.2465 81.7444 83.0869 81.5841 82.9723C81.4238 82.8577 81.2331 82.7932 81.0361 82.787C80.8391 82.7808 80.6447 82.8331 80.4775 82.9373C80.3103 83.0416 80.1777 83.1931 80.0965 83.3727C80.0154 83.5523 79.9894 83.7519 80.0217 83.9463C80.054 84.1407 80.1432 84.3212 80.2781 84.4649C80.3676 84.5603 80.4751 84.6371 80.5944 84.691C80.7136 84.7448 80.8423 84.7747 80.9731 84.7788C81.1039 84.783 81.2342 84.7613 81.3566 84.7151C81.4791 84.6688 81.5912 84.599 81.6866 84.5094Z" fill="#CCBA96"/>
<path opacity="0.4" d="M67.6343 55.9985C67.6778 55.9576 67.7083 55.9047 67.7218 55.8465C67.7353 55.7882 67.7312 55.7273 67.7101 55.6714C67.689 55.6155 67.6518 55.5671 67.6031 55.5323C67.5545 55.4975 67.4967 55.478 67.4369 55.4761C67.3772 55.4742 67.3182 55.4901 67.2675 55.5217C67.2167 55.5533 67.1765 55.5993 67.1519 55.6538C67.1273 55.7082 67.1194 55.7688 67.1292 55.8278C67.139 55.8867 67.1661 55.9415 67.207 55.9851C67.2341 56.014 67.2667 56.0373 67.3029 56.0537C67.3391 56.0701 67.3781 56.0791 67.4178 56.0804C67.4575 56.0816 67.4971 56.075 67.5342 56.061C67.5713 56.047 67.6053 56.0257 67.6343 55.9985Z" fill="#CCBA96"/>
<path opacity="0.8" d="M69.4506 68.5117C69.4942 68.4708 69.5247 68.4178 69.5382 68.3596C69.5517 68.3014 69.5477 68.2404 69.5266 68.1845C69.5054 68.1286 69.4682 68.0802 69.4196 68.0454C69.3709 68.0106 69.3131 67.9911 69.2533 67.9892C69.1936 67.9873 69.1346 68.0032 69.0839 68.0348C69.0331 68.0664 68.9929 68.1124 68.9683 68.1669C68.9437 68.2214 68.9358 68.2819 68.9456 68.3409C68.9554 68.3999 68.9825 68.4546 69.0235 68.4982C69.0783 68.5566 69.1541 68.5908 69.2342 68.5934C69.3144 68.5959 69.3922 68.5665 69.4506 68.5117Z" fill="#CCBA96"/>
<path opacity="0.8" d="M73.3505 92.3337C73.394 92.2928 73.4245 92.2399 73.438 92.1817C73.4515 92.1234 73.4474 92.0625 73.4263 92.0066C73.4052 91.9507 73.368 91.9023 73.3193 91.8675C73.2707 91.8327 73.2128 91.8132 73.1531 91.8113C73.0933 91.8094 73.0344 91.8253 72.9837 91.8569C72.9329 91.8885 72.8927 91.9345 72.8681 91.989C72.8435 92.0434 72.8356 92.104 72.8454 92.163C72.8552 92.2219 72.8823 92.2767 72.9232 92.3202C72.9781 92.3787 73.0539 92.4129 73.134 92.4155C73.2141 92.418 73.292 92.3886 73.3505 92.3337Z" fill="#CCBA96"/>
<path opacity="0.8" d="M70.5879 88.5404C70.6315 88.4995 70.662 88.4466 70.6755 88.3884C70.689 88.3301 70.685 88.2692 70.6639 88.2133C70.6428 88.1573 70.6056 88.1089 70.5569 88.0741C70.5083 88.0393 70.4505 88.0198 70.3907 88.0179C70.331 88.016 70.272 88.0318 70.2213 88.0634C70.1705 88.095 70.1303 88.141 70.1057 88.1955C70.0811 88.25 70.0731 88.3105 70.0829 88.3695C70.0927 88.4285 70.1198 88.4832 70.1607 88.5268C70.2156 88.5852 70.2914 88.6195 70.3715 88.622C70.4516 88.6246 70.5294 88.5952 70.5879 88.5404Z" fill="#CCBA96"/>
<path opacity="0.4" d="M60.2868 70.2098C60.8174 69.7118 61.1884 69.0676 61.3529 68.3587C61.5174 67.6499 61.468 66.9081 61.2109 66.2273C60.9538 65.5465 60.5007 64.9572 59.9087 64.534C59.3168 64.1107 58.6126 63.8725 57.8852 63.8495C57.1579 63.8265 56.4401 64.0196 55.8225 64.4045C55.2049 64.7895 54.7154 65.3489 54.4157 66.012C54.1161 66.6752 54.0198 67.4123 54.1391 68.1302C54.2584 68.848 54.5879 69.5144 55.0859 70.045C55.4166 70.3973 55.8134 70.6811 56.2537 70.88C56.6941 71.079 57.1693 71.1892 57.6522 71.2045C58.1352 71.2198 58.6164 71.1399 59.0684 70.9692C59.5205 70.7985 59.9345 70.5405 60.2868 70.2098Z" fill="#CCBA96"/>
<path d="M40.4751 77.3667C40.739 77.119 40.9235 76.7986 41.0053 76.4461C41.0871 76.0935 41.0625 75.7246 40.9347 75.386C40.8068 75.0474 40.5814 74.7543 40.287 74.5438C39.9926 74.3332 39.6423 74.2148 39.2806 74.2033C38.9188 74.1918 38.5618 74.2879 38.2546 74.4794C37.9474 74.6708 37.704 74.9491 37.5549 75.2789C37.4059 75.6087 37.358 75.9753 37.4173 76.3324C37.4767 76.6894 37.6405 77.0209 37.8882 77.2848C38.0527 77.46 38.2501 77.6012 38.4691 77.7001C38.6881 77.7991 38.9244 77.8539 39.1647 77.8615C39.4049 77.8691 39.6442 77.8294 39.8691 77.7445C40.0939 77.6596 40.2998 77.5312 40.4751 77.3667Z" fill="url(#paint6_linear_217_423)"/>
<path opacity="0.4" d="M73.5761 77.3243C73.84 77.0766 74.0245 76.7562 74.1063 76.4036C74.1881 76.0511 74.1636 75.6821 74.0357 75.3435C73.9078 75.0049 73.6824 74.7118 73.388 74.5013C73.0936 74.2908 72.7433 74.1723 72.3815 74.1608C72.0198 74.1494 71.6627 74.2454 71.3556 74.4369C71.0484 74.6284 70.8049 74.9066 70.6559 75.2365C70.5068 75.5663 70.459 75.9329 70.5183 76.29C70.5776 76.6471 70.7415 76.9785 70.9892 77.2424C71.3214 77.5963 71.7805 77.8038 72.2657 77.8191C72.7508 77.8345 73.2222 77.6565 73.5761 77.3243Z" fill="#CCBA96"/>
<path opacity="0.4" d="M60.2838 47.123C60.5477 46.8752 60.7323 46.5548 60.8141 46.2022C60.8959 45.8497 60.8713 45.4807 60.7435 45.1421C60.6156 44.8035 60.3902 44.5104 60.0958 44.2999C59.8013 44.0894 59.4511 43.9709 59.0893 43.9594C58.7276 43.948 58.3705 44.044 58.0633 44.2355C57.7562 44.4269 57.5127 44.7052 57.3636 45.035C57.2146 45.3649 57.1667 45.7315 57.2261 46.0886C57.2854 46.4456 57.4493 46.7771 57.697 47.041C58.0292 47.3949 58.4883 47.6023 58.9734 47.6177C59.4585 47.633 59.9299 47.4551 60.2838 47.123Z" fill="#CCBA96"/>
<path opacity="0.4" d="M37.1598 60.2742C37.4237 60.0265 37.6082 59.7061 37.69 59.3535C37.7718 59.0009 37.7472 58.632 37.6193 58.2934C37.4915 57.9548 37.2661 57.6617 36.9717 57.4512C36.6772 57.2407 36.327 57.1222 35.9652 57.1108C35.6035 57.0993 35.2464 57.1954 34.9393 57.3869C34.6321 57.5783 34.3886 57.8566 34.2396 58.1864C34.0906 58.5162 34.0427 58.8828 34.102 59.2399C34.1614 59.5969 34.3252 59.9284 34.5729 60.1923C34.7374 60.3675 34.9348 60.5087 35.1538 60.6076C35.3728 60.7066 35.6092 60.7614 35.8494 60.769C36.0896 60.7766 36.329 60.7369 36.5538 60.6519C36.7786 60.567 36.9845 60.4387 37.1598 60.2742Z" fill="#CCBA96"/>
<path opacity="0.4" d="M99.9744 65.9776C100.238 65.7299 100.423 65.4095 100.505 65.0569C100.586 64.7043 100.562 64.3354 100.434 63.9968C100.306 63.6582 100.081 63.3651 99.7863 63.1546C99.4919 62.9441 99.1416 62.8256 98.7799 62.8141C98.4181 62.8027 98.061 62.8988 97.7539 63.0903C97.4467 63.2818 97.2032 63.56 97.0542 63.8899C96.9052 64.2197 96.8574 64.5864 96.9168 64.9434C96.9761 65.3005 97.14 65.6319 97.3878 65.8958C97.5522 66.071 97.7496 66.2121 97.9686 66.3111C98.1876 66.41 98.424 66.4649 98.6641 66.4725C98.9043 66.4801 99.1437 66.4403 99.3685 66.3554C99.5933 66.2705 99.7992 66.1421 99.9744 65.9776Z" fill="#CCBA96"/>
<path opacity="0.4" d="M86.7452 33.9373C87.0091 33.6896 87.1937 33.3692 87.2755 33.0166C87.3574 32.664 87.3328 32.2951 87.2049 31.9565C87.0771 31.6178 86.8517 31.3247 86.5573 31.1142C86.2628 30.9037 85.9126 30.7852 85.5508 30.7737C85.189 30.7623 84.832 30.8584 84.5248 31.0498C84.2177 31.2413 83.9742 31.5195 83.8251 31.8494C83.6761 32.1793 83.6283 32.5459 83.6876 32.903C83.747 33.26 83.9109 33.5914 84.1586 33.8553C84.4907 34.2092 84.9499 34.4166 85.4349 34.432C85.92 34.4474 86.3913 34.2694 86.7452 33.9373Z" fill="#CCBA96"/>
<path d="M110.847 37.3669C110.974 37.2475 111.063 37.0931 111.103 36.9231C111.142 36.7532 111.13 36.5753 111.069 36.4121C111.007 36.2488 110.899 36.1075 110.757 36.006C110.615 35.9045 110.446 35.8474 110.272 35.8419C110.097 35.8363 109.925 35.8826 109.777 35.9749C109.629 36.0672 109.511 36.2014 109.44 36.3604C109.368 36.5194 109.345 36.6961 109.373 36.8682C109.402 37.0404 109.481 37.2001 109.6 37.3274C109.76 37.4979 109.982 37.5979 110.216 37.6054C110.449 37.6128 110.677 37.527 110.847 37.3669Z" fill="url(#paint7_linear_217_423)"/>
<path opacity="0.4" d="M65.6206 92.1636C65.7752 92.0184 65.8834 91.8307 65.9313 91.6241C65.9792 91.4175 65.9648 91.2013 65.8899 91.0029C65.815 90.8044 65.6829 90.6327 65.5104 90.5093C65.3378 90.386 65.1326 90.3166 64.9206 90.3099C64.7086 90.3032 64.4994 90.3595 64.3194 90.4717C64.1394 90.5839 63.9968 90.7469 63.9094 90.9402C63.8221 91.1335 63.7941 91.3483 63.8288 91.5575C63.8636 91.7668 63.9597 91.961 64.1048 92.1156C64.2995 92.3229 64.5685 92.4445 64.8528 92.4535C65.137 92.4625 65.4132 92.3582 65.6206 92.1636Z" fill="#CCBA96"/>
<path d="M63.544 61.7771C63.6987 61.6319 63.8068 61.4442 63.8548 61.2376C63.9027 61.031 63.8883 60.8149 63.8134 60.6164C63.7385 60.418 63.6065 60.2463 63.4339 60.1229C63.2614 59.9996 63.0562 59.9301 62.8442 59.9234C62.6322 59.9167 62.423 59.973 62.243 60.0851C62.0631 60.1973 61.9204 60.3603 61.833 60.5536C61.7457 60.7469 61.7177 60.9617 61.7524 61.1709C61.7872 61.3801 61.8832 61.5744 62.0283 61.729C62.223 61.9363 62.492 62.0579 62.7762 62.0669C63.0605 62.0759 63.3366 61.9717 63.544 61.7771Z" fill="url(#paint8_linear_217_423)"/>
<path d="M49.8049 61.3658C49.9094 61.2678 49.9824 61.141 50.0148 61.0015C50.0472 60.862 50.0375 60.716 49.9869 60.5819C49.9363 60.4479 49.8471 60.3319 49.7306 60.2486C49.614 60.1653 49.4754 60.1184 49.3323 60.1139C49.1891 60.1094 49.0478 60.1474 48.9262 60.2231C48.8047 60.2989 48.7083 60.409 48.6493 60.5395C48.5903 60.6701 48.5714 60.8152 48.5949 60.9565C48.6184 61.0978 48.6832 61.2289 48.7812 61.3334C48.9127 61.4734 49.0944 61.5555 49.2864 61.5616C49.4783 61.5676 49.6649 61.4972 49.8049 61.3658Z" fill="url(#paint9_linear_217_423)"/>
<path d="M47.7464 61.3112C47.898 61.1689 48.004 60.9848 48.0509 60.7823C48.0979 60.5798 48.0838 60.3679 48.0103 60.1734C47.9369 59.9789 47.8074 59.8106 47.6383 59.6897C47.4692 59.5688 47.268 59.5007 47.0602 59.4942C46.8524 59.4876 46.6473 59.5428 46.4709 59.6528C46.2945 59.7628 46.1546 59.9226 46.069 60.112C45.9835 60.3015 45.956 60.5121 45.9901 60.7172C46.0242 60.9222 46.1183 61.1126 46.2606 61.2642C46.355 61.3649 46.4684 61.4459 46.5942 61.5028C46.72 61.5596 46.8558 61.5911 46.9938 61.5955C47.1318 61.5998 47.2692 61.577 47.3984 61.5282C47.5275 61.4794 47.6458 61.4057 47.7464 61.3112Z" fill="url(#paint10_linear_217_423)"/>
<path d="M47.3809 63.8154C47.4648 63.7366 47.5235 63.6348 47.5495 63.5227C47.5756 63.4106 47.5678 63.2933 47.5271 63.1856C47.4865 63.0779 47.4148 62.9847 47.3212 62.9178C47.2276 62.8508 47.1162 62.8131 47.0012 62.8095C46.8862 62.8058 46.7726 62.8364 46.675 62.8973C46.5773 62.9581 46.4999 63.0466 46.4525 63.1515C46.4051 63.2564 46.3899 63.373 46.4088 63.4865C46.4276 63.6 46.4797 63.7054 46.5585 63.7893C46.6641 63.9018 46.8101 63.9677 46.9643 63.9726C47.1185 63.9775 47.2684 63.9209 47.3809 63.8154Z" fill="url(#paint11_linear_217_423)"/>
<path opacity="0.4" d="M57.4745 81.1134C57.5835 81.0111 57.6597 80.8787 57.6935 80.733C57.7274 80.5874 57.7172 80.4349 57.6644 80.295C57.6116 80.1551 57.5184 80.034 57.3968 79.9471C57.2751 79.8601 57.1304 79.8111 56.981 79.8064C56.8315 79.8017 56.684 79.8414 56.5571 79.9205C56.4302 79.9996 56.3296 80.1145 56.268 80.2508C56.2064 80.3871 56.1866 80.5386 56.2112 80.6861C56.2357 80.8336 56.3034 80.9705 56.4057 81.0796C56.543 81.2258 56.7327 81.3115 56.9331 81.3178C57.1335 81.3242 57.3283 81.2506 57.4745 81.1134Z" fill="#CCBA96"/>
<path opacity="0.4" d="M79.5011 84.1998C79.6101 84.0975 79.6864 83.9651 79.7202 83.8195C79.754 83.6738 79.7438 83.5214 79.691 83.3815C79.6382 83.2416 79.545 83.1205 79.4234 83.0335C79.3017 82.9465 79.157 82.8976 79.0076 82.8928C78.8581 82.8881 78.7106 82.9278 78.5837 83.0069C78.4568 83.086 78.3562 83.201 78.2946 83.3372C78.233 83.4735 78.2133 83.625 78.2378 83.7725C78.2623 83.92 78.33 84.057 78.4323 84.166C78.5696 84.3122 78.7593 84.3978 78.9597 84.4042C79.1601 84.4105 79.3548 84.337 79.5011 84.1998Z" fill="#CCBA96"/>
<path d="M62.1642 82.2857C62.4327 82.0338 62.6204 81.7079 62.7036 81.3493C62.7868 80.9907 62.7618 80.6154 62.6318 80.271C62.5018 79.9266 62.2725 79.6285 61.973 79.4144C61.6736 79.2002 61.3173 79.0797 60.9493 79.0681C60.5814 79.0564 60.2182 79.1541 59.9058 79.3489C59.5934 79.5436 59.3457 79.8266 59.1941 80.1621C59.0426 80.4976 58.9939 80.8705 59.0542 81.2337C59.1146 81.5969 59.2813 81.934 59.5333 82.2024C59.8711 82.5623 60.3381 82.7733 60.8315 82.7889C61.3249 82.8046 61.8043 82.6236 62.1642 82.2857Z" fill="url(#paint12_linear_217_423)"/>
<path opacity="0.6" d="M119.867 211.983C119.988 211.869 120.073 211.722 120.111 211.56C120.149 211.397 120.137 211.227 120.078 211.072C120.02 210.916 119.916 210.781 119.78 210.684C119.645 210.587 119.484 210.533 119.317 210.527C119.151 210.522 118.986 210.566 118.845 210.654C118.704 210.743 118.592 210.871 118.523 211.022C118.454 211.174 118.432 211.343 118.46 211.507C118.487 211.672 118.562 211.824 118.676 211.946C118.752 212.026 118.843 212.091 118.944 212.137C119.045 212.182 119.153 212.208 119.264 212.211C119.374 212.215 119.485 212.196 119.588 212.157C119.692 212.118 119.786 212.059 119.867 211.983Z" fill="#CCBA96"/>
<path style="mix-blend-mode:lighten" opacity="0.5" d="M129.658 210.598C129.965 210.31 130.18 209.937 130.275 209.527C130.371 209.116 130.342 208.687 130.193 208.293C130.044 207.899 129.782 207.558 129.439 207.313C129.097 207.068 128.689 206.93 128.268 206.917C127.847 206.904 127.432 207.015 127.074 207.238C126.717 207.461 126.434 207.785 126.26 208.168C126.087 208.552 126.031 208.979 126.1 209.394C126.169 209.81 126.36 210.196 126.648 210.503C127.035 210.914 127.569 211.156 128.134 211.174C128.698 211.192 129.246 210.984 129.658 210.598Z" fill="url(#paint13_radial_217_423)"/>
<path opacity="0.6" d="M124.329 222.56C124.501 222.399 124.622 222.19 124.675 221.96C124.728 221.731 124.712 221.49 124.629 221.27C124.546 221.049 124.399 220.858 124.207 220.721C124.015 220.584 123.787 220.507 123.551 220.499C123.316 220.492 123.083 220.555 122.883 220.679C122.683 220.804 122.524 220.985 122.427 221.2C122.33 221.415 122.299 221.654 122.338 221.886C122.376 222.119 122.483 222.335 122.644 222.507C122.861 222.737 123.16 222.872 123.476 222.882C123.792 222.892 124.099 222.776 124.329 222.56Z" fill="#CCBA96"/>
<path d="M126.507 218.765C126.958 218.765 127.323 218.4 127.323 217.949C127.323 217.498 126.958 217.133 126.507 217.133C126.056 217.133 125.691 217.498 125.691 217.949C125.691 218.4 126.056 218.765 126.507 218.765Z" fill="url(#paint14_linear_217_423)"/>
<path d="M127.705 220.483C127.786 220.407 127.842 220.31 127.867 220.202C127.892 220.095 127.884 219.982 127.845 219.879C127.806 219.775 127.738 219.686 127.648 219.622C127.558 219.557 127.451 219.521 127.341 219.518C127.23 219.514 127.121 219.544 127.028 219.602C126.934 219.661 126.86 219.745 126.814 219.846C126.769 219.947 126.754 220.059 126.772 220.168C126.79 220.276 126.84 220.378 126.916 220.458C126.966 220.512 127.026 220.555 127.093 220.585C127.16 220.615 127.232 220.632 127.305 220.634C127.379 220.636 127.452 220.624 127.52 220.598C127.589 220.572 127.652 220.533 127.705 220.483Z" fill="url(#paint15_linear_217_423)"/>
<path opacity="0.6" d="M121.596 204.471C121.767 204.311 121.886 204.104 121.939 203.877C121.991 203.649 121.976 203.411 121.893 203.192C121.81 202.974 121.665 202.785 121.475 202.649C121.285 202.513 121.059 202.436 120.825 202.429C120.592 202.421 120.361 202.483 120.163 202.607C119.964 202.731 119.807 202.91 119.711 203.123C119.615 203.336 119.584 203.573 119.622 203.803C119.66 204.034 119.766 204.248 119.926 204.418C120.141 204.647 120.437 204.781 120.75 204.791C121.063 204.8 121.368 204.686 121.596 204.471Z" fill="#CCBA96"/>
<path style="mix-blend-mode:lighten" opacity="0.5" d="M119.318 207.261C119.573 207.022 119.751 206.712 119.83 206.372C119.909 206.032 119.885 205.675 119.762 205.348C119.638 205.022 119.421 204.739 119.137 204.535C118.852 204.332 118.514 204.218 118.165 204.207C117.816 204.196 117.471 204.288 117.174 204.473C116.878 204.658 116.643 204.927 116.499 205.245C116.355 205.564 116.309 205.918 116.366 206.262C116.423 206.607 116.582 206.927 116.821 207.182C116.98 207.351 117.17 207.487 117.382 207.583C117.593 207.678 117.821 207.731 118.053 207.739C118.285 207.746 118.516 207.708 118.733 207.626C118.95 207.544 119.149 207.42 119.318 207.261Z" fill="url(#paint16_radial_217_423)"/>
<g style="mix-blend-mode:lighten">
<path style="mix-blend-mode:lighten" d="M22.4336 223.864C25.1139 229.132 26.1038 243.407 20.8364 246.087C15.5691 248.768 6.03912 238.838 3.35865 233.571C2.71806 232.318 2.33082 230.951 2.21909 229.549C2.10737 228.146 2.27335 226.735 2.70755 225.397C3.14174 224.058 3.83562 222.819 4.74947 221.749C5.66333 220.679 6.77921 219.8 8.03325 219.162C9.28729 218.523 10.6549 218.139 12.0577 218.03C13.4606 217.921 14.8711 218.09 16.2087 218.526C17.5463 218.963 18.7845 219.659 19.8527 220.575C20.9208 221.491 21.7979 222.609 22.4336 223.864Z" fill="url(#paint17_linear_217_423)"/>
<path d="M22.4336 223.864C25.1139 229.132 26.1038 243.407 20.8364 246.087C15.5691 248.768 6.03912 238.838 3.35865 233.571C2.71806 232.318 2.33082 230.951 2.21909 229.549C2.10737 228.146 2.27335 226.735 2.70755 225.397C3.14174 224.058 3.83562 222.819 4.74947 221.749C5.66333 220.679 6.77921 219.8 8.03325 219.162C9.28729 218.523 10.6549 218.139 12.0577 218.03C13.4606 217.921 14.8711 218.09 16.2087 218.526C17.5463 218.963 18.7845 219.659 19.8527 220.575C20.9208 221.491 21.7979 222.609 22.4336 223.864Z" fill="url(#paint18_radial_217_423)"/>
<path d="M5.39139 221.808C6.5268 220.643 7.92079 219.763 9.46024 219.238C10.9997 218.713 12.6412 218.558 14.2516 218.786C17.18 219.365 17.9611 221.655 15.9962 223.902C14.8608 225.066 13.4668 225.947 11.9273 226.472C10.3879 226.997 8.74631 227.151 7.1359 226.923C4.20756 226.345 3.42651 224.055 5.39139 221.808Z" fill="#161616"/>
<path style="mix-blend-mode:lighten" opacity="0.5" d="M5.39139 221.808C6.5268 220.643 7.92079 219.763 9.46024 219.238C10.9997 218.713 12.6412 218.558 14.2516 218.786C17.18 219.365 17.9611 221.655 15.9962 223.902C14.8608 225.066 13.4668 225.947 11.9273 226.472C10.3879 226.997 8.74631 227.151 7.1359 226.923C4.20756 226.345 3.42651 224.055 5.39139 221.808Z" fill="url(#paint19_radial_217_423)"/>
<path d="M5.06419 225.955C5.18891 225.142 5.5599 224.387 6.12713 223.792C7.26254 222.627 8.65654 221.747 10.196 221.222C11.7354 220.697 13.377 220.542 14.9873 220.77C15.7551 220.892 16.473 221.228 17.059 221.739C17.2114 220.337 16.2187 219.175 14.2516 218.786C12.6412 218.558 10.9997 218.713 9.46026 219.238C7.92081 219.763 6.52682 220.643 5.3914 221.808C4.03027 223.364 3.98875 224.94 5.06419 225.955Z" fill="url(#paint20_linear_217_423)"/>
<path d="M104.479 196.621C104.479 227.908 85.8476 253.271 62.865 253.271C39.8823 253.271 21.2511 227.908 21.2511 196.621C21.2511 165.334 39.8823 155.959 62.865 155.959C85.8476 155.959 104.479 165.334 104.479 196.621Z" fill="url(#paint21_radial_217_423)"/>
<path style="mix-blend-mode:lighten" d="M104.479 196.621C104.479 227.908 85.8476 253.271 62.865 253.271C39.8823 253.271 21.2511 227.908 21.2511 196.621C21.2511 165.334 39.8823 155.959 62.865 155.959C85.8476 155.959 104.479 165.334 104.479 196.621Z" fill="url(#paint22_linear_217_423)"/>
<path d="M62.8649 189.177C78.5502 189.177 91.2656 181.836 91.2656 172.78C91.2656 163.724 78.5502 156.383 62.8649 156.383C47.1797 156.383 34.4642 163.724 34.4642 172.78C34.4642 181.836 47.1797 189.177 62.8649 189.177Z" fill="#161616"/>
<path style="mix-blend-mode:lighten" opacity="0.5" d="M62.8649 189.177C78.5502 189.177 91.2656 181.836 91.2656 172.78C91.2656 163.724 78.5502 156.383 62.8649 156.383C47.1797 156.383 34.4642 163.724 34.4642 172.78C34.4642 181.836 47.1797 189.177 62.8649 189.177Z" fill="url(#paint23_radial_217_423)"/>
<path d="M42.7822 165.553C53.8732 159.15 71.8556 159.15 82.9469 165.554C87.5283 168.198 90.2117 171.523 91.0084 174.964C92.1407 170.073 89.4572 164.944 82.9469 161.186C71.8556 154.782 53.8731 154.782 42.7822 161.185C36.2723 164.944 33.5891 170.072 34.7213 174.963C35.518 171.522 38.2013 168.198 42.7822 165.553Z" fill="url(#paint24_linear_217_423)"/>
<path d="M50.475 112.197C50.2498 116.353 49.0477 120.398 46.9664 124.003C44.8851 127.608 41.9832 130.671 38.4962 132.944C31.8805 136.764 26.5175 133.667 26.5175 126.029C26.7427 121.872 27.9447 117.827 30.026 114.222C32.1073 110.618 35.0092 107.554 38.4962 105.281C45.1119 101.462 50.475 104.558 50.475 112.197Z" fill="#969AFF"/>
<path d="M64.5155 176.085C87.9555 176.085 106.957 157.083 106.957 133.643C106.957 110.202 87.9555 91.2006 64.5155 91.2006C41.0754 91.2006 22.0735 110.202 22.0735 133.643C22.0735 157.083 41.0754 176.085 64.5155 176.085Z" fill="url(#paint25_radial_217_423)"/>
<path d="M64.5155 176.085C87.9555 176.085 106.957 157.083 106.957 133.643C106.957 110.202 87.9555 91.2006 64.5155 91.2006C41.0754 91.2006 22.0735 110.202 22.0735 133.643C22.0735 157.083 41.0754 176.085 64.5155 176.085Z" fill="url(#paint26_linear_217_423)"/>
<path d="M109.831 208.869C118.732 208.869 125.948 201.653 125.948 192.751C125.948 183.85 118.732 176.634 109.831 176.634C100.93 176.634 93.7136 183.85 93.7136 192.751C93.7136 201.653 100.93 208.869 109.831 208.869Z" fill="url(#paint27_radial_217_423)"/>
<g style="mix-blend-mode:lighten">
<path d="M109.831 208.869C118.732 208.869 125.949 201.653 125.949 192.751C125.949 183.85 118.732 176.634 109.831 176.634C100.93 176.634 93.7136 183.85 93.7136 192.751C93.7136 201.653 100.93 208.869 109.831 208.869Z" fill="url(#paint28_radial_217_423)"/>
</g>
<path d="M123.76 199.535C122.601 201.723 120.943 203.607 118.919 205.034C116.896 206.461 114.565 207.39 112.115 207.748C107.59 208.159 105.467 205.149 107.373 201.025C108.532 198.837 110.19 196.953 112.214 195.526C114.237 194.099 116.568 193.169 119.018 192.812C123.543 192.4 125.666 195.41 123.76 199.535Z" fill="#161616"/>
<path style="mix-blend-mode:lighten" opacity="0.5" d="M123.761 199.533C122.602 201.721 120.943 203.605 118.92 205.032C116.897 206.459 114.566 207.389 112.116 207.746C107.591 208.158 105.468 205.148 107.374 201.023C108.533 198.835 110.191 196.951 112.214 195.524C114.238 194.097 116.569 193.168 119.019 192.81C123.544 192.399 125.667 195.409 123.761 199.533Z" fill="url(#paint29_radial_217_423)"/>
<path d="M122.46 193.336C122.626 194.576 122.408 195.838 121.835 196.951C120.676 199.139 119.018 201.023 116.995 202.45C114.971 203.877 112.64 204.807 110.19 205.164C109.017 205.315 107.824 205.133 106.749 204.638C107.128 206.751 109.076 208.022 112.116 207.746C114.566 207.389 116.897 206.459 118.92 205.032C120.943 203.605 122.602 201.721 123.761 199.533C125.081 196.676 124.466 194.356 122.46 193.336Z" fill="url(#paint30_linear_217_423)"/>
<path d="M18.3456 208.869C27.247 208.869 34.463 201.653 34.463 192.751C34.463 183.85 27.247 176.634 18.3456 176.634C9.44417 176.634 2.22815 183.85 2.22815 192.751C2.22815 201.653 9.44417 208.869 18.3456 208.869Z" fill="url(#paint31_radial_217_423)"/>
<g style="mix-blend-mode:lighten">
<path d="M18.3456 208.869C27.247 208.869 34.463 201.653 34.463 192.751C34.463 183.85 27.247 176.634 18.3456 176.634C9.44417 176.634 2.22815 183.85 2.22815 192.751C2.22815 201.653 9.44417 208.869 18.3456 208.869Z" fill="url(#paint32_radial_217_423)"/>
</g>
<path d="M14.7945 207.832C12.4052 207.183 10.2024 205.98 8.36502 204.32C6.52765 202.661 5.10745 200.592 4.21967 198.28C2.82221 193.957 5.29103 191.223 9.73399 192.175C12.1233 192.824 14.3261 194.027 16.1634 195.686C18.0008 197.346 19.421 199.415 20.3087 201.726C21.7063 206.05 19.2373 208.783 14.7945 207.832Z" fill="#161616"/>
<path style="mix-blend-mode:lighten" opacity="0.5" d="M14.7962 207.832C12.4069 207.183 10.2041 205.98 8.36674 204.321C6.52937 202.661 5.10916 200.592 4.22138 198.281C2.82392 193.957 5.29276 191.224 9.7357 192.175C12.125 192.824 14.3278 194.027 16.1651 195.686C18.0025 197.346 19.4227 199.415 20.3104 201.726C21.7079 206.05 19.239 208.783 14.7962 207.832Z" fill="url(#paint33_radial_217_423)"/>
<path d="M20.5554 205.199C19.3818 205.634 18.1028 205.699 16.8911 205.385C14.5017 204.737 12.299 203.534 10.4617 201.874C8.62431 200.215 7.20412 198.145 6.31635 195.834C5.91065 194.723 5.82579 193.519 6.07147 192.362C4.09436 193.196 3.28285 195.376 4.22139 198.281C5.10917 200.592 6.52937 202.661 8.36671 204.321C10.2041 205.98 12.4068 207.183 14.7961 207.832C17.8738 208.491 20.0015 207.38 20.5554 205.199Z" fill="url(#paint34_linear_217_423)"/>
<path d="M122.359 232.044C120.655 237.703 111.503 248.704 105.844 247C100.185 245.296 100.161 231.533 101.865 225.874C102.688 223.162 104.553 220.887 107.052 219.549C109.55 218.211 112.477 217.918 115.19 218.735C117.904 219.552 120.183 221.412 121.527 223.907C122.871 226.402 123.17 229.329 122.359 232.044Z" fill="url(#paint35_radial_217_423)"/>
<path d="M111.465 218.779C113.091 218.722 114.707 219.049 116.182 219.734C117.657 220.418 118.95 221.441 119.956 222.72C121.673 225.162 120.654 227.357 117.681 227.622C116.056 227.679 114.44 227.352 112.964 226.667C111.489 225.982 110.196 224.959 109.19 223.681C107.473 221.239 108.492 219.044 111.465 218.779Z" fill="#161616"/>
<path style="mix-blend-mode:lighten" d="M122.359 232.044C120.655 237.703 111.503 248.704 105.844 247C100.185 245.296 100.161 231.533 101.865 225.874C102.688 223.162 104.553 220.887 107.052 219.549C109.55 218.211 112.477 217.918 115.19 218.735C117.904 219.552 120.183 221.412 121.527 223.907C122.871 226.402 123.17 229.329 122.359 232.044Z" fill="url(#paint36_linear_217_423)"/>
<path style="mix-blend-mode:lighten" opacity="0.5" d="M111.465 218.779C113.091 218.722 114.707 219.049 116.182 219.734C117.657 220.418 118.95 221.441 119.956 222.72C121.673 225.162 120.654 227.357 117.681 227.622C116.056 227.679 114.44 227.352 112.964 226.667C111.489 225.982 110.196 224.959 109.19 223.681C107.473 221.239 108.492 219.044 111.465 218.779Z" fill="url(#paint37_radial_217_423)"/>
<path d="M108.362 221.549C109.014 221.048 109.804 220.759 110.626 220.721C112.251 220.664 113.867 220.991 115.342 221.676C116.818 222.361 118.111 223.384 119.117 224.662C119.587 225.281 119.874 226.019 119.944 226.793C121.023 225.886 121.109 224.36 119.956 222.72C118.95 221.441 117.657 220.418 116.182 219.734C114.707 219.049 113.091 218.722 111.465 218.779C109.406 218.962 108.286 220.073 108.362 221.549Z" fill="url(#paint38_linear_217_423)"/>
<path style="mix-blend-mode:lighten" opacity="0.5" d="M64.5154 159.613C76.1845 159.613 85.6442 150.547 85.6442 139.363C85.6442 128.179 76.1845 119.113 64.5154 119.113C52.8464 119.113 43.3867 128.179 43.3867 139.363C43.3867 150.547 52.8464 159.613 64.5154 159.613Z" fill="url(#paint39_radial_217_423)"/>
<path d="M64.5155 159.613C75.3298 159.613 84.0965 150.846 84.0965 140.032C84.0965 129.218 75.3298 120.451 64.5155 120.451C53.7012 120.451 44.9344 129.218 44.9344 140.032C44.9344 150.846 53.7012 159.613 64.5155 159.613Z" fill="url(#paint40_linear_217_423)"/>
<path d="M64.3689 158.616C74.1754 158.616 82.1252 150.666 82.1252 140.859C82.1252 131.053 74.1754 123.103 64.3689 123.103C54.5623 123.103 46.6125 131.053 46.6125 140.859C46.6125 150.666 54.5623 158.616 64.3689 158.616Z" fill="#161616"/>
<path style="mix-blend-mode:lighten" opacity="0.5" d="M64.3689 158.616C74.1754 158.616 82.1252 150.666 82.1252 140.859C82.1252 131.053 74.1754 123.103 64.3689 123.103C54.5623 123.103 46.6125 131.053 46.6125 140.859C46.6125 150.666 54.5623 158.616 64.3689 158.616Z" fill="url(#paint41_radial_217_423)"/>
<path d="M64.3689 149.059C68.8974 149.059 72.5683 145.388 72.5683 140.859C72.5683 136.331 68.8974 132.66 64.3689 132.66C59.8405 132.66 56.1696 136.331 56.1696 140.859C56.1696 145.388 59.8405 149.059 64.3689 149.059Z" fill="url(#paint42_radial_217_423)"/>
<path d="M64.369 147.99C68.307 147.99 71.4994 144.797 71.4994 140.859C71.4994 136.921 68.307 133.729 64.369 133.729C60.4309 133.729 57.2385 136.921 57.2385 140.859C57.2385 144.797 60.4309 147.99 64.369 147.99Z" fill="url(#paint43_radial_217_423)"/>
</g>
<defs>
<radialGradient id="paint0_radial_217_423" cx="0" cy="0" r="1" gradientUnits="userSpaceOnUse" gradientTransform="translate(2.22484 215.647) scale(2.12951)">
<stop offset="0.00122" stop-color="#CCB078"/>
<stop offset="0.01416" stop-color="#C7AC75"/>
<stop offset="0.14011" stop-color="#98845C"/>
<stop offset="0.27041" stop-color="#706247"/>
<stop offset="0.40339" stop-color="#4F4735"/>
<stop offset="0.53978" stop-color="#363127"/>
<stop offset="0.68093" stop-color="#24221E"/>
<stop offset="0.82998" stop-color="#191918"/>
<stop offset="1" stop-color="#161616"/>
</radialGradient>
<linearGradient id="paint1_linear_217_423" x1="20.7934" y1="377.086" x2="22.144" y2="377.086" gradientUnits="userSpaceOnUse">
<stop stop-color="#7A5623"/>
<stop offset="0.02141" stop-color="#7F5C29"/>
<stop offset="0.16858" stop-color="#A1804B"/>
<stop offset="0.30603" stop-color="#B89B64"/>
<stop offset="0.42891" stop-color="#C7AA73"/>
<stop offset="0.52494" stop-color="#CCB078"/>
<stop offset="0.6097" stop-color="#C6A972"/>
<stop offset="0.72857" stop-color="#B59761"/>
<stop offset="0.8669" stop-color="#9A7944"/>
<stop offset="1" stop-color="#7A5623"/>
</linearGradient>
<linearGradient id="paint2_linear_217_423" x1="14.4193" y1="319.976" x2="15.0518" y2="319.976" gradientUnits="userSpaceOnUse">
<stop stop-color="#7A5623"/>
<stop offset="0.02141" stop-color="#7F5C29"/>
<stop offset="0.16858" stop-color="#A1804B"/>
<stop offset="0.30603" stop-color="#B89B64"/>
<stop offset="0.42891" stop-color="#C7AA73"/>
<stop offset="0.52494" stop-color="#CCB078"/>
<stop offset="0.6097" stop-color="#C6A972"/>
<stop offset="0.72857" stop-color="#B59761"/>
<stop offset="0.8669" stop-color="#9A7944"/>
<stop offset="1" stop-color="#7A5623"/>
</linearGradient>
<radialGradient id="paint3_radial_217_423" cx="0" cy="0" r="1" gradientUnits="userSpaceOnUse" gradientTransform="translate(64.7662 609.363) scale(3.16676)">
<stop offset="0.00122" stop-color="#CCB078"/>
<stop offset="0.01416" stop-color="#C7AC75"/>
<stop offset="0.14011" stop-color="#98845C"/>
<stop offset="0.27041" stop-color="#706247"/>
<stop offset="0.40339" stop-color="#4F4735"/>
<stop offset="0.53978" stop-color="#363127"/>
<stop offset="0.68093" stop-color="#24221E"/>
<stop offset="0.82998" stop-color="#191918"/>
<stop offset="1" stop-color="#161616"/>
</radialGradient>
<radialGradient id="paint4_radial_217_423" cx="0" cy="0" r="1" gradientUnits="userSpaceOnUse" gradientTransform="translate(64.4928 91.2008) scale(44.3958 108.398)">
<stop stop-color="#CCB078"/>
<stop offset="0.06554" stop-color="#AD9567"/>
<stop offset="0.16316" stop-color="#857452"/>
<stop offset="0.26739" stop-color="#62573F"/>
<stop offset="0.37754" stop-color="#473F30"/>
<stop offset="0.49578" stop-color="#312D25"/>
<stop offset="0.62597" stop-color="#22201C"/>
<stop offset="0.77735" stop-color="#191817"/>
<stop offset="1" stop-color="#161616"/>
</radialGradient>
<linearGradient id="paint5_linear_217_423" x1="333.317" y1="323.135" x2="345.104" y2="323.135" gradientUnits="userSpaceOnUse">
<stop stop-color="#7A5623"/>
<stop offset="0.02141" stop-color="#7F5C29"/>
<stop offset="0.16858" stop-color="#A1804B"/>
<stop offset="0.30603" stop-color="#B89B64"/>
<stop offset="0.42891" stop-color="#C7AA73"/>
<stop offset="0.52494" stop-color="#CCB078"/>
<stop offset="0.6097" stop-color="#C6A972"/>
<stop offset="0.72857" stop-color="#B59761"/>
<stop offset="0.8669" stop-color="#9A7944"/>
<stop offset="1" stop-color="#7A5623"/>
</linearGradient>
<linearGradient id="paint6_linear_217_423" x1="140.227" y1="215.354" x2="147.022" y2="215.354" gradientUnits="userSpaceOnUse">
<stop stop-color="#7A5623"/>
<stop offset="0.02141" stop-color="#7F5C29"/>
<stop offset="0.16858" stop-color="#A1804B"/>
<stop offset="0.30603" stop-color="#B89B64"/>
<stop offset="0.42891" stop-color="#C7AA73"/>
<stop offset="0.52494" stop-color="#CCB078"/>
<stop offset="0.6097" stop-color="#C6A972"/>
<stop offset="0.72857" stop-color="#B59761"/>
<stop offset="0.8669" stop-color="#9A7944"/>
<stop offset="1" stop-color="#7A5623"/>
</linearGradient>
<linearGradient id="paint7_linear_217_423" x1="223.342" y1="68.7067" x2="224.921" y2="68.7067" gradientUnits="userSpaceOnUse">
<stop stop-color="#7A5623"/>
<stop offset="0.02141" stop-color="#7F5C29"/>
<stop offset="0.16858" stop-color="#A1804B"/>
<stop offset="0.30603" stop-color="#B89B64"/>
<stop offset="0.42891" stop-color="#C7AA73"/>
<stop offset="0.52494" stop-color="#CCB078"/>
<stop offset="0.6097" stop-color="#C6A972"/>
<stop offset="0.72857" stop-color="#B59761"/>
<stop offset="0.8669" stop-color="#9A7944"/>
<stop offset="1" stop-color="#7A5623"/>
</linearGradient>
<linearGradient id="paint8_linear_217_423" x1="148.477" y1="126.273" x2="150.81" y2="126.273" gradientUnits="userSpaceOnUse">
<stop stop-color="#7A5623"/>
<stop offset="0.02141" stop-color="#7F5C29"/>
<stop offset="0.16858" stop-color="#A1804B"/>
<stop offset="0.30603" stop-color="#B89B64"/>
<stop offset="0.42891" stop-color="#C7AA73"/>
<stop offset="0.52494" stop-color="#CCB078"/>
<stop offset="0.6097" stop-color="#C6A972"/>
<stop offset="0.72857" stop-color="#B59761"/>
<stop offset="0.8669" stop-color="#9A7944"/>
<stop offset="1" stop-color="#7A5623"/>
</linearGradient>
<linearGradient id="paint9_linear_217_423" x1="97.5052" y1="104.809" x2="98.5694" y2="104.809" gradientUnits="userSpaceOnUse">
<stop stop-color="#7A5623"/>
<stop offset="0.02141" stop-color="#7F5C29"/>
<stop offset="0.16858" stop-color="#A1804B"/>
<stop offset="0.30603" stop-color="#B89B64"/>
<stop offset="0.42891" stop-color="#C7AA73"/>
<stop offset="0.52494" stop-color="#CCB078"/>
<stop offset="0.6097" stop-color="#C6A972"/>
<stop offset="0.72857" stop-color="#B59761"/>
<stop offset="0.8669" stop-color="#9A7944"/>
<stop offset="1" stop-color="#7A5623"/>
</linearGradient>
<linearGradient id="paint10_linear_217_423" x1="114.196" y1="124.056" x2="116.438" y2="124.056" gradientUnits="userSpaceOnUse">
<stop stop-color="#7A5623"/>
<stop offset="0.02141" stop-color="#7F5C29"/>
<stop offset="0.16858" stop-color="#A1804B"/>
<stop offset="0.30603" stop-color="#B89B64"/>
<stop offset="0.42891" stop-color="#C7AA73"/>
<stop offset="0.52494" stop-color="#CCB078"/>
<stop offset="0.6097" stop-color="#C6A972"/>
<stop offset="0.72857" stop-color="#B59761"/>
<stop offset="0.8669" stop-color="#9A7944"/>
<stop offset="1" stop-color="#7A5623"/>
</linearGradient>
<linearGradient id="paint11_linear_217_423" x1="84.4154" y1="100.226" x2="85.1023" y2="100.226" gradientUnits="userSpaceOnUse">
<stop stop-color="#7A5623"/>
<stop offset="0.02141" stop-color="#7F5C29"/>
<stop offset="0.16858" stop-color="#A1804B"/>
<stop offset="0.30603" stop-color="#B89B64"/>
<stop offset="0.42891" stop-color="#C7AA73"/>
<stop offset="0.52494" stop-color="#CCB078"/>
<stop offset="0.6097" stop-color="#C6A972"/>
<stop offset="0.72857" stop-color="#B59761"/>
<stop offset="0.8669" stop-color="#9A7944"/>
<stop offset="1" stop-color="#7A5623"/>
</linearGradient>
<linearGradient id="paint12_linear_217_423" x1="204.48" y1="231.881" x2="211.51" y2="231.881" gradientUnits="userSpaceOnUse">
<stop stop-color="#7A5623"/>
<stop offset="0.02141" stop-color="#7F5C29"/>
<stop offset="0.16858" stop-color="#A1804B"/>
<stop offset="0.30603" stop-color="#B89B64"/>
<stop offset="0.42891" stop-color="#C7AA73"/>
<stop offset="0.52494" stop-color="#CCB078"/>
<stop offset="0.6097" stop-color="#C6A972"/>
<stop offset="0.72857" stop-color="#B59761"/>
<stop offset="0.8669" stop-color="#9A7944"/>
<stop offset="1" stop-color="#7A5623"/>
</linearGradient>
<radialGradient id="paint13_radial_217_423" cx="0" cy="0" r="1" gradientUnits="userSpaceOnUse" gradientTransform="translate(441.906 658.508) scale(4.60034)">
<stop stop-color="#CCB078"/>
<stop offset="0.01296" stop-color="#C7AC75"/>
<stop offset="0.13906" stop-color="#98845C"/>
<stop offset="0.26952" stop-color="#706247"/>
<stop offset="0.40266" stop-color="#4F4735"/>
<stop offset="0.53922" stop-color="#363127"/>
<stop offset="0.68055" stop-color="#24221E"/>
<stop offset="0.82977" stop-color="#191918"/>
<stop offset="1" stop-color="#161616"/>
</radialGradient>
<linearGradient id="paint14_linear_217_423" x1="244.619" y1="397.521" x2="245.969" y2="397.521" gradientUnits="userSpaceOnUse">
<stop stop-color="#7A5623"/>
<stop offset="0.02141" stop-color="#7F5C29"/>
<stop offset="0.16858" stop-color="#A1804B"/>
<stop offset="0.30603" stop-color="#B89B64"/>
<stop offset="0.42891" stop-color="#C7AA73"/>
<stop offset="0.52494" stop-color="#CCB078"/>
<stop offset="0.6097" stop-color="#C6A972"/>
<stop offset="0.72857" stop-color="#B59761"/>
<stop offset="0.8669" stop-color="#9A7944"/>
<stop offset="1" stop-color="#7A5623"/>
</linearGradient>
<linearGradient id="paint15_linear_217_423" x1="208.766" y1="344.179" x2="209.399" y2="344.179" gradientUnits="userSpaceOnUse">
<stop stop-color="#7A5623"/>
<stop offset="0.02141" stop-color="#7F5C29"/>
<stop offset="0.16858" stop-color="#A1804B"/>
<stop offset="0.30603" stop-color="#B89B64"/>
<stop offset="0.42891" stop-color="#C7AA73"/>
<stop offset="0.52494" stop-color="#CCB078"/>
<stop offset="0.6097" stop-color="#C6A972"/>
<stop offset="0.72857" stop-color="#B59761"/>
<stop offset="0.8669" stop-color="#9A7944"/>
<stop offset="1" stop-color="#7A5623"/>
</linearGradient>
<radialGradient id="paint16_radial_217_423" cx="0" cy="0" r="1" gradientUnits="userSpaceOnUse" gradientTransform="translate(360.299 573.39) scale(3.16687)">
<stop stop-color="#CCB078"/>
<stop offset="0.01296" stop-color="#C7AC75"/>
<stop offset="0.13906" stop-color="#98845C"/>
<stop offset="0.26952" stop-color="#706247"/>
<stop offset="0.40266" stop-color="#4F4735"/>
<stop offset="0.53922" stop-color="#363127"/>
<stop offset="0.68055" stop-color="#24221E"/>
<stop offset="0.82977" stop-color="#191918"/>
<stop offset="1" stop-color="#161616"/>
</radialGradient>
<linearGradient id="paint17_linear_217_423" x1="10.2305" y1="244.335" x2="17.4462" y2="218.888" gradientUnits="userSpaceOnUse">
<stop stop-color="#CCBA96"/>
<stop offset="0.09577" stop-color="#BCA67F"/>
<stop offset="0.26404" stop-color="#A48A5E"/>
<stop offset="0.43689" stop-color="#927344"/>
<stop offset="0.61402" stop-color="#846332"/>
<stop offset="0.7981" stop-color="#7D5927"/>
<stop offset="1" stop-color="#7A5623"/>
</linearGradient>
<radialGradient id="paint18_radial_217_423" cx="0" cy="0" r="1" gradientUnits="userSpaceOnUse" gradientTransform="translate(14.0359 220.227) rotate(-26.9697) scale(30.3994)">
<stop stop-color="#CCBA96"/>
<stop offset="1" stop-color="#7A5623"/>
</radialGradient>
<radialGradient id="paint19_radial_217_423" cx="0" cy="0" r="1" gradientUnits="userSpaceOnUse" gradientTransform="translate(11.077 225.391) rotate(-138.833) scale(19.7283)">
<stop stop-color="#CCBA96"/>
<stop offset="0.01296" stop-color="#C7B592"/>
<stop offset="0.13906" stop-color="#988B72"/>
<stop offset="0.26952" stop-color="#706755"/>
<stop offset="0.40266" stop-color="#4F4A3E"/>
<stop offset="0.53922" stop-color="#36332D"/>
<stop offset="0.68055" stop-color="#242320"/>
<stop offset="0.82977" stop-color="#191918"/>
<stop offset="1" stop-color="#161616"/>
</radialGradient>
<linearGradient id="paint20_linear_217_423" x1="4.30884" y1="222.304" x2="17.0743" y2="222.304" gradientUnits="userSpaceOnUse">
<stop stop-color="#7A5623"/>
<stop offset="0.02141" stop-color="#7F5C29"/>
<stop offset="0.16858" stop-color="#A1804B"/>
<stop offset="0.30603" stop-color="#B89B64"/>
<stop offset="0.42891" stop-color="#C7AA73"/>
<stop offset="0.52494" stop-color="#CCB078"/>
<stop offset="0.6097" stop-color="#C6A972"/>
<stop offset="0.72857" stop-color="#B59761"/>
<stop offset="0.8669" stop-color="#9A7944"/>
<stop offset="1" stop-color="#7A5623"/>
</linearGradient>
<radialGradient id="paint21_radial_217_423" cx="0" cy="0" r="1" gradientUnits="userSpaceOnUse" gradientTransform="translate(87.4181 188.132) scale(71.5157 97.3518)">
<stop stop-color="#CCB078"/>
<stop offset="1" stop-color="#7A5623"/>
</radialGradient>
<linearGradient id="paint22_linear_217_423" x1="62.865" y1="253.27" x2="62.865" y2="155.959" gradientUnits="userSpaceOnUse">
<stop stop-color="#CCB078"/>
<stop offset="0.177" stop-color="#B0915B"/>
<stop offset="0.36933" stop-color="#987742"/>
<stop offset="0.56767" stop-color="#876531"/>
<stop offset="0.77384" stop-color="#7D5A26"/>
<stop offset="1" stop-color="#7A5623"/>
</linearGradient>
<radialGradient id="paint23_radial_217_423" cx="0" cy="0" r="1" gradientUnits="userSpaceOnUse" gradientTransform="translate(61.762 188.535) scale(55.3547)">
<stop stop-color="#CCBA96"/>
<stop offset="0.01294" stop-color="#C7B592"/>
<stop offset="0.13887" stop-color="#988B72"/>
<stop offset="0.26915" stop-color="#706755"/>
<stop offset="0.4021" stop-color="#4F4A3E"/>
<stop offset="0.53847" stop-color="#36332D"/>
<stop offset="0.6796" stop-color="#242320"/>
<stop offset="0.82862" stop-color="#191918"/>
<stop offset="0.99861" stop-color="#161616"/>
</radialGradient>
<linearGradient id="paint24_linear_217_423" x1="1545.89" y1="1717.86" x2="3181.81" y2="1717.86" gradientUnits="userSpaceOnUse">
<stop stop-color="#7A5623"/>
<stop offset="0.02141" stop-color="#7F5C29"/>
<stop offset="0.16858" stop-color="#A1804B"/>
<stop offset="0.30603" stop-color="#B89B64"/>
<stop offset="0.42891" stop-color="#C7AA73"/>
<stop offset="0.52494" stop-color="#CCB078"/>
<stop offset="0.6097" stop-color="#C6A972"/>
<stop offset="0.72857" stop-color="#B59761"/>
<stop offset="0.8669" stop-color="#9A7944"/>
<stop offset="1" stop-color="#7A5623"/>
</linearGradient>
<radialGradient id="paint25_radial_217_423" cx="0" cy="0" r="1" gradientUnits="userSpaceOnUse" gradientTransform="translate(91.0024 127.355) scale(71.7349)">
<stop stop-color="#A2A0F6"/>
<stop offset="1" stop-color="#0D0091"/>
</radialGradient>
<linearGradient id="paint26_linear_217_423" x1="58.608" y1="175.677" x2="70.423" y2="91.6084" gradientUnits="userSpaceOnUse">
<stop stop-color="#7A5623"/>
<stop offset="0.05828" stop-color="#7B5929"/>
<stop offset="0.44262" stop-color="#826E4B"/>
<stop offset="0.74682" stop-color="#C5BCAC"/>
<stop offset="1" stop-color="white"/>
</linearGradient>
<radialGradient id="paint27_radial_217_423" cx="0" cy="0" r="1" gradientUnits="userSpaceOnUse" gradientTransform="translate(110.741 179.151) rotate(-21.8012) scale(41.9277 35.769)">
<stop stop-color="#CCBA96"/>
<stop offset="1" stop-color="#7A5623"/>
</radialGradient>
<radialGradient id="paint28_radial_217_423" cx="0" cy="0" r="1" gradientUnits="userSpaceOnUse" gradientTransform="translate(110.741 179.151) rotate(-21.8012) scale(41.9277 35.769)">
<stop stop-color="#CCBA96"/>
<stop offset="1" stop-color="#7A5623"/>
</radialGradient>
<radialGradient id="paint29_radial_217_423" cx="0" cy="0" r="1" gradientUnits="userSpaceOnUse" gradientTransform="translate(113.898 196.708) rotate(24.8049) scale(30.0303)">
<stop stop-color="#CCB078"/>
<stop offset="0.01296" stop-color="#C7AC75"/>
<stop offset="0.13906" stop-color="#98845C"/>
<stop offset="0.26952" stop-color="#706247"/>
<stop offset="0.40266" stop-color="#4F4735"/>
<stop offset="0.53922" stop-color="#363127"/>
<stop offset="0.68055" stop-color="#24221E"/>
<stop offset="0.82977" stop-color="#191918"/>
<stop offset="1" stop-color="#161616"/>
</radialGradient>
<linearGradient id="paint30_linear_217_423" x1="106.749" y1="200.529" x2="124.459" y2="200.529" gradientUnits="userSpaceOnUse">
<stop stop-color="#7A5623"/>
<stop offset="0.02141" stop-color="#7F5C29"/>
<stop offset="0.16858" stop-color="#A1804B"/>
<stop offset="0.30603" stop-color="#B89B64"/>
<stop offset="0.42891" stop-color="#C7AA73"/>
<stop offset="0.52494" stop-color="#CCB078"/>
<stop offset="0.6097" stop-color="#C6A972"/>
<stop offset="0.72857" stop-color="#B59761"/>
<stop offset="0.8669" stop-color="#9A7944"/>
<stop offset="1" stop-color="#7A5623"/>
</linearGradient>
<radialGradient id="paint31_radial_217_423" cx="0" cy="0" r="1" gradientUnits="userSpaceOnUse" gradientTransform="translate(19.2556 179.151) rotate(-21.8012) scale(41.9277 35.769)">
<stop stop-color="#CCBA96"/>
<stop offset="1" stop-color="#7A5623"/>
</radialGradient>
<radialGradient id="paint32_radial_217_423" cx="0" cy="0" r="1" gradientUnits="userSpaceOnUse" gradientTransform="translate(19.2556 179.151) rotate(-21.8012) scale(41.9277 35.769)">
<stop stop-color="#CCBA96"/>
<stop offset="1" stop-color="#7A5623"/>
</radialGradient>
<radialGradient id="paint33_radial_217_423" cx="0" cy="0" r="1" gradientUnits="userSpaceOnUse" gradientTransform="translate(12.772 204.88) rotate(-128.162) scale(31.7489 31.1268)">
<stop stop-color="#CCBA96"/>
<stop offset="0.01296" stop-color="#C7B592"/>
<stop offset="0.13906" stop-color="#988B72"/>
<stop offset="0.26952" stop-color="#706755"/>
<stop offset="0.40266" stop-color="#4F4A3E"/>
<stop offset="0.53922" stop-color="#36332D"/>
<stop offset="0.68055" stop-color="#242320"/>
<stop offset="0.82977" stop-color="#191918"/>
<stop offset="1" stop-color="#161616"/>
</radialGradient>
<linearGradient id="paint34_linear_217_423" x1="3.83179" y1="200.158" x2="20.5554" y2="200.158" gradientUnits="userSpaceOnUse">
<stop stop-color="#7A5623"/>
<stop offset="0.02141" stop-color="#7F5C29"/>
<stop offset="0.16858" stop-color="#A1804B"/>
<stop offset="0.30603" stop-color="#B89B64"/>
<stop offset="0.42891" stop-color="#C7AA73"/>
<stop offset="0.52494" stop-color="#CCB078"/>
<stop offset="0.6097" stop-color="#C6A972"/>
<stop offset="0.72857" stop-color="#B59761"/>
<stop offset="0.8669" stop-color="#9A7944"/>
<stop offset="1" stop-color="#7A5623"/>
</linearGradient>
<radialGradient id="paint35_radial_217_423" cx="0" cy="0" r="1" gradientUnits="userSpaceOnUse" gradientTransform="translate(112.462 220.537) rotate(-27.7939) scale(29.9355 30.5503)">
<stop stop-color="#CCBA96"/>
<stop offset="1" stop-color="#7A5623"/>
</radialGradient>
<linearGradient id="paint36_linear_217_423" x1="108.742" y1="244.946" x2="116.269" y2="219.321" gradientUnits="userSpaceOnUse">
<stop stop-color="#CCBA96"/>
<stop offset="0.09577" stop-color="#BCA67F"/>
<stop offset="0.26404" stop-color="#A48A5E"/>
<stop offset="0.43689" stop-color="#927344"/>
<stop offset="0.61402" stop-color="#846332"/>
<stop offset="0.7981" stop-color="#7D5927"/>
<stop offset="1" stop-color="#7A5623"/>
</linearGradient>
<radialGradient id="paint37_radial_217_423" cx="0" cy="0" r="1" gradientUnits="userSpaceOnUse" gradientTransform="translate(114.946 225.893) rotate(-136.361) scale(19.9782 20.1356)">
<stop stop-color="#CCBA96"/>
<stop offset="0.01296" stop-color="#C7B592"/>
<stop offset="0.13906" stop-color="#988B72"/>
<stop offset="0.26952" stop-color="#706755"/>
<stop offset="0.40266" stop-color="#4F4A3E"/>
<stop offset="0.53922" stop-color="#36332D"/>
<stop offset="0.68055" stop-color="#242320"/>
<stop offset="0.82977" stop-color="#191918"/>
<stop offset="1" stop-color="#161616"/>
</radialGradient>
<linearGradient id="paint38_linear_217_423" x1="108.358" y1="222.766" x2="120.788" y2="222.766" gradientUnits="userSpaceOnUse">
<stop stop-color="#7A5623"/>
<stop offset="0.02141" stop-color="#7F5C29"/>
<stop offset="0.16858" stop-color="#A1804B"/>
<stop offset="0.30603" stop-color="#B89B64"/>
<stop offset="0.42891" stop-color="#C7AA73"/>
<stop offset="0.52494" stop-color="#CCB078"/>
<stop offset="0.6097" stop-color="#C6A972"/>
<stop offset="0.72857" stop-color="#B59761"/>
<stop offset="0.8669" stop-color="#9A7944"/>
<stop offset="1" stop-color="#7A5623"/>
</linearGradient>
<radialGradient id="paint39_radial_217_423" cx="0" cy="0" r="1" gradientUnits="userSpaceOnUse" gradientTransform="translate(64.5154 139.363) scale(21.1287 20.2503)">
<stop stop-color="#CCBA96"/>
<stop offset="0.0975" stop-color="#A7997C"/>
<stop offset="0.23068" stop-color="#7B715D"/>
<stop offset="0.36556" stop-color="#575043"/>
<stop offset="0.50014" stop-color="#3A372F"/>
<stop offset="0.63444" stop-color="#262421"/>
<stop offset="0.76836" stop-color="#1A1A19"/>
<stop offset="0.90168" stop-color="#161616"/>
<stop offset="0.90776" stop-color="#161616"/>
<stop offset="1" stop-color="#161616"/>
</radialGradient>
<linearGradient id="paint40_linear_217_423" x1="44.9344" y1="140.032" x2="84.0965" y2="140.032" gradientUnits="userSpaceOnUse">
<stop stop-color="#CCBA96"/>
<stop offset="0.11006" stop-color="#BCA985"/>
<stop offset="0.3181" stop-color="#A28F6C"/>
<stop offset="0.5326" stop-color="#907D59"/>
<stop offset="0.75547" stop-color="#86724F"/>
<stop offset="1" stop-color="#826E4B"/>
</linearGradient>
<radialGradient id="paint41_radial_217_423" cx="0" cy="0" r="1" gradientUnits="userSpaceOnUse" gradientTransform="translate(64.3689 140.859) scale(17.7563)">
<stop stop-color="#CCBA96"/>
<stop offset="0.18739" stop-color="#C7B591"/>
<stop offset="0.41178" stop-color="#B9A683"/>
<stop offset="0.65515" stop-color="#A18E6B"/>
<stop offset="0.90168" stop-color="#826E4B"/>
<stop offset="0.91094" stop-color="#806943"/>
<stop offset="0.93819" stop-color="#7D5F31"/>
<stop offset="0.96705" stop-color="#7B5826"/>
<stop offset="1" stop-color="#7A5623"/>
</radialGradient>
<radialGradient id="paint42_radial_217_423" cx="0" cy="0" r="1" gradientUnits="userSpaceOnUse" gradientTransform="translate(64.3689 140.859) scale(8.19939)">
<stop stop-color="#C7AB74"/>
<stop offset="0.23416" stop-color="#BDA26E"/>
<stop offset="0.63802" stop-color="#A0895D"/>
<stop offset="1" stop-color="#826E4B"/>
</radialGradient>
<radialGradient id="paint43_radial_217_423" cx="0" cy="0" r="1" gradientUnits="userSpaceOnUse" gradientTransform="translate(64.369 140.859) scale(7.13044)">
<stop stop-color="#826E4B"/>
<stop offset="0.48455" stop-color="#84704C"/>
<stop offset="0.65908" stop-color="#8B7650"/>
<stop offset="0.78346" stop-color="#968057"/>
<stop offset="0.88402" stop-color="#A78F61"/>
<stop offset="0.9692" stop-color="#BDA26E"/>
<stop offset="1" stop-color="#C7AB74"/>
</radialGradient>
</defs>
</svg>
