<svg width="370" height="238" viewBox="0 0 370 238" fill="none" xmlns="http://www.w3.org/2000/svg">
<path opacity="0.3" d="M219.095 223.9L20.717 109.325C18.4107 107.993 18.6999 105.667 21.363 104.13L139.638 35.8433C141.005 35.0818 142.53 34.6515 144.093 34.5867C145.656 34.5219 147.212 34.8246 148.636 35.4704L347.014 150.046C349.32 151.378 349.031 153.703 346.368 155.241L228.093 223.527C226.726 224.289 225.201 224.719 223.638 224.784C222.075 224.849 220.519 224.546 219.095 223.9Z" fill="#999999"/>
<path d="M223.332 237.408C221.654 237.455 219.992 237.073 218.503 236.297L2.09553 111.287C1.49744 111.005 0.986853 110.567 0.617922 110.018C0.248991 109.469 0.0354692 108.83 0 108.17C0.0918973 107.327 0.402993 106.522 0.902352 105.836C1.40171 105.15 2.07194 104.607 2.84638 104.26L140.46 24.8091C143.709 22.9338 148.662 22.7364 151.497 24.3748L367.904 149.385C368.503 149.667 369.013 150.105 369.382 150.654C369.751 151.203 369.965 151.842 370 152.502C369.908 153.345 369.597 154.15 369.097 154.836C368.598 155.522 367.928 156.065 367.154 156.412L229.54 235.863C227.636 236.897 225.499 237.428 223.332 237.408ZM219.07 235.315C221.596 236.771 226.038 236.575 228.973 234.88L366.586 155.429C367.184 155.176 367.707 154.774 368.106 154.262C368.505 153.749 368.766 153.144 368.866 152.502C368.827 152.041 368.665 151.6 368.396 151.224C368.127 150.848 367.761 150.552 367.337 150.367L150.93 25.3574C148.408 23.9012 143.967 24.0962 141.027 25.7916L3.41364 105.243C2.81591 105.496 2.29283 105.898 1.89398 106.41C1.49512 106.923 1.23371 107.528 1.13451 108.17C1.17298 108.631 1.33534 109.072 1.60439 109.448C1.87344 109.824 2.23916 110.12 2.66279 110.305L219.07 235.315Z" fill="#CCBA96"/>
<path d="M356.858 120.368L348.648 121.806L154.204 9.50189C152.718 8.82835 151.095 8.51268 149.465 8.58024C147.836 8.64779 146.244 9.09669 144.819 9.89086L33.5869 74.111L19.1622 76.638V81.3336L19.168 81.3325C19.1869 81.8446 19.3481 82.3413 19.6335 82.7668C19.919 83.1924 20.3173 83.53 20.7839 83.7418L221.815 199.85C223.301 200.523 224.924 200.839 226.554 200.771C228.184 200.704 229.775 200.255 231.2 199.461L354.562 128.238C355.176 127.971 355.709 127.55 356.111 127.015C356.513 126.48 356.769 125.849 356.853 125.185L356.858 125.185V120.368Z" fill="#999999"/>
<path style="mix-blend-mode:lighten" opacity="0.5" d="M356.858 120.368L348.648 121.806L154.204 9.50189C152.718 8.82835 151.095 8.51268 149.465 8.58024C147.836 8.64779 146.244 9.09669 144.819 9.89086L33.5869 74.111L19.1622 76.638V81.3336L19.168 81.3325C19.1869 81.8446 19.3481 82.3413 19.6335 82.7668C19.919 83.1924 20.3173 83.53 20.7839 83.7418L221.815 199.85C223.301 200.523 224.924 200.839 226.554 200.771C228.184 200.704 229.775 200.255 231.2 199.461L354.562 128.238C355.176 127.971 355.709 127.55 356.111 127.015C356.513 126.48 356.769 125.849 356.853 125.185L356.858 125.185V120.368Z" fill="url(#paint0_radial_110_3030)"/>
<path d="M354.562 125.337L231.2 196.56C229.775 197.354 228.184 197.803 226.554 197.871C224.924 197.938 223.301 197.622 221.815 196.949L20.784 80.8411C20.3174 80.6293 19.919 80.2916 19.6336 79.8661C19.3481 79.4405 19.1869 78.9437 19.168 78.4316L19.1622 78.4328V79.663L19.168 79.662C19.1869 80.174 19.3481 80.6707 19.6336 81.0963C19.919 81.5219 20.3174 81.8595 20.784 82.0713L221.815 198.179C223.301 198.853 224.924 199.168 226.554 199.101C228.184 199.033 229.775 198.584 231.2 197.79L354.562 126.567C355.176 126.301 355.709 125.879 356.111 125.344C356.513 124.809 356.769 124.179 356.853 123.515L356.858 123.514V122.284L356.853 122.285C356.769 122.948 356.513 123.579 356.111 124.114C355.709 124.649 355.176 125.071 354.562 125.337Z" fill="url(#paint1_radial_110_3030)"/>
<path d="M221.815 195.056L20.7839 78.948C18.3785 77.5593 18.6801 75.1334 21.4577 73.5298L144.819 2.30684C146.244 1.51269 147.836 1.06381 149.465 0.996254C151.095 0.9287 152.718 1.24435 154.204 1.91786L355.236 118.026C357.641 119.415 357.339 121.84 354.562 123.444L231.2 194.667C229.775 195.461 228.184 195.91 226.554 195.978C224.924 196.045 223.301 195.729 221.815 195.056Z" fill="#161616"/>
<path style="mix-blend-mode:lighten" opacity="0.7" d="M221.815 195.056L20.7839 78.948C18.3785 77.5593 18.6801 75.1334 21.4577 73.5298L144.819 2.30684C146.244 1.51269 147.836 1.06381 149.465 0.996254C151.095 0.9287 152.718 1.24435 154.204 1.91786L355.236 118.026C357.641 119.415 357.339 121.84 354.562 123.444L231.2 194.667C229.775 195.461 228.184 195.91 226.554 195.978C224.924 196.045 223.301 195.729 221.815 195.056Z" fill="url(#paint2_linear_110_3030)"/>
<g opacity="0.4">
<path opacity="0.5" d="M356.858 119.389L348.648 120.827L154.204 8.52236C152.718 7.84885 151.095 7.53319 149.465 7.60075C147.836 7.6683 146.244 8.11718 144.819 8.91133L33.5869 73.1314L19.1621 75.6585V76.5404L19.168 76.5394C19.1869 77.0514 19.3481 77.5481 19.6335 77.9737C19.9189 78.3993 20.3173 78.7369 20.7839 78.9487L221.815 195.057C223.301 195.73 224.924 196.046 226.554 195.978C228.184 195.911 229.775 195.462 231.2 194.668L354.562 123.445C355.175 123.178 355.709 122.757 356.111 122.222C356.513 121.686 356.769 121.056 356.853 120.392L356.858 120.392V119.389Z" fill="url(#paint3_radial_110_3030)"/>
<path style="mix-blend-mode:lighten" opacity="0.7" d="M221.815 194.076L20.7839 77.9685C18.3785 76.5798 18.6801 74.1539 21.4577 72.5503L144.819 1.32746C146.244 0.533262 147.836 0.0843442 149.465 0.0167672C151.095 -0.0508097 152.718 0.264839 154.204 0.938354L355.236 117.046C357.641 118.435 357.339 120.861 354.562 122.465L231.2 193.687C229.775 194.482 228.184 194.931 226.554 194.998C224.924 195.066 223.301 194.75 221.815 194.076Z" fill="url(#paint4_radial_110_3030)"/>
<path opacity="0.4" d="M221.815 194.076L20.7839 77.9685C18.3785 76.5798 18.6801 74.1539 21.4577 72.5503L144.819 1.32746C146.244 0.533262 147.836 0.0843442 149.465 0.0167672C151.095 -0.0508097 152.718 0.264839 154.204 0.938354L355.236 117.046C357.641 118.435 357.339 120.861 354.562 122.465L231.2 193.687C229.775 194.482 228.184 194.931 226.554 194.998C224.924 195.066 223.301 194.75 221.815 194.076Z" fill="#161616"/>
</g>
<path opacity="0.5" d="M221.815 194.076L20.7839 77.9685C18.3785 76.5798 18.6801 74.1539 21.4577 72.5503L144.819 1.32746C146.244 0.533262 147.836 0.0843442 149.465 0.0167672C151.095 -0.0508097 152.718 0.264839 154.204 0.938354L355.236 117.046C357.641 118.435 357.339 120.861 354.562 122.465L231.2 193.687C229.775 194.482 228.184 194.931 226.554 194.998C224.924 195.066 223.301 194.75 221.815 194.076Z" fill="url(#paint5_radial_110_3030)"/>
<path opacity="0.5" d="M221.815 194.076L20.7839 77.9685C18.3785 76.5798 18.6801 74.1539 21.4577 72.5503L144.819 1.32746C146.244 0.533262 147.836 0.0843442 149.465 0.0167672C151.095 -0.0508097 152.718 0.264839 154.204 0.938354L355.236 117.046C357.641 118.435 357.339 120.861 354.562 122.465L231.2 193.687C229.775 194.482 228.184 194.931 226.554 194.998C224.924 195.066 223.301 194.75 221.815 194.076Z" fill="url(#paint6_radial_110_3030)"/>
<path opacity="0.9" d="M222.929 194.033L21.8981 77.9247C19.2883 76.3431 18.8217 74.6762 22.5719 72.5063L145.933 1.28348C147.265 0.551012 148.738 0.113962 150.254 0.00206911C148.358 -0.0348069 146.485 0.421783 144.819 1.32704L21.4577 72.55C18.6801 74.1536 18.3785 76.5795 20.7839 77.9682L221.815 194.076C223.379 194.864 225.141 195.174 226.88 194.969C225.505 194.992 224.147 194.67 222.929 194.033Z" fill="url(#paint7_radial_110_3030)"/>
<path opacity="0.3" d="M338.083 125.509C338.243 125.563 338.381 125.666 338.479 125.803C338.577 125.94 338.63 126.104 338.63 126.272C338.63 126.441 338.577 126.605 338.479 126.742C338.381 126.878 338.243 126.981 338.083 127.035C337.674 127.243 337.221 127.351 336.762 127.351C336.303 127.351 335.85 127.243 335.44 127.035C335.281 126.981 335.142 126.878 335.044 126.742C334.946 126.605 334.893 126.441 334.893 126.272C334.893 126.104 334.946 125.94 335.044 125.803C335.142 125.666 335.281 125.563 335.44 125.509C335.85 125.302 336.303 125.193 336.762 125.193C337.221 125.193 337.674 125.302 338.083 125.509Z" fill="#CCBA96"/>
<path opacity="0.7" d="M342.198 123.132C342.358 123.186 342.497 123.289 342.595 123.426C342.693 123.563 342.746 123.727 342.746 123.895C342.746 124.064 342.693 124.228 342.595 124.365C342.497 124.502 342.358 124.604 342.198 124.658C341.789 124.866 341.336 124.974 340.877 124.974C340.418 124.974 339.965 124.866 339.556 124.658C339.396 124.604 339.258 124.501 339.16 124.365C339.061 124.228 339.009 124.064 339.009 123.895C339.009 123.727 339.061 123.563 339.16 123.426C339.258 123.289 339.396 123.186 339.556 123.132C339.965 122.925 340.418 122.816 340.877 122.816C341.336 122.816 341.789 122.925 342.198 123.132Z" fill="#CCBA96"/>
<path d="M346.314 120.756C346.473 120.81 346.612 120.913 346.71 121.05C346.808 121.187 346.861 121.351 346.861 121.519C346.861 121.688 346.808 121.852 346.71 121.989C346.612 122.126 346.473 122.228 346.314 122.282C345.904 122.49 345.452 122.598 344.993 122.598C344.534 122.598 344.081 122.49 343.671 122.282C343.512 122.228 343.373 122.126 343.275 121.989C343.177 121.852 343.124 121.688 343.124 121.519C343.124 121.351 343.177 121.187 343.275 121.05C343.373 120.913 343.512 120.81 343.671 120.756C344.081 120.549 344.533 120.44 344.993 120.44C345.452 120.44 345.905 120.549 346.314 120.756Z" fill="#CCBA96"/>
<path d="M275.949 171.382C275.949 171.884 276.301 172.088 276.736 171.837C276.966 171.687 277.156 171.486 277.293 171.249C277.43 171.012 277.509 170.746 277.524 170.472C277.524 169.97 277.171 169.767 276.736 170.018C276.507 170.167 276.316 170.369 276.179 170.606C276.043 170.843 275.963 171.109 275.949 171.382Z" fill="#161616"/>
<path d="M272.843 173.176C272.843 173.678 273.196 173.882 273.631 173.631C273.86 173.481 274.051 173.28 274.188 173.043C274.324 172.806 274.404 172.54 274.418 172.267C274.418 171.764 274.066 171.561 273.631 171.812C273.401 171.961 273.21 172.163 273.074 172.4C272.937 172.637 272.858 172.903 272.843 173.176Z" fill="#161616"/>
<path d="M269.737 174.969C269.737 175.471 270.09 175.675 270.525 175.424C270.754 175.274 270.945 175.073 271.082 174.836C271.219 174.599 271.298 174.333 271.313 174.059C271.313 173.557 270.96 173.353 270.525 173.605C270.296 173.754 270.105 173.956 269.968 174.193C269.831 174.43 269.752 174.696 269.737 174.969Z" fill="#161616"/>
<path d="M318.686 146.708C318.686 147.211 319.039 147.414 319.474 147.163C319.703 147.013 319.894 146.812 320.031 146.575C320.168 146.338 320.247 146.072 320.262 145.799C320.262 145.296 319.909 145.093 319.474 145.344C319.245 145.493 319.054 145.695 318.917 145.932C318.78 146.169 318.701 146.435 318.686 146.708Z" fill="#161616"/>
<path d="M315.581 148.501C315.581 149.003 315.933 149.207 316.368 148.956C316.598 148.806 316.788 148.605 316.925 148.368C317.062 148.131 317.141 147.865 317.156 147.592C317.156 147.089 316.803 146.886 316.368 147.137C316.139 147.286 315.948 147.488 315.811 147.725C315.674 147.962 315.595 148.228 315.581 148.501Z" fill="#161616"/>
<path d="M312.475 150.294C312.475 150.796 312.828 151 313.263 150.749C313.492 150.599 313.683 150.398 313.82 150.161C313.956 149.924 314.035 149.658 314.05 149.385C314.05 148.882 313.698 148.679 313.263 148.93C313.033 149.079 312.842 149.281 312.706 149.518C312.569 149.755 312.49 150.021 312.475 150.294Z" fill="#161616"/>
<path d="M291.402 162.46C291.402 163.081 291.78 163.367 292.246 163.098L297.753 159.918C298.01 159.734 298.22 159.493 298.366 159.213C298.513 158.933 298.592 158.622 298.596 158.306C298.596 157.685 298.219 157.4 297.753 157.669L292.246 160.848C291.989 161.032 291.779 161.274 291.632 161.554C291.486 161.834 291.407 162.144 291.402 162.46Z" fill="#161616"/>
<path d="M107.358 89.5555L99.3582 84.9371L118.003 74.1729L126.003 78.7913L107.358 89.5555Z" fill="#CCBA96"/>
<path d="M120.826 97.3307L112.826 92.711L143.625 74.9297L151.626 79.5481L120.826 97.3307Z" fill="#CCBA96"/>
<path opacity="0.4" d="M134.292 105.106L126.292 100.486L154.959 83.9355L162.959 88.5553L134.292 105.106Z" fill="#CCBA96"/>
<path d="M147.76 112.881L139.76 108.263L176.292 87.1699L184.293 91.7883L147.76 112.881Z" fill="#CCBA96"/>
<path d="M161.227 120.656L153.226 116.038L198.939 89.6445L206.941 94.2629L161.227 120.656Z" fill="#CCBA96"/>
<path opacity="0.4" d="M174.693 128.432L166.693 123.812L204.993 101.7L212.993 106.319L174.693 128.432Z" fill="#CCBA96"/>
<path d="M188.161 136.206L180.161 131.588L240.427 96.793L248.427 101.411L188.161 136.206Z" fill="#CCBA96"/>
<path d="M201.627 143.982L193.627 139.364L264.861 98.2363L272.863 102.855L201.627 143.982Z" fill="#CCBA96"/>
<path d="M156.291 75.3932C155.054 75.4142 153.833 75.1178 152.743 74.5322C152.275 74.3577 151.871 74.0442 151.586 73.6336C151.301 73.2231 151.148 72.7352 151.148 72.2354C151.148 71.7355 151.301 71.2476 151.586 70.8371C151.871 70.4265 152.275 70.113 152.743 69.9385C153.841 69.3731 155.057 69.0781 156.292 69.0781C157.526 69.0781 158.743 69.3731 159.84 69.9385C160.309 70.113 160.712 70.4265 160.998 70.8371C161.283 71.2476 161.436 71.7355 161.436 72.2354C161.436 72.7352 161.283 73.2231 160.998 73.6336C160.712 74.0442 160.309 74.3577 159.84 74.5322C158.75 75.1179 157.528 75.4144 156.291 75.3932ZM156.292 69.9385C155.206 69.9171 154.133 70.1734 153.174 70.683C152.837 70.7805 152.542 70.9846 152.331 71.2646C152.121 71.5445 152.007 71.8852 152.007 72.2354C152.007 72.5855 152.121 72.9262 152.331 73.2061C152.542 73.4861 152.837 73.6902 153.174 73.7877C154.14 74.2771 155.208 74.5322 156.292 74.5322C157.375 74.5322 158.443 74.2771 159.41 73.7877C159.746 73.6902 160.041 73.4861 160.252 73.2061C160.462 72.9262 160.576 72.5855 160.576 72.2354C160.576 71.8852 160.462 71.5445 160.252 71.2646C160.041 70.9846 159.746 70.7805 159.41 70.683C158.451 70.1735 157.378 69.9173 156.292 69.9385Z" fill="#CCBA96"/>
<path d="M130.73 74.6015C129.493 74.6228 128.272 74.3259 127.183 73.7393C126.714 73.5648 126.31 73.2513 126.025 72.8409C125.74 72.4304 125.587 71.9426 125.587 71.4429C125.587 70.9431 125.74 70.4552 126.024 70.0446C126.309 69.634 126.713 69.3203 127.181 69.1455C128.279 68.5801 129.496 68.2852 130.73 68.2852C131.965 68.2852 133.182 68.5801 134.279 69.1455C134.748 69.32 135.152 69.6336 135.437 70.0441C135.722 70.4546 135.875 70.9425 135.875 71.4424C135.875 71.9423 135.722 72.4302 135.437 72.8407C135.152 73.2513 134.748 73.5648 134.279 73.7393C133.19 74.3259 131.968 74.6228 130.73 74.6015ZM130.73 69.1455C129.644 69.1241 128.571 69.3804 127.612 69.8901C127.276 69.9879 126.98 70.1922 126.77 70.4722C126.56 70.7522 126.447 71.0928 126.447 71.4429C126.447 71.793 126.561 72.1335 126.771 72.4134C126.981 72.6932 127.277 72.8973 127.613 72.9948C128.579 73.4842 129.648 73.7393 130.731 73.7393C131.814 73.7393 132.883 73.4842 133.849 72.9948C134.185 72.8973 134.481 72.6932 134.691 72.4132C134.901 72.1333 135.015 71.7926 135.015 71.4425C135.015 71.0923 134.901 70.7516 134.691 70.4717C134.481 70.1917 134.185 69.9877 133.849 69.8901C132.89 69.3804 131.816 69.1241 130.73 69.1455Z" fill="#CCBA96"/>
<path d="M167.625 84.4004C166.388 84.4216 165.166 84.1247 164.077 83.538C163.608 83.3636 163.205 83.05 162.919 82.6395C162.634 82.229 162.481 81.7411 162.481 81.2412C162.481 80.7414 162.634 80.2535 162.919 79.8429C163.205 79.4324 163.608 79.1189 164.077 78.9444C165.174 78.379 166.391 78.084 167.625 78.084C168.86 78.084 170.076 78.379 171.174 78.9444C171.642 79.1189 172.046 79.4324 172.331 79.8429C172.616 80.2535 172.769 80.7414 172.769 81.2412C172.769 81.7411 172.616 82.229 172.331 82.6395C172.046 83.05 171.642 83.3636 171.174 83.538C170.084 84.1248 168.862 84.4218 167.625 84.4004ZM167.626 78.9444C166.54 78.923 165.466 79.1792 164.507 79.6889C164.171 79.7864 163.875 79.9905 163.665 80.2704C163.455 80.5504 163.341 80.8911 163.341 81.2412C163.341 81.5914 163.455 81.932 163.665 82.212C163.875 82.4919 164.171 82.696 164.507 82.7936C165.474 83.2827 166.542 83.5376 167.625 83.5376C168.709 83.5376 169.777 83.2827 170.743 82.7936C171.08 82.696 171.375 82.4919 171.585 82.212C171.796 81.932 171.909 81.5914 171.909 81.2412C171.909 80.8911 171.796 80.5504 171.585 80.2704C171.375 79.9905 171.08 79.7864 170.743 79.6889C169.785 79.1794 168.712 78.9231 167.626 78.9444Z" fill="#CCBA96"/>
<path d="M188.959 87.6334C187.722 87.6544 186.5 87.358 185.411 86.7725C184.942 86.598 184.539 86.2845 184.253 85.8739C183.968 85.4634 183.815 84.9755 183.815 84.4756C183.815 83.9757 183.968 83.4878 184.253 83.0773C184.539 82.6668 184.942 82.3532 185.411 82.1787C186.508 81.6133 187.725 81.3184 188.959 81.3184C190.194 81.3184 191.41 81.6133 192.508 82.1787C192.976 82.3532 193.38 82.6668 193.665 83.0773C193.95 83.4878 194.103 83.9757 194.103 84.4756C194.103 84.9755 193.95 85.4634 193.665 85.8739C193.38 86.2845 192.976 86.598 192.508 86.7725C191.418 87.3581 190.196 87.6546 188.959 87.6334ZM188.96 82.1787C187.874 82.1573 186.801 82.4135 185.841 82.9232C185.505 83.0207 185.21 83.2248 184.999 83.5048C184.789 83.7847 184.675 84.1254 184.675 84.4755C184.675 84.8257 184.789 85.1664 184.999 85.4463C185.21 85.7263 185.505 85.9304 185.841 86.0279C186.808 86.5173 187.876 86.7724 188.959 86.7724C190.043 86.7724 191.111 86.5173 192.077 86.0279C192.414 85.9304 192.709 85.7263 192.919 85.4463C193.13 85.1664 193.244 84.8257 193.244 84.4755C193.244 84.1254 193.13 83.7847 192.919 83.5048C192.709 83.2248 192.414 83.0207 192.077 82.9232C191.119 82.4137 190.046 82.1574 188.96 82.1787Z" fill="#CCBA96"/>
<path d="M211.606 90.109C210.369 90.13 209.148 89.8335 208.058 89.2479C207.59 89.0735 207.186 88.7599 206.901 88.3494C206.615 87.9389 206.463 87.451 206.463 86.9511C206.463 86.4513 206.615 85.9634 206.901 85.5528C207.186 85.1423 207.59 84.8288 208.058 84.6543C209.155 84.0877 210.372 83.792 211.606 83.792C212.841 83.792 214.058 84.0877 215.155 84.6543C215.623 84.8288 216.027 85.1423 216.312 85.5528C216.598 85.9634 216.75 86.4513 216.75 86.9511C216.75 87.451 216.598 87.9389 216.312 88.3494C216.027 88.7599 215.623 89.0735 215.155 89.2479C214.065 89.8337 212.843 90.1302 211.606 90.109ZM211.606 84.6543C210.52 84.633 209.447 84.8893 208.488 85.3988C208.152 85.4963 207.857 85.7004 207.646 85.9803C207.436 86.2603 207.322 86.601 207.322 86.9511C207.322 87.3013 207.436 87.6419 207.646 87.9219C207.857 88.2018 208.152 88.4059 208.488 88.5034C209.455 88.9929 210.523 89.248 211.606 89.248C212.69 89.248 213.758 88.9929 214.724 88.5034C215.061 88.4059 215.356 88.2018 215.567 87.9219C215.777 87.6419 215.891 87.3013 215.891 86.9511C215.891 86.601 215.777 86.2603 215.567 85.9803C215.356 85.7004 215.061 85.4963 214.724 85.3988C213.765 84.8891 212.692 84.6329 211.606 84.6543Z" fill="#CCBA96"/>
<path d="M217.661 102.164C216.423 102.185 215.202 101.888 214.112 101.303C213.643 101.128 213.239 100.815 212.954 100.404C212.669 99.9936 212.516 99.5057 212.516 99.0058C212.516 98.506 212.669 98.0181 212.954 97.6075C213.239 97.197 213.643 96.8835 214.112 96.7089C215.209 96.1423 216.425 95.8467 217.66 95.8467C218.895 95.8467 220.112 96.1423 221.209 96.7089C221.677 96.8835 222.081 97.197 222.366 97.6075C222.651 98.0181 222.804 98.506 222.804 99.0058C222.804 99.5057 222.651 99.9936 222.366 100.404C222.081 100.815 221.677 101.128 221.209 101.303C220.119 101.888 218.898 102.185 217.661 102.164ZM217.66 96.7076C216.574 96.6866 215.501 96.9433 214.542 97.4534C214.206 97.5509 213.91 97.755 213.7 98.035C213.49 98.315 213.376 98.6557 213.376 99.0058C213.376 99.356 213.49 99.6967 213.7 99.9767C213.91 100.257 214.206 100.461 214.542 100.558C215.509 101.048 216.577 101.303 217.66 101.303C218.743 101.303 219.812 101.048 220.778 100.558C221.114 100.461 221.41 100.257 221.62 99.9766C221.83 99.6967 221.944 99.356 221.944 99.0058C221.944 98.6557 221.83 98.315 221.62 98.035C221.41 97.7551 221.114 97.551 220.778 97.4534C219.819 96.9433 218.746 96.6866 217.66 96.7076Z" fill="#CCBA96"/>
<path d="M253.094 97.2565C251.857 97.2777 250.635 96.9812 249.545 96.3955C249.076 96.221 248.672 95.9075 248.387 95.4969C248.102 95.0864 247.949 94.5985 247.949 94.0986C247.949 93.5988 248.102 93.1109 248.387 92.7004C248.672 92.2898 249.076 91.9763 249.545 91.8018C250.642 91.2364 251.859 90.9414 253.093 90.9414C254.328 90.9414 255.544 91.2364 256.642 91.8018C257.11 91.9763 257.514 92.2898 257.799 92.7004C258.084 93.1109 258.237 93.5988 258.237 94.0986C258.237 94.5985 258.084 95.0864 257.799 95.4969C257.514 95.9075 257.11 96.221 256.642 96.3955C255.552 96.9811 254.331 97.2775 253.094 97.2565ZM253.094 91.8018C252.008 91.7804 250.934 92.0366 249.975 92.5463C249.639 92.6438 249.343 92.8479 249.133 93.1279C248.923 93.4078 248.809 93.7485 248.809 94.0986C248.809 94.4488 248.923 94.7895 249.133 95.0694C249.343 95.3494 249.639 95.5535 249.975 95.651C250.942 96.1401 252.01 96.395 253.093 96.395C254.177 96.395 255.245 96.1401 256.211 95.651C256.548 95.5535 256.843 95.3494 257.053 95.0694C257.264 94.7895 257.377 94.4488 257.377 94.0986C257.377 93.7485 257.264 93.4078 257.053 93.1279C256.843 92.8479 256.548 92.6438 256.211 92.5463C255.252 92.0368 254.179 91.7805 253.094 91.8018Z" fill="#CCBA96"/>
<path d="M277.529 98.6998C276.292 98.7215 275.07 98.425 273.98 97.8388C273.511 97.6643 273.107 97.3508 272.822 96.9402C272.537 96.5297 272.384 96.0418 272.384 95.5419C272.384 95.0421 272.537 94.5542 272.822 94.1437C273.107 93.7331 273.511 93.4196 273.98 93.2451C275.077 92.6785 276.293 92.3828 277.528 92.3828C278.763 92.3828 279.98 92.6785 281.077 93.2451C281.545 93.4196 281.949 93.7331 282.234 94.1437C282.519 94.5542 282.672 95.0421 282.672 95.5419C282.672 96.0418 282.519 96.5297 282.234 96.9402C281.949 97.3508 281.545 97.6643 281.077 97.8388C279.987 98.4244 278.766 98.7208 277.529 98.6998ZM277.528 93.2451C276.442 93.2238 275.369 93.4801 274.41 93.9896C274.074 94.0871 273.778 94.2912 273.568 94.5712C273.358 94.8511 273.244 95.1918 273.244 95.5419C273.244 95.8921 273.358 96.2328 273.568 96.5127C273.778 96.7927 274.074 96.9968 274.41 97.0943C275.377 97.5837 276.445 97.8388 277.528 97.8388C278.612 97.8388 279.68 97.5837 280.646 97.0943C280.983 96.9968 281.278 96.7927 281.488 96.5127C281.699 96.2328 281.812 95.8921 281.812 95.5419C281.812 95.1918 281.699 94.8511 281.488 94.5712C281.278 94.2912 280.983 94.0871 280.646 93.9896C279.687 93.4799 278.614 93.2237 277.528 93.2451Z" fill="#CCBA96"/>
<path d="M272.84 95.6934H272.815L257.757 94.8045C257.643 94.7977 257.537 94.746 257.461 94.6608C257.386 94.5756 257.347 94.4638 257.353 94.35C257.353 94.2926 257.366 94.2358 257.389 94.1835C257.413 94.1311 257.447 94.0843 257.49 94.0462C257.533 94.0081 257.584 93.9794 257.638 93.9622C257.693 93.9449 257.751 93.9395 257.808 93.9461L272.865 94.8349C272.977 94.8414 273.082 94.8911 273.157 94.9736C273.233 95.056 273.273 95.1647 273.27 95.2764C273.267 95.3882 273.22 95.4942 273.14 95.5721C273.059 95.6499 272.952 95.6934 272.84 95.6934Z" fill="#CCBA96"/>
<path d="M222.241 98.8025C222.132 98.8024 222.027 98.761 221.948 98.6868C221.868 98.6125 221.82 98.5108 221.812 98.4022C221.804 98.2937 221.838 98.1863 221.907 98.1017C221.975 98.0171 222.073 97.9617 222.181 97.9465L248.453 94.3075C248.566 94.2924 248.68 94.3225 248.77 94.3911C248.861 94.4597 248.92 94.5613 248.936 94.6738C248.952 94.7862 248.922 94.9003 248.854 94.9911C248.786 95.0819 248.685 95.142 248.572 95.1583L222.3 98.7975C222.28 98.8003 222.261 98.802 222.241 98.8025Z" fill="#CCBA96"/>
<path d="M216.345 96.8197C216.265 96.8196 216.187 96.7973 216.119 96.7553C216.052 96.7132 215.997 96.6531 215.962 96.5816L212.536 89.7594C212.511 89.709 212.496 89.6541 212.492 89.5979C212.488 89.5417 212.495 89.4852 212.513 89.4317C212.531 89.3782 212.559 89.3288 212.595 89.2861C212.632 89.2435 212.677 89.2085 212.728 89.1833C212.778 89.158 212.833 89.1429 212.889 89.1388C212.945 89.1347 213.002 89.1418 213.055 89.1595C213.109 89.1773 213.158 89.2054 213.201 89.2423C213.244 89.2792 213.279 89.3241 213.304 89.3744L216.729 96.1967C216.754 96.247 216.769 96.3019 216.773 96.3582C216.778 96.4144 216.771 96.4709 216.753 96.5244C216.735 96.578 216.707 96.6275 216.67 96.6701C216.633 96.7127 216.588 96.7476 216.538 96.7729C216.478 96.8035 216.412 96.8195 216.345 96.8197Z" fill="#CCBA96"/>
<path d="M206.974 86.875C206.958 86.875 206.943 86.8737 206.927 86.8712L193.544 85.4087C193.488 85.4027 193.433 85.3856 193.384 85.3585C193.334 85.3314 193.291 85.2948 193.255 85.2508C193.22 85.2068 193.194 85.1563 193.178 85.1022C193.162 85.048 193.158 84.9913 193.164 84.9352C193.167 84.878 193.182 84.8221 193.208 84.7711C193.234 84.7201 193.271 84.6752 193.316 84.6394C193.36 84.6035 193.412 84.5775 193.467 84.563C193.523 84.5486 193.581 84.5459 193.637 84.5553L207.021 86.0177C207.13 86.0299 207.231 86.0834 207.302 86.1672C207.372 86.2511 207.409 86.3589 207.403 86.4686C207.397 86.5783 207.349 86.6815 207.269 86.7571C207.19 86.8327 207.084 86.8749 206.974 86.875Z" fill="#CCBA96"/>
<path d="M184.404 84.2155C184.383 84.215 184.361 84.2134 184.34 84.2105L172.117 82.358C172.061 82.3498 172.007 82.3305 171.959 82.3013C171.91 82.2722 171.868 82.2338 171.834 82.1882C171.8 82.1426 171.776 82.0909 171.762 82.0359C171.749 81.9809 171.746 81.9237 171.755 81.8677C171.763 81.8117 171.783 81.7579 171.812 81.7095C171.841 81.661 171.88 81.6188 171.926 81.5853C171.971 81.5518 172.023 81.5276 172.078 81.5142C172.133 81.5008 172.19 81.4984 172.246 81.5071L184.469 83.3595C184.576 83.3759 184.673 83.4322 184.741 83.5171C184.808 83.602 184.841 83.7092 184.833 83.8174C184.825 83.9256 184.776 84.0267 184.697 84.1005C184.617 84.1744 184.513 84.2154 184.404 84.2155Z" fill="#CCBA96"/>
<path d="M164.823 79.4439C164.726 79.4441 164.632 79.4115 164.555 79.3515L158.797 74.7755C158.707 74.7046 158.65 74.6012 158.637 74.4879C158.624 74.3746 158.656 74.2608 158.727 74.1715C158.798 74.0822 158.901 74.0247 159.015 74.0116C159.128 73.9986 159.242 74.031 159.331 74.1019L165.09 78.6779C165.179 78.7488 165.236 78.8523 165.249 78.9655C165.262 79.0787 165.23 79.1925 165.159 79.2819C165.119 79.3327 165.068 79.3737 165.01 79.4018C164.951 79.4299 164.887 79.4443 164.823 79.4439Z" fill="#CCBA96"/>
<path d="M151.59 72.519H151.581L135.419 72.0176C135.306 72.0139 135.2 71.9661 135.122 71.8846C135.045 71.803 135.002 71.6941 135.004 71.5815C135.006 71.4689 135.052 71.3615 135.132 71.2825C135.212 71.2035 135.32 71.1592 135.433 71.1592H135.447L151.604 71.6606C151.716 71.6643 151.823 71.7121 151.9 71.7937C151.978 71.8752 152.021 71.9841 152.019 72.0967C152.017 72.2093 151.971 72.3167 151.891 72.3957C151.81 72.4747 151.702 72.519 151.59 72.519Z" fill="#CCBA96"/>
<path d="M135.028 87.6709C133.791 87.6922 132.568 87.3953 131.479 86.8086C131.01 86.6341 130.606 86.3206 130.321 85.9101C130.036 85.4995 129.883 85.0116 129.883 84.5117C129.883 84.0119 130.036 83.524 130.321 83.1134C130.606 82.7029 131.01 82.3894 131.479 82.2149C132.576 81.6495 133.793 81.3545 135.027 81.3545C136.262 81.3545 137.478 81.6495 138.576 82.2149C139.044 82.3894 139.448 82.7029 139.733 83.1134C140.018 83.524 140.171 84.0119 140.171 84.5117C140.171 85.0116 140.018 85.4995 139.733 85.9101C139.448 86.3206 139.044 86.6341 138.576 86.8086C137.486 87.3951 136.265 87.692 135.028 87.6709ZM135.028 82.2149C133.942 82.1934 132.868 82.4497 131.909 82.9593C131.573 83.0569 131.277 83.261 131.067 83.5409C130.857 83.8209 130.743 84.1616 130.743 84.5117C130.743 84.8619 130.857 85.2026 131.067 85.4825C131.277 85.7625 131.573 85.9666 131.909 86.0641C132.876 86.5533 133.944 86.8081 135.027 86.8081C136.111 86.8081 137.179 86.5533 138.145 86.0641C138.482 85.9666 138.777 85.7625 138.987 85.4825C139.198 85.2026 139.311 84.8619 139.311 84.5117C139.311 84.1616 139.198 83.8209 138.987 83.5409C138.777 83.261 138.482 83.0569 138.145 82.9593C137.186 82.4498 136.113 82.1936 135.028 82.2149Z" fill="white"/>
<path d="M109.466 86.8783C108.229 86.8996 107.006 86.6027 105.917 86.016C105.448 85.8415 105.045 85.528 104.759 85.1174C104.474 84.7069 104.322 84.219 104.322 83.7191C104.322 83.2193 104.474 82.7314 104.759 82.3209C105.045 81.9103 105.448 81.5968 105.917 81.4223C107.014 80.8564 108.231 80.5613 109.466 80.5615C110.7 80.5617 111.917 80.8573 113.014 81.4236C113.482 81.5979 113.886 81.9113 114.171 82.3218C114.456 82.7322 114.609 83.22 114.609 83.7198C114.609 84.2196 114.456 84.7074 114.171 85.1178C113.886 85.5282 113.482 85.8417 113.014 86.016C111.925 86.6026 110.703 86.8995 109.466 86.8783ZM109.465 81.4223C108.379 81.4008 107.306 81.6571 106.347 82.1668C106.011 82.2643 105.716 82.4684 105.505 82.7483C105.295 83.0283 105.181 83.3689 105.181 83.7191C105.181 84.0692 105.295 84.4099 105.505 84.6899C105.716 84.9698 106.011 85.1739 106.347 85.2714C107.314 85.7606 108.382 86.0155 109.465 86.0155C110.549 86.0155 111.617 85.7606 112.583 85.2714C112.92 85.1741 113.215 84.9702 113.426 84.6903C113.636 84.4104 113.75 84.0698 113.75 83.7197C113.75 83.3696 113.636 83.029 113.426 82.7492C113.215 82.4693 112.92 82.2654 112.583 82.168C111.624 81.6579 110.551 81.4012 109.465 81.4223Z" fill="white"/>
<path d="M146.362 96.6773C145.124 96.6985 143.902 96.402 142.812 95.8163C142.344 95.6418 141.94 95.3282 141.655 94.9177C141.37 94.5072 141.217 94.0193 141.217 93.5194C141.217 93.0196 141.37 92.5317 141.655 92.1211C141.94 91.7106 142.344 91.3971 142.812 91.2226C143.909 90.656 145.126 90.3604 146.361 90.3604C147.596 90.3604 148.812 90.656 149.909 91.2226C150.378 91.3971 150.782 91.7106 151.067 92.1211C151.352 92.5317 151.505 93.0196 151.505 93.5194C151.505 94.0193 151.352 94.5072 151.067 94.9177C150.782 95.3282 150.378 95.6418 149.909 95.8163C148.82 96.4019 147.598 96.6983 146.362 96.6773ZM146.36 91.2226C145.275 91.2013 144.202 91.4576 143.243 91.9671C142.907 92.0646 142.611 92.2687 142.401 92.5487C142.19 92.8286 142.077 93.1693 142.077 93.5194C142.077 93.8696 142.19 94.2102 142.401 94.4902C142.611 94.7701 142.907 94.9742 143.243 95.0718C144.209 95.5612 145.278 95.8163 146.361 95.8163C147.444 95.8163 148.512 95.5612 149.479 95.0718C149.815 94.9742 150.111 94.7701 150.321 94.4902C150.531 94.2102 150.645 93.8696 150.645 93.5194C150.645 93.1693 150.531 92.8286 150.321 92.5487C150.111 92.2687 149.815 92.0646 149.479 91.9671C148.52 91.4574 147.446 91.2012 146.36 91.2226Z" fill="white"/>
<path d="M167.694 99.9122C166.457 99.9333 165.235 99.6364 164.145 99.0498C163.677 98.8753 163.273 98.5617 162.988 98.1512C162.703 97.7406 162.55 97.2527 162.55 96.7529C162.55 96.2531 162.703 95.7652 162.988 95.3546C163.273 94.9441 163.677 94.6305 164.145 94.456C165.243 93.8907 166.46 93.5957 167.694 93.5957C168.929 93.5957 170.146 93.8907 171.243 94.456C171.712 94.6305 172.116 94.9441 172.401 95.3546C172.686 95.7651 172.839 96.253 172.839 96.7529C172.839 97.2528 172.686 97.7407 172.401 98.1512C172.116 98.5618 171.712 98.8753 171.243 99.0498C170.154 99.6364 168.932 99.9334 167.694 99.9122ZM167.694 94.456C166.608 94.4346 165.535 94.6909 164.576 95.2006C164.239 95.2981 163.944 95.5022 163.734 95.7822C163.523 96.0621 163.409 96.4028 163.409 96.753C163.409 97.1031 163.523 97.4438 163.734 97.7238C163.944 98.0037 164.239 98.2078 164.576 98.3053C165.542 98.7948 166.611 99.0498 167.694 99.0498C168.778 99.0498 169.846 98.7948 170.813 98.3053C171.149 98.2078 171.445 98.0037 171.655 97.7237C171.865 97.4438 171.979 97.1031 171.979 96.753C171.979 96.4028 171.865 96.0621 171.655 95.7822C171.445 95.5022 171.149 95.2982 170.813 95.2006C169.854 94.6909 168.78 94.4346 167.694 94.456Z" fill="white"/>
<path d="M190.341 102.385C189.105 102.406 187.883 102.11 186.794 101.524C186.325 101.35 185.921 101.036 185.636 100.626C185.351 100.215 185.198 99.7274 185.198 99.2275C185.198 98.7276 185.351 98.2397 185.636 97.8292C185.921 97.4187 186.325 97.1051 186.794 96.9306C187.891 96.364 189.107 96.0684 190.342 96.0684C191.577 96.0684 192.793 96.364 193.891 96.9306C194.359 97.1051 194.763 97.4187 195.048 97.8292C195.333 98.2397 195.486 98.7276 195.486 99.2275C195.486 99.7274 195.333 100.215 195.048 100.626C194.763 101.036 194.359 101.35 193.891 101.524C192.801 102.11 191.579 102.407 190.341 102.385ZM190.341 96.9306C189.256 96.909 188.183 97.1653 187.224 97.6751C186.888 97.7727 186.592 97.9768 186.382 98.2567C186.172 98.5367 186.058 98.8774 186.058 99.2275C186.058 99.5777 186.172 99.9183 186.382 100.198C186.592 100.478 186.888 100.682 187.224 100.78C188.191 101.269 189.259 101.524 190.342 101.524C191.425 101.524 192.494 101.269 193.46 100.78C193.796 100.682 194.092 100.478 194.302 100.198C194.512 99.9183 194.626 99.5777 194.626 99.2275C194.626 98.8774 194.512 98.5367 194.302 98.2567C194.092 97.9768 193.796 97.7727 193.46 97.6751C192.501 97.1654 191.427 96.9092 190.341 96.9306Z" fill="white"/>
<path d="M196.394 114.441C195.157 114.462 193.936 114.166 192.846 113.58C192.378 113.406 191.974 113.092 191.689 112.682C191.403 112.271 191.251 111.783 191.251 111.283C191.251 110.783 191.403 110.295 191.689 109.885C191.974 109.474 192.378 109.161 192.846 108.986C193.943 108.421 195.16 108.126 196.394 108.126C197.629 108.126 198.846 108.421 199.943 108.986C200.411 109.161 200.815 109.474 201.1 109.885C201.386 110.295 201.538 110.783 201.538 111.283C201.538 111.783 201.386 112.271 201.1 112.682C200.815 113.092 200.411 113.406 199.943 113.58C198.853 114.166 197.631 114.462 196.394 114.441ZM196.395 108.986C195.309 108.965 194.236 109.221 193.276 109.731C192.94 109.828 192.645 110.032 192.434 110.312C192.224 110.592 192.11 110.933 192.11 111.283C192.11 111.633 192.224 111.974 192.434 112.254C192.645 112.534 192.94 112.738 193.276 112.836C194.243 113.325 195.311 113.58 196.394 113.58C197.478 113.58 198.546 113.325 199.512 112.836C199.849 112.738 200.144 112.534 200.355 112.254C200.565 111.974 200.679 111.633 200.679 111.283C200.679 110.933 200.565 110.592 200.355 110.312C200.144 110.032 199.849 109.828 199.512 109.731C198.554 109.221 197.481 108.965 196.395 108.986Z" fill="white"/>
<path d="M231.828 109.535C230.591 109.556 229.37 109.259 228.28 108.673C227.812 108.498 227.408 108.185 227.123 107.774C226.838 107.364 226.685 106.876 226.685 106.376C226.685 105.876 226.838 105.388 227.123 104.978C227.408 104.567 227.812 104.254 228.28 104.079C229.378 103.514 230.594 103.219 231.829 103.219C233.063 103.219 234.28 103.514 235.377 104.079C235.846 104.254 236.25 104.567 236.535 104.978C236.82 105.388 236.973 105.876 236.973 106.376C236.973 106.876 236.82 107.364 236.535 107.774C236.25 108.185 235.846 108.498 235.377 108.673C234.288 109.26 233.066 109.556 231.828 109.535ZM231.829 104.079C230.743 104.058 229.67 104.314 228.711 104.824C228.374 104.921 228.079 105.125 227.869 105.405C227.658 105.685 227.545 106.026 227.545 106.376C227.545 106.726 227.658 107.067 227.869 107.347C228.079 107.627 228.374 107.831 228.711 107.928C229.677 108.417 230.745 108.672 231.829 108.672C232.912 108.672 233.98 108.417 234.947 107.928C235.283 107.831 235.579 107.627 235.789 107.347C235.999 107.067 236.113 106.726 236.113 106.376C236.113 106.026 235.999 105.685 235.789 105.405C235.579 105.125 235.283 104.921 234.947 104.824C233.988 104.314 232.915 104.058 231.829 104.079Z" fill="white"/>
<path d="M256.264 110.977C255.027 110.998 253.805 110.702 252.715 110.116C252.247 109.942 251.843 109.628 251.558 109.218C251.273 108.807 251.12 108.319 251.12 107.819C251.12 107.319 251.273 106.832 251.558 106.421C251.843 106.011 252.247 105.697 252.715 105.522C253.813 104.957 255.029 104.662 256.264 104.662C257.498 104.662 258.715 104.957 259.812 105.522C260.281 105.697 260.685 106.011 260.97 106.421C261.255 106.832 261.408 107.319 261.408 107.819C261.408 108.319 261.255 108.807 260.97 109.218C260.685 109.628 260.281 109.942 259.812 110.116C258.723 110.702 257.501 110.998 256.264 110.977ZM256.264 105.522C255.178 105.501 254.105 105.757 253.146 106.267C252.809 106.365 252.514 106.569 252.304 106.849C252.093 107.129 251.98 107.469 251.98 107.819C251.98 108.17 252.093 108.51 252.304 108.79C252.514 109.07 252.809 109.274 253.146 109.372C254.112 109.861 255.18 110.116 256.264 110.116C257.347 110.116 258.415 109.861 259.382 109.372C259.718 109.274 260.014 109.07 260.224 108.79C260.434 108.51 260.548 108.17 260.548 107.819C260.548 107.469 260.434 107.129 260.224 106.849C260.014 106.569 259.718 106.365 259.382 106.267C258.423 105.757 257.35 105.501 256.264 105.522Z" fill="white"/>
<path d="M251.574 107.97H251.549L236.492 107.081C236.378 107.075 236.271 107.023 236.196 106.938C236.12 106.853 236.081 106.741 236.088 106.627C236.088 106.57 236.101 106.513 236.125 106.461C236.148 106.409 236.183 106.362 236.226 106.324C236.268 106.286 236.319 106.258 236.373 106.24C236.428 106.223 236.485 106.217 236.542 106.223L251.6 107.112C251.711 107.118 251.816 107.168 251.892 107.251C251.967 107.333 252.007 107.442 252.004 107.553C252.001 107.665 251.954 107.771 251.874 107.849C251.794 107.927 251.686 107.971 251.574 107.97Z" fill="white"/>
<path d="M200.976 111.079C200.867 111.079 200.763 111.038 200.683 110.963C200.604 110.889 200.555 110.788 200.548 110.679C200.54 110.57 200.574 110.463 200.642 110.379C200.711 110.294 200.809 110.239 200.917 110.223L227.189 106.584C227.302 106.568 227.416 106.598 227.507 106.667C227.598 106.735 227.658 106.837 227.674 106.95C227.69 107.063 227.66 107.178 227.591 107.268C227.523 107.359 227.421 107.419 227.308 107.435L201.036 111.074C201.016 111.077 200.996 111.079 200.976 111.079Z" fill="white"/>
<path d="M195.081 109.096C195.001 109.096 194.923 109.074 194.855 109.032C194.787 108.99 194.733 108.929 194.697 108.858L191.272 102.036C191.221 101.934 191.212 101.816 191.248 101.708C191.284 101.6 191.361 101.511 191.463 101.46C191.565 101.409 191.683 101.4 191.791 101.436C191.899 101.472 191.988 101.549 192.039 101.651L195.464 108.473C195.49 108.524 195.505 108.578 195.509 108.635C195.513 108.691 195.506 108.747 195.488 108.801C195.471 108.854 195.442 108.904 195.406 108.947C195.369 108.989 195.324 109.024 195.273 109.049C195.214 109.08 195.148 109.096 195.081 109.096Z" fill="white"/>
<path d="M185.71 99.1516C185.694 99.1515 185.678 99.1503 185.663 99.1479L172.279 97.6854C172.223 97.6794 172.169 97.6623 172.119 97.6352C172.07 97.6081 172.026 97.5715 171.991 97.5275C171.956 97.4835 171.929 97.4329 171.914 97.3788C171.898 97.3246 171.893 97.2679 171.899 97.2118C171.903 97.1548 171.919 97.0992 171.945 97.0486C171.971 96.9979 172.008 96.9533 172.052 96.9175C172.097 96.8818 172.148 96.8558 172.204 96.841C172.259 96.8263 172.316 96.8233 172.373 96.832L185.757 98.2945C185.866 98.3066 185.966 98.3601 186.037 98.4439C186.108 98.5277 186.144 98.6355 186.138 98.7452C186.132 98.8548 186.084 98.958 186.005 99.0336C185.925 99.1092 185.82 99.1514 185.71 99.1516Z" fill="white"/>
<path d="M163.139 96.4927C163.117 96.4923 163.095 96.4906 163.074 96.4876L150.853 94.6352C150.797 94.6269 150.743 94.6076 150.694 94.5785C150.646 94.5493 150.603 94.5109 150.57 94.4653C150.536 94.4198 150.512 94.3681 150.498 94.3131C150.485 94.2581 150.482 94.201 150.49 94.145C150.499 94.089 150.518 94.0352 150.548 93.9868C150.577 93.9383 150.616 93.8962 150.661 93.8627C150.707 93.8291 150.759 93.805 150.814 93.7916C150.869 93.7781 150.926 93.7757 150.982 93.7844L163.203 95.6368C163.31 95.6531 163.408 95.7094 163.475 95.7943C163.543 95.8792 163.576 95.9865 163.568 96.0947C163.559 96.2029 163.511 96.304 163.431 96.3778C163.352 96.4516 163.247 96.4926 163.139 96.4927Z" fill="white"/>
<path d="M143.557 91.7203C143.46 91.7204 143.366 91.6878 143.29 91.6279L137.532 87.0518C137.443 86.981 137.386 86.8775 137.372 86.7643C137.359 86.651 137.392 86.5372 137.463 86.4479C137.534 86.3586 137.637 86.301 137.75 86.288C137.864 86.2749 137.977 86.3074 138.067 86.3783L143.824 90.9541C143.913 91.0251 143.971 91.1286 143.984 91.2418C143.997 91.355 143.964 91.4688 143.894 91.5582C143.854 91.6091 143.802 91.6501 143.744 91.6782C143.686 91.7063 143.622 91.7207 143.557 91.7203Z" fill="white"/>
<path d="M130.325 84.7961H130.316L114.153 84.296C114.041 84.2922 113.934 84.2445 113.857 84.1629C113.779 84.0813 113.736 83.9725 113.738 83.8599C113.74 83.7473 113.786 83.6399 113.866 83.5609C113.947 83.4819 114.055 83.4376 114.167 83.4375H114.176L130.339 83.9376C130.452 83.9413 130.558 83.9891 130.636 84.0707C130.714 84.1523 130.756 84.2611 130.754 84.3737C130.752 84.4863 130.706 84.5937 130.626 84.6727C130.546 84.7517 130.438 84.796 130.325 84.7961Z" fill="white"/>
<path d="M178.687 52.3129L190.028 59.2631C195.984 55.4404 195.777 49.5509 189.406 45.8723C184.844 43.2384 178.319 42.4304 172.55 43.4451L178.687 52.3129Z" fill="#CCBA96"/>
<path opacity="0.4" d="M165.502 54.9337C169.573 53.8801 173.675 52.8358 175.67 52.3292L169.938 44.0479C168.409 44.4771 166.937 45.0895 165.555 45.8718C160.829 48.5999 159.495 52.5441 161.55 55.9595C162.699 55.6599 164.008 55.3204 165.502 54.9337Z" fill="#CCBA96"/>
<path opacity="0.4" d="M177.137 53.7314C172.74 54.8459 167.121 56.2862 162.699 57.446C163.542 58.3108 164.503 59.0506 165.555 59.6429C171.685 63.1822 181.359 63.4256 187.98 60.3765L177.137 53.7314Z" fill="#CCBA96"/>
<defs>
<radialGradient id="paint0_radial_110_3030" cx="0" cy="0" r="1" gradientUnits="userSpaceOnUse" gradientTransform="translate(-31.635 131.528) scale(265.811)">
<stop stop-color="white"/>
<stop offset="0.11478" stop-color="#DBDBDB"/>
<stop offset="0.3566" stop-color="#969696"/>
<stop offset="0.57473" stop-color="#5F5F5F"/>
<stop offset="0.76144" stop-color="#373737"/>
<stop offset="0.9093" stop-color="#1F1F1F"/>
<stop offset="1" stop-color="#161616"/>
</radialGradient>
<radialGradient id="paint1_radial_110_3030" cx="0" cy="0" r="1" gradientUnits="userSpaceOnUse" gradientTransform="translate(137.928 209.936) scale(470.817)">
<stop stop-color="#CCBA96"/>
<stop offset="0.25062" stop-color="#90846C"/>
<stop offset="0.50108" stop-color="#5C5547"/>
<stop offset="0.71714" stop-color="#36332C"/>
<stop offset="0.89026" stop-color="#1F1E1C"/>
<stop offset="0.99868" stop-color="#161616"/>
</radialGradient>
<linearGradient id="paint2_linear_110_3030" x1="19.16" y1="98.4869" x2="356.86" y2="98.4869" gradientUnits="userSpaceOnUse">
<stop stop-color="#161616"/>
<stop offset="0.30997" stop-color="#181818"/>
<stop offset="0.47664" stop-color="#202020"/>
<stop offset="0.60929" stop-color="#2E2E2E"/>
<stop offset="0.72399" stop-color="#414141"/>
<stop offset="0.82712" stop-color="#5A5A5A"/>
<stop offset="0.92047" stop-color="#797979"/>
<stop offset="1" stop-color="#999999"/>
</linearGradient>
<radialGradient id="paint3_radial_110_3030" cx="0" cy="0" r="1" gradientUnits="userSpaceOnUse" gradientTransform="translate(15.8085 130.597) scale(136.06)">
<stop stop-color="#CCBA96"/>
<stop offset="0.25095" stop-color="#90846C"/>
<stop offset="0.50174" stop-color="#5C5547"/>
<stop offset="0.71809" stop-color="#36332C"/>
<stop offset="0.89144" stop-color="#1F1E1C"/>
<stop offset="1" stop-color="#161616"/>
</radialGradient>
<radialGradient id="paint4_radial_110_3030" cx="0" cy="0" r="1" gradientUnits="userSpaceOnUse" gradientTransform="translate(6119.98 14928.8) scale(73073.8 42195.3)">
<stop stop-color="#CCBA96"/>
<stop offset="0.25095" stop-color="#90846C"/>
<stop offset="0.50174" stop-color="#5C5547"/>
<stop offset="0.71809" stop-color="#36332C"/>
<stop offset="0.89144" stop-color="#1F1E1C"/>
<stop offset="1" stop-color="#161616"/>
</radialGradient>
<radialGradient id="paint5_radial_110_3030" cx="0" cy="0" r="1" gradientUnits="userSpaceOnUse" gradientTransform="translate(45.6809 112.739) scale(229.605)">
<stop stop-color="#CCBA96"/>
<stop offset="0.01199" stop-color="#C4B391"/>
<stop offset="0.083" stop-color="#9C8E74"/>
<stop offset="0.16066" stop-color="#786E5B"/>
<stop offset="0.24411" stop-color="#595345"/>
<stop offset="0.33534" stop-color="#403C34"/>
<stop offset="0.43738" stop-color="#2D2B26"/>
<stop offset="0.55621" stop-color="#201F1D"/>
<stop offset="0.70739" stop-color="#181818"/>
<stop offset="1" stop-color="#161616"/>
</radialGradient>
<radialGradient id="paint6_radial_110_3030" cx="0" cy="0" r="1" gradientUnits="userSpaceOnUse" gradientTransform="translate(4136.86 17131.5) scale(84530.8 48811)">
<stop stop-color="#CCBA96"/>
<stop offset="0.25095" stop-color="#90846C"/>
<stop offset="0.50174" stop-color="#5C5547"/>
<stop offset="0.71809" stop-color="#36332C"/>
<stop offset="0.89144" stop-color="#1F1E1C"/>
<stop offset="1" stop-color="#161616"/>
</radialGradient>
<radialGradient id="paint7_radial_110_3030" cx="0" cy="0" r="1" gradientUnits="userSpaceOnUse" gradientTransform="translate(2582.18 16957.9) scale(66008.4 61976.1)">
<stop stop-color="#CCBA96"/>
<stop offset="0.25095" stop-color="#90846C"/>
<stop offset="0.50174" stop-color="#5C5547"/>
<stop offset="0.71809" stop-color="#36332C"/>
<stop offset="0.89144" stop-color="#1F1E1C"/>
<stop offset="1" stop-color="#161616"/>
</radialGradient>
</defs>
</svg>
