<svg width="353" height="400" viewBox="0 0 353 400" fill="none" xmlns="http://www.w3.org/2000/svg">
<g clip-path="url(#clip0_105_362)">
<path d="M340.869 80.2825C344.402 81.196 347.875 82.1506 351.287 83.1463V108.327C347.876 107.332 344.403 106.378 340.869 105.463V80.2825Z" fill="#CCBA96"/>
<path d="M316.733 81.3364C320.512 82.0602 324.238 82.8282 327.91 83.6404V102.359C324.239 101.547 320.513 100.779 316.733 100.055L316.733 81.3364H316.733Z" fill="#CCBA96"/>
<path opacity="0.6" d="M291.077 60.8328C295.071 61.352 299.018 61.9188 302.919 62.5332V97.6475C299.019 97.0336 295.072 96.4667 291.077 95.9469V60.8328Z" fill="#CCBA96"/>
<path opacity="0.6" d="M264.099 38.7021C268.278 39.0027 272.417 39.3541 276.517 39.7564V94.2891C272.418 93.8873 268.279 93.5358 264.099 93.2346L264.099 38.7021H264.099Z" fill="#CCBA96"/>
<path d="M235.973 50.4084C240.316 50.4758 244.627 50.5975 248.905 50.7735V92.3776C244.628 92.2021 240.317 92.0805 235.973 92.0126L235.973 50.4084H235.973Z" fill="#CCBA96"/>
<path d="M207.58 6.85862C211.819 6.68693 216.09 6.56861 220.393 6.50366V92.0083C216.092 92.073 211.82 92.1913 207.58 92.3633V6.85862Z" fill="#CCBA96"/>
<path opacity="0.6" d="M180.118 24.4662C184.198 24.0693 188.317 23.7225 192.475 23.4258V93.2061C188.318 93.5022 184.199 93.849 180.118 94.2465V24.4662Z" fill="#CCBA96"/>
<path d="M153.81 1.68412C157.7 1.0757 161.636 0.514325 165.617 0V95.886C161.637 96.4 157.701 96.9614 153.81 97.5703V1.68412Z" fill="#CCBA96"/>
<g opacity="0.5">
<g opacity="0.11">
<path opacity="0.11" d="M215.768 303.13C213.741 301.959 211.442 301.343 209.102 301.341C206.761 301.34 204.461 301.954 202.433 303.123L122.955 348.904C122.67 349.068 122.433 349.305 122.268 349.591C122.103 349.876 122.017 350.2 122.017 350.529C122.017 350.858 122.103 351.182 122.268 351.467C122.433 351.753 122.67 351.99 122.955 352.154L203.095 398.423C204.884 399.456 206.913 400 208.979 400C211.045 400 213.074 399.456 214.863 398.423L295.127 352.198C295.412 352.033 295.649 351.796 295.814 351.511C295.979 351.225 296.065 350.902 296.065 350.572C296.065 350.243 295.979 349.919 295.814 349.634C295.649 349.349 295.412 349.112 295.127 348.947L215.768 303.13Z" fill="url(#paint0_linear_105_362)"/>
</g>
<g opacity="0.11">
<path opacity="0.11" d="M215.768 289.74C213.741 288.57 211.442 287.954 209.102 287.952C206.761 287.951 204.461 288.566 202.433 289.734L122.955 335.515C122.67 335.679 122.433 335.916 122.268 336.202C122.103 336.487 122.017 336.811 122.017 337.14C122.017 337.47 122.103 337.793 122.268 338.078C122.433 338.364 122.67 338.601 122.955 338.765L203.095 385.034C204.884 386.067 206.913 386.611 208.979 386.611C211.045 386.611 213.074 386.067 214.863 385.034L295.127 338.809C295.412 338.644 295.649 338.407 295.814 338.122C295.979 337.837 296.065 337.513 296.065 337.184C296.065 336.854 295.979 336.53 295.814 336.245C295.649 335.96 295.412 335.723 295.127 335.558L215.768 289.74Z" fill="url(#paint1_linear_105_362)"/>
</g>
<g opacity="0.11">
<path opacity="0.11" d="M215.768 276.352C213.741 275.181 211.442 274.565 209.102 274.563C206.761 274.562 204.461 275.177 202.433 276.345L122.955 322.126C122.67 322.291 122.433 322.527 122.268 322.813C122.103 323.098 122.017 323.422 122.017 323.751C122.017 324.081 122.103 324.404 122.268 324.69C122.433 324.975 122.67 325.212 122.955 325.377L203.095 371.646C204.884 372.678 206.913 373.222 208.979 373.222C211.045 373.222 213.074 372.678 214.863 371.646L295.127 325.42C295.412 325.255 295.649 325.018 295.814 324.733C295.979 324.448 296.065 324.124 296.065 323.795C296.065 323.465 295.979 323.142 295.814 322.856C295.649 322.571 295.412 322.334 295.127 322.169L215.768 276.352Z" fill="url(#paint2_linear_105_362)"/>
</g>
<g opacity="0.11">
<path opacity="0.11" d="M215.768 262.962C213.741 261.792 211.442 261.175 209.102 261.174C206.761 261.173 204.461 261.788 202.433 262.956L122.955 308.737C122.67 308.901 122.433 309.138 122.268 309.424C122.103 309.709 122.017 310.032 122.017 310.362C122.017 310.691 122.103 311.015 122.268 311.3C122.433 311.586 122.67 311.822 122.955 311.987L203.095 358.256C204.884 359.289 206.914 359.833 208.979 359.833C211.045 359.833 213.074 359.289 214.863 358.256L295.127 312.031C295.412 311.866 295.649 311.629 295.814 311.344C295.979 311.059 296.065 310.735 296.065 310.405C296.065 310.076 295.979 309.752 295.814 309.467C295.649 309.182 295.412 308.945 295.127 308.78L215.768 262.962Z" fill="url(#paint3_linear_105_362)"/>
</g>
<path opacity="0.11" d="M295.127 308.78L215.768 262.962C213.741 261.792 211.442 261.175 209.102 261.174C206.761 261.173 204.461 261.788 202.433 262.956L122.955 308.737C122.668 308.9 122.431 309.137 122.266 309.422C122.101 309.708 122.015 310.032 122.017 310.362V350.529C122.015 350.859 122.101 351.183 122.266 351.469C122.43 351.754 122.668 351.991 122.955 352.154L203.095 398.423C204.884 399.456 206.913 400 208.979 400C211.045 400 213.074 399.456 214.863 398.423L295.127 352.198C295.414 352.034 295.651 351.798 295.816 351.512C295.981 351.227 296.067 350.902 296.065 350.572V310.406C296.067 310.076 295.981 309.751 295.816 309.466C295.651 309.18 295.414 308.944 295.127 308.78Z" fill="url(#paint4_linear_105_362)"/>
</g>
<g opacity="0.11">
<path opacity="0.11" d="M215.768 247.741C213.741 246.571 211.442 245.954 209.102 245.953C206.761 245.952 204.461 246.566 202.433 247.735L122.955 293.515C122.67 293.68 122.433 293.917 122.268 294.202C122.103 294.488 122.017 294.811 122.017 295.141C122.017 295.47 122.103 295.794 122.268 296.079C122.433 296.364 122.67 296.601 122.955 296.766L203.095 343.035C204.884 344.068 206.913 344.612 208.979 344.612C211.045 344.612 213.074 344.068 214.863 343.035L295.127 296.81C295.412 296.645 295.649 296.408 295.814 296.123C295.979 295.837 296.065 295.514 296.065 295.184C296.065 294.855 295.979 294.531 295.814 294.246C295.649 293.961 295.412 293.724 295.127 293.559L215.768 247.741Z" fill="url(#paint5_linear_105_362)"/>
</g>
<g opacity="0.11">
<path opacity="0.11" d="M215.768 234.352C213.741 233.182 211.442 232.565 209.102 232.564C206.761 232.563 204.461 233.177 202.433 234.346L122.955 280.127C122.67 280.291 122.433 280.528 122.268 280.814C122.103 281.099 122.017 281.422 122.017 281.752C122.017 282.081 122.103 282.405 122.268 282.69C122.433 282.976 122.67 283.212 122.955 283.377L203.095 329.646C204.884 330.679 206.913 331.223 208.979 331.223C211.045 331.223 213.074 330.679 214.863 329.646L295.127 283.421C295.412 283.256 295.649 283.019 295.814 282.734C295.979 282.448 296.065 282.125 296.065 281.795C296.065 281.466 295.979 281.142 295.814 280.857C295.649 280.572 295.412 280.335 295.127 280.17L215.768 234.352Z" fill="url(#paint6_linear_105_362)"/>
</g>
<g opacity="0.11">
<path opacity="0.11" d="M215.768 220.963C213.741 219.793 211.442 219.176 209.102 219.175C206.761 219.174 204.461 219.788 202.433 220.957L122.955 266.738C122.67 266.902 122.433 267.139 122.268 267.425C122.103 267.71 122.017 268.034 122.017 268.363C122.017 268.692 122.103 269.016 122.268 269.301C122.433 269.587 122.67 269.824 122.955 269.988L203.095 316.257C204.884 317.29 206.913 317.834 208.979 317.834C211.045 317.834 213.074 317.29 214.863 316.257L295.127 270.032C295.412 269.867 295.649 269.63 295.814 269.345C295.979 269.06 296.065 268.736 296.065 268.406C296.065 268.077 295.979 267.753 295.814 267.468C295.649 267.183 295.412 266.946 295.127 266.781L215.768 220.963Z" fill="url(#paint7_linear_105_362)"/>
</g>
<g opacity="0.11">
<path opacity="0.11" d="M215.768 207.574C213.741 206.404 211.442 205.788 209.102 205.786C206.761 205.785 204.461 206.4 202.433 207.568L122.955 253.349C122.67 253.513 122.433 253.75 122.268 254.036C122.103 254.321 122.017 254.645 122.017 254.974C122.017 255.304 122.103 255.627 122.268 255.912C122.433 256.198 122.67 256.435 122.955 256.599L203.095 302.868C204.884 303.901 206.913 304.445 208.979 304.445C211.045 304.445 213.074 303.901 214.863 302.868L295.127 256.643C295.412 256.478 295.649 256.241 295.814 255.956C295.979 255.671 296.065 255.347 296.065 255.018C296.065 254.688 295.979 254.364 295.814 254.079C295.649 253.794 295.412 253.557 295.127 253.392L215.768 207.574Z" fill="url(#paint8_linear_105_362)"/>
</g>
<path opacity="0.11" d="M295.127 253.392L215.769 207.574C213.741 206.404 211.442 205.788 209.102 205.786C206.761 205.785 204.461 206.4 202.433 207.568L122.955 253.349C122.668 253.512 122.431 253.749 122.266 254.034C122.101 254.32 122.015 254.644 122.017 254.974V295.141C122.015 295.471 122.101 295.795 122.266 296.081C122.431 296.366 122.668 296.603 122.955 296.766L203.095 343.035C204.884 344.068 206.914 344.612 208.979 344.612C211.045 344.612 213.074 344.068 214.863 343.035L295.127 296.81C295.414 296.646 295.652 296.41 295.816 296.124C295.981 295.839 296.067 295.514 296.065 295.184V255.018C296.067 254.688 295.981 254.363 295.816 254.078C295.651 253.792 295.414 253.556 295.127 253.392Z" fill="url(#paint9_linear_105_362)"/>
<g opacity="0.11">
<path opacity="0.11" d="M215.768 192.353C213.741 191.183 211.442 190.566 209.102 190.565C206.761 190.564 204.461 191.178 202.433 192.346L122.955 238.127C122.67 238.292 122.433 238.529 122.268 238.814C122.103 239.1 122.017 239.423 122.017 239.753C122.017 240.082 122.103 240.406 122.268 240.691C122.433 240.976 122.67 241.213 122.955 241.378L203.095 287.647C204.884 288.68 206.914 289.224 208.979 289.224C211.045 289.224 213.074 288.68 214.863 287.647L295.127 241.421C295.412 241.257 295.649 241.02 295.814 240.734C295.979 240.449 296.065 240.125 296.065 239.796C296.065 239.467 295.979 239.143 295.814 238.858C295.649 238.572 295.412 238.335 295.127 238.171L215.768 192.353Z" fill="url(#paint10_linear_105_362)"/>
</g>
<g opacity="0.11">
<path opacity="0.11" d="M215.768 178.964C213.741 177.794 211.442 177.177 209.102 177.176C206.761 177.175 204.461 177.789 202.433 178.958L122.955 224.739C122.67 224.903 122.433 225.14 122.268 225.426C122.103 225.711 122.017 226.034 122.017 226.364C122.017 226.693 122.103 227.017 122.268 227.302C122.433 227.588 122.67 227.825 122.955 227.989L203.095 274.258C204.884 275.291 206.913 275.835 208.979 275.835C211.045 275.835 213.074 275.291 214.863 274.258L295.127 228.033C295.412 227.868 295.649 227.631 295.814 227.346C295.979 227.06 296.065 226.737 296.065 226.407C296.065 226.078 295.979 225.754 295.814 225.469C295.649 225.184 295.412 224.947 295.127 224.782L215.768 178.964Z" fill="url(#paint11_linear_105_362)"/>
</g>
<g opacity="0.11">
<path opacity="0.11" d="M215.768 165.575C213.741 164.405 211.442 163.788 209.102 163.787C206.761 163.786 204.461 164.4 202.433 165.568L122.955 211.349C122.67 211.514 122.433 211.751 122.268 212.036C122.103 212.322 122.017 212.645 122.017 212.975C122.017 213.304 122.103 213.628 122.268 213.913C122.433 214.198 122.67 214.435 122.955 214.6L203.095 260.869C204.884 261.902 206.913 262.446 208.979 262.446C211.045 262.446 213.074 261.902 214.863 260.869L295.127 214.644C295.412 214.479 295.649 214.242 295.814 213.957C295.979 213.671 296.065 213.348 296.065 213.018C296.065 212.689 295.979 212.365 295.814 212.08C295.649 211.795 295.412 211.558 295.127 211.393L215.768 165.575Z" fill="url(#paint12_linear_105_362)"/>
</g>
<g opacity="0.11">
<path opacity="0.11" d="M215.768 152.186C213.741 151.016 211.442 150.399 209.102 150.398C206.761 150.397 204.461 151.011 202.433 152.18L122.955 197.961C122.67 198.125 122.433 198.362 122.268 198.648C122.103 198.933 122.017 199.256 122.017 199.586C122.017 199.915 122.103 200.239 122.268 200.524C122.433 200.81 122.67 201.046 122.955 201.211L203.095 247.48C204.884 248.513 206.913 249.057 208.979 249.057C211.045 249.057 213.074 248.513 214.863 247.48L295.127 201.255C295.412 201.09 295.649 200.853 295.814 200.568C295.979 200.282 296.065 199.959 296.065 199.629C296.065 199.3 295.979 198.976 295.814 198.691C295.649 198.406 295.412 198.169 295.127 198.004L215.768 152.186Z" fill="url(#paint13_linear_105_362)"/>
</g>
<path opacity="0.5" d="M295.127 198.004L215.769 152.186C213.741 151.016 211.442 150.399 209.102 150.398C206.761 150.397 204.461 151.011 202.433 152.18L122.955 197.96C122.668 198.124 122.431 198.36 122.266 198.646C122.101 198.932 122.015 199.256 122.017 199.586V239.753C122.015 240.083 122.101 240.407 122.266 240.693C122.431 240.978 122.668 241.215 122.955 241.378L203.095 287.647C204.884 288.68 206.914 289.224 208.979 289.224C211.045 289.224 213.074 288.68 214.863 287.647L295.127 241.422C295.414 241.258 295.652 241.022 295.816 240.736C295.981 240.45 296.067 240.126 296.065 239.796V199.629C296.067 199.3 295.981 198.975 295.816 198.69C295.651 198.404 295.414 198.167 295.127 198.004Z" fill="url(#paint14_linear_105_362)"/>
<g opacity="0.11">
<path opacity="0.11" d="M215.768 152.186C213.741 151.016 211.442 150.399 209.102 150.398C206.761 150.397 204.461 151.011 202.433 152.18L122.955 197.961C122.67 198.125 122.433 198.362 122.268 198.648C122.103 198.933 122.017 199.256 122.017 199.586C122.017 199.915 122.103 200.239 122.268 200.524C122.433 200.81 122.67 201.046 122.955 201.211L203.095 247.48C204.884 248.513 206.913 249.057 208.979 249.057C211.045 249.057 213.074 248.513 214.863 247.48L295.127 201.255C295.412 201.09 295.649 200.853 295.814 200.568C295.979 200.282 296.065 199.959 296.065 199.629C296.065 199.3 295.979 198.976 295.814 198.691C295.649 198.406 295.412 198.169 295.127 198.004L215.768 152.186Z" fill="url(#paint15_linear_105_362)"/>
</g>
<path d="M295.127 199.406L214.863 245.631C213.074 246.664 211.045 247.208 208.979 247.208C206.914 247.208 204.884 246.664 203.095 245.631L122.955 199.362C122.664 199.195 122.423 198.953 122.259 198.661C122.015 199.092 121.952 199.602 122.082 200.08C122.212 200.557 122.526 200.964 122.955 201.211L203.095 247.48C204.884 248.513 206.914 249.057 208.979 249.057C211.045 249.057 213.074 248.513 214.863 247.48L295.127 201.255C295.556 201.007 295.869 200.601 296 200.123C296.13 199.645 296.067 199.136 295.823 198.705C295.658 198.997 295.418 199.239 295.127 199.406Z" fill="url(#paint16_linear_105_362)"/>
<path d="M131.361 213.552L133.336 214.692V213.37L131.361 212.23V213.552Z" fill="#CCBA96"/>
<path d="M131.361 222.505L133.336 223.645V215.899L131.361 214.759V222.505Z" fill="#CCBA96"/>
<path d="M131.361 226.787L133.336 227.927V224.852L131.361 223.711V226.787Z" fill="#CCBA96"/>
<path d="M131.361 231.222L133.336 232.363V229.289L131.361 228.149V231.222Z" fill="#CCBA96"/>
<path d="M128.416 216.134L130.391 217.274V214.199L128.416 213.059V216.134Z" fill="#CCBA96"/>
<path d="M128.416 222.01L130.391 223.152V218.637L128.416 217.496V222.01Z" fill="#CCBA96"/>
<path d="M128.416 227.42L130.391 228.561V224.689L128.416 223.548V227.42Z" fill="#CCBA96"/>
<path d="M131.361 235.66L133.336 236.8V233.725L131.361 232.584V235.66Z" fill="#CCBA96"/>
<path d="M128.416 211.852L130.391 212.992V211.67L128.416 210.53V211.852Z" fill="#CCBA96"/>
<path d="M129.888 239.115L133.336 241.107V239.82L129.888 237.83V239.115Z" fill="#CCBA96"/>
<path opacity="0.7" d="M209.041 224.363C232.607 224.363 251.711 213.333 251.711 199.728C251.711 186.122 232.607 175.092 209.041 175.092C185.475 175.092 166.371 186.122 166.371 199.728C166.371 213.333 185.475 224.363 209.041 224.363Z" fill="#CCBA96"/>
<path d="M209.261 179.427L209.345 179.81L209.461 179.554C209.769 180.52 209.797 181.552 209.544 182.533C208.891 183.803 208.123 185.011 207.251 186.142C206.195 187.53 204.507 190.418 204.063 190.973C202.369 192.642 200.177 193.711 197.82 194.017C194.598 194.35 193.776 192.506 194.043 191.507C195.026 189.382 196.338 187.425 197.931 185.708C199.209 184.184 200.325 182.531 201.263 180.776L209.261 179.427Z" fill="#161616"/>
<path d="M199.58 170.679C199.637 171.652 199.598 172.629 199.463 173.595C199.247 174.444 194.515 174.711 192.832 174.928C190.92 175.325 189.062 175.952 187.3 176.794C186.384 177.244 180.235 177.894 179.485 175.628C178.735 173.361 182.568 171.462 185.167 170.862C187.766 170.262 192.015 168.962 192.015 168.962L199.58 170.679Z" fill="#161616"/>
<path d="M215.993 129.755C215.961 134.409 215.368 139.041 214.227 143.552C213.088 147.994 212.517 152.563 212.527 157.149C212.527 157.149 214.549 166.202 212.771 172.378C210.994 178.555 209.483 180.287 209.483 180.287C209.021 180.925 208.422 181.451 207.732 181.83C207.041 182.208 206.275 182.428 205.489 182.475C204.703 182.522 203.916 182.394 203.185 182.1C202.455 181.806 201.798 181.354 201.263 180.776C202.77 175.812 203.753 170.704 204.196 165.535C202.823 162.527 201.78 159.378 201.085 156.145C201.085 156.145 200.419 163.18 200.019 166.024C200.019 166.024 200.419 170.201 199.308 171.889C198.197 173.578 193.176 174.067 191.576 171.134C189.977 168.202 192.91 169.637 192.021 156.145C188.736 151.307 186.902 145.631 186.733 139.786C186.067 129.189 186.133 124.99 186.733 122.924C187.333 120.858 197.575 113.415 197.575 113.415L203.351 120.791L215.993 129.755Z" fill="#3F3F3F"/>
<path d="M200.83 158.758C200.541 157.787 200.304 156.802 200.117 155.806C200.117 155.806 199.451 162.842 199.051 165.686C199.051 165.686 199.451 169.863 198.34 171.551C197.678 172.174 196.862 172.611 195.975 172.817C195.089 173.023 194.164 172.99 193.295 172.722C195.434 173.748 198.474 173.158 199.308 171.889C200.419 170.201 200.019 166.024 200.019 166.024C200.261 164.305 200.599 161.061 200.83 158.758Z" fill="url(#paint17_linear_105_362)"/>
<path d="M215.993 129.755L203.352 120.791L197.575 113.415C197.575 113.415 197.413 113.533 197.129 113.743L202.384 120.452L215.025 129.417C214.993 134.07 214.4 138.702 213.259 143.213C212.12 147.656 211.549 152.224 211.559 156.81C211.559 156.81 213.581 165.863 211.803 172.04C210.026 178.216 208.515 179.949 208.515 179.949C207.893 180.751 207.065 181.369 206.12 181.738C205.175 182.108 204.147 182.214 203.146 182.046C204.248 182.492 205.467 182.561 206.613 182.243C207.759 181.925 208.768 181.238 209.483 180.287C209.483 180.287 210.994 178.555 212.771 172.378C214.549 166.202 212.527 157.149 212.527 157.149C212.517 152.563 213.088 147.994 214.227 143.552C215.368 139.041 215.961 134.409 215.993 129.755Z" fill="url(#paint18_linear_105_362)"/>
<path d="M193.198 141.586C191.532 139.586 190.596 133.321 190.596 133.321C191.765 135.783 193.268 138.071 195.065 140.12C196.979 141.877 198.305 144.181 198.864 146.718C199.197 148.718 201.085 156.145 201.085 156.145C201.085 156.145 200.419 163.181 200.019 166.024C200.019 166.024 200.419 170.201 199.308 171.889C199.027 172.268 198.649 172.563 198.214 172.743C198.216 172.663 198.495 163.43 198.214 159.515C197.931 155.583 194.865 143.585 193.198 141.586Z" fill="#161616"/>
<path d="M231.374 87.0146C231.374 87.0146 235.788 95.6417 236.232 96.3082C236.677 96.9746 244.941 107.505 245.741 113.593C245.858 114.471 245.709 115.364 245.313 116.156C244.917 116.948 244.292 117.603 243.519 118.036C240.676 120.124 226.324 129.233 225.435 129.367C223.659 128.867 222.089 127.813 220.954 126.358C219.818 124.904 219.178 123.124 219.125 121.28C219.125 121.28 230.367 116.037 232.811 113.415C230.874 110.086 228.694 106.904 226.29 103.895C225.687 103.111 225.331 102.165 225.266 101.178C224.948 98.7892 225.22 96.359 226.056 94.0988C226.892 91.8387 228.268 89.8172 230.064 88.2102L231.374 87.0146Z" fill="#8C8C8C"/>
<path d="M198.364 66.8044C198.364 66.8044 191.532 69.337 189.199 68.4705C186.867 67.6041 181.135 66.871 177.203 64.6716C173.27 62.472 156.097 58.04 153.553 57.8843C153.553 57.8843 153.508 57.9844 153.93 58.1622C154.555 58.2455 155.141 58.5113 155.615 58.9262C156.09 59.3411 156.431 59.8868 156.596 60.4948C156.896 62.0715 156.586 63.703 155.73 65.0604C155.441 65.2271 155.274 64.5161 153.63 63.7606C152.807 63.3342 151.901 63.0917 150.975 63.0497L150.353 63.8384L149.976 64.4161C150.197 65.0792 150.594 65.6701 151.124 66.1259C151.654 66.5816 152.297 66.8852 152.986 67.0044C155.186 67.171 169.316 73.0697 170.204 73.336C171.093 73.6026 182.957 78.717 185.178 79.5146C186.545 80.0091 187.868 80.6178 189.133 81.3342C189.133 81.3342 196.064 76.713 196.286 76.713C196.509 76.713 198.364 66.8044 198.364 66.8044Z" fill="#8C8C8C"/>
<path d="M136.59 55.0072C136.879 55.074 140.456 56.2736 140.456 56.2736C140.456 56.2736 139.034 57.0068 138.901 57.6511C138.889 59.1574 139.03 60.6611 139.323 62.1387C139.646 62.4681 140.012 62.7521 140.411 62.9831C140.634 63.1163 141.189 64.3605 141.7 64.2049C141.865 64.1319 142.011 64.0218 142.127 63.8831C142.243 63.7444 142.325 63.5809 142.367 63.4053C142.367 63.4053 142.766 63.2053 142.889 63.1275C144.098 63.1211 145.295 63.3591 146.41 63.8274C147.506 64.3985 148.755 64.6047 149.976 64.4161C150.737 64.1519 151.476 63.8287 152.187 63.4495C152.657 63.5201 153.116 63.6508 153.553 63.8384C154.042 64.0939 155.597 65.1381 155.83 65.2271C156.063 65.3157 159.251 59.0619 153.553 57.8843C152.399 57.7931 151.26 57.558 150.165 57.1844C149.143 56.6957 146.254 54.4739 145.188 54.4297C144.458 54.4211 143.731 54.526 143.033 54.7407C143.033 54.7407 136.59 52.8968 136.057 53.4743C135.524 54.052 136.301 54.9406 136.59 55.0072ZM141.253 59.2952C141.514 59.269 141.765 59.1854 141.99 59.0505C142.215 58.9156 142.407 58.7326 142.552 58.5147C142.706 58.6036 142.883 58.644 143.06 58.6306C143.237 58.6173 143.405 58.5507 143.544 58.4398C143.544 58.5563 144.427 58.723 144.427 58.723C144.427 58.723 144.827 59.0564 145.327 59.4227C145.827 59.7894 145.16 60.8725 145.16 60.8725C144.625 60.8579 144.101 60.7119 143.636 60.4476C143.236 60.3111 142.826 60.2025 142.411 60.1226C142 59.8841 141.612 59.6071 141.253 59.2952Z" fill="#EFD9B1"/>
<path d="M186.733 122.924C187.333 120.858 197.575 113.415 197.575 113.415L200.444 117.079L202.907 126.656L215.99 130.728V130.728C215.989 130.74 215.295 137.275 204.64 136.52C193.976 135.765 192.732 127.5 192.732 127.5C192.732 127.5 191.548 130.215 186.297 130.924C186.075 128.25 186.222 125.558 186.733 122.924Z" fill="#161616"/>
<path d="M218.415 72.1806L220.214 76.8018C220.214 76.8018 228.886 84.304 231.374 87.0145C228.737 92.3134 227.018 98.0212 226.29 103.895C224.468 105.356 222.743 106.933 221.125 108.616C219.146 112.038 217.409 115.594 215.926 119.258C214.96 121.524 217.659 128.355 217.659 128.355C217.659 128.355 213.971 135.165 208.039 134.943C202.108 134.721 198.064 131.099 197.309 124.657C196.878 122.223 196.699 119.751 196.775 117.281C196.775 117.281 194.109 125.19 190.066 125.19C186.022 125.19 179.602 118.325 179.602 118.325C179.602 118.325 175.269 114.392 175.669 112.615C176.07 110.838 185.867 95.4637 186.4 92.931C186.933 90.3983 189.133 81.3339 189.133 81.3339L198.364 66.8042L203.994 67.0706L218.415 72.1806Z" fill="#999999"/>
<path d="M207.793 133.316C205.161 133.346 202.613 132.387 200.654 130.629C198.695 128.87 197.467 126.441 197.213 123.821C197.244 124.092 197.274 124.363 197.309 124.657C198.064 131.099 202.107 134.721 208.039 134.943C213.971 135.165 217.659 128.356 217.659 128.356C217.659 128.356 217.463 127.856 217.197 127.094C216.341 128.49 212.903 133.507 207.793 133.316Z" fill="url(#paint19_linear_105_362)"/>
<path d="M218.415 72.1807C218.392 74.057 218.038 75.9147 217.37 77.6683C216.282 80.401 212.727 95.7969 204.662 101.062L201.563 103.029V93.231C201.597 89.8972 202.079 86.5832 202.996 83.378C203.869 80.6332 204.318 77.7714 204.329 74.8912C204.329 74.8912 206.589 74.2689 206.592 74.3135C206.595 74.3579 218.415 72.1807 218.415 72.1807Z" fill="#F0F6FF"/>
<path d="M208.478 79.3345C208.478 79.3345 207.045 79.9177 206.429 78.9845C205.723 77.886 205.347 76.608 205.345 75.3022C205.345 75.3022 201.53 75.491 200.774 73.4916C200.543 72.9928 200.44 72.4446 200.473 71.896C200.506 71.3473 200.674 70.8155 200.963 70.3479C201.081 69.1757 201.331 68.0206 201.707 66.9044L201.763 66.3933C201.763 66.3933 200.986 65.7268 201.341 65.0269C201.696 64.3272 203.781 62.1499 203.994 61.7835C204.207 61.417 203.94 58.7175 204.751 57.3735C205.478 56.2561 206.271 55.184 207.128 54.1631C207.128 54.1631 215.26 47.8201 221.658 54.1631C228.057 60.5059 218.415 72.1808 218.415 72.1808C218.034 74.1461 217.122 75.9693 215.776 77.4517C213.91 78.9513 208.478 79.3345 208.478 79.3345Z" fill="#EFD9B1"/>
<path d="M214.424 63.8878C214.417 63.654 214.451 63.4207 214.525 63.1988C214.793 62.4834 214.809 61.6984 214.571 60.9728C214.333 60.2472 213.855 59.6241 213.216 59.2062C210.772 57.4287 206.462 55.8292 206.595 54.0519C206.728 52.2746 213.527 47.8756 218.548 50.2306C223.569 52.5856 228.279 58.5397 224.857 64.8491C221.436 71.1588 218.414 72.1808 218.414 72.1808C218.414 72.1808 217.392 71.9698 218.309 70.9199C219.225 69.8702 220.892 67.221 219.509 66.3877C218.126 65.5547 215.726 67.3542 215.41 67.7539C215.28 67.9227 215.162 68.0994 215.055 68.283C214.971 68.4278 214.835 68.5359 214.675 68.586C214.514 68.6361 214.341 68.6247 214.189 68.5541L214.071 68.4989C213.918 68.4276 213.797 68.3014 213.733 68.1453C213.669 67.9893 213.665 67.8148 213.724 67.6564L214.324 66.0239C214.414 65.7799 214.457 65.5213 214.452 65.2614L214.424 63.8878Z" fill="#5E5849"/>
<path d="M208.684 81.1118C209.94 82.1049 210.928 83.3954 211.561 84.8665C210.675 83.9197 209.653 83.1108 208.528 82.467C208.528 82.467 206.395 83.4666 206.395 84.1333C206.339 86.4192 206.105 88.6973 205.695 90.947C205.342 94.169 205.194 97.4104 205.254 100.651L203.905 101.543L203.263 98.2299L203.509 91.1648L204.762 84.7331C204.762 84.7331 204.996 82.3006 205.095 82.167C205.196 82.0338 208.684 81.1118 208.684 81.1118Z" fill="#C4CCD6"/>
<path d="M208.684 81.1121C208.684 81.1121 206.617 78.9127 205.573 78.8681C205.27 78.8242 204.96 78.8609 204.674 78.9743C204.389 79.0878 204.139 79.2741 203.948 79.5147C203.928 79.642 202.946 83.0838 202.946 83.0838C201.703 87.3032 201.112 91.6881 201.197 96.0861C201.122 98.4066 201.245 100.729 201.563 103.029L204.125 101.404C203.749 97.788 203.987 94.1349 204.829 90.5987C206.229 84.8 204.996 83.9336 205.662 83.3337C206.329 82.7338 209.006 81.823 208.684 81.1121Z" fill="#3F3F3F"/>
<path d="M221.125 108.616C219.168 112.036 217.452 115.589 215.99 119.248C215.803 119.698 215.711 120.181 215.719 120.668L215.326 120.924L214.029 119.658C214.029 119.658 215.193 115.459 217.059 110.26C218.925 105.061 226.29 103.895 226.29 103.895C224.468 105.356 222.743 106.933 221.125 108.616Z" fill="#3F3F3F"/>
<path d="M219.125 121.457C218.309 120.219 217.379 119.059 216.348 117.991C216.348 117.991 216.504 118.858 215.304 119.391C214.104 119.924 207.828 122.357 207.612 122.64C207.395 122.924 207.628 123.274 208.028 123.357C207.435 123.569 206.82 123.714 206.195 123.79C205.662 123.779 204.951 124.457 205.307 125.034C205.662 125.612 205.962 125.567 205.962 125.567C205.962 125.567 205.806 126.212 206.195 126.356C206.628 126.461 207.071 126.517 207.517 126.523C207.517 126.523 207.328 127.167 207.85 127.423C208.857 127.681 209.882 127.86 210.916 127.956C210.916 127.956 212.905 127.745 213.471 127.734C214.876 127.99 216.298 128.146 217.726 128.2C219.467 127.784 221.172 127.229 222.824 126.539C223.191 126.323 219.125 121.457 219.125 121.457Z" fill="#EFD9B1"/>
<path d="M220.625 78.3015L220.358 82.4338L218.126 83.1336L219.625 84.3666C219.625 84.3666 213.571 98.1299 205.84 102.484C205.84 102.484 213.216 99.8628 220.192 84.489C220.192 84.489 219.459 83.6225 219.236 83.3782L220.792 82.6893L220.625 78.3015Z" fill="#3F3F3F"/>
<path d="M200.863 77.8682C200.863 77.8682 198.122 91.9094 200.459 102.484C200.459 102.484 197.649 97.3968 200.189 77.8682H200.863Z" fill="#3F3F3F"/>
<path d="M139.047 57.3491C139.448 56.9082 139.925 56.5437 140.456 56.2734C140.456 56.2734 143.377 57.462 143.877 57.6954C143.877 57.6954 140.88 57.381 139.047 57.3491Z" fill="#E2B1A6"/>
<path d="M155.83 65.2272C155.71 65.1816 155.244 64.8851 154.751 64.5726V64.5724C156.691 61.9619 154.559 58.1894 154.552 58.1755C158.848 59.8479 156.048 65.3101 155.83 65.2272Z" fill="#E2B1A6"/>
<path d="M222.824 126.539C221.57 127.061 220.288 127.512 218.984 127.891C218.529 126.239 218.277 124.538 218.234 122.825C218.453 121.554 218.983 121.254 218.983 121.254C219.071 121.378 219.125 121.457 219.125 121.457C219.125 121.457 223.191 126.323 222.824 126.539Z" fill="#E2B1A6"/>
<path d="M219.125 121.28C218.951 121.949 218.935 122.649 219.08 123.325C219.224 124.001 219.525 124.634 219.958 125.173C221.441 126.873 221.607 127.09 221.607 127.09H223.308C223.628 126.194 223.878 125.275 224.057 124.34C223.924 124.273 219.125 121.28 219.125 121.28Z" fill="#8C8C8C"/>
<path d="M203.263 81.9705C202.477 86.3145 202.053 90.7163 201.996 95.1304C202.22 97.5749 202.298 100.031 202.23 102.484L201.713 102.933L201.563 103.029C201.245 100.729 201.122 98.4063 201.197 96.0858C201.112 91.6878 201.703 87.3029 202.946 83.0835C202.946 83.0835 203.087 82.5899 203.263 81.9705Z" fill="#3F3F3F"/>
<path d="M202.73 181.842C202.202 181.544 201.71 181.186 201.263 180.776C202.77 175.812 203.753 170.704 204.196 165.536C202.823 162.527 201.78 159.378 201.085 156.145C202.726 159.535 204.105 163.046 205.211 166.647C206.426 171.512 202.73 181.842 202.73 181.842Z" fill="#161616"/>
<path d="M214.655 70.6267L214.66 70.6035L214.655 70.6267Z" fill="#E2B1A6"/>
<path d="M214.655 70.6267C214.309 72.5108 213.585 74.3053 212.527 75.9022C211.094 77.5683 209.989 79.1748 209.989 79.1748C209.098 79.2907 208.478 79.3346 208.478 79.3346C208.478 79.3346 207.045 79.9178 206.429 78.9845C205.723 77.8861 205.347 76.6081 205.345 75.3023C207.81 75.0884 210.217 74.4455 212.46 73.4027C213.51 72.7809 214.292 71.7918 214.655 70.6267Z" fill="#E2B1A6"/>
<path d="M216.515 118.024C216.515 118.024 216.239 118.608 216.189 118.654C216.139 118.7 216.068 118.207 216.068 118.207C216.068 118.207 216.298 117.73 216.31 117.73C216.323 117.73 216.515 118.024 216.515 118.024Z" fill="#1B2B3A"/>
<path d="M201.563 103.029C201.563 103.029 197.971 114.501 196.775 117.281L196.846 120.04C196.846 120.04 201.419 105.795 201.563 103.029Z" fill="#3F3F3F"/>
<path d="M198.093 107.119C198.042 107.343 198.059 107.576 198.139 107.791C198.22 108.006 198.361 108.192 198.546 108.328C198.731 108.464 198.952 108.542 199.181 108.554C199.41 108.566 199.638 108.511 199.836 108.396C200.034 108.28 200.194 108.11 200.297 107.904C200.399 107.699 200.44 107.469 200.413 107.241C200.387 107.013 200.294 106.798 200.147 106.622C200 106.446 199.805 106.316 199.586 106.25C199.272 106.167 198.939 106.213 198.659 106.376C198.38 106.539 198.176 106.806 198.093 107.119Z" fill="#3F3F3F"/>
<path d="M196.271 112.068C196.221 112.292 196.237 112.525 196.317 112.74C196.398 112.955 196.539 113.141 196.724 113.277C196.91 113.412 197.13 113.491 197.359 113.503C197.588 113.515 197.816 113.46 198.014 113.345C198.212 113.229 198.372 113.058 198.475 112.853C198.578 112.648 198.618 112.417 198.592 112.19C198.565 111.962 198.473 111.747 198.326 111.57C198.179 111.394 197.983 111.265 197.764 111.198C197.451 111.116 197.118 111.161 196.838 111.324C196.558 111.487 196.354 111.755 196.271 112.068Z" fill="#3F3F3F"/>
<path d="M214.324 66.024C214.414 65.7799 214.457 65.5214 214.452 65.2615L214.424 63.8879C214.417 63.654 214.451 63.4208 214.525 63.1989C214.619 62.9224 214.682 62.6362 214.712 62.3457C214.712 62.3457 220.305 66.418 223.85 66.5793C220.864 71.3503 218.415 72.1809 218.415 72.1809C218.415 72.1809 217.392 71.9699 218.309 70.92C219.225 69.8703 220.892 67.2211 219.509 66.3878C218.126 65.5548 215.726 67.3543 215.41 67.754C215.281 67.9228 215.162 68.0995 215.055 68.2831C214.971 68.4279 214.835 68.5359 214.675 68.5861C214.514 68.6362 214.341 68.6249 214.189 68.5544L214.071 68.499C213.918 68.4276 213.797 68.3014 213.733 68.1454C213.669 67.9894 213.666 67.8149 213.724 67.6565L214.324 66.024Z" fill="#4C473C"/>
<path d="M224.909 216.064C223.276 216.448 221.613 216.689 219.939 216.783C217.493 216.878 210.848 218.212 211.013 220.692C211.179 223.186 214.652 226.763 219.003 227.293C223.36 227.823 228.959 226.57 231.804 226.647C232.471 226.654 233.129 226.492 233.717 226.178C234.306 225.864 234.806 225.407 235.172 224.85C235.538 224.292 235.758 223.651 235.811 222.987C235.865 222.322 235.751 221.654 235.48 221.045C234.373 218.284 224.909 216.064 224.909 216.064Z" fill="#161616"/>
<path d="M239.578 209.395C239.578 209.395 240.509 210.895 240.054 211.814C239.597 212.735 238.378 215.024 234.399 212.808C230.439 210.603 222.791 207.449 222.791 207.449C222.791 207.449 218.407 205.117 218.647 202.364C218.885 199.63 222.92 200.037 222.92 200.037L239.578 209.395Z" fill="#161616"/>
<path d="M213.75 170.36C213.75 170.36 215.44 188.234 219.032 195.009C222.683 201.894 223.69 214.506 224.452 216.914C224.939 218.51 225.824 219.957 227.023 221.118C228.222 222.279 229.697 223.117 231.309 223.552C235.042 224.292 235.65 221.755 235.466 220.231C234.961 218.379 234.55 216.503 234.235 214.609C234.279 213.544 234.421 212.485 234.66 211.446C234.66 211.446 238.929 212.703 239.578 209.395C239.405 208.922 239.27 208.435 239.175 207.94C239.118 207.448 239.54 195.482 239.644 194.032C239.499 189.603 238.874 185.203 237.781 180.909C237.031 176.973 236.768 172.96 236.996 168.959L224.842 167.265L213.75 170.36Z" fill="#3F3F3F"/>
<path d="M237.781 180.909C237.031 176.973 236.768 172.959 236.996 168.959L235.934 168.811C235.7 172.752 235.961 176.707 236.711 180.582C237.798 184.874 238.417 189.27 238.556 193.695C238.45 195.144 238.014 207.101 238.07 207.592C238.164 208.087 238.298 208.573 238.471 209.046C237.818 212.351 233.552 211.095 233.552 211.095C233.312 212.133 233.168 213.191 233.123 214.256C233.436 216.148 233.844 218.023 234.346 219.873C234.529 221.396 233.917 223.931 230.186 223.192C230.07 223.169 229.967 223.121 229.854 223.092C230.321 223.296 230.809 223.45 231.309 223.552C235.041 224.292 235.65 221.755 235.466 220.231C234.961 218.379 234.55 216.503 234.235 214.609C234.282 213.495 234.425 212.386 234.663 211.296C234.663 211.296 238.929 212.703 239.578 209.395C239.405 208.922 239.27 208.435 239.175 207.94C239.118 207.448 239.54 195.482 239.644 194.032C239.499 189.603 238.874 185.203 237.781 180.909Z" fill="url(#paint20_linear_105_362)"/>
<path d="M233.397 170.255C233.327 172.03 232.915 173.774 232.183 175.391C232.215 180.178 231.897 184.961 231.231 189.702C231.231 189.702 232.804 199.362 233.795 202.406C234.457 205.372 234.747 208.408 234.66 211.446C235.042 211.571 235.44 211.64 235.842 211.651C236.539 211.676 236.588 199.843 235.519 197.755C234.454 195.677 233.648 186.453 234.049 183.642C234.449 180.849 234.311 172.856 234.84 171.445C234.994 171.064 235.012 170.643 234.891 170.251C234.77 169.858 234.518 169.52 234.177 169.292L233.397 170.255Z" fill="#161616"/>
<path d="M223.166 105.775C222.111 106.602 221.259 107.659 220.678 108.867C220.097 110.075 219.801 111.4 219.814 112.74L222.437 112.175C222.437 112.175 221.657 107.292 223.166 105.775Z" fill="#161616"/>
<path d="M224.54 174.149C228.931 174.473 233.303 173.302 236.944 170.826C236.961 169.696 236.996 168.959 236.996 168.959L224.842 167.265L213.75 170.36C213.75 170.36 214.084 173.884 214.77 178.397C216.747 178.611 218.687 173.758 218.687 173.758L224.213 174.108C224.213 174.108 216.488 173.902 224.54 174.149Z" fill="#161616"/>
<path d="M215.304 170.626C215.304 170.626 232.82 177.776 241.288 164.214C241.529 163.812 241.646 163.348 241.624 162.88L241.517 159.719C241.503 159.321 241.56 158.924 241.686 158.547C241.959 157.734 242.019 156.865 241.861 156.023C241.205 152.491 239.429 142.887 239.013 140.221C238.505 136.971 240.228 123.961 243.134 118.327C245.998 112.774 238.643 100.284 238.643 100.284C238.075 99.4357 237.25 98.7917 236.29 98.4468C235.329 98.1018 234.283 98.074 233.306 98.3675C233.306 98.3675 236.676 100.724 234.831 103.213C232.974 105.718 227.438 107.718 227.438 107.718C227.438 107.718 217.199 113.03 213.695 119.494C212.896 121.956 212.454 124.52 212.384 127.108C212.276 131.407 212.752 141.726 212.572 143.16C212.393 144.598 211.848 154.43 211.905 154.89C211.963 155.35 215.304 170.626 215.304 170.626Z" fill="#999999"/>
<path d="M234.954 100.17C235.078 99.8528 235.136 99.5134 235.125 99.1728C235.114 98.8321 235.035 98.4972 234.891 98.1881C234.356 98.1631 233.821 98.2236 233.306 98.3674C233.967 98.8552 234.527 99.4676 234.954 100.17Z" fill="url(#paint21_linear_105_362)"/>
<path d="M220.613 172.087C220.613 172.087 230.928 144.234 230.437 134.123C229.959 124.266 215.38 154.095 215.38 154.095L215.304 170.626C217.028 171.267 218.804 171.756 220.613 172.087Z" fill="#3F3F3F"/>
<path d="M241.399 155.821C241.273 156.196 241.216 156.59 241.23 156.985L241.336 160.125C241.358 160.59 241.241 161.051 241 161.45C232.557 174.92 215.103 167.819 215.103 167.819C215.103 167.819 212.701 156.863 211.95 153.315C211.912 154.181 211.893 154.785 211.905 154.889C211.963 155.349 215.304 170.626 215.304 170.626C215.304 170.626 232.82 177.776 241.287 164.214C241.529 163.812 241.646 163.348 241.624 162.88L241.517 159.719C241.503 159.321 241.56 158.924 241.686 158.547C241.959 157.734 242.019 156.865 241.861 156.023C241.792 155.655 241.71 155.208 241.62 154.722C241.589 155.096 241.515 155.465 241.399 155.821Z" fill="url(#paint22_linear_105_362)"/>
<path d="M242.856 115.863C239.958 121.461 238.236 134.388 238.741 137.616C238.788 137.914 238.853 138.307 238.93 138.757C238.916 134.096 240.556 123.326 243.134 118.327C243.885 116.448 244.012 114.377 243.496 112.42C243.573 113.603 243.353 114.787 242.856 115.863Z" fill="url(#paint23_linear_105_362)"/>
<path d="M215.047 139.181C215.425 136.923 215.631 134.64 215.664 132.35C215.709 128.389 216.822 121.818 223.99 122.959C234.123 124.572 229.788 138.766 228.677 141.245C227.559 143.739 223.127 154.982 222.893 155.62C219.963 161.784 216.716 167.793 213.165 173.621C213.116 173.693 213.052 173.753 212.978 173.799C212.904 173.844 212.821 173.873 212.735 173.884C212.649 173.894 212.561 173.887 212.478 173.862C212.395 173.836 212.318 173.794 212.253 173.736C211.238 172.873 208.958 170.814 208.66 169.512C208.709 166.895 209.072 164.294 209.74 161.764C209.74 161.764 213.688 146.592 214.02 145.886C214.269 145.357 214.442 142.864 215.047 139.181Z" fill="#8C8C8C"/>
<path d="M223.339 106.095C223.094 105.567 222.723 105.107 222.258 104.755C221.794 104.402 221.25 104.169 220.675 104.076C218.817 103.886 217.762 103.37 217.575 102.682C217.445 101.815 217.229 100.962 216.929 100.138C216.539 98.9696 216.263 97.7658 216.107 96.5437C216.114 96.483 214.702 96.0584 214.633 95.4367C214.565 94.8163 215.296 92.5982 215.216 92.427C214.764 91.6373 214.511 90.7487 214.481 89.8389C214.549 88.5126 214.819 87.2046 215.284 85.9603C215.846 84.6693 219.783 76.8112 230.03 80.859C240.39 84.9516 232.51 93.6429 233.535 99.2779C233.535 99.2779 234.456 100.464 232.768 102.481C231.07 104.508 226.166 104.947 223.339 106.095Z" fill="#EFD9B1"/>
<path d="M232.768 102.481C234.456 100.464 233.535 99.2781 233.535 99.2781C233.406 98.4458 233.413 97.5983 233.556 96.7683L229.501 97.542C229.501 97.542 223.513 92.216 223.938 95.0678C224.366 97.9415 222.913 98.4367 222.913 98.4367L224.14 100C224.456 100.402 224.269 100.874 224.012 101.316C222.304 104.255 218.153 103.371 218.144 103.372C218.924 103.794 219.789 104.034 220.675 104.076C221.25 104.17 221.794 104.403 222.258 104.755C222.723 105.107 223.094 105.567 223.339 106.095C226.166 104.948 231.07 104.509 232.768 102.481Z" fill="#E2B1A6"/>
<path d="M214.841 82.9735C214.841 82.9735 214.125 85.0758 215.284 85.9605C216.445 86.847 217.497 87.6833 217.497 87.6833L217.492 90.3498C217.491 90.7337 217.601 91.1096 217.81 91.4319L219.271 93.6837C219.554 94.1214 219.706 94.6309 219.709 95.1521L219.716 96.2428C219.715 96.3959 219.771 96.5438 219.872 96.6586C219.973 96.7735 220.113 96.8473 220.265 96.866L220.648 96.9089C220.73 96.9171 220.812 96.9091 220.89 96.8854C220.969 96.8617 221.042 96.8228 221.105 96.7708C221.168 96.7188 221.22 96.6548 221.258 96.5825C221.297 96.5102 221.32 96.431 221.328 96.3496L221.487 94.8349C221.487 94.8349 222.253 93.6175 223.938 95.0679L225.45 95.6884C225.66 95.7752 225.85 95.905 226.007 96.0696C226.165 96.2341 226.286 96.4297 226.363 96.6438C226.762 98.0509 227.446 99.3612 228.371 100.494C229.287 101.011 232.832 99.1785 233.306 98.3674C233.778 97.5585 234.973 92.1549 235.715 89.5791C236.45 87.021 236.018 80.6909 228.384 79.0743C220.783 77.4651 215.891 80.6842 214.841 82.9735Z" fill="#5E5849"/>
<path d="M233.306 98.3673C233.778 97.5584 234.973 92.1548 235.714 89.579C233.641 90.864 231.337 91.7308 228.931 92.1306C225.094 92.7158 217.495 88.395 217.495 88.395L217.492 90.3497C217.491 90.7336 217.601 91.1095 217.81 91.4318L219.271 93.6836C219.554 94.1213 219.706 94.6308 219.709 95.152L219.716 96.2427C219.715 96.3958 219.771 96.5437 219.872 96.6586C219.973 96.7734 220.113 96.8472 220.265 96.8659L220.648 96.9088C220.73 96.917 220.812 96.9091 220.89 96.8854C220.969 96.8617 221.041 96.8227 221.105 96.7707C221.168 96.7187 221.22 96.6547 221.258 96.5824C221.297 96.5101 221.32 96.431 221.328 96.3495L221.487 94.8348C221.487 94.8348 222.253 93.6174 223.938 95.0678L226.125 95.9655C226.125 95.9655 227.456 99.9777 228.371 100.494C229.287 101.011 232.832 99.1784 233.306 98.3673Z" fill="#4C473C"/>
<path d="M233.457 98.6235C233.457 98.6235 236.425 100.452 234.945 103.045C233.455 105.657 222.697 110.293 222.165 110.98C222.165 110.98 221.741 107.089 223.166 105.775C223.166 105.775 231.404 104.17 232.684 102.067C233.052 101.582 233.311 101.023 233.445 100.429C233.578 99.835 233.582 99.2193 233.457 98.6235Z" fill="#F0F6FF"/>
<path d="M233.456 98.6235C233.582 99.2193 233.578 99.835 233.445 100.429C233.311 101.023 233.052 101.582 232.684 102.067C231.716 103.658 226.766 104.964 224.412 105.505C225.403 106.316 226.202 107.337 226.751 108.494C230.06 106.777 234.076 104.569 234.945 103.045C236.425 100.452 233.456 98.6235 233.456 98.6235Z" fill="#C4CCD6"/>
<path d="M235.463 106.922C235.463 106.922 230.67 109.669 228.335 110.91C225.992 112.155 223.437 113.808 223.437 113.808L222.54 112.914L221.465 115.279C219.526 116.436 217.715 117.795 216.062 119.332C214.746 120.762 213.66 122.388 212.841 124.151C212.841 124.151 217.437 118.123 221.057 116.333L222.031 115.841L222.582 113.968L223.471 114.908C223.471 114.908 234.002 108.558 235.463 106.922Z" fill="#3F3F3F"/>
<path d="M223.103 188.245L223.104 188.242L223.102 188.243C222.981 187.85 222.76 187.495 222.461 187.212L202.745 170.659C202.226 170.223 201.724 170.556 201.623 171.403L199.317 190.674C199.263 191.113 199.304 191.557 199.437 191.979C199.57 192.4 199.791 192.788 200.086 193.116L216.645 207.435L216.072 213.008L221.022 210.729L221.023 210.718C221.16 210.603 221.27 210.459 221.345 210.296C221.419 210.133 221.456 209.955 221.453 209.776L223.294 189.634C223.328 189.163 223.263 188.69 223.103 188.245Z" fill="url(#paint24_linear_105_362)"/>
<path d="M197.375 172.56L202.036 170.545L202.185 170.48C202.286 170.463 202.389 170.471 202.486 170.502C202.584 170.533 202.672 170.587 202.745 170.659L222.461 187.212C222.76 187.494 222.982 187.849 223.104 188.242L222.398 188.583L218.384 190.523L201.103 175.747L197.375 172.56Z" fill="#999999"/>
<path d="M195.233 195.276L215.395 212.842C215.947 213.323 216.469 212.955 216.56 212.021L218.52 191.776C218.562 191.335 218.511 190.891 218.37 190.471C218.228 190.051 218 189.666 217.699 189.342L198.027 172.706C197.51 172.268 197.004 172.602 196.898 173.453L194.476 192.822C194.419 193.261 194.458 193.708 194.588 194.131C194.719 194.555 194.939 194.945 195.233 195.276Z" fill="#3F3F3F"/>
<path d="M219.065 210.836L220.964 190.646C221.005 190.205 220.953 189.762 220.81 189.343C220.668 188.925 220.439 188.541 220.137 188.217L200.444 171.626C200.317 171.506 200.151 171.438 199.977 171.434C200.086 171.397 200.203 171.392 200.315 171.42C200.427 171.447 200.529 171.506 200.608 171.589L220.304 188.18C220.606 188.503 220.835 188.887 220.978 189.305C221.12 189.724 221.173 190.167 221.132 190.608L219.237 210.797C219.177 211.439 218.927 211.838 218.586 211.85C218.842 211.738 219.016 211.366 219.065 210.836Z" fill="#161616"/>
<path d="M211.846 181.11L212.876 180.595C213.071 180.485 213.298 180.445 213.519 180.481L213.602 180.499C213.704 180.521 213.758 180.632 213.741 180.79L213.722 180.977L210.819 182.428L210.839 182.24C210.864 182.064 210.941 181.9 211.06 181.768L211.156 181.661C211.35 181.436 211.584 181.249 211.846 181.11Z" fill="#161616"/>
<path d="M212.213 183.605L210.82 182.427L213.698 180.562L215.072 181.712L212.213 183.605Z" fill="#161616"/>
<path d="M213.238 182.283L214.269 181.767C214.464 181.657 214.691 181.616 214.912 181.652L214.995 181.67C215.098 181.693 215.152 181.804 215.135 181.962L215.116 182.15L212.212 183.604L212.232 183.416C212.257 183.24 212.333 183.075 212.452 182.943L212.548 182.835C212.742 182.61 212.976 182.422 213.238 182.283Z" fill="url(#paint25_linear_105_362)"/>
<path d="M213.856 182.782L213.943 181.93L213.856 181.974L213.768 182.825L213.856 182.782Z" fill="#722318"/>
<path d="M213.943 181.93L212.512 180.778L212.436 180.814L213.856 181.974L213.943 181.93Z" fill="#722318"/>
<path d="M205.583 175.844L206.611 175.336C206.805 175.227 207.031 175.187 207.251 175.222L207.333 175.24C207.435 175.263 207.487 175.372 207.469 175.527L207.449 175.712L204.554 177.145L204.575 176.959C204.601 176.785 204.679 176.623 204.797 176.494L204.894 176.387C205.088 176.165 205.322 175.981 205.583 175.844Z" fill="#161616"/>
<path d="M205.929 178.306L204.554 177.145L207.428 175.303L208.784 176.438L205.929 178.306Z" fill="#161616"/>
<path d="M206.958 177.002L207.986 176.493C208.181 176.383 208.406 176.343 208.626 176.379L208.709 176.397C208.811 176.419 208.863 176.529 208.846 176.685L208.826 176.87L205.929 178.307L205.95 178.12C205.976 177.946 206.053 177.784 206.172 177.654L206.268 177.547C206.463 177.324 206.696 177.14 206.958 177.002Z" fill="url(#paint26_linear_105_362)"/>
<path d="M207.568 177.494L207.661 176.652L207.574 176.695L207.481 177.536L207.568 177.494Z" fill="#722318"/>
<path d="M207.661 176.654L206.248 175.515L206.172 175.551L207.574 176.697L207.661 176.654Z" fill="#722318"/>
<path d="M214.498 177.894L214.127 181.488L213.195 180.704L213.559 177.213C213.578 176.942 213.538 176.671 213.442 176.418C213.346 176.164 213.195 175.935 213.001 175.745L208.987 172.389C208.629 172.09 208.294 172.255 208.238 172.759L207.853 176.213L206.932 175.439L207.331 171.896C207.456 170.787 208.196 170.423 208.985 171.082L213.264 174.654C213.692 175.072 214.025 175.579 214.238 176.138C214.451 176.698 214.54 177.297 214.498 177.894Z" fill="#999999"/>
<path d="M207.582 172.147L209.235 171.979L214.017 176.438L214.223 179.19L214.127 181.489L213.057 182.024L213.024 179.158L212.967 177.199L211.975 175.782C211.975 175.782 210.183 174.333 210.164 174.292C210.146 174.251 207.582 172.147 207.582 172.147Z" fill="#999999"/>
<path d="M206.785 176.741L207.853 176.214L208.136 173.668L207.117 173.747L206.815 173.801L206.785 176.741Z" fill="#999999"/>
<path d="M206.823 171.363L207.971 170.799L207.663 171.422L207.278 171.552L206.823 171.363Z" fill="#999999"/>
<path d="M213.433 178.425L213.057 182.024L212.125 181.239L212.494 177.743C212.513 177.472 212.474 177.2 212.378 176.946C212.282 176.693 212.132 176.463 211.938 176.273L207.925 172.913C207.568 172.613 207.232 172.779 207.175 173.283L206.785 176.742L205.865 175.966L206.269 172.419C206.395 171.309 207.136 170.945 207.924 171.604L212.202 175.181C212.63 175.6 212.962 176.107 213.174 176.667C213.387 177.227 213.475 177.827 213.433 178.425Z" fill="#161616"/>
<path d="M208.947 169.365C208.638 170.81 208.474 172.283 208.458 173.761C209.04 175.043 210.065 176.072 211.344 176.659C212.358 176.971 211.945 175.763 212.173 175.004C212.324 174.21 212.387 173.402 212.361 172.595L208.947 169.365Z" fill="#EFD9B1"/>
<path d="M212.361 172.595L208.947 169.365C208.947 169.365 208.807 170.085 208.672 170.955C209.464 172.511 210.716 173.785 212.258 174.603C212.341 173.937 212.375 173.266 212.361 172.595Z" fill="#E2B1A6"/>
<path d="M208.692 169.627C208.692 169.627 209.902 173.412 212.935 173.771L211.905 169.627C211.905 169.627 209.343 168.904 209.265 168.894C209.186 168.884 208.692 169.627 208.692 169.627Z" fill="#8C8C8C"/>
<path d="M228.434 125.189C231.244 133.749 224.203 147.058 223.191 150.942C222.168 154.866 211.461 173.032 211.459 173.036L211.47 173.045L211.368 173.225C211.59 173.399 211.824 173.558 212.068 173.701C212.22 173.78 212.382 173.839 212.549 173.879C212.666 173.901 212.786 173.888 212.896 173.842C213.005 173.797 213.099 173.72 213.165 173.622C216.716 167.793 219.963 161.785 222.893 155.621C223.127 154.982 227.559 143.739 228.677 141.245C229.568 139.256 232.543 129.682 228.434 125.189Z" fill="url(#paint27_linear_105_362)"/>
<path d="M114.15 207.548C113.456 207.566 112.77 207.405 112.157 207.081L67.3481 181.212C67.0906 181.089 66.8712 180.899 66.7133 180.661C66.5555 180.423 66.4651 180.147 66.4518 179.862C66.4878 179.505 66.6172 179.162 66.8271 178.871C67.037 178.579 67.32 178.347 67.6476 178.199L111.855 152.675C112.541 152.288 113.31 152.071 114.097 152.041C114.884 152.011 115.666 152.169 116.38 152.502L161.189 178.372C161.446 178.495 161.666 178.685 161.823 178.923C161.981 179.16 162.072 179.436 162.085 179.721C162.049 180.079 161.919 180.421 161.71 180.713C161.5 181.005 161.217 181.237 160.889 181.385L116.681 206.909C115.906 207.335 115.034 207.555 114.15 207.548ZM112.503 206.48C113.112 206.748 113.775 206.871 114.439 206.841C115.104 206.811 115.752 206.629 116.335 206.308L160.542 180.784C161.074 180.477 161.391 180.08 161.391 179.721C161.372 179.559 161.312 179.405 161.215 179.274C161.119 179.143 160.991 179.039 160.842 178.973L116.033 153.103C115.424 152.837 114.762 152.714 114.098 152.744C113.433 152.774 112.785 152.956 112.202 153.276L67.9942 178.8C67.4627 179.107 67.1458 179.504 67.1458 179.863C67.1646 180.025 67.2251 180.178 67.3213 180.309C67.4175 180.441 67.5462 180.544 67.6947 180.611L112.503 206.48Z" fill="#999999"/>
<path d="M161.738 160.86V166.36L114.153 193.833L66.5663 166.358V160.86H161.738Z" fill="url(#paint28_linear_105_362)"/>
<path d="M114.153 188.333L66.5663 160.86L114.151 133.387L161.738 160.86L114.153 188.333Z" fill="#999999"/>
<path d="M114.153 187.692L67.1241 160.539L66.5663 160.86L114.153 188.333L161.738 160.86L161.182 160.539L114.153 187.692Z" fill="white"/>
<path d="M114.153 181.996L77.5529 160.866L114.151 139.735L150.752 160.866L114.153 181.996Z" fill="#161616"/>
<path opacity="0.5" d="M114.153 181.998L77.5529 160.866L114.151 139.735L150.754 160.868L114.153 181.998Z" fill="url(#paint29_linear_105_362)"/>
<path opacity="0.5" d="M114.151 134.407L150.754 155.538V160.866L114.151 139.735V134.407Z" fill="url(#paint30_linear_105_362)"/>
<path opacity="0.5" d="M114.153 139.735L77.5529 160.866V155.538L114.151 134.407L114.153 139.735Z" fill="url(#paint31_linear_105_362)"/>
<path opacity="0.5" d="M114.153 176.669L77.5529 155.538L114.151 134.407L150.754 155.538L114.153 176.669Z" fill="url(#paint32_linear_105_362)"/>
<path d="M114.153 163.981L99.5278 155.538L114.153 147.094L128.777 155.538L114.153 163.981Z" fill="#CCBA96"/>
<path d="M114.153 147.872L128.105 155.927L128.777 155.538L114.153 147.094L99.5278 155.538L100.201 155.925L114.153 147.872Z" fill="#CCBA96"/>
<path opacity="0.5" d="M114.153 176.669V181.998L150.754 160.865V155.538L114.153 176.669Z" fill="url(#paint33_linear_105_362)"/>
<path opacity="0.5" d="M77.5529 155.538V160.865L114.153 181.998V176.669L77.5529 155.538Z" fill="url(#paint34_linear_105_362)"/>
<path d="M114.153 176.087L78.0556 155.246L77.5529 155.538L114.153 176.669L150.754 155.538L150.249 155.248L114.153 176.087Z" fill="#CCBA96"/>
<path d="M114.15 332.363C113.456 332.381 112.77 332.221 112.157 331.897L67.3481 306.027C67.0906 305.904 66.8712 305.714 66.7134 305.476C66.5555 305.238 66.4651 304.962 66.4518 304.677C66.4879 304.32 66.6173 303.978 66.8272 303.686C67.0371 303.394 67.32 303.162 67.6476 303.014L111.855 277.49C112.541 277.104 113.31 276.886 114.097 276.856C114.884 276.826 115.666 276.984 116.38 277.317L161.189 303.187C161.446 303.31 161.666 303.5 161.823 303.738C161.981 303.976 162.072 304.252 162.085 304.537C162.049 304.894 161.92 305.236 161.71 305.528C161.5 305.82 161.217 306.052 160.889 306.2L116.681 331.724C115.906 332.15 115.034 332.37 114.15 332.363ZM112.503 331.296C113.112 331.563 113.775 331.686 114.439 331.656C115.104 331.626 115.752 331.444 116.335 331.123L160.542 305.599C161.074 305.292 161.391 304.895 161.391 304.536C161.372 304.374 161.312 304.22 161.215 304.089C161.119 303.958 160.991 303.855 160.842 303.788L116.033 277.919C115.424 277.652 114.762 277.529 114.098 277.559C113.433 277.589 112.785 277.771 112.202 278.091L67.9942 303.615C67.4627 303.922 67.1458 304.319 67.1458 304.678C67.1646 304.84 67.2251 304.994 67.3213 305.125C67.4175 305.256 67.5462 305.359 67.6947 305.426L112.503 331.296Z" fill="#999999"/>
<path d="M161.738 285.675V291.175L114.153 318.648L66.5663 291.173V285.675H161.738Z" fill="url(#paint35_linear_105_362)"/>
<path d="M114.153 313.148L66.5663 285.675L114.151 258.202L161.738 285.675L114.153 313.148Z" fill="#999999"/>
<path d="M114.153 312.507L67.1241 285.354L66.5663 285.675L114.153 313.148L161.738 285.675L161.182 285.354L114.153 312.507Z" fill="white"/>
<path d="M114.153 306.812L77.5529 285.681L114.151 264.55L150.752 285.681L114.153 306.812Z" fill="#161616"/>
<path opacity="0.5" d="M114.153 306.814L77.5529 285.681L114.151 264.55L150.754 285.683L114.153 306.814Z" fill="url(#paint36_linear_105_362)"/>
<path opacity="0.5" d="M114.151 259.221L150.754 280.354V285.681L114.151 264.55V259.221Z" fill="url(#paint37_linear_105_362)"/>
<path opacity="0.5" d="M114.153 264.55L77.5529 285.681V280.354L114.151 259.221L114.153 264.55Z" fill="url(#paint38_linear_105_362)"/>
<path opacity="0.5" d="M114.153 301.484L77.5529 280.354L114.151 259.221L150.754 280.354L114.153 301.484Z" fill="url(#paint39_linear_105_362)"/>
<path d="M114.153 288.796L99.5278 280.354L114.153 271.909L128.777 280.354L114.153 288.796Z" fill="#CCBA96"/>
<path d="M114.153 272.687L128.105 280.742L128.777 280.354L114.153 271.909L99.5278 280.354L100.201 280.742L114.153 272.687Z" fill="#CCBA96"/>
<path opacity="0.5" d="M114.153 301.484V306.813L150.754 285.681V280.354L114.153 301.484Z" fill="url(#paint40_linear_105_362)"/>
<path opacity="0.5" d="M77.5529 280.354V285.681L114.153 306.813V301.484L77.5529 280.354Z" fill="url(#paint41_linear_105_362)"/>
<path d="M114.153 300.902L78.0556 280.062L77.5529 280.354L114.153 301.484L150.754 280.354L150.249 280.063L114.153 300.902Z" fill="#CCBA96"/>
<path d="M304.889 207.548C304.195 207.566 303.509 207.405 302.896 207.081L258.087 181.212C257.829 181.089 257.61 180.898 257.452 180.661C257.294 180.423 257.204 180.147 257.191 179.862C257.227 179.504 257.356 179.162 257.566 178.871C257.776 178.579 258.059 178.347 258.387 178.199L302.594 152.675C303.281 152.288 304.049 152.071 304.836 152.041C305.623 152.011 306.405 152.169 307.119 152.502L351.928 178.372C352.185 178.495 352.405 178.685 352.562 178.923C352.72 179.16 352.811 179.436 352.824 179.721C352.788 180.079 352.659 180.421 352.449 180.713C352.239 181.005 351.956 181.237 351.628 181.385L307.42 206.909C306.645 207.335 305.773 207.555 304.889 207.548ZM303.242 206.48C303.851 206.748 304.514 206.871 305.178 206.841C305.843 206.811 306.491 206.629 307.074 206.308L351.281 180.784C351.813 180.477 352.13 180.08 352.13 179.721C352.111 179.559 352.051 179.405 351.954 179.274C351.858 179.143 351.73 179.04 351.581 178.973L306.772 153.103C306.163 152.837 305.501 152.714 304.837 152.744C304.172 152.774 303.524 152.956 302.941 153.276L258.733 178.8C258.202 179.107 257.885 179.504 257.885 179.863C257.904 180.025 257.964 180.178 258.06 180.309C258.157 180.44 258.285 180.544 258.434 180.611L303.242 206.48Z" fill="#999999"/>
<path d="M352.477 160.86V166.36L304.892 193.833L257.307 166.358V160.86H352.477Z" fill="url(#paint42_linear_105_362)"/>
<path d="M304.892 188.333L257.307 160.86L304.892 133.387L352.477 160.86L304.892 188.333Z" fill="#999999"/>
<path d="M304.892 187.692L257.863 160.539L257.307 160.86L304.892 188.333L352.477 160.86L351.921 160.539L304.892 187.692Z" fill="white"/>
<path d="M304.892 181.996L268.291 160.866L304.892 139.735L341.492 160.866L304.892 181.996Z" fill="#161616"/>
<path opacity="0.5" d="M304.892 181.998L268.291 160.866L304.892 139.735L341.492 160.868L304.892 181.998Z" fill="url(#paint43_linear_105_362)"/>
<path opacity="0.5" d="M304.892 134.407L341.492 155.538V160.866L304.892 139.735V134.407Z" fill="url(#paint44_linear_105_362)"/>
<path opacity="0.5" d="M304.892 139.735L268.291 160.866V155.538L304.892 134.407V139.735Z" fill="url(#paint45_linear_105_362)"/>
<path opacity="0.5" d="M304.892 176.669L268.291 155.538L304.892 134.407L341.492 155.538L304.892 176.669Z" fill="url(#paint46_linear_105_362)"/>
<path d="M304.892 163.981L290.266 155.538L304.892 147.094L319.517 155.538L304.892 163.981Z" fill="#CCBA96"/>
<path d="M304.892 147.872L318.844 155.927L319.517 155.538L304.892 147.094L290.266 155.538L290.94 155.925L304.892 147.872Z" fill="#CCBA96"/>
<path opacity="0.5" d="M304.892 176.669V181.998L341.492 160.865V155.538L304.892 176.669Z" fill="url(#paint47_linear_105_362)"/>
<path opacity="0.5" d="M268.291 155.538V160.865L304.892 181.998V176.669L268.291 155.538Z" fill="url(#paint48_linear_105_362)"/>
<path d="M304.892 176.087L268.796 155.246L268.291 155.538L304.892 176.669L341.492 155.538L340.989 155.248L304.892 176.087Z" fill="#CCBA96"/>
<path d="M304.889 332.363C304.195 332.381 303.509 332.221 302.896 331.897L258.087 306.027C257.829 305.904 257.61 305.714 257.452 305.476C257.295 305.238 257.204 304.962 257.191 304.677C257.227 304.32 257.356 303.978 257.566 303.686C257.776 303.394 258.059 303.162 258.387 303.014L302.594 277.49C303.281 277.104 304.049 276.886 304.836 276.856C305.623 276.826 306.405 276.984 307.119 277.317L351.928 303.187C352.185 303.31 352.405 303.5 352.562 303.738C352.72 303.976 352.811 304.252 352.824 304.537C352.788 304.894 352.659 305.236 352.449 305.528C352.239 305.82 351.956 306.052 351.628 306.2L307.42 331.724C306.645 332.15 305.773 332.37 304.889 332.363ZM303.242 331.296C303.851 331.563 304.514 331.686 305.178 331.656C305.843 331.626 306.491 331.444 307.074 331.123L351.281 305.599C351.813 305.292 352.13 304.895 352.13 304.536C352.111 304.374 352.051 304.22 351.954 304.089C351.858 303.958 351.73 303.855 351.581 303.788L306.772 277.919C306.163 277.652 305.501 277.529 304.837 277.559C304.172 277.589 303.524 277.771 302.941 278.091L258.733 303.615C258.202 303.922 257.885 304.319 257.885 304.678C257.904 304.84 257.964 304.994 258.06 305.125C258.157 305.256 258.285 305.359 258.434 305.426L303.242 331.296Z" fill="#999999"/>
<path d="M352.477 285.675V291.175L304.892 318.648L257.307 291.173V285.675H352.477Z" fill="url(#paint49_linear_105_362)"/>
<path d="M304.892 313.148L257.307 285.675L304.892 258.202L352.477 285.675L304.892 313.148Z" fill="#999999"/>
<path d="M304.892 312.507L257.863 285.354L257.307 285.675L304.892 313.148L352.477 285.675L351.921 285.354L304.892 312.507Z" fill="white"/>
<path d="M304.892 306.812L268.291 285.681L304.892 264.55L341.492 285.681L304.892 306.812Z" fill="#161616"/>
<path opacity="0.5" d="M304.892 306.814L268.291 285.681L304.892 264.55L341.492 285.683L304.892 306.814Z" fill="url(#paint50_linear_105_362)"/>
<path opacity="0.5" d="M304.892 259.221L341.492 280.354V285.681L304.892 264.55V259.221Z" fill="url(#paint51_linear_105_362)"/>
<path opacity="0.5" d="M304.892 264.55L268.291 285.681V280.354L304.892 259.221V264.55Z" fill="url(#paint52_linear_105_362)"/>
<path opacity="0.5" d="M304.892 301.484L268.291 280.354L304.892 259.221L341.492 280.354L304.892 301.484Z" fill="url(#paint53_linear_105_362)"/>
<path d="M304.892 288.796L290.266 280.354L304.892 271.909L319.517 280.354L304.892 288.796Z" fill="#CCBA96"/>
<path d="M304.892 272.687L318.844 280.742L319.517 280.354L304.892 271.909L290.266 280.354L290.94 280.742L304.892 272.687Z" fill="#CCBA96"/>
<path opacity="0.5" d="M304.892 301.484V306.813L341.492 285.681V280.354L304.892 301.484Z" fill="url(#paint54_linear_105_362)"/>
<path opacity="0.5" d="M268.291 280.354V285.681L304.892 306.813V301.484L268.291 280.354Z" fill="url(#paint55_linear_105_362)"/>
<path d="M304.892 300.902L268.796 280.062L268.291 280.354L304.892 301.484L341.492 280.354L340.989 280.063L304.892 300.902Z" fill="#CCBA96"/>
<g opacity="0.5">
<path opacity="0.5" d="M74.2639 23.197C107.14 13.2985 126.705 50.549 107.493 86.4639C91.1901 116.941 51.4479 138.956 41.054 106.945C34.9394 88.1143 40.0052 41.9627 71.107 24.5491C62.7256 28.8832 56.5742 35.0132 50.5385 45.0464C62.0089 59.1591 62.9459 60.3119 72.8461 71.7027C84.5724 43.9973 85.5303 41.7341 94.2017 22.9948C87.7519 20.6375 80.6645 20.7094 74.2639 23.197ZM71.9571 24.1482C71.7079 24.2626 71.4598 24.3793 71.2127 24.4983C71.4595 24.3789 71.7076 24.2623 71.9571 24.1482ZM73.6312 23.44C73.8135 23.3679 73.9966 23.2975 74.1806 23.2289C73.9968 23.2972 73.8136 23.3676 73.6312 23.44ZM72.8461 23.7589C72.5875 23.8684 72.3303 23.9813 72.074 24.0957C72.3303 23.9813 72.5875 23.8684 72.8461 23.7589ZM72.8461 23.7589C73.0548 23.6711 73.2644 23.5853 73.4748 23.5015C73.2646 23.5855 73.0551 23.6714 72.8461 23.7589Z" fill="#CCBA96"/>
<path opacity="0.5" d="M18.6741 58.523C20.5963 56.5067 22.6535 54.5247 24.8456 52.5769V148.463C22.6551 150.41 20.5979 152.392 18.6741 154.409V58.523Z" fill="#CCBA96"/>
<path opacity="0.5" d="M8.81958 104.735C10.2089 102.542 11.7123 100.423 13.3237 98.3879V160.557C11.7122 162.593 10.2088 164.711 8.81958 166.905V104.735Z" fill="#CCBA96"/>
<path opacity="0.5" d="M2.52284e-07 177.006L0.100171 177.229L0.218935 170.931L2.52284e-07 170.597V177.006ZM2.52284e-07 195.551V99.6647C2.52284e-07 99.0516 0.011826 98.4371 0.0354775 97.8214C0.210792 93.4342 0.97035 89.09 2.29407 84.9036V180.79C0.970333 184.976 0.210775 189.32 0.0354775 193.707C0.0117628 194.323 -6.2987e-05 194.938 2.52284e-07 195.551Z" fill="#CCBA96"/>
<path opacity="0.5" d="M0 177.007L0.10055 177.229L0.218175 170.932L0 170.596V177.007Z" fill="#CCBA96"/>
<path opacity="0.5" d="M71.2127 24.4983L71.107 24.5491L71.2127 24.4983ZM74.1806 23.2289L74.2639 23.197L74.1806 23.2289ZM72.0742 24.0957C72.0353 24.1135 71.9962 24.1316 71.9571 24.1483C71.9962 24.1316 72.0353 24.1135 72.074 24.0957H72.0742ZM73.4751 23.5013L73.4942 23.4939L73.5136 23.4862L73.5331 23.4786L73.5526 23.471L73.5722 23.4632L73.5919 23.4556L73.6115 23.4478L73.6312 23.44L73.4749 23.5015L73.4751 23.5013Z" fill="#CCBA96"/>
<path opacity="0.5" d="M72.8461 23.7589C79.5872 20.7059 87.2596 20.4314 94.2017 22.9948C81.9429 50.01 80.6613 52.834 72.8461 71.7027C60.7666 57.6545 58.91 55.4953 50.5385 45.0464C52.9062 41.1105 60.1117 29.1329 72.8461 23.7589Z" fill="white"/>
<path opacity="0.5" d="M148.927 259.624C139.062 262.552 132.731 256.559 130.417 254.786C112.312 239.452 96.4497 220.749 78.2798 205.484C72.9103 200.972 69.6207 202.837 67.759 203.335C33.8802 216.774 33.8802 216.774 28.4469 208.571C18.4935 190.949 18.1482 189.526 13.5312 178.512C12.4766 175.996 8.89264 172.187 7.29617 172.39C-0.304307 174.534 0.704043 176.09 0 177.006V170.597C8.96075 167.142 9.88487 166.73 13.5312 175.07C30.2706 210.589 33.2131 209.799 37.113 208.878C72.7712 194.621 72.3259 195.657 81.4113 205.103C97.1344 221.47 128.833 253.334 138.627 255.872C142.181 256.18 145.761 255.924 149.235 255.116C183.653 243.586 197.309 236.338 230.993 221.828L234.012 226.719C221.545 232.157 183.861 246.983 149.179 257.903L148.927 259.624ZM256.512 298.287V202.401C245.923 202.997 235.132 203.256 224.138 203.177C99.5269 202.189 0 156.02 0 99.665V195.551C0 251.906 99.5269 298.076 224.138 299.063C235.114 299.15 245.905 298.891 256.512 298.287Z" fill="#CCBA96"/>
<path opacity="0.5" d="M148.927 259.624C140.051 261.896 131.668 264.042 79.4734 207.89C72.867 201.25 72.867 201.25 38.9684 214.762C35.1207 215.696 29.3061 217.108 13.2806 178.88C8.33184 167.59 0.0794918 176.903 0 177.006V170.597C2.21264 169.218 4.65122 168.241 7.20358 167.709C7.97286 167.477 8.8014 167.545 9.5227 167.899C10.6483 168.484 11.7872 169.81 13.7654 174.025C22.9974 193.693 22.9974 193.693 29.6466 204.45C33.5664 210.263 33.5664 210.263 65.3819 197.634C67.5553 197.05 72.078 195.833 78.897 201.272C98.0598 216.557 113.653 235.676 132.57 251.225C139.669 256.274 143.955 259.322 230.993 221.827L234.012 226.718C221.545 232.156 183.609 248.704 148.927 259.624Z" fill="#CCBA96"/>
</g>
</g>
<defs>
<linearGradient id="paint0_linear_105_362" x1="122.017" y1="350.671" x2="296.065" y2="350.671" gradientUnits="userSpaceOnUse">
<stop stop-color="#161616"/>
<stop offset="0.04815" stop-color="#2B2925"/>
<stop offset="0.15692" stop-color="#564F43"/>
<stop offset="0.27154" stop-color="#7A705D"/>
<stop offset="0.39094" stop-color="#988B71"/>
<stop offset="0.51662" stop-color="#AFA082"/>
<stop offset="0.65152" stop-color="#BFAF8D"/>
<stop offset="0.80205" stop-color="#C9B794"/>
<stop offset="1" stop-color="#CCBA96"/>
</linearGradient>
<linearGradient id="paint1_linear_105_362" x1="11315.9" y1="17827.6" x2="27283.3" y2="17827.6" gradientUnits="userSpaceOnUse">
<stop stop-color="#161616"/>
<stop offset="0.04815" stop-color="#2B2925"/>
<stop offset="0.15692" stop-color="#564F43"/>
<stop offset="0.27154" stop-color="#7A705D"/>
<stop offset="0.39094" stop-color="#988B71"/>
<stop offset="0.51662" stop-color="#AFA082"/>
<stop offset="0.65152" stop-color="#BFAF8D"/>
<stop offset="0.80205" stop-color="#C9B794"/>
<stop offset="1" stop-color="#CCBA96"/>
</linearGradient>
<linearGradient id="paint2_linear_105_362" x1="11315.9" y1="17117.9" x2="27283.3" y2="17117.9" gradientUnits="userSpaceOnUse">
<stop stop-color="#161616"/>
<stop offset="0.04815" stop-color="#2B2925"/>
<stop offset="0.15692" stop-color="#564F43"/>
<stop offset="0.27154" stop-color="#7A705D"/>
<stop offset="0.39094" stop-color="#988B71"/>
<stop offset="0.51662" stop-color="#AFA082"/>
<stop offset="0.65152" stop-color="#BFAF8D"/>
<stop offset="0.80205" stop-color="#C9B794"/>
<stop offset="1" stop-color="#CCBA96"/>
</linearGradient>
<linearGradient id="paint3_linear_105_362" x1="11315.9" y1="16408.2" x2="27283.3" y2="16408.2" gradientUnits="userSpaceOnUse">
<stop stop-color="#161616"/>
<stop offset="0.04815" stop-color="#2B2925"/>
<stop offset="0.15692" stop-color="#564F43"/>
<stop offset="0.27154" stop-color="#7A705D"/>
<stop offset="0.39094" stop-color="#988B71"/>
<stop offset="0.51662" stop-color="#AFA082"/>
<stop offset="0.65152" stop-color="#BFAF8D"/>
<stop offset="0.80205" stop-color="#C9B794"/>
<stop offset="1" stop-color="#CCBA96"/>
</linearGradient>
<linearGradient id="paint4_linear_105_362" x1="11315.9" y1="24451.8" x2="27283.3" y2="24451.8" gradientUnits="userSpaceOnUse">
<stop stop-color="#161616"/>
<stop offset="0.04815" stop-color="#2B2925"/>
<stop offset="0.15692" stop-color="#564F43"/>
<stop offset="0.27154" stop-color="#7A705D"/>
<stop offset="0.39094" stop-color="#988B71"/>
<stop offset="0.51662" stop-color="#AFA082"/>
<stop offset="0.65152" stop-color="#BFAF8D"/>
<stop offset="0.80205" stop-color="#C9B794"/>
<stop offset="1" stop-color="#CCBA96"/>
</linearGradient>
<linearGradient id="paint5_linear_105_362" x1="11315.9" y1="15601.5" x2="27283.3" y2="15601.5" gradientUnits="userSpaceOnUse">
<stop stop-color="#161616"/>
<stop offset="0.04815" stop-color="#2B2925"/>
<stop offset="0.15692" stop-color="#564F43"/>
<stop offset="0.27154" stop-color="#7A705D"/>
<stop offset="0.39094" stop-color="#988B71"/>
<stop offset="0.51662" stop-color="#AFA082"/>
<stop offset="0.65152" stop-color="#BFAF8D"/>
<stop offset="0.80205" stop-color="#C9B794"/>
<stop offset="1" stop-color="#CCBA96"/>
</linearGradient>
<linearGradient id="paint6_linear_105_362" x1="11315.9" y1="14891.8" x2="27283.3" y2="14891.8" gradientUnits="userSpaceOnUse">
<stop stop-color="#161616"/>
<stop offset="0.04815" stop-color="#2B2925"/>
<stop offset="0.15692" stop-color="#564F43"/>
<stop offset="0.27154" stop-color="#7A705D"/>
<stop offset="0.39094" stop-color="#988B71"/>
<stop offset="0.51662" stop-color="#AFA082"/>
<stop offset="0.65152" stop-color="#BFAF8D"/>
<stop offset="0.80205" stop-color="#C9B794"/>
<stop offset="1" stop-color="#CCBA96"/>
</linearGradient>
<linearGradient id="paint7_linear_105_362" x1="11315.9" y1="14182.2" x2="27283.3" y2="14182.2" gradientUnits="userSpaceOnUse">
<stop stop-color="#161616"/>
<stop offset="0.04815" stop-color="#2B2925"/>
<stop offset="0.15692" stop-color="#564F43"/>
<stop offset="0.27154" stop-color="#7A705D"/>
<stop offset="0.39094" stop-color="#988B71"/>
<stop offset="0.51662" stop-color="#AFA082"/>
<stop offset="0.65152" stop-color="#BFAF8D"/>
<stop offset="0.80205" stop-color="#C9B794"/>
<stop offset="1" stop-color="#CCBA96"/>
</linearGradient>
<linearGradient id="paint8_linear_105_362" x1="11315.9" y1="13472.5" x2="27283.3" y2="13472.5" gradientUnits="userSpaceOnUse">
<stop stop-color="#161616"/>
<stop offset="0.04815" stop-color="#2B2925"/>
<stop offset="0.15692" stop-color="#564F43"/>
<stop offset="0.27154" stop-color="#7A705D"/>
<stop offset="0.39094" stop-color="#988B71"/>
<stop offset="0.51662" stop-color="#AFA082"/>
<stop offset="0.65152" stop-color="#BFAF8D"/>
<stop offset="0.80205" stop-color="#C9B794"/>
<stop offset="1" stop-color="#CCBA96"/>
</linearGradient>
<linearGradient id="paint9_linear_105_362" x1="11315.9" y1="20343.4" x2="27283.3" y2="20343.4" gradientUnits="userSpaceOnUse">
<stop stop-color="#161616"/>
<stop offset="0.04815" stop-color="#2B2925"/>
<stop offset="0.15692" stop-color="#564F43"/>
<stop offset="0.27154" stop-color="#7A705D"/>
<stop offset="0.39094" stop-color="#988B71"/>
<stop offset="0.51662" stop-color="#AFA082"/>
<stop offset="0.65152" stop-color="#BFAF8D"/>
<stop offset="0.80205" stop-color="#C9B794"/>
<stop offset="1" stop-color="#CCBA96"/>
</linearGradient>
<linearGradient id="paint10_linear_105_362" x1="11315.9" y1="12665.8" x2="27283.3" y2="12665.8" gradientUnits="userSpaceOnUse">
<stop stop-color="#161616"/>
<stop offset="0.04815" stop-color="#2B2925"/>
<stop offset="0.15692" stop-color="#564F43"/>
<stop offset="0.27154" stop-color="#7A705D"/>
<stop offset="0.39094" stop-color="#988B71"/>
<stop offset="0.51662" stop-color="#AFA082"/>
<stop offset="0.65152" stop-color="#BFAF8D"/>
<stop offset="0.80205" stop-color="#C9B794"/>
<stop offset="1" stop-color="#CCBA96"/>
</linearGradient>
<linearGradient id="paint11_linear_105_362" x1="11315.9" y1="11956.1" x2="27283.3" y2="11956.1" gradientUnits="userSpaceOnUse">
<stop stop-color="#161616"/>
<stop offset="0.04815" stop-color="#2B2925"/>
<stop offset="0.15692" stop-color="#564F43"/>
<stop offset="0.27154" stop-color="#7A705D"/>
<stop offset="0.39094" stop-color="#988B71"/>
<stop offset="0.51662" stop-color="#AFA082"/>
<stop offset="0.65152" stop-color="#BFAF8D"/>
<stop offset="0.80205" stop-color="#C9B794"/>
<stop offset="1" stop-color="#CCBA96"/>
</linearGradient>
<linearGradient id="paint12_linear_105_362" x1="11315.9" y1="11246.5" x2="27283.3" y2="11246.5" gradientUnits="userSpaceOnUse">
<stop stop-color="#161616"/>
<stop offset="0.04815" stop-color="#2B2925"/>
<stop offset="0.15692" stop-color="#564F43"/>
<stop offset="0.27154" stop-color="#7A705D"/>
<stop offset="0.39094" stop-color="#988B71"/>
<stop offset="0.51662" stop-color="#AFA082"/>
<stop offset="0.65152" stop-color="#BFAF8D"/>
<stop offset="0.80205" stop-color="#C9B794"/>
<stop offset="1" stop-color="#CCBA96"/>
</linearGradient>
<linearGradient id="paint13_linear_105_362" x1="11315.9" y1="10536.8" x2="27283.3" y2="10536.8" gradientUnits="userSpaceOnUse">
<stop stop-color="#161616"/>
<stop offset="0.04815" stop-color="#2B2925"/>
<stop offset="0.15692" stop-color="#564F43"/>
<stop offset="0.27154" stop-color="#7A705D"/>
<stop offset="0.39094" stop-color="#988B71"/>
<stop offset="0.51662" stop-color="#AFA082"/>
<stop offset="0.65152" stop-color="#BFAF8D"/>
<stop offset="0.80205" stop-color="#C9B794"/>
<stop offset="1" stop-color="#CCBA96"/>
</linearGradient>
<linearGradient id="paint14_linear_105_362" x1="11315.9" y1="16235" x2="27283.3" y2="16235" gradientUnits="userSpaceOnUse">
<stop stop-color="#161616"/>
<stop offset="0.04815" stop-color="#2B2925"/>
<stop offset="0.15692" stop-color="#564F43"/>
<stop offset="0.27154" stop-color="#7A705D"/>
<stop offset="0.39094" stop-color="#988B71"/>
<stop offset="0.51662" stop-color="#AFA082"/>
<stop offset="0.65152" stop-color="#BFAF8D"/>
<stop offset="0.80205" stop-color="#C9B794"/>
<stop offset="1" stop-color="#CCBA96"/>
</linearGradient>
<linearGradient id="paint15_linear_105_362" x1="11315.9" y1="10536.8" x2="27283.3" y2="10536.8" gradientUnits="userSpaceOnUse">
<stop stop-color="#161616"/>
<stop offset="0.04815" stop-color="#2B2925"/>
<stop offset="0.15692" stop-color="#564F43"/>
<stop offset="0.27154" stop-color="#7A705D"/>
<stop offset="0.39094" stop-color="#988B71"/>
<stop offset="0.51662" stop-color="#AFA082"/>
<stop offset="0.65152" stop-color="#BFAF8D"/>
<stop offset="0.80205" stop-color="#C9B794"/>
<stop offset="1" stop-color="#CCBA96"/>
</linearGradient>
<linearGradient id="paint16_linear_105_362" x1="11316.1" y1="6145.14" x2="27283.4" y2="6145.14" gradientUnits="userSpaceOnUse">
<stop stop-color="#161616"/>
<stop offset="0.04815" stop-color="#2B2925"/>
<stop offset="0.15692" stop-color="#564F43"/>
<stop offset="0.27154" stop-color="#7A705D"/>
<stop offset="0.39094" stop-color="#988B71"/>
<stop offset="0.51662" stop-color="#AFA082"/>
<stop offset="0.65152" stop-color="#BFAF8D"/>
<stop offset="0.80205" stop-color="#C9B794"/>
<stop offset="1" stop-color="#CCBA96"/>
</linearGradient>
<linearGradient id="paint17_linear_105_362" x1="193.295" y1="164.526" x2="200.83" y2="164.526" gradientUnits="userSpaceOnUse">
<stop stop-color="#999999"/>
<stop offset="0.09503" stop-color="#A19E99"/>
<stop offset="0.42733" stop-color="#B9AE97"/>
<stop offset="0.73713" stop-color="#C7B796"/>
<stop offset="1" stop-color="#CCBA96"/>
</linearGradient>
<linearGradient id="paint18_linear_105_362" x1="2157.22" y1="5496.91" x2="2344.82" y2="5496.91" gradientUnits="userSpaceOnUse">
<stop stop-color="#999999"/>
<stop offset="0.09503" stop-color="#A19E99"/>
<stop offset="0.42733" stop-color="#B9AE97"/>
<stop offset="0.73713" stop-color="#C7B796"/>
<stop offset="1" stop-color="#CCBA96"/>
</linearGradient>
<linearGradient id="paint19_linear_105_362" x1="2322.6" y1="882.725" x2="2542.95" y2="882.725" gradientUnits="userSpaceOnUse">
<stop stop-color="#999999"/>
<stop offset="0.09503" stop-color="#A19E99"/>
<stop offset="0.42733" stop-color="#B9AE97"/>
<stop offset="0.73713" stop-color="#C7B796"/>
<stop offset="1" stop-color="#CCBA96"/>
</linearGradient>
<linearGradient id="paint20_linear_105_362" x1="2288.76" y1="7513.64" x2="2352.49" y2="7508.05" gradientUnits="userSpaceOnUse">
<stop stop-color="#999999"/>
<stop offset="0.09503" stop-color="#A19E99"/>
<stop offset="0.42733" stop-color="#B9AE97"/>
<stop offset="0.73713" stop-color="#C7B796"/>
<stop offset="1" stop-color="#CCBA96"/>
</linearGradient>
<linearGradient id="paint21_linear_105_362" x1="463.016" y1="185.619" x2="464.684" y2="185.473" gradientUnits="userSpaceOnUse">
<stop stop-color="#999999"/>
<stop offset="0.09503" stop-color="#A19E99"/>
<stop offset="0.42733" stop-color="#B9AE97"/>
<stop offset="0.73713" stop-color="#C7B796"/>
<stop offset="1" stop-color="#CCBA96"/>
</linearGradient>
<linearGradient id="paint22_linear_105_362" x1="4650.35" y1="2005.21" x2="5119.94" y2="1964.06" gradientUnits="userSpaceOnUse">
<stop stop-color="#999999"/>
<stop offset="0.09503" stop-color="#A19E99"/>
<stop offset="0.42733" stop-color="#B9AE97"/>
<stop offset="0.73713" stop-color="#C7B796"/>
<stop offset="1" stop-color="#CCBA96"/>
</linearGradient>
<linearGradient id="paint23_linear_105_362" x1="1215.72" y1="2631.3" x2="1234.76" y2="2629.63" gradientUnits="userSpaceOnUse">
<stop stop-color="#999999"/>
<stop offset="0.09503" stop-color="#A19E99"/>
<stop offset="0.42733" stop-color="#B9AE97"/>
<stop offset="0.73713" stop-color="#C7B796"/>
<stop offset="1" stop-color="#CCBA96"/>
</linearGradient>
<linearGradient id="paint24_linear_105_362" x1="3874.42" y1="5519.78" x2="4177.99" y2="5493.18" gradientUnits="userSpaceOnUse">
<stop stop-color="#999999"/>
<stop offset="0.09503" stop-color="#A19E99"/>
<stop offset="0.42733" stop-color="#B9AE97"/>
<stop offset="0.73713" stop-color="#C7B796"/>
<stop offset="1" stop-color="#CCBA96"/>
</linearGradient>
<linearGradient id="paint25_linear_105_362" x1="586.407" y1="341.119" x2="591.116" y2="340.706" gradientUnits="userSpaceOnUse">
<stop stop-color="#999999"/>
<stop offset="0.09503" stop-color="#A19E99"/>
<stop offset="0.42733" stop-color="#B9AE97"/>
<stop offset="0.73713" stop-color="#C7B796"/>
<stop offset="1" stop-color="#CCBA96"/>
</linearGradient>
<linearGradient id="paint26_linear_105_362" x1="569.177" y1="328.15" x2="573.866" y2="327.739" gradientUnits="userSpaceOnUse">
<stop stop-color="#999999"/>
<stop offset="0.09503" stop-color="#A19E99"/>
<stop offset="0.42733" stop-color="#B9AE97"/>
<stop offset="0.73713" stop-color="#C7B796"/>
<stop offset="1" stop-color="#CCBA96"/>
</linearGradient>
<linearGradient id="paint27_linear_105_362" x1="3348.37" y1="5293.15" x2="3577.83" y2="5273.05" gradientUnits="userSpaceOnUse">
<stop stop-color="#999999"/>
<stop offset="0.09503" stop-color="#A19E99"/>
<stop offset="0.42733" stop-color="#B9AE97"/>
<stop offset="0.73713" stop-color="#C7B796"/>
<stop offset="1" stop-color="#CCBA96"/>
</linearGradient>
<linearGradient id="paint28_linear_105_362" x1="43.0387" y1="177.346" x2="164.994" y2="177.346" gradientUnits="userSpaceOnUse">
<stop stop-color="#161616"/>
<stop offset="0.05692" stop-color="#232323"/>
<stop offset="1" stop-color="white"/>
</linearGradient>
<linearGradient id="paint29_linear_105_362" x1="77.5525" y1="160.867" x2="150.753" y2="160.867" gradientUnits="userSpaceOnUse">
<stop stop-color="#CCBA96"/>
<stop offset="0.26287" stop-color="#C7B796"/>
<stop offset="0.57267" stop-color="#B9AE97"/>
<stop offset="0.90497" stop-color="#A19E99"/>
<stop offset="1" stop-color="#999999"/>
</linearGradient>
<linearGradient id="paint30_linear_105_362" x1="2316.49" y1="2193.35" x2="3022.63" y2="2193.35" gradientUnits="userSpaceOnUse">
<stop stop-color="#CCBA96"/>
<stop offset="0.26287" stop-color="#C7B796"/>
<stop offset="0.57267" stop-color="#B9AE97"/>
<stop offset="0.90497" stop-color="#A19E99"/>
<stop offset="1" stop-color="#999999"/>
</linearGradient>
<linearGradient id="paint31_linear_105_362" x1="1573.7" y1="2193.34" x2="2279.8" y2="2193.34" gradientUnits="userSpaceOnUse">
<stop stop-color="#CCBA96"/>
<stop offset="0.26287" stop-color="#C7B796"/>
<stop offset="0.57267" stop-color="#B9AE97"/>
<stop offset="0.90497" stop-color="#A19E99"/>
<stop offset="1" stop-color="#999999"/>
</linearGradient>
<linearGradient id="paint32_linear_105_362" x1="3069.84" y1="3599.17" x2="5894.21" y2="3599.17" gradientUnits="userSpaceOnUse">
<stop stop-color="#CCBA96"/>
<stop offset="0.26287" stop-color="#C7B796"/>
<stop offset="0.57267" stop-color="#B9AE97"/>
<stop offset="0.90497" stop-color="#A19E99"/>
<stop offset="1" stop-color="#999999"/>
</linearGradient>
<linearGradient id="paint33_linear_105_362" x1="2316.4" y1="2509.34" x2="3022.48" y2="2509.34" gradientUnits="userSpaceOnUse">
<stop stop-color="#CCBA96"/>
<stop offset="0.26287" stop-color="#C7B796"/>
<stop offset="0.57267" stop-color="#B9AE97"/>
<stop offset="0.90497" stop-color="#A19E99"/>
<stop offset="1" stop-color="#999999"/>
</linearGradient>
<linearGradient id="paint34_linear_105_362" x1="1573.7" y1="2509.34" x2="2279.8" y2="2509.34" gradientUnits="userSpaceOnUse">
<stop stop-color="#CCBA96"/>
<stop offset="0.26287" stop-color="#C7B796"/>
<stop offset="0.57267" stop-color="#B9AE97"/>
<stop offset="0.90497" stop-color="#A19E99"/>
<stop offset="1" stop-color="#999999"/>
</linearGradient>
<linearGradient id="paint35_linear_105_362" x1="2225.6" y1="5537.24" x2="8343.49" y2="5537.24" gradientUnits="userSpaceOnUse">
<stop stop-color="#161616"/>
<stop offset="0.05692" stop-color="#232323"/>
<stop offset="1" stop-color="white"/>
</linearGradient>
<linearGradient id="paint36_linear_105_362" x1="3069.84" y1="6628.68" x2="5894.21" y2="6628.68" gradientUnits="userSpaceOnUse">
<stop stop-color="#CCBA96"/>
<stop offset="0.26287" stop-color="#C7B796"/>
<stop offset="0.57267" stop-color="#B9AE97"/>
<stop offset="0.90497" stop-color="#A19E99"/>
<stop offset="1" stop-color="#999999"/>
</linearGradient>
<linearGradient id="paint37_linear_105_362" x1="2316.49" y1="4059.1" x2="3022.63" y2="4059.1" gradientUnits="userSpaceOnUse">
<stop stop-color="#CCBA96"/>
<stop offset="0.26287" stop-color="#C7B796"/>
<stop offset="0.57267" stop-color="#B9AE97"/>
<stop offset="0.90497" stop-color="#A19E99"/>
<stop offset="1" stop-color="#999999"/>
</linearGradient>
<linearGradient id="paint38_linear_105_362" x1="1573.7" y1="4059.1" x2="2279.8" y2="4059.1" gradientUnits="userSpaceOnUse">
<stop stop-color="#CCBA96"/>
<stop offset="0.26287" stop-color="#C7B796"/>
<stop offset="0.57267" stop-color="#B9AE97"/>
<stop offset="0.90497" stop-color="#A19E99"/>
<stop offset="1" stop-color="#999999"/>
</linearGradient>
<linearGradient id="paint39_linear_105_362" x1="3069.84" y1="6504.65" x2="5894.21" y2="6504.65" gradientUnits="userSpaceOnUse">
<stop stop-color="#CCBA96"/>
<stop offset="0.26287" stop-color="#C7B796"/>
<stop offset="0.57267" stop-color="#B9AE97"/>
<stop offset="0.90497" stop-color="#A19E99"/>
<stop offset="1" stop-color="#999999"/>
</linearGradient>
<linearGradient id="paint40_linear_105_362" x1="2316.4" y1="4374.95" x2="3022.48" y2="4374.95" gradientUnits="userSpaceOnUse">
<stop stop-color="#CCBA96"/>
<stop offset="0.26287" stop-color="#C7B796"/>
<stop offset="0.57267" stop-color="#B9AE97"/>
<stop offset="0.90497" stop-color="#A19E99"/>
<stop offset="1" stop-color="#999999"/>
</linearGradient>
<linearGradient id="paint41_linear_105_362" x1="1573.7" y1="4374.94" x2="2279.8" y2="4374.94" gradientUnits="userSpaceOnUse">
<stop stop-color="#CCBA96"/>
<stop offset="0.26287" stop-color="#C7B796"/>
<stop offset="0.57267" stop-color="#B9AE97"/>
<stop offset="0.90497" stop-color="#A19E99"/>
<stop offset="1" stop-color="#999999"/>
</linearGradient>
<linearGradient id="paint42_linear_105_362" x1="11984.5" y1="3243.13" x2="18102.3" y2="3243.13" gradientUnits="userSpaceOnUse">
<stop stop-color="#161616"/>
<stop offset="0.05692" stop-color="#232323"/>
<stop offset="1" stop-color="white"/>
</linearGradient>
<linearGradient id="paint43_linear_105_362" x1="10620" y1="3723.36" x2="13444.4" y2="3723.36" gradientUnits="userSpaceOnUse">
<stop stop-color="#CCBA96"/>
<stop offset="0.26287" stop-color="#C7B796"/>
<stop offset="0.57267" stop-color="#B9AE97"/>
<stop offset="0.90497" stop-color="#A19E99"/>
<stop offset="1" stop-color="#999999"/>
</linearGradient>
<linearGradient id="paint44_linear_105_362" x1="6186.86" y1="2193.35" x2="6892.96" y2="2193.35" gradientUnits="userSpaceOnUse">
<stop stop-color="#CCBA96"/>
<stop offset="0.26287" stop-color="#C7B796"/>
<stop offset="0.57267" stop-color="#B9AE97"/>
<stop offset="0.90497" stop-color="#A19E99"/>
<stop offset="1" stop-color="#999999"/>
</linearGradient>
<linearGradient id="paint45_linear_105_362" x1="5444.17" y1="2193.34" x2="6150.27" y2="2193.34" gradientUnits="userSpaceOnUse">
<stop stop-color="#CCBA96"/>
<stop offset="0.26287" stop-color="#C7B796"/>
<stop offset="0.57267" stop-color="#B9AE97"/>
<stop offset="0.90497" stop-color="#A19E99"/>
<stop offset="1" stop-color="#999999"/>
</linearGradient>
<linearGradient id="paint46_linear_105_362" x1="10620" y1="3599.17" x2="13444.4" y2="3599.17" gradientUnits="userSpaceOnUse">
<stop stop-color="#CCBA96"/>
<stop offset="0.26287" stop-color="#C7B796"/>
<stop offset="0.57267" stop-color="#B9AE97"/>
<stop offset="0.90497" stop-color="#A19E99"/>
<stop offset="1" stop-color="#999999"/>
</linearGradient>
<linearGradient id="paint47_linear_105_362" x1="6186.88" y1="2509.34" x2="6892.96" y2="2509.34" gradientUnits="userSpaceOnUse">
<stop stop-color="#CCBA96"/>
<stop offset="0.26287" stop-color="#C7B796"/>
<stop offset="0.57267" stop-color="#B9AE97"/>
<stop offset="0.90497" stop-color="#A19E99"/>
<stop offset="1" stop-color="#999999"/>
</linearGradient>
<linearGradient id="paint48_linear_105_362" x1="5444.17" y1="2509.34" x2="6150.27" y2="2509.34" gradientUnits="userSpaceOnUse">
<stop stop-color="#CCBA96"/>
<stop offset="0.26287" stop-color="#C7B796"/>
<stop offset="0.57267" stop-color="#B9AE97"/>
<stop offset="0.90497" stop-color="#A19E99"/>
<stop offset="1" stop-color="#999999"/>
</linearGradient>
<linearGradient id="paint49_linear_105_362" x1="11984.5" y1="5537.24" x2="18102.3" y2="5537.24" gradientUnits="userSpaceOnUse">
<stop stop-color="#161616"/>
<stop offset="0.05692" stop-color="#232323"/>
<stop offset="1" stop-color="white"/>
</linearGradient>
<linearGradient id="paint50_linear_105_362" x1="10620" y1="6628.68" x2="13444.4" y2="6628.68" gradientUnits="userSpaceOnUse">
<stop stop-color="#CCBA96"/>
<stop offset="0.26287" stop-color="#C7B796"/>
<stop offset="0.57267" stop-color="#B9AE97"/>
<stop offset="0.90497" stop-color="#A19E99"/>
<stop offset="1" stop-color="#999999"/>
</linearGradient>
<linearGradient id="paint51_linear_105_362" x1="6186.86" y1="4059.1" x2="6892.96" y2="4059.1" gradientUnits="userSpaceOnUse">
<stop stop-color="#CCBA96"/>
<stop offset="0.26287" stop-color="#C7B796"/>
<stop offset="0.57267" stop-color="#B9AE97"/>
<stop offset="0.90497" stop-color="#A19E99"/>
<stop offset="1" stop-color="#999999"/>
</linearGradient>
<linearGradient id="paint52_linear_105_362" x1="5444.17" y1="4059.1" x2="6150.27" y2="4059.1" gradientUnits="userSpaceOnUse">
<stop stop-color="#CCBA96"/>
<stop offset="0.26287" stop-color="#C7B796"/>
<stop offset="0.57267" stop-color="#B9AE97"/>
<stop offset="0.90497" stop-color="#A19E99"/>
<stop offset="1" stop-color="#999999"/>
</linearGradient>
<linearGradient id="paint53_linear_105_362" x1="10620" y1="6504.65" x2="13444.4" y2="6504.65" gradientUnits="userSpaceOnUse">
<stop stop-color="#CCBA96"/>
<stop offset="0.26287" stop-color="#C7B796"/>
<stop offset="0.57267" stop-color="#B9AE97"/>
<stop offset="0.90497" stop-color="#A19E99"/>
<stop offset="1" stop-color="#999999"/>
</linearGradient>
<linearGradient id="paint54_linear_105_362" x1="6186.88" y1="4374.95" x2="6892.96" y2="4374.95" gradientUnits="userSpaceOnUse">
<stop stop-color="#CCBA96"/>
<stop offset="0.26287" stop-color="#C7B796"/>
<stop offset="0.57267" stop-color="#B9AE97"/>
<stop offset="0.90497" stop-color="#A19E99"/>
<stop offset="1" stop-color="#999999"/>
</linearGradient>
<linearGradient id="paint55_linear_105_362" x1="5444.17" y1="4374.95" x2="6150.27" y2="4374.95" gradientUnits="userSpaceOnUse">
<stop stop-color="#CCBA96"/>
<stop offset="0.26287" stop-color="#C7B796"/>
<stop offset="0.57267" stop-color="#B9AE97"/>
<stop offset="0.90497" stop-color="#A19E99"/>
<stop offset="1" stop-color="#999999"/>
</linearGradient>
<clipPath id="clip0_105_362">
<rect width="352.824" height="400" fill="white"/>
</clipPath>
</defs>
</svg>
