<svg width="370" height="306" viewBox="0 0 370 306" fill="none" xmlns="http://www.w3.org/2000/svg">
<path style="mix-blend-mode:lighten" opacity="0.15" d="M282.656 235.058C336.669 181.285 336.669 94.1024 282.656 40.3296C228.642 -13.4431 141.069 -13.4431 87.0552 40.3296C33.0416 94.1024 33.0416 181.285 87.0552 235.058C141.069 288.831 228.642 288.831 282.656 235.058Z" fill="url(#paint0_radial_106_669)"/>
<path style="mix-blend-mode:lighten" opacity="0.3" d="M262.336 216.225C305.902 172.853 305.902 102.534 262.336 59.1622C218.77 15.7904 148.136 15.7905 104.57 59.1622C61.0038 102.534 61.0038 172.853 104.57 216.225C148.136 259.597 218.77 259.597 262.336 216.225Z" fill="url(#paint1_radial_106_669)"/>
<path style="mix-blend-mode:lighten" opacity="0.1" d="M183.453 305.719C220.173 305.719 249.94 276.085 249.94 239.529C249.94 202.973 220.173 173.339 183.453 173.339C146.733 173.339 116.966 202.973 116.966 239.529C116.966 276.085 146.733 305.719 183.453 305.719Z" fill="url(#paint2_radial_106_669)"/>
<path style="mix-blend-mode:lighten" opacity="0.2" d="M185.44 92.1687L332.99 176.977L185.445 261.783L37.8951 176.975L185.44 92.1687Z" fill="url(#paint3_radial_106_669)"/>
<path style="mix-blend-mode:lighten" opacity="0.2" d="M185.44 75.3496L332.99 160.158L185.445 244.964L37.8951 160.156L185.44 75.3496Z" fill="url(#paint4_radial_106_669)"/>
<path d="M87.6524 135.173V200.914C87.6524 210.323 95.314 217.951 104.765 217.951H264.946C274.397 217.951 282.059 210.323 282.059 200.914V135.173C282.059 125.765 274.397 118.137 264.946 118.137L104.765 118.137C95.314 118.137 87.6524 125.765 87.6524 135.173Z" fill="#CCBA96"/>
<path d="M89.6691 135.412V200.676C89.6691 209.108 96.5351 215.943 105.005 215.943H264.706C273.176 215.943 280.042 209.108 280.042 200.676V135.412C280.042 126.98 273.176 120.145 264.706 120.145L105.005 120.145C96.5351 120.145 89.6691 126.98 89.6691 135.412Z" fill="url(#paint5_radial_106_669)"/>
<path d="M94.9136 160.948V175.14C94.9136 175.244 94.893 175.347 94.8531 175.443C94.8131 175.539 94.7546 175.626 94.6808 175.7C94.607 175.773 94.5193 175.831 94.4229 175.871C94.3265 175.911 94.2231 175.931 94.1187 175.931C94.0143 175.931 93.911 175.911 93.8145 175.871C93.7181 175.831 93.6305 175.773 93.5567 175.7C93.4829 175.626 93.4243 175.539 93.3844 175.443C93.3444 175.347 93.3239 175.244 93.3239 175.14V160.948C93.3239 160.844 93.3444 160.741 93.3844 160.645C93.4243 160.549 93.4829 160.462 93.5567 160.388C93.6305 160.315 93.7181 160.256 93.8145 160.216C93.911 160.177 94.0143 160.156 94.1187 160.156C94.2231 160.156 94.3265 160.177 94.4229 160.216C94.5193 160.256 94.607 160.315 94.6808 160.388C94.7546 160.462 94.8131 160.549 94.8531 160.645C94.893 160.741 94.9136 160.844 94.9136 160.948Z" fill="#161616"/>
<path style="mix-blend-mode:lighten" opacity="0.3" d="M104.458 213.023C149.365 213.023 185.769 176.781 185.769 132.074C185.769 87.3677 149.365 51.1257 104.458 51.1257C59.5506 51.1257 23.1464 87.3677 23.1464 132.074C23.1464 176.781 59.5506 213.023 104.458 213.023Z" fill="url(#paint6_radial_106_669)"/>
<path style="mix-blend-mode:lighten" opacity="0.3" d="M261.049 213.023C305.956 213.023 342.36 176.781 342.36 132.074C342.36 87.3674 305.956 51.1255 261.049 51.1255C216.142 51.1255 179.738 87.3674 179.738 132.074C179.738 176.781 216.142 213.023 261.049 213.023Z" fill="url(#paint7_radial_106_669)"/>
<path style="mix-blend-mode:lighten" opacity="0.5" d="M237.209 199.47H294.347V142.2L226.227 142.503V199.47H237.209Z" fill="url(#paint8_linear_106_669)"/>
<path style="mix-blend-mode:lighten" opacity="0.5" d="M129.91 199.167H72.772V141.897L140.893 142.2V199.167H129.91Z" fill="url(#paint9_linear_106_669)"/>
<path d="M193.148 169.946C193.029 168.921 192.663 167.94 192.081 167.087C191.499 166.233 190.718 165.532 189.805 165.045C188.892 164.557 187.873 164.296 186.837 164.284C185.801 164.273 184.777 164.511 183.854 164.978C181.848 166.052 179.615 166.637 177.339 166.684C176.965 166.684 176.607 166.537 176.343 166.274C176.079 166.011 175.93 165.654 175.93 165.282V142.2H152.745C152.56 142.2 152.377 142.236 152.206 142.307C152.035 142.377 151.88 142.481 151.749 142.611C151.618 142.741 151.514 142.896 151.444 143.066C151.373 143.236 151.336 143.418 151.336 143.603C151.384 145.869 151.971 148.092 153.05 150.088C153.551 151.07 153.789 152.164 153.741 153.264C153.693 154.365 153.36 155.434 152.775 156.369C152.191 157.303 151.373 158.072 150.403 158.6C149.432 159.129 148.341 159.399 147.235 159.384C146.129 159.37 145.045 159.071 144.089 158.517C143.133 157.964 142.336 157.174 141.776 156.224C141.216 155.274 140.912 154.197 140.893 153.095C140.874 151.994 141.141 150.907 141.668 149.939C142.735 147.997 143.297 145.821 143.303 143.607V143.603C143.303 143.419 143.266 143.236 143.195 143.066C143.125 142.896 143.021 142.741 142.89 142.611C142.759 142.481 142.604 142.377 142.433 142.307C142.262 142.237 142.079 142.2 141.894 142.2H118.709V195.845C118.709 196.726 119.06 197.571 119.686 198.194C120.312 198.817 121.161 199.167 122.046 199.167H175.93V176.085C175.93 175.901 175.967 175.718 176.037 175.548C176.108 175.378 176.212 175.223 176.343 175.093C176.474 174.963 176.629 174.86 176.8 174.789C176.971 174.719 177.154 174.682 177.339 174.682H177.344C179.567 174.688 181.753 175.247 183.703 176.309C184.738 176.867 185.906 177.132 187.081 177.074C188.256 177.016 189.392 176.639 190.366 175.982C191.341 175.326 192.115 174.416 192.606 173.352C193.096 172.287 193.284 171.109 193.148 169.946L193.148 169.946Z" fill="url(#paint10_radial_106_669)"/>
<path d="M230.322 142.503C229.949 142.503 229.59 142.355 229.326 142.092C229.062 141.829 228.913 141.472 228.913 141.1V141.096C228.919 138.883 229.48 136.706 230.548 134.765C231.108 133.735 231.374 132.572 231.316 131.402C231.258 130.233 230.879 129.101 230.219 128.131C229.56 127.161 228.646 126.39 227.577 125.902C226.507 125.414 225.324 125.227 224.156 125.362C223.126 125.48 222.141 125.845 221.283 126.424C220.426 127.004 219.722 127.782 219.232 128.691C218.742 129.6 218.48 130.613 218.469 131.645C218.457 132.676 218.696 133.695 219.166 134.615C220.245 136.611 220.832 138.834 220.88 141.1C220.88 141.285 220.843 141.467 220.772 141.637C220.701 141.807 220.598 141.962 220.467 142.092C220.336 142.223 220.181 142.326 220.01 142.396C219.839 142.467 219.655 142.503 219.47 142.503H196.286V165.585C196.286 165.957 196.434 166.314 196.698 166.577C196.962 166.84 197.321 166.987 197.694 166.987C199.971 166.94 202.204 166.355 204.209 165.281C205.195 164.783 206.294 164.546 207.399 164.594C208.505 164.642 209.579 164.973 210.518 165.555C211.457 166.137 212.229 166.951 212.759 167.917C213.29 168.883 213.561 169.969 213.547 171.071C213.532 172.172 213.232 173.251 212.676 174.203C212.12 175.155 211.326 175.948 210.372 176.505C209.418 177.062 208.336 177.365 207.23 177.384C206.124 177.403 205.031 177.137 204.059 176.612C202.109 175.55 199.922 174.991 197.699 174.985H197.694C197.509 174.985 197.326 175.022 197.155 175.092C196.984 175.163 196.829 175.266 196.698 175.396C196.567 175.526 196.464 175.681 196.393 175.851C196.322 176.021 196.286 176.204 196.286 176.388V199.47H250.17C251.055 199.47 251.904 199.12 252.53 198.497C253.156 197.874 253.507 197.029 253.507 196.147V142.503H230.322Z" fill="url(#paint11_radial_106_669)"/>
<path d="M237.083 108.327C238.929 109.002 245.164 111.914 248.942 112.62C248.942 112.62 242.331 116.771 240.099 118.307C237.867 119.843 236.696 128.151 233.875 132.63C231.054 137.108 229.853 140.108 231.318 141.462C232.782 142.816 233.625 142.662 233.625 142.662C233.625 142.662 231.884 145.685 233.338 148.249C234.293 149.932 237.232 150.485 239.917 150.724C242.603 150.964 252.534 153.573 254.79 154.783C256.968 156.06 259.357 156.944 261.844 157.393C261.844 157.393 271.335 166.555 278.183 168.426C283.009 169.745 289.606 169.266 296.787 171.861C296.811 171.137 296.853 170.398 296.928 169.634C298.144 157.241 305.755 143.961 314.662 137.9C306.621 131.247 296.354 121.892 289.733 112.663C289.733 112.663 286.916 110.768 285.117 109.695C283.318 108.623 284.672 106.704 278.929 104.469C277.012 103.723 275.461 103.725 274.45 103.345C272.433 102.585 271.963 101.759 270.807 100.625C270.807 100.625 268.426 99.7917 267.812 98.8198C267.406 98.1611 266.819 97.6314 266.121 97.2926C265.423 96.9538 264.642 96.82 263.87 96.9068C263.353 97.0085 262.879 97.2656 262.513 97.6436C262.146 98.0215 261.905 98.5022 261.822 99.0208C260.313 98.4031 258.771 97.8693 257.202 97.4219C255.74 97.0968 252.692 94.4596 251.424 93.2679C250.156 92.0762 246.856 91.7433 246.21 93.5727C245.564 95.4022 247.362 99.3398 250.329 101.463C248.507 101.496 246.688 101.314 244.91 100.92C241.543 100.246 240.84 100.644 238.414 100.019C237.281 99.7931 236.204 99.3493 235.243 98.7122C234.134 98.1839 230.275 96.8325 229.339 100.121C228.402 103.409 231.572 105.276 232.215 105.529C232.857 105.782 235.238 107.653 237.083 108.327ZM253.585 125.459C253.585 125.459 256.459 125.933 256.996 125.448C256.996 125.448 257.369 130.372 258.972 132.448C260.576 134.523 256.334 138.56 254.108 139.042C251.882 139.524 249.7 139.881 244.623 138.552C243.754 138.38 242.873 138.28 241.987 138.255C242.439 137.3 242.975 136.387 243.589 135.527C244.217 134.812 247.051 131.469 247.607 128.3C247.607 128.3 252.793 127.144 253.585 125.459Z" fill="url(#paint12_radial_106_669)"/>
<path d="M278.427 166.063C274.295 164.61 265.359 158.035 261.844 157.394C261.844 157.394 271.335 166.555 278.183 168.426C281.841 169.425 286.515 169.391 291.69 170.445L289.576 167.148C289.576 167.148 282.558 167.515 278.427 166.063Z" fill="#CCBA96"/>
<path d="M252.754 126.335C253.101 126.117 253.387 125.816 253.585 125.459C253.585 125.459 253.756 125.487 254.018 125.522C251.349 124.723 249.869 121.551 249.869 121.551C249.695 123.954 252.748 126.33 252.754 126.335Z" fill="#CCBA96"/>
<path d="M256.996 125.448C256.996 125.448 257.048 126.13 257.195 127.092L257.195 127.092C257.575 125.036 257.498 122.922 256.971 120.898C256.95 122.513 256.692 124.116 256.204 125.656C256.483 125.665 256.758 125.593 256.996 125.448Z" fill="#CCBA96"/>
<path d="M247.363 129.279C247.465 128.958 247.546 128.631 247.607 128.3C247.607 128.3 248.057 128.198 248.705 128.016C246.028 127.914 243.445 127.01 241.294 125.42C242.867 127.3 244.988 128.648 247.363 129.279Z" fill="#CCBA96"/>
<g opacity="0.52">
<path opacity="0.52" d="M242.756 138.278C243.127 138.365 243.505 138.415 243.886 138.429C243.537 138.374 243.122 138.315 242.756 138.278Z" fill="#E28C61"/>
</g>
<path d="M243.05 136.294C243.05 136.294 234.757 139.05 233.625 142.662C234.579 141.401 235.789 140.354 237.176 139.589C238.563 138.823 240.097 138.357 241.677 138.221L242.018 138.192C242.134 137.955 242.591 137.039 243.05 136.294L243.05 136.294Z" fill="#CCBA96"/>
<path d="M246.6 112.018C246.6 112.018 259.558 107.068 261.049 106.618L248.942 112.62L246.6 112.018Z" fill="#CCBA96"/>
<path d="M247.77 98.8306C248.468 99.8447 249.334 100.735 250.329 101.463C249.489 101.487 248.648 101.451 247.812 101.357L247.812 101.36L252.792 101.989C250.805 101.536 249.034 100.422 247.77 98.8306Z" fill="#CCBA96"/>
<path d="M262.521 99.4899C261.773 99.1285 262.15 98.1863 262.244 97.9792C262.038 98.2965 261.895 98.6499 261.822 99.0207C261.822 99.0207 261.151 98.7505 260.287 98.4276C260.964 98.6777 262.521 99.4899 262.521 99.4899Z" fill="#CCBA96"/>
<path d="M233.625 142.662C234.994 141.062 236.76 139.849 238.748 139.142C240.736 138.436 242.876 138.262 244.952 138.637C243.603 138.257 242.224 137.994 240.83 137.85C239.474 138.209 238.187 138.785 237.017 139.554C236.265 140.008 235.548 140.516 234.871 141.075L233.625 142.662Z" fill="#CCBA96"/>
<path d="M294.077 142.558C294.077 142.558 282.761 155.151 286.685 167.542L291.628 167.497L294.077 142.558Z" fill="#CCBA96"/>
<path d="M306.158 130.779C309.992 129.046 313.342 129.234 315.846 130.948L315.85 130.942L321.371 134.881C320.222 135.125 319.104 135.494 318.037 135.982C307.747 140.633 298.296 155.699 296.928 169.634C296.562 172.771 296.754 175.948 297.494 179.019L291.888 175.021L291.89 175.018C288.591 172.606 286.837 167.456 287.522 160.488C288.729 148.186 297.073 134.885 306.158 130.779Z" fill="white"/>
<g style="mix-blend-mode:lighten">
<path style="mix-blend-mode:lighten" d="M365.002 162.461L365.003 162.459L364.98 162.443C364.958 162.426 364.935 162.411 364.913 162.395L329.015 136.167L329.011 136.174C326.174 134.232 322.38 134.019 318.037 135.982C307.747 140.633 298.296 155.699 296.928 169.633C296.153 177.526 298.139 183.36 301.876 186.092L301.874 186.095L337.419 212.066C337.448 212.087 337.478 212.107 337.507 212.128L337.822 212.353L337.826 212.346C340.654 214.24 344.42 214.432 348.725 212.487C359.015 207.836 368.466 192.769 369.834 178.835C370.601 171.024 368.664 165.228 365.002 162.461Z" fill="url(#paint13_linear_106_669)"/>
</g>
<path d="M137.785 105.529C138.428 105.276 141.598 103.409 140.661 100.121C139.725 96.8326 135.866 98.1838 134.757 98.7123C133.796 99.3493 132.719 99.7931 131.586 100.019C129.16 100.644 128.456 100.246 125.09 100.92C123.312 101.314 121.493 101.496 119.671 101.463C122.638 99.3398 124.436 95.4022 123.79 93.5727C123.143 91.7432 119.844 92.0762 118.576 93.2679C117.307 94.4596 114.26 97.0968 112.798 97.4219C111.229 97.8693 109.687 98.4031 108.178 99.0208C108.095 98.5022 107.854 98.0216 107.487 97.6436C107.121 97.2656 106.647 97.0085 106.13 96.9068C105.358 96.82 104.577 96.9539 103.879 97.2926C103.181 97.6314 102.594 98.1611 102.188 98.8198C101.574 99.7916 99.1931 100.625 99.1931 100.625C98.0365 101.758 97.5669 102.585 95.5499 103.345C94.539 103.725 92.9885 103.723 91.0712 104.469C85.3281 106.704 86.6816 108.623 84.8829 109.695C83.0843 110.768 80.2673 112.663 80.2673 112.663C73.6462 121.892 63.3786 131.247 55.3377 137.9C64.245 143.961 71.8556 157.241 73.0723 169.634C73.1473 170.398 73.1887 171.137 73.2129 171.861C80.3941 169.266 86.9908 169.745 91.8169 168.426C98.665 166.555 108.156 157.393 108.156 157.393C110.643 156.944 113.032 156.06 115.21 154.783C117.466 153.573 127.397 150.964 130.083 150.724C132.768 150.485 135.707 149.932 136.662 148.249C138.116 145.685 136.375 142.662 136.375 142.662C136.375 142.662 137.218 142.816 138.682 141.462C140.147 140.108 138.946 137.108 136.125 132.63C133.304 128.151 132.133 119.843 129.901 118.307C127.669 116.771 121.058 112.62 121.058 112.62C124.836 111.914 131.071 109.002 132.917 108.327C134.762 107.653 137.143 105.782 137.785 105.529ZM122.393 128.3C122.949 131.469 125.783 134.812 126.411 135.527C127.025 136.387 127.561 137.3 128.013 138.255C127.127 138.28 126.246 138.38 125.377 138.552C120.3 139.881 118.118 139.524 115.892 139.042C113.666 138.56 109.424 134.523 111.028 132.448C112.632 130.372 113.004 125.448 113.004 125.448C113.541 125.933 116.415 125.459 116.415 125.459C117.207 127.144 122.393 128.3 122.393 128.3Z" fill="url(#paint14_radial_106_669)"/>
<path d="M91.5733 166.063C95.7048 164.61 104.641 158.035 108.156 157.394C108.156 157.394 98.6649 166.555 91.8169 168.426C88.1593 169.425 83.485 169.391 78.3101 170.445L80.4237 167.148C80.4237 167.148 87.4419 167.515 91.5733 166.063Z" fill="#CCBA96"/>
<path d="M117.246 126.335C116.899 126.117 116.613 125.816 116.415 125.459C116.415 125.459 116.244 125.487 115.982 125.522C118.651 124.723 120.131 121.551 120.131 121.551C120.305 123.954 117.252 126.33 117.246 126.335Z" fill="#CCBA96"/>
<path d="M113.004 125.448C113.004 125.448 112.952 126.13 112.805 127.092L112.805 127.092C112.425 125.036 112.502 122.922 113.029 120.898C113.05 122.513 113.308 124.116 113.796 125.656C113.517 125.665 113.242 125.593 113.004 125.448Z" fill="#CCBA96"/>
<path d="M122.637 129.279C122.535 128.958 122.454 128.631 122.393 128.3C122.393 128.3 121.943 128.198 121.295 128.016C123.972 127.914 126.555 127.01 128.706 125.42C127.133 127.3 125.012 128.648 122.637 129.279Z" fill="#CCBA96"/>
<g opacity="0.52">
<path opacity="0.52" d="M127.244 138.278C126.873 138.365 126.495 138.415 126.114 138.429C126.463 138.374 126.878 138.315 127.244 138.278Z" fill="#E28C61"/>
</g>
<path d="M126.95 136.294C126.95 136.294 135.243 139.05 136.375 142.662C135.421 141.401 134.211 140.354 132.824 139.589C131.436 138.823 129.903 138.357 128.323 138.221L127.982 138.192C127.866 137.955 127.409 137.039 126.95 136.294L126.95 136.294Z" fill="#CCBA96"/>
<path d="M123.4 112.018C123.4 112.018 110.442 107.068 108.951 106.618L121.058 112.62L123.4 112.018Z" fill="#CCBA96"/>
<path d="M122.23 98.8306C121.532 99.8448 120.666 100.735 119.671 101.463C120.511 101.487 121.352 101.451 122.188 101.357L122.188 101.36L117.208 101.989C119.194 101.536 120.966 100.422 122.23 98.8306Z" fill="#CCBA96"/>
<path d="M107.479 99.4899C108.227 99.1285 107.85 98.1863 107.756 97.9792C107.962 98.2965 108.105 98.6499 108.178 99.0207C108.178 99.0207 108.849 98.7505 109.713 98.4276C109.036 98.6777 107.479 99.4899 107.479 99.4899Z" fill="#CCBA96"/>
<path d="M136.375 142.662C135.006 141.062 133.24 139.849 131.252 139.142C129.264 138.436 127.124 138.262 125.048 138.637C126.397 138.257 127.776 137.994 129.17 137.85C130.526 138.209 131.813 138.785 132.983 139.554C133.735 140.008 134.452 140.516 135.129 141.075L136.375 142.662Z" fill="#CCBA96"/>
<path d="M75.9235 142.558C75.9235 142.558 87.2392 155.151 83.3153 167.542L78.372 167.497L75.9235 142.558Z" fill="#CCBA96"/>
<path d="M63.8424 130.779C60.0083 129.046 56.6584 129.234 54.1538 130.948L54.1503 130.942L48.629 134.881C49.7776 135.125 50.8957 135.494 51.9629 135.982C62.2531 140.633 71.704 155.699 73.0721 169.634C73.4376 172.771 73.2461 175.948 72.5062 179.019L78.1116 175.021L78.1101 175.018C81.4089 172.606 83.1625 167.456 82.4784 160.488C81.2707 148.186 72.927 134.885 63.8424 130.779Z" fill="white"/>
<g style="mix-blend-mode:lighten">
<path style="mix-blend-mode:lighten" d="M4.99793 162.461L4.99709 162.459L5.01961 162.443C5.04172 162.426 5.06489 162.411 5.08714 162.395L40.9846 136.167L40.9886 136.174C43.8255 134.232 47.62 134.019 51.9629 135.982C62.2532 140.633 71.7041 155.699 73.0722 169.633C73.847 177.526 71.8608 183.36 68.1241 186.092L68.1257 186.095L32.5813 212.066C32.5523 212.087 32.5223 212.107 32.4931 212.128L32.178 212.353L32.1744 212.346C29.3456 214.24 25.5798 214.432 21.2753 212.487C10.9849 207.836 1.53407 192.77 0.165992 178.835C-0.600892 171.024 1.33577 165.228 4.99793 162.461Z" fill="url(#paint15_linear_106_669)"/>
</g>
<path d="M66.9396 96.5093L65.3044 98.1372L66.9396 99.7651L68.5748 98.1372L66.9396 96.5093Z" fill="#CCBA96"/>
<path d="M70.0598 93.4028L68.4246 95.0308L70.0598 96.6587L71.695 95.0308L70.0598 93.4028Z" fill="#CCBA96"/>
<path d="M69.7429 99.2998L68.1077 100.928L69.7429 102.556L71.3781 100.928L69.7429 99.2998Z" fill="#CCBA96"/>
<path d="M72.863 96.1937L71.2278 97.8215L72.8629 99.4495L74.4982 97.8216L72.863 96.1937Z" fill="#CCBA96"/>
<path d="M244.999 226.781H238.168V228.438H244.999V226.781Z" fill="#CCBA96"/>
<path opacity="0.6" d="M255.589 226.781H248.757V228.438H255.589V226.781Z" fill="#CCBA96"/>
<path opacity="0.4" d="M266.178 226.781H259.346V228.438H266.178V226.781Z" fill="#CCBA96"/>
<path opacity="0.2" d="M276.767 226.781H269.935V228.438H276.767V226.781Z" fill="#CCBA96"/>
<path opacity="0.9" d="M137.529 111.275H134.827V113.965H137.529V111.275Z" fill="#CCBA96"/>
<path d="M145.636 111.275H142.934V113.965H145.636V111.275Z" fill="#CCBA96"/>
<path opacity="0.8" d="M151.04 111.275H148.338V113.965H151.04V111.275Z" fill="#CCBA96"/>
<path opacity="0.7" d="M142.934 111.275H140.231V113.965H142.934V111.275Z" fill="#CCBA96"/>
<path opacity="0.6" d="M156.445 111.275H153.742V113.965H156.445V111.275Z" fill="#CCBA96"/>
<path opacity="0.4" d="M148.338 111.275H145.636V113.965H148.338V111.275Z" fill="#CCBA96"/>
<path opacity="0.3" d="M161.849 111.275H159.147V113.965H161.849V111.275Z" fill="#CCBA96"/>
<path opacity="0.2" d="M153.743 111.275H151.04V113.965H153.743V111.275Z" fill="#CCBA96"/>
<path opacity="0.1" d="M167.254 111.275H164.552V113.965H167.254V111.275Z" fill="#CCBA96"/>
<path d="M181.088 106.316V101.78L184.928 104.048L181.088 106.316Z" fill="#CCBA96"/>
<path d="M190.451 101.78V106.316L186.609 104.048L190.451 101.78Z" fill="#CCBA96"/>
<path opacity="0.6" d="M187.67 227.162C187.67 226.816 187.773 226.479 187.966 226.191C188.159 225.904 188.433 225.68 188.754 225.548C189.074 225.415 189.427 225.381 189.768 225.448C190.108 225.516 190.421 225.682 190.667 225.926C190.912 226.171 191.079 226.482 191.147 226.821C191.215 227.16 191.18 227.511 191.047 227.831C190.914 228.15 190.689 228.423 190.401 228.615C190.112 228.807 189.773 228.91 189.425 228.91C189.195 228.91 188.967 228.864 188.754 228.777C188.541 228.689 188.347 228.56 188.184 228.398C188.021 228.235 187.892 228.043 187.804 227.831C187.715 227.619 187.67 227.391 187.67 227.162Z" fill="#CCBA96"/>
<path d="M179.705 227.162C179.705 226.816 179.808 226.478 180 226.191C180.193 225.904 180.467 225.68 180.788 225.548C181.109 225.415 181.462 225.381 181.802 225.448C182.143 225.516 182.456 225.682 182.701 225.926C182.947 226.171 183.114 226.482 183.181 226.821C183.249 227.16 183.214 227.511 183.082 227.831C182.949 228.15 182.724 228.423 182.435 228.615C182.146 228.807 181.807 228.91 181.46 228.91C181.229 228.909 181.001 228.864 180.788 228.776C180.575 228.689 180.382 228.56 180.219 228.398C180.056 228.235 179.926 228.043 179.838 227.831C179.75 227.619 179.705 227.391 179.705 227.162Z" fill="#CCBA96"/>
<path opacity="0.3" d="M183.687 233.3C183.687 232.955 183.79 232.617 183.983 232.329C184.176 232.042 184.45 231.818 184.771 231.686C185.092 231.553 185.445 231.519 185.785 231.586C186.126 231.654 186.438 231.82 186.684 232.065C186.929 232.309 187.096 232.62 187.164 232.959C187.232 233.298 187.197 233.65 187.064 233.969C186.931 234.288 186.706 234.561 186.418 234.753C186.129 234.945 185.79 235.048 185.443 235.048C184.977 235.048 184.531 234.864 184.201 234.536C183.872 234.208 183.687 233.764 183.687 233.3Z" fill="#CCBA96"/>
<defs>
<radialGradient id="paint0_radial_106_669" cx="0" cy="0" r="1" gradientUnits="userSpaceOnUse" gradientTransform="translate(184.855 137.694) scale(138.31 137.694)">
<stop stop-color="#CCBA96"/>
<stop offset="0.30808" stop-color="#978B71"/>
<stop offset="1" stop-color="#161616"/>
</radialGradient>
<radialGradient id="paint1_radial_106_669" cx="0" cy="0" r="1" gradientUnits="userSpaceOnUse" gradientTransform="translate(183.453 137.694) scale(111.558 111.06)">
<stop offset="0.00124" stop-color="#CCBA96"/>
<stop offset="0.14644" stop-color="#A4967A"/>
<stop offset="0.35488" stop-color="#726957"/>
<stop offset="0.55138" stop-color="#4A453B"/>
<stop offset="0.73031" stop-color="#2E2B27"/>
<stop offset="0.88567" stop-color="#1C1C1A"/>
<stop offset="1" stop-color="#161616"/>
</radialGradient>
<radialGradient id="paint2_radial_106_669" cx="0" cy="0" r="1" gradientUnits="userSpaceOnUse" gradientTransform="translate(183.453 239.529) scale(66.4868 66.1904)">
<stop stop-color="#CCBA96"/>
<stop offset="0.14538" stop-color="#A4967A"/>
<stop offset="0.35408" stop-color="#726957"/>
<stop offset="0.55082" stop-color="#4A453B"/>
<stop offset="0.72998" stop-color="#2E2B27"/>
<stop offset="0.88553" stop-color="#1C1C1A"/>
<stop offset="1" stop-color="#161616"/>
</radialGradient>
<radialGradient id="paint3_radial_106_669" cx="0" cy="0" r="1" gradientUnits="userSpaceOnUse" gradientTransform="translate(187.363 208.717) rotate(180) scale(188.063 187.225)">
<stop stop-color="#CCBA96"/>
<stop offset="0.07566" stop-color="#A5977B"/>
<stop offset="0.16449" stop-color="#7F7560"/>
<stop offset="0.26045" stop-color="#5F5749"/>
<stop offset="0.36322" stop-color="#443F36"/>
<stop offset="0.4753" stop-color="#302D28"/>
<stop offset="0.60136" stop-color="#21201E"/>
<stop offset="0.75314" stop-color="#191818"/>
<stop offset="1" stop-color="#161616"/>
</radialGradient>
<radialGradient id="paint4_radial_106_669" cx="0" cy="0" r="1" gradientUnits="userSpaceOnUse" gradientTransform="translate(554860 721864) scale(52699.3 30290.4)">
<stop stop-color="#CCBA96"/>
<stop offset="0.07566" stop-color="#A5977B"/>
<stop offset="0.16449" stop-color="#7F7560"/>
<stop offset="0.26045" stop-color="#5F5749"/>
<stop offset="0.36322" stop-color="#443F36"/>
<stop offset="0.4753" stop-color="#302D28"/>
<stop offset="0.60136" stop-color="#21201E"/>
<stop offset="0.75314" stop-color="#191818"/>
<stop offset="1" stop-color="#161616"/>
</radialGradient>
<radialGradient id="paint5_radial_106_669" cx="0" cy="0" r="1" gradientUnits="userSpaceOnUse" gradientTransform="translate(121.187 135.92) rotate(-90) scale(155.4 156.096)">
<stop stop-color="#999999"/>
<stop offset="0.04609" stop-color="#8A8A8A"/>
<stop offset="0.17207" stop-color="#676767"/>
<stop offset="0.30546" stop-color="#494949"/>
<stop offset="0.44652" stop-color="#333333"/>
<stop offset="0.59868" stop-color="#222222"/>
<stop offset="0.76986" stop-color="#191919"/>
<stop offset="1" stop-color="#161616"/>
</radialGradient>
<radialGradient id="paint6_radial_106_669" cx="0" cy="0" r="1" gradientUnits="userSpaceOnUse" gradientTransform="translate(16154.1 20446.8) scale(12556.5 12500.5)">
<stop stop-color="#CCBA96"/>
<stop offset="0.14538" stop-color="#A4967A"/>
<stop offset="0.35408" stop-color="#726957"/>
<stop offset="0.55082" stop-color="#4A453B"/>
<stop offset="0.72998" stop-color="#2E2B27"/>
<stop offset="0.88553" stop-color="#1C1C1A"/>
<stop offset="1" stop-color="#161616"/>
</radialGradient>
<radialGradient id="paint7_radial_106_669" cx="0" cy="0" r="1" gradientUnits="userSpaceOnUse" gradientTransform="translate(40492.4 20446.8) scale(12556.5 12500.5)">
<stop stop-color="#CCBA96"/>
<stop offset="0.14538" stop-color="#A4967A"/>
<stop offset="0.35408" stop-color="#726957"/>
<stop offset="0.55082" stop-color="#4A453B"/>
<stop offset="0.72998" stop-color="#2E2B27"/>
<stop offset="0.88553" stop-color="#1C1C1A"/>
<stop offset="1" stop-color="#161616"/>
</radialGradient>
<linearGradient id="paint8_linear_106_669" x1="226.227" y1="170.835" x2="294.347" y2="170.835" gradientUnits="userSpaceOnUse">
<stop stop-color="#999999"/>
<stop offset="0.23272" stop-color="#6B6B6B"/>
<stop offset="0.45889" stop-color="#464646"/>
<stop offset="0.66834" stop-color="#2C2C2C"/>
<stop offset="0.85502" stop-color="#1C1C1C"/>
<stop offset="1" stop-color="#161616"/>
</linearGradient>
<linearGradient id="paint9_linear_106_669" x1="-26382.5" y1="9457.53" x2="-30789.1" y2="9457.53" gradientUnits="userSpaceOnUse">
<stop stop-color="#999999"/>
<stop offset="0.23272" stop-color="#6B6B6B"/>
<stop offset="0.45889" stop-color="#464646"/>
<stop offset="0.66834" stop-color="#2C2C2C"/>
<stop offset="0.85502" stop-color="#1C1C1C"/>
<stop offset="1" stop-color="#161616"/>
</linearGradient>
<radialGradient id="paint10_radial_106_669" cx="0" cy="0" r="1" gradientUnits="userSpaceOnUse" gradientTransform="translate(181.414 118.161) scale(78.2764 77.9274)">
<stop stop-color="#999999"/>
<stop offset="0.45391" stop-color="#B2A998"/>
<stop offset="1" stop-color="#CCBA96"/>
</radialGradient>
<radialGradient id="paint11_radial_106_669" cx="0" cy="0" r="1" gradientUnits="userSpaceOnUse" gradientTransform="translate(204.153 138.43) scale(67.4155 67.1149)">
<stop stop-color="white"/>
<stop offset="0.28671" stop-color="#E6E6E6"/>
<stop offset="0.89469" stop-color="#A5A5A5"/>
<stop offset="1" stop-color="#999999"/>
</radialGradient>
<radialGradient id="paint12_radial_106_669" cx="0" cy="0" r="1" gradientUnits="userSpaceOnUse" gradientTransform="translate(232.156 109.894) scale(94.8471 94.4242)">
<stop offset="0.00134" stop-color="white"/>
<stop offset="0.23536" stop-color="#FEFDFC"/>
<stop offset="0.41088" stop-color="#F9F7F2"/>
<stop offset="0.56733" stop-color="#F1ECE2"/>
<stop offset="0.71259" stop-color="#E6DDCB"/>
<stop offset="0.84894" stop-color="#D8CAAE"/>
<stop offset="0.94114" stop-color="#CCBA96"/>
</radialGradient>
<linearGradient id="paint13_linear_106_669" x1="287.499" y1="139.016" x2="333.014" y2="174.265" gradientUnits="userSpaceOnUse">
<stop stop-color="#999999"/>
<stop offset="1" stop-color="#161616"/>
</linearGradient>
<radialGradient id="paint14_radial_106_669" cx="0" cy="0" r="1" gradientUnits="userSpaceOnUse" gradientTransform="translate(10659 9439.63) scale(5667.45 5274.92)">
<stop offset="0.00134" stop-color="white"/>
<stop offset="0.23536" stop-color="#FEFDFC"/>
<stop offset="0.41088" stop-color="#F9F7F2"/>
<stop offset="0.56733" stop-color="#F1ECE2"/>
<stop offset="0.71259" stop-color="#E6DDCB"/>
<stop offset="0.84894" stop-color="#D8CAAE"/>
<stop offset="0.94114" stop-color="#CCBA96"/>
</radialGradient>
<linearGradient id="paint15_linear_106_669" x1="-30924.5" y1="10643" x2="-34283.3" y2="13036.2" gradientUnits="userSpaceOnUse">
<stop stop-color="#999999"/>
<stop offset="1" stop-color="#161616"/>
</linearGradient>
</defs>
</svg>
