<svg width="355" height="292" viewBox="0 0 355 292" fill="none" xmlns="http://www.w3.org/2000/svg">
<path d="M353.808 196.254L335.137 185.801C330.948 183.457 327.266 178.294 325.973 172.955L309.804 106.151C307.893 98.2527 301.541 92.5554 297.037 92.3816C294.782 92.2898 293.169 93.5261 292.383 95.9431L287.512 110.914C287.301 111.693 286.915 112.413 286.382 113.019C285.85 113.625 285.185 114.1 284.439 114.409C282.695 115.08 280.498 114.734 278.253 113.436L274.882 111.49C270.918 109.203 267.442 104.438 266.026 99.3533C263.898 91.7087 257.982 86.5857 253.724 86.2244C252.754 86.1024 251.771 86.3062 250.929 86.8036C250.088 87.301 249.435 88.0639 249.074 88.9724L243.729 100.3C243.448 100.948 243.033 101.529 242.511 102.004C241.989 102.48 241.372 102.838 240.701 103.057C239.697 103.292 238.655 103.319 237.64 103.134C236.625 102.95 235.658 102.559 234.801 101.985L230.941 99.7585C226.707 97.3132 223.055 92.0593 221.851 86.6843L205.693 14.5212C203.921 6.60517 197.591 0.755573 193.017 0.456773C191.964 0.363746 190.913 0.644836 190.048 1.25057C189.183 1.8563 188.559 2.74784 188.286 3.76827L162.046 75.4705C161.813 76.2097 161.416 76.8871 160.886 77.4526C160.356 78.0182 159.706 78.4574 158.983 78.738C157.252 79.3689 155.083 79.0115 152.876 77.7351L139.606 70.074L139.829 69.6892L153.099 77.3503C155.189 78.5564 157.227 78.9031 158.831 78.3191C159.492 78.0601 160.087 77.6559 160.571 77.1366C161.055 76.6172 161.416 75.9957 161.628 75.3181L187.868 3.61597C188.175 2.50521 188.86 1.53672 189.806 0.878515C190.752 0.22031 191.898 -0.0860876 193.046 0.0124727C197.776 0.321973 204.314 6.31617 206.129 14.4236L222.286 86.5867C223.445 91.7654 227.096 97.0232 231.164 99.3718L235.023 101.599C235.828 102.142 236.735 102.513 237.689 102.691C238.643 102.868 239.623 102.849 240.568 102.633C241.18 102.431 241.742 102.102 242.218 101.668C242.693 101.233 243.071 100.703 243.326 100.111L248.672 88.783C249.076 87.7954 249.792 86.9673 250.711 86.4251C251.63 85.8828 252.701 85.6562 253.761 85.78C258.169 86.1541 264.275 91.405 266.456 99.2341C267.82 104.135 271.296 108.906 275.105 111.104L278.476 113.051C280.603 114.278 282.662 114.614 284.28 113.993C284.963 113.707 285.571 113.268 286.058 112.71C286.545 112.152 286.897 111.49 287.088 110.775L291.959 95.8044C292.801 93.2166 294.624 91.8591 297.054 91.9363C301.815 92.1199 308.249 97.8328 310.237 106.046L326.406 172.849C327.672 178.076 331.268 183.125 335.354 185.413L354.024 195.865L353.808 196.254Z" fill="#CCBA96"/>
<path d="M339.64 204.396L320.97 193.944C316.78 191.598 313.098 186.435 311.806 181.097L295.636 114.294C293.725 106.395 287.373 100.698 282.87 100.524C280.601 100.444 279.001 101.67 278.215 104.086L273.345 119.056C273.134 119.835 272.748 120.555 272.216 121.161C271.683 121.767 271.019 122.243 270.273 122.551C268.526 123.222 266.33 122.877 264.085 121.579L260.714 119.634C256.811 117.379 253.252 112.502 251.858 107.497C249.731 99.8512 243.815 94.7282 239.556 94.3668C238.586 94.2459 237.604 94.4502 236.762 94.9475C235.921 95.4448 235.269 96.207 234.907 97.1149L229.561 108.443C229.28 109.091 228.865 109.671 228.344 110.147C227.822 110.622 227.205 110.981 226.534 111.2C225.53 111.435 224.487 111.461 223.472 111.277C222.457 111.093 221.49 110.701 220.633 110.128L216.774 107.901C212.541 105.457 208.888 100.203 207.683 94.8278L191.526 22.6647C189.754 14.7487 183.423 8.89807 178.849 8.59927C177.797 8.50736 176.746 8.7889 175.881 9.39446C175.016 10 174.392 10.8909 174.118 11.9108L147.878 83.6139C147.645 84.3531 147.248 85.0305 146.718 85.5961C146.188 86.1617 145.538 86.6009 144.815 86.8815C143.087 87.5104 140.916 87.154 138.709 85.8776L125.439 78.2174L125.661 77.8317L138.932 85.4918C141.023 86.6999 143.056 87.0417 144.664 86.4625C145.325 86.2032 145.919 85.799 146.403 85.2797C146.887 84.7603 147.248 84.139 147.46 83.4616L173.7 11.7584C174.008 10.6483 174.693 9.6805 175.639 9.02248C176.584 8.36447 177.73 8.05757 178.878 8.15487C183.609 8.46447 190.147 14.4596 191.962 22.567L208.118 94.7301C209.278 99.9098 212.93 105.167 216.997 107.514L220.856 109.742C221.661 110.283 222.568 110.654 223.522 110.832C224.475 111.01 225.455 110.99 226.401 110.775C227.013 110.574 227.575 110.245 228.051 109.81C228.526 109.376 228.903 108.845 229.158 108.254L234.505 96.9254C234.911 95.9392 235.627 95.1123 236.546 94.5703C237.464 94.0284 238.534 93.8009 239.594 93.9225C244.001 94.2975 250.108 99.5475 252.288 107.378C253.652 112.278 257.128 117.048 260.937 119.249L264.308 121.193C266.435 122.421 268.497 122.754 270.113 122.136C270.796 121.85 271.404 121.411 271.891 120.853C272.378 120.295 272.73 119.633 272.921 118.918L277.791 103.947C278.634 101.359 280.468 99.985 282.887 100.079C287.648 100.262 294.081 105.976 296.069 114.188L312.239 180.992C313.504 186.217 317.1 191.266 321.187 193.555L339.856 204.007L339.64 204.396Z" fill="#CCBA96"/>
<path d="M190.25 0.586326L175.969 8.80664L176.192 9.19336L190.472 0.97305L190.25 0.586326Z" fill="#CCBA96"/>
<path d="M250.683 86.4449L236.227 94.7703L236.45 95.157L250.906 86.8316L250.683 86.4449Z" fill="#CCBA96"/>
<path d="M280.018 101.35L279.795 100.963L294.858 92.3191L295.081 92.7061L280.018 101.35Z" fill="#CCBA96"/>
<path d="M353.808 196.254L335.137 185.801C330.948 183.457 327.266 178.294 325.973 172.955L309.804 106.151C307.893 98.2527 301.541 92.5554 297.037 92.3816C294.782 92.2898 293.169 93.5261 292.383 95.9431L287.512 110.914C287.301 111.693 286.915 112.413 286.382 113.019C285.85 113.625 285.185 114.1 284.439 114.409C282.695 115.08 280.498 114.734 278.253 113.436L274.882 111.49C270.918 109.203 267.442 104.438 266.026 99.3533C263.898 91.7087 257.982 86.5857 253.724 86.2244C252.754 86.1024 251.771 86.3062 250.929 86.8036C250.088 87.301 249.435 88.0639 249.074 88.9724L243.729 100.3C243.448 100.948 243.033 101.529 242.511 102.004C241.989 102.48 241.372 102.838 240.701 103.057C239.697 103.292 238.655 103.319 237.64 103.134C236.625 102.95 235.658 102.559 234.801 101.985L230.941 99.7585C226.707 97.3132 223.055 92.0593 221.851 86.6843L205.693 14.5212C203.921 6.60517 197.591 0.755573 193.017 0.456773C191.964 0.363746 190.913 0.644836 190.048 1.25057C189.183 1.8563 188.559 2.74784 188.286 3.76827L162.046 75.4705C161.813 76.2097 161.416 76.8871 160.886 77.4526C160.356 78.0182 159.706 78.4574 158.983 78.738C157.252 79.3689 155.083 79.0115 152.876 77.7351L139.606 70.074L139.829 69.6892L153.099 77.3503C155.189 78.5564 157.227 78.9031 158.831 78.3191C159.492 78.0601 160.087 77.6559 160.571 77.1366C161.055 76.6172 161.416 75.9957 161.628 75.3181L187.868 3.61597C188.175 2.50521 188.86 1.53672 189.806 0.878515C190.752 0.22031 191.898 -0.0860876 193.046 0.0124727C197.776 0.321973 204.314 6.31617 206.129 14.4236L222.286 86.5867C223.445 91.7654 227.096 97.0232 231.164 99.3718L235.023 101.599C235.828 102.142 236.735 102.513 237.689 102.691C238.643 102.868 239.623 102.849 240.568 102.633C241.18 102.431 241.742 102.102 242.218 101.668C242.693 101.233 243.071 100.703 243.326 100.111L248.672 88.783C249.076 87.7954 249.792 86.9673 250.711 86.4251C251.63 85.8828 252.701 85.6562 253.761 85.78C258.169 86.1541 264.275 91.405 266.456 99.2341C267.82 104.135 271.296 108.906 275.105 111.104L278.476 113.051C280.603 114.278 282.662 114.614 284.28 113.993C284.963 113.707 285.571 113.268 286.058 112.71C286.545 112.152 286.897 111.49 287.088 110.775L291.959 95.8044C292.801 93.2166 294.624 91.8591 297.054 91.9363C301.815 92.1199 308.249 97.8328 310.237 106.046L326.406 172.849C327.672 178.076 331.268 183.125 335.354 185.413L354.024 195.865L353.808 196.254Z" fill="#CCBA96"/>
<path d="M339.64 204.396L320.97 193.944C316.78 191.598 313.098 186.435 311.806 181.097L295.636 114.294C293.725 106.395 287.373 100.698 282.87 100.524C280.601 100.444 279.001 101.67 278.215 104.086L273.345 119.056C273.134 119.835 272.748 120.555 272.216 121.161C271.683 121.767 271.019 122.243 270.273 122.551C268.526 123.222 266.33 122.877 264.085 121.579L260.714 119.634C256.811 117.379 253.252 112.502 251.858 107.497C249.731 99.8512 243.815 94.7282 239.556 94.3668C238.586 94.2459 237.604 94.4502 236.762 94.9475C235.921 95.4448 235.269 96.207 234.907 97.1149L229.561 108.443C229.28 109.091 228.865 109.671 228.344 110.147C227.822 110.622 227.205 110.981 226.534 111.2C225.53 111.435 224.487 111.461 223.472 111.277C222.457 111.093 221.49 110.701 220.633 110.128L216.774 107.901C212.541 105.457 208.888 100.203 207.683 94.8278L191.526 22.6647C189.754 14.7487 183.423 8.89807 178.849 8.59927C177.797 8.50736 176.746 8.7889 175.881 9.39446C175.016 10 174.392 10.8909 174.118 11.9108L147.878 83.6139C147.645 84.3531 147.248 85.0305 146.718 85.5961C146.188 86.1617 145.538 86.6009 144.815 86.8815C143.087 87.5104 140.916 87.154 138.709 85.8776L125.439 78.2174L125.661 77.8317L138.932 85.4918C141.023 86.6999 143.056 87.0417 144.664 86.4625C145.325 86.2032 145.919 85.799 146.403 85.2797C146.887 84.7603 147.248 84.139 147.46 83.4616L173.7 11.7584C174.008 10.6483 174.693 9.6805 175.639 9.02248C176.584 8.36447 177.73 8.05757 178.878 8.15487C183.609 8.46447 190.147 14.4596 191.962 22.567L208.118 94.7301C209.278 99.9098 212.93 105.167 216.997 107.514L220.856 109.742C221.661 110.283 222.568 110.654 223.522 110.832C224.475 111.01 225.455 110.99 226.401 110.775C227.013 110.574 227.575 110.245 228.051 109.81C228.526 109.376 228.903 108.845 229.158 108.254L234.505 96.9254C234.911 95.9392 235.627 95.1123 236.546 94.5703C237.464 94.0284 238.534 93.8009 239.594 93.9225C244.001 94.2975 250.108 99.5475 252.288 107.378C253.652 112.278 257.128 117.048 260.937 119.249L264.308 121.193C266.435 122.421 268.497 122.754 270.113 122.136C270.796 121.85 271.404 121.411 271.891 120.853C272.378 120.295 272.73 119.633 272.921 118.918L277.791 103.947C278.634 101.359 280.468 99.985 282.887 100.079C287.648 100.262 294.081 105.976 296.069 114.188L312.239 180.992C313.504 186.217 317.1 191.266 321.187 193.555L339.856 204.007L339.64 204.396Z" fill="#CCBA96"/>
<path style="mix-blend-mode:lighten" opacity="0.5" d="M139.717 69.8813L152.988 77.5428C156.974 79.8443 160.524 78.9825 161.837 75.3947L188.077 3.69191C191.074 -4.49729 203.322 2.90641 205.911 14.4728L222.068 86.636C223.249 91.91 226.904 97.1697 231.053 99.565L234.912 101.793C238.662 103.958 242.051 103.334 243.527 100.205L248.873 88.8778C252.187 81.8563 263.23 88.4793 266.241 99.2941C267.63 104.283 271.111 109.056 274.993 111.298L278.364 113.244C282.452 115.604 286.068 114.633 287.3 110.844L292.17 95.8735C294.919 87.4234 307.203 94.4599 310.02 106.098L326.19 172.902C327.461 178.152 331.133 183.305 335.246 185.607L353.916 196.059L139.717 69.8813Z" fill="url(#paint0_linear_106_336)"/>
<path style="mix-blend-mode:lighten" opacity="0.5" d="M125.55 77.8183L138.82 85.4798C142.806 87.7813 146.356 86.9195 147.669 83.3316L173.91 11.6289C176.907 3.43972 189.154 10.8434 191.744 22.4098L207.901 94.573C209.082 99.847 212.737 105.107 216.885 107.502L220.744 109.73C224.494 111.895 227.883 111.271 229.36 108.142L234.706 96.8148C238.019 89.7933 249.062 96.4162 252.073 107.231H252.073C253.462 112.22 256.943 116.993 260.826 119.235L264.196 121.181C268.284 123.541 271.9 122.57 273.133 118.781L278.003 103.811C280.752 95.3604 293.036 102.397 295.853 114.035L312.022 180.839C313.293 186.089 316.966 191.242 321.078 193.544L339.748 203.996L125.55 77.8183Z" fill="url(#paint1_linear_106_336)"/>
<path d="M214.893 263.199C212.938 263.201 211.018 262.688 209.324 261.712L83.666 189.185C83.0251 188.815 82.4928 188.283 82.1224 187.643C81.752 187.002 81.5566 186.275 81.5557 185.535C81.5548 184.796 81.7485 184.068 82.1174 183.427C82.4862 182.785 83.0172 182.252 83.6572 181.881L160.952 137.003L161.057 137.063L292.194 212.752C292.835 213.122 293.368 213.654 293.738 214.294C294.108 214.935 294.304 215.662 294.305 216.402C294.306 217.142 294.112 217.869 293.743 218.511C293.374 219.152 292.843 219.686 292.203 220.057L220.485 261.697C218.786 262.682 216.857 263.2 214.893 263.199ZM209.533 261.35C211.168 262.29 213.021 262.784 214.907 262.781C216.792 262.779 218.644 262.28 220.276 261.336L291.994 219.696C292.571 219.361 293.049 218.88 293.381 218.302C293.713 217.724 293.888 217.069 293.887 216.402C293.886 215.735 293.71 215.08 293.376 214.503C293.042 213.926 292.563 213.446 291.985 213.113L160.952 137.485L83.8662 182.242C83.2897 182.577 82.8114 183.057 82.4793 183.635C82.1471 184.214 81.9727 184.869 81.9736 185.535C81.9745 186.202 82.1506 186.857 82.4843 187.434C82.8181 188.011 83.2976 188.491 83.875 188.824L209.533 261.35Z" fill="#CCBA96"/>
<path d="M224.326 227.579C224.326 228.26 224.124 228.924 223.746 229.49C223.368 230.056 222.831 230.496 222.203 230.757C221.574 231.017 220.883 231.085 220.215 230.952C219.548 230.82 218.935 230.492 218.454 230.011C217.973 229.53 217.646 228.917 217.513 228.25C217.38 227.583 217.449 226.891 217.709 226.263C217.969 225.635 218.41 225.097 218.976 224.719C219.541 224.342 220.206 224.14 220.887 224.14C221.338 224.14 221.785 224.229 222.203 224.402C222.62 224.575 222.999 224.828 223.319 225.147C223.638 225.467 223.891 225.846 224.064 226.263C224.237 226.68 224.326 227.128 224.326 227.579Z" fill="#383838"/>
<path d="M258.198 189.155C258.198 189.836 257.997 190.501 257.619 191.066C257.241 191.632 256.704 192.073 256.075 192.333C255.447 192.593 254.755 192.661 254.088 192.529C253.421 192.396 252.808 192.068 252.327 191.587C251.846 191.106 251.518 190.494 251.386 189.826C251.253 189.159 251.321 188.468 251.581 187.839C251.842 187.211 252.283 186.674 252.848 186.296C253.414 185.918 254.079 185.716 254.759 185.716C255.211 185.716 255.658 185.805 256.075 185.978C256.492 186.151 256.872 186.404 257.191 186.723C257.51 187.043 257.764 187.422 257.937 187.839C258.109 188.257 258.198 188.704 258.198 189.155Z" fill="#383838"/>
<path d="M265.598 215.415C265.598 216.095 265.396 216.76 265.019 217.325C264.641 217.891 264.103 218.332 263.475 218.592C262.847 218.852 262.155 218.92 261.488 218.788C260.821 218.655 260.208 218.327 259.727 217.846C259.246 217.365 258.918 216.753 258.786 216.085C258.653 215.418 258.721 214.727 258.981 214.098C259.242 213.47 259.682 212.933 260.248 212.555C260.814 212.177 261.479 211.975 262.159 211.975C262.61 211.975 263.058 212.064 263.475 212.237C263.892 212.41 264.271 212.663 264.591 212.982C264.91 213.302 265.164 213.681 265.336 214.098C265.509 214.516 265.598 214.963 265.598 215.415Z" fill="#383838"/>
<path d="M191.287 208.932C191.287 209.612 191.085 210.277 190.707 210.843C190.33 211.408 189.792 211.849 189.164 212.11C188.535 212.37 187.844 212.438 187.177 212.305C186.51 212.173 185.897 211.845 185.416 211.364C184.935 210.883 184.607 210.27 184.475 209.603C184.342 208.936 184.41 208.244 184.67 207.616C184.931 206.987 185.371 206.45 185.937 206.072C186.503 205.694 187.167 205.493 187.848 205.493C188.299 205.493 188.747 205.582 189.164 205.754C189.581 205.927 189.96 206.181 190.28 206.5C190.599 206.819 190.853 207.199 191.025 207.616C191.198 208.033 191.287 208.48 191.287 208.932Z" fill="#383838"/>
<path d="M212.549 185.698C212.549 186.378 212.347 187.043 211.969 187.609C211.591 188.175 211.054 188.615 210.426 188.876C209.797 189.136 209.106 189.204 208.438 189.072C207.771 188.939 207.158 188.611 206.677 188.13C206.196 187.649 205.869 187.036 205.736 186.369C205.603 185.702 205.671 185.01 205.932 184.382C206.192 183.754 206.633 183.216 207.198 182.838C207.764 182.461 208.429 182.259 209.109 182.259C210.021 182.259 210.896 182.621 211.541 183.266C212.186 183.911 212.549 184.786 212.549 185.698Z" fill="#383838"/>
<path d="M225.77 198.436L187.96 205.718C187.803 205.733 187.648 205.757 187.495 205.789L187.529 205.539L185.711 205.08V207.225L185.719 207.226C185.715 207.312 185.724 207.397 185.744 207.479C185.974 208.319 187.34 208.891 188.794 208.759L226.604 201.476L225.77 198.436Z" fill="url(#paint2_linear_106_336)"/>
<path d="M257.439 185.466L256.288 186.436C255.712 186.225 255.099 186.14 254.488 186.186C253.877 186.232 253.283 186.407 252.745 186.701L225.816 198.422L229.586 200.599L256.515 188.877C256.769 188.769 256.989 188.593 257.15 188.367C257.311 188.142 257.407 187.877 257.427 187.601L257.439 187.606V185.466Z" fill="url(#paint3_linear_106_336)"/>
<path d="M211.659 182.849C211.167 182.444 210.58 182.169 209.953 182.052C209.326 181.934 208.679 181.977 208.074 182.177C207.926 182.22 207.782 182.274 207.642 182.337C207.576 182.227 207.498 182.124 207.41 182.032C207.164 181.819 206.899 181.63 206.619 181.466L206.618 183.602L206.627 183.595C206.643 183.838 206.742 184.068 206.909 184.247L224.289 200.114L229.039 198.717L211.659 182.849Z" fill="url(#paint4_linear_106_336)"/>
<path d="M264.642 211.779L264.003 212.004L263.637 212.765C263.491 212.699 263.34 212.643 263.186 212.598L229.076 198.738L226.656 201.481L260.765 215.34C261.371 215.54 262.017 215.583 262.644 215.465C263.271 215.348 263.858 215.073 264.351 214.668V214.668C264.532 214.475 264.632 214.219 264.629 213.954L264.641 213.964L264.642 211.779Z" fill="url(#paint5_linear_106_336)"/>
<path d="M224.297 200.144L218.696 224.142L218.277 223.928L218.276 226.146L218.285 226.136C218.36 226.84 219.268 227.445 220.525 227.56C221.979 227.693 223.344 227.12 223.575 226.281L229.563 200.625L224.297 200.144Z" fill="url(#paint6_linear_106_336)"/>
<path d="M263.186 210.461L231.551 197.607L256.515 186.741C257.633 186.095 257.755 185.118 256.786 184.558L256.524 184.407C255.926 184.136 255.272 184.009 254.616 184.036C253.96 184.063 253.319 184.244 252.745 184.564L227.78 195.431L211.659 180.713C211.167 180.307 210.58 180.033 209.953 179.915C209.326 179.798 208.679 179.84 208.074 180.04C206.762 180.426 206.24 181.353 206.909 182.11L223.029 196.827L187.96 203.582C186.506 203.715 185.514 204.503 185.744 205.343C185.974 206.182 187.34 206.755 188.794 206.622L223.863 199.867L218.309 223.663C218.079 224.502 219.071 225.291 220.525 225.424C221.979 225.557 223.344 224.984 223.575 224.144L229.129 200.349L260.765 213.204C261.371 213.403 262.017 213.446 262.644 213.329C263.271 213.211 263.858 212.937 264.351 212.531C265.019 211.774 264.497 210.847 263.186 210.461ZM228.16 197.639L227.571 198.307L226.289 198.189L226.086 197.449L227.242 197.109L228.16 197.639Z" fill="url(#paint7_linear_106_336)"/>
<path d="M227.07 199.607C226.338 199.607 225.636 199.317 225.119 198.799C224.602 198.282 224.311 197.58 224.311 196.849V164.91H229.828V196.849C229.828 197.211 229.757 197.57 229.618 197.905C229.48 198.239 229.276 198.543 229.02 198.799C228.764 199.056 228.46 199.259 228.125 199.397C227.791 199.536 227.432 199.607 227.07 199.607Z" fill="#383838"/>
<path d="M212.396 126.972L212.383 126.976C212.32 126.563 212.156 126.172 211.906 125.836C211.657 125.501 211.328 125.232 210.95 125.054L210.372 124.72C208.23 123.483 204.488 123.638 202.015 125.066L184.578 135.133C184.045 135.369 183.579 135.735 183.223 136.196C182.867 136.658 182.633 137.202 182.54 137.777L182.532 137.782V140.819L182.537 140.821C182.564 141.268 182.713 141.7 182.967 142.07C183.221 142.44 183.57 142.733 183.978 142.92L184.556 143.254C186.699 144.491 190.44 144.336 192.913 142.908L210.35 132.84C210.868 132.607 211.323 132.253 211.676 131.808C212.03 131.364 212.273 130.841 212.384 130.284L212.396 130.279V126.972Z" fill="url(#paint8_linear_106_336)"/>
<path d="M184.556 140.292L183.978 139.958C181.836 138.722 182.104 136.561 184.578 135.133L202.015 125.066C204.488 123.638 208.23 123.483 210.372 124.72L210.95 125.054C213.092 126.291 212.824 128.451 210.35 129.879L192.913 139.946C190.44 141.374 186.699 141.529 184.556 140.292Z" fill="url(#paint9_linear_106_336)"/>
<path d="M221.474 154.341L184.95 175.406C183.141 176.451 181.674 175.342 181.674 172.929C181.692 171.702 181.998 170.497 182.567 169.409C183.136 168.322 183.953 167.384 184.95 166.669L226.788 142.535V144.186C226.788 148.1 224.409 152.646 221.474 154.341Z" fill="#515151"/>
<path d="M224.163 64.3395L224.163 64.3412C223.411 63.9979 222.583 63.8576 221.761 63.9342C220.939 64.0108 220.151 64.3018 219.477 64.778L218.386 65.4078C214.347 67.7393 211.074 73.9942 211.074 79.3786V151.608L220.776 146.007V148.301L209.137 157.784L182.699 175.511L219.859 196.518L241.225 180.074L253.393 169.685L260.975 85.1566L224.163 64.3395Z" fill="url(#paint10_linear_106_336)"/>
<path d="M196.942 183.562C196.672 182.785 196.619 181.949 196.789 181.144C196.959 180.339 197.345 179.595 197.907 178.994C199.859 177.041 210.133 172.718 210.877 172.253C211.62 171.788 215.313 169.07 215.313 169.07L216.44 166.548C216.44 166.548 195.582 168.581 195.303 168.906C195.024 169.231 185.541 177.739 185.82 178.111C186.099 178.482 192.357 179.999 192.357 179.999L193.566 181.654L196.942 183.562Z" fill="#2D2D2D"/>
<path d="M256.471 85.6848L255.38 86.3145C251.342 88.646 248.068 94.901 248.068 100.285V172.507L221.944 187.576C220.947 188.29 220.131 189.229 219.562 190.316C218.993 191.403 218.687 192.609 218.668 193.836V193.836C218.668 196.249 220.135 197.358 221.944 196.313L258.468 175.248C261.403 173.553 263.783 169.007 263.783 165.093V91.2125C263.783 85.8281 260.509 83.3533 256.471 85.6848Z" fill="url(#paint11_linear_106_336)"/>
<path d="M187.059 199.208C187.059 199.208 181.679 202.66 179.859 204.695C178.04 206.731 174.435 210.894 175.919 212.878C177.402 214.862 182.409 215.971 187.791 211.015C193.172 206.059 191.644 205.764 196.226 203.308C200.808 200.852 202.072 198.178 201.521 196.65C200.969 195.121 198.704 192.418 197.469 193C196.233 193.582 187.059 199.208 187.059 199.208Z" fill="#D8D8D8"/>
<path d="M213.228 213.708C212.363 215.65 211.386 217.54 210.301 219.369C209.305 220.779 204.478 228.913 206.998 230.783C209.519 232.654 214.297 232.135 218.073 228.034C221.849 223.933 222.689 218.942 223.62 217.303C224.551 215.664 226.871 211.29 225.771 208.767C224.672 206.244 224.427 205.809 224.427 205.809L213.228 213.708Z" fill="#D8D8D8"/>
<path d="M193.689 153.176C193.689 153.176 177.701 168.952 175.08 176.874C174.792 178.213 174.821 179.601 175.166 180.927C175.511 182.253 176.161 183.48 177.064 184.51C180.155 187.868 186.717 198.841 186.717 198.841C186.717 198.841 191.616 204.766 197.94 200.028C197.94 200.028 200.8 195.459 199.042 192.421C197.284 189.383 192.607 179.679 192.607 179.679C192.607 179.679 202.86 172.624 207.921 170.843C210.568 169.946 213.16 168.891 215.682 167.684C214.849 171.128 213.271 174.348 211.059 177.116C207.358 181.775 201.159 189.259 203.222 194.468C204.531 197.948 206.278 201.248 208.421 204.287C210.362 207.284 212.195 213.539 213.849 214.189C215.504 214.84 223.148 215.589 224.388 210.611C225.628 205.632 221.78 195.956 220.047 192.684C220.047 192.684 240.725 168.827 242.693 166.205C244.662 163.583 200.088 149.13 193.689 153.176Z" fill="#383838"/>
<path d="M199.042 192.421C197.284 189.383 192.607 179.679 192.607 179.679C192.607 179.679 202.86 172.624 207.921 170.843C210.568 169.946 213.16 168.891 215.682 167.683C217.914 164.394 219.765 160.86 221.198 157.152C209.537 153.736 196.877 151.16 193.689 153.176C194.819 155.969 200.763 155.945 200.763 155.945C200.763 155.945 202.984 161.349 204.456 162.039C205.927 162.73 209.453 161.974 209.453 161.974C208.574 163.031 207.534 163.944 206.371 164.678C203.858 166.491 188.123 179.383 188.123 179.383C188.123 179.383 189.02 179.893 193.209 187.466C197.398 195.04 197.94 200.028 197.94 200.028C197.94 200.028 200.8 195.459 199.042 192.421Z" fill="#160A5B"/>
<path d="M234.388 161.547C225.143 160.665 214.378 160.586 216.801 165.441C217.962 167.809 219.709 169.842 221.875 171.347C224.04 172.852 226.554 173.78 229.179 174.043C229.126 177.068 216.44 191.678 216.44 191.678L219.396 197.427C222.353 203.176 221.982 213.643 221.982 213.643C222.577 213.34 223.1 212.912 223.515 212.389C223.931 211.866 224.228 211.259 224.388 210.611C225.628 205.632 221.78 195.956 220.047 192.684C220.047 192.684 240.725 168.827 242.693 166.205C243.277 165.428 239.773 163.612 234.388 161.547Z" fill="#160A5B"/>
<path d="M177.523 111.123L179.983 109.215C179.983 109.215 193.239 101.854 197.65 99.4688C200.111 97.98 202.347 96.1458 204.288 94.0224C205.145 93.134 206.173 92.4269 207.309 91.943C208.445 91.4591 209.666 91.2083 210.901 91.2054L234.126 91.0898C235.222 92.8933 236.43 94.6261 237.743 96.2777C238.413 96.905 244.716 102.187 249.237 106.536C251.738 108.939 253.556 111.963 254.504 115.3C257.091 124.421 257.053 142.8 257.445 155.943C255.622 156.564 253.759 157.057 251.867 157.417C247.916 158.261 248.404 157.721 248.404 157.721C248.404 157.721 242.477 171.054 234.439 172.342C226.401 173.63 215.569 169.87 213.637 157.248C213.637 157.248 197.964 154.9 193.714 153.155C193.622 153.118 193.54 153.061 193.474 152.987C193.408 152.914 193.36 152.826 193.333 152.731C193.307 152.636 193.303 152.536 193.321 152.439C193.339 152.342 193.38 152.251 193.439 152.172C195.334 149.656 202.401 139.906 203.074 133.552C203.851 126.208 203.613 115.548 203.03 112.634C203.03 112.634 191.211 117.087 187.443 117.876C187.443 117.876 173.055 133.688 167.045 137.991C167.045 137.991 169.103 134.755 164.968 132.557L177.523 111.123Z" fill="#DDDDDD"/>
<path d="M251.867 157.417C252.47 157.288 253.013 157.165 253.509 157.048L252.674 155.408L230.87 153.101L218.136 153.758L213.757 157.919C213.985 159.196 214.332 160.45 214.793 161.663C214.815 161.666 220.207 162.442 222.71 161.907C225.215 161.37 244.619 164.224 244.658 164.229C246.079 162.181 247.326 160.017 248.386 157.761C248.369 157.868 248.605 158.114 251.867 157.417Z" fill="#383838"/>
<path d="M222.441 149.801C222.431 149.761 222.408 149.727 222.376 149.702C222.344 149.676 222.305 149.662 222.265 149.661C221.214 149.635 214.401 149.434 211.825 148.545C209.936 147.865 207.91 147.65 205.92 147.92C205.769 148.082 201.119 150.056 200.841 150.858C200.595 151.57 200.148 154.038 200.765 154.95C201.101 155.436 201.405 155.945 201.673 156.472L202.158 156.523C202.446 157.1 202.773 157.657 203.137 158.19C203.289 158.381 203.417 158.591 203.518 158.814C203.812 159.449 204.328 160.496 204.542 160.519C205.239 160.659 205.947 160.734 206.658 160.742C206.957 160.665 207.226 159.751 207.103 159.348C207.094 159.324 207.09 159.299 207.092 159.273C207.094 159.247 207.101 159.223 207.115 159.201C207.128 159.178 207.145 159.159 207.167 159.145C207.188 159.131 207.213 159.122 207.238 159.119C208.877 158.879 210.54 158.842 212.188 159.011C215.219 159.289 219.504 157.307 219.892 157.124C219.911 157.115 219.933 157.109 219.954 157.108L224.228 156.722C224.257 156.719 224.285 156.71 224.309 156.696C224.334 156.681 224.355 156.661 224.372 156.637C224.388 156.614 224.398 156.587 224.403 156.558C224.407 156.53 224.405 156.501 224.397 156.473L222.441 149.801Z" fill="#E8D3AF"/>
<path d="M217.295 104.765C217.295 104.765 213.658 118.17 217.503 131.946C217.503 131.946 231.495 105.843 233.013 101.607C234.531 97.3712 235.082 94.363 233.664 92.8423C232.245 91.3216 219.605 99.1782 219.605 99.1782L217.295 104.765Z" fill="#F0F6FF"/>
<path d="M220.899 125.786C220.899 125.786 223.564 117.629 223.1 114.996C222.836 113.465 222.46 111.955 221.973 110.48L224.377 108.263L225.436 110.46C225.436 110.46 230.728 106.578 231.079 105.856C229.297 107.113 227.426 108.236 225.479 109.217C225.12 108.629 224.613 108.145 224.008 107.814C223.17 107.458 221.085 110.312 221.085 110.312L220.695 115.261L218.604 126.804L219.331 128.519L220.899 125.786Z" fill="#C4CCD6"/>
<path d="M218.559 104.917C218.559 104.917 218.054 110.184 218.49 110.557C218.936 110.75 219.418 110.848 219.905 110.843C220.392 110.838 220.872 110.731 221.315 110.529C222.298 109.712 223.2 108.803 224.008 107.814C224.008 107.814 221.642 103.637 218.559 104.917Z" fill="#383838"/>
<path d="M221.414 109.589C222.293 112.423 222.313 115.454 221.473 118.299C220.623 121.502 219.991 124.76 219.582 128.048L217.503 131.946C215.947 127.009 215.355 121.818 215.762 116.658C216.182 114.27 217.218 112.034 218.768 110.17L221.414 109.589Z" fill="#383838"/>
<path d="M210.759 83.3884C210.759 83.3884 210.117 86.6477 210.349 87.2663C210.581 87.885 211.406 88.2991 211.204 89.5701C211.222 91.713 211.529 93.8438 212.116 95.905C212.116 95.905 211.839 97.257 212.218 97.6759C212.597 98.0948 213.089 98.08 213.444 98.7192C213.8 99.3584 213.92 102.646 215.252 103.745C215.795 104.201 216.43 104.535 217.114 104.722C217.798 104.91 218.514 104.948 219.214 104.833C219.864 104.624 220.476 104.313 221.027 103.911L223.033 104.747C223.033 104.747 233.438 101.801 233.113 94.488L233.105 93.7148C233.489 93.1839 233.81 92.6096 234.059 92.0037C234.273 91.3243 235.997 88.2874 235.126 86.9772C235.126 86.9772 239.157 71.0649 226.722 70.1053C214.287 69.1458 212.414 77.8598 210.759 83.3884Z" fill="#E8D3AF"/>
<path d="M233.113 94.488L233.112 94.3998C232.698 94.0986 232.194 93.9456 231.683 93.9653C230.26 94.2158 230.587 91.2649 230.587 91.2649C230.141 92.6714 229.81 94.1117 229.597 95.5716C228.87 99.3431 221.027 103.911 221.027 103.911L223.033 104.747C223.033 104.747 233.438 101.801 233.113 94.488Z" fill="#CCBA96"/>
<path d="M210.815 76.48C209.598 79.0621 209.017 82.1644 211.56 84.2456C211.56 84.2456 213.697 84.8282 217.758 82.9409C219.97 81.99 222.461 81.9162 224.726 82.7345C225.061 82.8479 225.351 83.0661 225.554 83.3569C225.756 83.6477 225.859 83.9958 225.849 84.3498L225.788 86.6151C225.781 86.9028 225.86 87.1861 226.015 87.4282C226.171 87.6703 226.395 87.8601 226.66 87.9728L228.548 88.7766L228.922 90.9799C228.948 91.1325 229.007 91.2775 229.095 91.4048C229.183 91.5321 229.298 91.6386 229.431 91.7168C229.565 91.7949 229.714 91.8429 229.868 91.8573C230.022 91.8717 230.177 91.8522 230.323 91.8001L230.801 91.6293C230.801 91.6293 231.082 86.7276 235.126 86.9773C235.126 86.9773 238.4 79.8971 235.045 73.4223C231.69 66.9476 222.496 67.4089 220.535 68.1436C219.217 68.5219 217.968 69.1085 216.835 69.8812C214.232 71.4523 212.141 73.7445 210.815 76.48Z" fill="#635952"/>
<path d="M243.904 126.408C243.904 126.408 242.02 140.288 241.248 144.217L235.162 147.426L245.969 146.767L243.904 126.408Z" fill="#383838"/>
<path d="M235.126 86.9774C235.881 85.1695 236.345 83.253 236.499 81.2996C233.484 83.6696 229.661 84.7646 225.849 84.3499L225.788 86.6152C225.781 86.9028 225.86 87.1861 226.015 87.4282C226.171 87.6704 226.395 87.8601 226.66 87.9729L228.548 88.7767L228.922 90.98C228.948 91.1325 229.007 91.2775 229.095 91.4048C229.183 91.5321 229.298 91.6386 229.431 91.7168C229.565 91.7949 229.714 91.8429 229.868 91.8573C230.022 91.8717 230.177 91.8521 230.323 91.8001L230.801 91.6293C230.801 91.6293 231.082 86.7277 235.126 86.9774Z" fill="#49423E"/>
<path d="M237.816 99.1709C237.816 99.1709 234.595 110.232 233.924 112.364L231.334 112.09L231.8 115.59L217.844 133.987L233.34 116.198L232.726 113.08L235.079 113.329L237.816 99.1709Z" fill="#383838"/>
<path d="M224.114 159.292C224.114 159.292 256.847 158.226 257.682 157.631C258.517 157.037 258.666 148.615 258.588 143.735C258.534 140.311 258.574 126.916 255.651 117.52C257.948 125.476 256.739 153.614 255.698 155.045C254.655 156.479 223.52 157.303 223.52 157.303C223.856 158.472 224.114 159.292 224.114 159.292Z" fill="#263649"/>
<path d="M159.799 133.11C159.799 133.11 159.676 133.935 158.253 134.743C156.831 135.55 153.187 137.348 152.598 137.865C151.432 138.834 150.332 139.879 149.304 140.992C149.227 141.296 148.438 143.909 148.444 144.065C148.45 144.222 148.701 145.429 148.701 145.429L147.891 149.287C147.891 149.287 146.864 150.783 147.979 151.19C148.337 151.299 148.723 151.263 149.054 151.089C149.385 150.916 149.634 150.619 149.749 150.264C150.776 149.767 151.756 149.177 152.676 148.501C153.914 147.541 158.882 143.543 159.725 143.789C160.568 144.034 159.792 145.467 159.387 145.714C158.982 145.96 156.348 148.533 157.451 150.321C158.555 152.109 159.274 149.311 160.003 148.742C160.731 148.173 162.305 145.933 163.27 145.657C164.235 145.38 165.99 141.778 166.22 140.168C166.492 138.959 167.115 137.858 168.011 137.001C168.423 136.48 167.123 132.481 167.123 132.481L162.205 130.95L160.481 132.07L159.799 133.11Z" fill="#E8D3AF"/>
<path d="M253.236 112.006C252.207 110.38 251.735 111.581 250.355 112.921C247.944 115.185 246.091 117.978 244.944 121.08C242.746 127.532 243.535 143.657 244.271 145.963C244.271 145.963 223.775 149.32 222.355 149.258C220.936 149.197 224.114 159.292 224.114 159.292C224.114 159.292 256.847 158.226 257.682 157.632C258.517 157.037 258.666 148.616 258.588 143.735C258.522 139.551 258.599 120.476 253.236 112.006Z" fill="#334659"/>
<path d="M224.114 159.292C224.114 159.292 256.847 158.226 257.682 157.632C258.517 157.037 258.666 148.616 258.588 143.735C258.534 140.311 258.574 126.916 255.651 117.52C257.948 125.477 256.739 153.614 255.698 155.045C254.655 156.479 223.52 157.303 223.52 157.303C223.856 158.473 224.114 159.292 224.114 159.292Z" fill="#263649"/>
<path d="M262.426 155.697L262.413 155.702C262.35 155.288 262.186 154.897 261.936 154.562C261.687 154.227 261.358 153.958 260.98 153.78L260.402 153.446C258.26 152.209 254.518 152.364 252.045 153.792L234.608 163.859C234.075 164.095 233.609 164.46 233.253 164.922C232.898 165.384 232.663 165.927 232.571 166.503L232.562 166.507L232.562 169.544L232.567 169.546C232.594 169.994 232.743 170.426 232.997 170.795C233.251 171.165 233.6 171.459 234.008 171.645L234.587 171.98C236.729 173.216 240.47 173.061 242.944 171.633L260.38 161.566C260.898 161.332 261.353 160.978 261.706 160.534C262.06 160.089 262.303 159.567 262.414 159.01L262.426 159.005V155.697Z" fill="url(#paint12_linear_106_336)"/>
<path d="M234.587 169.018L234.008 168.684C231.866 167.447 232.135 165.287 234.608 163.859L252.045 153.792C254.518 152.364 258.26 152.209 260.402 153.446L260.98 153.78C263.122 155.016 262.854 157.176 260.38 158.604L242.944 168.672C240.47 170.1 236.729 170.255 234.587 169.018Z" fill="url(#paint13_linear_106_336)"/>
<path opacity="0.5" d="M223.919 226.889L77.769 142.535L135.068 109.453L281.219 193.807L223.919 226.889Z" fill="url(#paint14_linear_106_336)"/>
<path d="M77.769 137.426V142.535L223.919 226.889L281.219 193.807V188.698L223.919 221.78L77.769 137.426Z" fill="url(#paint15_linear_106_336)"/>
<path d="M223.919 221.78L77.769 137.426L135.068 104.345L281.219 188.698L223.919 221.78Z" fill="url(#paint16_linear_106_336)"/>
<path d="M223.919 221.258L78.221 137.166L77.769 137.426L223.919 221.78L281.219 188.698L280.767 188.437L223.919 221.258Z" fill="white"/>
<path opacity="0.3" d="M206.524 160.141C206.524 160.141 210.624 161.603 213.757 161.081C216.89 160.56 231.969 160.265 231.969 160.265L229.598 158.896L224.311 155.214L211.207 156.098L206.152 157.91L206.524 160.141Z" fill="#161616"/>
<path d="M222.441 149.801C222.431 149.761 222.408 149.727 222.376 149.702C222.344 149.676 222.305 149.662 222.265 149.661C221.214 149.635 214.401 149.434 211.825 148.545C209.936 147.865 207.91 147.65 205.92 147.92C205.769 148.082 201.119 150.056 200.841 150.858C200.595 151.57 200.148 154.038 200.765 154.95C201.101 155.436 201.405 155.945 201.673 156.472L202.158 156.523C202.446 157.1 202.773 157.657 203.137 158.19C203.289 158.381 203.417 158.591 203.518 158.814C203.812 159.449 204.328 160.496 204.542 160.519C205.239 160.659 205.947 160.734 206.658 160.742C206.957 160.665 207.226 159.751 207.103 159.348C207.094 159.324 207.09 159.299 207.092 159.273C207.094 159.247 207.101 159.223 207.115 159.201C207.128 159.178 207.145 159.159 207.167 159.145C207.188 159.131 207.213 159.122 207.238 159.119C208.877 158.879 210.54 158.842 212.188 159.011C215.219 159.289 219.504 157.307 219.892 157.124C219.911 157.115 219.933 157.109 219.954 157.108L224.228 156.722C224.257 156.719 224.285 156.71 224.309 156.696C224.334 156.681 224.355 156.661 224.372 156.637C224.388 156.614 224.398 156.587 224.403 156.558C224.407 156.53 224.405 156.501 224.397 156.473L222.441 149.801Z" fill="#E8D3AF"/>
<path d="M253.236 112.006C252.207 110.38 251.735 111.581 250.355 112.921C247.944 115.185 246.091 117.978 244.944 121.08C242.746 127.532 243.535 143.657 244.271 145.963C244.271 145.963 223.775 149.32 222.355 149.258C220.936 149.197 224.114 159.292 224.114 159.292C224.114 159.292 256.847 158.226 257.682 157.632C258.517 157.037 258.666 148.616 258.588 143.735C258.522 139.551 258.599 120.476 253.236 112.006Z" fill="#D8D8D8"/>
<path d="M224.114 159.292C224.114 159.292 256.847 158.226 257.682 157.631C258.517 157.037 258.666 148.615 258.588 143.735C258.534 140.311 258.574 126.916 255.651 117.52C257.948 125.476 256.739 153.614 255.698 155.045C254.655 156.479 223.52 157.303 223.52 157.303C223.856 158.472 224.114 159.292 224.114 159.292Z" fill="#383838"/>
<path opacity="0.3" d="M165.442 142.535C165.442 142.535 177.144 133.391 178.817 132.506C179.671 132.087 180.469 131.565 181.195 130.95L177.277 128.688L170.653 131.412L162.308 139.683L149.461 148.789V150.904C149.461 150.904 160.06 146.355 161.245 145.577C162.431 144.8 165.442 142.535 165.442 142.535Z" fill="#161616"/>
<path opacity="0.63" d="M158.464 150.816C159.719 149.681 161.094 148.685 162.565 147.846C164.174 147.102 166.731 145.126 167.045 143.615C167.358 142.104 170.02 138.76 170.02 138.76L165.755 141.221L159.579 144.788L149.298 150.751C149.556 150.982 149.877 151.133 150.22 151.182C150.564 151.232 150.914 151.179 151.227 151.03C152.529 150.588 154.969 149.031 156.108 148.891C157.247 148.752 159.13 148.403 159.13 148.403L158.464 150.816Z" fill="#2D2D2D"/>
<path d="M159.799 133.11C159.799 133.11 159.676 133.935 158.253 134.743C156.831 135.55 153.187 137.348 152.598 137.865C151.432 138.834 150.332 139.879 149.304 140.992C149.227 141.296 148.438 143.909 148.444 144.065C148.45 144.222 148.701 145.429 148.701 145.429L147.891 149.287C147.891 149.287 146.864 150.783 147.979 151.19C148.337 151.299 148.723 151.263 149.054 151.089C149.385 150.916 149.634 150.619 149.749 150.264C150.776 149.767 151.756 149.177 152.676 148.501C153.914 147.541 158.882 143.543 159.725 143.789C160.568 144.034 159.792 145.467 159.387 145.714C158.982 145.96 156.348 148.533 157.451 150.321C158.555 152.109 159.274 149.311 160.003 148.742C160.731 148.173 162.305 145.933 163.27 145.657C164.235 145.38 165.99 141.778 166.22 140.168C166.492 138.959 167.115 137.858 168.011 137.001C168.423 136.48 167.123 132.481 167.123 132.481L162.205 130.95L160.481 132.07L159.799 133.11Z" fill="#E8D3AF"/>
<path d="M204.195 106.114C204.113 101.77 204.472 97.4287 205.264 93.1567C204.918 93.4214 204.592 93.7107 204.288 94.0224C202.347 96.1458 200.111 97.98 197.65 99.4688C193.239 101.854 179.983 109.215 179.983 109.215L177.523 111.123C169.748 117.219 161.062 130.48 159.799 133.11C160.408 132.298 161.971 130.964 164.968 132.557C169.103 134.755 167.133 138.057 167.133 138.057C173.144 133.754 187.443 117.876 187.443 117.876C190.973 117.137 201.573 113.18 202.894 112.685C203.747 110.599 204.188 108.368 204.195 106.114Z" fill="#D8D8D8"/>
<path d="M129.826 156.069L132.665 157.552L161.139 141.113C161.433 140.98 161.755 140.917 162.077 140.93C162.4 140.944 162.715 141.033 162.998 141.19L212.107 169.543C212.577 169.281 214.72 168.25 214.72 168.25L213.68 170.958L213.676 170.955C213.621 171.094 213.518 171.209 213.386 171.278L183.397 188.592C183.102 188.725 182.781 188.787 182.458 188.774C182.135 188.761 181.82 188.672 181.538 188.515L131.284 159.5C131.095 159.405 130.945 159.246 130.862 159.052L130.858 159.054L129.826 156.069Z" fill="url(#paint17_linear_106_336)"/>
<path d="M130.264 156.536L181.769 186.272C182.058 186.433 182.381 186.525 182.712 186.538C183.042 186.552 183.372 186.488 183.673 186.351L214.408 168.607C214.896 168.325 214.835 167.832 214.271 167.507L162.767 137.771C162.478 137.61 162.155 137.519 161.824 137.505C161.493 137.491 161.164 137.555 160.862 137.692L130.128 155.437C129.64 155.718 129.701 156.211 130.264 156.536Z" fill="url(#paint18_linear_106_336)"/>
<path d="M130.264 156.24L181.769 185.975C182.058 186.137 182.381 186.228 182.712 186.241C183.043 186.255 183.372 186.191 183.674 186.054L214.408 168.31C214.545 168.239 214.651 168.121 214.707 167.978C214.744 168.101 214.734 168.233 214.678 168.35C214.623 168.466 214.527 168.558 214.408 168.607L183.674 186.351C183.372 186.488 183.043 186.552 182.712 186.538C182.381 186.525 182.058 186.433 181.769 186.272L130.264 156.536C129.885 156.317 129.739 156.024 129.829 155.769C129.912 155.973 130.067 156.141 130.264 156.24Z" fill="white"/>
<path d="M197.08 172.641L154.28 147.93C154.14 147.849 153.981 147.807 153.819 147.807C153.657 147.807 153.498 147.849 153.358 147.931L138.117 156.748C138.067 156.777 138.026 156.819 137.997 156.869C137.968 156.919 137.953 156.975 137.953 157.033C137.953 157.091 137.968 157.147 137.997 157.197C138.026 157.247 138.067 157.289 138.117 157.317L180.897 182.017C181.037 182.097 181.196 182.14 181.358 182.14C181.52 182.14 181.678 182.097 181.819 182.017L197.08 173.21C197.13 173.181 197.172 173.14 197.2 173.09C197.229 173.04 197.244 172.983 197.244 172.925C197.244 172.868 197.229 172.811 197.2 172.761C197.172 172.711 197.13 172.67 197.08 172.641Z" fill="#999999"/>
<path d="M197.08 173.21L196.927 173.298L154.28 148.676C154.14 148.595 153.981 148.553 153.819 148.553C153.657 148.553 153.498 148.596 153.358 148.677L138.27 157.406L138.117 157.317C138.067 157.289 138.026 157.247 137.997 157.197C137.968 157.147 137.953 157.091 137.953 157.033C137.953 156.975 137.968 156.919 137.997 156.869C138.026 156.819 138.067 156.777 138.117 156.748L153.358 147.931C153.498 147.849 153.657 147.807 153.819 147.807C153.981 147.807 154.14 147.849 154.28 147.93L197.08 172.641C197.13 172.67 197.172 172.711 197.2 172.761C197.229 172.811 197.244 172.868 197.244 172.925C197.244 172.983 197.229 173.04 197.2 173.09C197.171 173.14 197.13 173.181 197.08 173.21Z" fill="url(#paint19_linear_106_336)"/>
<path d="M152.208 150.164L191.632 172.925L193.587 172.145L153.861 149.209L152.208 150.164Z" fill="#383838"/>
<path d="M148.155 152.503L183.027 172.636L184.68 171.682L149.808 151.549L148.155 152.503Z" fill="#383838"/>
<path d="M145.515 154.027L186.573 177.732L188.226 176.777L147.169 153.073L145.515 154.027Z" fill="#383838"/>
<path d="M142.876 155.551L183.933 179.256L185.586 178.301L144.529 154.597L142.876 155.551Z" fill="#383838"/>
<path d="M140.236 157.075L181.294 180.78L182.947 179.825L141.889 156.121L140.236 157.075Z" fill="#383838"/>
<path d="M191.632 172.925L193.285 173.88L194.938 172.925L193.285 171.971L191.632 172.925Z" fill="#383838"/>
<path d="M181.021 171.479L189.232 176.219L190.885 175.265L182.615 170.49L181.021 171.479Z" fill="#383838"/>
<path d="M181.843 161.567L170.302 154.904C170.204 154.871 170.118 154.807 170.057 154.723C169.997 154.638 169.964 154.537 169.964 154.433C169.964 154.328 169.997 154.227 170.057 154.142C170.118 154.058 170.204 153.994 170.302 153.961L178.194 149.405C178.447 149.276 178.727 149.209 179.011 149.209C179.294 149.209 179.574 149.276 179.827 149.405L191.368 156.068C191.466 156.101 191.552 156.164 191.613 156.249C191.673 156.334 191.706 156.435 191.706 156.539C191.706 156.643 191.673 156.745 191.613 156.829C191.552 156.914 191.466 156.977 191.368 157.011L183.476 161.567C183.223 161.695 182.943 161.762 182.659 161.762C182.376 161.762 182.096 161.695 181.843 161.567Z" fill="url(#paint20_linear_106_336)"/>
<path d="M191.368 156.453L179.827 149.79C179.574 149.662 179.294 149.595 179.011 149.595C178.727 149.595 178.447 149.662 178.194 149.79L170.302 154.347C170.183 154.411 170.085 154.507 170.019 154.625C169.899 154.397 169.99 154.141 170.302 153.961L178.194 149.405C178.447 149.276 178.727 149.209 179.011 149.209C179.294 149.209 179.574 149.276 179.827 149.405L191.368 156.067C191.68 156.247 191.771 156.504 191.651 156.732C191.585 156.614 191.487 156.517 191.368 156.453Z" fill="url(#paint21_linear_106_336)"/>
<path d="M129.907 155.306L136.418 116.679L135.895 116.459L136.681 116.008L136.68 116.012C136.774 115.961 136.882 115.938 136.989 115.945C137.096 115.952 137.199 115.99 137.286 116.054L189.32 146.096C189.539 146.236 189.718 146.433 189.837 146.665C189.955 146.897 190.01 147.157 189.995 147.417L183.433 186.351C183.425 186.435 183.396 186.516 183.348 186.585C183.3 186.655 183.235 186.711 183.159 186.747L183.159 186.748L182.39 187.192L182.257 186.474L182.301 186.487L130.583 156.628C130.363 156.487 130.185 156.291 130.066 156.058C129.947 155.826 129.893 155.566 129.907 155.306Z" fill="url(#paint22_linear_106_336)"/>
<path d="M189.03 147.152L189.885 146.773C189.982 146.973 190.02 147.197 189.995 147.417L183.433 186.351C183.425 186.435 183.396 186.516 183.348 186.586C183.3 186.655 183.235 186.711 183.159 186.748L183.159 186.748L182.39 187.192L182.257 186.474L182.301 186.487L179.684 184.976L189.03 147.152Z" fill="url(#paint23_linear_106_336)"/>
<path d="M129.767 157.096L181.8 187.138C182.202 187.37 182.546 187.236 182.616 186.82L189.179 147.886C189.194 147.625 189.139 147.366 189.02 147.133C188.901 146.901 188.723 146.705 188.503 146.564L136.47 116.523C136.068 116.291 135.724 116.425 135.654 116.84L129.091 155.774C129.076 156.035 129.131 156.294 129.25 156.527C129.368 156.759 129.547 156.956 129.767 157.096Z" fill="url(#paint24_linear_106_336)"/>
<g opacity="0.6">
<path opacity="0.6" d="M124.922 230.144L117.981 226.137L119.494 225.263L126.435 229.27L124.922 230.144Z" fill="#CCBA96"/>
<path opacity="0.6" d="M130.845 233.564L127.374 231.56L128.888 230.686L132.358 232.69L130.845 233.564Z" fill="#CCBA96"/>
<path opacity="0.6" d="M123.421 233.375L120.464 231.668L121.977 230.794L124.935 232.502L123.421 233.375Z" fill="#CCBA96"/>
<path opacity="0.6" d="M128.375 236.235L124.904 234.232L126.418 233.358L129.888 235.361L128.375 236.235Z" fill="#CCBA96"/>
<path opacity="0.6" d="M130.554 241.591L116.915 233.717L118.429 232.843L132.067 240.717L130.554 241.591Z" fill="#CCBA96"/>
<path opacity="0.6" d="M91.634 257.174L77.996 249.3L79.509 248.426L93.147 256.3L91.634 257.174Z" fill="#CCBA96"/>
<path opacity="0.6" d="M96.879 260.202L93.408 258.198L94.922 257.324L98.392 259.328L96.879 260.202Z" fill="#CCBA96"/>
<path opacity="0.6" d="M116.324 237.473L113.367 235.766L114.88 234.892L117.837 236.599L116.324 237.473Z" fill="#CCBA96"/>
<path opacity="0.6" d="M121.277 240.333L117.807 238.329L119.32 237.455L122.791 239.459L121.277 240.333Z" fill="#CCBA96"/>
<path opacity="0.6" d="M117.316 242.143L109.818 237.814L111.332 236.941L118.829 241.269L117.316 242.143Z" fill="#CCBA96"/>
<path opacity="0.6" d="M122.334 245.041L118.864 243.037L120.377 242.163L123.848 244.167L122.334 245.041Z" fill="#CCBA96"/>
<path opacity="0.6" d="M127.379 247.953L123.909 245.949L125.422 245.076L128.892 247.079L127.379 247.953Z" fill="#CCBA96"/>
<path opacity="0.6" d="M135.52 252.653L128.953 248.862L130.467 247.988L137.034 251.78L135.52 252.653Z" fill="#CCBA96"/>
<path opacity="0.6" d="M124.487 254.479L121.017 252.475L122.53 251.601L126.001 253.605L124.487 254.479Z" fill="#CCBA96"/>
<path opacity="0.6" d="M132.628 259.179L126.062 255.388L127.575 254.514L134.142 258.305L132.628 259.179Z" fill="#CCBA96"/>
<path opacity="0.6" d="M106.191 243.916L102.721 241.912L104.234 241.038L107.705 243.042L106.191 243.916Z" fill="#CCBA96"/>
<path opacity="0.6" d="M111.236 246.828L107.766 244.824L109.279 243.951L112.75 245.954L111.236 246.828Z" fill="#CCBA96"/>
<path opacity="0.6" d="M119.377 251.528L112.81 247.737L114.324 246.863L120.891 250.655L119.377 251.528Z" fill="#CCBA96"/>
<path opacity="0.6" d="M132.963 255.275L129.493 253.271L131.006 252.397L134.477 254.401L132.963 255.275Z" fill="#CCBA96"/>
<path opacity="0.6" d="M138.008 258.187L134.538 256.184L136.051 255.31L139.521 257.313L138.008 258.187Z" fill="#CCBA96"/>
<path opacity="0.6" d="M146.149 262.888L139.582 259.096L141.096 258.222L147.662 262.014L146.149 262.888Z" fill="#CCBA96"/>
<path opacity="0.6" d="M102.308 263.337L98.838 261.333L100.351 260.459L103.822 262.463L102.308 263.337Z" fill="#CCBA96"/>
<path opacity="0.6" d="M110.45 268.037L103.883 264.246L105.396 263.372L111.963 267.163L110.45 268.037Z" fill="#CCBA96"/>
<path opacity="0.6" d="M99.094 248.013L95.624 246.009L97.137 245.136L100.608 247.139L99.094 248.013Z" fill="#CCBA96"/>
<path opacity="0.6" d="M107.235 252.713L100.669 248.922L102.182 248.048L108.749 251.84L107.235 252.713Z" fill="#CCBA96"/>
<path opacity="0.6" d="M103.171 267.932L99.7 265.928L101.214 265.055L104.684 267.058L103.171 267.932Z" fill="#CCBA96"/>
<path opacity="0.6" d="M111.312 272.632L104.745 268.841L106.258 267.967L112.825 271.759L111.312 272.632Z" fill="#CCBA96"/>
<path opacity="0.6" d="M140.928 247.58L137.457 245.577L138.971 244.703L142.441 246.707L140.928 247.58Z" fill="#CCBA96"/>
<path opacity="0.6" d="M135.681 244.551L132.211 242.547L133.724 241.674L137.194 243.677L135.681 244.551Z" fill="#CCBA96"/>
<path opacity="0.6" d="M149.069 252.281L142.502 248.489L144.016 247.616L150.582 251.407L149.069 252.281Z" fill="#CCBA96"/>
<path opacity="0.6" d="M109.401 241.671L106.27 239.863L107.783 238.989L110.914 240.797L109.401 241.671Z" fill="#CCBA96"/>
<path opacity="0.6" d="M118.686 247.032L111.075 242.638L112.589 241.764L120.199 246.158L118.686 247.032Z" fill="#CCBA96"/>
<path opacity="0.6" d="M127.971 252.392L120.36 247.998L121.873 247.124L129.484 251.518L127.971 252.392Z" fill="#CCBA96"/>
<path opacity="0.6" d="M153.892 255.065L150.761 253.257L152.274 252.384L155.405 254.191L153.892 255.065Z" fill="#CCBA96"/>
<path opacity="0.6" d="M163.177 260.426L155.566 256.032L157.08 255.158L164.69 259.552L163.177 260.426Z" fill="#CCBA96"/>
<path opacity="0.6" d="M172.462 265.786L164.851 261.392L166.365 260.519L173.975 264.913L172.462 265.786Z" fill="#CCBA96"/>
<path opacity="0.6" d="M106.85 248.394L99.24 244L100.753 243.126L108.364 247.52L106.85 248.394Z" fill="#CCBA96"/>
<path opacity="0.6" d="M110.862 250.71L108.525 249.36L110.038 248.487L112.376 249.836L110.862 250.71Z" fill="#CCBA96"/>
<path opacity="0.6" d="M114.883 253.031L112.545 251.682L114.059 250.808L116.396 252.157L114.883 253.031Z" fill="#CCBA96"/>
<path opacity="0.6" d="M122.316 257.323L116.566 254.003L118.079 253.129L123.83 256.449L122.316 257.323Z" fill="#CCBA96"/>
<path opacity="0.6" d="M123.879 258.225L118.128 254.905L119.642 254.031L125.392 257.351L123.879 258.225Z" fill="#CCBA96"/>
<path opacity="0.6" d="M139.402 254.894L137.064 253.545L138.578 252.671L140.915 254.021L139.402 254.894Z" fill="#CCBA96"/>
<path opacity="0.6" d="M146.835 259.186L141.085 255.866L142.598 254.992L148.348 258.312L146.835 259.186Z" fill="#CCBA96"/>
<path opacity="0.6" d="M148.397 260.088L142.647 256.768L144.16 255.894L149.911 259.214L148.397 260.088Z" fill="#CCBA96"/>
<path opacity="0.6" d="M90.686 264.822L83.189 260.493L84.702 259.619L92.2 263.948L90.686 264.822Z" fill="#CCBA96"/>
<path opacity="0.6" d="M95.705 267.719L92.235 265.716L93.748 264.842L97.218 266.846L95.705 267.719Z" fill="#CCBA96"/>
<path opacity="0.6" d="M100.75 270.632L97.279 268.628L98.793 267.755L102.263 269.758L100.75 270.632Z" fill="#CCBA96"/>
<path opacity="0.6" d="M108.891 275.332L102.324 271.541L103.837 270.667L110.404 274.458L108.891 275.332Z" fill="#CCBA96"/>
<path opacity="0.6" d="M114.099 278.339L110.628 276.335L112.142 275.462L115.612 277.465L114.099 278.339Z" fill="#CCBA96"/>
<path opacity="0.6" d="M122.24 283.039L115.673 279.248L117.186 278.374L123.753 282.165L122.24 283.039Z" fill="#CCBA96"/>
<path opacity="0.6" d="M91.43 273.446L87.96 271.443L89.473 270.569L92.943 272.573L91.43 273.446Z" fill="#CCBA96"/>
<path opacity="0.6" d="M99.571 278.147L93.004 274.355L94.518 273.481L101.085 277.273L99.571 278.147Z" fill="#CCBA96"/>
<path opacity="0.6" d="M73.304 262.981L69.833 260.977L71.347 260.104L74.817 262.107L73.304 262.981Z" fill="#CCBA96"/>
<path opacity="0.6" d="M78.349 265.894L74.878 263.89L76.391 263.016L79.862 265.02L78.349 265.894Z" fill="#CCBA96"/>
<path opacity="0.6" d="M86.49 270.594L79.923 266.803L81.436 265.929L88.003 269.72L86.49 270.594Z" fill="#CCBA96"/>
<path opacity="0.6" d="M82.772 264.35L79.64 262.542L81.154 261.668L84.285 263.476L82.772 264.35Z" fill="#CCBA96"/>
<path opacity="0.6" d="M92.056 269.71L84.446 265.316L85.959 264.443L93.57 268.837L92.056 269.71Z" fill="#CCBA96"/>
<path opacity="0.6" d="M101.341 275.071L93.731 270.677L95.244 269.803L102.855 274.197L101.341 275.071Z" fill="#CCBA96"/>
<path opacity="0.6" d="M67.824 263.915L60.214 259.521L61.727 258.647L69.338 263.041L67.824 263.915Z" fill="#CCBA96"/>
<path opacity="0.6" d="M71.836 266.231L69.499 264.882L71.012 264.008L73.349 265.358L71.836 266.231Z" fill="#CCBA96"/>
<path opacity="0.6" d="M75.857 268.553L73.519 267.203L75.033 266.329L77.37 267.679L75.857 268.553Z" fill="#CCBA96"/>
<path opacity="0.6" d="M83.29 272.844L77.54 269.524L79.053 268.651L84.803 271.97L83.29 272.844Z" fill="#CCBA96"/>
<path opacity="0.6" d="M84.852 273.746L79.102 270.426L80.615 269.553L86.366 272.873L84.852 273.746Z" fill="#CCBA96"/>
<path opacity="0.6" d="M82.923 256.242L80.586 254.893L82.099 254.019L84.437 255.368L82.923 256.242Z" fill="#CCBA96"/>
<path opacity="0.6" d="M90.357 260.534L84.606 257.214L86.12 256.34L91.87 259.66L90.357 260.534Z" fill="#CCBA96"/>
<path opacity="0.6" d="M97.951 264.918L92.201 261.598L93.714 260.725L99.464 264.045L97.951 264.918Z" fill="#CCBA96"/>
<path opacity="0.6" d="M121.381 286.641L117.91 284.637L119.424 283.763L122.894 285.767L121.381 286.641Z" fill="#CCBA96"/>
<path opacity="0.6" d="M129.522 291.341L122.955 287.55L124.468 286.676L131.035 290.467L129.522 291.341Z" fill="#CCBA96"/>
<path opacity="0.6" d="M108.566 279.242L102.816 275.922L104.33 275.049L110.08 278.369L108.566 279.242Z" fill="#CCBA96"/>
<path opacity="0.6" d="M116.161 283.627L110.41 280.307L111.924 279.433L117.674 282.753L116.161 283.627Z" fill="#CCBA96"/>
<path opacity="0.6" d="M88.448 245.964L86.111 244.615L87.624 243.741L89.962 245.09L88.448 245.964Z" fill="#CCBA96"/>
<path opacity="0.6" d="M95.882 250.256L90.131 246.936L91.645 246.062L97.395 249.382L95.882 250.256Z" fill="#CCBA96"/>
<path opacity="0.6" d="M103.476 254.64L97.726 251.32L99.239 250.447L104.989 253.767L103.476 254.64Z" fill="#CCBA96"/>
</g>
<path d="M9.5762 237.904C8.71519 237.929 7.86227 237.732 7.0986 237.334L1.0508 233.843C0.752182 233.702 0.496925 233.484 0.311974 233.211C0.127023 232.938 0.0192394 232.62 0 232.291C0.0486765 231.866 0.207453 231.461 0.460616 231.117C0.713778 230.772 1.05255 230.499 1.4434 230.326L19.4355 219.937C20.2979 219.459 21.2605 219.189 22.246 219.15C23.2315 219.11 24.2125 219.302 25.1103 219.711L31.1582 223.203C31.4566 223.343 31.7117 223.561 31.8965 223.834C32.0813 224.107 32.1889 224.425 32.208 224.754C32.1595 225.179 32.0009 225.583 31.7479 225.928C31.4949 226.273 31.1563 226.546 30.7656 226.72L12.7725 237.107C11.7922 237.641 10.6921 237.915 9.5762 237.904ZM22.6328 219.553C21.5895 219.544 20.5612 219.8 19.6445 220.299L1.6523 230.687C1.32656 230.827 1.04202 231.047 0.82591 231.328C0.609802 231.609 0.469352 231.94 0.418 232.291C0.439373 232.546 0.528701 232.791 0.676719 233.001C0.824738 233.21 1.02606 233.376 1.2598 233.481L7.3076 236.972C8.14078 237.347 9.04986 237.521 9.96238 237.482C10.8749 237.442 11.7656 237.19 12.5635 236.746L30.5566 226.358C30.8823 226.219 31.1668 225.998 31.3827 225.717C31.5987 225.436 31.7389 225.104 31.79 224.754C31.7686 224.499 31.6794 224.254 31.5316 224.045C31.3837 223.835 31.1827 223.67 30.9492 223.564L24.9014 220.072C24.2017 219.709 23.4209 219.53 22.6328 219.553Z" fill="#CCBA96"/>
<path d="M42.0439 256.649C41.1829 256.674 40.33 256.477 39.5664 256.079L19.4014 244.437C19.1028 244.297 18.8475 244.079 18.6626 243.806C18.4776 243.533 18.3698 243.215 18.3506 242.885C18.3992 242.461 18.5579 242.056 18.8109 241.711C19.0638 241.367 19.4024 241.094 19.793 240.921L37.7861 230.532C38.6486 230.054 39.6111 229.784 40.5966 229.745C41.5821 229.705 42.5631 229.897 43.4609 230.305L63.626 241.948C63.9244 242.088 64.1795 242.306 64.3643 242.579C64.549 242.852 64.6567 243.17 64.6758 243.499C64.6273 243.924 64.4687 244.328 64.2157 244.673C63.9627 245.018 63.6241 245.291 63.2334 245.465L45.2402 255.852C44.2599 256.385 43.1598 256.66 42.0439 256.649ZM40.9834 230.147C39.9401 230.138 38.9118 230.395 37.9951 230.893L20.0019 241.282C19.6764 241.421 19.392 241.642 19.1761 241.923C18.9602 242.204 18.8198 242.535 18.7685 242.885C18.7899 243.141 18.8792 243.386 19.0272 243.595C19.1753 243.805 19.3766 243.971 19.6103 244.076L39.7754 255.717C40.6083 256.093 41.5175 256.268 42.4302 256.229C43.3429 256.189 44.2337 255.937 45.0312 255.491L63.0244 245.103C63.3501 244.964 63.6346 244.743 63.8505 244.462C64.0665 244.181 64.2067 243.849 64.2578 243.499C64.2363 243.244 64.147 242.999 63.9992 242.79C63.8514 242.581 63.6504 242.415 63.417 242.309L43.2519 230.667C42.5523 230.303 41.7715 230.124 40.9834 230.147Z" fill="#CCBA96"/>
<path d="M71.8408 239.392C70.9369 239.418 70.0414 239.212 69.2393 238.795L30.9883 216.711C30.6758 216.564 30.4087 216.336 30.2152 216.05C30.0216 215.765 29.9088 215.432 29.8887 215.088C29.9397 214.643 30.106 214.219 30.3711 213.858C30.6362 213.497 30.991 213.211 31.4004 213.029L68.8252 191.422C69.7307 190.919 70.7415 190.636 71.7764 190.594C72.8113 190.553 73.8414 190.755 74.7842 191.183L113.036 213.268C113.348 213.415 113.615 213.643 113.809 213.928C114.003 214.214 114.115 214.546 114.136 214.89C114.084 215.336 113.918 215.76 113.653 216.121C113.387 216.482 113.032 216.767 112.623 216.949L75.1982 238.556C74.1682 239.116 73.0127 239.403 71.8408 239.392ZM69.4482 238.433C70.3265 238.828 71.2849 239.012 72.247 238.971C73.209 238.929 74.1481 238.664 74.9893 238.195L112.414 216.588C112.759 216.44 113.059 216.206 113.288 215.909C113.516 215.612 113.664 215.261 113.718 214.89C113.695 214.62 113.601 214.36 113.444 214.139C113.288 213.917 113.075 213.741 112.827 213.63L74.5752 191.545C73.697 191.15 72.7385 190.965 71.7764 191.007C70.8143 191.048 69.8752 191.314 69.0342 191.783L31.6094 213.39C31.265 213.538 30.9644 213.772 30.7362 214.069C30.5081 214.366 30.3602 214.717 30.3066 215.088C30.3291 215.358 30.4236 215.618 30.5802 215.84C30.7368 216.062 30.9498 216.238 31.1973 216.349L69.4482 238.433Z" fill="#CCBA96"/>
<defs>
<linearGradient id="paint0_linear_106_336" x1="139.717" y1="98.1407" x2="353.916" y2="98.1407" gradientUnits="userSpaceOnUse">
<stop stop-color="#CCBA96"/>
<stop offset="0.10982" stop-color="#C2B18F"/>
<stop offset="0.29595" stop-color="#A7997C"/>
<stop offset="0.53566" stop-color="#7C725E"/>
<stop offset="0.81653" stop-color="#413C34"/>
<stop offset="1" stop-color="#161616"/>
</linearGradient>
<linearGradient id="paint1_linear_106_336" x1="27018.1" y1="20782.1" x2="72899" y2="20782.1" gradientUnits="userSpaceOnUse">
<stop stop-color="#CCBA96"/>
<stop offset="0.10982" stop-color="#C2B18F"/>
<stop offset="0.29595" stop-color="#A7997C"/>
<stop offset="0.53566" stop-color="#7C725E"/>
<stop offset="0.81653" stop-color="#413C34"/>
<stop offset="1" stop-color="#161616"/>
</linearGradient>
<linearGradient id="paint2_linear_106_336" x1="225.351" y1="198.593" x2="163.05" y2="213.799" gradientUnits="userSpaceOnUse">
<stop stop-color="white"/>
<stop offset="0.09113" stop-color="#F7F7F7"/>
<stop offset="0.23306" stop-color="#E1E1E1"/>
<stop offset="0.40795" stop-color="#BDBDBD"/>
<stop offset="0.60914" stop-color="#8B8B8B"/>
<stop offset="0.82946" stop-color="#4C4C4C"/>
<stop offset="0.99874" stop-color="#161616"/>
</linearGradient>
<linearGradient id="paint3_linear_106_336" x1="225.816" y1="193.032" x2="294.788" y2="193.032" gradientUnits="userSpaceOnUse">
<stop stop-color="#5761D7"/>
<stop offset="0.17789" stop-color="#5C66D9"/>
<stop offset="0.3876" stop-color="#6A73DF"/>
<stop offset="0.6134" stop-color="#8289E8"/>
<stop offset="0.84896" stop-color="#A3A7F5"/>
<stop offset="1" stop-color="#BCBEFF"/>
</linearGradient>
<linearGradient id="paint4_linear_106_336" x1="5095.4" y1="3753.5" x2="4797.96" y2="3407.82" gradientUnits="userSpaceOnUse">
<stop stop-color="#5761D7"/>
<stop offset="0.17789" stop-color="#5C66D9"/>
<stop offset="0.3876" stop-color="#6A73DF"/>
<stop offset="0.6134" stop-color="#8289E8"/>
<stop offset="0.84896" stop-color="#A3A7F5"/>
<stop offset="1" stop-color="#BCBEFF"/>
</linearGradient>
<linearGradient id="paint5_linear_106_336" x1="8836.37" y1="3676.76" x2="11111.3" y2="3676.76" gradientUnits="userSpaceOnUse">
<stop stop-color="white"/>
<stop offset="0.09113" stop-color="#F7F7F7"/>
<stop offset="0.23306" stop-color="#E1E1E1"/>
<stop offset="0.40795" stop-color="#BDBDBD"/>
<stop offset="0.60914" stop-color="#8B8B8B"/>
<stop offset="0.82946" stop-color="#4C4C4C"/>
<stop offset="0.99874" stop-color="#161616"/>
</linearGradient>
<linearGradient id="paint6_linear_106_336" x1="218.276" y1="213.861" x2="229.563" y2="213.861" gradientUnits="userSpaceOnUse">
<stop stop-color="#999999"/>
<stop offset="0.27791" stop-color="#747474"/>
<stop offset="0.99874" stop-color="#161616"/>
</linearGradient>
<linearGradient id="paint7_linear_106_336" x1="17702.9" y1="9419.47" x2="23933" y2="9419.47" gradientUnits="userSpaceOnUse">
<stop stop-color="white"/>
<stop offset="0.09113" stop-color="#F7F7F7"/>
<stop offset="0.23306" stop-color="#E1E1E1"/>
<stop offset="0.40795" stop-color="#BDBDBD"/>
<stop offset="0.60914" stop-color="#8B8B8B"/>
<stop offset="0.82946" stop-color="#4C4C4C"/>
<stop offset="0.99874" stop-color="#161616"/>
</linearGradient>
<linearGradient id="paint8_linear_106_336" x1="182.532" y1="133.987" x2="212.396" y2="133.987" gradientUnits="userSpaceOnUse">
<stop offset="0.32099" stop-color="#161616"/>
<stop offset="1" stop-color="white"/>
</linearGradient>
<linearGradient id="paint9_linear_106_336" x1="5633.76" y1="2408.6" x2="6525.65" y2="2408.6" gradientUnits="userSpaceOnUse">
<stop stop-color="white"/>
<stop offset="0.09113" stop-color="#F7F7F7"/>
<stop offset="0.23306" stop-color="#E1E1E1"/>
<stop offset="0.40795" stop-color="#BDBDBD"/>
<stop offset="0.60914" stop-color="#8B8B8B"/>
<stop offset="0.82946" stop-color="#4C4C4C"/>
<stop offset="0.99874" stop-color="#161616"/>
</linearGradient>
<linearGradient id="paint10_linear_106_336" x1="19566.3" y1="11126.5" x2="14451.9" y2="18895.5" gradientUnits="userSpaceOnUse">
<stop stop-color="white"/>
<stop offset="0.09113" stop-color="#F7F7F7"/>
<stop offset="0.23306" stop-color="#E1E1E1"/>
<stop offset="0.40795" stop-color="#BDBDBD"/>
<stop offset="0.60914" stop-color="#8B8B8B"/>
<stop offset="0.82946" stop-color="#4C4C4C"/>
<stop offset="0.99874" stop-color="#161616"/>
</linearGradient>
<linearGradient id="paint11_linear_106_336" x1="218.668" y1="140.757" x2="263.783" y2="140.757" gradientUnits="userSpaceOnUse">
<stop stop-color="#161616"/>
<stop offset="0.09078" stop-color="#1F1F1F"/>
<stop offset="0.23662" stop-color="#363636"/>
<stop offset="0.41939" stop-color="#5D5D5D"/>
<stop offset="0.63188" stop-color="#929292"/>
<stop offset="0.86651" stop-color="#D5D5D5"/>
<stop offset="1" stop-color="white"/>
</linearGradient>
<linearGradient id="paint12_linear_106_336" x1="232.562" y1="162.713" x2="262.426" y2="162.713" gradientUnits="userSpaceOnUse">
<stop stop-color="#161616"/>
<stop offset="0.19957" stop-color="#191919"/>
<stop offset="0.33777" stop-color="#222222"/>
<stop offset="0.45753" stop-color="#313131"/>
<stop offset="0.56672" stop-color="#474747"/>
<stop offset="0.66879" stop-color="#636363"/>
<stop offset="0.76555" stop-color="#868686"/>
<stop offset="0.85813" stop-color="#AFAFAF"/>
<stop offset="0.94512" stop-color="#DEDEDE"/>
<stop offset="1" stop-color="white"/>
</linearGradient>
<linearGradient id="paint13_linear_106_336" x1="7177.92" y1="2932.61" x2="8069.81" y2="2932.61" gradientUnits="userSpaceOnUse">
<stop stop-color="white"/>
<stop offset="0.09113" stop-color="#F7F7F7"/>
<stop offset="0.23306" stop-color="#E1E1E1"/>
<stop offset="0.40795" stop-color="#BDBDBD"/>
<stop offset="0.60914" stop-color="#8B8B8B"/>
<stop offset="0.82946" stop-color="#4C4C4C"/>
<stop offset="0.99874" stop-color="#161616"/>
</linearGradient>
<linearGradient id="paint14_linear_106_336" x1="77.769" y1="168.171" x2="281.219" y2="168.171" gradientUnits="userSpaceOnUse">
<stop stop-color="#42E8E0"/>
<stop offset="0.15073" stop-color="#43E3E0"/>
<stop offset="0.32849" stop-color="#45D5DF"/>
<stop offset="0.5199" stop-color="#49BDDD"/>
<stop offset="0.72093" stop-color="#4E9CDB"/>
<stop offset="0.92742" stop-color="#5472D8"/>
<stop offset="1" stop-color="#5761D7"/>
</linearGradient>
<linearGradient id="paint15_linear_106_336" x1="9770.28" y1="16433.8" x2="51162.1" y2="16433.8" gradientUnits="userSpaceOnUse">
<stop stop-color="white"/>
<stop offset="0.09113" stop-color="#F7F7F7"/>
<stop offset="0.23306" stop-color="#E1E1E1"/>
<stop offset="0.40795" stop-color="#BDBDBD"/>
<stop offset="0.60914" stop-color="#8B8B8B"/>
<stop offset="0.82946" stop-color="#4C4C4C"/>
<stop offset="0.99874" stop-color="#161616"/>
</linearGradient>
<linearGradient id="paint16_linear_106_336" x1="15899.9" y1="19253.6" x2="57291.7" y2="19253.6" gradientUnits="userSpaceOnUse">
<stop stop-color="white"/>
<stop offset="0.09113" stop-color="#F7F7F7"/>
<stop offset="0.23306" stop-color="#E1E1E1"/>
<stop offset="0.40795" stop-color="#BDBDBD"/>
<stop offset="0.60914" stop-color="#8B8B8B"/>
<stop offset="0.82946" stop-color="#4C4C4C"/>
<stop offset="0.99874" stop-color="#161616"/>
</linearGradient>
<linearGradient id="paint17_linear_106_336" x1="-1340.03" y1="8028.65" x2="-8547.05" y2="8028.65" gradientUnits="userSpaceOnUse">
<stop stop-color="#999999"/>
<stop offset="0.27791" stop-color="#747474"/>
<stop offset="0.99874" stop-color="#161616"/>
</linearGradient>
<linearGradient id="paint18_linear_106_336" x1="-3763.65" y1="8082.55" x2="-10978.4" y2="8082.55" gradientUnits="userSpaceOnUse">
<stop stop-color="#999999"/>
<stop offset="0.27791" stop-color="#747474"/>
<stop offset="0.99874" stop-color="#161616"/>
</linearGradient>
<linearGradient id="paint19_linear_106_336" x1="137.953" y1="160.552" x2="197.244" y2="160.552" gradientUnits="userSpaceOnUse">
<stop stop-color="white"/>
<stop offset="0.29935" stop-color="#FDFDFD"/>
<stop offset="0.43998" stop-color="#F5F5F5"/>
<stop offset="0.54754" stop-color="#E8E8E8"/>
<stop offset="0.63827" stop-color="#D6D6D6"/>
<stop offset="0.71836" stop-color="#BEBEBE"/>
<stop offset="0.791" stop-color="#A1A1A1"/>
<stop offset="0.858" stop-color="#7E7E7E"/>
<stop offset="0.92055" stop-color="#555555"/>
<stop offset="0.97742" stop-color="#292929"/>
<stop offset="0.99874" stop-color="#161616"/>
</linearGradient>
<linearGradient id="paint20_linear_106_336" x1="-807.908" y1="2100.99" x2="-1280.63" y2="2100.99" gradientUnits="userSpaceOnUse">
<stop stop-color="#999999"/>
<stop offset="0.27791" stop-color="#747474"/>
<stop offset="0.99874" stop-color="#161616"/>
</linearGradient>
<linearGradient id="paint21_linear_106_336" x1="3863.98" y1="1299.95" x2="4336.32" y2="1299.95" gradientUnits="userSpaceOnUse">
<stop stop-color="white"/>
<stop offset="0.29935" stop-color="#FDFDFD"/>
<stop offset="0.43998" stop-color="#F5F5F5"/>
<stop offset="0.54754" stop-color="#E8E8E8"/>
<stop offset="0.63827" stop-color="#D6D6D6"/>
<stop offset="0.71836" stop-color="#BEBEBE"/>
<stop offset="0.791" stop-color="#A1A1A1"/>
<stop offset="0.858" stop-color="#7E7E7E"/>
<stop offset="0.92055" stop-color="#555555"/>
<stop offset="0.97742" stop-color="#292929"/>
<stop offset="0.99874" stop-color="#161616"/>
</linearGradient>
<linearGradient id="paint22_linear_106_336" x1="-2403.96" y1="10914.9" x2="-6016.09" y2="10914.9" gradientUnits="userSpaceOnUse">
<stop stop-color="#999999"/>
<stop offset="0.27791" stop-color="#747474"/>
<stop offset="0.99874" stop-color="#161616"/>
</linearGradient>
<linearGradient id="paint23_linear_106_336" x1="-378.24" y1="6896.05" x2="-484.738" y2="6896.05" gradientUnits="userSpaceOnUse">
<stop stop-color="#999999"/>
<stop offset="0.27791" stop-color="#747474"/>
<stop offset="0.99874" stop-color="#161616"/>
</linearGradient>
<linearGradient id="paint24_linear_106_336" x1="7885.84" y1="10872.2" x2="11498" y2="10872.2" gradientUnits="userSpaceOnUse">
<stop stop-color="#999999"/>
<stop offset="0.27791" stop-color="#747474"/>
<stop offset="0.99874" stop-color="#161616"/>
</linearGradient>
</defs>
</svg>
