<svg width="61" height="75" viewBox="0 0 61 75" fill="none" xmlns="http://www.w3.org/2000/svg">
<path d="M34.4612 59.3421C36.8897 59.3421 39.2886 58.8091 41.4886 57.7805C43.8118 56.6883 45.8851 55.129 47.5789 53.1998L59.135 63.6399C55.9925 67.2016 52.1465 70.074 47.8391 72.076C43.6439 73.9725 39.0933 74.955 34.4893 74.9584C29.8853 74.9618 25.3333 73.9859 21.1352 72.0956C16.8321 70.1366 12.9982 67.279 9.89135 63.7149C6.72204 60.2147 4.23287 56.1545 2.55135 51.7422C0.841895 47.2546 -0.0228533 42.4896 0.00073148 37.6875C-0.0287972 32.8508 0.835935 28.0503 2.55135 23.528C4.23324 19.1161 6.72238 15.0562 9.89135 11.556C12.999 7.99265 16.8327 5.13495 21.1352 3.17459C25.4746 1.21958 30.1911 0.243456 34.95 0.315449C39.7089 0.387441 44.3936 1.50579 48.6719 3.59116C53.1804 5.80417 57.1444 8.9859 60.2804 12.9089L48.3077 22.7995C44.5597 18.2188 39.9442 15.9283 34.4612 15.9281C31.913 15.9076 29.3966 16.4954 27.1212 17.6428C24.8533 18.7936 22.8225 20.3614 21.1353 22.2642C19.3511 24.2848 17.9725 26.6299 17.0747 29.1716C16.0943 31.8849 15.601 34.7501 15.6174 37.6351C15.598 40.504 16.0915 43.3533 17.0747 46.0486C17.9882 48.5826 19.3652 50.9247 21.1352 52.9552C22.8114 54.8836 24.8439 56.4705 27.1212 57.6289C29.3967 58.7758 31.9131 59.3631 34.4612 59.3421Z" fill="white"/>
</svg>
