<svg width="65" height="75" viewBox="0 0 65 75" fill="none" xmlns="http://www.w3.org/2000/svg">
<path d="M57.3911 12.701C59.6677 16.2282 61.372 20.0934 62.4408 24.1532C63.6003 28.4995 64.1778 32.9805 64.1582 37.4788C64.178 41.9773 63.6005 46.4586 62.4408 50.8051C61.3726 54.8651 59.6683 58.7304 57.3911 62.2573C54.9876 65.9836 51.7875 69.1304 48.0214 71.4711C44.5495 73.6182 40.5474 74.754 36.4653 74.7505V74.8545H0.65155V0.103853H36.4653C40.5475 0.100025 44.5497 1.23579 48.0214 3.38328C51.8062 5.74427 55.0091 8.92939 57.3911 12.701ZM42.3996 54.4487C43.8584 52.0586 44.9465 49.4612 45.6267 46.7449C47.1539 40.6621 47.1539 34.2962 45.6267 28.2134C44.946 25.497 43.858 22.8994 42.3996 20.5088C41.5917 19.1731 40.572 17.9776 39.3805 16.9691C38.5781 16.2348 37.5504 15.7945 36.4653 15.7202H16.2678V59.2381H36.4653C37.5591 59.1578 38.5904 58.6975 39.3805 57.9368C40.5479 56.9239 41.5645 55.7493 42.3996 54.4487Z" fill="white"/>
</svg>
