<svg width="82" height="100" viewBox="0 0 82 100" fill="none" xmlns="http://www.w3.org/2000/svg">
<g clip-path="url(#clip0_23_99)">
<path d="M7.87733 81.0893H73.5888C74.5738 81.0898 75.5493 80.8963 76.4595 80.5197C77.3697 80.1432 78.1968 79.591 78.8936 78.8947C79.5903 78.1985 80.1431 77.3717 80.5203 76.4618C80.8975 75.5519 81.0917 74.5766 81.0919 73.5915V17.5647H0.372185V73.5915C0.372606 74.5767 0.567072 75.5521 0.944481 76.462C1.32189 77.372 1.87485 78.1987 2.57178 78.8949C3.2687 79.5912 4.09596 80.1433 5.00629 80.5199C5.91662 80.8964 6.89221 81.0899 7.87733 81.0893Z" fill="white"/>
<path d="M73.5887 81.4616H7.87745C5.78992 81.4602 3.78819 80.6308 2.31139 79.1554C0.8346 77.68 0.00334691 75.6791 0 73.5915L0 17.5647C5.30392e-06 17.466 0.039222 17.3713 0.109024 17.3015C0.178826 17.2317 0.273496 17.1925 0.37221 17.1925H81.092C81.1907 17.1925 81.2854 17.2317 81.3552 17.3015C81.425 17.3713 81.4642 17.466 81.4642 17.5647V73.5915C81.4611 75.6788 80.6302 77.6796 79.1538 79.155C77.6774 80.6304 75.676 81.46 73.5887 81.4616ZM0.744415 17.9369V73.5915C0.747525 75.4817 1.50027 77.2934 2.83751 78.6293C4.17475 79.9652 5.98728 80.716 7.87745 80.7172H73.5887C75.4786 80.7158 77.2908 79.9648 78.6277 78.6289C79.9646 77.2931 80.717 75.4814 80.7198 73.5915V17.9369H0.744415Z" fill="#161616"/>
<path d="M81.0919 7.87461C81.0922 6.88926 80.8982 5.91351 80.5212 5.00313C80.1442 4.09274 79.5916 3.26556 78.8948 2.56884C78.198 1.87212 77.3708 1.31952 76.4604 0.942609C75.5499 0.5657 74.5742 0.37187 73.5888 0.372193H7.87733C6.89187 0.371831 5.91599 0.56562 5.00544 0.94249C4.09489 1.31936 3.2675 1.87193 2.57055 2.56863C1.87359 3.26533 1.32073 4.09251 0.943525 5.00293C0.566324 5.91334 0.372181 6.88915 0.372185 7.87461V17.5646H81.0919V7.87461Z" fill="#CCBA96"/>
<path d="M81.092 17.9369H0.37221C0.273495 17.9369 0.178825 17.8977 0.109024 17.8279C0.0392219 17.7581 5.30381e-06 17.6634 0 17.5647L0 7.87467C0.00273335 5.78654 0.833642 3.78475 2.31044 2.30848C3.78723 0.832204 5.78931 0.00199896 7.87745 0H73.5887C75.6766 0.00223766 77.6783 0.832578 79.1548 2.30885C80.6312 3.78513 81.4617 5.78678 81.4642 7.87465V17.5647C81.4642 17.6634 81.425 17.758 81.3552 17.8279C81.2854 17.8977 81.1907 17.9369 81.092 17.9369ZM0.744415 17.1925H80.7198V7.87465C80.7176 5.98414 79.9655 4.17171 78.6286 2.83499C77.2917 1.49828 75.4792 0.746436 73.5887 0.744415H7.87745C5.98668 0.746196 4.17382 1.4979 2.83658 2.83461C1.49935 4.17133 0.746935 5.98389 0.744415 7.87465V17.1925Z" fill="#161616"/>
<path d="M53.2843 10.0875C53.2854 10.7416 53.0924 11.3814 52.7297 11.9258C52.3671 12.4702 51.8511 12.8948 51.247 13.1458C50.643 13.3969 49.978 13.4631 49.3363 13.3362C48.6946 13.2092 48.105 12.8947 47.6421 12.4325C47.1792 11.9704 46.8637 11.3812 46.7357 10.7397C46.6077 10.0982 46.6729 9.43319 46.923 8.82874C47.1731 8.22429 47.5968 7.70761 48.1407 7.34408C48.6845 6.98054 49.3239 6.7865 49.9781 6.7865C50.8541 6.78632 51.6943 7.13388 52.3143 7.75281C52.9342 8.37175 53.2831 9.21144 53.2843 10.0875Z" fill="#161616"/>
<path d="M49.9782 13.5172C49.3005 13.5166 48.6383 13.3152 48.0751 12.9383C47.5119 12.5614 47.0731 12.0261 46.8141 11.3999C46.555 10.7737 46.4875 10.0848 46.6199 9.4202C46.7523 8.75561 47.0787 8.14519 47.5579 7.66607C48.0371 7.18695 48.6476 6.86065 49.3122 6.72839C49.9769 6.59613 50.6658 6.66386 51.2919 6.92301C51.918 7.18216 52.4533 7.62111 52.83 8.18438C53.2068 8.74764 53.4081 9.40995 53.4085 10.0876C53.4074 10.997 53.0456 11.8688 52.4025 12.5117C51.7594 13.1547 50.8876 13.5163 49.9782 13.5172ZM49.9782 6.91062C49.3494 6.91121 48.735 7.09822 48.2125 7.44801C47.69 7.79781 47.283 8.29467 47.0429 8.87578C46.8028 9.45688 46.7404 10.0961 46.8636 10.7127C46.9867 11.3293 47.29 11.8955 47.735 12.3397C48.1799 12.784 48.7466 13.0863 49.3634 13.2085C49.9802 13.3306 50.6193 13.2672 51.2 13.0261C51.7807 12.7851 52.2769 12.3772 52.6259 11.8542C52.9748 11.3311 53.1608 10.7164 53.1604 10.0876C53.1587 9.24463 52.8228 8.43672 52.2262 7.84113C51.6296 7.24553 50.8212 6.91089 49.9782 6.91062Z" fill="#161616"/>
<path d="M73.8835 10.0875C73.8843 10.7412 73.6911 11.3805 73.3285 11.9245C72.9659 12.4685 72.4501 12.8927 71.8463 13.1435C71.2426 13.3943 70.578 13.4604 69.9367 13.3335C69.2954 13.2065 68.7061 12.8922 68.2435 12.4303C67.7808 11.9684 67.4655 11.3796 67.3375 10.7385C67.2096 10.0974 67.2746 9.43269 67.5244 8.82853C67.7742 8.22438 68.1976 7.70789 68.741 7.3444C69.2844 6.98092 69.9234 6.78676 70.5772 6.7865C71.4533 6.78599 72.2938 7.13344 72.9138 7.75244C73.5338 8.37145 73.8826 9.21134 73.8835 10.0875Z" fill="#161616"/>
<path d="M70.5771 13.5172C69.8995 13.5166 69.2372 13.3152 68.674 12.9383C68.1108 12.5614 67.672 12.0261 67.413 11.3999C67.154 10.7737 67.0864 10.0848 67.2188 9.4202C67.3512 8.75561 67.6776 8.14519 68.1569 7.66607C68.6361 7.18695 69.2466 6.86065 69.9112 6.72839C70.5758 6.59613 71.2647 6.66386 71.8908 6.92301C72.517 7.18216 73.0522 7.62111 73.429 8.18438C73.8057 8.74764 74.007 9.40995 74.0075 10.0876C74.0067 10.9971 73.645 11.8691 73.0019 12.5121C72.3587 13.1551 71.4866 13.5166 70.5771 13.5172ZM70.5771 6.91062C69.9484 6.91121 69.3339 7.09822 68.8114 7.44801C68.289 7.79781 67.8819 8.29467 67.6418 8.87578C67.4017 9.45688 67.3393 10.0961 67.4625 10.7127C67.5857 11.3293 67.8889 11.8955 68.3339 12.3397C68.7788 12.784 69.3455 13.0863 69.9623 13.2085C70.5791 13.3306 71.2182 13.2672 71.799 13.0261C72.3797 12.7851 72.8759 12.3772 73.2248 11.8542C73.5737 11.3311 73.7598 10.7164 73.7593 10.0876C73.758 9.24452 73.4222 8.43641 72.8255 7.84073C72.2289 7.24506 71.4202 6.91053 70.5771 6.91062Z" fill="#161616"/>
<path d="M63.5849 10.0875C63.586 10.7418 63.393 11.3817 63.0302 11.9262C62.6675 12.4708 62.1514 12.8955 61.5472 13.1466C60.943 13.3976 60.2779 13.4638 59.636 13.3367C58.9942 13.2097 58.4045 12.895 57.9415 12.4326C57.4786 11.9702 57.1633 11.3809 57.0354 10.7392C56.9076 10.0975 56.973 9.43235 57.2233 8.82785C57.4737 8.22335 57.8978 7.70671 58.4419 7.34333C58.986 6.97995 59.6257 6.78616 60.28 6.7865C61.1558 6.78649 61.9958 7.13415 62.6155 7.75308C63.2352 8.37202 63.5838 9.21162 63.5849 10.0875Z" fill="#161616"/>
<path d="M60.2801 13.5172C59.6024 13.5169 58.94 13.3157 58.3766 12.939C57.8132 12.5623 57.3741 12.0271 57.1149 11.4009C56.8557 10.7747 56.7879 10.0858 56.9201 9.42109C57.0523 8.75641 57.3787 8.14585 57.8578 7.66658C58.337 7.18732 58.9475 6.86087 59.6121 6.7285C60.2768 6.59612 60.9658 6.66376 61.592 6.92287C62.2182 7.18198 62.7536 7.62093 63.1304 8.18423C63.5072 8.74752 63.7085 9.40989 63.709 10.0876C63.7076 10.9966 63.3459 11.868 62.7032 12.5109C62.0604 13.1537 61.1891 13.5156 60.2801 13.5172ZM60.2801 6.91062C59.6513 6.91092 59.0366 7.09769 58.514 7.44731C57.9913 7.79693 57.5841 8.29369 57.3437 8.87477C57.1034 9.45585 57.0408 10.0952 57.1638 10.7118C57.2868 11.3285 57.59 11.8948 58.0349 12.3392C58.4798 12.7836 59.0465 13.0861 59.6633 13.2084C60.2801 13.3307 60.9193 13.2673 61.5001 13.0263C62.0809 12.7853 62.5772 12.3774 62.9262 11.8543C63.2752 11.3313 63.4613 10.7164 63.4608 10.0876C63.4589 9.24498 63.123 8.43745 62.5268 7.84196C61.9306 7.24647 61.1227 6.91156 60.2801 6.91062Z" fill="#161616"/>
<path d="M52.8049 99.6278H18.3041C17.3229 99.6276 16.3821 99.2376 15.6885 98.5437C14.9949 97.8499 14.6053 96.9089 14.6054 95.9278V32.8448C14.6056 31.864 14.9953 30.9234 15.689 30.23C16.3826 29.5365 17.3232 29.1469 18.3041 29.1469H63.1587C63.6445 29.1466 64.1256 29.2421 64.5745 29.4278C65.0234 29.6136 65.4312 29.8859 65.7748 30.2293C66.1184 30.5727 66.391 30.9805 66.577 31.4293C66.763 31.878 66.8587 32.3591 66.8587 32.8448V85.5748L52.8049 99.6278Z" fill="white"/>
<path d="M52.8049 100H18.3041C17.2246 99.9986 16.1897 99.5691 15.4265 98.8057C14.6633 98.0422 14.2341 97.0072 14.2331 95.9277V32.8448C14.2344 31.7656 14.6638 30.731 15.427 29.9679C16.1902 29.2049 17.2249 28.7758 18.3041 28.7747H63.1586C64.238 28.7756 65.2729 29.2047 66.0363 29.9677C66.7998 30.7308 67.2294 31.7655 67.2309 32.8448V85.5747C67.2309 85.6236 67.2212 85.672 67.2025 85.7172C67.1838 85.7623 67.1564 85.8033 67.1218 85.8379L53.068 99.8909C52.9982 99.9607 52.9036 100 52.8049 100ZM18.3041 29.5191C17.4223 29.52 16.5768 29.8706 15.9531 30.4941C15.3295 31.1176 14.9786 31.963 14.9775 32.8448V95.9277C14.9783 96.8099 15.329 97.6557 15.9527 98.2795C16.5763 98.9034 17.422 99.2544 18.3041 99.2556H52.6508L66.4864 85.4206V32.8448C66.4851 31.9628 66.1341 31.1174 65.5102 30.4939C64.8863 29.8704 64.0406 29.5198 63.1586 29.5191H18.3041Z" fill="#161616"/>
<path d="M52.8049 99.6277V88.7971C52.8054 87.9426 53.1451 87.1233 53.7493 86.519C54.3536 85.9148 55.1729 85.5752 56.0274 85.5747H66.8587L52.8049 99.6277Z" fill="white"/>
<path d="M52.8049 100C52.756 100 52.7076 99.9904 52.6625 99.9717C52.6173 99.953 52.5763 99.9255 52.5417 99.891C52.5071 99.8564 52.4797 99.8154 52.461 99.7702C52.4423 99.7251 52.4327 99.6767 52.4327 99.6278V88.7971C52.4338 87.8441 52.8129 86.9304 53.4868 86.2565C54.1608 85.5826 55.0745 85.2036 56.0276 85.2025H66.8587C66.9323 85.2025 67.0042 85.2243 67.0654 85.2652C67.1267 85.3061 67.1744 85.3643 67.2025 85.4323C67.2307 85.5003 67.2381 85.5751 67.2237 85.6473C67.2093 85.7195 67.1739 85.7858 67.1218 85.8379L53.0681 99.8909C53.0335 99.9255 52.9925 99.9529 52.9473 99.9716C52.9022 99.9904 52.8538 100 52.8049 100ZM56.0276 85.9469C55.2719 85.9478 54.5474 86.2483 54.013 86.7826C53.4786 87.317 53.178 88.0414 53.1771 88.7971V98.7292L65.9601 85.9469H56.0276Z" fill="#161616"/>
<path d="M58.9895 61.6206H21.4211C21.3224 61.6206 21.2277 61.5814 21.1579 61.5116C21.0881 61.4418 21.0489 61.3471 21.0489 61.2484C21.0489 61.1497 21.0881 61.055 21.1579 60.9852C21.2277 60.9154 21.3224 60.8762 21.4211 60.8762H58.9895C59.0882 60.8762 59.1829 60.9154 59.2527 60.9852C59.3225 61.055 59.3617 61.1497 59.3617 61.2484C59.3617 61.3471 59.3225 61.4418 59.2527 61.5116C59.1829 61.5814 59.0882 61.6206 58.9895 61.6206Z" fill="#161616"/>
<path d="M50.2249 70.3847H21.4211C21.3721 70.3849 21.3236 70.3754 21.2783 70.3567C21.233 70.3381 21.1918 70.3107 21.1571 70.2761C21.1224 70.2416 21.0948 70.2005 21.076 70.1552C21.0572 70.11 21.0476 70.0615 21.0476 70.0125C21.0476 69.9635 21.0572 69.915 21.076 69.8697C21.0948 69.8245 21.1224 69.7834 21.1571 69.7488C21.1918 69.7142 21.233 69.6868 21.2783 69.6682C21.3236 69.6496 21.3721 69.6401 21.4211 69.6403H50.2249C50.2739 69.6401 50.3224 69.6496 50.3677 69.6682C50.4131 69.6868 50.4542 69.7142 50.489 69.7488C50.5237 69.7834 50.5512 69.8245 50.57 69.8697C50.5888 69.915 50.5985 69.9635 50.5985 70.0125C50.5985 70.0615 50.5888 70.11 50.57 70.1552C50.5512 70.2005 50.5237 70.2416 50.489 70.2761C50.4542 70.3107 50.4131 70.3381 50.3677 70.3567C50.3224 70.3754 50.2739 70.3849 50.2249 70.3847Z" fill="#161616"/>
<path d="M58.9895 52.8556H21.4211C21.3224 52.8556 21.2277 52.8164 21.1579 52.7466C21.0881 52.6768 21.0489 52.5821 21.0489 52.4834C21.0489 52.3847 21.0881 52.29 21.1579 52.2202C21.2277 52.1504 21.3224 52.1112 21.4211 52.1112H58.9895C59.0882 52.1112 59.1829 52.1504 59.2527 52.2202C59.3225 52.29 59.3617 52.3847 59.3617 52.4834C59.3617 52.5821 59.3225 52.6768 59.2527 52.7466C59.1829 52.8164 59.0882 52.8556 58.9895 52.8556Z" fill="#161616"/>
<path d="M58.9895 44.0902H21.4211C21.3721 44.0904 21.3236 44.0809 21.2783 44.0623C21.233 44.0437 21.1918 44.0163 21.1571 43.9817C21.1224 43.9471 21.0948 43.906 21.076 43.8608C21.0572 43.8155 21.0476 43.767 21.0476 43.718C21.0476 43.669 21.0572 43.6205 21.076 43.5753C21.0948 43.53 21.1224 43.4889 21.1571 43.4544C21.1918 43.4198 21.233 43.3924 21.2783 43.3738C21.3236 43.3551 21.3721 43.3456 21.4211 43.3458H58.9895C59.088 43.3462 59.1823 43.3856 59.2518 43.4553C59.3213 43.5251 59.3603 43.6196 59.3603 43.718C59.3603 43.8165 59.3213 43.911 59.2518 43.9807C59.1823 44.0505 59.088 44.0899 58.9895 44.0902Z" fill="#161616"/>
</g>
<defs>
<clipPath id="clip0_23_99">
<rect width="81.4642" height="100" fill="white"/>
</clipPath>
</defs>
</svg>
