<svg width="120" height="100" viewBox="0 0 120 100" fill="none" xmlns="http://www.w3.org/2000/svg">
<g clip-path="url(#clip0_23_81)">
<path d="M73.9421 84.0994V75.577H46.3967V84.0994C46.396 86.3251 45.5816 88.4738 44.107 90.141C42.6324 91.8082 40.5992 92.8789 38.3902 93.1515V93.2259H81.9483V93.1515C79.7395 92.8784 77.7067 91.8076 76.2322 90.1405C74.7578 88.4734 73.9433 86.325 73.9421 84.0994Z" fill="#161616"/>
<path d="M82.3929 93.6705H37.9458V92.7581L38.3362 92.7101C40.437 92.4497 42.3704 91.4309 43.7729 89.8453C45.1754 88.2596 45.9503 86.2162 45.9521 84.0993V75.1326H74.3865V84.0993C74.3884 86.2162 75.1635 88.2595 76.5659 89.8452C77.9684 91.4308 79.9017 92.4496 82.0025 92.7101L82.3929 92.7581L82.3929 93.6705ZM41.2905 92.7816H79.0484C77.3921 92.0137 75.9896 90.7886 75.0062 89.2504C74.0228 87.7122 73.4994 85.925 73.4976 84.0993V76.0215H46.8411V84.0993C46.8393 85.925 46.3159 87.7121 45.3326 89.2503C44.3492 90.7885 42.9468 92.0137 41.2905 92.7816V92.7816Z" fill="#161616"/>
<path d="M119.431 76.6927C119.431 77.2792 119.316 77.86 119.091 78.402C118.867 78.9439 118.538 79.4362 118.123 79.851C117.708 80.2658 117.216 80.5948 116.674 80.8192C116.132 81.0437 115.551 81.1592 114.965 81.1591H5.37723C4.19247 81.1591 3.05621 80.6886 2.21827 79.8511C1.38034 79.0135 0.909332 77.8774 0.908814 76.6927V16.232C0.908693 15.6452 1.02419 15.064 1.2487 14.5218C1.47321 13.9796 1.80234 13.4869 2.21729 13.072C2.63224 12.657 3.12488 12.3278 3.66707 12.1032C4.20926 11.8787 4.79038 11.7631 5.37723 11.7632H114.965C115.552 11.7631 116.133 11.8786 116.675 12.1032C117.217 12.3278 117.709 12.657 118.124 13.072C118.539 13.487 118.868 13.9797 119.092 14.5219C119.316 15.0641 119.432 15.6452 119.431 16.232V76.6927Z" fill="#161616"/>
<path d="M114.965 81.6035H5.3773C4.075 81.6023 2.82637 81.0845 1.90531 80.1639C0.984261 79.2432 0.466003 77.9948 0.464233 76.6925L0.464233 16.232C0.465671 14.9293 0.983748 13.6805 1.90481 12.7594C2.82587 11.8383 4.07469 11.3201 5.3773 11.3186H114.965C116.267 11.3204 117.516 11.8387 118.436 12.7598C119.357 13.681 119.874 14.9296 119.876 16.232V76.6925C119.874 77.9945 119.356 79.2427 118.436 80.1634C117.515 81.0841 116.267 81.602 114.965 81.6035ZM5.3773 12.2075C4.31037 12.2088 3.2875 12.6332 2.53309 13.3877C1.77868 14.1421 1.35434 15.165 1.35315 16.232V76.6925C1.35467 77.7591 1.77919 78.7815 2.53359 79.5356C3.288 80.2896 4.31068 80.7136 5.3773 80.7146H114.965C116.031 80.7133 117.053 80.2891 117.807 79.5351C118.561 78.7811 118.986 77.7588 118.987 76.6925V16.232C118.986 15.1653 118.562 14.1426 117.808 13.3881C117.054 12.6336 116.031 12.2091 114.965 12.2075L5.3773 12.2075Z" fill="#161616"/>
<path d="M119.431 65.3772C119.431 66.5619 118.961 67.6982 118.123 68.536C117.286 69.3739 116.15 69.8449 114.965 69.8453H5.37723C4.19234 69.8448 3.05613 69.3739 2.21826 68.5361C1.38039 67.6983 0.909407 66.5621 0.908813 65.3772V4.91091C0.909488 3.7262 1.38055 2.59024 2.21845 1.7527C3.05635 0.915172 4.19252 0.444613 5.37723 0.444458H114.965C116.149 0.444544 117.285 0.915143 118.123 1.75275C118.961 2.59035 119.431 3.72636 119.431 4.91091V65.3772Z" fill="white"/>
<path d="M114.965 70.2898H5.3773C4.07481 70.2884 2.82606 69.7704 1.90501 68.8494C0.983949 67.9285 0.465802 66.6798 0.464233 65.3773L0.464233 4.9109C0.466011 3.60862 0.984277 2.36022 1.90533 1.43957C2.82639 0.518916 4.07502 0.00120239 5.3773 0H114.965C116.267 0.00148883 117.515 0.519368 118.436 1.44002C119.356 2.36068 119.874 3.60892 119.876 4.9109V65.3773C119.874 66.6795 119.357 67.928 118.436 68.849C117.515 69.7699 116.267 70.2881 114.965 70.2898ZM5.3773 0.88892C4.31069 0.889864 3.28801 1.31384 2.5336 2.06785C1.77919 2.82185 1.35467 3.84431 1.35315 4.91092V65.3773C1.35446 66.4441 1.77888 67.4669 2.53328 68.2212C3.28769 68.9755 4.31049 69.3997 5.3773 69.4009H114.965C116.031 69.3994 117.054 68.975 117.808 68.2207C118.562 67.4664 118.986 66.4438 118.987 65.3773V4.9109C118.986 3.84459 118.561 2.8223 117.807 2.06829C117.053 1.31428 116.031 0.890135 114.965 0.8889L5.3773 0.88892Z" fill="#161616"/>
<path d="M113.934 5.5072H6.40964V64.4801H113.934V5.5072Z" fill="#CCBA96"/>
<path d="M89.7852 96.9241C89.7849 97.6216 89.5078 98.2905 89.0147 98.7839C88.5217 99.2773 87.8529 99.5548 87.1554 99.5555H33.1859C32.4877 99.5552 31.8182 99.278 31.3241 98.7847C30.8301 98.2914 30.5519 97.6223 30.5505 96.9241V95.8581C30.5511 95.1596 30.829 94.4899 31.3232 93.9963C31.8174 93.5027 32.4874 93.2256 33.1859 93.226H87.1554C87.501 93.226 87.8431 93.2941 88.1623 93.4265C88.4815 93.5588 88.7715 93.7527 89.0157 93.9972C89.2599 94.2416 89.4536 94.5318 89.5856 94.8511C89.7176 95.1704 89.7855 95.5126 89.7852 95.8581V96.9241Z" fill="#161616"/>
<path d="M87.1555 100H33.1858C32.3698 99.9996 31.5873 99.6755 31.01 99.0989C30.4326 98.5222 30.1076 97.7401 30.1061 96.9241V95.8581C30.1075 95.042 30.4325 94.2598 31.0098 93.6831C31.5872 93.1063 32.3697 92.7821 33.1858 92.7816H87.1555C87.9708 92.7829 88.7524 93.1075 89.3287 93.6842C89.905 94.261 90.229 95.0428 90.2297 95.8581V96.9241C90.229 97.7394 89.9049 98.5211 89.3286 99.0977C88.7523 99.6744 87.9708 99.9989 87.1555 100ZM33.1858 93.6705C32.6054 93.6707 32.0488 93.9012 31.6381 94.3113C31.2273 94.7214 30.9961 95.2777 30.9951 95.8581V96.9241C30.9962 97.5044 31.2275 98.0606 31.6382 98.4706C32.0489 98.8807 32.6055 99.111 33.1858 99.1111H87.1555C87.7351 99.1102 88.2907 98.8795 88.7004 98.4695C89.11 98.0595 89.3403 97.5037 89.3408 96.9241V95.8581C89.3404 95.2784 89.1101 94.7226 88.7005 94.3124C88.2908 93.9023 87.7352 93.6715 87.1555 93.6705H33.1858Z" fill="#161616"/>
<path d="M82.1015 61.6049H34.1806C34.0627 61.6049 33.9497 61.5581 33.8664 61.4747C33.783 61.3914 33.7362 61.2783 33.7361 61.1605V10.6715C33.7361 10.5536 33.783 10.4406 33.8663 10.3572C33.9497 10.2739 34.0627 10.2271 34.1806 10.2271C34.2985 10.2271 34.4115 10.2739 34.4949 10.3572C34.5782 10.4406 34.6251 10.5536 34.6251 10.6715V60.716H82.1015C82.2194 60.716 82.3324 60.7628 82.4158 60.8462C82.4991 60.9296 82.5459 61.0426 82.5459 61.1605C82.5459 61.2784 82.4991 61.3914 82.4158 61.4748C82.3324 61.5581 82.2194 61.6049 82.1015 61.6049V61.6049Z" fill="#161616"/>
<path d="M46.6112 40.344H39.1749V55.9122H46.6112V40.344Z" fill="white"/>
<path d="M58.1871 44.4976H50.7471V55.9122H58.1871V44.4976Z" fill="white"/>
<path d="M69.7618 38.2681H62.3222V55.9122H69.7618V38.2681Z" fill="white"/>
<path d="M81.3348 32.041H73.8937V55.9122H81.3348V32.041Z" fill="white"/>
<path d="M70.6309 25.4809L76.0756 12.3257L62.9208 17.7693C68.9883 23.8379 64.5779 19.429 70.6309 25.4809Z" fill="white"/>
<path d="M70.6309 25.9254C70.5131 25.9253 70.4 25.8785 70.3167 25.7952C66.9838 22.4632 66.8229 22.302 66.3388 21.8174L62.6067 18.0837C62.555 18.032 62.5169 17.9683 62.4957 17.8983C62.4745 17.8284 62.4708 17.7543 62.4851 17.6826C62.4994 17.6109 62.5311 17.5438 62.5775 17.4873C62.6239 17.4308 62.6835 17.3866 62.751 17.3587L75.9057 11.9151C75.9869 11.8815 76.0762 11.8727 76.1624 11.8899C76.2486 11.9071 76.3277 11.9495 76.3899 12.0116C76.452 12.0738 76.4943 12.1529 76.5114 12.2391C76.5286 12.3253 76.5198 12.4146 76.4862 12.4958L71.0415 25.6509C71.008 25.7322 70.951 25.8016 70.8779 25.8505C70.8048 25.8993 70.7189 25.9254 70.6309 25.9254ZM63.7057 17.9257L66.9679 21.1892C67.428 21.6499 67.5958 21.818 70.4747 24.6962L75.2549 13.1464L63.7057 17.9257Z" fill="#161616"/>
<path d="M38.2601 35.0607C38.1722 35.0607 38.0863 35.0346 38.0132 34.9858C37.9401 34.937 37.8831 34.8676 37.8495 34.7863C37.8159 34.7051 37.8071 34.6158 37.8242 34.5296C37.8414 34.4434 37.8837 34.3642 37.9458 34.302L47.704 24.5433C47.7873 24.46 47.9003 24.4131 48.0182 24.4131C48.1361 24.4131 48.2491 24.46 48.3324 24.5433L55.6406 31.8525L65.9994 21.4942C66.0828 21.4108 66.1958 21.364 66.3137 21.364C66.372 21.364 66.4298 21.3755 66.4837 21.3978C66.5377 21.4202 66.5866 21.4529 66.6279 21.4942C66.6692 21.5354 66.7019 21.5844 66.7243 21.6384C66.7466 21.6923 66.7581 21.7501 66.7581 21.8084C66.7581 21.8668 66.7466 21.9246 66.7243 21.9785C66.7019 22.0324 66.6692 22.0814 66.6279 22.1227L55.9548 32.7953C55.8715 32.8787 55.7584 32.9255 55.6406 32.9256C55.5227 32.9255 55.4097 32.8787 55.3263 32.7953L48.0182 25.4862L38.5743 34.9305C38.5331 34.9719 38.4841 35.0046 38.4302 35.027C38.3763 35.0493 38.3184 35.0608 38.2601 35.0607Z" fill="#161616"/>
</g>
<defs>
<clipPath id="clip0_23_81">
<rect width="119.411" height="100" fill="white" transform="translate(0.464233)"/>
</clipPath>
</defs>
</svg>
