<svg width="41" height="50" viewBox="0 0 41 50" fill="none" xmlns="http://www.w3.org/2000/svg">
<path d="M31.8693 35.4256C30.7347 36.7178 29.3461 37.7623 27.7899 38.4939C27.0419 38.8407 26.2586 39.1054 25.4536 39.2834C24.6749 39.4544 23.88 39.5404 23.0828 39.5398C21.376 39.5539 19.6904 39.1606 18.1662 38.3923C17.002 37.8007 15.9326 37.0386 14.9935 36.1311C14.7059 35.8551 14.4255 35.5676 14.1568 35.2618C12.9712 33.9017 12.0489 32.333 11.437 30.6356C10.7784 28.8302 10.4479 26.9217 10.4609 25.0001C10.4499 23.0677 10.7803 21.1485 11.437 19.3311C12.0383 17.6286 12.9617 16.0578 14.1568 14.7043C14.4255 14.4038 14.7059 14.121 14.9935 13.8491V10.3906H4.38865C3.30147 12.0028 2.40237 13.7342 1.70893 15.5508C0.559877 18.58 -0.0193325 21.7954 0.000492199 25.0351C-0.0153529 28.2517 0.563868 31.4434 1.70893 34.4493C2.83521 37.4047 4.50248 40.1243 6.62532 42.4688C8.70638 44.8561 11.2744 46.7702 14.1568 48.0824C14.434 48.2074 14.7136 48.3212 14.9935 48.434C17.5633 49.474 20.3105 50.0058 23.0828 50C23.8747 50.0002 24.666 49.9585 25.4536 49.8751C27.7338 49.6356 29.9598 49.0257 32.0436 48.0693C34.9288 46.7283 37.5049 44.8043 39.6097 42.4186L31.8693 35.4256Z" fill="url(#paint0_linear_13_53)"/>
<path d="M38.9823 6.86968C37.1476 4.94782 34.9873 3.36579 32.6013 2.19675C29.6401 0.740973 26.3825 -0.0107953 23.0828 0.000117122C23.0695 0.000117122 23.0565 0.00111016 23.0432 0.001138V0.000117122H1.4648V10.8324H14.9935V36.1311C15.9326 37.0386 17.002 37.8007 18.1662 38.3923C19.6904 39.1605 21.376 39.5539 23.0828 39.5398C23.88 39.5404 24.6749 39.4544 25.4536 39.2834V10.6941C28.1046 11.2262 30.4059 12.6825 32.3574 15.0629L38.0132 10.3906L38.9823 9.59016L40.377 8.43795C39.9304 7.88731 39.4626 7.369 38.9823 6.86968Z" fill="white"/>
<defs>
<linearGradient id="paint0_linear_13_53" x1="19.8049" y1="10.3906" x2="19.8049" y2="50" gradientUnits="userSpaceOnUse">
<stop stop-color="#514938"/>
<stop offset="0.364583" stop-color="#A59679"/>
<stop offset="0.703125" stop-color="#CCBA96"/>
<stop offset="1" stop-color="#CCBA96"/>
</linearGradient>
</defs>
</svg>
