<svg width="65" height="76" viewBox="0 0 65 76" fill="none" xmlns="http://www.w3.org/2000/svg">
<path d="M44.2771 32.5862L27.6198 15.9281H5.34027L23.6553 34.1396H39.1948C41.0179 34.1422 42.7994 33.5949 44.3065 32.5692V32.5603C44.2969 32.568 44.2865 32.5796 44.2771 32.5862Z" fill="url(#paint0_linear_10_30)"/>
<path d="M61.8195 15.4076C60.5796 12.4912 58.8152 9.82709 56.6139 7.54743C54.4205 5.28785 51.8025 3.48362 48.9101 2.23828C45.9371 0.949362 42.7283 0.293271 39.488 0.311735H5.34014V15.9281H39.488C40.6419 15.908 41.7867 16.1344 42.846 16.5923C43.9054 17.0501 44.8547 17.7288 45.6307 18.583C45.6816 18.6371 45.7245 18.6947 45.7738 18.7495C47.3963 20.4392 48.3018 22.6913 48.3006 25.0338V25.0339C48.3005 26.2297 48.065 27.4137 47.6074 28.5185C47.1498 29.6233 46.4791 30.6271 45.6335 31.4726C44.788 32.3182 43.7842 32.9889 42.6794 33.4465C41.5746 33.9041 40.3905 34.1396 39.1948 34.1396H23.6553L23.6635 34.1478H0.863403V49.7052H39.488V49.6601C42.7284 49.6794 45.9373 49.0233 48.9101 47.7336C51.8031 46.4894 54.4213 44.6851 56.6139 42.4245C58.8158 40.1454 60.5803 37.4811 61.8195 34.5644C63.1121 31.5375 63.7678 28.2769 63.7456 24.9856C63.7674 21.6946 63.1118 18.4343 61.8195 15.4076Z" fill="white"/>
<path d="M39.0712 49.7643H39.4883V49.7054H16.8357L42.0909 75.0624L64.3701 74.9585L39.0712 49.7643Z" fill="url(#paint1_linear_10_30)"/>
<path d="M0.863281 49.7054V49.7643V74.9585H16.4797V49.7643L16.479 49.7054H0.863281Z" fill="url(#paint2_linear_10_30)"/>
<defs>
<linearGradient id="paint0_linear_10_30" x1="24.8234" y1="37.8647" x2="24.8234" y2="13.7936" gradientUnits="userSpaceOnUse">
<stop stop-color="white"/>
<stop offset="0.16002" stop-color="#E0E0E0"/>
<stop offset="0.51147" stop-color="#909090"/>
<stop offset="0.96342" stop-color="#212121"/>
</linearGradient>
<linearGradient id="paint1_linear_10_30" x1="40.6028" y1="84.8157" x2="40.6028" y2="46.6831" gradientUnits="userSpaceOnUse">
<stop stop-color="white"/>
<stop offset="0.14921" stop-color="#FCFCFC"/>
<stop offset="0.28072" stop-color="#F1F1F1"/>
<stop offset="0.40554" stop-color="#DFDFDF"/>
<stop offset="0.5263" stop-color="#C5C5C5"/>
<stop offset="0.64417" stop-color="#A4A4A4"/>
<stop offset="0.75982" stop-color="#7C7C7C"/>
<stop offset="0.87152" stop-color="#4D4D4D"/>
<stop offset="0.96342" stop-color="#212121"/>
</linearGradient>
<linearGradient id="paint2_linear_10_30" x1="8.67146" y1="84.6718" x2="8.67146" y2="46.6954" gradientUnits="userSpaceOnUse">
<stop stop-color="white"/>
<stop offset="0.14921" stop-color="#FCFCFC"/>
<stop offset="0.28072" stop-color="#F1F1F1"/>
<stop offset="0.40554" stop-color="#DFDFDF"/>
<stop offset="0.5263" stop-color="#C5C5C5"/>
<stop offset="0.64417" stop-color="#A4A4A4"/>
<stop offset="0.75982" stop-color="#7C7C7C"/>
<stop offset="0.87152" stop-color="#4D4D4D"/>
<stop offset="0.96342" stop-color="#212121"/>
</linearGradient>
</defs>
</svg>
