<svg width="91" height="189" viewBox="0 0 91 189" fill="none" xmlns="http://www.w3.org/2000/svg">
<path d="M83.4788 117.621C83.4788 148.908 64.8476 174.27 41.8649 174.27C18.8822 174.27 0.251038 148.908 0.251038 117.621C0.251038 86.3344 18.8822 76.959 41.8649 76.959C64.8476 76.959 83.4788 86.3344 83.4788 117.621Z" fill="url(#paint0_radial_109_805)"/>
<g style="mix-blend-mode:lighten">
<path style="mix-blend-mode:lighten" d="M83.4788 117.621C83.4788 148.908 64.8476 174.27 41.8649 174.27C18.8822 174.27 0.251038 148.908 0.251038 117.621C0.251038 86.3344 18.8822 76.959 41.8649 76.959C64.8476 76.959 83.4788 86.3344 83.4788 117.621Z" fill="url(#paint1_linear_109_805)"/>
</g>
<path d="M41.8649 110.177C57.5501 110.177 70.2656 102.835 70.2656 93.7795C70.2656 84.7236 57.5501 77.3823 41.8649 77.3823C26.1796 77.3823 13.4642 84.7236 13.4642 93.7795C13.4642 102.835 26.1796 110.177 41.8649 110.177Z" fill="#161616"/>
<path style="mix-blend-mode:lighten" opacity="0.5" d="M41.8649 110.177C57.5501 110.177 70.2656 102.835 70.2656 93.7795C70.2656 84.7236 57.5501 77.3823 41.8649 77.3823C26.1796 77.3823 13.4642 84.7236 13.4642 93.7795C13.4642 102.835 26.1796 110.177 41.8649 110.177Z" fill="url(#paint2_radial_109_805)"/>
<path d="M21.7822 86.5528C32.8732 80.1493 50.8556 80.1495 61.947 86.553C66.5283 89.198 69.2117 92.5222 70.0085 95.9639C71.1407 91.073 68.4572 85.9438 61.947 82.185C50.8556 75.7816 32.8731 75.7814 21.7822 82.1848C15.2723 85.943 12.5892 91.0719 13.7213 95.9629C14.518 92.5213 17.2013 89.1974 21.7822 86.5528Z" fill="url(#paint3_linear_109_805)"/>
<path opacity="0.4" d="M36.4744 2.11305C36.5834 2.0107 36.6597 1.87833 36.6935 1.73266C36.7273 1.58699 36.7171 1.43456 36.6643 1.29466C36.6115 1.15476 36.5183 1.03367 36.3967 0.946696C36.275 0.859721 36.1303 0.810777 35.9809 0.806043C35.8314 0.801309 35.6839 0.841 35.557 0.920102C35.4301 0.999204 35.3295 1.11416 35.2679 1.25043C35.2063 1.38671 35.1866 1.53819 35.2111 1.6857C35.2356 1.83322 35.3033 1.97016 35.4056 2.0792C35.5429 2.22539 35.7326 2.31109 35.933 2.31744C36.1334 2.32378 36.3282 2.25027 36.4744 2.11305Z" fill="#CCBA96"/>
<path d="M43.5154 97.0842C66.9555 97.0842 85.9574 78.0822 85.9574 54.6422C85.9574 31.2021 66.9555 12.2002 43.5154 12.2002C20.0753 12.2002 1.07343 31.2021 1.07343 54.6422C1.07343 78.0822 20.0753 97.0842 43.5154 97.0842Z" fill="url(#paint4_linear_109_805)"/>
<path d="M38.3672 148.163C47.2686 148.163 54.4846 140.947 54.4846 132.046C54.4846 123.144 47.2686 115.928 38.3672 115.928C29.4658 115.928 22.2497 123.144 22.2497 132.046C22.2497 140.947 29.4658 148.163 38.3672 148.163Z" fill="url(#paint5_radial_109_805)"/>
<g style="mix-blend-mode:lighten">
<path style="mix-blend-mode:lighten" d="M38.3672 148.163C47.2686 148.163 54.4846 140.947 54.4846 132.046C54.4846 123.144 47.2686 115.928 38.3672 115.928C29.4657 115.928 22.2497 123.144 22.2497 132.046C22.2497 140.947 29.4657 148.163 38.3672 148.163Z" fill="url(#paint6_linear_109_805)"/>
</g>
<path d="M46.1424 145.515C43.9942 146.746 41.586 147.453 39.1133 147.579C36.6407 147.704 34.1732 147.245 31.9112 146.239C27.8658 144.17 27.6787 140.491 31.4931 138.022C33.6413 136.792 36.0495 136.085 38.5221 135.959C40.9948 135.833 43.4622 136.292 45.7243 137.299C49.7696 139.368 49.9567 143.046 46.1424 145.515Z" fill="#161616"/>
<path style="mix-blend-mode:lighten" opacity="0.5" d="M46.1439 145.514C43.9956 146.745 41.5875 147.452 39.1148 147.578C36.6421 147.703 34.1747 147.244 31.9126 146.238C27.8673 144.169 27.6802 140.49 31.4947 138.021C33.6429 136.791 36.0511 136.084 38.5237 135.958C40.9964 135.832 43.4638 136.291 45.7258 137.298C49.7712 139.367 49.9582 143.045 46.1439 145.514Z" fill="url(#paint7_radial_109_805)"/>
<path d="M48.3542 139.58C47.8323 140.717 46.9741 141.668 45.8951 142.303C43.7469 143.533 41.3387 144.24 38.8661 144.366C36.3934 144.492 33.926 144.033 31.664 143.026C30.5911 142.527 29.6803 141.736 29.0356 140.744C28.2275 142.732 29.1953 144.848 31.9127 146.238C34.1747 147.244 36.6421 147.703 39.1148 147.578C41.5874 147.452 43.9956 146.745 46.1438 145.514C48.7862 143.804 49.5049 141.514 48.3542 139.58Z" fill="#CCBA96"/>
<path d="M54.5556 165.847C57.236 171.114 58.2259 185.389 52.9585 188.07C47.6912 190.75 38.1612 180.821 35.4807 175.553C34.8401 174.301 34.4529 172.934 34.3412 171.531C34.2294 170.128 34.3954 168.718 34.8296 167.379C35.2638 166.041 35.9577 164.801 36.8715 163.731C37.7854 162.661 38.9013 161.782 40.1553 161.144C41.4094 160.506 42.7769 160.121 44.1798 160.012C45.5826 159.903 46.9932 160.072 48.3308 160.509C49.6683 160.945 50.9066 161.642 51.9748 162.558C53.0429 163.474 53.9199 164.591 54.5556 165.847Z" fill="url(#paint8_radial_109_805)"/>
<g style="mix-blend-mode:lighten">
<path style="mix-blend-mode:lighten" d="M54.5556 165.847C57.236 171.114 58.2259 185.389 52.9585 188.07C47.6912 190.75 38.1612 180.821 35.4807 175.553C34.8401 174.301 34.4529 172.934 34.3412 171.531C34.2294 170.128 34.3954 168.718 34.8296 167.379C35.2638 166.041 35.9577 164.801 36.8715 163.731C37.7854 162.661 38.9013 161.782 40.1553 161.144C41.4094 160.506 42.7769 160.121 44.1798 160.012C45.5826 159.903 46.9932 160.072 48.3308 160.509C49.6683 160.945 50.9066 161.642 51.9748 162.558C53.0429 163.474 53.9199 164.591 54.5556 165.847Z" fill="url(#paint9_linear_109_805)"/>
</g>
<path d="M37.5135 163.79C38.6489 162.625 40.0429 161.745 41.5824 161.22C43.1218 160.695 44.7633 160.54 46.3737 160.768C49.3022 161.347 50.0832 163.637 48.1183 165.884C46.9829 167.048 45.5889 167.929 44.0494 168.454C42.51 168.979 40.8684 169.133 39.258 168.905C36.3297 168.327 35.5487 166.037 37.5135 163.79Z" fill="#161616"/>
<path style="mix-blend-mode:lighten" opacity="0.5" d="M37.5135 163.79C38.6489 162.625 40.0429 161.745 41.5824 161.22C43.1218 160.695 44.7633 160.54 46.3737 160.768C49.3022 161.347 50.0832 163.637 48.1183 165.884C46.9829 167.048 45.5889 167.929 44.0494 168.454C42.51 168.979 40.8684 169.133 39.258 168.905C36.3297 168.327 35.5487 166.037 37.5135 163.79Z" fill="url(#paint10_radial_109_805)"/>
<path d="M37.1863 167.937C37.3111 167.124 37.682 166.369 38.2493 165.774C39.3847 164.609 40.7787 163.729 42.3181 163.204C43.8576 162.679 45.4991 162.524 47.1095 162.752C47.8772 162.874 48.5951 163.21 49.1812 163.721C49.3336 162.319 48.3408 161.157 46.3737 160.768C44.7634 160.54 43.1218 160.695 41.5824 161.22C40.043 161.745 38.649 162.625 37.5135 163.79C36.1524 165.346 36.1109 166.922 37.1863 167.937Z" fill="url(#paint11_linear_109_805)"/>
<path d="M87.6248 34.6438C83.5064 34.6045 80.5086 34.5988 79.5403 34.5435C79.3215 34.5086 79.0973 34.5362 78.8935 34.623C78.6897 34.7099 78.5145 34.8524 78.3881 35.0344C78.1819 35.4117 78.0385 35.82 77.9635 36.2434C77.8305 36.7626 77.7607 37.1647 77.7104 37.464C77.5857 38.2053 77.4438 38.9396 77.3279 39.6843C77.169 40.7064 76.9885 41.8542 76.7588 43.3043C76.3558 46.0784 76.1049 48.8725 76.0072 51.6741C75.8949 53.806 75.745 56.7776 75.8747 60.6729C76.0069 64.2446 76.3838 67.8031 77.0027 71.3233C77.3506 73.6113 77.8598 76.4823 78.7417 76.6179C78.7724 76.6226 78.8036 76.624 78.8346 76.622C78.8346 76.622 84.6545 76.6238 86.6327 76.4835C86.8636 62.542 87.394 48.5851 87.6248 34.6438Z" fill="url(#paint12_linear_109_805)"/>
<path d="M89.8858 55.6072C90.1543 44.0421 89.1388 34.638 87.6175 34.6027C86.0963 34.5674 84.6454 43.9142 84.377 55.4793C84.1085 67.0445 85.124 76.4486 86.6453 76.4839C88.1665 76.5192 89.6174 67.1724 89.8858 55.6072Z" fill="url(#paint13_linear_109_805)"/>
<path d="M89.6892 55.6024C89.9385 44.8629 88.9955 36.1303 87.5828 36.0975C86.1702 36.0647 84.8229 44.7442 84.5736 55.4836C84.3243 66.2231 85.2674 74.9558 86.68 74.9886C88.0926 75.0214 89.4399 66.3419 89.6892 55.6024Z" fill="url(#paint14_radial_109_805)"/>
<path d="M89.3949 55.5958C89.6155 46.0921 88.781 38.3643 87.5309 38.3353C86.2808 38.3063 85.0885 45.9871 84.8679 55.4908C84.6473 64.9945 85.4818 72.7223 86.7319 72.7513C87.982 72.7803 89.1742 65.0995 89.3949 55.5958Z" fill="#36322C"/>
<path d="M89.3949 55.5958C89.6155 46.0921 88.781 38.3643 87.5309 38.3353C86.2808 38.3063 85.0885 45.9871 84.8679 55.4908C84.6473 64.9945 85.4818 72.7223 86.7319 72.7513C87.982 72.7803 89.1742 65.0995 89.3949 55.5958Z" fill="#36322C"/>
<path d="M88.0686 55.5651C88.16 51.6299 87.8144 48.43 87.2968 48.418C86.7792 48.406 86.2855 51.5864 86.1942 55.5216C86.1028 59.4568 86.4484 62.6567 86.966 62.6687C87.4836 62.6807 87.9773 59.5004 88.0686 55.5651Z" fill="#857861"/>
<path d="M87.9101 55.5613C87.986 52.2917 87.6989 49.633 87.2689 49.623C86.8388 49.6131 86.4286 52.2555 86.3527 55.5251C86.2768 58.7948 86.5639 61.4534 86.994 61.4634C87.4241 61.4734 87.8342 58.8309 87.9101 55.5613Z" fill="url(#paint15_radial_109_805)"/>
<defs>
<radialGradient id="paint0_radial_109_805" cx="0" cy="0" r="1" gradientUnits="userSpaceOnUse" gradientTransform="translate(66.4181 109.132) scale(71.5157 97.3518)">
<stop stop-color="#CCB078"/>
<stop offset="1" stop-color="#7A5623"/>
</radialGradient>
<linearGradient id="paint1_linear_109_805" x1="41.8649" y1="174.27" x2="41.8649" y2="76.959" gradientUnits="userSpaceOnUse">
<stop stop-color="#CCBA96"/>
<stop offset="0.03104" stop-color="#C8B58F"/>
<stop offset="0.21135" stop-color="#B1996E"/>
<stop offset="0.39654" stop-color="#A08454"/>
<stop offset="0.58635" stop-color="#947442"/>
<stop offset="0.78358" stop-color="#8C6B37"/>
<stop offset="1" stop-color="#8A6833"/>
</linearGradient>
<radialGradient id="paint2_radial_109_805" cx="0" cy="0" r="1" gradientUnits="userSpaceOnUse" gradientTransform="translate(40.762 109.535) scale(55.3547 55.3547)">
<stop stop-color="#CCBA96"/>
<stop offset="0.01294" stop-color="#C7B592"/>
<stop offset="0.13887" stop-color="#988B72"/>
<stop offset="0.26915" stop-color="#706755"/>
<stop offset="0.4021" stop-color="#4F4A3E"/>
<stop offset="0.53847" stop-color="#36332D"/>
<stop offset="0.6796" stop-color="#242320"/>
<stop offset="0.82862" stop-color="#191918"/>
<stop offset="0.99861" stop-color="#161616"/>
</radialGradient>
<linearGradient id="paint3_linear_109_805" x1="13.4694" y1="86.6731" x2="70.2605" y2="86.6731" gradientUnits="userSpaceOnUse">
<stop stop-color="#7A6342"/>
<stop offset="0.01089" stop-color="#7D6645"/>
<stop offset="0.16114" stop-color="#9F8A68"/>
<stop offset="0.30146" stop-color="#B8A581"/>
<stop offset="0.42691" stop-color="#C7B491"/>
<stop offset="0.52494" stop-color="#CCBA96"/>
<stop offset="0.61161" stop-color="#C6B390"/>
<stop offset="0.73313" stop-color="#B5A17E"/>
<stop offset="0.87455" stop-color="#998361"/>
<stop offset="1" stop-color="#7A6342"/>
</linearGradient>
<linearGradient id="paint4_linear_109_805" x1="37.6079" y1="96.6764" x2="49.4229" y2="12.608" gradientUnits="userSpaceOnUse">
<stop stop-color="#7A5623"/>
<stop offset="0.05828" stop-color="#7B5929"/>
<stop offset="0.44262" stop-color="#826E4B"/>
<stop offset="0.74682" stop-color="#C5BCAC"/>
<stop offset="1" stop-color="white"/>
</linearGradient>
<radialGradient id="paint5_radial_109_805" cx="0" cy="0" r="1" gradientUnits="userSpaceOnUse" gradientTransform="translate(-16033.4 13701.1) rotate(113.286) scale(549.775 549.775)">
<stop stop-color="#CCB078"/>
<stop offset="1" stop-color="#7A5623"/>
</radialGradient>
<linearGradient id="paint6_linear_109_805" x1="31.8729" y1="117.28" x2="44.9392" y2="146.746" gradientUnits="userSpaceOnUse">
<stop stop-color="#CCB078"/>
<stop offset="0.177" stop-color="#B0915B"/>
<stop offset="0.36933" stop-color="#987742"/>
<stop offset="0.56767" stop-color="#876531"/>
<stop offset="0.77384" stop-color="#7D5A26"/>
<stop offset="1" stop-color="#7A5623"/>
</linearGradient>
<radialGradient id="paint7_radial_109_805" cx="0" cy="0" r="1" gradientUnits="userSpaceOnUse" gradientTransform="translate(39.3079 137.859) rotate(57.0881) scale(30.0304 30.0304)">
<stop offset="0.00122" stop-color="#CCBA96"/>
<stop offset="0.01416" stop-color="#C7B592"/>
<stop offset="0.14011" stop-color="#988B72"/>
<stop offset="0.27041" stop-color="#706755"/>
<stop offset="0.40339" stop-color="#4F4A3E"/>
<stop offset="0.53978" stop-color="#36332D"/>
<stop offset="0.68093" stop-color="#242320"/>
<stop offset="0.82998" stop-color="#191918"/>
<stop offset="1" stop-color="#161616"/>
</radialGradient>
<radialGradient id="paint8_radial_109_805" cx="0" cy="0" r="1" gradientUnits="userSpaceOnUse" gradientTransform="translate(46.1556 162.21) rotate(-26.9697) scale(30.3994 30.3994)">
<stop stop-color="#CCBA96"/>
<stop offset="1" stop-color="#7A5623"/>
</radialGradient>
<linearGradient id="paint9_linear_109_805" x1="42.3502" y1="186.318" x2="49.5659" y2="160.871" gradientUnits="userSpaceOnUse">
<stop stop-color="#CCBA96"/>
<stop offset="0.09577" stop-color="#BCA67F"/>
<stop offset="0.26404" stop-color="#A48A5E"/>
<stop offset="0.43689" stop-color="#927344"/>
<stop offset="0.61402" stop-color="#846332"/>
<stop offset="0.7981" stop-color="#7D5927"/>
<stop offset="1" stop-color="#7A5623"/>
</linearGradient>
<radialGradient id="paint10_radial_109_805" cx="0" cy="0" r="1" gradientUnits="userSpaceOnUse" gradientTransform="translate(43.1904 167.369) rotate(-138.833) scale(19.7284 19.7284)">
<stop stop-color="#CCBA96"/>
<stop offset="0.01296" stop-color="#C7B592"/>
<stop offset="0.13906" stop-color="#988B72"/>
<stop offset="0.26952" stop-color="#706755"/>
<stop offset="0.40266" stop-color="#4F4A3E"/>
<stop offset="0.53922" stop-color="#36332D"/>
<stop offset="0.68055" stop-color="#242320"/>
<stop offset="0.82977" stop-color="#191918"/>
<stop offset="1" stop-color="#161616"/>
</radialGradient>
<linearGradient id="paint11_linear_109_805" x1="36.431" y1="164.286" x2="49.1964" y2="164.286" gradientUnits="userSpaceOnUse">
<stop stop-color="#7A5623"/>
<stop offset="0.02141" stop-color="#7F5C29"/>
<stop offset="0.16858" stop-color="#A1804B"/>
<stop offset="0.30603" stop-color="#B89B64"/>
<stop offset="0.42891" stop-color="#C7AA73"/>
<stop offset="0.52494" stop-color="#CCB078"/>
<stop offset="0.6097" stop-color="#C6A972"/>
<stop offset="0.72857" stop-color="#B59761"/>
<stop offset="0.8669" stop-color="#9A7944"/>
<stop offset="1" stop-color="#7A5623"/>
</linearGradient>
<linearGradient id="paint12_linear_109_805" x1="81.7247" y1="76.6228" x2="81.7247" y2="34.537" gradientUnits="userSpaceOnUse">
<stop stop-color="#7C5B2B"/>
<stop offset="0.1993" stop-color="#806942"/>
<stop offset="0.31254" stop-color="#938060"/>
<stop offset="0.69234" stop-color="#CFC9C1"/>
<stop offset="0.76229" stop-color="#CAC3B9"/>
<stop offset="0.87253" stop-color="#BCB2A2"/>
<stop offset="1" stop-color="#A79980"/>
</linearGradient>
<linearGradient id="paint13_linear_109_805" x1="84.3339" y1="55.5433" x2="89.9289" y2="55.5433" gradientUnits="userSpaceOnUse">
<stop stop-color="#7A6342"/>
<stop offset="0.1993" stop-color="#82755F"/>
<stop offset="0.50122" stop-color="#CDC8C0"/>
<stop offset="0.69234" stop-color="white"/>
<stop offset="0.89595" stop-color="#82755F"/>
<stop offset="1" stop-color="#7A6342"/>
</linearGradient>
<radialGradient id="paint14_radial_109_805" cx="0" cy="0" r="1" gradientUnits="userSpaceOnUse" gradientTransform="translate(87.131 55.5435) rotate(3.31397) scale(29.1783 13.7722)">
<stop stop-color="#CCBA96"/>
<stop offset="0.1903" stop-color="#C7B592"/>
<stop offset="0.41817" stop-color="#B8A887"/>
<stop offset="0.66426" stop-color="#A09176"/>
<stop offset="0.90168" stop-color="#82755F"/>
<stop offset="0.92868" stop-color="#7E6C50"/>
<stop offset="0.96196" stop-color="#7B6545"/>
<stop offset="1" stop-color="#7A6342"/>
</radialGradient>
<radialGradient id="paint15_radial_109_805" cx="0" cy="0" r="1" gradientUnits="userSpaceOnUse" gradientTransform="translate(87.1312 55.5426) rotate(-90.0001) scale(4.27608 0.822681)">
<stop stop-color="#C7B592"/>
<stop offset="0.23416" stop-color="#BDAB8A"/>
<stop offset="0.63802" stop-color="#A09176"/>
<stop offset="1" stop-color="#82755F"/>
</radialGradient>
</defs>
</svg>
