<svg width="91" height="177" viewBox="0 0 91 177" fill="none" xmlns="http://www.w3.org/2000/svg">
<path d="M7.25105 105.621C7.25105 136.908 25.8822 162.27 48.8649 162.27C71.8476 162.27 90.4788 136.908 90.4788 105.621C90.4788 74.3344 71.8476 64.959 48.8649 64.959C25.8822 64.959 7.25105 74.3344 7.25105 105.621Z" fill="url(#paint0_radial_109_868)"/>
<g style="mix-blend-mode:lighten">
<path style="mix-blend-mode:lighten" d="M7.25105 105.621C7.25105 136.908 25.8822 162.27 48.8649 162.27C71.8476 162.27 90.4788 136.908 90.4788 105.621C90.4788 74.3344 71.8476 64.959 48.8649 64.959C25.8822 64.959 7.25105 74.3344 7.25105 105.621Z" fill="url(#paint1_linear_109_868)"/>
</g>
<path d="M48.8649 98.1772C33.1796 98.1772 20.4642 90.8359 20.4642 81.78C20.4642 72.7241 33.1796 65.3828 48.8649 65.3828C64.5501 65.3828 77.2656 72.7241 77.2656 81.78C77.2656 90.8359 64.5501 98.1772 48.8649 98.1772Z" fill="#161616"/>
<path style="mix-blend-mode:lighten" opacity="0.5" d="M48.8649 98.1772C33.1796 98.1772 20.4642 90.8359 20.4642 81.78C20.4642 72.7241 33.1796 65.3828 48.8649 65.3828C64.5501 65.3828 77.2656 72.7241 77.2656 81.78C77.2656 90.8359 64.5501 98.1772 48.8649 98.1772Z" fill="url(#paint2_radial_109_868)"/>
<path d="M68.9476 74.5533C57.8566 68.1498 39.8742 68.15 28.7829 74.5535C24.2015 77.1985 21.5181 80.5227 20.7214 83.9644C19.5891 79.0735 22.2726 73.9443 28.7829 70.1855C39.8742 63.782 57.8567 63.7819 68.9476 70.1853C75.4575 73.9435 78.1407 79.0724 77.0085 83.9634C76.2118 80.5218 73.5285 77.1979 68.9476 74.5533Z" fill="url(#paint3_linear_109_868)"/>
<path d="M47.2144 85.0847C23.7743 85.0847 4.77239 66.0827 4.77239 42.6427C4.77239 19.2026 23.7743 0.200684 47.2144 0.200684C70.6544 0.200684 89.6564 19.2026 89.6564 42.6427C89.6564 66.0827 70.6544 85.0847 47.2144 85.0847Z" fill="url(#paint4_linear_109_868)"/>
<path d="M52.3626 136.164C43.4612 136.164 36.2452 128.948 36.2452 120.046C36.2452 111.145 43.4612 103.929 52.3626 103.929C61.264 103.929 68.48 111.145 68.48 120.046C68.48 128.948 61.264 136.164 52.3626 136.164Z" fill="url(#paint5_radial_109_868)"/>
<g style="mix-blend-mode:lighten">
<path style="mix-blend-mode:lighten" d="M52.3626 136.164C43.4612 136.164 36.2452 128.948 36.2452 120.046C36.2452 111.145 43.4612 103.929 52.3626 103.929C61.264 103.929 68.48 111.145 68.48 120.046C68.48 128.948 61.264 136.164 52.3626 136.164Z" fill="url(#paint6_linear_109_868)"/>
</g>
<path d="M44.5874 133.515C46.7357 134.746 49.1438 135.453 51.6165 135.579C54.0892 135.705 56.5566 135.246 58.8187 134.239C62.864 132.17 63.0512 128.492 59.2367 126.023C57.0885 124.792 54.6803 124.085 52.2077 123.959C49.7351 123.834 47.2676 124.293 45.0056 125.299C40.9602 127.368 40.7731 131.047 44.5874 133.515Z" fill="#161616"/>
<path style="mix-blend-mode:lighten" opacity="0.5" d="M44.5859 133.514C46.7341 134.745 49.1423 135.452 51.615 135.578C54.0877 135.704 56.5551 135.245 58.8172 134.238C62.8625 132.169 63.0496 128.491 59.2351 126.022C57.0869 124.791 54.6787 124.084 52.2061 123.958C49.7334 123.833 47.266 124.292 45.004 125.298C40.9586 127.367 40.7716 131.046 44.5859 133.514Z" fill="url(#paint7_radial_109_868)"/>
<path d="M42.3756 127.58C42.8975 128.718 43.7558 129.668 44.8347 130.303C46.9829 131.534 49.3911 132.241 51.8637 132.367C54.3364 132.492 56.8038 132.033 59.0659 131.027C60.1387 130.528 61.0495 129.737 61.6942 128.745C62.5023 130.733 61.5345 132.848 58.8172 134.238C56.5551 135.245 54.0877 135.704 51.615 135.578C49.1424 135.452 46.7342 134.745 44.586 133.514C41.9437 131.804 41.2249 129.514 42.3756 127.58Z" fill="#CCBA96"/>
<path d="M36.1742 153.847C33.4938 159.114 32.5039 173.39 37.7713 176.07C43.0386 178.75 52.5686 168.821 55.2491 163.554C55.8897 162.301 56.2769 160.934 56.3886 159.532C56.5004 158.129 56.3344 156.718 55.9002 155.38C55.466 154.041 54.7721 152.802 53.8583 151.732C52.9444 150.662 51.8285 149.783 50.5745 149.144C49.3204 148.506 47.9529 148.122 46.55 148.013C45.1472 147.904 43.7366 148.072 42.399 148.509C41.0615 148.946 39.8232 149.642 38.755 150.558C37.6869 151.474 36.8099 152.592 36.1742 153.847Z" fill="url(#paint8_radial_109_868)"/>
<g style="mix-blend-mode:lighten">
<path style="mix-blend-mode:lighten" d="M36.1742 153.847C33.4938 159.114 32.5039 173.39 37.7713 176.07C43.0386 178.75 52.5686 168.821 55.2491 163.554C55.8897 162.301 56.2769 160.934 56.3886 159.532C56.5004 158.129 56.3344 156.718 55.9002 155.38C55.466 154.041 54.7721 152.802 53.8583 151.732C52.9444 150.662 51.8285 149.783 50.5745 149.144C49.3204 148.506 47.9529 148.122 46.55 148.013C45.1472 147.904 43.7366 148.072 42.399 148.509C41.0615 148.946 39.8232 149.642 38.755 150.558C37.6869 151.474 36.8099 152.592 36.1742 153.847Z" fill="url(#paint9_linear_109_868)"/>
</g>
<path d="M53.2163 151.79C52.0809 150.626 50.6869 149.745 49.1475 149.22C47.608 148.695 45.9665 148.541 44.3561 148.769C41.4277 149.347 40.6466 151.637 42.6115 153.884C43.7469 155.049 45.1409 155.929 46.6804 156.454C48.2199 156.979 49.8614 157.134 51.4718 156.906C54.4002 156.327 55.1811 154.037 53.2163 151.79Z" fill="#161616"/>
<path style="mix-blend-mode:lighten" opacity="0.5" d="M53.2163 151.79C52.0809 150.626 50.6869 149.745 49.1475 149.22C47.608 148.695 45.9665 148.541 44.3561 148.769C41.4277 149.347 40.6466 151.637 42.6115 153.884C43.7469 155.049 45.1409 155.929 46.6804 156.454C48.2199 156.979 49.8614 157.134 51.4718 156.906C54.4002 156.327 55.1811 154.037 53.2163 151.79Z" fill="url(#paint10_radial_109_868)"/>
<path d="M53.5435 155.938C53.4187 155.125 53.0478 154.37 52.4805 153.774C51.3451 152.61 49.9511 151.729 48.4117 151.204C46.8722 150.679 45.2307 150.525 43.6203 150.753C42.8526 150.875 42.1347 151.21 41.5486 151.721C41.3962 150.32 42.389 149.157 44.3561 148.769C45.9664 148.541 47.608 148.695 49.1474 149.22C50.6868 149.745 52.0808 150.626 53.2163 151.79C54.5774 153.347 54.6189 154.923 53.5435 155.938Z" fill="url(#paint11_linear_109_868)"/>
<path d="M3.10495 22.6443C7.22344 22.605 10.2212 22.5993 11.1895 22.544C11.4083 22.5091 11.6325 22.5367 11.8363 22.6235C12.0401 22.7104 12.2153 22.8529 12.3417 23.0349C12.5479 23.4122 12.6913 23.8205 12.7663 24.2439C12.8993 24.7631 12.9691 25.1651 13.0194 25.4645C13.1441 26.2058 13.286 26.94 13.4019 27.6848C13.5608 28.7069 13.7413 29.8547 13.971 31.3048C14.374 34.0789 14.6249 36.873 14.7226 39.6746C14.8349 41.8064 14.9848 44.7781 14.8551 48.6733C14.7229 52.2451 14.346 55.8036 13.7271 59.3238C13.3792 61.6118 12.87 64.4828 11.9881 64.6183C11.9574 64.6231 11.9262 64.6245 11.8952 64.6225C11.8952 64.6225 6.07535 64.6242 4.09713 64.4839C3.86623 50.5425 3.33584 36.5856 3.10495 22.6443Z" fill="url(#paint12_linear_109_868)"/>
<path d="M0.843947 43.6072C0.575467 32.0421 1.59103 22.638 3.11226 22.6027C4.6335 22.5674 6.08435 31.9142 6.35283 43.4793C6.62131 55.0445 5.60575 64.4486 4.08452 64.4839C2.56328 64.5192 1.11243 55.1724 0.843947 43.6072Z" fill="url(#paint13_linear_109_868)"/>
<path d="M1.04059 43.6029C0.791275 32.8634 1.73433 24.1308 3.14697 24.098C4.5596 24.0652 5.90687 32.7447 6.15618 43.4841C6.4055 54.2236 5.46244 62.9563 4.04981 62.9891C2.63717 63.0219 1.2899 54.3424 1.04059 43.6029Z" fill="url(#paint14_radial_109_868)"/>
<path d="M1.33493 43.5963C1.11431 34.0926 1.94885 26.3648 3.19893 26.3358C4.44901 26.3068 5.64125 33.9875 5.86188 43.4912C6.0825 52.9949 5.24796 60.7227 3.99788 60.7518C2.7478 60.7808 1.55556 53.1 1.33493 43.5963Z" fill="#36322C"/>
<path d="M1.33493 43.5963C1.11431 34.0926 1.94885 26.3648 3.19893 26.3358C4.44901 26.3068 5.64125 33.9875 5.86188 43.4912C6.0825 52.9949 5.24796 60.7227 3.99788 60.7518C2.7478 60.7808 1.55556 53.1 1.33493 43.5963Z" fill="#36322C"/>
<path d="M2.66115 43.5656C2.5698 39.6304 2.91535 36.4305 3.43298 36.4185C3.9506 36.4065 4.44428 39.5869 4.53564 43.5221C4.62699 47.4573 4.28142 50.6572 3.7638 50.6692C3.24618 50.6812 2.75251 47.5008 2.66115 43.5656Z" fill="#857861"/>
<path d="M2.81967 43.5618C2.74377 40.2922 3.03087 37.6335 3.46095 37.6235C3.89102 37.6136 4.30119 40.256 4.37709 43.5256C4.45299 46.7952 4.16589 49.4539 3.73582 49.4639C3.30574 49.4739 2.89557 46.8314 2.81967 43.5618Z" fill="url(#paint15_radial_109_868)"/>
<defs>
<radialGradient id="paint0_radial_109_868" cx="0" cy="0" r="1" gradientUnits="userSpaceOnUse" gradientTransform="translate(24.3117 97.1318) rotate(180) scale(71.5157 97.3518)">
<stop stop-color="#CCB078"/>
<stop offset="1" stop-color="#7A5623"/>
</radialGradient>
<linearGradient id="paint1_linear_109_868" x1="48.8649" y1="162.27" x2="48.8649" y2="64.959" gradientUnits="userSpaceOnUse">
<stop stop-color="#CCBA96"/>
<stop offset="0.03104" stop-color="#C8B58F"/>
<stop offset="0.21135" stop-color="#B1996E"/>
<stop offset="0.39654" stop-color="#A08454"/>
<stop offset="0.58635" stop-color="#947442"/>
<stop offset="0.78358" stop-color="#8C6B37"/>
<stop offset="1" stop-color="#8A6833"/>
</linearGradient>
<radialGradient id="paint2_radial_109_868" cx="0" cy="0" r="1" gradientUnits="userSpaceOnUse" gradientTransform="translate(49.9678 97.5354) rotate(180) scale(55.3547 55.3547)">
<stop stop-color="#CCBA96"/>
<stop offset="0.01294" stop-color="#C7B592"/>
<stop offset="0.13887" stop-color="#988B72"/>
<stop offset="0.26915" stop-color="#706755"/>
<stop offset="0.4021" stop-color="#4F4A3E"/>
<stop offset="0.53847" stop-color="#36332D"/>
<stop offset="0.6796" stop-color="#242320"/>
<stop offset="0.82862" stop-color="#191918"/>
<stop offset="0.99861" stop-color="#161616"/>
</radialGradient>
<linearGradient id="paint3_linear_109_868" x1="77.2604" y1="74.6736" x2="20.4694" y2="74.6736" gradientUnits="userSpaceOnUse">
<stop stop-color="#7A6342"/>
<stop offset="0.01089" stop-color="#7D6645"/>
<stop offset="0.16114" stop-color="#9F8A68"/>
<stop offset="0.30146" stop-color="#B8A581"/>
<stop offset="0.42691" stop-color="#C7B491"/>
<stop offset="0.52494" stop-color="#CCBA96"/>
<stop offset="0.61161" stop-color="#C6B390"/>
<stop offset="0.73313" stop-color="#B5A17E"/>
<stop offset="0.87455" stop-color="#998361"/>
<stop offset="1" stop-color="#7A6342"/>
</linearGradient>
<linearGradient id="paint4_linear_109_868" x1="53.1219" y1="84.6769" x2="41.3069" y2="0.608513" gradientUnits="userSpaceOnUse">
<stop stop-color="#7A5623"/>
<stop offset="0.05828" stop-color="#7B5929"/>
<stop offset="0.44262" stop-color="#826E4B"/>
<stop offset="0.74682" stop-color="#C5BCAC"/>
<stop offset="1" stop-color="white"/>
</linearGradient>
<radialGradient id="paint5_radial_109_868" cx="0" cy="0" r="1" gradientUnits="userSpaceOnUse" gradientTransform="translate(16124.2 13689.1) rotate(66.7144) scale(549.775 549.775)">
<stop stop-color="#CCB078"/>
<stop offset="1" stop-color="#7A5623"/>
</radialGradient>
<linearGradient id="paint6_linear_109_868" x1="58.8569" y1="105.28" x2="45.7905" y2="134.747" gradientUnits="userSpaceOnUse">
<stop stop-color="#CCB078"/>
<stop offset="0.177" stop-color="#B0915B"/>
<stop offset="0.36933" stop-color="#987742"/>
<stop offset="0.56767" stop-color="#876531"/>
<stop offset="0.77384" stop-color="#7D5A26"/>
<stop offset="1" stop-color="#7A5623"/>
</linearGradient>
<radialGradient id="paint7_radial_109_868" cx="0" cy="0" r="1" gradientUnits="userSpaceOnUse" gradientTransform="translate(51.4219 125.86) rotate(122.912) scale(30.0304 30.0304)">
<stop offset="0.00122" stop-color="#CCBA96"/>
<stop offset="0.01416" stop-color="#C7B592"/>
<stop offset="0.14011" stop-color="#988B72"/>
<stop offset="0.27041" stop-color="#706755"/>
<stop offset="0.40339" stop-color="#4F4A3E"/>
<stop offset="0.53978" stop-color="#36332D"/>
<stop offset="0.68093" stop-color="#242320"/>
<stop offset="0.82998" stop-color="#191918"/>
<stop offset="1" stop-color="#161616"/>
</radialGradient>
<radialGradient id="paint8_radial_109_868" cx="0" cy="0" r="1" gradientUnits="userSpaceOnUse" gradientTransform="translate(44.5742 150.21) rotate(-153.03) scale(30.3994 30.3994)">
<stop stop-color="#CCBA96"/>
<stop offset="1" stop-color="#7A5623"/>
</radialGradient>
<linearGradient id="paint9_linear_109_868" x1="48.3796" y1="174.318" x2="41.1639" y2="148.871" gradientUnits="userSpaceOnUse">
<stop stop-color="#CCBA96"/>
<stop offset="0.09577" stop-color="#BCA67F"/>
<stop offset="0.26404" stop-color="#A48A5E"/>
<stop offset="0.43689" stop-color="#927344"/>
<stop offset="0.61402" stop-color="#846332"/>
<stop offset="0.7981" stop-color="#7D5927"/>
<stop offset="1" stop-color="#7A5623"/>
</linearGradient>
<radialGradient id="paint10_radial_109_868" cx="0" cy="0" r="1" gradientUnits="userSpaceOnUse" gradientTransform="translate(47.5394 155.37) rotate(-41.1673) scale(19.7284 19.7284)">
<stop stop-color="#CCBA96"/>
<stop offset="0.01296" stop-color="#C7B592"/>
<stop offset="0.13906" stop-color="#988B72"/>
<stop offset="0.26952" stop-color="#706755"/>
<stop offset="0.40266" stop-color="#4F4A3E"/>
<stop offset="0.53922" stop-color="#36332D"/>
<stop offset="0.68055" stop-color="#242320"/>
<stop offset="0.82977" stop-color="#191918"/>
<stop offset="1" stop-color="#161616"/>
</radialGradient>
<linearGradient id="paint11_linear_109_868" x1="54.2988" y1="152.286" x2="41.5334" y2="152.286" gradientUnits="userSpaceOnUse">
<stop stop-color="#7A5623"/>
<stop offset="0.02141" stop-color="#7F5C29"/>
<stop offset="0.16858" stop-color="#A1804B"/>
<stop offset="0.30603" stop-color="#B89B64"/>
<stop offset="0.42891" stop-color="#C7AA73"/>
<stop offset="0.52494" stop-color="#CCB078"/>
<stop offset="0.6097" stop-color="#C6A972"/>
<stop offset="0.72857" stop-color="#B59761"/>
<stop offset="0.8669" stop-color="#9A7944"/>
<stop offset="1" stop-color="#7A5623"/>
</linearGradient>
<linearGradient id="paint12_linear_109_868" x1="9.00505" y1="64.6233" x2="9.00505" y2="22.5375" gradientUnits="userSpaceOnUse">
<stop stop-color="#7C5B2B"/>
<stop offset="0.1993" stop-color="#806942"/>
<stop offset="0.31254" stop-color="#938060"/>
<stop offset="0.69234" stop-color="#CFC9C1"/>
<stop offset="0.76229" stop-color="#CAC3B9"/>
<stop offset="0.87253" stop-color="#BCB2A2"/>
<stop offset="1" stop-color="#A79980"/>
</linearGradient>
<linearGradient id="paint13_linear_109_868" x1="6.39587" y1="43.5433" x2="0.800885" y2="43.5433" gradientUnits="userSpaceOnUse">
<stop stop-color="#7A6342"/>
<stop offset="0.1993" stop-color="#82755F"/>
<stop offset="0.50122" stop-color="#CDC8C0"/>
<stop offset="0.69234" stop-color="white"/>
<stop offset="0.89595" stop-color="#82755F"/>
<stop offset="1" stop-color="#7A6342"/>
</linearGradient>
<radialGradient id="paint14_radial_109_868" cx="0" cy="0" r="1" gradientUnits="userSpaceOnUse" gradientTransform="translate(3.59883 43.544) rotate(176.686) scale(29.1783 13.7722)">
<stop stop-color="#CCBA96"/>
<stop offset="0.1903" stop-color="#C7B592"/>
<stop offset="0.41817" stop-color="#B8A887"/>
<stop offset="0.66426" stop-color="#A09176"/>
<stop offset="0.90168" stop-color="#82755F"/>
<stop offset="0.92868" stop-color="#7E6C50"/>
<stop offset="0.96196" stop-color="#7B6545"/>
<stop offset="1" stop-color="#7A6342"/>
</radialGradient>
<radialGradient id="paint15_radial_109_868" cx="0" cy="0" r="1" gradientUnits="userSpaceOnUse" gradientTransform="translate(3.59857 43.5431) rotate(-89.9999) scale(4.27608 0.822681)">
<stop stop-color="#C7B592"/>
<stop offset="0.23416" stop-color="#BDAB8A"/>
<stop offset="0.63802" stop-color="#A09176"/>
<stop offset="1" stop-color="#82755F"/>
</radialGradient>
</defs>
</svg>
