<svg width="124" height="163" viewBox="0 0 124 163" fill="none" xmlns="http://www.w3.org/2000/svg">
<g style="mix-blend-mode:lighten">
<path style="mix-blend-mode:lighten" d="M20.4336 132.864C23.1139 138.132 24.1038 152.407 18.8364 155.087C13.5691 157.768 4.03912 147.838 1.35865 142.571C0.71806 141.318 0.330817 139.951 0.219091 138.549C0.107366 137.146 0.273352 135.735 0.707547 134.397C1.14174 133.058 1.83562 131.819 2.74947 130.749C3.66333 129.679 4.77921 128.8 6.03325 128.162C7.28729 127.523 8.65487 127.139 10.0577 127.03C11.4606 126.921 12.8711 127.09 14.2087 127.526C15.5463 127.963 16.7845 128.659 17.8527 129.575C18.9208 130.491 19.7979 131.609 20.4336 132.864Z" fill="url(#paint0_linear_217_440)"/>
<path d="M20.4336 132.864C23.1139 138.132 24.1038 152.407 18.8364 155.087C13.5691 157.768 4.03912 147.838 1.35865 142.571C0.71806 141.318 0.330817 139.951 0.219091 138.549C0.107366 137.146 0.273352 135.735 0.707547 134.397C1.14174 133.058 1.83562 131.819 2.74947 130.749C3.66333 129.679 4.77921 128.8 6.03325 128.162C7.28729 127.523 8.65487 127.139 10.0577 127.03C11.4606 126.921 12.8711 127.09 14.2087 127.526C15.5463 127.963 16.7845 128.659 17.8527 129.575C18.9208 130.491 19.7979 131.609 20.4336 132.864Z" fill="url(#paint1_radial_217_440)"/>
<path d="M3.39139 130.808C4.5268 129.643 5.92079 128.763 7.46024 128.238C8.99969 127.713 10.6412 127.558 12.2516 127.786C15.18 128.365 15.9611 130.655 13.9962 132.902C12.8608 134.066 11.4668 134.947 9.92733 135.472C8.38786 135.997 6.74631 136.151 5.1359 135.923C2.20756 135.345 1.42651 133.055 3.39139 130.808Z" fill="#161616"/>
<path style="mix-blend-mode:lighten" opacity="0.5" d="M3.39139 130.808C4.5268 129.643 5.92079 128.763 7.46024 128.238C8.99969 127.713 10.6412 127.558 12.2516 127.786C15.18 128.365 15.9611 130.655 13.9962 132.902C12.8608 134.066 11.4668 134.947 9.92733 135.472C8.38786 135.997 6.74631 136.151 5.1359 135.923C2.20756 135.345 1.42651 133.055 3.39139 130.808Z" fill="url(#paint2_radial_217_440)"/>
<path d="M3.06419 134.955C3.18891 134.142 3.5599 133.387 4.12713 132.792C5.26254 131.627 6.65654 130.747 8.19598 130.222C9.73543 129.697 11.377 129.542 12.9873 129.77C13.7551 129.892 14.473 130.228 15.059 130.739C15.2114 129.337 14.2187 128.175 12.2516 127.786C10.6412 127.558 8.9997 127.713 7.46026 128.238C5.92081 128.763 4.52682 129.643 3.3914 130.808C2.03027 132.364 1.98875 133.94 3.06419 134.955Z" fill="url(#paint3_linear_217_440)"/>
<path d="M102.479 105.621C102.479 136.908 83.8476 162.271 60.865 162.271C37.8823 162.271 19.2511 136.908 19.2511 105.621C19.2511 74.3345 37.8823 64.9591 60.865 64.9591C83.8476 64.9591 102.479 74.3345 102.479 105.621Z" fill="url(#paint4_radial_217_440)"/>
<path style="mix-blend-mode:lighten" d="M102.479 105.621C102.479 136.908 83.8476 162.271 60.865 162.271C37.8823 162.271 19.2511 136.908 19.2511 105.621C19.2511 74.3345 37.8823 64.9591 60.865 64.9591C83.8476 64.9591 102.479 74.3345 102.479 105.621Z" fill="url(#paint5_linear_217_440)"/>
<path d="M60.8649 98.1772C76.5502 98.1772 89.2656 90.836 89.2656 81.78C89.2656 72.7241 76.5502 65.3828 60.8649 65.3828C45.1797 65.3828 32.4642 72.7241 32.4642 81.78C32.4642 90.836 45.1797 98.1772 60.8649 98.1772Z" fill="#161616"/>
<path style="mix-blend-mode:lighten" opacity="0.5" d="M60.8649 98.1772C76.5502 98.1772 89.2656 90.836 89.2656 81.78C89.2656 72.7241 76.5502 65.3828 60.8649 65.3828C45.1797 65.3828 32.4642 72.7241 32.4642 81.78C32.4642 90.836 45.1797 98.1772 60.8649 98.1772Z" fill="url(#paint6_radial_217_440)"/>
<path d="M40.7822 74.5533C51.8732 68.1498 69.8556 68.15 80.9469 74.5535C85.5283 77.1985 88.2117 80.5227 89.0084 83.9644C90.1407 79.0735 87.4572 73.9443 80.9469 70.1855C69.8556 63.782 51.8731 63.7819 40.7822 70.1853C34.2723 73.9435 31.5891 79.0724 32.7213 83.9634C33.518 80.5218 36.2013 77.1979 40.7822 74.5533Z" fill="url(#paint7_linear_217_440)"/>
<path d="M48.475 21.1966C48.2498 25.353 47.0477 29.3978 44.9664 33.0027C42.8851 36.6076 39.9832 39.6709 36.4962 41.9441C29.8805 45.7636 24.5175 42.6674 24.5175 35.0286C24.7427 30.8721 25.9447 26.8273 28.026 23.2225C30.1073 19.6176 33.0092 16.5542 36.4962 14.281C43.1119 10.4615 48.475 13.5577 48.475 21.1966Z" fill="#969AFF"/>
<path d="M62.5155 85.0845C85.9555 85.0845 104.957 66.0826 104.957 42.6425C104.957 19.2025 85.9555 0.200562 62.5155 0.200562C39.0754 0.200562 20.0735 19.2025 20.0735 42.6425C20.0735 66.0826 39.0754 85.0845 62.5155 85.0845Z" fill="url(#paint8_radial_217_440)"/>
<path d="M62.5155 85.0845C85.9555 85.0845 104.957 66.0826 104.957 42.6425C104.957 19.2025 85.9555 0.200562 62.5155 0.200562C39.0754 0.200562 20.0735 19.2025 20.0735 42.6425C20.0735 66.0826 39.0754 85.0845 62.5155 85.0845Z" fill="url(#paint9_linear_217_440)"/>
<path d="M107.831 117.869C116.732 117.869 123.948 110.653 123.948 101.751C123.948 92.8497 116.732 85.6337 107.831 85.6337C98.9296 85.6337 91.7136 92.8497 91.7136 101.751C91.7136 110.653 98.9296 117.869 107.831 117.869Z" fill="url(#paint10_radial_217_440)"/>
<g style="mix-blend-mode:lighten">
<path d="M107.831 117.869C116.732 117.869 123.949 110.653 123.949 101.751C123.949 92.8497 116.732 85.6337 107.831 85.6337C98.9296 85.6337 91.7136 92.8497 91.7136 101.751C91.7136 110.653 98.9296 117.869 107.831 117.869Z" fill="url(#paint11_radial_217_440)"/>
</g>
<path d="M121.76 108.535C120.601 110.723 118.943 112.607 116.919 114.034C114.896 115.461 112.565 116.39 110.115 116.748C105.59 117.159 103.467 114.149 105.373 110.025C106.532 107.837 108.19 105.953 110.214 104.526C112.237 103.099 114.568 102.169 117.018 101.812C121.543 101.4 123.666 104.41 121.76 108.535Z" fill="#161616"/>
<path style="mix-blend-mode:lighten" opacity="0.5" d="M121.761 108.533C120.602 110.721 118.943 112.605 116.92 114.032C114.897 115.459 112.566 116.389 110.116 116.746C105.591 117.158 103.468 114.148 105.374 110.023C106.533 107.835 108.191 105.951 110.214 104.524C112.238 103.097 114.569 102.168 117.019 101.81C121.544 101.399 123.667 104.409 121.761 108.533Z" fill="url(#paint12_radial_217_440)"/>
<path d="M120.46 102.336C120.626 103.576 120.408 104.838 119.835 105.951C118.676 108.139 117.018 110.023 114.995 111.45C112.971 112.877 110.64 113.807 108.19 114.164C107.017 114.315 105.824 114.133 104.749 113.638C105.128 115.751 107.076 117.022 110.116 116.746C112.566 116.389 114.897 115.459 116.92 114.032C118.943 112.605 120.602 110.721 121.761 108.533C123.081 105.676 122.466 103.356 120.46 102.336Z" fill="url(#paint13_linear_217_440)"/>
<path d="M16.3456 117.869C25.247 117.869 32.463 110.653 32.463 101.751C32.463 92.8497 25.247 85.6337 16.3456 85.6337C7.44417 85.6337 0.228149 92.8497 0.228149 101.751C0.228149 110.653 7.44417 117.869 16.3456 117.869Z" fill="url(#paint14_radial_217_440)"/>
<g style="mix-blend-mode:lighten">
<path d="M16.3456 117.869C25.247 117.869 32.463 110.653 32.463 101.751C32.463 92.8497 25.247 85.6337 16.3456 85.6337C7.44417 85.6337 0.228149 92.8497 0.228149 101.751C0.228149 110.653 7.44417 117.869 16.3456 117.869Z" fill="url(#paint15_radial_217_440)"/>
</g>
<path d="M12.7945 116.832C10.4052 116.183 8.20239 114.98 6.36502 113.32C4.52765 111.661 3.10745 109.592 2.21967 107.28C0.822208 102.957 3.29103 100.223 7.73399 101.175C10.1233 101.824 12.3261 103.027 14.1634 104.686C16.0008 106.346 17.421 108.415 18.3087 110.726C19.7063 115.05 17.2373 117.783 12.7945 116.832Z" fill="#161616"/>
<path style="mix-blend-mode:lighten" opacity="0.5" d="M12.7962 116.832C10.4069 116.183 8.20411 114.98 6.36674 113.321C4.52937 111.661 3.10916 109.592 2.22138 107.281C0.823916 102.957 3.29276 100.224 7.7357 101.175C10.125 101.824 12.3278 103.027 14.1651 104.686C16.0025 106.346 17.4227 108.415 18.3104 110.726C19.7079 115.05 17.239 117.783 12.7962 116.832Z" fill="url(#paint16_radial_217_440)"/>
<path d="M18.5554 114.199C17.3818 114.634 16.1028 114.699 14.8911 114.385C12.5017 113.737 10.299 112.534 8.46166 110.874C6.62431 109.215 5.20412 107.145 4.31635 104.834C3.91065 103.723 3.82579 102.519 4.07147 101.362C2.09436 102.196 1.28285 104.376 2.22139 107.281C3.10917 109.592 4.52937 111.661 6.36671 113.321C8.20406 114.98 10.4068 116.183 12.7961 116.832C15.8738 117.491 18.0015 116.38 18.5554 114.199Z" fill="url(#paint17_linear_217_440)"/>
<path d="M120.359 141.044C118.655 146.703 109.503 157.704 103.844 156C98.1849 154.296 98.1613 140.533 99.8651 134.874C100.688 132.162 102.553 129.887 105.052 128.549C107.55 127.211 110.477 126.918 113.19 127.735C115.904 128.552 118.183 130.412 119.527 132.907C120.871 135.402 121.17 138.329 120.359 141.044Z" fill="url(#paint18_radial_217_440)"/>
<path d="M109.465 127.779C111.091 127.722 112.707 128.049 114.182 128.734C115.657 129.418 116.95 130.441 117.956 131.72C119.673 134.162 118.654 136.357 115.681 136.622C114.056 136.679 112.44 136.352 110.964 135.667C109.489 134.982 108.196 133.959 107.19 132.681C105.473 130.239 106.492 128.044 109.465 127.779Z" fill="#161616"/>
<path style="mix-blend-mode:lighten" d="M120.359 141.044C118.655 146.703 109.503 157.704 103.844 156C98.1849 154.296 98.1613 140.533 99.8651 134.874C100.688 132.162 102.553 129.887 105.052 128.549C107.55 127.211 110.477 126.918 113.19 127.735C115.904 128.552 118.183 130.412 119.527 132.907C120.871 135.402 121.17 138.329 120.359 141.044Z" fill="url(#paint19_linear_217_440)"/>
<path style="mix-blend-mode:lighten" opacity="0.5" d="M109.465 127.779C111.091 127.722 112.707 128.049 114.182 128.734C115.657 129.418 116.95 130.441 117.956 131.72C119.673 134.162 118.654 136.357 115.681 136.622C114.056 136.679 112.44 136.352 110.964 135.667C109.489 134.982 108.196 133.959 107.19 132.681C105.473 130.239 106.492 128.044 109.465 127.779Z" fill="url(#paint20_radial_217_440)"/>
<path d="M106.362 130.549C107.014 130.048 107.804 129.759 108.626 129.721C110.251 129.664 111.867 129.991 113.342 130.676C114.818 131.361 116.111 132.384 117.117 133.662C117.587 134.281 117.874 135.019 117.944 135.793C119.023 134.886 119.109 133.36 117.956 131.72C116.95 130.441 115.657 129.418 114.182 128.734C112.707 128.049 111.091 127.722 109.465 127.779C107.406 127.962 106.286 129.073 106.362 130.549Z" fill="url(#paint21_linear_217_440)"/>
<path style="mix-blend-mode:lighten" opacity="0.5" d="M62.5154 68.613C74.1845 68.613 83.6442 59.5467 83.6442 48.3628C83.6442 37.1789 74.1845 28.1125 62.5154 28.1125C50.8464 28.1125 41.3867 37.1789 41.3867 48.3628C41.3867 59.5467 50.8464 68.613 62.5154 68.613Z" fill="url(#paint22_radial_217_440)"/>
<path d="M62.5155 68.613C73.3298 68.613 82.0965 59.8463 82.0965 49.032C82.0965 38.2177 73.3298 29.4509 62.5155 29.4509C51.7012 29.4509 42.9344 38.2177 42.9344 49.032C42.9344 59.8463 51.7012 68.613 62.5155 68.613Z" fill="url(#paint23_linear_217_440)"/>
<path d="M62.3689 67.6155C72.1754 67.6155 80.1252 59.6658 80.1252 49.8592C80.1252 40.0527 72.1754 32.1029 62.3689 32.1029C52.5623 32.1029 44.6125 40.0527 44.6125 49.8592C44.6125 59.6658 52.5623 67.6155 62.3689 67.6155Z" fill="#161616"/>
<path style="mix-blend-mode:lighten" opacity="0.5" d="M62.3689 67.6155C72.1754 67.6155 80.1252 59.6658 80.1252 49.8592C80.1252 40.0527 72.1754 32.1029 62.3689 32.1029C52.5623 32.1029 44.6125 40.0527 44.6125 49.8592C44.6125 59.6658 52.5623 67.6155 62.3689 67.6155Z" fill="url(#paint24_radial_217_440)"/>
<path d="M62.3689 58.0586C66.8974 58.0586 70.5683 54.3876 70.5683 49.8592C70.5683 45.3308 66.8974 41.6598 62.3689 41.6598C57.8405 41.6598 54.1696 45.3308 54.1696 49.8592C54.1696 54.3876 57.8405 58.0586 62.3689 58.0586Z" fill="url(#paint25_radial_217_440)"/>
<path d="M62.369 56.9897C66.307 56.9897 69.4994 53.7973 69.4994 49.8592C69.4994 45.9212 66.307 42.7288 62.369 42.7288C58.4309 42.7288 55.2385 45.9212 55.2385 49.8592C55.2385 53.7973 58.4309 56.9897 62.369 56.9897Z" fill="url(#paint26_radial_217_440)"/>
</g>
<defs>
<linearGradient id="paint0_linear_217_440" x1="8.23049" y1="153.335" x2="15.4462" y2="127.888" gradientUnits="userSpaceOnUse">
<stop stop-color="#CCBA96"/>
<stop offset="0.09577" stop-color="#BCA67F"/>
<stop offset="0.26404" stop-color="#A48A5E"/>
<stop offset="0.43689" stop-color="#927344"/>
<stop offset="0.61402" stop-color="#846332"/>
<stop offset="0.7981" stop-color="#7D5927"/>
<stop offset="1" stop-color="#7A5623"/>
</linearGradient>
<radialGradient id="paint1_radial_217_440" cx="0" cy="0" r="1" gradientUnits="userSpaceOnUse" gradientTransform="translate(12.0359 129.227) rotate(-26.9697) scale(30.3994)">
<stop stop-color="#CCBA96"/>
<stop offset="1" stop-color="#7A5623"/>
</radialGradient>
<radialGradient id="paint2_radial_217_440" cx="0" cy="0" r="1" gradientUnits="userSpaceOnUse" gradientTransform="translate(9.07695 134.391) rotate(-138.833) scale(19.7283)">
<stop stop-color="#CCBA96"/>
<stop offset="0.01296" stop-color="#C7B592"/>
<stop offset="0.13906" stop-color="#988B72"/>
<stop offset="0.26952" stop-color="#706755"/>
<stop offset="0.40266" stop-color="#4F4A3E"/>
<stop offset="0.53922" stop-color="#36332D"/>
<stop offset="0.68055" stop-color="#242320"/>
<stop offset="0.82977" stop-color="#191918"/>
<stop offset="1" stop-color="#161616"/>
</radialGradient>
<linearGradient id="paint3_linear_217_440" x1="2.30884" y1="131.304" x2="15.0743" y2="131.304" gradientUnits="userSpaceOnUse">
<stop stop-color="#7A5623"/>
<stop offset="0.02141" stop-color="#7F5C29"/>
<stop offset="0.16858" stop-color="#A1804B"/>
<stop offset="0.30603" stop-color="#B89B64"/>
<stop offset="0.42891" stop-color="#C7AA73"/>
<stop offset="0.52494" stop-color="#CCB078"/>
<stop offset="0.6097" stop-color="#C6A972"/>
<stop offset="0.72857" stop-color="#B59761"/>
<stop offset="0.8669" stop-color="#9A7944"/>
<stop offset="1" stop-color="#7A5623"/>
</linearGradient>
<radialGradient id="paint4_radial_217_440" cx="0" cy="0" r="1" gradientUnits="userSpaceOnUse" gradientTransform="translate(85.4181 97.1319) scale(71.5157 97.3518)">
<stop stop-color="#CCB078"/>
<stop offset="1" stop-color="#7A5623"/>
</radialGradient>
<linearGradient id="paint5_linear_217_440" x1="60.865" y1="162.27" x2="60.865" y2="64.9591" gradientUnits="userSpaceOnUse">
<stop stop-color="#CCB078"/>
<stop offset="0.177" stop-color="#B0915B"/>
<stop offset="0.36933" stop-color="#987742"/>
<stop offset="0.56767" stop-color="#876531"/>
<stop offset="0.77384" stop-color="#7D5A26"/>
<stop offset="1" stop-color="#7A5623"/>
</linearGradient>
<radialGradient id="paint6_radial_217_440" cx="0" cy="0" r="1" gradientUnits="userSpaceOnUse" gradientTransform="translate(59.762 97.5354) scale(55.3547)">
<stop stop-color="#CCBA96"/>
<stop offset="0.01294" stop-color="#C7B592"/>
<stop offset="0.13887" stop-color="#988B72"/>
<stop offset="0.26915" stop-color="#706755"/>
<stop offset="0.4021" stop-color="#4F4A3E"/>
<stop offset="0.53847" stop-color="#36332D"/>
<stop offset="0.6796" stop-color="#242320"/>
<stop offset="0.82862" stop-color="#191918"/>
<stop offset="0.99861" stop-color="#161616"/>
</radialGradient>
<linearGradient id="paint7_linear_217_440" x1="1543.89" y1="1626.86" x2="3179.81" y2="1626.86" gradientUnits="userSpaceOnUse">
<stop stop-color="#7A5623"/>
<stop offset="0.02141" stop-color="#7F5C29"/>
<stop offset="0.16858" stop-color="#A1804B"/>
<stop offset="0.30603" stop-color="#B89B64"/>
<stop offset="0.42891" stop-color="#C7AA73"/>
<stop offset="0.52494" stop-color="#CCB078"/>
<stop offset="0.6097" stop-color="#C6A972"/>
<stop offset="0.72857" stop-color="#B59761"/>
<stop offset="0.8669" stop-color="#9A7944"/>
<stop offset="1" stop-color="#7A5623"/>
</linearGradient>
<radialGradient id="paint8_radial_217_440" cx="0" cy="0" r="1" gradientUnits="userSpaceOnUse" gradientTransform="translate(89.0024 36.3549) scale(71.7349)">
<stop stop-color="#A2A0F6"/>
<stop offset="1" stop-color="#0D0091"/>
</radialGradient>
<linearGradient id="paint9_linear_217_440" x1="56.608" y1="84.6767" x2="68.423" y2="0.608391" gradientUnits="userSpaceOnUse">
<stop stop-color="#7A5623"/>
<stop offset="0.05828" stop-color="#7B5929"/>
<stop offset="0.44262" stop-color="#826E4B"/>
<stop offset="0.74682" stop-color="#C5BCAC"/>
<stop offset="1" stop-color="white"/>
</linearGradient>
<radialGradient id="paint10_radial_217_440" cx="0" cy="0" r="1" gradientUnits="userSpaceOnUse" gradientTransform="translate(108.741 88.1514) rotate(-21.8012) scale(41.9277 35.769)">
<stop stop-color="#CCBA96"/>
<stop offset="1" stop-color="#7A5623"/>
</radialGradient>
<radialGradient id="paint11_radial_217_440" cx="0" cy="0" r="1" gradientUnits="userSpaceOnUse" gradientTransform="translate(108.741 88.1514) rotate(-21.8012) scale(41.9277 35.769)">
<stop stop-color="#CCBA96"/>
<stop offset="1" stop-color="#7A5623"/>
</radialGradient>
<radialGradient id="paint12_radial_217_440" cx="0" cy="0" r="1" gradientUnits="userSpaceOnUse" gradientTransform="translate(111.898 105.708) rotate(24.8049) scale(30.0303)">
<stop stop-color="#CCB078"/>
<stop offset="0.01296" stop-color="#C7AC75"/>
<stop offset="0.13906" stop-color="#98845C"/>
<stop offset="0.26952" stop-color="#706247"/>
<stop offset="0.40266" stop-color="#4F4735"/>
<stop offset="0.53922" stop-color="#363127"/>
<stop offset="0.68055" stop-color="#24221E"/>
<stop offset="0.82977" stop-color="#191918"/>
<stop offset="1" stop-color="#161616"/>
</radialGradient>
<linearGradient id="paint13_linear_217_440" x1="104.749" y1="109.529" x2="122.459" y2="109.529" gradientUnits="userSpaceOnUse">
<stop stop-color="#7A5623"/>
<stop offset="0.02141" stop-color="#7F5C29"/>
<stop offset="0.16858" stop-color="#A1804B"/>
<stop offset="0.30603" stop-color="#B89B64"/>
<stop offset="0.42891" stop-color="#C7AA73"/>
<stop offset="0.52494" stop-color="#CCB078"/>
<stop offset="0.6097" stop-color="#C6A972"/>
<stop offset="0.72857" stop-color="#B59761"/>
<stop offset="0.8669" stop-color="#9A7944"/>
<stop offset="1" stop-color="#7A5623"/>
</linearGradient>
<radialGradient id="paint14_radial_217_440" cx="0" cy="0" r="1" gradientUnits="userSpaceOnUse" gradientTransform="translate(17.2556 88.1514) rotate(-21.8012) scale(41.9277 35.769)">
<stop stop-color="#CCBA96"/>
<stop offset="1" stop-color="#7A5623"/>
</radialGradient>
<radialGradient id="paint15_radial_217_440" cx="0" cy="0" r="1" gradientUnits="userSpaceOnUse" gradientTransform="translate(17.2556 88.1514) rotate(-21.8012) scale(41.9277 35.769)">
<stop stop-color="#CCBA96"/>
<stop offset="1" stop-color="#7A5623"/>
</radialGradient>
<radialGradient id="paint16_radial_217_440" cx="0" cy="0" r="1" gradientUnits="userSpaceOnUse" gradientTransform="translate(10.772 113.88) rotate(-128.162) scale(31.7489 31.1268)">
<stop stop-color="#CCBA96"/>
<stop offset="0.01296" stop-color="#C7B592"/>
<stop offset="0.13906" stop-color="#988B72"/>
<stop offset="0.26952" stop-color="#706755"/>
<stop offset="0.40266" stop-color="#4F4A3E"/>
<stop offset="0.53922" stop-color="#36332D"/>
<stop offset="0.68055" stop-color="#242320"/>
<stop offset="0.82977" stop-color="#191918"/>
<stop offset="1" stop-color="#161616"/>
</radialGradient>
<linearGradient id="paint17_linear_217_440" x1="1.83179" y1="109.158" x2="18.5554" y2="109.158" gradientUnits="userSpaceOnUse">
<stop stop-color="#7A5623"/>
<stop offset="0.02141" stop-color="#7F5C29"/>
<stop offset="0.16858" stop-color="#A1804B"/>
<stop offset="0.30603" stop-color="#B89B64"/>
<stop offset="0.42891" stop-color="#C7AA73"/>
<stop offset="0.52494" stop-color="#CCB078"/>
<stop offset="0.6097" stop-color="#C6A972"/>
<stop offset="0.72857" stop-color="#B59761"/>
<stop offset="0.8669" stop-color="#9A7944"/>
<stop offset="1" stop-color="#7A5623"/>
</linearGradient>
<radialGradient id="paint18_radial_217_440" cx="0" cy="0" r="1" gradientUnits="userSpaceOnUse" gradientTransform="translate(110.462 129.537) rotate(-27.7939) scale(29.9355 30.5503)">
<stop stop-color="#CCBA96"/>
<stop offset="1" stop-color="#7A5623"/>
</radialGradient>
<linearGradient id="paint19_linear_217_440" x1="106.742" y1="153.946" x2="114.269" y2="128.321" gradientUnits="userSpaceOnUse">
<stop stop-color="#CCBA96"/>
<stop offset="0.09577" stop-color="#BCA67F"/>
<stop offset="0.26404" stop-color="#A48A5E"/>
<stop offset="0.43689" stop-color="#927344"/>
<stop offset="0.61402" stop-color="#846332"/>
<stop offset="0.7981" stop-color="#7D5927"/>
<stop offset="1" stop-color="#7A5623"/>
</linearGradient>
<radialGradient id="paint20_radial_217_440" cx="0" cy="0" r="1" gradientUnits="userSpaceOnUse" gradientTransform="translate(112.946 134.893) rotate(-136.361) scale(19.9782 20.1356)">
<stop stop-color="#CCBA96"/>
<stop offset="0.01296" stop-color="#C7B592"/>
<stop offset="0.13906" stop-color="#988B72"/>
<stop offset="0.26952" stop-color="#706755"/>
<stop offset="0.40266" stop-color="#4F4A3E"/>
<stop offset="0.53922" stop-color="#36332D"/>
<stop offset="0.68055" stop-color="#242320"/>
<stop offset="0.82977" stop-color="#191918"/>
<stop offset="1" stop-color="#161616"/>
</radialGradient>
<linearGradient id="paint21_linear_217_440" x1="106.358" y1="131.766" x2="118.788" y2="131.766" gradientUnits="userSpaceOnUse">
<stop stop-color="#7A5623"/>
<stop offset="0.02141" stop-color="#7F5C29"/>
<stop offset="0.16858" stop-color="#A1804B"/>
<stop offset="0.30603" stop-color="#B89B64"/>
<stop offset="0.42891" stop-color="#C7AA73"/>
<stop offset="0.52494" stop-color="#CCB078"/>
<stop offset="0.6097" stop-color="#C6A972"/>
<stop offset="0.72857" stop-color="#B59761"/>
<stop offset="0.8669" stop-color="#9A7944"/>
<stop offset="1" stop-color="#7A5623"/>
</linearGradient>
<radialGradient id="paint22_radial_217_440" cx="0" cy="0" r="1" gradientUnits="userSpaceOnUse" gradientTransform="translate(62.5154 48.3632) scale(21.1287 20.2503)">
<stop stop-color="#CCBA96"/>
<stop offset="0.0975" stop-color="#A7997C"/>
<stop offset="0.23068" stop-color="#7B715D"/>
<stop offset="0.36556" stop-color="#575043"/>
<stop offset="0.50014" stop-color="#3A372F"/>
<stop offset="0.63444" stop-color="#262421"/>
<stop offset="0.76836" stop-color="#1A1A19"/>
<stop offset="0.90168" stop-color="#161616"/>
<stop offset="0.90776" stop-color="#161616"/>
<stop offset="1" stop-color="#161616"/>
</radialGradient>
<linearGradient id="paint23_linear_217_440" x1="42.9344" y1="49.032" x2="82.0965" y2="49.032" gradientUnits="userSpaceOnUse">
<stop stop-color="#CCBA96"/>
<stop offset="0.11006" stop-color="#BCA985"/>
<stop offset="0.3181" stop-color="#A28F6C"/>
<stop offset="0.5326" stop-color="#907D59"/>
<stop offset="0.75547" stop-color="#86724F"/>
<stop offset="1" stop-color="#826E4B"/>
</linearGradient>
<radialGradient id="paint24_radial_217_440" cx="0" cy="0" r="1" gradientUnits="userSpaceOnUse" gradientTransform="translate(62.3689 49.8592) scale(17.7563)">
<stop stop-color="#CCBA96"/>
<stop offset="0.18739" stop-color="#C7B591"/>
<stop offset="0.41178" stop-color="#B9A683"/>
<stop offset="0.65515" stop-color="#A18E6B"/>
<stop offset="0.90168" stop-color="#826E4B"/>
<stop offset="0.91094" stop-color="#806943"/>
<stop offset="0.93819" stop-color="#7D5F31"/>
<stop offset="0.96705" stop-color="#7B5826"/>
<stop offset="1" stop-color="#7A5623"/>
</radialGradient>
<radialGradient id="paint25_radial_217_440" cx="0" cy="0" r="1" gradientUnits="userSpaceOnUse" gradientTransform="translate(62.3689 49.8592) scale(8.19939)">
<stop stop-color="#C7AB74"/>
<stop offset="0.23416" stop-color="#BDA26E"/>
<stop offset="0.63802" stop-color="#A0895D"/>
<stop offset="1" stop-color="#826E4B"/>
</radialGradient>
<radialGradient id="paint26_radial_217_440" cx="0" cy="0" r="1" gradientUnits="userSpaceOnUse" gradientTransform="translate(62.369 49.8592) scale(7.13044)">
<stop stop-color="#826E4B"/>
<stop offset="0.48455" stop-color="#84704C"/>
<stop offset="0.65908" stop-color="#8B7650"/>
<stop offset="0.78346" stop-color="#968057"/>
<stop offset="0.88402" stop-color="#A78F61"/>
<stop offset="0.9692" stop-color="#BDA26E"/>
<stop offset="1" stop-color="#C7AB74"/>
</radialGradient>
</defs>
</svg>
