<svg width="15" height="22" viewBox="0 0 15 22" fill="none" xmlns="http://www.w3.org/2000/svg">
<path opacity="0.6" d="M10.5985 11.8239C10.4755 11.9362 10.3885 12.0825 10.3486 12.2443C10.3087 12.406 10.3177 12.576 10.3743 12.7326C10.431 12.8893 10.5329 13.0256 10.6671 13.1244C10.8012 13.2231 10.9617 13.2799 11.1281 13.2875C11.2945 13.295 11.4594 13.2531 11.602 13.1669C11.7446 13.0808 11.8584 12.9543 11.9291 12.8034C11.9998 12.6525 12.0241 12.4841 11.9991 12.3194C11.9741 12.1547 11.9007 12.0011 11.7884 11.8781C11.6378 11.7132 11.4278 11.6148 11.2047 11.6046C10.9816 11.5945 10.7635 11.6733 10.5985 11.8239Z" fill="#CCBA96"/>
<path style="mix-blend-mode:lighten" opacity="0.5" d="M0.789048 13.074C0.478009 13.3579 0.25816 13.7278 0.1573 14.1367C0.0564409 14.5456 0.0791017 14.9752 0.222417 15.3713C0.365732 15.7673 0.623263 16.1119 0.962447 16.3616C1.30163 16.6113 1.70724 16.7548 2.12797 16.7739C2.5487 16.7931 2.96566 16.6871 3.32613 16.4692C3.6866 16.2514 3.97439 15.9316 4.1531 15.5502C4.33181 15.1689 4.39342 14.7431 4.33014 14.3267C4.26685 13.9103 4.08152 13.522 3.79757 13.2109C3.60904 13.0044 3.38166 12.837 3.12842 12.7183C2.87519 12.5996 2.60106 12.532 2.32168 12.5193C2.04231 12.5066 1.76317 12.549 1.5002 12.6442C1.23722 12.7394 0.995575 12.8854 0.789048 13.074Z" fill="url(#paint0_radial_611_1206)"/>
<path opacity="0.6" d="M6.28261 1.18649C6.10845 1.34546 5.98535 1.5525 5.92887 1.78144C5.87239 2.01037 5.88507 2.25091 5.9653 2.47264C6.04553 2.69437 6.18971 2.88734 6.3796 3.02713C6.5695 3.16691 6.79659 3.24724 7.03214 3.25797C7.26769 3.26869 7.50114 3.20932 7.70295 3.08737C7.90476 2.96541 8.06588 2.78635 8.16593 2.57283C8.26597 2.35931 8.30045 2.12092 8.265 1.8878C8.22956 1.65468 8.12578 1.43729 7.96679 1.26316C7.86124 1.14753 7.73395 1.05383 7.59219 0.987401C7.45043 0.920971 7.29697 0.883109 7.14058 0.875989C6.98418 0.868869 6.82792 0.892627 6.68071 0.945902C6.5335 0.999177 6.39822 1.08093 6.28261 1.18649Z" fill="#CCBA96"/>
<path d="M3.49125 5.16449C3.37208 5.27329 3.28785 5.41499 3.2492 5.57166C3.21056 5.72834 3.21924 5.89295 3.27416 6.04469C3.32907 6.19642 3.42775 6.32847 3.5577 6.42412C3.68766 6.51978 3.84307 6.57475 4.00427 6.58209C4.16547 6.58942 4.32523 6.5488 4.46334 6.46534C4.60145 6.38188 4.7117 6.25933 4.78017 6.1132C4.84863 5.96708 4.87223 5.80394 4.84797 5.6444C4.82372 5.48487 4.7527 5.33611 4.6439 5.21694C4.498 5.05715 4.29459 4.96185 4.07844 4.95202C3.86228 4.94218 3.65106 5.01861 3.49125 5.16449Z" fill="url(#paint1_linear_611_1206)"/>
<path d="M2.87862 3.21675C2.79708 3.29121 2.73944 3.38817 2.71301 3.49538C2.68658 3.6026 2.69253 3.71525 2.73011 3.81908C2.76769 3.92291 2.83522 4.01326 2.92415 4.07871C3.01308 4.14417 3.11942 4.18178 3.22972 4.1868C3.34003 4.19182 3.44935 4.16402 3.54386 4.10691C3.63837 4.04981 3.71382 3.96597 3.76068 3.86598C3.80753 3.76599 3.82369 3.65434 3.8071 3.54517C3.79052 3.436 3.74193 3.3342 3.66749 3.25264C3.61806 3.19847 3.55844 3.15457 3.49204 3.12345C3.42563 3.09233 3.35375 3.07459 3.28049 3.07126C3.20723 3.06792 3.13403 3.07905 3.06508 3.10402C2.99612 3.12898 2.93276 3.1673 2.87862 3.21675Z" fill="url(#paint2_linear_611_1206)"/>
<path opacity="0.6" d="M8.76546 19.3115C8.59287 19.4691 8.47087 19.6743 8.41489 19.9011C8.35892 20.128 8.37147 20.3664 8.45097 20.5861C8.53048 20.8059 8.67335 20.9971 8.86154 21.1356C9.04972 21.2742 9.27476 21.3538 9.5082 21.3644C9.74164 21.3751 9.97299 21.3163 10.173 21.1954C10.373 21.0746 10.5327 20.8971 10.6319 20.6855C10.731 20.4739 10.7652 20.2377 10.7301 20.0067C10.695 19.7756 10.5922 19.5602 10.4346 19.3876C10.2234 19.1562 9.92882 19.0182 9.6158 19.0039C9.30277 18.9896 8.9969 19.1003 8.76546 19.3115Z" fill="#CCBA96"/>
<path style="mix-blend-mode:lighten" opacity="0.5" d="M11.0819 16.5534C10.8239 16.789 10.6415 17.0959 10.5578 17.4351C10.4741 17.7744 10.4929 18.1309 10.6118 18.4595C10.7307 18.788 10.9444 19.074 11.2258 19.2812C11.5072 19.4883 11.8437 19.6074 12.1928 19.6232C12.5419 19.6391 12.8878 19.5512 13.1869 19.3704C13.486 19.1897 13.7248 18.9244 13.873 18.6079C14.0213 18.2915 14.0724 17.9382 14.0199 17.5927C13.9674 17.2473 13.8136 16.9251 13.578 16.667C13.4216 16.4957 13.2329 16.3568 13.0228 16.2584C12.8127 16.1599 12.5853 16.1038 12.3535 16.0933C12.1217 16.0827 11.8901 16.1179 11.672 16.1969C11.4538 16.2758 11.2533 16.397 11.0819 16.5534Z" fill="url(#paint3_radial_611_1206)"/>
<defs>
<radialGradient id="paint0_radial_611_1206" cx="0" cy="0" r="1" gradientUnits="userSpaceOnUse" gradientTransform="translate(2.22484 14.6466) scale(2.12951)">
<stop offset="0.00122" stop-color="#CCB078"/>
<stop offset="0.01416" stop-color="#C7AC75"/>
<stop offset="0.14011" stop-color="#98845C"/>
<stop offset="0.27041" stop-color="#706247"/>
<stop offset="0.40339" stop-color="#4F4735"/>
<stop offset="0.53978" stop-color="#363127"/>
<stop offset="0.68093" stop-color="#24221E"/>
<stop offset="0.82998" stop-color="#191918"/>
<stop offset="1" stop-color="#161616"/>
</radialGradient>
<linearGradient id="paint1_linear_611_1206" x1="20.7934" y1="176.086" x2="22.144" y2="176.086" gradientUnits="userSpaceOnUse">
<stop stop-color="#7A5623"/>
<stop offset="0.02141" stop-color="#7F5C29"/>
<stop offset="0.16858" stop-color="#A1804B"/>
<stop offset="0.30603" stop-color="#B89B64"/>
<stop offset="0.42891" stop-color="#C7AA73"/>
<stop offset="0.52494" stop-color="#CCB078"/>
<stop offset="0.6097" stop-color="#C6A972"/>
<stop offset="0.72857" stop-color="#B59761"/>
<stop offset="0.8669" stop-color="#9A7944"/>
<stop offset="1" stop-color="#7A5623"/>
</linearGradient>
<linearGradient id="paint2_linear_611_1206" x1="14.4193" y1="118.976" x2="15.0518" y2="118.976" gradientUnits="userSpaceOnUse">
<stop stop-color="#7A5623"/>
<stop offset="0.02141" stop-color="#7F5C29"/>
<stop offset="0.16858" stop-color="#A1804B"/>
<stop offset="0.30603" stop-color="#B89B64"/>
<stop offset="0.42891" stop-color="#C7AA73"/>
<stop offset="0.52494" stop-color="#CCB078"/>
<stop offset="0.6097" stop-color="#C6A972"/>
<stop offset="0.72857" stop-color="#B59761"/>
<stop offset="0.8669" stop-color="#9A7944"/>
<stop offset="1" stop-color="#7A5623"/>
</linearGradient>
<radialGradient id="paint3_radial_611_1206" cx="0" cy="0" r="1" gradientUnits="userSpaceOnUse" gradientTransform="translate(64.7662 408.363) scale(3.16676)">
<stop offset="0.00122" stop-color="#CCB078"/>
<stop offset="0.01416" stop-color="#C7AC75"/>
<stop offset="0.14011" stop-color="#98845C"/>
<stop offset="0.27041" stop-color="#706247"/>
<stop offset="0.40339" stop-color="#4F4735"/>
<stop offset="0.53978" stop-color="#363127"/>
<stop offset="0.68093" stop-color="#24221E"/>
<stop offset="0.82998" stop-color="#191918"/>
<stop offset="1" stop-color="#161616"/>
</radialGradient>
</defs>
</svg>
