<svg width="15" height="21" viewBox="0 0 15 21" fill="none" xmlns="http://www.w3.org/2000/svg">
<path opacity="0.6" d="M3.86697 9.98325C3.98841 9.86923 4.07331 9.72177 4.11094 9.5595C4.14858 9.39724 4.13725 9.22745 4.0784 9.07162C4.01954 8.9158 3.9158 8.78092 3.78029 8.68405C3.64478 8.58718 3.48358 8.53266 3.31709 8.5274C3.15061 8.52213 2.98631 8.56635 2.84495 8.65447C2.70359 8.74258 2.59153 8.87064 2.52294 9.02244C2.45436 9.17424 2.43233 9.34296 2.45964 9.50728C2.48694 9.6716 2.56235 9.82414 2.67634 9.9456C2.75204 10.0263 2.84289 10.0912 2.94369 10.1367C3.0445 10.1823 3.15329 10.2075 3.26385 10.211C3.37441 10.2145 3.48459 10.1962 3.58808 10.1571C3.69156 10.118 3.78633 10.059 3.86697 9.98325Z" fill="#CCBA96"/>
<path style="mix-blend-mode:lighten" opacity="0.5" d="M13.6583 8.59795C13.9654 8.30971 14.1801 7.93689 14.2753 7.52662C14.3705 7.11634 14.3419 6.68705 14.1931 6.29303C14.0444 5.89901 13.7821 5.55796 13.4395 5.313C13.0968 5.06804 12.6893 4.93017 12.2683 4.91684C11.8474 4.90351 11.4319 5.0153 11.0745 5.23809C10.717 5.46088 10.4337 5.78467 10.2603 6.16849C10.0869 6.55231 10.0312 6.97893 10.1002 7.3944C10.1693 7.80988 10.36 8.19554 10.6482 8.50264C11.0347 8.91442 11.569 9.1558 12.1335 9.17368C12.698 9.19155 13.2465 8.98446 13.6583 8.59795Z" fill="url(#paint0_radial_611_1207)"/>
<path opacity="0.6" d="M8.32948 20.5601C8.50138 20.3987 8.62158 20.19 8.67486 19.9603C8.72814 19.7306 8.71213 19.4903 8.62883 19.2697C8.54554 19.0492 8.39869 18.8583 8.20689 18.7211C8.01508 18.584 7.78693 18.5068 7.55127 18.4994C7.31561 18.4919 7.08302 18.5545 6.88293 18.6792C6.68284 18.804 6.52424 18.9852 6.42716 19.2001C6.33008 19.4149 6.29889 19.6538 6.33754 19.8863C6.37619 20.1189 6.48295 20.3348 6.64431 20.5067C6.86071 20.7373 7.15983 20.8724 7.47585 20.8824C7.79188 20.8924 8.09894 20.7765 8.32948 20.5601Z" fill="#CCBA96"/>
<path d="M10.507 16.7649C10.9576 16.7649 11.3229 16.3997 11.3229 15.9491C11.3229 15.4985 10.9576 15.1332 10.507 15.1332C10.0564 15.1332 9.69116 15.4985 9.69116 15.9491C9.69116 16.3997 10.0564 16.7649 10.507 16.7649Z" fill="url(#paint1_linear_611_1207)"/>
<path d="M11.7052 18.4831C11.7857 18.4075 11.842 18.3097 11.867 18.2021C11.8919 18.0946 11.8844 17.982 11.8454 17.8787C11.8064 17.7754 11.7376 17.6859 11.6478 17.6217C11.5579 17.5575 11.451 17.5213 11.3407 17.5179C11.2303 17.5144 11.1213 17.5437 11.0276 17.6021C10.9339 17.6605 10.8596 17.7455 10.8142 17.8461C10.7687 17.9468 10.7541 18.0586 10.7722 18.1676C10.7903 18.2765 10.8404 18.3776 10.916 18.4581C10.9661 18.5116 11.0264 18.5546 11.0932 18.5848C11.16 18.615 11.2321 18.6317 11.3054 18.6341C11.3787 18.6364 11.4517 18.6242 11.5203 18.5983C11.5889 18.5724 11.6517 18.5333 11.7052 18.4831Z" fill="url(#paint2_linear_611_1207)"/>
<path opacity="0.6" d="M5.59632 2.47117C5.7667 2.31125 5.88583 2.10439 5.93865 1.87677C5.99147 1.64914 5.97559 1.41097 5.89304 1.19236C5.8105 0.97375 5.66499 0.784539 5.47491 0.64863C5.28482 0.51272 5.0587 0.436218 4.82515 0.428816C4.59159 0.421413 4.36108 0.483441 4.16277 0.60704C3.96446 0.73064 3.80725 0.910256 3.71103 1.1232C3.6148 1.33614 3.58388 1.57284 3.62218 1.80335C3.66047 2.03387 3.76627 2.24785 3.92618 2.41824C4.14065 2.64671 4.43708 2.78063 4.75028 2.79056C5.06349 2.80049 5.36781 2.6856 5.59632 2.47117Z" fill="#CCBA96"/>
<path style="mix-blend-mode:lighten" opacity="0.5" d="M3.31817 5.26089C3.57296 5.02173 3.75112 4.7124 3.8301 4.372C3.90909 4.03159 3.88535 3.67541 3.7619 3.34849C3.63845 3.02157 3.42084 2.7386 3.13657 2.53536C2.8523 2.33213 2.51414 2.21775 2.16486 2.20669C1.81559 2.19564 1.47089 2.28841 1.17434 2.47327C0.877788 2.65813 0.642709 2.92679 0.498841 3.24525C0.354973 3.5637 0.308779 3.91767 0.366085 4.26239C0.423392 4.60711 0.581623 4.92709 0.820788 5.18187C0.979573 5.35105 1.17014 5.4873 1.38158 5.58283C1.59302 5.67837 1.82121 5.73131 2.05312 5.73865C2.28503 5.74599 2.5161 5.70757 2.73316 5.6256C2.95022 5.54362 3.149 5.41969 3.31817 5.26089Z" fill="url(#paint3_radial_611_1207)"/>
<defs>
<radialGradient id="paint0_radial_611_1207" cx="0" cy="0" r="1" gradientUnits="userSpaceOnUse" gradientTransform="translate(325.906 456.508) scale(4.60034)">
<stop stop-color="#CCB078"/>
<stop offset="0.01296" stop-color="#C7AC75"/>
<stop offset="0.13906" stop-color="#98845C"/>
<stop offset="0.26952" stop-color="#706247"/>
<stop offset="0.40266" stop-color="#4F4735"/>
<stop offset="0.53922" stop-color="#363127"/>
<stop offset="0.68055" stop-color="#24221E"/>
<stop offset="0.82977" stop-color="#191918"/>
<stop offset="1" stop-color="#161616"/>
</radialGradient>
<linearGradient id="paint1_linear_611_1207" x1="128.619" y1="195.521" x2="129.969" y2="195.521" gradientUnits="userSpaceOnUse">
<stop stop-color="#7A5623"/>
<stop offset="0.02141" stop-color="#7F5C29"/>
<stop offset="0.16858" stop-color="#A1804B"/>
<stop offset="0.30603" stop-color="#B89B64"/>
<stop offset="0.42891" stop-color="#C7AA73"/>
<stop offset="0.52494" stop-color="#CCB078"/>
<stop offset="0.6097" stop-color="#C6A972"/>
<stop offset="0.72857" stop-color="#B59761"/>
<stop offset="0.8669" stop-color="#9A7944"/>
<stop offset="1" stop-color="#7A5623"/>
</linearGradient>
<linearGradient id="paint2_linear_611_1207" x1="92.7664" y1="142.179" x2="93.399" y2="142.179" gradientUnits="userSpaceOnUse">
<stop stop-color="#7A5623"/>
<stop offset="0.02141" stop-color="#7F5C29"/>
<stop offset="0.16858" stop-color="#A1804B"/>
<stop offset="0.30603" stop-color="#B89B64"/>
<stop offset="0.42891" stop-color="#C7AA73"/>
<stop offset="0.52494" stop-color="#CCB078"/>
<stop offset="0.6097" stop-color="#C6A972"/>
<stop offset="0.72857" stop-color="#B59761"/>
<stop offset="0.8669" stop-color="#9A7944"/>
<stop offset="1" stop-color="#7A5623"/>
</linearGradient>
<radialGradient id="paint3_radial_611_1207" cx="0" cy="0" r="1" gradientUnits="userSpaceOnUse" gradientTransform="translate(244.299 371.39) scale(3.16687)">
<stop stop-color="#CCB078"/>
<stop offset="0.01296" stop-color="#C7AC75"/>
<stop offset="0.13906" stop-color="#98845C"/>
<stop offset="0.26952" stop-color="#706247"/>
<stop offset="0.40266" stop-color="#4F4735"/>
<stop offset="0.53922" stop-color="#363127"/>
<stop offset="0.68055" stop-color="#24221E"/>
<stop offset="0.82977" stop-color="#191918"/>
<stop offset="1" stop-color="#161616"/>
</radialGradient>
</defs>
</svg>
