<svg width="370" height="329" viewBox="0 0 370 329" fill="none" xmlns="http://www.w3.org/2000/svg">
<path d="M317.265 255.791C316.538 255.809 315.819 255.636 315.179 255.29L238.208 210.852C237.88 210.686 237.604 210.435 237.406 210.125C237.209 209.815 237.099 209.457 237.087 209.09C237.116 208.657 237.259 208.241 237.503 207.882C237.746 207.523 238.08 207.236 238.471 207.049L245.039 203.258C245.743 202.859 246.534 202.637 247.343 202.61C248.152 202.583 248.955 202.753 249.684 203.106L326.656 247.545C326.983 247.712 327.26 247.963 327.457 248.273C327.654 248.583 327.764 248.94 327.776 249.307C327.747 249.739 327.604 250.156 327.36 250.515C327.117 250.873 326.783 251.161 326.392 251.347L319.824 255.139C319.042 255.574 318.16 255.798 317.265 255.791ZM247.604 203.894C246.933 203.889 246.272 204.055 245.684 204.376L239.116 208.167C238.653 208.434 238.377 208.78 238.377 209.09C238.393 209.229 238.446 209.362 238.53 209.475C238.613 209.588 238.725 209.678 238.853 209.735L315.825 254.175C316.36 254.401 316.939 254.505 317.519 254.478C318.1 254.452 318.667 254.296 319.179 254.022L325.747 250.23C326.21 249.963 326.486 249.618 326.486 249.307C326.47 249.168 326.417 249.035 326.334 248.922C326.25 248.809 326.139 248.72 326.011 248.663L249.039 204.223C248.597 203.993 248.103 203.879 247.604 203.894Z" fill="url(#paint0_linear_109_1688)"/>
<path d="M242.53 4.82967L250.75 0.0974165L250.751 0.11175C250.946 0.0225499 251.161 -0.0142551 251.375 0.00496279C251.588 0.0241807 251.793 0.0987618 251.97 0.221347L322.758 41.0914C323.345 41.5117 323.825 42.0638 324.16 42.7034C324.495 43.3429 324.675 44.0521 324.686 44.7739V218.538C324.72 218.834 324.675 219.134 324.555 219.407C324.435 219.68 324.245 219.916 324.004 220.091L324.016 220.098L315.802 224.828L315.621 215.875L251.97 179.126C251.383 178.705 250.903 178.153 250.568 177.514C250.233 176.874 250.053 176.165 250.042 175.443V9.05617C249.877 9.57812 249.751 9.95882 249.733 9.97106C249.672 10.0114 242.53 4.82967 242.53 4.82967Z" fill="url(#paint1_linear_109_1688)"/>
<path d="M324.636 44.181L303.246 56.5301L300.016 54.665L323.102 41.3364C323.927 42.0787 324.469 43.084 324.636 44.181Z" fill="url(#paint2_linear_109_1688)"/>
<path d="M243.803 183.829L314.592 224.699C315.656 225.314 316.519 224.661 316.519 223.242V49.4772C316.508 48.7554 316.328 48.0463 315.994 47.4067C315.659 46.7671 315.179 46.215 314.592 45.7946L243.803 4.92471C242.739 4.31004 241.876 4.96241 241.876 6.38172V180.146C241.887 180.868 242.067 181.577 242.401 182.217C242.736 182.857 243.216 183.409 243.803 183.829Z" fill="url(#paint3_linear_109_1688)"/>
<path d="M314.592 45.7943L243.803 4.92453C243.576 4.74796 243.289 4.66525 243.002 4.69338C242.716 4.72151 242.451 4.85836 242.262 5.0758C242.437 5.03734 242.619 5.03436 242.795 5.06706C242.972 5.09976 243.14 5.16748 243.291 5.26621L314.079 46.1361C314.666 46.5565 315.146 47.1086 315.481 47.7482C315.816 48.3878 315.996 49.0969 316.007 49.8187V223.583C316.033 224.05 315.896 224.512 315.621 224.889C316.159 224.744 316.519 224.155 316.519 223.242V49.4769C316.508 48.7552 316.328 48.046 315.994 47.4064C315.659 46.7669 315.179 46.2147 314.592 45.7943Z" fill="white"/>
<path d="M241.876 171.333L316.52 214.428V58.2907L241.876 15.1943V171.333Z" fill="#161616"/>
<path d="M241.876 171.333L316.52 214.428V58.2907L241.876 15.1943V171.333Z" fill="#161616"/>
<path opacity="0.51" d="M241.876 168.27L316.52 211.365V61.335L241.876 18.2397V168.27Z" fill="#161616"/>
<path d="M273.383 29.2551L286.885 37.0778C287.28 37.3054 287.615 37.3734 287.761 37.0027C287.814 36.8572 287.84 36.7029 287.837 36.5479C287.831 36.1906 287.742 35.8396 287.576 35.523C287.411 35.2064 287.173 34.933 286.883 34.7249L273.237 26.8469C273.196 26.8231 273.157 26.7754 273.116 26.7869C272.686 26.9072 272.615 26.9904 272.615 27.638L272.675 27.8199C272.637 28.1024 272.684 28.3898 272.81 28.6454C272.936 28.901 273.135 29.1133 273.383 29.2551Z" fill="#999999"/>
<path d="M273.113 26.7919C273.06 26.9369 273.035 27.0904 273.038 27.2446C273.043 27.6019 273.132 27.953 273.298 28.2696C273.464 28.5862 273.701 28.8595 273.992 29.0676L287.637 36.9457C287.677 36.9671 287.719 36.9854 287.761 37.0006C287.734 37.0871 287.687 37.1658 287.623 37.2297C287.558 37.2936 287.48 37.3409 287.393 37.3674C287.306 37.3938 287.215 37.3987 287.126 37.3816C287.037 37.3645 286.953 37.3258 286.883 37.2691L273.237 29.391C272.947 29.1829 272.709 28.9096 272.544 28.593C272.378 28.2764 272.289 27.9254 272.283 27.5681C272.283 26.9222 272.646 26.6037 273.113 26.7919Z" fill="url(#paint4_linear_109_1688)"/>
<path d="M320.875 62.8421L321.029 62.7531C321.124 62.687 321.234 62.6469 321.349 62.6368C321.464 62.6267 321.58 62.6469 321.685 62.6955L321.684 62.6871L322.264 63.0204L321.981 63.0435C322.038 63.2008 322.066 63.3673 322.063 63.5347V72.8587C322.057 73.246 321.96 73.6264 321.781 73.9696C321.601 74.3127 321.344 74.6089 321.029 74.8344L320.875 74.9235C320.808 74.9624 320.737 74.9935 320.664 75.0161L320.812 75.3296L320.195 74.9756L320.206 74.9744C320.077 74.8805 319.975 74.7539 319.911 74.6075C319.846 74.4612 319.822 74.3005 319.841 74.1418V64.8177C319.846 64.4305 319.943 64.0501 320.123 63.707C320.302 63.3638 320.56 63.0676 320.875 62.8421Z" fill="url(#paint5_linear_109_1688)"/>
<path d="M321.462 75.2602L321.616 75.1713C321.931 74.9458 322.188 74.6495 322.368 74.3064C322.547 73.9633 322.644 73.5829 322.65 73.1956V63.8716C322.65 63.1102 322.187 62.7602 321.616 63.0899L321.462 63.179C321.147 63.4045 320.889 63.7007 320.71 64.0438C320.53 64.3869 320.433 64.7674 320.428 65.1546V74.4786C320.428 75.2401 320.891 75.59 321.462 75.2602Z" fill="url(#paint6_linear_109_1688)"/>
<path d="M320.875 77.0721L321.029 76.9831C321.124 76.917 321.234 76.8769 321.349 76.8668C321.464 76.8567 321.58 76.8769 321.685 76.9254L321.684 76.917L322.264 77.2504L321.981 77.2735C322.038 77.4307 322.066 77.5973 322.063 77.7647V87.0887C322.057 87.4759 321.96 87.8564 321.781 88.1995C321.601 88.5427 321.344 88.8389 321.029 89.0644L320.875 89.1535C320.808 89.1924 320.737 89.2235 320.664 89.2461L320.812 89.5596L320.195 89.2056L320.206 89.2044C320.077 89.1104 319.975 88.9838 319.911 88.8375C319.846 88.6912 319.822 88.5305 319.841 88.3718V79.0477C319.846 78.6605 319.943 78.2801 320.123 77.9369C320.302 77.5938 320.56 77.2976 320.875 77.0721Z" fill="url(#paint7_linear_109_1688)"/>
<path d="M321.462 89.4907L321.616 89.4017C321.931 89.1762 322.188 88.88 322.368 88.5369C322.547 88.1938 322.644 87.8133 322.65 87.4261V78.1021C322.65 77.3406 322.187 76.9907 321.616 77.3204L321.462 77.4094C321.147 77.635 320.889 77.9312 320.71 78.2743C320.53 78.6174 320.433 78.9979 320.428 79.3851V88.7091C320.428 89.4706 320.891 89.8205 321.462 89.4907Z" fill="url(#paint8_linear_109_1688)"/>
<path d="M273.278 93.2571L265.066 88.5162V86.7124L273.278 91.4534V93.2571Z" fill="#CCBA96"/>
<path d="M277.489 95.6882L274.532 93.9815V92.1777L277.489 93.8856V95.6882Z" fill="#CCBA96"/>
<path d="M280.754 97.574L278.744 96.413V94.6104L280.754 95.7702V97.574Z" fill="#CCBA96"/>
<path d="M269.54 95.2185L265.066 92.6352V90.8325L269.54 93.4158V95.2185Z" fill="#CCBA96"/>
<path d="M276.279 99.1093L270.795 95.9428V94.1401L276.279 97.3056V99.1093Z" fill="#CCBA96"/>
<path d="M279.542 100.993L277.534 99.8336V98.0298L279.542 99.1897V100.993Z" fill="#CCBA96"/>
<path d="M282.648 102.788L280.639 101.627V99.8242L282.648 100.984V102.788Z" fill="#CCBA96"/>
<path d="M268.303 98.6243L265.066 96.7554V94.9517L268.303 96.8216V98.6243Z" fill="#CCBA96"/>
<path d="M270.665 99.988L269.558 99.3486V97.5459L270.665 98.1843V99.988Z" fill="#CCBA96"/>
<path d="M273.928 101.873L271.919 100.713V98.9092L273.928 100.069V101.873Z" fill="#CCBA96"/>
<path d="M277.015 107.775L265.066 100.876V99.0723L277.015 105.972V107.775Z" fill="#CCBA96"/>
<path d="M281.227 110.207L278.27 108.499V106.696L281.227 108.403V110.207Z" fill="#CCBA96"/>
<path d="M268.303 106.865L265.066 104.995V103.191L268.303 105.061V106.865Z" fill="#CCBA96"/>
<path d="M275.902 111.25L269.558 107.589V105.785L275.902 109.448V111.25Z" fill="#CCBA96"/>
<path d="M279.165 113.136L277.156 111.975V110.172L279.165 111.332V113.136Z" fill="#CCBA96"/>
<path d="M271.69 112.94L265.066 109.115V107.311L271.69 111.136V112.94Z" fill="#CCBA96"/>
<path d="M277.735 116.43L272.945 113.665V111.861L277.735 114.627V116.43Z" fill="#CCBA96"/>
<path d="M282.227 119.023L278.99 117.153V115.351L282.227 117.219V119.023Z" fill="#CCBA96"/>
<path d="M267.303 114.526L265.066 113.235V111.432L267.303 112.723V114.526Z" fill="#CCBA96"/>
<path d="M271.515 116.959L268.558 115.251V113.447L271.515 115.155V116.959Z" fill="#CCBA96"/>
<path d="M277.533 120.433L272.769 117.683V115.879L277.533 118.63V120.433Z" fill="#CCBA96"/>
<path d="M271.919 121.312L265.066 117.355V115.551L271.919 119.508V121.312Z" fill="#CCBA96"/>
<path d="M279.595 125.744L273.174 122.036V120.232L279.595 123.94V125.744Z" fill="#CCBA96"/>
<path d="M282.859 127.628L280.85 126.468V124.665L282.859 125.824V127.628Z" fill="#CCBA96"/>
<path d="M285.991 129.436L283.982 128.276V126.473L285.991 127.633V129.436Z" fill="#CCBA96"/>
<path d="M269.172 123.845L265.066 121.475V119.671L269.172 122.041V123.845Z" fill="#CCBA96"/>
<path d="M286.345 100.802L292.04 104.089V102.286L286.345 98.9985V100.802Z" fill="#CCBA96"/>
<path d="M287.564 105.626L292.04 108.209V106.405L287.564 103.822V105.626Z" fill="#CCBA96"/>
<path d="M288.802 110.459L292.04 112.329V110.525L288.802 108.656V110.459Z" fill="#CCBA96"/>
<path d="M287.33 113.729L292.04 116.448V114.645L287.33 111.925V113.729Z" fill="#CCBA96"/>
<path d="M288.802 118.7L292.04 120.569V118.765L288.802 116.896V118.7Z" fill="#CCBA96"/>
<path d="M287.933 122.317L292.04 124.688V122.885L287.933 120.514V122.317Z" fill="#CCBA96"/>
<path d="M289.802 127.517L292.04 128.808V127.005L289.802 125.713V127.517Z" fill="#CCBA96"/>
<path d="M287.703 130.425L292.04 132.928V131.124L287.703 128.621V130.425Z" fill="#CCBA96"/>
<path d="M287.933 134.676L292.04 137.048V135.244L287.933 132.874V134.676Z" fill="#CCBA96"/>
<path d="M272.173 125.577L270.426 124.569V122.766L272.173 123.774V125.577Z" fill="#CCBA96"/>
<path d="M277.358 128.572L273.428 126.302V124.499L277.358 126.768V128.572Z" fill="#CCBA96"/>
<path d="M280.61 142.43L273.977 138.601V136.797L280.61 140.626V142.43Z" fill="#CCBA96"/>
<path d="M285.152 145.052L282.54 143.544V141.74L285.152 143.249V145.052Z" fill="#CCBA96"/>
<path d="M301.955 165.854C301.652 165.849 301.357 165.764 301.098 165.608L255.287 139.159C254.781 138.808 254.365 138.341 254.075 137.797C253.785 137.253 253.629 136.647 253.62 136.031V69.7533C253.594 69.4346 253.653 69.1147 253.79 68.8262C253.928 68.5377 254.14 68.291 254.405 68.1113C254.641 67.9863 254.907 67.9271 255.174 67.9396C255.441 67.9522 255.7 68.0362 255.924 68.1828L301.734 94.6316C302.241 94.9831 302.656 95.4503 302.946 95.9944C303.236 96.5386 303.392 97.144 303.401 97.7605V164.037C303.427 164.356 303.369 164.676 303.231 164.964C303.093 165.253 302.881 165.499 302.617 165.679C302.415 165.795 302.187 165.856 301.955 165.854ZM301.734 164.507C301.869 164.585 301.957 164.591 301.981 164.578C302.019 164.556 302.129 164.409 302.129 164.037V97.7605C302.121 97.3668 302.024 96.9799 301.845 96.6289C301.667 96.2778 301.411 95.9716 301.098 95.733L255.287 69.2844C255.153 69.2063 255.065 69.1993 255.04 69.2133C255.002 69.2353 254.892 69.3823 254.892 69.7533V136.031C254.901 136.424 254.998 136.811 255.176 137.162C255.355 137.513 255.61 137.819 255.923 138.058L301.734 164.507Z" fill="#CCBA96"/>
<path style="mix-blend-mode:lighten" d="M354.799 237.329C363.194 229.695 363.811 216.701 356.177 208.306C348.543 199.911 335.549 199.294 327.154 206.928C318.759 214.562 318.142 227.556 325.776 235.951C333.41 244.346 346.404 244.963 354.799 237.329Z" fill="url(#paint9_radial_109_1688)"/>
<path style="mix-blend-mode:lighten" d="M346.461 218.923C345.827 217.838 344.886 216.966 343.756 216.416C342.626 215.866 341.358 215.664 340.113 215.835C338.868 216.006 337.702 216.542 336.762 217.375C335.822 218.209 335.15 219.302 334.831 220.518C334.512 221.733 334.561 223.016 334.972 224.204C335.382 225.391 336.135 226.431 337.136 227.19C338.137 227.95 339.341 228.395 340.595 228.471C341.85 228.546 343.098 228.248 344.183 227.614C345.638 226.763 346.695 225.37 347.122 223.74C347.549 222.11 347.312 220.378 346.461 218.923Z" fill="url(#paint10_radial_109_1688)"/>
<path style="mix-blend-mode:lighten" d="M25.394 87.7321C24.0337 85.4051 22.0139 83.5337 19.5901 82.3546C17.1662 81.1755 14.4471 80.7416 11.7767 81.1078C9.10622 81.4741 6.60434 82.624 4.58742 84.4121C2.57049 86.2003 1.12911 88.5463 0.445535 91.1537C-0.238038 93.761 -0.133096 96.5125 0.747089 99.0602C1.62727 101.608 3.24316 103.837 5.39043 105.467C7.53769 107.096 10.1199 108.052 12.8105 108.214C15.5011 108.376 18.1792 107.736 20.5062 106.375C22.0513 105.472 23.4034 104.274 24.4852 102.848C25.567 101.422 26.3575 99.7973 26.8113 98.0661C27.2652 96.3349 27.3737 94.5312 27.1305 92.7581C26.8873 90.985 26.2973 89.2772 25.394 87.7321Z" fill="url(#paint11_radial_109_1688)"/>
<path style="mix-blend-mode:lighten" d="M16.3476 93.0201C16.0333 92.4823 15.5665 92.0498 15.0063 91.7773C14.4461 91.5048 13.8177 91.4045 13.2005 91.4892C12.5833 91.5738 12.0051 91.8396 11.5389 92.2528C11.0728 92.6661 10.7397 93.2083 10.5817 93.8109C10.4237 94.4135 10.4479 95.0494 10.6514 95.6382C10.8548 96.227 11.2282 96.7423 11.7245 97.1188C12.2207 97.4954 12.8175 97.7163 13.4394 97.7537C14.0612 97.7911 14.6802 97.6433 15.218 97.3289C15.9391 96.9073 16.4633 96.2165 16.6752 95.4085C16.887 94.6004 16.7692 93.7413 16.3476 93.0201Z" fill="url(#paint12_radial_109_1688)"/>
<path style="mix-blend-mode:lighten" d="M28.6515 72.1766C28.0925 71.2203 27.2624 70.4512 26.2662 69.9666C25.2701 69.4821 24.1526 69.3038 23.0551 69.4543C21.9576 69.6048 20.9294 70.0774 20.1005 70.8123C19.2716 71.5472 18.6793 72.5114 18.3984 73.5829C18.1174 74.6544 18.1606 75.7852 18.5223 76.8323C18.8841 77.8793 19.5481 78.7955 20.4306 79.4651C21.3131 80.1348 22.3743 80.5276 23.4801 80.5941C24.5858 80.6606 25.6865 80.3977 26.6428 79.8387C27.9252 79.089 28.8573 77.8606 29.234 76.4237C29.6107 74.9867 29.4012 73.459 28.6515 72.1766Z" fill="url(#paint13_radial_109_1688)"/>
<path style="mix-blend-mode:lighten" d="M25.3113 74.129C25.1385 73.8332 24.8818 73.5954 24.5738 73.4455C24.2657 73.2957 23.9202 73.2405 23.5808 73.287C23.2414 73.3336 22.9235 73.4797 22.6671 73.7069C22.4108 73.9342 22.2276 74.2323 22.1407 74.5637C22.0539 74.895 22.0672 75.2447 22.179 75.5685C22.2909 75.8923 22.4963 76.1756 22.7692 76.3827C23.042 76.5897 23.3702 76.7112 23.7121 76.7318C24.0541 76.7523 24.3944 76.671 24.6901 76.4981C25.0867 76.2663 25.3749 75.8865 25.4914 75.4422C25.6079 74.9979 25.5431 74.5255 25.3113 74.129Z" fill="url(#paint14_radial_109_1688)"/>
<path style="mix-blend-mode:lighten" d="M71.4304 84.1166C70.7072 82.8793 69.6332 81.8843 68.3445 81.2574C67.0557 80.6305 65.61 80.3998 64.1902 80.5945C62.7703 80.7893 61.4401 81.4007 60.3677 82.3514C59.2953 83.3022 58.5289 84.5495 58.1655 85.9358C57.802 87.3221 57.8578 88.7851 58.3258 90.1397C58.7938 91.4943 59.653 92.6796 60.7946 93.5459C61.9363 94.4122 63.3093 94.9205 64.7398 95.0066C66.1704 95.0926 67.5943 94.7524 68.8316 94.0292C69.6531 93.5489 70.372 92.9116 70.9472 92.1536C71.5224 91.3955 71.9426 90.5316 72.184 89.6111C72.4253 88.6907 72.4829 87.7317 72.3537 86.7889C72.2244 85.8462 71.9106 84.9381 71.4304 84.1166Z" fill="url(#paint15_radial_109_1688)"/>
<path style="mix-blend-mode:lighten" d="M67.109 86.643C66.8854 86.2604 66.5533 85.9528 66.1548 85.7589C65.7563 85.5651 65.3092 85.4938 64.8702 85.554C64.4311 85.6142 64.0198 85.8033 63.6882 86.0973C63.3566 86.3913 63.1196 86.777 63.0073 87.2057C62.8949 87.6343 62.9121 88.0867 63.0569 88.5056C63.2016 88.9244 63.4673 89.291 63.8203 89.5588C64.1733 89.8267 64.5979 89.9839 65.0402 90.0105C65.4826 90.0371 65.9229 89.9319 66.3055 89.7082C66.8185 89.4083 67.1914 88.9169 67.3421 88.342C67.4927 87.7672 67.4089 87.156 67.109 86.643Z" fill="url(#paint16_radial_109_1688)"/>
<path style="mix-blend-mode:lighten" d="M132.565 79.0027C136.833 62.7223 127.095 46.0644 110.815 41.7962C94.5346 37.528 77.8767 47.2658 73.6085 63.5462C69.3403 79.8265 79.0781 96.4845 95.3584 100.753C111.639 105.021 128.297 95.2831 132.565 79.0027Z" fill="url(#paint17_radial_109_1688)"/>
<path style="mix-blend-mode:lighten" d="M109.293 67.646C108.576 66.4184 107.51 65.4312 106.232 64.8093C104.953 64.1873 103.519 63.9584 102.11 64.1517C100.701 64.3449 99.3814 64.9515 98.3174 65.8948C97.2535 66.8381 96.4931 68.0757 96.1325 69.4511C95.772 70.8265 95.8273 72.278 96.2916 73.6219C96.756 74.9659 97.6084 76.1419 98.7411 77.0014C99.8739 77.8609 101.236 78.3652 102.655 78.4505C104.075 78.5359 105.487 78.1984 106.715 77.4808C107.53 77.0043 108.243 76.372 108.814 75.6199C109.385 74.8678 109.802 74.0106 110.041 73.0974C110.28 72.1841 110.338 71.2326 110.209 70.2973C110.081 69.3619 109.77 68.461 109.293 67.646Z" fill="url(#paint18_radial_109_1688)"/>
<path style="mix-blend-mode:lighten" d="M47.4389 32.3534C46.9422 31.5038 46.2047 30.8205 45.3197 30.39C44.4347 29.9595 43.442 29.8011 42.4669 29.9348C41.4919 30.0686 40.5784 30.4884 39.842 31.1413C39.1056 31.7942 38.5794 32.6508 38.3298 33.6027C38.0802 34.5547 38.1185 35.5593 38.4399 36.4895C38.7613 37.4197 39.3513 38.2337 40.1353 38.8286C40.9193 39.4235 41.8621 39.7725 42.8444 39.8316C43.8268 39.8907 44.8047 39.6571 45.6543 39.1604C46.7936 38.4944 47.6217 37.4031 47.9563 36.1265C48.291 34.85 48.1049 33.4927 47.4389 32.3534Z" fill="url(#paint19_radial_109_1688)"/>
<path style="mix-blend-mode:lighten" d="M44.4714 34.0878C44.3178 33.8251 44.0898 33.6138 43.8161 33.4807C43.5425 33.3476 43.2355 33.2986 42.934 33.34C42.6325 33.3813 42.35 33.5111 42.1223 33.713C41.8946 33.9149 41.7318 34.1798 41.6547 34.4742C41.5775 34.7685 41.5893 35.0792 41.6887 35.3668C41.7881 35.6545 41.9705 35.9062 42.213 36.0901C42.4554 36.2741 42.7469 36.382 43.0507 36.4003C43.3545 36.4185 43.6568 36.3463 43.9196 36.1927C44.2718 35.9867 44.5279 35.6493 44.6314 35.2545C44.7348 34.8598 44.6773 34.4401 44.4714 34.0878Z" fill="url(#paint20_radial_109_1688)"/>
<path style="mix-blend-mode:lighten" d="M195.882 74.3247C196.028 68.5172 191.438 63.691 185.63 63.5452C179.823 63.3994 174.997 67.9891 174.851 73.7966C174.705 79.6041 179.295 84.4302 185.102 84.576C190.91 84.7219 195.736 80.1322 195.882 74.3247Z" fill="url(#paint21_radial_109_1688)"/>
<path style="mix-blend-mode:lighten" d="M188.174 72.4191C187.85 71.8638 187.368 71.4172 186.789 71.1358C186.211 70.8544 185.562 70.7509 184.924 70.8383C184.287 70.9257 183.69 71.2002 183.209 71.6269C182.727 72.0537 182.383 72.6136 182.22 73.2359C182.057 73.8581 182.082 74.5148 182.292 75.1228C182.502 75.7309 182.888 76.2629 183.4 76.6518C183.913 77.0406 184.529 77.2688 185.171 77.3074C185.813 77.346 186.452 77.1933 187.008 76.8687C187.753 76.4333 188.294 75.72 188.513 74.8855C188.731 74.0511 188.61 73.1639 188.174 72.4191Z" fill="url(#paint22_radial_109_1688)"/>
<path d="M190.873 162.287L170.378 40.6908L172.026 39.9969L169.55 38.5772L169.554 38.5917C169.256 38.4299 168.918 38.3564 168.58 38.3797C168.242 38.403 167.918 38.5222 167.645 38.7233L3.84589 133.293C3.15388 133.735 2.59211 134.354 2.21832 135.085C1.84454 135.816 1.67222 136.634 1.71908 137.454L22.3773 260.016C22.4009 260.281 22.4929 260.535 22.6441 260.754C22.7954 260.973 23.0008 261.148 23.2403 261.264L23.2378 261.264L25.661 262.664L26.0772 260.402L25.9391 260.444L188.746 166.447C189.438 166.005 190 165.387 190.374 164.655C190.748 163.924 190.92 163.107 190.873 162.287Z" fill="url(#paint23_linear_109_1688)"/>
<path d="M4.75858 136.618L2.06561 135.427C1.76117 136.056 1.64103 136.759 1.71908 137.454L22.3773 260.016C22.4009 260.281 22.4928 260.535 22.6441 260.754C22.7954 260.973 23.0008 261.148 23.2403 261.264L23.2378 261.265L25.661 262.665L26.0772 260.402L25.9391 260.444L34.1775 255.688L4.75858 136.618Z" fill="url(#paint24_linear_109_1688)"/>
<path d="M191.316 167.921L27.5168 262.491C26.252 263.221 25.1693 262.799 24.9472 261.49L4.28885 138.928C4.24198 138.108 4.4143 137.29 4.78809 136.559C5.16187 135.828 5.72365 135.209 6.41566 134.767L170.215 40.1973C171.48 39.4672 172.562 39.8889 172.785 41.1982L193.443 163.761C193.49 164.581 193.317 165.398 192.944 166.129C192.57 166.861 192.008 167.479 191.316 167.921Z" fill="#161616"/>
<g opacity="0.51">
<path opacity="0.51" d="M168.074 48.0205L10.1844 139.178L29.7646 254.606L187.548 163.51L168.074 48.0205Z" fill="#161616"/>
</g>
<path d="M294.28 225.947L285.341 230.616L195.707 178.865C194.78 178.445 193.769 178.248 192.752 178.29C191.736 178.332 190.744 178.612 189.856 179.107L35.2609 268.363C33.7814 267.535 27.0363 264.292 27.0363 264.292L30.3085 272.817L30.3216 272.807C30.494 273.245 30.8189 273.605 31.2364 273.822L125.64 328.326C126.566 328.746 127.578 328.942 128.594 328.9C129.61 328.858 130.602 328.578 131.491 328.083L289.69 236.747C290.285 236.447 290.755 235.947 291.017 235.336L291.03 235.344L294.28 225.947Z" fill="url(#paint25_linear_109_1688)"/>
<path d="M292.898 227.417L130.765 321.025C129.854 321.532 128.838 321.819 127.796 321.862C126.755 321.905 125.718 321.703 124.769 321.273L28.0176 265.414C26.4806 264.526 26.6734 262.977 28.448 261.952L190.582 168.344C191.492 167.837 192.509 167.55 193.55 167.507C194.591 167.464 195.628 167.665 196.578 168.095L293.329 223.955C294.866 224.842 294.673 226.392 292.898 227.417Z" fill="url(#paint26_linear_109_1688)"/>
<path d="M292.898 226.691L130.765 320.298C129.854 320.806 128.838 321.093 127.796 321.136C126.755 321.179 125.718 320.977 124.769 320.547L28.0175 264.688C27.7885 264.572 27.5846 264.412 27.4173 264.218C27.2501 264.023 27.1229 263.798 27.0429 263.554C26.9651 263.929 27.0197 264.319 27.1974 264.658C27.3752 264.998 27.665 265.265 28.0175 265.414L124.769 321.273C125.718 321.704 126.755 321.905 127.796 321.862C128.838 321.819 129.854 321.532 130.765 321.025L292.898 227.417C294.048 226.753 294.522 225.87 294.303 225.088C294.188 225.436 294.004 225.756 293.763 226.032C293.522 226.307 293.228 226.531 292.898 226.691Z" fill="white"/>
<path d="M81.8609 300.776V298.997C81.8609 298.829 81.9634 298.751 82.0898 298.824L88.3611 302.445C88.4307 302.495 88.4877 302.561 88.5275 302.637C88.5672 302.712 88.5886 302.797 88.5898 302.882V304.661C88.5898 304.829 88.4874 304.907 88.3611 304.834L82.0898 301.213C82.0201 301.163 81.9631 301.097 81.9233 301.022C81.8836 300.946 81.8622 300.861 81.8609 300.776Z" fill="#161616"/>
<path d="M91.239 306.19V304.412C91.239 304.243 91.3414 304.166 91.4677 304.239L97.739 307.86C97.8087 307.909 97.8657 307.975 97.9055 308.051C97.9452 308.127 97.9666 308.211 97.9679 308.297V310.075C97.9679 310.244 97.8654 310.321 97.739 310.248L91.4677 306.628C91.398 306.578 91.3411 306.512 91.3013 306.436C91.2616 306.36 91.2402 306.276 91.239 306.19Z" fill="#161616"/>
<path d="M53.2414 260.182L187.975 182.394C188.416 182.139 188.917 182.005 189.426 182.005C189.936 182.006 190.436 182.14 190.877 182.395L238.856 210.154C239.013 210.245 239.143 210.375 239.234 210.533C239.324 210.69 239.372 210.868 239.372 211.05C239.372 211.231 239.324 211.41 239.233 211.567C239.142 211.724 239.012 211.854 238.855 211.945L104.184 289.697C103.744 289.952 103.244 290.086 102.735 290.086C102.225 290.086 101.725 289.952 101.285 289.697L53.2417 261.974C53.0844 261.883 52.9538 261.753 52.863 261.595C52.7721 261.438 52.7243 261.26 52.7243 261.078C52.7243 260.896 52.7721 260.718 52.8628 260.561C52.9536 260.404 53.0842 260.273 53.2414 260.182Z" fill="#999999"/>
<path d="M53.2417 261.974L53.7242 262.253L187.975 184.743C188.416 184.488 188.917 184.354 189.426 184.354C189.936 184.355 190.436 184.489 190.877 184.744L238.373 212.223L238.855 211.945C239.012 211.854 239.142 211.724 239.233 211.567C239.324 211.41 239.372 211.231 239.372 211.05C239.372 210.868 239.324 210.69 239.234 210.533C239.143 210.375 239.013 210.245 238.856 210.154L190.877 182.395C190.436 182.14 189.936 182.006 189.426 182.005C188.917 182.005 188.416 182.139 187.975 182.394L53.2415 260.182C53.0842 260.273 52.9536 260.404 52.8628 260.561C52.7721 260.718 52.7243 260.897 52.7243 261.078C52.7243 261.26 52.7722 261.438 52.863 261.595C52.9538 261.753 53.0844 261.883 53.2417 261.974Z" fill="#7F7F7F"/>
<path d="M194.498 189.426L77.4641 256.995L72.2601 253.991L189.294 186.421L194.498 189.426Z" fill="#161616"/>
<path d="M207.256 196.791L97.482 260.169L92.278 257.165L202.052 193.786L207.256 196.791Z" fill="#161616"/>
<path d="M215.565 201.589L86.3175 276.209L81.1146 273.205L210.362 198.584L215.565 201.589Z" fill="#161616"/>
<path d="M223.875 206.386L94.6275 281.007L89.4235 278.002L218.671 203.382L223.875 206.386Z" fill="#161616"/>
<path d="M232.184 211.184L102.936 285.804L97.7333 282.8L226.979 208.179L232.184 211.184Z" fill="#161616"/>
<path d="M70.3923 261.078L65.1883 264.083L59.9843 261.078L65.1883 258.074L70.3923 261.078Z" fill="#161616"/>
<path d="M88.7465 265.212L77.9459 271.448L72.7419 268.444L83.5435 262.208L88.7465 265.212Z" fill="#161616"/>
<path d="M193.162 279.006L229.491 258.032C230.911 257.212 230.911 255.883 229.491 255.063L204.649 240.72C203.852 240.316 202.971 240.105 202.078 240.105C201.184 240.105 200.303 240.316 199.507 240.72L163.178 261.695C161.758 262.515 161.758 263.844 163.178 264.663L188.02 279.006C188.817 279.411 189.698 279.621 190.591 279.621C191.485 279.621 192.366 279.411 193.162 279.006Z" fill="url(#paint27_linear_109_1688)"/>
<path d="M163.178 262.91L199.507 241.935C200.304 241.531 201.184 241.32 202.078 241.32C202.971 241.32 203.852 241.531 204.649 241.935L229.491 256.278C229.867 256.479 230.176 256.783 230.384 257.155C230.759 256.438 230.473 255.63 229.491 255.063L204.649 240.72C203.852 240.316 202.971 240.105 202.078 240.105C201.184 240.105 200.304 240.316 199.507 240.72L163.178 261.695C162.196 262.262 161.91 263.07 162.285 263.787C162.493 263.415 162.803 263.111 163.178 262.91Z" fill="#7F7F7F"/>
<path d="M103.628 128.694L112.057 123.818L111.754 121.963L103.327 126.839L103.628 128.694Z" fill="#CCBA96"/>
<path d="M99.3055 131.194L102.341 129.438L102.04 127.584L99.0045 129.339L99.3055 131.194Z" fill="#CCBA96"/>
<path d="M95.956 133.132L98.0189 131.939L97.7179 130.084L95.655 131.277L95.956 133.132Z" fill="#CCBA96"/>
<path d="M108.151 130.711L112.743 128.055L112.442 126.2L107.85 128.856L108.151 130.711Z" fill="#CCBA96"/>
<path d="M101.236 134.712L106.863 131.456L106.562 129.602L100.935 132.857L101.236 134.712Z" fill="#CCBA96"/>
<path d="M97.8866 136.649L99.9483 135.456L99.6473 133.602L97.5856 134.795L97.8866 136.649Z" fill="#CCBA96"/>
<path d="M94.6991 138.493L96.7608 137.3L96.4598 135.446L94.3981 136.639L94.6991 138.493Z" fill="#CCBA96"/>
<path d="M110.109 134.213L113.431 132.291L113.13 130.436L109.808 132.359L110.109 134.213Z" fill="#CCBA96"/>
<path d="M107.686 135.615L108.822 134.958L108.521 133.103L107.385 133.76L107.686 135.615Z" fill="#CCBA96"/>
<path d="M104.336 137.553L106.398 136.36L106.097 134.505L104.035 135.698L104.336 137.553Z" fill="#CCBA96"/>
<path d="M101.856 143.622L114.119 136.528L113.818 134.673L101.555 141.767L101.856 143.622Z" fill="#CCBA96"/>
<path d="M97.5337 146.122L100.568 144.367L100.267 142.512L97.2327 144.267L97.5337 146.122Z" fill="#CCBA96"/>
<path d="M111.484 142.685L114.807 140.764L114.506 138.909L111.183 140.831L111.484 142.685Z" fill="#CCBA96"/>
<path d="M103.687 147.197L110.198 143.431L109.895 141.576L103.386 145.342L103.687 147.197Z" fill="#CCBA96"/>
<path d="M100.338 149.134L102.399 147.941L102.098 146.087L100.037 147.28L100.338 149.134Z" fill="#CCBA96"/>
<path d="M108.697 148.933L115.495 145L115.194 143.146L108.396 147.078L108.697 148.933Z" fill="#CCBA96"/>
<path d="M102.493 152.522L107.409 149.678L107.108 147.823L102.192 150.668L102.493 152.522Z" fill="#CCBA96"/>
<path d="M97.8832 155.189L101.205 153.267L100.904 151.412L97.5822 153.335L97.8832 155.189Z" fill="#CCBA96"/>
<path d="M113.887 150.565L116.183 149.237L115.881 147.382L113.586 148.711L113.887 150.565Z" fill="#CCBA96"/>
<path d="M109.565 153.065L112.599 151.31L112.298 149.455L109.264 151.21L109.565 153.065Z" fill="#CCBA96"/>
<path d="M103.388 156.638L108.277 153.81L107.976 151.956L103.087 154.784L103.388 156.638Z" fill="#CCBA96"/>
<path d="M109.837 157.542L116.87 153.473L116.569 151.618L109.536 155.688L109.837 157.542Z" fill="#CCBA96"/>
<path d="M101.959 162.099L108.549 158.287L108.248 156.432L101.658 160.245L101.959 162.099Z" fill="#CCBA96"/>
<path d="M98.6098 164.037L100.672 162.844L100.371 160.99L98.3088 162.182L98.6098 164.037Z" fill="#CCBA96"/>
<path d="M95.3958 165.896L97.4576 164.703L97.1566 162.849L95.0948 164.042L95.3958 165.896Z" fill="#CCBA96"/>
<path d="M113.344 160.148L117.558 157.71L117.257 155.855L113.043 158.293L113.344 160.148Z" fill="#CCBA96"/>
<path d="M90.2183 136.452L84.3749 139.832L84.0739 137.978L89.9174 134.597L90.2183 136.452Z" fill="#CCBA96"/>
<path d="M89.655 141.412L85.0628 144.068L84.7618 142.213L89.3539 139.557L89.655 141.412Z" fill="#CCBA96"/>
<path d="M89.0728 146.382L85.7497 148.305L85.4487 146.451L88.7718 144.528L89.0728 146.382Z" fill="#CCBA96"/>
<path d="M91.2712 149.745L86.4376 152.541L86.1367 150.687L90.9702 147.891L91.2712 149.745Z" fill="#CCBA96"/>
<path d="M90.4488 154.855L87.1257 156.777L86.8247 154.923L90.1478 153.001L90.4488 154.855Z" fill="#CCBA96"/>
<path d="M92.0276 158.577L87.8137 161.014L87.5127 159.16L91.7266 156.722L92.0276 158.577Z" fill="#CCBA96"/>
<path d="M90.7972 163.922L88.5017 165.25L88.2007 163.395L90.4962 162.067L90.7972 163.922Z" fill="#CCBA96"/>
<path d="M93.6384 166.913L89.1897 169.488L88.8887 167.633L93.3375 165.059L93.6384 166.913Z" fill="#CCBA96"/>
<path d="M94.0916 171.286L89.8777 173.723L89.5756 171.869L93.7895 169.431L94.0916 171.286Z" fill="#CCBA96"/>
<path d="M110.265 161.929L112.057 160.892L111.756 159.037L109.964 160.074L110.265 161.929Z" fill="#CCBA96"/>
<path d="M104.944 165.007L108.977 162.673L108.676 160.819L104.643 163.153L104.944 165.007Z" fill="#CCBA96"/>
<path d="M103.607 179.258L110.414 175.32L110.113 173.465L103.306 177.404L103.607 179.258Z" fill="#CCBA96"/>
<path d="M98.945 181.955L101.626 180.404L101.325 178.549L98.644 180.101L98.945 181.955Z" fill="#CCBA96"/>
<path d="M81.1889 202.973C80.944 202.974 80.7021 202.92 80.4804 202.816C80.1914 202.664 79.9438 202.444 79.759 202.175C79.5743 201.906 79.4581 201.596 79.4204 201.272L68.1833 133.201C68.0898 132.552 68.183 131.89 68.452 131.292C68.721 130.694 69.1548 130.185 69.7025 129.824L121.131 100.132C121.383 99.9732 121.671 99.8789 121.968 99.8573C122.266 99.8357 122.564 99.8875 122.837 100.008C123.126 100.16 123.374 100.38 123.558 100.649C123.743 100.918 123.859 101.228 123.896 101.553L135.134 169.623C135.228 170.272 135.134 170.934 134.865 171.532C134.596 172.13 134.163 172.639 133.615 173L82.1865 202.692C81.8843 202.872 81.5403 202.969 81.1889 202.973ZM122.124 101.121C121.998 101.128 121.875 101.166 121.767 101.233L70.3389 130.926C70.0161 131.157 69.762 131.472 69.6035 131.836C69.445 132.2 69.3881 132.6 69.4387 132.994L80.6757 201.065C80.683 201.186 80.7183 201.303 80.7788 201.407C80.8393 201.511 80.9233 201.6 81.0242 201.666C81.1116 201.696 81.2048 201.705 81.2962 201.691C81.3876 201.678 81.4746 201.644 81.5501 201.591L132.978 171.898C133.301 171.667 133.555 171.352 133.714 170.988C133.872 170.624 133.929 170.224 133.879 169.83L122.641 101.76C122.634 101.639 122.599 101.522 122.538 101.418C122.478 101.313 122.394 101.224 122.293 101.158C122.24 101.133 122.183 101.121 122.124 101.121V101.121Z" fill="#CCBA96"/>
<defs>
<linearGradient id="paint0_linear_109_1688" x1="327.776" y1="229.198" x2="237.087" y2="229.198" gradientUnits="userSpaceOnUse">
<stop stop-color="#CCBA96"/>
<stop offset="0.17399" stop-color="#CEBD9B"/>
<stop offset="0.37911" stop-color="#D5C7A9"/>
<stop offset="0.59993" stop-color="#E1D6C1"/>
<stop offset="0.8303" stop-color="#F1ECE2"/>
<stop offset="1" stop-color="white"/>
</linearGradient>
<linearGradient id="paint1_linear_109_1688" x1="40.0457" y1="222.706" x2="324.19" y2="93.9186" gradientUnits="userSpaceOnUse">
<stop stop-color="#CCBA96"/>
<stop offset="0.26287" stop-color="#C7B796"/>
<stop offset="0.57267" stop-color="#B9AE97"/>
<stop offset="0.90497" stop-color="#A19E99"/>
<stop offset="1" stop-color="#999999"/>
</linearGradient>
<linearGradient id="paint2_linear_109_1688" x1="-6372.99" y1="1839.39" x2="-6372.99" y2="1630.02" gradientUnits="userSpaceOnUse">
<stop stop-color="#CCBA96"/>
<stop offset="0.17399" stop-color="#CEBD9B"/>
<stop offset="0.37911" stop-color="#D5C7A9"/>
<stop offset="0.59993" stop-color="#E1D6C1"/>
<stop offset="0.8303" stop-color="#F1ECE2"/>
<stop offset="1" stop-color="white"/>
</linearGradient>
<linearGradient id="paint3_linear_109_1688" x1="13374.8" y1="178836" x2="28849.6" y2="152034" gradientUnits="userSpaceOnUse">
<stop stop-color="#CCBA96"/>
<stop offset="0.17399" stop-color="#CEBD9B"/>
<stop offset="0.37911" stop-color="#D5C7A9"/>
<stop offset="0.59993" stop-color="#E1D6C1"/>
<stop offset="0.8303" stop-color="#F1ECE2"/>
<stop offset="1" stop-color="white"/>
</linearGradient>
<linearGradient id="paint4_linear_109_1688" x1="5150.04" y1="1051.05" x2="5367.32" y2="1051.05" gradientUnits="userSpaceOnUse">
<stop stop-color="#CCBA96"/>
<stop offset="0.17399" stop-color="#CEBD9B"/>
<stop offset="0.37911" stop-color="#D5C7A9"/>
<stop offset="0.59993" stop-color="#E1D6C1"/>
<stop offset="0.8303" stop-color="#F1ECE2"/>
<stop offset="1" stop-color="white"/>
</linearGradient>
<linearGradient id="paint5_linear_109_1688" x1="319.841" y1="68.9813" x2="322.264" y2="68.9813" gradientUnits="userSpaceOnUse">
<stop stop-color="#CCBA96"/>
<stop offset="0.45603" stop-color="#E4DBC8"/>
<stop offset="1" stop-color="white"/>
</linearGradient>
<linearGradient id="paint6_linear_109_1688" x1="1117.81" y1="1675.04" x2="1122.29" y2="1675.04" gradientUnits="userSpaceOnUse">
<stop stop-color="#CCBA96"/>
<stop offset="0.17399" stop-color="#CEBD9B"/>
<stop offset="0.37911" stop-color="#D5C7A9"/>
<stop offset="0.59993" stop-color="#E1D6C1"/>
<stop offset="0.8303" stop-color="#F1ECE2"/>
<stop offset="1" stop-color="white"/>
</linearGradient>
<linearGradient id="paint7_linear_109_1688" x1="1190.12" y1="1886.5" x2="1195.46" y2="1886.5" gradientUnits="userSpaceOnUse">
<stop stop-color="#CCBA96"/>
<stop offset="0.45603" stop-color="#E4DBC8"/>
<stop offset="1" stop-color="white"/>
</linearGradient>
<linearGradient id="paint8_linear_109_1688" x1="1117.81" y1="1849.56" x2="1122.29" y2="1849.56" gradientUnits="userSpaceOnUse">
<stop stop-color="#CCBA96"/>
<stop offset="0.17399" stop-color="#CEBD9B"/>
<stop offset="0.37911" stop-color="#D5C7A9"/>
<stop offset="0.59993" stop-color="#E1D6C1"/>
<stop offset="0.8303" stop-color="#F1ECE2"/>
<stop offset="1" stop-color="white"/>
</linearGradient>
<radialGradient id="paint9_radial_109_1688" cx="0" cy="0" r="1" gradientUnits="userSpaceOnUse" gradientTransform="translate(340.969 222.124) rotate(-30.3114) scale(20.5457)">
<stop stop-color="#CCBA96"/>
<stop offset="0.01749" stop-color="#C0AF8E"/>
<stop offset="0.08424" stop-color="#988C72"/>
<stop offset="0.15758" stop-color="#756C59"/>
<stop offset="0.23686" stop-color="#575144"/>
<stop offset="0.32401" stop-color="#3F3B33"/>
<stop offset="0.42232" stop-color="#2D2B26"/>
<stop offset="0.53826" stop-color="#201F1D"/>
<stop offset="0.6886" stop-color="#181818"/>
<stop offset="0.99874" stop-color="#161616"/>
</radialGradient>
<radialGradient id="paint10_radial_109_1688" cx="0" cy="0" r="1" gradientUnits="userSpaceOnUse" gradientTransform="translate(340.977 222.129) rotate(-30.3113) scale(6.35315)">
<stop stop-color="#CCBA96"/>
<stop offset="0.1139" stop-color="#C6B492"/>
<stop offset="0.2699" stop-color="#B4A585"/>
<stop offset="0.45026" stop-color="#978A71"/>
<stop offset="0.64892" stop-color="#6F6655"/>
<stop offset="0.86006" stop-color="#3C3831"/>
<stop offset="1" stop-color="#161616"/>
</radialGradient>
<radialGradient id="paint11_radial_109_1688" cx="0" cy="0" r="1" gradientUnits="userSpaceOnUse" gradientTransform="translate(-15595.3 -87704.7) rotate(-30.3113) scale(336.917 336.917)">
<stop stop-color="#CCBA96"/>
<stop offset="0.01749" stop-color="#C0AF8E"/>
<stop offset="0.08424" stop-color="#988C72"/>
<stop offset="0.15758" stop-color="#756C59"/>
<stop offset="0.23686" stop-color="#575144"/>
<stop offset="0.32401" stop-color="#3F3B33"/>
<stop offset="0.42232" stop-color="#2D2B26"/>
<stop offset="0.53826" stop-color="#201F1D"/>
<stop offset="0.6886" stop-color="#181818"/>
<stop offset="0.99874" stop-color="#161616"/>
</radialGradient>
<radialGradient id="paint12_radial_109_1688" cx="0" cy="0" r="1" gradientUnits="userSpaceOnUse" gradientTransform="translate(7419.65 20207.7) scale(17.996)">
<stop stop-color="#CCBA96"/>
<stop offset="0.1139" stop-color="#C6B492"/>
<stop offset="0.2699" stop-color="#B4A585"/>
<stop offset="0.45026" stop-color="#978A71"/>
<stop offset="0.64892" stop-color="#6F6655"/>
<stop offset="0.86006" stop-color="#3C3831"/>
<stop offset="1" stop-color="#161616"/>
</radialGradient>
<radialGradient id="paint13_radial_109_1688" cx="0" cy="0" r="1" gradientUnits="userSpaceOnUse" gradientTransform="translate(-5896.77 -34112.4) rotate(-30.3113) scale(56.9058)">
<stop stop-color="#CCBA96"/>
<stop offset="0.01749" stop-color="#C0AF8E"/>
<stop offset="0.08424" stop-color="#988C72"/>
<stop offset="0.15758" stop-color="#756C59"/>
<stop offset="0.23686" stop-color="#575144"/>
<stop offset="0.32401" stop-color="#3F3B33"/>
<stop offset="0.42232" stop-color="#2D2B26"/>
<stop offset="0.53826" stop-color="#201F1D"/>
<stop offset="0.6886" stop-color="#181818"/>
<stop offset="0.99874" stop-color="#161616"/>
</radialGradient>
<radialGradient id="paint14_radial_109_1688" cx="0" cy="0" r="1" gradientUnits="userSpaceOnUse" gradientTransform="translate(4154.91 11171.6) scale(5.4412)">
<stop stop-color="#CCBA96"/>
<stop offset="0.1139" stop-color="#C6B492"/>
<stop offset="0.2699" stop-color="#B4A585"/>
<stop offset="0.45026" stop-color="#978A71"/>
<stop offset="0.64892" stop-color="#6F6655"/>
<stop offset="0.86006" stop-color="#3C3831"/>
<stop offset="1" stop-color="#161616"/>
</radialGradient>
<radialGradient id="paint15_radial_109_1688" cx="0" cy="0" r="1" gradientUnits="userSpaceOnUse" gradientTransform="translate(-7256.08 -45056.8) rotate(-30.3113) scale(95.2456)">
<stop stop-color="#CCBA96"/>
<stop offset="0.01749" stop-color="#C0AF8E"/>
<stop offset="0.08424" stop-color="#988C72"/>
<stop offset="0.15758" stop-color="#756C59"/>
<stop offset="0.23686" stop-color="#575144"/>
<stop offset="0.32401" stop-color="#3F3B33"/>
<stop offset="0.42232" stop-color="#2D2B26"/>
<stop offset="0.53826" stop-color="#201F1D"/>
<stop offset="0.6886" stop-color="#181818"/>
<stop offset="0.99874" stop-color="#161616"/>
</radialGradient>
<radialGradient id="paint16_radial_109_1688" cx="0" cy="0" r="1" gradientUnits="userSpaceOnUse" gradientTransform="translate(5528.53 14314) scale(9.10704)">
<stop stop-color="#CCBA96"/>
<stop offset="0.1139" stop-color="#C6B492"/>
<stop offset="0.2699" stop-color="#B4A585"/>
<stop offset="0.45026" stop-color="#978A71"/>
<stop offset="0.64892" stop-color="#6F6655"/>
<stop offset="0.86006" stop-color="#3C3831"/>
<stop offset="1" stop-color="#161616"/>
</radialGradient>
<radialGradient id="paint17_radial_109_1688" cx="0" cy="0" r="1" gradientUnits="userSpaceOnUse" gradientTransform="translate(-30656.6 -201879) rotate(-30.3111) scale(1684.63)">
<stop stop-color="#CCBA96"/>
<stop offset="0.01749" stop-color="#C0AF8E"/>
<stop offset="0.08424" stop-color="#988C72"/>
<stop offset="0.15758" stop-color="#756C59"/>
<stop offset="0.23686" stop-color="#575144"/>
<stop offset="0.32401" stop-color="#3F3B33"/>
<stop offset="0.42232" stop-color="#2D2B26"/>
<stop offset="0.53826" stop-color="#201F1D"/>
<stop offset="0.6886" stop-color="#181818"/>
<stop offset="0.99874" stop-color="#161616"/>
</radialGradient>
<radialGradient id="paint18_radial_109_1688" cx="0" cy="0" r="1" gradientUnits="userSpaceOnUse" gradientTransform="translate(18168.1 45653.4) scale(93.7562)">
<stop stop-color="#CCBA96"/>
<stop offset="0.1139" stop-color="#C6B492"/>
<stop offset="0.2699" stop-color="#B4A585"/>
<stop offset="0.45026" stop-color="#978A71"/>
<stop offset="0.64892" stop-color="#6F6655"/>
<stop offset="0.86006" stop-color="#3C3831"/>
<stop offset="1" stop-color="#161616"/>
</radialGradient>
<radialGradient id="paint19_radial_109_1688" cx="0" cy="0" r="1" gradientUnits="userSpaceOnUse" gradientTransform="translate(-4951.35 -30240.5) rotate(-30.3113) scale(44.9143)">
<stop stop-color="#CCBA96"/>
<stop offset="0.01749" stop-color="#C0AF8E"/>
<stop offset="0.08424" stop-color="#988C72"/>
<stop offset="0.15758" stop-color="#756C59"/>
<stop offset="0.23686" stop-color="#575144"/>
<stop offset="0.32401" stop-color="#3F3B33"/>
<stop offset="0.42232" stop-color="#2D2B26"/>
<stop offset="0.53826" stop-color="#201F1D"/>
<stop offset="0.6886" stop-color="#181818"/>
<stop offset="0.99874" stop-color="#161616"/>
</radialGradient>
<radialGradient id="paint20_radial_109_1688" cx="0" cy="0" r="1" gradientUnits="userSpaceOnUse" gradientTransform="translate(3816.27 9962.67) scale(4.29452)">
<stop stop-color="#CCBA96"/>
<stop offset="0.1139" stop-color="#C6B492"/>
<stop offset="0.2699" stop-color="#B4A585"/>
<stop offset="0.45026" stop-color="#978A71"/>
<stop offset="0.64892" stop-color="#6F6655"/>
<stop offset="0.86006" stop-color="#3C3831"/>
<stop offset="1" stop-color="#161616"/>
</radialGradient>
<radialGradient id="paint21_radial_109_1688" cx="0" cy="0" r="1" gradientUnits="userSpaceOnUse" gradientTransform="translate(-8449.97 -67332.5) rotate(-30.3112) scale(200.705)">
<stop stop-color="#CCBA96"/>
<stop offset="0.01749" stop-color="#C0AF8E"/>
<stop offset="0.08424" stop-color="#988C72"/>
<stop offset="0.15758" stop-color="#756C59"/>
<stop offset="0.23686" stop-color="#575144"/>
<stop offset="0.32401" stop-color="#3F3B33"/>
<stop offset="0.42232" stop-color="#2D2B26"/>
<stop offset="0.53826" stop-color="#201F1D"/>
<stop offset="0.6886" stop-color="#181818"/>
<stop offset="0.99874" stop-color="#161616"/>
</radialGradient>
<radialGradient id="paint22_radial_109_1688" cx="0" cy="0" r="1" gradientUnits="userSpaceOnUse" gradientTransform="translate(8769.16 20437.2) scale(19.1906)">
<stop stop-color="#CCBA96"/>
<stop offset="0.1139" stop-color="#C6B492"/>
<stop offset="0.2699" stop-color="#B4A585"/>
<stop offset="0.45026" stop-color="#978A71"/>
<stop offset="0.64892" stop-color="#6F6655"/>
<stop offset="0.86006" stop-color="#3C3831"/>
<stop offset="1" stop-color="#161616"/>
</radialGradient>
<linearGradient id="paint23_linear_109_1688" x1="13189.3" y1="45701.2" x2="45655" y2="45701.2" gradientUnits="userSpaceOnUse">
<stop stop-color="#999999"/>
<stop offset="0.1769" stop-color="#9E9E9E"/>
<stop offset="0.38543" stop-color="#ACACAC"/>
<stop offset="0.60998" stop-color="#C4C4C4"/>
<stop offset="0.84418" stop-color="#E5E5E5"/>
<stop offset="1" stop-color="white"/>
</linearGradient>
<linearGradient id="paint24_linear_109_1688" x1="2266.12" y1="31639.9" x2="3223.34" y2="31639.9" gradientUnits="userSpaceOnUse">
<stop stop-color="#161616"/>
<stop offset="0.09233" stop-color="#212121"/>
<stop offset="0.25419" stop-color="#3E3E3E"/>
<stop offset="0.46641" stop-color="#6D6D6D"/>
<stop offset="0.72097" stop-color="#AFAFAF"/>
<stop offset="1" stop-color="white"/>
</linearGradient>
<linearGradient id="paint25_linear_109_1688" x1="24802.3" y1="44924.7" x2="89579" y2="44924.7" gradientUnits="userSpaceOnUse">
<stop stop-color="#161616"/>
<stop offset="0.09233" stop-color="#212121"/>
<stop offset="0.25419" stop-color="#3E3E3E"/>
<stop offset="0.46641" stop-color="#6D6D6D"/>
<stop offset="0.72097" stop-color="#AFAFAF"/>
<stop offset="1" stop-color="white"/>
</linearGradient>
<linearGradient id="paint26_linear_109_1688" x1="46592.2" y1="44779" x2="111438" y2="44779" gradientUnits="userSpaceOnUse">
<stop stop-color="#999999"/>
<stop offset="0.35348" stop-color="#BABABA"/>
<stop offset="1" stop-color="white"/>
</linearGradient>
<linearGradient id="paint27_linear_109_1688" x1="14892.5" y1="12204.1" x2="19141.3" y2="12204.1" gradientUnits="userSpaceOnUse">
<stop stop-color="#999999"/>
<stop offset="0.1769" stop-color="#9E9E9E"/>
<stop offset="0.38543" stop-color="#ACACAC"/>
<stop offset="0.60998" stop-color="#C4C4C4"/>
<stop offset="0.84418" stop-color="#E5E5E5"/>
<stop offset="1" stop-color="white"/>
</linearGradient>
</defs>
</svg>
