<svg width="370" height="287" viewBox="0 0 370 287" fill="none" xmlns="http://www.w3.org/2000/svg">
<path d="M305.05 156.649C304.167 156.783 303.29 156.961 302.424 157.184C298.366 158.287 294.52 160.058 291.044 162.425L295.446 166.957C298.922 164.59 302.768 162.819 306.826 161.716C307.692 161.493 308.569 161.315 309.453 161.181L305.05 156.649Z" fill="#CCBA96"/>
<path style="mix-blend-mode:lighten" opacity="0.2" d="M187.399 157.339C217.222 148.971 234.616 118.011 226.249 88.1879C217.881 58.3643 186.921 40.9707 157.098 49.3382C127.274 57.7056 109.881 88.6655 118.248 118.489C126.615 148.313 157.575 165.706 187.399 157.339Z" fill="url(#paint0_radial_109_2007)"/>
<path style="mix-blend-mode:lighten" opacity="0.2" d="M174.834 286.801C226.029 286.801 267.53 262.84 267.53 233.283C267.53 203.725 226.029 179.765 174.834 179.765C123.64 179.765 82.1386 203.725 82.1386 233.283C82.1386 262.84 123.64 286.801 174.834 286.801Z" fill="url(#paint1_radial_109_2007)"/>
<path d="M173.451 243.718C172.908 243.707 172.365 243.689 171.823 243.664L171.898 242.058C172.426 242.082 172.955 242.1 173.484 242.111L173.451 243.718ZM176.706 243.707L176.66 242.1C177.189 242.085 177.718 242.064 178.246 242.036L178.332 243.641C177.791 243.67 177.249 243.692 176.706 243.707H176.706ZM168.576 243.435C168.035 243.383 167.496 243.324 166.959 243.259L167.152 241.663C167.675 241.727 168.202 241.785 168.73 241.835L168.576 243.435ZM181.577 243.386L181.411 241.788C181.937 241.733 182.463 241.672 182.987 241.604L183.194 243.198C182.656 243.267 182.117 243.33 181.577 243.386L181.577 243.386ZM163.734 242.78C163.197 242.685 162.663 242.583 162.133 242.475L162.455 240.9C162.971 241.006 163.491 241.105 164.014 241.197L163.734 242.78ZM186.411 242.695L186.122 241.113C186.643 241.018 187.16 240.915 187.675 240.804L188.011 242.377C187.481 242.49 186.948 242.596 186.411 242.695L186.411 242.695ZM158.957 241.731C158.429 241.591 157.905 241.444 157.386 241.289L157.845 239.748C158.348 239.898 158.856 240.041 159.368 240.177L158.957 241.731ZM191.178 241.605L190.753 240.055C191.263 239.915 191.769 239.768 192.271 239.613L192.745 241.149C192.227 241.309 191.705 241.461 191.179 241.605L191.178 241.605ZM154.286 240.253C153.772 240.062 153.264 239.863 152.763 239.657L153.375 238.171C153.859 238.37 154.349 238.562 154.845 238.746L154.286 240.253ZM195.835 240.084L195.261 238.582C195.754 238.393 196.242 238.196 196.724 237.991L197.353 239.471C196.854 239.683 196.348 239.888 195.835 240.084L195.835 240.084ZM149.782 238.293C149.291 238.045 148.808 237.788 148.334 237.522L149.12 236.119C149.574 236.374 150.037 236.621 150.508 236.859L149.782 238.293ZM200.319 238.073L199.573 236.649C200.042 236.404 200.502 236.151 200.954 235.891C201.283 235.7 201.606 235.507 201.921 235.312L202.77 236.677C202.44 236.882 202.103 237.084 201.758 237.283C201.286 237.555 200.806 237.818 200.319 238.073V238.073ZM145.541 235.784C145.079 235.465 144.635 235.14 144.21 234.809L145.195 233.539C145.598 233.851 146.018 234.159 146.455 234.462L145.541 235.784ZM205.478 234.796L204.491 233.527C204.906 233.204 205.309 232.87 205.692 232.534L206.754 233.741C206.347 234.098 205.918 234.453 205.478 234.796V234.796ZM141.721 232.616C141.322 232.214 140.941 231.802 140.59 231.391L141.812 230.347C142.137 230.727 142.49 231.11 142.861 231.483L141.721 232.616ZM209.095 231.376L207.872 230.333C208.213 229.934 208.533 229.526 208.824 229.123L210.128 230.06C209.813 230.501 209.464 230.943 209.095 231.376V231.376ZM138.634 228.671C138.347 228.184 138.084 227.681 137.851 227.176L139.312 226.504C139.525 226.966 139.76 227.417 140.019 227.855L138.634 228.671ZM211.827 227.156L210.365 226.487C210.576 226.027 210.761 225.556 210.919 225.076L212.447 225.577C212.269 226.115 212.062 226.642 211.827 227.156V227.156ZM136.793 223.952C136.68 223.393 136.603 222.829 136.561 222.261L138.163 222.142C138.201 222.643 138.27 223.142 138.369 223.634L136.793 223.952ZM213.11 222.239L211.506 222.125C211.526 221.842 211.536 221.56 211.536 221.276C211.536 221.06 211.53 220.841 211.518 220.622L213.123 220.532C213.137 220.779 213.144 221.027 213.145 221.274C213.145 221.597 213.133 221.919 213.11 222.239ZM138.326 219.144L136.744 218.856C136.847 218.298 136.982 217.745 137.151 217.203L138.686 217.68C138.537 218.16 138.417 218.649 138.326 219.144ZM210.977 217.661C210.827 217.178 210.649 216.705 210.445 216.243L211.916 215.594C212.145 216.113 212.344 216.644 212.513 217.184L210.977 217.661ZM139.902 214.899L138.504 214.104C138.774 213.629 139.077 213.151 139.405 212.683L140.722 213.604C140.423 214.032 140.147 214.467 139.902 214.899ZM208.937 213.591C208.648 213.178 208.332 212.768 208 212.371L209.233 211.339C209.594 211.77 209.937 212.217 210.253 212.667L208.937 213.591ZM142.694 211.237L141.542 210.117C141.924 209.724 142.327 209.337 142.742 208.965L143.814 210.164C143.427 210.51 143.05 210.871 142.694 211.237ZM205.842 210.151C205.458 209.809 205.057 209.472 204.648 209.149L205.645 207.887C206.078 208.23 206.505 208.588 206.913 208.952L205.842 210.151ZM146.258 208.226L145.332 206.911C145.772 206.601 146.23 206.296 146.704 205.998L147.561 207.357C147.111 207.641 146.677 207.931 146.258 208.226V208.226ZM202.092 207.347C201.722 207.114 201.343 206.885 200.953 206.66L200.742 206.539L201.541 205.144L201.757 205.268C202.166 205.504 202.563 205.744 202.949 205.988L202.092 207.347ZM150.293 205.801L149.559 204.37C150.042 204.123 150.533 203.883 151.031 203.65L151.708 205.109C151.229 205.331 150.757 205.562 150.293 205.801ZM197.943 205.102C197.469 204.883 196.988 204.67 196.5 204.466L197.122 202.984C197.628 203.195 198.127 203.415 198.619 203.644L197.943 205.102ZM154.618 203.889L154.05 202.385C154.557 202.194 155.07 202.01 155.59 201.835L156.105 203.357C155.604 203.527 155.109 203.704 154.618 203.889ZM193.544 203.35C193.049 203.182 192.547 203.02 192.039 202.866L192.506 201.329C193.03 201.488 193.548 201.654 194.061 201.828L193.544 203.35ZM159.132 202.436L158.713 200.885C159.236 200.744 159.763 200.61 160.294 200.483L160.666 202.046C160.151 202.169 159.64 202.299 159.132 202.436V202.436ZM188.982 202.041C188.47 201.92 187.954 201.804 187.434 201.695L187.763 200.122C188.297 200.233 188.828 200.352 189.353 200.477L188.982 202.041ZM163.769 201.397L163.484 199.816C164.017 199.719 164.553 199.63 165.091 199.548L165.332 201.138C164.808 201.217 164.287 201.304 163.769 201.397H163.769ZM184.311 201.134C183.791 201.055 183.267 200.982 182.74 200.915L182.941 199.321C183.481 199.389 184.019 199.464 184.554 199.545L184.311 201.134ZM168.482 200.741L168.321 199.141C168.86 199.087 169.401 199.04 169.942 199L170.063 200.602C169.535 200.643 169.008 200.689 168.482 200.741H168.482ZM179.58 200.6C179.054 200.562 178.526 200.529 177.996 200.503L178.075 198.897C178.618 198.924 179.159 198.957 179.699 198.998L179.58 200.6ZM173.233 200.444L173.193 198.838C173.736 198.824 174.278 198.818 174.821 198.817V200.425C174.292 200.425 173.763 200.432 173.233 200.444L173.233 200.444Z" fill="#CCBA96"/>
<path style="mix-blend-mode:lighten" opacity="0.5" d="M212.34 53.3086H137.329V220.73L137.374 220.73C137.125 226.452 140.75 232.22 148.314 236.587C162.961 245.043 186.709 245.044 201.355 236.587C208.679 232.359 212.34 226.817 212.34 221.275V53.3086Z" fill="url(#paint2_radial_109_2007)"/>
<path opacity="0.1" d="M174.834 242.929C195.548 242.929 212.34 233.235 212.34 221.276C212.34 209.316 195.548 199.622 174.834 199.622C154.121 199.622 137.329 209.316 137.329 221.276C137.329 233.235 154.121 242.929 174.834 242.929Z" fill="#CCBA96"/>
<path d="M174.835 211.325C165.152 211.325 155.47 209.197 148.098 204.941C140.875 200.771 136.897 195.2 136.897 189.255C136.897 183.311 140.875 177.74 148.097 173.57C162.84 165.058 186.827 165.06 201.571 173.57C208.794 177.741 212.772 183.312 212.772 189.257C212.772 195.201 208.794 200.771 201.571 204.941C194.2 209.197 184.518 211.325 174.835 211.325ZM174.833 168.038C165.307 168.038 155.782 170.131 148.529 174.318C141.585 178.327 137.76 183.632 137.76 189.255C137.761 194.879 141.585 200.184 148.53 204.193C163.035 212.567 186.636 212.566 201.139 204.193C208.084 200.184 211.908 194.879 211.908 189.257C211.908 183.633 208.084 178.328 201.139 174.318C193.887 170.132 184.359 168.038 174.833 168.038Z" fill="#CCBA96"/>
<path opacity="0.5" d="M174.835 189.671C165.152 189.671 155.47 187.543 148.098 183.287C140.875 179.117 136.897 173.546 136.897 167.602C136.897 161.657 140.875 156.086 148.097 151.916C162.84 143.405 186.827 143.404 201.571 151.917C208.794 156.087 212.772 161.658 212.772 167.603C212.772 173.548 208.794 179.117 201.571 183.287C194.2 187.543 184.518 189.671 174.835 189.671ZM174.833 146.383C165.307 146.383 155.781 148.477 148.529 152.664C141.585 156.673 137.76 161.979 137.76 167.602C137.761 173.225 141.585 178.53 148.53 182.539C163.035 190.913 186.636 190.913 201.139 182.539C208.084 178.53 211.908 173.226 211.908 167.603C211.908 161.979 208.084 156.675 201.139 152.665C193.887 148.477 184.359 146.383 174.833 146.383Z" fill="#CCBA96"/>
<path opacity="0.3" d="M174.836 168.017C165.152 168.017 155.471 165.89 148.098 161.633C140.875 157.463 136.897 151.892 136.897 145.948C136.897 140.003 140.874 134.432 148.097 130.262C162.84 121.751 186.827 121.75 201.571 130.263C208.794 134.433 212.772 140.004 212.772 145.949C212.772 151.894 208.794 157.464 201.571 161.634C194.201 165.889 184.518 168.017 174.836 168.017ZM174.833 124.73C165.307 124.73 155.781 126.823 148.529 131.01C141.585 135.019 137.76 140.325 137.76 145.948C137.761 151.571 141.585 156.876 148.53 160.885C163.034 169.26 186.636 169.259 201.139 160.886C208.084 156.876 211.908 151.572 211.908 145.949C211.908 140.325 208.084 135.021 201.139 131.011C193.887 126.823 184.359 124.73 174.833 124.73Z" fill="#CCBA96"/>
<path opacity="0.1" d="M174.836 146.364C165.152 146.364 155.471 144.236 148.098 139.98C140.875 135.809 136.897 130.238 136.897 124.294C136.897 118.349 140.875 112.779 148.097 108.609C162.84 100.097 186.827 100.097 201.571 108.609C208.794 112.779 212.772 118.35 212.772 124.295C212.772 130.24 208.795 135.81 201.571 139.98C194.201 144.235 184.518 146.364 174.836 146.364ZM174.833 103.076C165.307 103.076 155.781 105.17 148.529 109.357C141.585 113.366 137.761 118.671 137.76 124.294C137.76 129.917 141.585 135.222 148.53 139.232C163.034 147.606 186.636 147.606 201.139 139.232C208.084 135.223 211.908 129.918 211.908 124.295C211.908 118.671 208.084 113.366 201.139 109.357C193.886 105.17 184.359 103.076 174.833 103.076V103.076Z" fill="#CCBA96"/>
<path d="M140.713 183.118C140.713 183.485 140.604 183.843 140.4 184.148C140.197 184.452 139.907 184.69 139.569 184.83C139.23 184.971 138.857 185.007 138.498 184.936C138.138 184.864 137.808 184.688 137.549 184.429C137.29 184.169 137.113 183.839 137.042 183.48C136.97 183.12 137.007 182.747 137.147 182.409C137.287 182.07 137.525 181.781 137.83 181.577C138.134 181.373 138.493 181.265 138.859 181.265C139.351 181.265 139.822 181.46 140.17 181.807C140.517 182.155 140.713 182.626 140.713 183.118Z" fill="white"/>
<path d="M196.875 173.67C197.898 173.67 198.728 172.841 198.728 171.817C198.728 170.794 197.898 169.964 196.875 169.964C195.851 169.964 195.021 170.794 195.021 171.817C195.021 172.841 195.851 173.67 196.875 173.67Z" fill="white"/>
<path d="M179.544 145.948C179.544 146.315 179.435 146.673 179.231 146.978C179.028 147.283 178.738 147.52 178.4 147.66C178.061 147.801 177.688 147.837 177.329 147.766C176.969 147.694 176.639 147.518 176.38 147.259C176.121 146.999 175.944 146.669 175.873 146.31C175.801 145.95 175.838 145.577 175.978 145.239C176.118 144.9 176.356 144.611 176.661 144.407C176.965 144.203 177.324 144.095 177.69 144.095C177.934 144.095 178.175 144.143 178.4 144.236C178.624 144.329 178.829 144.465 179.001 144.638C179.173 144.81 179.309 145.014 179.403 145.239C179.496 145.464 179.544 145.705 179.544 145.948Z" fill="white"/>
<path d="M150.392 130.544C150.392 130.911 150.283 131.269 150.08 131.574C149.876 131.879 149.587 132.116 149.248 132.256C148.909 132.397 148.537 132.433 148.177 132.362C147.818 132.29 147.487 132.114 147.228 131.855C146.969 131.596 146.792 131.265 146.721 130.906C146.649 130.546 146.686 130.174 146.826 129.835C146.967 129.496 147.204 129.207 147.509 129.003C147.814 128.8 148.172 128.691 148.539 128.691C149.03 128.691 149.502 128.886 149.849 129.234C150.197 129.581 150.392 130.053 150.392 130.544Z" fill="white"/>
<path d="M194.515 127.161C194.515 127.528 194.407 127.886 194.203 128.191C193.999 128.496 193.71 128.733 193.371 128.874C193.033 129.014 192.66 129.051 192.3 128.979C191.941 128.908 191.611 128.731 191.351 128.472C191.092 128.213 190.916 127.883 190.844 127.523C190.773 127.164 190.809 126.791 190.95 126.452C191.09 126.114 191.328 125.824 191.632 125.62C191.937 125.417 192.295 125.308 192.662 125.308C193.154 125.308 193.625 125.503 193.972 125.851C194.32 126.198 194.515 126.67 194.515 127.161Z" fill="white"/>
<path d="M210.207 114.637C210.207 115.004 210.098 115.362 209.894 115.667C209.691 115.971 209.401 116.209 209.063 116.349C208.724 116.49 208.351 116.526 207.992 116.455C207.632 116.383 207.302 116.207 207.043 115.948C206.784 115.688 206.607 115.358 206.536 114.999C206.464 114.639 206.501 114.266 206.641 113.928C206.782 113.589 207.019 113.3 207.324 113.096C207.629 112.892 207.987 112.784 208.354 112.784C208.597 112.784 208.838 112.832 209.063 112.925C209.288 113.018 209.492 113.154 209.664 113.327C209.836 113.499 209.973 113.703 210.066 113.928C210.159 114.153 210.207 114.394 210.207 114.637Z" fill="white"/>
<path d="M175.38 103.039C175.38 103.659 175.197 104.264 174.852 104.779C174.508 105.294 174.019 105.696 173.447 105.933C172.875 106.17 172.245 106.232 171.637 106.111C171.03 105.99 170.472 105.692 170.034 105.254C169.596 104.816 169.297 104.258 169.177 103.65C169.056 103.043 169.118 102.413 169.355 101.841C169.592 101.268 169.993 100.779 170.508 100.435C171.023 100.091 171.629 99.9072 172.248 99.9072C172.66 99.9072 173.067 99.9882 173.447 100.146C173.827 100.303 174.172 100.534 174.463 100.825C174.754 101.115 174.984 101.461 175.142 101.841C175.299 102.221 175.38 102.628 175.38 103.039Z" fill="#999999"/>
<path style="mix-blend-mode:lighten" opacity="0.2" d="M107.635 215.268C167.079 215.268 215.269 167.079 215.269 107.635C215.269 48.191 167.079 0.00195312 107.635 0.00195312C48.1911 0.00195312 0.00202942 48.191 0.00202942 107.635C0.00202942 167.079 48.1911 215.268 107.635 215.268Z" fill="url(#paint3_radial_109_2007)"/>
<path d="M171.597 60.8756C172.309 60.5941 175.819 58.5172 174.782 54.8591C173.745 51.2009 169.471 52.7042 168.243 53.292C167.179 54.0007 165.986 54.4945 164.732 54.7455C162.045 55.441 161.265 54.998 157.537 55.7479C155.567 56.1866 153.553 56.3893 151.535 56.3518C154.821 53.9902 156.813 49.6096 156.097 47.5744C155.381 45.5393 151.727 45.9096 150.323 47.2354C148.918 48.5611 145.542 51.4949 143.923 51.8566C142.186 52.3543 140.478 52.9481 138.807 53.6353C138.714 53.0584 138.447 52.5237 138.042 52.1032C137.636 51.6827 137.111 51.3966 136.538 51.2835C135.683 51.187 134.819 51.3358 134.046 51.7127C133.272 52.0896 132.623 52.6789 132.172 53.4117C131.492 54.4929 128.856 55.4203 128.856 55.4203C127.575 56.6809 127.055 57.6005 124.821 58.4456C123.701 58.8692 121.984 58.8663 119.86 59.6965C113.5 62.1832 114.999 64.3171 113.007 65.5103C111.015 66.7033 107.895 68.8118 107.895 68.8118C100.562 79.0789 89.1904 89.4862 80.285 96.8874C90.15 103.63 98.5789 118.404 99.9264 132.19C100.009 133.041 100.055 133.862 100.082 134.668C108.035 131.781 115.341 132.314 120.686 130.847C128.271 128.766 138.782 118.573 138.782 118.573C143.545 117.397 144.097 117.016 146.595 115.669C149.093 114.323 160.092 111.421 163.066 111.154C166.04 110.888 169.295 110.273 170.353 108.4C171.963 105.548 170.035 102.185 170.035 102.185C170.035 102.185 170.968 102.356 172.59 100.85C174.213 99.3435 172.883 96.0066 169.758 91.0243C166.634 86.0422 165.337 76.7993 162.865 75.0908C160.393 73.3824 153.071 68.7639 153.071 68.7639C157.255 67.9786 164.161 64.7385 166.205 63.9883C168.249 63.2384 170.885 61.1572 171.597 60.8756ZM154.55 86.2071C155.166 89.7327 158.304 93.4523 159 94.2473C159.68 95.2041 160.274 96.2198 160.774 97.2823C159.793 97.3106 158.817 97.4211 157.855 97.6126C152.231 99.0917 149.815 98.6942 147.35 98.1579C144.884 97.6216 140.186 93.1306 141.963 90.8217C143.739 88.5129 144.151 83.0351 144.151 83.0351C144.746 83.5742 147.929 83.0473 147.929 83.0473C148.806 84.9216 154.55 86.2071 154.55 86.2071Z" fill="url(#paint4_radial_109_2007)"/>
<path d="M120.417 128.218C124.992 126.602 134.89 119.287 138.782 118.574C138.782 118.574 128.271 128.766 120.686 130.847C116.636 131.959 111.459 131.92 105.727 133.093L108.068 129.425C108.068 129.425 115.841 129.834 120.417 128.218Z" fill="#CCBA96"/>
<path d="M148.849 84.0223C148.465 83.7799 148.149 83.4447 147.929 83.0475C147.929 83.0475 147.74 83.0786 147.449 83.1177C150.406 82.2287 152.044 78.6997 152.044 78.6997C152.237 81.3733 148.856 84.0169 148.849 84.0223Z" fill="#CCBA96"/>
<path d="M144.151 83.0353C144.151 83.0353 144.094 83.7939 143.931 84.8641L143.931 84.864C143.129 81.9385 144.179 77.9731 144.179 77.9731C144.202 79.7695 144.488 81.5528 145.029 83.2661C144.72 83.2768 144.415 83.1966 144.151 83.0353Z" fill="#CCBA96"/>
<path d="M154.82 87.2972C154.707 86.9399 154.617 86.5759 154.55 86.2073C154.55 86.2073 154.051 86.0946 153.334 85.892C156.299 85.7789 159.16 84.7724 161.542 83.0044C159.799 85.0957 157.451 86.5955 154.82 87.2972Z" fill="#CCBA96"/>
<g opacity="0.52">
<path opacity="0.52" d="M159.922 97.3086C159.511 97.4049 159.093 97.4609 158.671 97.4759C159.057 97.4154 159.517 97.3495 159.922 97.3086Z" fill="#E28C61"/>
</g>
<path d="M159.597 95.1011C159.597 95.1011 168.781 98.1671 170.035 102.186C168.978 100.782 167.638 99.6174 166.102 98.7662C164.566 97.915 162.867 97.3966 161.117 97.2447L160.74 97.213C160.611 96.949 160.105 95.9296 159.597 95.1012L159.597 95.1011Z" fill="#CCBA96"/>
<path d="M155.665 68.0949C155.665 68.0949 141.314 62.5875 139.662 62.0874L153.071 68.7642L155.665 68.0949Z" fill="#CCBA96"/>
<path d="M154.37 53.4238C153.596 54.5521 152.638 55.542 151.535 56.352C152.466 56.3786 153.397 56.3392 154.323 56.2342L154.322 56.2381L148.807 56.9372C151.008 56.4336 152.97 55.1942 154.37 53.4238Z" fill="#CCBA96"/>
<path d="M138.032 54.1576C138.86 53.7555 138.443 52.7074 138.339 52.4771C138.567 52.8299 138.726 53.2232 138.807 53.6356C138.807 53.6356 139.55 53.3351 140.506 52.9758C139.757 53.254 138.032 54.1576 138.032 54.1576Z" fill="#CCBA96"/>
<path d="M170.035 102.185C168.519 100.406 166.563 99.0555 164.361 98.2696C162.159 97.4837 159.79 97.2898 157.49 97.7073C158.984 97.2852 160.512 96.9923 162.056 96.8315C163.557 97.2314 164.983 97.8717 166.279 98.7276C167.111 99.2325 167.906 99.7979 168.655 100.419L170.035 102.185Z" fill="#CCBA96"/>
<path d="M103.084 102.069C103.084 102.069 115.617 116.079 111.271 129.863L105.796 129.814L103.084 102.069Z" fill="#CCBA96"/>
<path d="M89.7042 88.9658C85.4579 87.038 81.7479 87.2474 78.974 89.154L78.9701 89.1471L72.8552 93.5287C74.1273 93.8001 75.3656 94.211 76.5476 94.754C87.9441 99.928 98.4111 116.689 99.9263 132.191C100.331 135.681 100.119 139.215 99.2996 142.631L105.508 138.184L105.506 138.181C109.159 135.497 111.102 129.768 110.344 122.016C109.006 108.331 99.7655 93.5336 89.7042 88.9658Z" fill="white"/>
<g style="mix-blend-mode:lighten">
<path style="mix-blend-mode:lighten" d="M24.5332 124.211L24.5323 124.209L24.5572 124.191C24.5817 124.173 24.6073 124.156 24.632 124.138L64.389 94.9593L64.3933 94.9672C67.5353 92.8076 71.7378 92.5704 76.5476 94.754C87.9441 99.928 98.4112 116.689 99.9264 132.19C100.785 140.971 98.5847 147.46 94.4463 150.5L94.4481 150.503L55.0821 179.395C55.05 179.419 55.0168 179.441 54.9846 179.465L54.6356 179.715L54.6315 179.707C51.4986 181.814 47.328 182.028 42.5606 179.863C31.1639 174.689 20.6969 157.929 19.1818 142.427C18.3324 133.737 20.4773 127.29 24.5332 124.211Z" fill="url(#paint5_linear_109_2007)"/>
</g>
<path style="mix-blend-mode:lighten" opacity="0.2" d="M262.365 259.307C321.809 259.307 369.998 211.117 369.998 151.673C369.998 92.2291 321.809 44.04 262.365 44.04C202.92 44.04 154.731 92.2291 154.731 151.673C154.731 211.117 202.92 259.307 262.365 259.307Z" fill="url(#paint6_radial_109_2007)"/>
<path d="M277.475 151.115C277.215 150.709 276.966 150.281 276.733 149.825C276.733 149.825 263.578 126.472 262.854 123.02C262.609 121.799 262.042 120.665 261.21 119.738C260.379 118.81 259.314 118.122 258.127 117.745C256.913 116.749 255.42 116.154 253.853 116.044C253.853 116.044 251.59 112.816 243.479 113.448C235.368 114.081 235.544 113.621 235.544 113.621C235.544 113.621 224.018 98.6313 221.196 97.9089C218.373 97.1865 217.539 98.0413 214.183 97.8252C210.826 97.6091 206.715 97.0141 203.808 98.1489C202.604 98.7208 201.315 99.0935 199.992 99.2523C199.992 99.2523 195.269 99.715 196.559 103.168C197.045 104.327 197.873 105.311 198.933 105.988C199.993 106.664 201.233 107.002 202.49 106.956C203.24 106.796 206.067 106.184 206.737 106.401C207.406 106.618 210.628 109.364 215.067 108.941C215.879 111.487 217.201 113.841 218.952 115.86C218.952 115.86 216.517 116.956 216.713 121.221C216.908 125.485 220.918 138.268 221.568 138.851C222.217 139.435 222.51 140.167 226.228 141.107C226.228 141.107 225.788 143.708 220.684 144.75C216.521 144.765 212.369 144.327 208.302 143.443C207.343 142.527 206.136 141.914 204.832 141.68C202.45 141.152 197.208 139.764 193.769 141.993C190.329 144.223 190.216 146.379 192.81 148.277C194.605 149.452 196.715 150.052 198.859 149.997C199.958 151.593 201.248 153.049 202.702 154.33C204.192 155.331 214.38 157.092 221.125 161.248C222.808 162.282 224.605 163.119 226.48 163.74C229.481 165.07 232.19 166.978 234.453 169.355C234.453 169.355 242.047 175.274 250.073 177.472C251.361 177.824 252.571 178.231 253.71 178.66C257.948 166.864 267.677 155.742 277.475 151.115Z" fill="url(#paint7_radial_109_2007)"/>
<path d="M228.083 136.936L228.047 134.99L226.549 129.688L224.716 124.43L223.487 121.338L221.446 118.719L218.746 115.979C218.164 116.354 216.552 117.716 216.713 121.22C216.908 125.485 220.918 138.267 221.568 138.851C222.205 139.424 222.507 140.141 226.035 141.056L226.268 140.788L227.415 139.028L228.083 136.936Z" fill="#CCBA96"/>
<path d="M218.952 115.86C218.952 115.86 222.765 119.447 223.772 121.589C225.419 125.526 226.818 129.562 227.961 133.673C228.023 134.702 229.464 137.305 226.227 141.107L225.742 140.98C225.742 140.98 228.295 138.199 227.764 135.327C226.621 130.528 225.097 125.828 223.206 121.272C221.792 119.443 220.281 117.691 218.68 116.023L218.952 115.86Z" fill="#999999"/>
<path d="M225.682 127.537C225.682 127.537 220.818 124.088 219.922 123.652C219.922 123.652 224.689 127.04 224.664 127.841C224.644 128.085 224.56 128.32 224.422 128.522C224.283 128.725 224.094 128.887 223.874 128.995C223.874 128.995 225.625 128.165 226.171 128.831C226.718 129.497 225.682 127.537 225.682 127.537Z" fill="#999999"/>
<path d="M227.28 132.488C227.28 132.488 222.879 134.792 222.256 135.979C222.256 135.979 226.209 133.696 227.471 133.979L227.28 132.488Z" fill="#999999"/>
<path d="M215.273 109.545C214.974 108.289 214.771 107.013 214.667 105.726L214.711 108.968L215.003 109.095L215.273 109.545Z" fill="#CCBA96"/>
<path d="M247.409 173.535C247.409 173.535 237.476 170.344 233.174 166.384C228.873 162.425 224.878 162.877 221.54 161.513C223.131 162.373 224.782 163.117 226.48 163.74C229.48 165.07 232.19 166.978 234.453 169.355C238.91 172.719 243.865 175.365 249.14 177.198L247.409 173.535Z" fill="#CCBA96"/>
<path d="M270.808 141.375C275.234 140.318 278.75 141.209 281.053 143.551L281.058 143.545L286.101 148.881C284.832 148.904 283.569 149.067 282.335 149.368C270.454 152.204 257.308 166.315 252.973 180.884C251.936 184.152 251.482 187.578 251.631 191.003L246.511 185.588L246.513 185.585C243.512 182.334 242.717 176.484 244.885 169.199C248.713 156.336 260.319 143.879 270.808 141.375Z" fill="white"/>
<g style="mix-blend-mode:lighten">
<path style="mix-blend-mode:lighten" d="M326.687 187.265L326.689 187.264L326.668 187.242C326.648 187.22 326.627 187.199 326.606 187.177L293.946 151.826L293.94 151.833C291.332 149.18 287.35 148.171 282.335 149.368C270.455 152.204 257.308 166.315 252.973 180.884C250.517 189.137 251.417 195.763 254.817 199.445L254.814 199.448L287.154 234.451C287.18 234.48 287.208 234.507 287.234 234.536L287.522 234.841L287.527 234.834C290.137 237.435 294.093 238.416 299.063 237.229C310.944 234.393 324.09 220.282 328.425 205.713C330.856 197.546 330 190.969 326.687 187.265Z" fill="url(#paint8_linear_109_2007)"/>
</g>
<path opacity="0.4" d="M319.318 175.608C319.425 175.268 319.526 174.928 319.621 174.589C320.829 170.232 320.761 166.46 319.641 163.498L324.043 168.03C325.164 170.992 325.231 174.764 324.023 179.121C323.929 179.46 323.828 179.8 323.72 180.14L319.318 175.608Z" fill="#CCBA96"/>
<path opacity="0.2" d="M307.914 193.108C311.837 189.362 315.083 184.966 317.509 180.114L321.911 184.646C319.486 189.498 316.24 193.894 312.316 197.64L307.914 193.108Z" fill="#CCBA96"/>
<path opacity="0.05" d="M290.052 203.933C295.102 202.41 299.808 199.921 303.909 196.605L308.312 201.137C304.21 204.453 299.504 206.941 294.454 208.465L290.052 203.933Z" fill="#CCBA96"/>
<g style="mix-blend-mode:lighten" opacity="0.15">
<path style="mix-blend-mode:lighten" opacity="0.15" d="M332.633 156.274C316.769 141.959 284.486 159.309 269.185 183.553L262.365 176.531C281.726 147.089 313.435 136.923 325.813 149.253L332.633 156.274Z" fill="url(#paint9_linear_109_2007)"/>
</g>
<g style="mix-blend-mode:lighten" opacity="0.3">
<path style="mix-blend-mode:lighten" opacity="0.3" d="M336.095 179.757C324.983 212.773 284.145 236.849 266.736 220.649L259.876 213.666C277.753 229.614 318.591 205.538 329.235 172.774L336.095 179.757Z" fill="url(#paint10_linear_109_2007)"/>
</g>
<g style="mix-blend-mode:lighten" opacity="0.15">
<path style="mix-blend-mode:lighten" opacity="0.15" d="M266.736 220.649C252.796 204.455 270.895 172.586 295.49 157.856L288.63 150.873C258.743 169.541 247.839 201.003 259.876 213.666L266.736 220.649H266.736Z" fill="url(#paint11_linear_109_2007)"/>
</g>
<g opacity="0.2">
<path opacity="0.2" d="M321.742 164.366C319.533 162.221 316.585 161.004 313.505 160.966L309.103 156.434C312.183 156.472 315.131 157.689 317.34 159.834L321.742 164.366Z" fill="#CCBA96"/>
</g>
<g style="mix-blend-mode:lighten">
<path style="mix-blend-mode:lighten" d="M75.3698 176.079C92.259 162.989 80.8779 128.152 59.7141 108.813L67.8287 103.338C93.3929 127.59 97.8045 160.595 83.4844 170.604L75.3698 176.079Z" fill="url(#paint12_linear_109_2007)"/>
</g>
<path opacity="0.4" d="M32.8249 121.458C32.7872 121.103 32.756 120.75 32.7314 120.398C32.4155 115.889 33.2343 112.205 34.9228 109.526L29.7052 113.09C28.0168 115.768 27.198 119.452 27.5138 123.962C27.5384 124.313 27.5696 124.666 27.6075 125.021L32.8249 121.458V121.458Z" fill="#CCBA96"/>
<path opacity="0.2" d="M40.5098 140.88C37.4124 136.427 35.1082 131.472 33.6988 126.233L28.4813 129.797C29.8907 135.035 32.1949 139.99 35.2923 144.443L40.5097 140.88H40.5098Z" fill="#CCBA96"/>
<path opacity="0.05" d="M55.8547 155.05C51.2106 152.55 47.0953 149.173 43.7369 145.106L38.5193 148.669C41.8778 152.736 45.9931 156.113 50.6372 158.613L55.8547 155.05Z" fill="#CCBA96"/>
<g style="mix-blend-mode:lighten" opacity="0.15">
<path style="mix-blend-mode:lighten" opacity="0.15" d="M23.632 99.8566C42.0314 88.9925 70.2069 112.431 80.3668 139.239L88.4501 133.718C75.3488 101.007 46.3035 84.7224 31.7154 94.3361L23.632 99.8566Z" fill="url(#paint13_linear_109_2007)"/>
</g>
<g style="mix-blend-mode:lighten" opacity="0.3">
<path style="mix-blend-mode:lighten" opacity="0.3" d="M15.557 122.178C19.863 156.746 55.0799 188.482 75.3698 176.079L83.4844 170.604C62.7865 182.667 27.5696 150.931 23.6716 116.704L15.557 122.178Z" fill="url(#paint14_linear_109_2007)"/>
</g>
<g style="mix-blend-mode:lighten" opacity="0.15">
<path style="mix-blend-mode:lighten" opacity="0.15" d="M75.3698 176.079C92.259 162.989 80.8779 128.152 59.7141 108.813L67.8287 103.338C93.3929 127.59 97.8045 160.595 83.4844 170.604L75.3698 176.079Z" fill="url(#paint15_linear_109_2007)"/>
</g>
<g opacity="0.2">
<path opacity="0.2" d="M32.6903 109.958C35.2834 108.296 38.4147 107.691 41.4401 108.268L46.6575 104.705C43.6321 104.128 40.5008 104.733 37.9078 106.395L32.6903 109.958Z" fill="#CCBA96"/>
</g>
<defs>
<radialGradient id="paint0_radial_109_2007" cx="0" cy="0" r="1" gradientUnits="userSpaceOnUse" gradientTransform="translate(172.248 103.338) scale(56.0853)">
<stop stop-color="#CCBA96"/>
<stop offset="0.19041" stop-color="#A7997C"/>
<stop offset="0.7491" stop-color="#3F3B33"/>
<stop offset="0.99865" stop-color="#161616"/>
</radialGradient>
<radialGradient id="paint1_radial_109_2007" cx="0" cy="0" r="1" gradientUnits="userSpaceOnUse" gradientTransform="translate(174.834 233.283) rotate(30.0007) scale(75.6853 65.5463)">
<stop stop-color="#CCBA96"/>
<stop offset="0.03897" stop-color="#C0AF8D"/>
<stop offset="0.21686" stop-color="#8C8169"/>
<stop offset="0.39198" stop-color="#625A4B"/>
<stop offset="0.56089" stop-color="#413D34"/>
<stop offset="0.72179" stop-color="#292723"/>
<stop offset="0.87139" stop-color="#1B1A19"/>
<stop offset="0.99866" stop-color="#161616"/>
</radialGradient>
<radialGradient id="paint2_radial_109_2007" cx="0" cy="0" r="1" gradientUnits="userSpaceOnUse" gradientTransform="translate(174.834 254.653) scale(216.073)">
<stop stop-color="#CCBA96"/>
<stop offset="0.22222" stop-color="#999999"/>
<stop offset="0.34806" stop-color="#D6D6D6"/>
<stop offset="0.44246" stop-color="white"/>
<stop offset="0.48283" stop-color="#DFDFDF"/>
<stop offset="0.55711" stop-color="#AAAAAA"/>
<stop offset="0.63247" stop-color="#7D7D7D"/>
<stop offset="0.70742" stop-color="#585858"/>
<stop offset="0.7819" stop-color="#3B3B3B"/>
<stop offset="0.85574" stop-color="#262626"/>
<stop offset="0.92876" stop-color="#1A1A1A"/>
<stop offset="1" stop-color="#161616"/>
</radialGradient>
<radialGradient id="paint3_radial_109_2007" cx="0" cy="0" r="1" gradientUnits="userSpaceOnUse" gradientTransform="translate(107.634 107.639) rotate(2.65382) scale(107.636)">
<stop stop-color="#CCBA96"/>
<stop offset="0.17262" stop-color="#CCBA96"/>
<stop offset="0.25684" stop-color="#A99B7E"/>
<stop offset="0.38174" stop-color="#7D735E"/>
<stop offset="0.50773" stop-color="#585144"/>
<stop offset="0.63296" stop-color="#3B3730"/>
<stop offset="0.75722" stop-color="#262522"/>
<stop offset="0.88007" stop-color="#1A1A19"/>
<stop offset="1" stop-color="#161616"/>
</radialGradient>
<radialGradient id="paint4_radial_109_2007" cx="0" cy="0" r="1" gradientUnits="userSpaceOnUse" gradientTransform="translate(155.643 77.2861) scale(69.4266)">
<stop stop-color="#CCBA96"/>
<stop offset="0.31083" stop-color="#C9B896"/>
<stop offset="0.54388" stop-color="#BFB297"/>
<stop offset="0.75088" stop-color="#AFA798"/>
<stop offset="0.94114" stop-color="#999999"/>
</radialGradient>
<linearGradient id="paint5_linear_109_2007" x1="110.369" y1="98.1289" x2="59.7916" y2="137.124" gradientUnits="userSpaceOnUse">
<stop stop-color="white"/>
<stop offset="1" stop-color="#161616"/>
</linearGradient>
<radialGradient id="paint6_radial_109_2007" cx="0" cy="0" r="1" gradientUnits="userSpaceOnUse" gradientTransform="translate(23244.8 36486.5) scale(21788.8)">
<stop stop-color="#CCBA96"/>
<stop offset="0.17262" stop-color="#CCBA96"/>
<stop offset="0.25684" stop-color="#A99B7E"/>
<stop offset="0.38174" stop-color="#7D735E"/>
<stop offset="0.50773" stop-color="#585144"/>
<stop offset="0.63296" stop-color="#3B3730"/>
<stop offset="0.75722" stop-color="#262522"/>
<stop offset="0.88007" stop-color="#1A1A19"/>
<stop offset="1" stop-color="#161616"/>
</radialGradient>
<radialGradient id="paint7_radial_109_2007" cx="0" cy="0" r="1" gradientUnits="userSpaceOnUse" gradientTransform="translate(205.164 103.553) scale(96.3432)">
<stop stop-color="#CCBA96"/>
<stop offset="0.40453" stop-color="#CAB996"/>
<stop offset="0.55026" stop-color="#C3B497"/>
<stop offset="0.6541" stop-color="#B8AD97"/>
<stop offset="0.73752" stop-color="#A7A298"/>
<stop offset="0.78571" stop-color="#999999"/>
</radialGradient>
<linearGradient id="paint8_linear_109_2007" x1="-16158.9" y1="21688.8" x2="-12780.8" y2="25085.6" gradientUnits="userSpaceOnUse">
<stop stop-color="white"/>
<stop offset="1" stop-color="#161616"/>
</linearGradient>
<linearGradient id="paint9_linear_109_2007" x1="319.859" y1="143.158" x2="273.739" y2="188.214" gradientUnits="userSpaceOnUse">
<stop stop-color="#161616"/>
<stop offset="0.11432" stop-color="#1C1C1A"/>
<stop offset="0.26966" stop-color="#2E2B27"/>
<stop offset="0.44857" stop-color="#4A453B"/>
<stop offset="0.64505" stop-color="#726957"/>
<stop offset="0.85346" stop-color="#A4967A"/>
<stop offset="0.99864" stop-color="#CCBA96"/>
</linearGradient>
<linearGradient id="paint10_linear_109_2007" x1="272.581" y1="226.671" x2="328.529" y2="172.013" gradientUnits="userSpaceOnUse">
<stop stop-color="#161616"/>
<stop offset="0.11433" stop-color="#1C1C1A"/>
<stop offset="0.26969" stop-color="#2E2B27"/>
<stop offset="0.44862" stop-color="#4A453B"/>
<stop offset="0.64511" stop-color="#726957"/>
<stop offset="0.85355" stop-color="#A4967A"/>
<stop offset="0.99874" stop-color="#CCBA96"/>
</linearGradient>
<linearGradient id="paint11_linear_109_2007" x1="253.922" y1="207.572" x2="300.043" y2="162.516" gradientUnits="userSpaceOnUse">
<stop stop-color="#161616"/>
<stop offset="0.11447" stop-color="#1C1C1A"/>
<stop offset="0.27002" stop-color="#2E2B27"/>
<stop offset="0.44918" stop-color="#4A453B"/>
<stop offset="0.64592" stop-color="#726957"/>
<stop offset="0.85462" stop-color="#A4967A"/>
<stop offset="1" stop-color="#CCBA96"/>
</linearGradient>
<linearGradient id="paint12_linear_109_2007" x1="90.547" y1="165.792" x2="54.3367" y2="112.444" gradientUnits="userSpaceOnUse">
<stop stop-color="#161616"/>
<stop offset="0.06564" stop-color="#1C1C1A"/>
<stop offset="0.15484" stop-color="#2E2B27"/>
<stop offset="0.25757" stop-color="#4A453B"/>
<stop offset="0.37038" stop-color="#726957"/>
<stop offset="0.49005" stop-color="#A4967A"/>
<stop offset="0.57341" stop-color="#CCBA96"/>
</linearGradient>
<linearGradient id="paint13_linear_109_2007" x1="103464" y1="-129035" x2="105671" y2="-125783" gradientUnits="userSpaceOnUse">
<stop stop-color="#161616"/>
<stop offset="0.11447" stop-color="#1C1C1A"/>
<stop offset="0.27002" stop-color="#2E2B27"/>
<stop offset="0.44918" stop-color="#4A453B"/>
<stop offset="0.64592" stop-color="#726957"/>
<stop offset="0.85462" stop-color="#A4967A"/>
<stop offset="1" stop-color="#CCBA96"/>
</linearGradient>
<linearGradient id="paint14_linear_109_2007" x1="100236" y1="-218445" x2="97430" y2="-222579" gradientUnits="userSpaceOnUse">
<stop stop-color="#161616"/>
<stop offset="0.11447" stop-color="#1C1C1A"/>
<stop offset="0.27002" stop-color="#2E2B27"/>
<stop offset="0.44918" stop-color="#4A453B"/>
<stop offset="0.64592" stop-color="#726957"/>
<stop offset="0.85462" stop-color="#A4967A"/>
<stop offset="1" stop-color="#CCBA96"/>
</linearGradient>
<linearGradient id="paint15_linear_109_2007" x1="90.547" y1="165.792" x2="54.3367" y2="112.444" gradientUnits="userSpaceOnUse">
<stop offset="0.00132" stop-color="#161616"/>
<stop offset="0.11564" stop-color="#1C1C1A"/>
<stop offset="0.27099" stop-color="#2E2B27"/>
<stop offset="0.44991" stop-color="#4A453B"/>
<stop offset="0.64639" stop-color="#726957"/>
<stop offset="0.85481" stop-color="#A4967A"/>
<stop offset="1" stop-color="#CCBA96"/>
</linearGradient>
</defs>
</svg>
