<svg width="14" height="14" viewBox="0 0 14 14" fill="none" xmlns="http://www.w3.org/2000/svg">
<path d="M5.90271 3.11306C6.46778 1.70435 6.75031 1 7.23616 1C7.72201 1 8.00454 1.70436 8.56961 3.11307L8.59592 3.17866C8.91516 3.97451 9.07477 4.37244 9.40008 4.61431C9.7254 4.85617 10.1524 4.89441 11.0065 4.9709L11.1609 4.98473C12.5587 5.10992 13.2576 5.17251 13.4072 5.61716C13.5567 6.06182 13.0377 6.53403 11.9996 7.47845L11.6532 7.79365C11.1277 8.27174 10.8649 8.51078 10.7425 8.82408C10.7196 8.88252 10.7006 8.9424 10.6856 9.00332C10.6051 9.32993 10.6821 9.67671 10.8359 10.3703L10.8838 10.5861C11.1666 11.8608 11.308 12.4981 11.0611 12.773C10.9689 12.8757 10.849 12.9496 10.7158 12.986C10.3593 13.0833 9.85327 12.6709 8.84113 11.8461C8.17652 11.3046 7.84422 11.0338 7.46269 10.9729C7.31262 10.9489 7.1597 10.9489 7.00963 10.9729C6.6281 11.0338 6.2958 11.3046 5.63119 11.8461C4.61905 12.6709 4.11298 13.0833 3.75652 12.986C3.62333 12.9496 3.50343 12.8757 3.41117 12.773C3.16428 12.4981 3.30568 11.8608 3.58849 10.5861L3.63638 10.3703C3.79026 9.67671 3.8672 9.32993 3.78671 9.00332C3.77169 8.9424 3.7527 8.88252 3.72986 8.82408C3.60739 8.51078 3.34465 8.27174 2.81916 7.79365L2.47271 7.47845C1.43464 6.53403 0.915609 6.06182 1.06516 5.61716C1.21471 5.17251 1.91361 5.10992 3.31141 4.98473L3.46581 4.9709C4.31988 4.89441 4.74692 4.85617 5.07223 4.61431C5.39754 4.37244 5.55716 3.97451 5.8764 3.17866L5.90271 3.11306Z" stroke="#B99C63"/>
</svg>
