<svg width="13" height="12" viewBox="0 0 13 12" fill="none" xmlns="http://www.w3.org/2000/svg">
<path d="M5.36523 2.06507C5.88852 0.760512 6.15017 0.108231 6.57526 0.0178281C6.68703 -0.0059427 6.80255 -0.0059427 6.91433 0.0178281C7.33941 0.108231 7.60106 0.760512 8.12435 2.06507C8.42194 2.80695 8.57073 3.17789 8.84914 3.43019C8.92723 3.50096 9.012 3.56398 9.10226 3.61838C9.42406 3.81234 9.82577 3.84831 10.6292 3.92026C11.9892 4.04207 12.6692 4.10297 12.8769 4.4907C12.9199 4.571 12.9492 4.65795 12.9634 4.74792C13.0323 5.18234 12.5323 5.63716 11.5325 6.5468L11.2549 6.7994C10.7874 7.22467 10.5537 7.43731 10.4185 7.70268C10.3374 7.86186 10.283 8.03329 10.2576 8.21012C10.2151 8.50489 10.2835 8.81336 10.4204 9.43031L10.4693 9.65073C10.7148 10.7571 10.8375 11.3103 10.6843 11.5822C10.5467 11.8265 10.2932 11.9829 10.0132 11.9962C9.70141 12.0111 9.26213 11.6532 8.38358 10.9373C7.80476 10.4656 7.51535 10.2298 7.19407 10.1377C6.90047 10.0535 6.58912 10.0535 6.29551 10.1377C5.97423 10.2298 5.68482 10.4656 5.106 10.9373C4.22745 11.6532 3.78817 12.0111 3.47642 11.9962C3.19638 11.9829 2.94288 11.8265 2.80525 11.5822C2.65204 11.3103 2.77478 10.7571 3.02025 9.65074L3.06916 9.43031C3.20604 8.81336 3.27448 8.50489 3.23201 8.21012C3.20653 8.03329 3.15216 7.86186 3.07106 7.70268C2.93588 7.43731 2.70216 7.22467 2.23472 6.7994L1.95707 6.5468C0.957234 5.63716 0.457317 5.18234 0.526163 4.74792C0.540422 4.65795 0.569663 4.571 0.612672 4.4907C0.820334 4.10297 1.50036 4.04207 2.8604 3.92026C3.66381 3.84831 4.06552 3.81234 4.38732 3.61838C4.47758 3.56398 4.56235 3.50096 4.64044 3.43019C4.91885 3.17789 5.06765 2.80695 5.36523 2.06507Z" fill="#B99C63"/>
</svg>
